<svg id="Layer_3" data-name="Layer 3" xmlns="http://www.w3.org/2000/svg" viewBox="0 0 569.66 193.82"><defs><style>.cls-1{fill:#fffcf8;}</style></defs><path class="cls-1" d="M607,185c-.34.38-.83.73-1,1.15-3.63,9.89-12.27,15.83-24.72,18.6-2.28.51-4.92,0-7.36.15a51,51,0,0,1-21.08-3.09c-4.53-1.6-9.31-2.85-13-5.6-7-5.22-9.48-11.59-7-18.84s8.74-11.53,18.1-13.22a21,21,0,0,0,4-1c9-3.66,18.35-3.47,27.8-1.47,8.25,1.75,15.11,5.25,20.2,10.63a34,34,0,0,1,2.77,4.11c.23.32.8.49,1.21.73Zm-33.7,17.18.06-.55c7.65.64,13.78-1.95,19.45-5.45,4.12-2.54,6.38-5.77,6.55-10,.12-3.2.84-6.31-.71-9.49a8.59,8.59,0,0,0-2.29-3.51c-10.68-8.37-23.35-11.09-37.92-7.68-10.5,2.46-17.62,7.53-19.14,16.39-.76,4.4-.06,8.6,4.61,11.57,4.19,2.67,8.71,5.2,14,6.33C562.94,200.85,568.16,201.38,573.29,202.15Z" transform="translate(-37.33 -11.18)"/><path class="cls-1" d="M99,75.5c-2,.24-3.92.32-5.68.69-4.93,1-9.85,2.13-14.71,3.34a9,9,0,0,0-3.34,1.75C73,83.11,73.47,85.6,76.32,86.8a87,87,0,0,0,21.29,6c9.79,1.44,19.67,2.57,29.55,3.63,7.64.81,15.31,1.62,23,1.86,7.3.23,14.64-.19,22-.47,9.08-.34,17.58-2.94,26.43-4.2,2.94-.41,5.89-.74,8.84-1.07a16.18,16.18,0,0,0,7.42-2.42c2.71-1.82,2.87-4.05.34-6a16.69,16.69,0,0,0-3.58-2,96.6,96.6,0,0,0-27.5-7.58c-2.12-.23-4.26-.3-6.4-.45l-2.24-.18c.7-3.84,2.68-5,7.25-4.29,9.74,1.61,19,4.43,28.12,7.4,3.11,1,6.17,2.11,9.28,3.12a16.88,16.88,0,0,1,8.58,5.69,106,106,0,0,1,6.09,9.25c1.24,2.11.47,3-2.54,3.19s-6.11.18-9.1.57A22.77,22.77,0,0,0,211.26,104c-3.14,2.59-4.57,5.63-3,9.14,1.64,3.69,5.2,5.8,10,6.61a40.51,40.51,0,0,0,4.83.35c5.88.3,11.77.57,17.66.9,2.17.12,2.57.93,2.21,2.52a35.28,35.28,0,0,0-1.22,8.3c.11,6.62-3.17,12.11-8.5,17-3.51,3.25-8.07,4.86-13.46,5q-10.6.15-21.21.07c-7.89,0-14.61,6.69-12.41,12.56.72,1.94,2.44,3.14,4.83,3.83l6.11,1.78a67.5,67.5,0,0,1-7,4.42,35.9,35.9,0,0,1-6.78,2,54.29,54.29,0,0,1-6.15,1.18,53.49,53.49,0,0,1-6.46.42c-1.19,0-1.56-.75-.87-1.5,3.19-3.46,3.32-7.67,4.81-11.55a2.78,2.78,0,0,0-.69-2.52,13.06,13.06,0,0,0-3.79-3.18c-8.66-4.36-17.39-8.71-27.91-9.83a121.31,121.31,0,0,0-14.14-.73c-6.68.06-12.41-1.4-17.5-4.8a47.42,47.42,0,0,0-7.88-3.79c-.65-.27-1.74.1-2.62.17A9,9,0,0,0,101,144c1.27,1.57,2.77,3,3.89,4.66,1.38,2,2.83,3.85,5.5,4.93,1.06.43,1,1,.25,1.55a17.65,17.65,0,0,0-6.53,8.59c-.52,1.49-1.49,1.64-3.38,1.05a24,24,0,0,0-3.74-.73c-2.45-.36-3.05-1-2.17-2.8a3.69,3.69,0,0,0-1-4.91,4.73,4.73,0,0,0-4.22-1c-1.61.32-1.41,1.45-1.81,2.4a12.94,12.94,0,0,1-2.48,3.84,3.66,3.66,0,0,1-2.7-.06c-.63-.34-1.23-1.5-.94-1.95,1.16-1.77.33-3.39-.31-5-.73-1.81-3.77-2-5.55-.35-1.2,1.11-2.16,2.38-3.24,3.58-1.6,1.76-3.69,2.09-6.09,1-1.2-.55-1.47-1.22-.54-2.09,1.29-1.2,2.62-2.38,3.84-3.61,1.39-1.39,1.4-2.47.19-3.35a4.42,4.42,0,0,0-5.1-.06c-2.24,1.6-4.48,3.22-6.51,5a2.92,2.92,0,0,1-3.84.34c-1.82-1-2.19-1.85-1.36-3.17s1.7-2.7,2.47-4.08c.65-1.18-.13-1.84-1.56-2.09a4.85,4.85,0,0,0-4.77,1.38c-.92,1-1.76,2.12-2.78,3.09a4.61,4.61,0,0,1-5.54.59c-1.69-.85-2.16-2.2-1-3.84,2.55-3.5,3.19-7.41,4.29-11.22a2.83,2.83,0,0,0-.23-1.75c-1.88-4.7-4-9.34-5.68-14.08a19.92,19.92,0,0,1,1.69-16.68c1.49-2.72,2.77-5.57,4.78-8.06s4.77-4.58,7.21-6.84c.62-.58,1.56-1,1.87-1.7,1.38-3,4.14-5.06,7.35-6.65a109.83,109.83,0,0,1,13.31-5.54,119.9,119.9,0,0,1,12.89-3.34A11.18,11.18,0,0,1,99,75.5Zm6.56,46.26c.6,3,1.15,6,1.78,9,.7,3.38,3,5.78,7.14,7.18,2.13.73,4.13,1.71,6.26,2.42,4.22,1.4,8.41,2.92,12.78,4,5.85,1.43,9.58.12,13-3.83,1-1.24,2.61-2.22,3.77-3.42a6.4,6.4,0,0,0,1.94-2.79c.82-4.32,1.43-8.67,2-13,.08-.6-.53-1.29-1-1.89-.76-1.07-1.62-2.09-2.42-3.14a7.07,7.07,0,0,0-1-1.4c-6.94-5.56-15.76-8.35-25.37-9.15-8-.66-15.31,3.54-17.2,9A65.81,65.81,0,0,0,105.55,121.76Zm-59.72-8.45c.57,2.93,1.05,5.87,1.72,8.77.86,3.66,3.75,6,8.43,6.63a50.78,50.78,0,0,0,7.72.21,10.7,10.7,0,0,0,6.68-2.69q5.15-4,10.69-7.7c3-2,6.46-3.56,9.4-5.6,5-3.43,7-9.37-1.52-12.85A56.07,56.07,0,0,0,70.2,95.47C56.23,94.81,45.74,102.62,45.83,113.31ZM202.3,101.53l-.25-.34c-2.59.33-5.2.57-7.77,1-7.93,1.33-14.92,4-18.43,10-2.61,4.43-5.77,8.74-7,13.62,0,.24-.29.45-.39.69a31.31,31.31,0,0,0-1.86,4.63,46.74,46.74,0,0,0-.79,6.23A6.93,6.93,0,0,0,166,140c1.33,4.33,4.75,7.73,8.22,11.16,2.11-1.15,2-2.66,1.71-4.27-.77-4.57-1.24-9.08.18-13.71,1.18-3.86,3.55-7.19,6-10.54.88-1.19,1.83-2.34,2.66-3.4l3.1,2.9c.78-2,.43-2.42-2.59-3.61C188.4,111.37,194,105.65,202.3,101.53ZM80.47,147.79c2-.43,6.07-1.1,9.94-2.16,3-.83,3.75-2.17,3.4-4.62-.33-2.3-.79-4.59-1-6.89s0-4.58-.23-6.86c0-.6-.64-1.56-1.19-1.66a10,10,0,0,0-4.43,0,10.35,10.35,0,0,0-4.27,2.52c-3,3.14-6.73,5.53-10.55,8a6.64,6.64,0,0,0-2.57,2.88C67.89,143.25,72.5,147.8,80.47,147.79Z" transform="translate(-37.33 -11.18)"/><path class="cls-1" d="M292.6,147.62c0-5.43,0-10.87,0-16.3,0-.46-.22-1.2-.6-1.32-1.53-.49-1.46-1.43-1.33-2.37a18,18,0,0,1,.65-2.55,6,6,0,0,0,.42-1.43q.07-14,0-27.93a5.54,5.54,0,0,0-.7-1.79,3.75,3.75,0,0,1-.41-1.25c0-3.68,0-7.35,0-11,0-1,.44-1.42,1.59-1.49,4.5-.27,9-.56,13.52-.76,3-.13,6.09,0,9.12-.18a79.3,79.3,0,0,1,21.48,2.17c6.34,1.38,9.54,5.41,11.87,9.9,1.95,3.79,1.68,7.68,1.07,11.6-.35,2.3-.55,4.61-1,6.89a6.94,6.94,0,0,1-1.43,2.51c-.53.68-1.39,1.2-1.95,1.87-1.46,1.7-1.4,3.26.26,4.86a12.26,12.26,0,0,0,3,2.16c5.21,2.6,7.47,6.42,7.84,11,.24,3.06.3,6.13.49,9.19.44,7.34-3.54,13.25-10.46,17.88A68.1,68.1,0,0,1,334,165.17c-1.64.68-3.9.61-5.88.61-9.79,0-19.59-.12-29.38-.17a16,16,0,0,0-2.5.19c-2.69.39-3.55-.15-3.55-2.33q0-7.93,0-15.85Zm18.17-5.71h.09c0,4.08,0,8.15,0,12.23,0,1.38.78,2.08,2.49,2.16,2.65.13,5.31.34,8,.28,5-.11,9.33-1.55,12.69-4.53,7-6.19,8.22-13.24,5.08-20.87-1.24-3-2.81-6-6-8.14a4.14,4.14,0,0,0-3.73-.72c-5.11,1.46-10.24,2.85-15.34,4.32-2.52.72-3.23,1.67-3.22,3.8C310.78,134.26,310.77,138.09,310.77,141.91Zm5-52.8-.06.28c-1.1,0-2.2,0-3.29,0-2.81.07-3.56.66-3.56,2.83q0,10.86.08,21.7c0,2.62,1.55,3.65,4.83,3,8.45-1.6,14.93-5.27,18.93-11.31,4.1-6.19.53-13-8-15.22A82.72,82.72,0,0,0,315.76,89.11Z" transform="translate(-37.33 -11.18)"/><path class="cls-1" d="M471.14,135.9c.23-2.89.53-5.44.62-8,.3-8.54.59-17.09.72-25.64,0-3.11-.35-6.22-.58-9.33-.22-2.9.55-3.62,4.22-4.18,3.42-.53,6.8-1.18,10.42-1.82v1.61c0,9.56,0,19.12.08,28.69,0,8.5.12,17,.18,25.5q.06,8.89.09,17.8c0,2.52-.9,3.2-4.18,3.22-2.27,0-4.54,0-6.81,0a7.91,7.91,0,0,1-6.75-2.89c-4.83-5.61-8-11.82-11.42-18-2-3.55-4.37-6.95-6.6-10.41a3.55,3.55,0,0,0-1.66-1.31c-.16,2-.47,3.91-.44,5.87.1,8,.28,16.09.47,24.13.05,2.34-.48,2.93-3.43,3-2.27.09-4.55.06-6.81,0-2-.08-3.21-.94-3.34-2.58-.36-4.61-.95-9.22-1.07-13.84-.24-8.7-.25-17.41-.3-26.12,0-3.92.17-7.84.16-11.77,0-3.21-.13-6.43-.26-9.65-.12-3,2.8-5.13,6.73-4.59a3.75,3.75,0,0,1,2.18,1.47q13.56,19,27,38.05A7.45,7.45,0,0,0,471.14,135.9Z" transform="translate(-37.33 -11.18)"/><path class="cls-1" d="M363.82,127.92c.34-7.81,1-14.87,2.92-21.83a12.34,12.34,0,0,1,5-6.82c15.27-10.88,36.38-6.88,45.72,3,3.16,3.33,4.35,7.25,5.11,11.26a81.37,81.37,0,0,1-1.45,36.87c-1.66,6.09-6.53,9.94-13.69,12.17a44.08,44.08,0,0,1-25.29.25c-9.08-2.53-13.56-8.12-15.45-15.11a86.74,86.74,0,0,1-2-10.27C364.18,134,364.05,130.62,363.82,127.92Zm44.89-2.9c0-2.82.17-5.64,0-8.44a16.78,16.78,0,0,0-4.23-10.36c-3.3-3.67-8.17-4.49-13.44-3.92-5,.54-8.43,3-9.52,6.81a43,43,0,0,0-2,10.85c-.11,6.37.36,12.76.81,19.13a29.41,29.41,0,0,0,1.52,7.42c1.76,5.23,5.89,8.66,14.71,7.47,4.67-.63,7.67-2.45,8.91-6A58.26,58.26,0,0,0,408.71,125Z" transform="translate(-37.33 -11.18)"/><path class="cls-1" d="M235.6,116.36c-4.08-.28-8.78-.35-13.35-1-4.73-.66-7.05-3.28-6.86-6.79.14-2.62,2.43-4.53,5.81-4.5,8.11.06,16.23.13,24.32.45,5.49.22,11,.75,16.42,1.37,5.26.61,9.31,2.7,11.92,6.47,1.92,2.77,4.39,5.32,6.31,8.09a8.84,8.84,0,0,1,1.71,4.55c.12,4.52-.12,9-.3,13.57a5.3,5.3,0,0,1-.7,2.32c-1,1.73-2.15,3.39-3.17,5.11-4.15,7-11.08,11.95-19.68,15.42a84.67,84.67,0,0,1-13.83,3.88c-7.17,1.53-14.44,2.81-21.73,4a54.88,54.88,0,0,1-8.72.38,4.69,4.69,0,0,1-2.77-.83c-1.39-1.31-3.09-1.34-5-1.46a34.09,34.09,0,0,1-7.33-1.17c-3.34-1-5-4.61-3.48-7.11a3.11,3.11,0,0,1,2-1.18,83.34,83.34,0,0,1,9.47-.51c10.67.3,21.3.2,31.65-2.08a33.94,33.94,0,0,0,8-2.93,54.83,54.83,0,0,0,9.13-5.62,13.8,13.8,0,0,0,5-8.18,23.29,23.29,0,0,0-.2-11.1,20.94,20.94,0,0,0-5.47-8.86c-1.58-1.62-4.07-2.18-6.57-2.26C244.22,116.28,240.2,116.36,235.6,116.36Z" transform="translate(-37.33 -11.18)"/><path class="cls-1" d="M586.38,116.15a11.22,11.22,0,0,1,0-1.68c.42-2.28-1.09-3.69-3.44-4.79q-13.47-6.34-26.9-12.74c-6.16-2.94-5.8-1.9-5.78-7.9,0-5,.05-10,0-14.93,0-1.83,1-2.91,3.11-3.57,7.33-2.29,14.62-4.66,22-6.86a6.73,6.73,0,0,1,4,.24c6.28,2.72,12.45,5.6,18.63,8.47,2.3,1.07,2.35,2,.21,3.35-1.74,1.05-3.57,2-5.4,3a7,7,0,0,1-5.92.33c-2.61-1-5.23-2-7.69-3.21a6.1,6.1,0,0,0-5.94-.14c-1.24.64-2.61,1.12-3.91,1.69-3.79,1.67-4.88,3.61-4,6.93a9.12,9.12,0,0,0,5.23,5.76c9.55,4.66,19.11,9.31,28.76,13.86,2.2,1,3.27,2.28,3.19,4.25-.14,4-.08,8-.34,12.07a6.91,6.91,0,0,1-1.53,3.33c-1.88,2.53-3.91,5-6,7.42-1.3,1.55-2.71,3-4.15,4.51a3.81,3.81,0,0,1-1.35.54c-5.42,1.79-10.9,3.49-16.24,5.42a12.24,12.24,0,0,1-10.43-.48c-5.06-2.58-9-6-13.15-9.37-.82-.67-.43-1.22.53-1.53,4.25-1.35,8.49-2.75,12.83-3.94a5.66,5.66,0,0,1,3.11.67c1.17.51,2.07,1.37,3.22,1.92,4.38,2.06,8.4,1.5,11.46-1.67,1.63-1.68,3.05-3.5,4.54-5.26A6.56,6.56,0,0,0,586.38,116.15Z" transform="translate(-37.33 -11.18)"/><path class="cls-1" d="M534.68,77.9l1.82-3.72-.57-.23,4.64-1.34c0,3,.07,5.76,0,8.55,0,1.35-1.23,2.18-2.87,2.54-2.11.47-4.3.76-6.38,1.32-5.44,1.46-10.86,3-16.26,4.55a2.93,2.93,0,0,0-2.46,3.09c.09,3.77,0,7.54,0,11.31,0,2.21.9,3,3.8,3,5.72,0,11.43,0,17.14,0,3.38,0,3.73.26,4,2.9,0,.35,0,.7.06,1,.15,3.93-.51,4.55-5.64,4.74-4.79.18-9.58.27-14.38.32-4.11,0-5.36,1-5.3,4.13.14,7.75.25,15.49.41,23.24.08,4.08.92,4.55,5.89,3.14,7.78-2.2,15.54-4.46,23.32-6.7.71-.2,1.45-.37,2.16-.55,2.58,4.1.8,8.71-4.34,10.26-13.21,4-26.54,7.75-39.82,11.6-.41.12-.86.16-1.8.33,0-2.7,0-5.24,0-7.78q.1-11.31.22-22.63c0-.76,0-1.51,0-2.26l-.18-42.87c0-2.54.21-2.77,3.31-3.51,9.47-2.27,19-4.5,28.41-6.81,1.78-.44,3.15-.66,3.65,1.16C533.51,77.07,534,77.29,534.68,77.9Z" transform="translate(-37.33 -11.18)"/><path class="cls-1" d="M127.13,156.74a31.28,31.28,0,0,1,3.83,1.07c2,.85,4,1.87,6,2.8,4.07,1.9,5,4.4,2.8,7.68a5,5,0,0,0-.8,1.52c-.46,2.24-.71,4.53-3.71,5.77a4.52,4.52,0,0,0,5.77-.12c4-3.8,8-7.65,11.95-11.5a20,20,0,0,0,1.65-2.05c1.09-1.4,1.86-1.44,3.19-.14a5.59,5.59,0,0,1,1.61,6.11,21.29,21.29,0,0,1-6.87,10.5,40.63,40.63,0,0,0-4.23,4.68,55.11,55.11,0,0,1-4.16,4.37c-3.67,3.24-8.31,4.7-13.91,4.11-7-.75-14-.22-21,.48-8.63.86-17.28,1.82-25.93.41A62.81,62.81,0,0,1,74,190c-3.54-1.16-6.43-3-8-5.88a7.08,7.08,0,0,0-1.53-1.73c-1.29-1.14-2.58-.92-3.32.51,0,.09-.08.19-.12.28-1.11,2.71-2.41,3.05-5.35,1.35-3.26-1.89-6.59-3.73-9.69-5.78a22.3,22.3,0,0,1-3.75-3.64,2.58,2.58,0,0,1-.31-3.68c2.13-2.6,3.39-5.63,6.58-7.72,1.34-.88,2.54-1.43,4.16-.71s1.55,1.84,1,3c-.15.33-.23.68-.41,1-.55,1-.54,2,.89,2.6a3.54,3.54,0,0,0,3.87-.56c.72-.64,1.26-1.4,1.92-2.09a5,5,0,0,1,6-.67,2,2,0,0,1,.74,1.65,19.06,19.06,0,0,1-.63,2.5c-.28,1.64.43,2.61,2.19,3.11a4.15,4.15,0,0,0,4.61-1.06,20.77,20.77,0,0,0,1.52-2.26c1.34-2,6-2.24,7.49-.3.35.45.17,1.25,0,1.83-.34,1-1,2-1.32,3-.44,1.42.24,2.18,2,2.56s3-.11,3.59-1.36a29.74,29.74,0,0,1,2.07-4.2,5.12,5.12,0,0,1,5.83-1.6c.38.13.83.91.73,1-1.3,1-.68,2.2-.55,3.3.55,4.55,2.7,6.52,8.48,7.34a42,42,0,0,0,15-.13c5.87-1.3,10.28-4.73,10.31-9.54a23.73,23.73,0,0,1,1.65-7.7,4.86,4.86,0,0,0-1.6-5.86c-.46-.4-.86-.85-1.29-1.27Z" transform="translate(-37.33 -11.18)"/><path class="cls-1" d="M147.33,76.7a7,7,0,0,1-1.88-.73c-1.71-1.45-3.34-3-4.94-4.48-2.55-2.43-3.45-5.41-4.44-8.34-2.52-7.49-2.83-15.12-2.49-22.81.15-3.43,1.75-6.26,4.28-8.91,1.13-1.18,2.25-2.36,3.31-3.57,4-4.58,4.72-9.47,2.2-14.65-.28-.59-.57-1.18-.85-1.76l.24-.27c.58.27,1.41.43,1.72.83,4,5.1,8.18,10.18,9.35,16.21a32.9,32.9,0,0,1,.16,8.06,37.67,37.67,0,0,1-1.09,8,25.52,25.52,0,0,1-3.07,6.42c-2.43,3.91-4.3,7.9-4.68,12.27a21.32,21.32,0,0,0,1.44,9.17c.51,1.38.81,2.82,1.2,4.23Z" transform="translate(-37.33 -11.18)"/><path class="cls-1" d="M83.94,36.43c3.46,4.19,6.43,8.49,12,11.62-.13-1.25-.18-2.26-.37-3.25-.65-3.55.49-6.85,2.12-10.1,3.28-6.54,9.1-11.39,16.71-15a5.42,5.42,0,0,1,1.83-.1c0,.41.14.88,0,1.23-1.56,2.82-3.37,5.57-4.75,8.44-5.34,11-4.2,21.52,4.89,31.24,4.31,4.61,7.93,9.51,9.83,15.07.5,1.48.8,3,1.19,4.5l-.46.15c-.42-.31-.88-.61-1.27-.95-2.54-2.18-5-4.38-7.59-6.53-5.87-4.92-12.67-9-19.64-12.93a40.5,40.5,0,0,1-9.4-7C85,48.68,83.84,44,83.79,39,83.79,38.14,83.89,37.29,83.94,36.43Z" transform="translate(-37.33 -11.18)"/><path class="cls-1" d="M161.78,82.18a15.05,15.05,0,0,1-2.58-2.07c-3-4.09-3.52-8.3-1.16-12.76a54.6,54.6,0,0,1,10.87-14.51,12.44,12.44,0,0,0,2.63-3,7.89,7.89,0,0,0,.9-3.85,3.93,3.93,0,0,1,.67-2.44,17.47,17.47,0,0,0,2.94-12.19,8.1,8.1,0,0,1,0-2.82c.64-3,1.43-6,2.16-9,7.08,7.31,9.47,15.44,6.74,24.5,3.76-2.24,7-4.65,7.06-8.61,0-2.46,0-4.93,0-7.54,2.94,2.46,5.1,5.18,5.69,8.44a32.7,32.7,0,0,1,.16,5.86,30.79,30.79,0,0,0-.07,4.7c.56,3.47-1.1,6.16-4.4,8.33a77.47,77.47,0,0,1-14.21,7.64,40.66,40.66,0,0,0-13.63,8.52c-2.53,2.46-3.85,5.23-3.42,8.42a9.77,9.77,0,0,1,0,1.53A4.76,4.76,0,0,1,161.78,82.18Z" transform="translate(-37.33 -11.18)"/><path class="cls-1" d="M469.36,179.56c-2.47,0-4.94,0-7.4,0-1.6,0-2.79.42-2.75,1.93s.78,2.23,2.8,2.28c2.59.07,5.19.06,7.78.08,1.45,0,2.76.16,3,1.55s-.5,2.19-2.41,2.21c-2.86,0-5.71,0-8.57,0-2.54,0-3.44.56-3.41,2.05s.94,2,3.53,2c4.79-.09,9.59-.26,14.38-.36,2.57-.05,3.47.78,3.14,2.67-.25,1.46-1.61,1.7-3.11,1.72-2.86,0-5.72,0-8.57,0-4,.07-8,.12-12,.36s-4.65-.27-4.33-3.26c.36-3.36.76-6.72.86-10.08a18.6,18.6,0,0,0-.83-5.51c-.39-1.35,0-1.92,1.74-1.95,2.85,0,5.7-.14,8.56-.13,4.67,0,9.34.11,14,.18,1.39,0,2.53.36,3,1.52.67,1.67-.19,2.67-2.43,2.7s-4.67,0-7,0Z" transform="translate(-37.33 -11.18)"/><path class="cls-1" d="M503.2,196.17c-3.83,0-7.66,0-11.49,0-1.76,0-2.45-.64-2.43-1.94.06-4.07.16-8.15.11-12.22a21.57,21.57,0,0,0-.6-4.92c-.27-1.11.08-1.64,1.46-1.82a7.31,7.31,0,0,1,1.54-.11,138.41,138.41,0,0,0,21.74.49c1.41-.09,2.36.17,2.53,1.47.25,2.07-.38,2.54-3.13,2.48-4.21-.08-8.44-.08-12.65,0-1.75,0-3.38.36-3.8,2-.35,1.38.34,2.17,2.16,2.2,2.33.05,4.67,0,7,0,1.1,0,2.19.14,3.29.22,1.49.11,2.19.74,2.13,1.9a2,2,0,0,1-2.19,2.08c-2.52.05-5.05,0-7.57,0-.91,0-1.82,0-2.72.06-2.06.22-2.87,1-2.73,2.37s1.48,1.74,3,1.74h13.82c.91,0,1.82,0,2.73,0,1.21,0,2.59-.13,2.63,1.34s-.68,2.35-2.42,2.44c-2.65.13-5.31.1-8,.13H503.2Z" transform="translate(-37.33 -11.18)"/><path class="cls-1" d="M350.24,175.93a21.12,21.12,0,0,1,12.47,4.15c4.57,3.56,3.85,9.5-1.48,13.11-7.18,4.87-21.24,4-27.13-1.84a10.22,10.22,0,0,1-2.51-4.17c-1-3.17.67-5.72,3.91-7.65C339.85,176.94,345,176.22,350.24,175.93Zm1.26,17.93a10.2,10.2,0,0,0,7.25-4.13c3-3.79.8-7.76-4.87-8.31a21.26,21.26,0,0,0-14.32,3.68c-1.33.91-1.44,2-.14,3a29.48,29.48,0,0,0,10.36,5.45A14.33,14.33,0,0,0,351.5,193.86Z" transform="translate(-37.33 -11.18)"/><path class="cls-1" d="M413.76,185.87c0-2.62,0-5.24,0-7.85,0-2.12,1.07-2.93,3.8-2.87q10.2.25,20.41.53c2.41.06,3.21.87,2.75,2.58-.3,1.1-1.26,1.25-2.46,1.25-4.74,0-9.48,0-14.21.06a6,6,0,0,0-2.62.37c-.56.33-1.08,1.34-.82,1.74a3.51,3.51,0,0,0,2.29,1.44c2.44.2,4.92.08,7.38.11.91,0,1.82,0,2.72.08,1.59.14,2.51.76,2.34,2.1s-1,2-2.81,1.91c-2.51-.15-5-.23-7.54-.44-3.17-.27-4.87.84-4.72,3.28a28.15,28.15,0,0,1,.34,3.14c-.11,2.22-3.63,3.63-6,2.4a1.89,1.89,0,0,1-.78-1.54c-.08-2.76,0-5.53,0-8.29Z" transform="translate(-37.33 -11.18)"/><path class="cls-1" d="M312.61,175c2.58.42,5.18.78,7.73,1.3,1.3.26,2.43.84,2.09,2.15a3.14,3.14,0,0,1-3.49,1.86,14.06,14.06,0,0,1-2.75-.71c-5.51-1.82-12.64.32-15.14,4.57-1.21,2.06-.43,4.45,2.18,5.86A18.18,18.18,0,0,0,316,191.85c1.13-.23,2.2-.65,3.34-.79a5.11,5.11,0,0,1,2.58.22,9.53,9.53,0,0,1,2.07,1.89,15.13,15.13,0,0,1-2.36,1.05c-5.42,1.4-11,2.31-16.57.94a82.88,82.88,0,0,1-9.38-3.21c-2-.75-2.39-2-2.2-3.78a11.77,11.77,0,0,1,5.18-9C302.58,176.46,307.28,175.27,312.61,175Z" transform="translate(-37.33 -11.18)"/><path class="cls-1" d="M389.78,188.05c-1.88,0-3.76-.07-5.63,0s-2.69.86-2.49,2.31c.17,1.24.29,2.49.45,3.74.19,1.43-1,1.83-2.48,1.95-2,.15-3.19-.37-3.27-1.64-.14-2,0-3.91,0-5.86,0-3.3,0-6.6-.06-9.9-.07-2.34.2-2.74,3.15-2.75,7,0,14,0,21,.07,1.83,0,2.67.81,2.67,2.23s-1.26,1.58-2.66,1.58c-5.06,0-10.12,0-15.18,0-1.55,0-3.05.19-3.51,1.62s.72,2.71,3,2.68c3.24-.05,6.48-.26,9.71-.28,2.16,0,3,.81,2.78,2.35-.19,1.1-1,1.74-2.43,1.76-1.68,0-3.37,0-5.06,0Z" transform="translate(-37.33 -11.18)"/><path class="cls-1" d="M592.27,188.55c1.73-.27,2.87-.57,3-1.76.15-1.42-1.32-1.58-2.6-1.63s-2.76.53-2.61,1.65C590.13,187.44,591.48,188,592.27,188.55Z" transform="translate(-37.33 -11.18)"/><path class="cls-1" d="M578.36,188.63a15,15,0,0,1-8.35-2c-2.87-1.72-3.55-3.93-1.84-6.39,2-2.84,5.28-4.13,9.26-4.21s7.43,1.07,9.64,3.74c2.7,3.24-.93,8.31-6.18,8.78C580.05,188.6,579.21,188.6,578.36,188.63Zm0-9.82c-3.27,0-6.44,1.6-6.52,3.35-.09,2.12,2.59,3.91,6,4,2.79.06,5.41-2,5.43-4.27C583.26,180.12,581.2,178.83,578.36,178.81Z" transform="translate(-37.33 -11.18)"/><path class="cls-1" d="M556.62,179.06c-1,.05-2,0-2.9.16-1.82.27-3,1.09-3.29,2.59a2.74,2.74,0,0,0,2.31,3.42,45.41,45.41,0,0,0,6.83.4c.75,0,1.52-.36,2.26-.32.51,0,1.34.41,1.39.7a1.47,1.47,0,0,1-.73,1.33c-4.77,2.23-12.21,1.37-16-1.78a3.45,3.45,0,0,1-.79-4.88c2.81-4.09,10.64-5.1,15-3.45.28.11.64.52.56.65-.22.38-.57.9-1,1a35.78,35.78,0,0,1-3.62.38Z" transform="translate(-37.33 -11.18)"/><path class="cls-1" d="M592.27,188.55c-.79-.57-2.14-1.11-2.22-1.74-.15-1.12,1.2-1.71,2.61-1.65s2.75.21,2.6,1.63C595.14,188,594,188.28,592.27,188.55Z" transform="translate(-37.33 -11.18)"/></svg>