<?xml version="1.0" encoding="utf-8"?>
<!-- Generator: Adobe Illustrator 25.2.3, SVG Export Plug-In . SVG Version: 6.00 Build 0)  -->
<svg version="1.1" xmlns="http://www.w3.org/2000/svg" xmlns:xlink="http://www.w3.org/1999/xlink" x="0px" y="0px"
	 viewBox="0 0 66 66" style="enable-background:new 0 0 66 66;" xml:space="preserve">
<style type="text/css">
	.st0{fill:#FFFDF5;}
</style>
<g id="Layer_2">
	<path class="st0" d="M61.6,62.1c-1.7,0.4-4.4,0.9-7.7,1.3c-8.5,1-10.7,0.1-21.2,0.3c-11.2,0.2-14.1,1.4-21-0.3
		c-3.1-0.8-5.6-1.8-7.2-2.6c-1-1.5-2.3-3.9-3.1-7.1c-0.7-2.8-0.6-5-0.6-7.8c0.1-4.2,0.6-4.9,1.1-10.1c0.2-2.4,0.2-4.6,0.3-9
		c0.1-6.6,0.2-9.9,0.2-10.7c-0.1-2.9-0.3-4.2,0.3-6.1c0.8-2.5,2.4-4.2,3.7-5.2c1.6-0.5,4.1-1.3,7.1-1.9c6.2-1.2,8.9-0.7,21.6-0.6
		c10.9,0.1,14-0.1,20.1,1.2c2.5,0.6,4.6,1.2,6.1,1.7c0.9,0.6,2.1,1.7,3,3.3c1.2,2.2,1.3,4.3,1.3,6.7c0,5-0.4,8.9-0.6,10.2
		c-0.2,1.8-0.1,5.4,0,12.7c0.1,5.1-0.3,10.2-0.3,15.3c0,1,0,3.2-1.1,5.7C62.9,60.5,62.2,61.5,61.6,62.1z"/>
</g>
<g id="calendar">
	<path d="M53.7,2.6C41.2,1.5,28.7,1.3,16.2,2C4.2,2.7,1.7,7.1,1.9,15.7c0,9.8-2,29.3-1.7,35c0.3,4.9,2.4,9.1,5.8,11.4
		c4.8,3.1,7.2,2.4,49.1,1.7c7.8-0.1,9.9-2.6,10-9.8c0.7-39.3,0.7-37.9,0.6-39.3C65.5,5.6,61.6,3.3,53.7,2.6z M16.3,3
		c12.5-0.7,24.9-0.5,37.4,0.6c6.7,0.6,10.8,2.1,11.1,10.8c-4.7,1.1-40.6,1.6-61.8,0.8C2.7,6.1,6.7,3.6,16.3,3z M64.1,54
		c-0.1,6.6-1.7,8.7-9,8.8C13,63.4,11,64.1,6.6,61.2c-3.1-2-5.1-6-5.3-10.6C0.9,45,3.1,22.4,2.9,16.2c20.5,0.7,56.8,0.3,61.9-0.8
		C64.8,16.9,64.8,14.2,64.1,54z"/>
	<path d="M17.6,19.6l-3.8,0c-4.9,0-5,2.1-4.7,6.7c0.1,2-0.6,4.9,4,4.9l0.2,0l4,0c3.9,0,5.6-1.3,5.4-6.4
		C22.7,20.5,21.2,19.6,17.6,19.6z M12.5,30.2L12.5,30.2L12.5,30.2L12.5,30.2z M13.3,30.2l-0.1,0c0-0.1,0-0.1-0.1-0.2l-0.2-0.2
		l0.8-0.8l0.9,0.9l-0.2,0.2C14.4,30.2,13.3,30.2,13.3,30.2z M17.4,27.9C17.4,27.9,17.4,27.9,17.4,27.9l0.8,0.8l-1,1l-0.8-0.8
		L17.4,27.9z M18.9,28.7l0.7-0.7l0.8,0.8l-0.7,0.7L18.9,28.7z M19.5,30c-0.6,0.2-1.3,0.2-2.1,0.2c0,0,0-0.1,0-0.1l1.1-1.1L19.5,30z
		 M16.9,30c0,0.1,0,0.1,0,0.2l-1.6,0c0,0,0-0.1,0-0.2l0.8-0.8C16.1,29.2,16.9,30,16.9,30z M20.2,29.6l0.5-0.5c0,0,0,0,0.1,0
		C20.5,29.5,20.5,29.5,20.2,29.6z M21.1,28.8L21.1,28.8C21.1,28.8,21.1,28.8,21.1,28.8L21.1,28.8z M21.5,28.1
		c-0.2-0.2-0.5,0.1-0.7,0.3l-0.8-0.8l0.4-0.4c0.1-0.1,0.1-0.3,0-0.4s-0.3-0.1-0.4,0l-0.4,0.4l-0.4-0.4c-0.1-0.1-0.3-0.1-0.4,0
		s-0.1,0.3,0,0.4l0.4,0.4l-0.7,0.7l-0.7-0.7c0,0,0,0,0,0l0.1-0.1c0.1-0.1,0.1-0.3,0-0.4s-0.3-0.1-0.4,0l-1.5,1.5l-0.3-0.3
		c-0.1-0.1-0.3-0.1-0.4,0s-0.1,0.3,0,0.4l0.3,0.3L15,29.6L14,28.7l0.5-0.5c0.1-0.1,0.1-0.3,0-0.4s-0.3-0.1-0.4,0l-1.7,1.7l-0.3-0.3
		c-0.2-0.2-0.6,0.1-0.4,0.4l0.3,0.3l-0.3,0.3c-2.1-0.3-1.7-1.9-1.8-3.9c-0.2-4.4-0.3-5.6,3.7-5.7l3.8,0c3,0,4.1,0.5,4.2,4.2
		l-0.9-0.9l0.5-0.5c0.2-0.2-0.1-0.6-0.4-0.4l-0.5,0.5c-0.1,0-0.2,0-0.3,0c-0.1,0.1-0.1,0.2,0,0.3c0,0.1,0,0.2,0,0.3
		c0,0,0.1,0.1,0.2,0.1c0,0,0,0,0.1,0l0.4,0.4l-0.8,0.8c-0.1,0-0.1,0-0.2,0.1c0,0.1-0.1,0.1-0.1,0.2L19.6,26c-0.1,0.1-0.1,0.3,0,0.4
		s0.3,0.1,0.4,0l0.2-0.2c0.1,0.1,1,1,1.1,1c0.1,0,0.3-0.1,0.3-0.2c0-0.1,0-0.1-0.1-0.2l-1-1l0.7-0.7l0.2,0.2c0,0,0.1,0.1,0.2,0.1
		c0,0,0.1,0,0.1,0C21.8,26.2,21.8,27.2,21.5,28.1z M35.5,19.6l-3.8,0c-4.9,0-5,2.1-4.7,6.7c0,0.6,0.1,1.2,0,1.5
		c-0.2,2.4,1.5,3.4,4,3.4c5.1,0,8.6,0.6,9.5-3.5c0.2-1,0.2-2,0.2-2.9C40.6,20.6,39.1,19.6,35.5,19.6z M36,27.9
		C36,27.9,36,27.9,36,27.9l0.8,0.8l-1,1L35,28.9C35,28.9,36,27.9,36,27.9z M36,30.1l1.1-1.1l0.8,0.8C37.3,30,36.7,30.1,36,30.1
		C36,30.1,36,30.1,36,30.1z M39.7,26.4l-0.6-0.6l0.6-0.6C39.7,25.6,39.7,26,39.7,26.4z M38.3,29.5l-0.8-0.8l0.7-0.7l0.8,0.8
		L38.3,29.5z M39.4,23.9l0.2-0.2c0,0.1,0,0.3,0,0.5L39.4,23.9z M28.1,27.9c0-0.4,0-1,0-1.6c-0.2-4.4-0.3-5.6,3.7-5.7l3.8,0
		c2.1,0,3.6,0.2,4,2.5L39,23.6c-0.1,0-0.2,0-0.3,0c-0.1,0.1-0.1,0.2,0,0.3c0,0.1,0,0.2,0,0.3c0.1,0.1,0.2,0.1,0.3,0l0.4,0.4
		l-0.8,0.8c-0.1,0-0.1,0-0.2,0.1s-0.1,0.1-0.1,0.2L38.2,26c-0.1,0.1-0.1,0.3,0,0.4s0.3,0.1,0.4,0l0.2-0.2l0.9,0.9
		c0,0.2,0,0.3-0.1,0.5c-0.1,0.3-0.2,0.6-0.3,0.9l-0.8-0.8l0.4-0.4c0.1-0.1,0.1-0.3,0-0.4s-0.3-0.1-0.4,0l-0.4,0.4l-0.4-0.4
		c-0.1-0.1-0.3-0.1-0.4,0s-0.1,0.3,0,0.4l0.4,0.4l-0.7,0.7l-0.7-0.7c0,0,0,0,0,0l0.1-0.1c0.1-0.1,0.1-0.3,0-0.4s-0.3-0.1-0.4,0
		l-1.5,1.5l-0.3-0.3c-0.1-0.1-0.3-0.1-0.4,0s-0.1,0.3,0,0.4l0.3,0.3l-0.8,0.8l-0.9-0.9l0.5-0.5c0.1-0.1,0.1-0.3,0-0.4
		s-0.3-0.1-0.4,0l-1.7,1.7l-0.3-0.3c-0.1-0.1-0.3-0.1-0.4,0s-0.1,0.3,0,0.4l0.3,0.3l-0.4,0.4C28.9,30.1,28,29.5,28.1,27.9z
		 M31.7,30.2c0-0.1,0-0.1-0.1-0.2l-0.2-0.2l0.8-0.8l0.9,0.9l-0.2,0.2C32.9,30.2,31.7,30.2,31.7,30.2z M31.1,30.2L31.1,30.2
		L31.1,30.2L31.1,30.2z M33.8,30.2c0,0,0-0.1,0-0.2l0.8-0.8l0.8,0.8c0,0.1,0,0.1,0,0.2C33.9,30.2,37,30.2,33.8,30.2z M52.7,19.6
		l-3.8,0c-6.4,0-4.4,4-4.7,8.2c-0.2,2.4,1.5,3.4,4,3.4l0.2,0l4,0c1.7,0,4.5,0,5.3-3.5c0.2-1,0.2-2,0.2-2.9
		C57.8,20.5,56.3,19.6,52.7,19.6z M53.2,27.9C53.2,27.9,53.2,27.9,53.2,27.9l0.8,0.8l-1,1l-0.8-0.8C52.2,28.9,53.2,27.9,53.2,27.9z
		 M53.2,30.1l1.1-1.1l0.8,0.8C54.5,30,53.9,30.1,53.2,30.1C53.2,30.1,53.2,30.1,53.2,30.1z M56.9,26.4l-0.6-0.6l0.6-0.6
		C56.9,25.6,56.9,26,56.9,26.4z M55.5,29.5l-0.8-0.8l0.7-0.7l0.8,0.8L55.5,29.5z M56.6,23.9l0.2-0.2c0,0.1,0,0.3,0,0.5L56.6,23.9z
		 M45.3,27.9c0.3-4.5-1.6-7.3,3.7-7.3l3.8,0l0.2,0c2.1,0,3.4,0.3,3.8,2.5l-0.5,0.5c-0.1,0-0.2,0-0.3,0c-0.1,0.1-0.1,0.2,0,0.3
		c0,0.1,0,0.2,0,0.3c0.1,0.1,0.2,0.1,0.3,0l0.4,0.4l-0.8,0.8c-0.1,0-0.1,0-0.2,0.1c0,0.1-0.1,0.1-0.1,0.2L55.4,26
		c-0.1,0.1-0.1,0.3,0,0.4s0.3,0.1,0.4,0l0.2-0.2l0.9,0.9c0,0.2,0,0.3-0.1,0.5c-0.1,0.3-0.2,0.6-0.3,0.9l-0.8-0.8l0.4-0.4
		c0.1-0.1,0.1-0.3,0-0.4s-0.3-0.1-0.4,0l-0.4,0.4L55,26.9c-0.1-0.1-0.3-0.1-0.4,0s-0.1,0.3,0,0.4l0.4,0.4l-0.7,0.7l-0.7-0.7
		c0,0,0,0,0,0l0.1-0.1c0.1-0.1,0.1-0.3,0-0.4s-0.3-0.1-0.4,0l-1.5,1.5l-0.3-0.3c-0.1-0.1-0.3-0.1-0.4,0s-0.1,0.3,0,0.4l0,0l0.3,0.3
		l-0.8,0.8l-0.9-0.9l0.5-0.5c0.1-0.1,0.1-0.3,0-0.4s-0.3-0.1-0.4,0l-1.7,1.7L48,29.1c-0.1-0.1-0.3-0.1-0.4,0c0,0,0,0,0,0
		c-0.2,0.2,0.1,0.5,0.3,0.7l-0.4,0.4C46.1,30.1,45.2,29.5,45.3,27.9z M48.9,30.2c0-0.1,0-0.1-0.1-0.2l-0.2-0.2l0.8-0.8l0.9,0.9
		l-0.2,0.2L48.9,30.2z M48.3,30.2L48.3,30.2L48.3,30.2C48.3,30.2,48.3,30.2,48.3,30.2z M52.5,30.2l-1.5,0c0,0,0-0.1,0-0.2l0.8-0.8
		l0.8,0.8c0,0.1,0,0.1,0,0.2L52.5,30.2z M17.6,34.2l-3.8,0c-6.4,0-4.4,4-4.7,8.3c-0.2,2.5,1.6,3.4,4,3.4l0.2,0l4,0
		c1.1,0,2.5,0,3.6-0.8c1.9-1.4,1.8-4,1.8-5.6C22.7,35.1,21.1,34.2,17.6,34.2z M12.5,44.8L12.5,44.8l0.1,0L12.5,44.8z M13.3,44.9
		l-0.1,0c0-0.1,0-0.2-0.1-0.2l-0.2-0.2l0.8-0.8l0.9,0.9l-0.3,0.3L13.3,44.9z M17.4,42.5C17.4,42.5,17.4,42.5,17.4,42.5l0.8,0.8l-1,1
		l-0.8-0.8L17.4,42.5z M18.9,43.3l0.7-0.7l0.8,0.8l-0.7,0.7L18.9,43.3z M19.5,44.6c-0.6,0.2-1.4,0.2-2.2,0.2c0,0,0,0,0.1,0
		c0,0,0-0.1,0-0.1l1.1-1.1C18.5,43.6,19.5,44.6,19.5,44.6z M16.9,44.6c0,0.1,0,0.1,0,0.2l-1.7,0c0.1-0.1,0.1-0.1,0.1-0.2l0.8-0.8
		C16.1,43.8,16.9,44.6,16.9,44.6z M20.4,44.2c-0.1,0.1-0.2,0.1-0.2,0.1l0.6-0.6c0,0,0,0,0.1,0c0,0,0,0,0,0
		C20.8,43.9,20.6,44.1,20.4,44.2z M21.1,43.4l0.1-0.1C21.2,43.4,21.1,43.4,21.1,43.4C21.1,43.4,21.1,43.4,21.1,43.4z M21.6,42.2
		c0,0.2-0.1,0.4-0.2,0.6c-0.1-0.1-0.3-0.1-0.4,0L20.8,43l-0.8-0.8l0.4-0.4c0.1-0.1,0.1-0.3,0-0.4s-0.3-0.1-0.4,0l-0.4,0.4l-0.4-0.4
		c-0.1-0.1-0.3-0.1-0.4,0s-0.1,0.3,0,0.4l0.4,0.4l-0.7,0.7l-0.7-0.7c0,0,0,0,0,0l0.1-0.1c0.1-0.1,0.1-0.3,0-0.4s-0.3-0.1-0.4,0
		l-1.5,1.5l-0.3-0.3c-0.1-0.1-0.3-0.1-0.4,0s-0.1,0.3,0,0.4l0.3,0.3L15,44.2L14,43.3l0.5-0.5c0.1-0.1,0.1-0.3,0-0.4s-0.3-0.1-0.4,0
		l-1.7,1.7l-0.3-0.3c-0.1-0.1-0.3-0.1-0.4,0s-0.1,0.3,0,0.4l0.3,0.3l-0.3,0.3c-1.2-0.2-1.8-1-1.7-2.2c0.3-4.5-1.7-7.3,3.7-7.3l3.8,0
		c3,0,4.1,0.6,4.2,4.2l-0.9-0.9l0.5-0.5c0.1-0.1,0.1-0.3,0-0.4s-0.3-0.1-0.4,0l-0.5,0.5c-0.1,0-0.2,0-0.3,0c-0.1,0.1-0.1,0.2,0,0.3
		c0,0.1,0,0.2,0,0.3c0.1,0.1,0.2,0.1,0.3,0l0.4,0.4l-0.8,0.8c-0.1,0-0.1,0-0.2,0.1s-0.1,0.1-0.1,0.2l-0.3,0.3
		c-0.1,0.1-0.1,0.3,0,0.4s0.3,0.1,0.4,0l0.2-0.2l1,1c0.1,0.1,0.3,0.1,0.4,0s0.1-0.3,0-0.4l-1-1l0.7-0.7l0.2,0.2c0,0,0.1,0.1,0.2,0.1
		c0,0,0.1,0,0.1,0C21.8,40.6,21.8,41.4,21.6,42.2z M35.5,34.2l-3.8,0c-4.9,0-5,2-4.7,6.7c0.1,2.1-0.6,4.9,4,4.9l0.2,0
		c6.1,0,9.7,0.8,9.5-6.4C40.6,35.2,39.1,34.2,35.5,34.2z M36,42.5C36,42.5,36,42.5,36,42.5l0.8,0.8l-1,1L35,43.5
		C35,43.5,36,42.5,36,42.5z M36,44.8c0,0,0-0.1,0-0.1l1.1-1.1l0.8,0.8C37.3,44.7,36.7,44.8,36,44.8C36,44.8,36,44.8,36,44.8z
		 M39.7,41l-0.6-0.6l0.6-0.6C39.7,40.2,39.7,40.6,39.7,41z M38.3,44.1l-0.8-0.8l0.7-0.7l0.8,0.8L38.3,44.1z M39.4,38.5l0.2-0.2
		c0,0.1,0,0.3,0,0.4C39.7,38.8,39.4,38.5,39.4,38.5z M28,40.9c-0.2-4.4-0.3-5.6,3.7-5.7l3.8,0c2.1,0,3.6,0.2,4,2.5l-0.5,0.5
		c-0.1,0-0.2,0-0.3,0c-0.1,0.1-0.1,0.2,0,0.3c0,0.1,0,0.2,0,0.3c0,0,0.1,0.1,0.2,0.1c0,0,0,0,0.1,0l0.4,0.4l-0.8,0.8
		c-0.1,0-0.1,0-0.2,0.1s-0.1,0.1-0.1,0.2l-0.3,0.3c-0.1,0.1-0.1,0.3,0,0.4s0.3,0.1,0.4,0l0.2-0.2l0.9,0.9c0,0.2,0,0.3-0.1,0.5
		c-0.1,0.3-0.2,0.6-0.3,0.9l-0.8-0.8l0.4-0.4c0.1-0.1,0.1-0.3,0-0.4s-0.3-0.1-0.4,0l-0.4,0.4l-0.4-0.4c-0.1-0.1-0.3-0.1-0.4,0
		s-0.1,0.3,0,0.4l0.4,0.4l-0.7,0.7l-0.7-0.7c0,0,0,0,0,0l0.1-0.1c0.1-0.1,0.1-0.3,0-0.4s-0.3-0.1-0.4,0l-1.5,1.5l-0.3-0.3
		c-0.1-0.1-0.3-0.1-0.4,0s-0.1,0.3,0,0.4l0.3,0.3l-0.8,0.8l-0.9-0.9l0.5-0.5c0.1-0.1,0.1-0.3,0-0.4s-0.3-0.1-0.4,0l-1.7,1.7
		l-0.3-0.3c-0.1-0.1-0.3-0.1-0.4,0s-0.1,0.3,0,0.4l0.3,0.3l-0.4,0.4C27.6,44.6,28.1,43,28,40.9L28,40.9z M31.7,44.9
		c0-0.1,0-0.2-0.1-0.2l-0.2-0.2l0.8-0.8l0.9,0.9l-0.3,0.3C32.9,44.8,31.7,44.9,31.7,44.9z M31,44.9L31,44.9l0.2,0
		C31.1,44.9,31.1,44.9,31,44.9z M33.8,44.8c0-0.1,0.1-0.1,0.1-0.2l0.8-0.8l0.8,0.8c0,0.1,0,0.1,0,0.2C34.3,44.8,36.7,44.8,33.8,44.8
		z M56.5,35.1c-1.3-1.1-3-0.9-7.5-0.9c-4.9,0-5,2.1-4.7,6.7c0.1,2.3-0.5,4.9,4.2,4.9l4,0c1.1,0,2.5,0,3.6-0.8
		c1.8-1.2,1.9-3.5,1.8-5.6C57.9,37.9,57.7,36.2,56.5,35.1z M53.2,42.5C53.2,42.5,53.2,42.5,53.2,42.5l0.8,0.8l-1,1l-0.8-0.8
		C52.2,43.5,53.2,42.5,53.2,42.5z M53.2,44.8c0,0,0-0.1,0-0.1l1.1-1.1l0.8,0.8C54.5,44.7,53.9,44.8,53.2,44.8
		C53.2,44.8,53.2,44.8,53.2,44.8z M56.9,41l-0.6-0.6l0.6-0.6C56.9,40.2,56.9,40.6,56.9,41z M55.5,44.1l-0.8-0.8l0.7-0.7l0.8,0.8
		L55.5,44.1z M56.6,38.5l0.2-0.2c0,0.1,0,0.3,0,0.4L56.6,38.5z M45.2,40.9c-0.2-4.4-0.3-5.6,3.7-5.7c4.5,0,5.9-0.2,6.9,0.7
		c0.5,0.4,0.8,1.1,0.9,1.8l-0.5,0.5c-0.1,0-0.2,0-0.3,0c-0.1,0.1-0.1,0.2,0,0.3c0,0.1,0,0.2,0,0.3c0.1,0.1,0.2,0.1,0.3,0l0.4,0.4
		l-0.8,0.8c-0.1,0-0.1,0-0.2,0.1s-0.1,0.1-0.1,0.2l-0.3,0.3c-0.1,0.1-0.1,0.3,0,0.4s0.3,0.1,0.4,0l0.2-0.2l0.9,0.9
		c0,0.2,0,0.3-0.1,0.5c-0.1,0.3-0.2,0.6-0.3,0.9l-0.8-0.8l0.4-0.4c0.1-0.1,0.1-0.3,0-0.4s-0.3-0.1-0.4,0l-0.4,0.4L55,41.5
		c-0.1-0.1-0.3-0.1-0.4,0s-0.1,0.3,0,0.4l0.4,0.4l-0.7,0.7l-0.7-0.7c0,0,0,0,0,0l0.1-0.1c0.1-0.1,0.1-0.3,0-0.4s-0.3-0.1-0.4,0
		l-1.5,1.5l-0.3-0.3c-0.1-0.1-0.3-0.1-0.4,0s-0.1,0.3,0,0.4l0.3,0.3l-0.8,0.8l-0.9-0.9l0.5-0.5c0.1-0.1,0.1-0.3,0-0.4
		s-0.3-0.1-0.4,0l-1.7,1.7L48,43.7c-0.1-0.1-0.3-0.1-0.4,0s-0.1,0.3,0,0.4l0.3,0.3l-0.4,0.4C44.8,44.6,45.3,43,45.2,40.9z
		 M48.9,44.9c0-0.1,0-0.2-0.1-0.2l-0.2-0.2l0.8-0.8l0.9,0.9l-0.3,0.3C50.1,44.8,48.9,44.9,48.9,44.9z M48.2,44.9L48.2,44.9l0.2,0
		C48.3,44.9,48.3,44.9,48.2,44.9z M52.5,44.8l-1.5,0c0-0.1,0.1-0.1,0.1-0.2l0.8-0.8l0.8,0.8c0,0.1,0,0.1,0,0.2
		C52.6,44.8,52.5,44.8,52.5,44.8z M17.6,48.1c-4.4,0-6.8-0.3-8,1.5c-0.6,0.9-0.6,2.9-0.5,5.2c0.1,1.7-0.2,2.9,0.8,4
		c1.1,1.2,2.6,1,7.4,0.9c1.7,0,4.5,0,5.3-3.5c0.2-1,0.2-2,0.2-2.9C22.7,49.1,21.2,48.1,17.6,48.1z M12.4,58.7l0.2-0.2l0.2,0.2
		C12.6,58.7,12.5,58.7,12.4,58.7z M13.3,58.8c-0.1,0-0.1,0-0.2,0c0,0,0,0,0,0c0.1-0.1,0.1-0.3,0-0.4c0,0,0,0,0,0l-0.2-0.2l0.8-0.8
		l0.9,0.9l-0.4,0.4C14.2,58.7,13.3,58.8,13.3,58.8z M15,58.7c0.1,0,0.1,0,0.2-0.1c0.1-0.1,0.1-0.1,0.1-0.2l0.8-0.8l0.8,0.8
		c0,0.1,0,0.2,0,0.3c0,0,0.1,0.1,0.2,0.1l-2.2,0L15,58.7C15,58.7,15,58.7,15,58.7z M17.4,56.2C17.4,56.2,17.4,56.3,17.4,56.2
		l0.8,0.8l-1,1l-0.8-0.8C16.4,57.2,17.4,56.2,17.4,56.2z M17.1,58.7c0.1,0,0.2-0.1,0.2-0.1c0.1,0,0.1,0,0.2-0.2l1.1-1.1l1.1,1.1
		C18.9,58.7,17.9,58.7,17.1,58.7z M18.9,57l0.7-0.7l0.8,0.8l-0.7,0.7L18.9,57z M20.4,58.1c-0.1,0.1-0.2,0.1-0.3,0.1l-0.1-0.1
		l0.7-0.7c0,0,0,0,0.1,0c0.1,0,0.1,0,0.2-0.1c0.1-0.1,0.1-0.2,0-0.3l0.3-0.3C21.1,57.4,20.8,57.8,20.4,58.1z M21.6,56
		c0,0.2-0.1,0.3-0.1,0.5c0,0,0-0.1,0-0.1c-0.1-0.1-0.3-0.1-0.4,0c0,0,0,0,0,0l-0.4,0.3L19.9,56l0.4-0.4c0.1-0.1,0.1-0.3,0-0.4
		s-0.3-0.1-0.4,0l-0.4,0.4l-0.4-0.4c-0.1-0.1-0.3-0.1-0.4,0s-0.1,0.3,0,0.4l0.4,0.4l-0.7,0.7l-0.7-0.7c0,0,0,0,0,0l0.1-0.1
		c0.1-0.1,0.1-0.3,0-0.4s-0.3-0.1-0.4,0l-1.5,1.5l-0.3-0.3c-0.1-0.1-0.3-0.1-0.4,0s-0.1,0.3,0,0.4l0.3,0.3L15,58L14,57.1l0.5-0.5
		c0.1-0.1,0.1-0.3,0-0.4s-0.3-0.1-0.4,0l-1.7,1.7l-0.3-0.3c-0.1-0.1-0.3-0.1-0.4,0s-0.1,0.3,0,0.4l0.3,0.3l-0.5,0.5
		c-0.4-0.1-0.8-0.2-1.1-0.5c-0.7-0.7-0.5-1.6-0.6-3.3c-0.1-1.5-0.2-3.9,0.3-4.6c0.9-1.3,3-1.1,7.2-1.1c2.9,0,4,0.5,4.2,4l-0.9-0.9
		l0.5-0.5c0.1-0.1,0.1-0.3,0-0.4s-0.3-0.1-0.4,0l-0.5,0.5c-0.1,0-0.2,0-0.3,0c-0.1,0.1-0.1,0.2,0,0.3c0,0.1,0,0.2,0,0.3
		c0,0,0.1,0.1,0.2,0.1c0,0,0,0,0.1,0l0.4,0.4l-0.8,0.8c-0.1,0-0.1,0-0.2,0.1s-0.1,0.1-0.1,0.2l-0.3,0.3c-0.1,0.1-0.1,0.3,0,0.4
		s0.3,0.1,0.4,0l0,0l0.2-0.2l1,1c0.1,0.1,0.3,0.1,0.4,0s0.1-0.3,0-0.4l0,0l-1-1l0.7-0.7l0.2,0.2c0.1,0.1,0.2,0.1,0.3,0
		C21.8,54.4,21.8,55.3,21.6,56z M35.5,48.1c-7.7,0-8.9-0.3-8.5,6.8c0,0.7,0.1,1.2,0,1.5c-0.2,2.5,1.5,3.4,4,3.4l0.2,0
		c4.9,0,8.4,0.6,9.3-3.5c0.2-1,0.2-2,0.2-2.9C40.6,49.1,39.1,48.1,35.5,48.1z M36,56.2C36,56.2,36,56.3,36,56.2l0.8,0.8l-1,1
		L35,57.2C35,57.2,36,56.2,36,56.2z M35.9,58.6c0.1,0,0.1,0,0.2-0.2l1.1-1.1l0.9,0.9c-0.7,0.3-1.5,0.4-2.3,0.4
		C35.8,58.7,35.8,58.7,35.9,58.6z M39.7,53.5c0,0.4,0,0.8,0,1.2l-0.6-0.6L39.7,53.5z M38.3,57.8L37.4,57l0.7-0.7l0.8,0.8L38.3,57.8z
		 M39.4,52.3l0.2-0.2c0,0.1,0,0.3,0,0.4L39.4,52.3z M28,54.8c-0.3-6.1,0-5.7,7.5-5.7c2,0,3.5,0.1,4,2.4l-0.5,0.5c-0.1,0-0.2,0-0.3,0
		c-0.1,0.1-0.1,0.2,0,0.3c0,0.1,0,0.2,0,0.3c0,0,0.1,0.1,0.2,0.1c0,0,0,0,0.1,0l0.4,0.4l-0.8,0.8c-0.1,0-0.1,0-0.2,0.1
		s-0.1,0.1-0.1,0.2l-0.3,0.3c-0.1,0.1-0.1,0.3,0,0.4s0.3,0.1,0.4,0l0.2-0.2l0.9,0.9c0,0.2-0.1,0.4-0.1,0.6c-0.1,0.2-0.1,0.5-0.2,0.7
		l-0.1,0.1L38.5,56l0.4-0.4c0.1-0.1,0.1-0.3,0-0.4s-0.3-0.1-0.4,0l-0.4,0.4l-0.4-0.4c-0.1-0.1-0.3-0.1-0.4,0s-0.1,0.3,0,0.4l0.4,0.4
		l-0.7,0.7l-0.7-0.7c0,0,0,0,0,0l0.1-0.1c0.1-0.1,0.1-0.3,0-0.4s-0.3-0.1-0.4,0l0,0l-1.5,1.5l-0.3-0.3c-0.1-0.1-0.3-0.1-0.4,0
		s-0.1,0.3,0,0.4l0.3,0.3L33.5,58l-0.9-0.9l0.5-0.5c0.1-0.1,0.1-0.3,0-0.4s-0.3-0.1-0.4,0l-1.7,1.7l-0.3-0.3c-0.1-0.1-0.3-0.1-0.4,0
		s-0.1,0.3,0,0.4l0.3,0.3l-0.5,0.5c0,0,0,0,0,0C27.7,58.5,28.1,57,28,54.8z M32.8,58.7l-1.1,0c0,0,0,0,0,0c0.1-0.1,0.1-0.3,0-0.4
		c0,0,0,0,0,0l-0.2-0.2l0.8-0.8l0.9,0.9C33.2,58.3,32.8,58.7,32.8,58.7z M31.2,58.8c-0.1,0-0.2,0-0.3,0l0.2-0.2L31.2,58.8
		C31.3,58.7,31.3,58.7,31.2,58.8C31.3,58.8,31.2,58.8,31.2,58.8z M35.3,58.7l-1.8,0l0.1-0.1c0,0,0,0,0,0c0.1,0,0.1,0,0.2-0.1
		c0.1-0.1,0.1-0.1,0.1-0.2l0.8-0.8l0.8,0.8c-0.1,0.2,0,0.3,0.2,0.3C35.5,58.7,35.4,58.7,35.3,58.7z M52.7,48.1c-4.3,0-6.8-0.3-8,1.5
		c-1,1.4-0.4,5.5-0.4,6.8c-0.1,1,0.2,1.9,0.8,2.4c0.8,0.9,2.1,1,3.2,1l0.2,0l4,0c4.4,0,5.6-1.9,5.4-6.4
		C57.8,49.1,56.3,48.1,52.7,48.1z M53.2,56.2C53.2,56.2,53.2,56.3,53.2,56.2l0.8,0.8l-1,1l-0.8-0.8C52.2,57.2,53.2,56.2,53.2,56.2z
		 M53.1,58.6c0,0,0.1,0,0.1,0s0-0.1,0-0.1l1.1-1.1l0.9,0.9c-0.7,0.3-1.5,0.4-2.3,0.4C53,58.7,53,58.7,53.1,58.6z M56.9,53.5
		c0,0.4,0,0.8,0,1.2l-0.6-0.6C56.3,54.1,56.9,53.5,56.9,53.5z M55.5,57.8L54.6,57l0.7-0.7l0.8,0.8L55.5,57.8z M56.6,52.3l0.2-0.2
		c0,0.1,0,0.3,0,0.4C56.9,52.5,56.6,52.3,56.6,52.3z M45.2,54.8c-0.1-1.5-0.2-3.9,0.3-4.6c0.9-1.2,2.8-1.1,7.4-1.1
		c2.1,0,3.4,0.3,3.8,2.4l-0.5,0.5c-0.1,0-0.2,0-0.3,0c-0.1,0.1-0.1,0.2,0,0.3c0,0.1,0,0.2,0,0.3c0.1,0.1,0.2,0.1,0.3,0l0.4,0.4
		l-0.8,0.8c-0.1,0-0.1,0-0.2,0.1s-0.1,0.1-0.1,0.2l-0.3,0.3c-0.1,0.1-0.1,0.3,0,0.4s0.3,0.1,0.4,0l0,0l0.2-0.2l0.9,0.9
		c0,0.2-0.1,0.4-0.1,0.6c-0.1,0.2-0.1,0.5-0.2,0.7l-0.1,0.1L55.7,56l0.4-0.4c0.1-0.1,0.1-0.3,0-0.4s-0.3-0.1-0.4,0l-0.4,0.4L55,55.2
		c-0.1-0.1-0.3-0.1-0.4,0s-0.1,0.3,0,0.4L55,56l-0.7,0.7l-0.7-0.7c0,0,0,0,0,0l0.1-0.1c0.1-0.1,0.1-0.3,0-0.4s-0.3-0.1-0.4,0
		l-1.5,1.5l-0.3-0.3c-0.1-0.1-0.3-0.1-0.4,0s-0.1,0.3,0,0.4l0.3,0.3L50.7,58l-0.9-0.9l0.5-0.5c0.1-0.1,0.1-0.3,0-0.4s-0.3-0.1-0.4,0
		l-1.7,1.7L48,57.5c-0.1-0.1-0.3-0.1-0.4,0s-0.1,0.3,0,0.4l0.3,0.3l-0.5,0.5c0,0,0,0,0,0c-0.7-0.1-1.3-0.2-1.7-0.6
		C45.1,57.4,45.3,56.5,45.2,54.8z M50,58.7l-1.1,0c0,0,0,0,0,0c0.1-0.1,0.1-0.3,0-0.4c0,0,0,0,0,0l-0.2-0.2l0.8-0.8l0.9,0.9
		C50.4,58.3,50,58.7,50,58.7z M48.4,58.8c-0.1,0-0.2,0-0.3,0l0.2-0.2L48.4,58.8C48.5,58.7,48.5,58.7,48.4,58.8L48.4,58.8z
		 M52.5,58.7l-1.8,0l0.1-0.1c0,0,0,0,0,0c0.1,0,0.1,0,0.2-0.1c0.1-0.1,0.1-0.1,0.1-0.2l0.8-0.8l0.8,0.8c0,0.1,0,0.2,0,0.3
		c0,0,0.1,0.1,0.2,0.1C52.7,58.7,52.6,58.7,52.5,58.7z M8.1,11.4c1.4,1,3.6,0.4,4.4-1.1c0.5-0.9,0.4-2.1-0.3-2.9s-1.8-1.2-2.8-0.9
		C8.3,6.7,7.4,7.8,7.2,9C7,10,7.4,10.8,8.1,11.4z M9.5,10.8l0.2-0.2l0.2,0.2C9.8,10.8,9.6,10.8,9.5,10.8z M8.2,9.2
		C8.3,8.4,9,7.6,9.7,7.4c0.5-0.1,1.2,0,1.6,0.4l-0.5,0.5c-0.1,0.1-0.1,0.3,0,0.4s0.3,0.1,0.4,0l0.5-0.5c0.3,0.5,0.3,1.1,0,1.6
		c0,0,0,0,0,0.1l-0.9-0.9c-0.1-0.1-0.3-0.1-0.4,0s-0.1,0.3,0,0.4l1,1c-0.2,0.2-0.4,0.3-0.7,0.4l-0.4-0.4l0.2-0.2
		c0.1-0.1,0.1-0.3,0-0.4s-0.3-0.1-0.4,0L9.7,9.9L9.6,9.8c-0.1-0.1-0.3-0.1-0.4,0s-0.1,0.3,0,0.4l0.1,0.1l-0.4,0.4
		c-0.1,0-0.2-0.1-0.2-0.1C8.1,10.1,8.1,9.6,8.2,9.2z M17.1,12c1.4,0,2.6-1.1,2.8-2.4c0.3-2-1.7-4.1-4.4-2.7c-1.8,0.9-1.7,2.9-0.6,4
		C15.5,11.6,16.3,12,17.1,12z M16.7,10.9l0.2-0.2l0.3,0.3C17,11,16.9,11,16.7,10.9z M16,7.8c0.9-0.4,1.9-0.5,2.5,0.3
		c-0.1,0-0.2,0-0.2,0.1L18,8.5c-0.1,0.1-0.1,0.3,0,0.4c0,0,0,0,0,0c0.2,0.2,0.4-0.1,0.7-0.3c0,0,0.1-0.1,0.1-0.1
		c0.2,0.3,0.3,0.7,0.2,1.1c0,0.3-0.2,0.6-0.4,0.8c0.1-0.1,0.1-0.2,0-0.3L17.6,9c-0.1-0.1-0.3-0.1-0.4,0s-0.1,0.3,0,0.4l0.9,0.9
		c0.1,0.1,0.3,0.1,0.3,0c-0.2,0.3-0.5,0.5-0.8,0.6l-0.5-0.5l0.2-0.2c0.1-0.1,0.1-0.3,0-0.4s-0.3-0.1-0.4,0L16.9,10l-0.3-0.3
		c-0.1-0.1-0.3-0.1-0.4,0s-0.1,0.3,0,0.4l0.3,0.3l-0.4,0.4c-0.2-0.1-0.4-0.3-0.6-0.4C15,9.5,14.9,8.4,16,7.8z M24.1,12.1
		c1.1,0,2.2-0.7,2.8-1.6c0.4-0.6,0.5-1.3,0.4-1.9c-0.2-1.2-1.4-2.2-2.7-2.3c-1.4-0.1-2.7,0.6-3.3,1.6c-0.5,0.9-0.4,2,0.3,2.9
		C22.1,11.6,23.1,12.1,24.1,12.1z M23.4,11l0.3-0.3l0.4,0.4C23.9,11.1,23.6,11.1,23.4,11z M22.1,8.4c0.4-0.7,1.2-1.1,2.2-1.1
		c0.4,0,0.7,0.1,1.1,0.3l-0.7,0.7c-0.1,0.1-0.1,0.3,0,0.4s0.3,0.1,0.4,0l0.7-0.7c0,0,0,0,0-0.1c0.2,0.2,0.4,0.5,0.5,0.9
		c0.1,0.4,0,0.8-0.3,1.2c-0.1,0.2-0.2,0.3-0.3,0.4c0.1-0.1,0.1-0.2,0-0.3l-0.8-0.8c-0.1-0.1-0.3-0.1-0.4,0s-0.1,0.3,0,0.4l0.8,0.8
		c0.1,0.1,0.2,0.1,0.3,0c-0.3,0.3-0.6,0.4-0.9,0.6l-0.7-0.7c0.1-0.1,0.1-0.2,0-0.3c-0.1-0.1-0.2-0.1-0.3,0l-0.2-0.2
		c-0.1-0.1-0.3-0.1-0.4,0s-0.1,0.3,0,0.4l0.1,0.1l-0.4,0.4c-0.2-0.1-0.4-0.3-0.6-0.5C21.9,9.6,21.8,9,22.1,8.4z M34.2,12.2
		c6.5,0.1,13.3,0.2,20-0.5c1.1-0.1,2.2-0.3,3-1c1-0.8,1.5-2.3,0.7-3.4c-0.6-0.9-1.6-1-2.7-1.1C44.3,5.4,36.5,6.4,34.7,6.5
		c-1.5,0-3.4,0.1-4.3,1.1c-0.7,0.8-0.8,2.1-0.2,3C31.1,11.9,32.7,12.1,34.2,12.2z M30.9,9l0.9,0.9l-0.5,0.5
		c-0.1-0.1-0.2-0.2-0.2-0.3C30.9,9.7,30.9,9.3,30.9,9z M44.9,6.9c0.5,0,0.9,0,1.4,0l0.2,0.2l-0.1,0.1h-1.2
		C45.1,7.2,44.9,6.9,44.9,6.9z M41.4,7.9c0,0-0.1,0.1-0.1,0.1l-1-1c0.5,0,0.9-0.1,1.4-0.1l0.3,0.3L41.4,7.9z M38.9,7.2l-0.5,0.5
		L38,7.3C38.3,7.2,38.6,7.2,38.9,7.2z M35.9,7.4L35.9,7.4l-0.2,0.2l-0.2-0.2C35.7,7.4,35.8,7.4,35.9,7.4z M32.3,7.7
		C32.3,7.7,32.3,7.7,32.3,7.7L32.3,7.7L32,8.1c-0.1,0.1-0.1,0.3,0,0.4c0.1,0.1,0.3,0.1,0.4,0l0.4-0.4l1.1,1.1c0.1,0.1,0.3,0.1,0.4,0
		s0.1-0.3,0-0.4l-1.1-1.1l0.2-0.2c0.5,0,1-0.1,1.5-0.1l0.1,0L35.4,8l-0.6,0.6c-0.1,0.1-0.1,0.3,0,0.4s0.3,0.1,0.4,0l0.6-0.6l0.1,0.1
		c0.1,0.1,0.3,0.1,0.4,0s0.1-0.3,0-0.4L36.1,8l0.3-0.3c0.1-0.1,0.1-0.3,0-0.4c0,0,0,0,0,0c0,0,0,0,0,0c0.3,0,0.7-0.1,1-0.1L38,8
		l-0.2,0.2c-0.1,0.1-0.1,0.3,0,0.4s0.3,0.1,0.4,0l0.2-0.2l0.2,0.2c0.1,0.1,0.3,0.1,0.4,0s0.1-0.3,0-0.4L38.8,8l0.8-0.8
		c0,0,0-0.1,0.1-0.1l0.2,0l1.3,1.3c0.1,0.1,0.3,0.1,0.4,0c0,0,0,0,0,0c0,0,0.1-0.1,0.1-0.2c0.1,0.1,0.2,0.1,0.3,0l0.6-0.6L42.9,8
		c0.1,0.1,0.3,0.1,0.4,0s0.1-0.3,0-0.4l-0.4-0.4L43.1,7c0.4,0,0.7,0,1.1,0l0.6,0.6c0,0.1,0.1,0.1,0.1,0.1L45.3,8
		c0.1,0.1,0.3,0.1,0.4,0s0.1-0.3,0-0.4l0,0l0,0h0.8c0.1,0,0.3-0.2,0.4-0.3L47.4,8c0.1,0.1,0.3,0.1,0.4,0s0.1-0.3,0-0.4l-0.6-0.6
		l0.2-0.2c2.6,0,5.3,0.1,7.9,0.3c0.9,0.1,1.6,0.2,1.9,0.7c0.4,0.6,0.1,1.6-0.5,2c-0.7,0.5-1.6,0.7-2.5,0.8
		c-6.6,0.7-13.3,0.6-19.8,0.5c-0.9,0-1.8-0.1-2.5-0.5l0.4-0.4l0.2,0.2c0.1,0.1,0.3,0.1,0.4,0s0.1-0.3,0-0.4l-0.2-0.2l0.5-0.5
		c0.1-0.1,0.1-0.3,0-0.4s-0.3-0.1-0.4,0l-0.5,0.5c-0.1-0.1-1-1-1.1-1.1c0-0.1,0.1-0.2,0.1-0.3C31.5,7.9,31.8,7.8,32.3,7.7z"/>
	<path d="M15.3,24H14v-0.7h0.4v0c0,0.1,0.1,0.3,0.3,0.3s0.3-0.1,0.3-0.3v0h0.3c0.1,0,0.3-0.1,0.3-0.3s-0.1-0.3-0.3-0.3h-0.3v-0.5
		c0-0.1-0.1-0.3-0.3-0.3s-0.3,0.1-0.3,0.3v0.5H14v-0.3c0-0.1-0.1-0.3-0.3-0.3s-0.3,0.1-0.3,0.3v0.3h-1.3c-0.1,0-0.3,0.1-0.3,0.3
		s0.1,0.3,0.3,0.3h1.3V24h-0.3c-0.1,0-0.3,0.1-0.3,0.3s0.1,0.3,0.3,0.3h0.3v0.4c0,0.1,0.1,0.3,0.3,0.3S14,25,14,24.9v-0.4h1.3
		c0.1,0,0.3-0.1,0.3-0.3S15.5,24,15.3,24z M30.8,23.3H32V24h-0.3c-0.1,0-0.3,0.1-0.3,0.3s0.1,0.3,0.3,0.3H32v0.4
		c0,0.1,0.1,0.3,0.3,0.3s0.3-0.1,0.3-0.3v-0.4h1.3c0.1,0,0.3-0.1,0.3-0.3S34,24,33.9,24h-1.3v-0.7H33v0c0,0.1,0.1,0.3,0.3,0.3
		s0.3-0.1,0.3-0.3v0h0.3c0.1,0,0.3-0.1,0.3-0.3s-0.1-0.3-0.3-0.3h-0.3v-0.5c0-0.1-0.1-0.3-0.3-0.3S33,22.2,33,22.4v0.5h-0.4v-0.3
		c0-0.1-0.1-0.3-0.3-0.3S32,22.3,32,22.5v0.3h-1.3c-0.1,0-0.3,0.1-0.3,0.3S30.6,23.3,30.8,23.3z M48,23.3h1.3V24h-0.3
		c-0.1,0-0.3,0.1-0.3,0.3s0.1,0.3,0.3,0.3h0.3v0.4c0,0.1,0.1,0.3,0.3,0.3s0.3-0.1,0.3-0.3v-0.4h1.3c0.1,0,0.3-0.1,0.3-0.3
		S51.2,24,51.1,24h-1.3v-0.7h0.4v0c0,0.1,0.1,0.3,0.3,0.3s0.3-0.1,0.3-0.3v0H51c0.1,0,0.3-0.1,0.3-0.3s-0.1-0.3-0.3-0.3h-0.3v-0.5
		c0-0.1-0.1-0.3-0.3-0.3s-0.3,0.1-0.3,0.3v0.5h-0.4v-0.3c0-0.1-0.1-0.3-0.3-0.3s-0.3,0.1-0.3,0.3v0.3H48c-0.1,0-0.3,0.1-0.3,0.2
		S47.8,23.3,48,23.3z M15.3,38.6H14v-0.7h0.4v0c0,0.1,0.1,0.3,0.3,0.3s0.3-0.1,0.3-0.3v0h0.3c0.1,0,0.3-0.1,0.3-0.3
		s-0.1-0.3-0.3-0.3h-0.3V37c0-0.1-0.1-0.3-0.3-0.3s-0.3,0.1-0.3,0.3v0.5H14v-0.3c0-0.1-0.1-0.3-0.3-0.3s-0.3,0.1-0.3,0.3v0.3h-1.3
		c-0.1,0-0.3,0.1-0.3,0.3s0.1,0.3,0.3,0.3h1.3v0.7h-0.3c-0.1,0-0.3,0.1-0.3,0.3s0.1,0.3,0.3,0.3h0.3v0.4c0,0.1,0.1,0.3,0.3,0.3
		s0.3-0.1,0.3-0.3v-0.4h1.3c0.1,0,0.3-0.1,0.3-0.3S15.5,38.6,15.3,38.6z M30.8,37.9H32v0.7h-0.3c-0.1,0-0.3,0.1-0.3,0.3
		s0.1,0.3,0.3,0.3H32v0.4c0,0.1,0.1,0.3,0.3,0.3s0.3-0.1,0.3-0.3v-0.4h1.3c0.1,0,0.3-0.1,0.3-0.3s-0.1-0.3-0.3-0.3h-1.3v-0.7H33v0
		c0,0.1,0.1,0.3,0.3,0.3s0.3-0.1,0.3-0.3v0h0.3c0.1,0,0.3-0.1,0.3-0.3s-0.1-0.3-0.3-0.3h-0.3V37c0-0.1-0.1-0.3-0.3-0.3
		S33,36.8,33,37v0.5h-0.4v-0.3c0-0.1-0.1-0.3-0.3-0.3S32,37,32,37.1v0.3h-1.3c-0.1,0-0.3,0.1-0.3,0.3S30.6,37.9,30.8,37.9z M48,37.9
		h1.3v0.7h-0.3c-0.1,0-0.3,0.1-0.3,0.3s0.1,0.3,0.3,0.3h0.3v0.4c0,0.1,0.1,0.3,0.3,0.3s0.3-0.1,0.3-0.3v-0.4h1.3
		c0.1,0,0.3-0.1,0.3-0.3s-0.1-0.3-0.3-0.3h-1.3v-0.7h0.4v0c0,0.1,0.1,0.3,0.3,0.3s0.3-0.1,0.3-0.3v0H51c0.1,0,0.3-0.1,0.3-0.3
		s-0.1-0.3-0.3-0.3h-0.3V37c0-0.1-0.1-0.3-0.3-0.3s-0.3,0.1-0.3,0.3v0.5h-0.4v-0.3c0-0.1-0.1-0.3-0.3-0.3s-0.3,0.1-0.3,0.3v0.3H48
		c-0.1,0-0.3,0.1-0.3,0.2S47.8,37.9,48,37.9z M15.3,52.4H14v-0.7h0.4v0c0,0.1,0.1,0.3,0.3,0.3s0.3-0.1,0.3-0.3v0h0.3
		c0.1,0,0.3-0.1,0.3-0.3s-0.1-0.3-0.3-0.3h-0.3v-0.5c0-0.1-0.1-0.3-0.3-0.3s-0.3,0.1-0.3,0.3v0.5H14v-0.3c0-0.1-0.1-0.3-0.3-0.3
		s-0.3,0.1-0.3,0.3v0.3h-1.3c-0.1,0-0.3,0.1-0.3,0.3s0.1,0.3,0.3,0.3h1.3v0.7h-0.3c-0.1,0-0.3,0.1-0.3,0.3s0.1,0.3,0.3,0.3h0.3v0.4
		c0,0.1,0.1,0.3,0.3,0.3s0.3-0.1,0.3-0.3v-0.4h1.3c0.1,0,0.3-0.1,0.3-0.3S15.5,52.4,15.3,52.4z M30.8,51.7H32v0.7h-0.3
		c-0.1,0-0.3,0.1-0.3,0.3s0.1,0.3,0.3,0.3H32v0.4c0,0.1,0.1,0.3,0.3,0.3s0.3-0.1,0.3-0.3v-0.4h1.3c0.1,0,0.3-0.1,0.3-0.3
		s-0.1-0.3-0.3-0.3h-1.3v-0.7H33v0c0,0.1,0.1,0.3,0.3,0.3s0.3-0.1,0.3-0.3v0h0.3c0.1,0,0.3-0.1,0.3-0.3s-0.1-0.3-0.3-0.3h-0.3v-0.5
		c0-0.1-0.1-0.3-0.3-0.3S33,50.6,33,50.7v0.5h-0.4v-0.3c0-0.1-0.1-0.3-0.3-0.3S32,50.7,32,50.8v0.3h-1.3c-0.1,0-0.3,0.1-0.3,0.3
		S30.6,51.7,30.8,51.7z M48,51.7h1.3v0.7h-0.3c-0.1,0-0.3,0.1-0.3,0.3s0.1,0.3,0.3,0.3h0.3v0.4c0,0.1,0.1,0.3,0.3,0.3
		s0.3-0.1,0.3-0.3v-0.4h1.3c0.1,0,0.3-0.1,0.3-0.3s-0.1-0.3-0.3-0.3h-1.3v-0.7h0.4v0c0,0.1,0.1,0.3,0.3,0.3s0.3-0.1,0.3-0.3v0H51
		c0.1,0,0.3-0.1,0.3-0.3s-0.1-0.3-0.3-0.3h-0.3v-0.5c0-0.3-0.5-0.3-0.5,0v0.5h-0.4v-0.3c0-0.3-0.5-0.3-0.5,0v0.3H48
		c-0.1,0-0.3,0.1-0.3,0.2S47.8,51.7,48,51.7z"/>
</g>
</svg>
