<svg id="Layer_2" data-name="Layer 2" xmlns="http://www.w3.org/2000/svg" viewBox="0 0 226.62 226.36"><defs><style>.cls-1{fill:#fffcf8;}</style></defs><path class="cls-1" d="M162.26,136.45A112.3,112.3,0,0,1,179.73,64a115.72,115.72,0,0,1,27.93-30C241.13,9.2,286.78,4.63,324.23,23.15a115.1,115.1,0,0,1,47.31,42.5,113.35,113.35,0,1,1-209.28,70.8ZM275,219.9c52.1,0,94.8-42.25,94.87-93.95.06-52.93-42.13-95.56-94.65-95.63-52-.06-94.91,42.59-95,94.53A94.86,94.86,0,0,0,275,219.9Z" transform="translate(-161.69 -11.82)"/><path class="cls-1" d="M310.21,123.85c-16,0-31.91-.08-47.87.06-3.38,0-4.37-.6-3.49-4.21,3.13-12.85,16.06-19.2,28-13.44,1.59.76,3,1.9,4.57,2.68,2.43,1.21,3.84,5.2,6.56,4.24,2.31-.82,3.82-3.92,5.67-6,2.24-2.55,4.38-5.19,6.73-7.65,1.49-1.56,1.67-2.65,0-4.28-13.51-13-29.58-15.78-46.79-10.43-16.92,5.26-26.43,17.6-28.63,35.25-.36,2.85-1,4-4.16,3.91-13.3-.21-26.59-.18-39.89,0-2.71,0-3.59-.66-3.48-3.45C189.1,78,224,41.87,266.85,37.87a87.88,87.88,0,0,1,95.6,79c.69,7,.72,7-6.16,7H310.21ZM248.45,73.64c-1.26-.49-2.17-.94-3.14-1.22-2.58-.74-4.45-1.09-3.72-5.1.91-4.95-5.29-8.37-9.86-5.84-2.55,1.41-4.71,3.49-7.16,5.11-1.65,1.08-1.64,2-.46,3.48q4.77,6.06,9.27,12.32c1.07,1.49,1.84,1.87,3.46.64s1.5-1.93.35-3.45c-.78-1-3.06-2-1.43-3.9,1.5-1.79,3.26-.74,4.82-.1C243.53,76.79,246.21,77.08,248.45,73.64Zm7.36-5.23c.16.49-.87,1.76.64,1.78,1.32,0,3.33.51,3.61-1.54.42-3,2-4,4.91-4.36,2.62-.29,4.77-.92,6.21,2.17.92,2,3.08,1.19,4.27.44,1.44-.91-.16-2.07-.7-2.92-2.91-4.6-5.93-9.13-8.89-13.69C265,49,264.31,48,262.37,48.5c-1.45.42-2.28,1-2.61,2.48C258.51,56.73,257.16,62.46,255.81,68.41ZM216,99.51a6.19,6.19,0,0,1-5.66-4.18c-1-2.68-.11-4.88,2-6.64.45-.37,1-.65,1.44-1,1.64-1.23.26-2.43-.2-3.48-.63-1.43-1.66-.6-2.55-.11-4.18,2.25-6.61,8.42-5.11,13a11.1,11.1,0,0,0,11.86,7.16c5.13-.94,9.23-5.9,8.92-11-.08-1.26.35-3.44-1.73-3.42-1.73,0-2.93.84-2.7,3.4C222.62,97,219.94,99.47,216,99.51ZM301.52,61.8c.45-1.4-.55-1.79-1.58-2.09-1.69-.5-3.41-.91-5.1-1.4-1.49-.43-2.1-1.15-1.54-2.9s1.57-1.41,2.71-1.1c2,.53,4,1,5.94,1.7,1.46.52,2.44.64,3-1.19.45-1.59.21-2.38-1.56-2.82-3.56-.88-7.08-2-10.59-3-2-.63-2.54.26-3,2-1.19,4.55-2.61,9-3.79,13.6-.37,1.45-1.81,3.2,1.16,4.15s3-1.24,3.19-2.71c.51-3.88,2.45-4.42,5.65-3a29,29,0,0,0,3,.85C300.81,64.42,301.29,63.3,301.52,61.8Zm41.1,21.78c-.14,0-.34,0-.42.14-4.07,5.19-5.91,12.36-13.37,14.54-1.75.51-.33,1.95,0,3,.47,1.63,1.44,1.65,2.64.77,4.21-3.1,8.87-2.42,13.56-1.68,1.92.31,3.88.45,5.9.67-.54-3.89-2.69-4.89-5.88-5.1-5.34-.35-5.57-.69-2.33-4.7C345,88.34,344.87,86.1,342.62,83.58ZM321.31,67.66c-.45.6-.95,1.31-1.5,2-2.25,2.74-4.43,5.53-6.8,8.16-1.33,1.47-1.09,2.32.32,3.54s2.15.88,3.15-.41c2.08-2.68,4.36-5.21,6.43-7.9,1.62-2.1,3.14-2.91,5.16-.51,1.17,1.39,2.27,1.49,3.57-.1s.28-2.3-.76-3.15c-3.08-2.53-6.18-5-9.23-7.59-1-.88-1.77-1.8-3.15-.2s-1.13,2.39.39,3.5C319.79,65.63,321,66.16,321.31,67.66Z" transform="translate(-161.69 -11.82)"/><path class="cls-1" d="M310.91,129.11c16,0,31.92.11,47.87-.08,3.52-.05,4.07,1.07,3.74,4.27-4.44,42.81-39.3,77.12-80.83,79.41-44.67,2.45-82.7-25.94-92.33-69-.81-3.58-1-7.3-1.58-10.94-.39-2.61.44-3.72,3.29-3.69q20.16.16,40.33,0c2.73,0,3.29,1,3.74,3.52,3.24,17.8,13.53,29.74,31.09,34.23,17.23,4.4,32.4,0,44.7-13.28,1.31-1.41,1.89-2.46.08-3.93-1.36-1.12-2.42-2.58-3.67-3.84-2.8-2.83-5.18-6.9-8.57-8.12-3.85-1.38-6,3.84-9.31,5.72-12,6.92-25.86,2.22-30-10.43-.93-2.82-.64-3.9,2.73-3.87C278.41,129.2,294.66,129.12,310.91,129.11ZM283,194.76c-3-3.65-5.52-6.46-7.74-9.5a4,4,0,0,0-4.52-1.81c-2.25.52-1.18,2.41-1.19,3.66,0,4.41.13,8.83.27,13.25,0,1.65-.58,3.66,2.47,3.46s2.05-2.23,2.1-3.81c.06-2.58,0-5.16,0-8.56,3.11,3.76,5.87,6.92,8.42,10.25a3.57,3.57,0,0,0,4.25,1.38c1.74-.57.95-2.26.93-3.45-.09-4.71-.33-9.42-.45-14.13-.05-1.63-.25-2.82-2.4-2.75s-2.2,1.38-2.17,3C283.07,188.37,283,191,283,194.76ZM227.65,183a10.54,10.54,0,0,0,10.58-10.18,11.19,11.19,0,0,0-10.65-11.27A10.7,10.7,0,0,0,216.69,172,11.4,11.4,0,0,0,227.65,183Zm124-35.08a13.16,13.16,0,0,0-2.39.22c-3,.85-5.33,1.47-6.93-2.81-1.55-4.12-7.59-4.34-10.42-.88-2.36,2.88-3.32,6.54-4.79,9.91-.75,1.7.7,2,1.7,2.43q6.87,3,13.78,6c1.38.59,2.59,1.18,3.5-1,.8-1.89.27-2.53-1.37-3.3-1.17-.54-3.35-.36-3.11-2.43s2.06-2.53,4-2.69C348.7,153.16,351.38,152.21,351.64,148Zm-25.83,15.52c-1.31-.84-1.68-3.43-3.84-1.66-1.36,1.11-2.5,2.49-3.76,3.73-6,6-6.06,6.06-.09,11.83,2.84,2.74,5.49,8,8.57,7.57,3.29-.44,6-5.15,9-8,.22-.21.42-.42.65-.61,1.2-1,.87-1.92-.16-2.93s-1.83-1.19-2.89,0c-1.28,1.41-2.72,2.69-4.07,4-1.09,1.1-1.91,2.86-3.83.9s.29-2.76,1.12-3.83a18.1,18.1,0,0,1,2.85-2.75c1.52-1.23.84-2.08-.18-3.22-1.15-1.29-1.83-.9-2.77.19s-2.31,2.27-3.41,3.45-1.79,1.82-3.21.4-.26-2.33.59-3.24c1.3-1.39,2.7-2.7,4-4.08C324.89,164.72,325.29,164.12,325.81,163.47Zm-74.45,35.58a7,7,0,0,0,6.05-3.16c2.49-3.72,3.54-8.09,5.34-12.12.81-1.82-.82-1.8-1.74-2.35-1.28-.77-2.13-.56-2.7.92-1.17,3-2.45,6-3.63,9-1,2.66-2.91,3.71-5.6,2.8-2.9-1-3.16-3.31-2.3-5.79,1-2.92,2.19-5.79,3.46-8.62.75-1.68.61-2.62-1.29-3.31-1.65-.59-2.4-.15-3,1.39-1.16,3-2.61,6-3.64,9C240.08,193.51,244.34,199.16,251.36,199.05Zm-31.8-49.39c-.14,3.78.45,4.78,2.22,4.87,2.72.14,2-2.13,2.1-3.44A10.67,10.67,0,0,0,204,144.72,11,11,0,0,0,206.42,158c1,.81,2.12,2.7,3.64,1,1.31-1.44,1.33-2.83-.68-4.29-2.82-2-2.67-5.15-1.08-7.87,1.69-2.88,4.87-2.83,7.55-2.24A4.89,4.89,0,0,1,219.56,149.66Zm73.32,32.86c.7,1.5,1.06,3.69,3.57,2,2.74-1.82,4-.71,5,2.05,1.1,3,2.66,5.88,3.86,8.88.69,1.73,1.47,2.15,3.26,1.33s1.74-1.88,1-3.44c-1.35-2.77-2.32-5.74-3.83-8.4s-1.58-4.49,1.86-5.38c1.52-.4,2-1.3,1.2-3s-1.7-1.6-3.09-1c-3.72,1.74-7.48,3.39-11.22,5.08C293.73,181.1,292.77,181.29,292.88,182.52Z" transform="translate(-161.69 -11.82)"/><path class="cls-1" d="M278.39,88.57c8.32,0,16,2,22.88,6.93,2.43,1.75,2.35,3,.36,4.68a3.06,3.06,0,0,0-.3.32c-4,4.71-4,4.71-9.38,1.55-11.4-6.72-25.39-4.65-33.37,4.93-8.54,10.27-8.55,26.73,0,36.84,8,9.53,22.1,11.65,33.41,5a12.06,12.06,0,0,0,3-1.92c2.26-2.44,3.73-1.42,5.6.63,3.9,4.26,4,4.16-.45,7.57-12.41,9.46-31.74,9.56-44.82.21-12.67-9.06-18-26.34-12.89-42C247.31,98.12,261.54,88.33,278.39,88.57Z" transform="translate(-161.69 -11.82)"/><path class="cls-1" d="M237.27,68a6.35,6.35,0,0,1-4.87,4.44c-1.45.28-3-2.23-2.77-3.37.38-2.18,2.58-3.37,4.74-3.77C236.11,65,236.92,66.31,237.27,68Z" transform="translate(-161.69 -11.82)"/><path class="cls-1" d="M263.19,54.09c1.46,2.57,3.32,3.64,2.68,5.52-.21.59-2,.62-3.7,1.08Z" transform="translate(-161.69 -11.82)"/><path class="cls-1" d="M227.87,166.13a6,6,0,0,1,5.73,6.1,6.39,6.39,0,0,1-6.72,6.14c-3.52-.24-5.26-2.44-5.47-5.77S224.5,166.06,227.87,166.13Z" transform="translate(-161.69 -11.82)"/><path class="cls-1" d="M332.43,152.36c1.27-2.1,1.26-5.07,4.34-5.23a2.29,2.29,0,0,1,2.56,2.83c-.47,1.84-.41,4.61-2.82,4.92A4.13,4.13,0,0,1,332.43,152.36Z" transform="translate(-161.69 -11.82)"/></svg>