<?xml version="1.0" encoding="utf-8"?>
<!-- Generator: Adobe Illustrator 25.2.3, SVG Export Plug-In . SVG Version: 6.00 Build 0)  -->
<svg version="1.1" id="Layer_1" xmlns="http://www.w3.org/2000/svg" xmlns:xlink="http://www.w3.org/1999/xlink" x="0px" y="0px"
	 viewBox="0 0 785.2 785.2" style="enable-background:new 0 0 785.2 785.2;" xml:space="preserve">
<style type="text/css">
	.st0{fill:#EFC6AB;}
	.st1{fill:#EFC6AB;stroke:#000000;stroke-width:5.66;stroke-miterlimit:10;}
	.st2{fill:#FFFFFF;stroke:#000000;stroke-width:5.6;stroke-miterlimit:10;}
	.st3{fill:#1E593D;}
	.st4{fill:url(#SVGID_1_);}
	.st5{fill:url(#SVGID_2_);}
	.st6{stroke:#000000;stroke-width:1.31;stroke-miterlimit:10;}
	.st7{stroke:#000000;stroke-width:2.83;stroke-miterlimit:10;}
	.st8{fill:#FFFFFF;stroke:#000000;stroke-width:5.73;stroke-miterlimit:10;}
	.st9{stroke:#000000;stroke-width:2.94;stroke-miterlimit:10;}
</style>
<g id="Layer_1_1_">
	<path class="st0" d="M478.5,440.3c0,0,17.1-52.8,54.7-47.4s36,99.5-15.6,122.2c-42.6,18.7-48.4-22.8-48.4-22.8"/>
	<path d="M478.5,440.3c1.5-6,3.5-11.8,6.1-17.3c1.3-2.8,2.7-5.5,4.3-8.2c1.6-2.7,3.3-5.3,5.3-7.8c1-1.2,2.1-2.4,3.2-3.5
		c1.2-1.1,2.3-2.2,3.5-3.2c2.4-2.1,5.1-4,8-5.5c0.7-0.4,1.4-0.8,2.2-1.1s1.5-0.7,2.2-1c1.5-0.6,3.1-1.1,4.7-1.5
		c1.6-0.4,3.2-0.8,4.8-1l2.5-0.2c0.4,0,0.8-0.1,1.2-0.1h1.2c0.8,0,1.6,0,2.5,0l2.4,0.2c1.7,0.2,3.4,0.5,5,1c3.3,1,6.3,2.7,8.9,4.9
		c2.5,2.1,4.7,4.7,6.5,7.5c1.7,2.7,3.2,5.6,4.4,8.6c2.2,5.9,3.6,12.1,4.2,18.5c0.6,6.2,0.6,12.5,0,18.7c-0.6,6.2-1.7,12.4-3.4,18.4
		c-1.7,6-3.9,11.9-6.7,17.5c-2.8,5.6-6.3,10.9-10.4,15.7c-4.1,4.9-8.9,9.1-14.2,12.5c-2.7,1.7-5.5,3.2-8.4,4.5
		c-1.5,0.6-2.9,1.2-4.4,1.8c-1.5,0.5-3,1.1-4.5,1.5l-2.3,0.6l-2.4,0.5c-0.4,0.1-0.8,0.2-1.2,0.2l-1.2,0.1c-0.8,0.1-1.6,0.2-2.4,0.2
		l-2.5,0.1c-0.8,0-1.7-0.1-2.5-0.1c-0.8,0-1.7-0.1-2.5-0.3c-0.8-0.1-1.7-0.3-2.5-0.6c-3.2-1-6.2-2.6-8.8-4.7c-2.5-2-4.7-4.5-6.4-7.3
		c-3.2-5.3-5.2-11.4-5.7-17.6c0.8,2.9,1.9,5.7,3.3,8.4c1.3,2.6,2.9,5.1,4.9,7.4c1.8,2.2,4,4,6.5,5.5c2.4,1.4,5,2.3,7.7,2.8
		c0.7,0.1,1.3,0.3,2,0.3c0.7,0.1,1.3,0.2,2,0.3c0.7,0,1.4,0.1,2.1,0.1l2.1-0.1c0.7,0,1.4-0.1,2.1-0.2l1-0.1c0.4,0,0.7-0.1,1-0.2
		l2.1-0.4l2.1-0.6c1.4-0.3,2.8-0.9,4.1-1.3s2.7-1.1,4.1-1.6c2.6-1.2,5.2-2.5,7.6-4.1c4.9-3.1,9.3-7,13-11.5c3.8-4.5,7-9.4,9.6-14.6
		c2.6-5.3,4.8-10.8,6.3-16.5c1.6-5.7,2.7-11.5,3.2-17.4c0.6-5.9,0.6-11.8,0-17.6c-0.5-5.8-1.8-11.5-3.9-17
		c-2.1-5.3-5.1-10.3-9.3-13.8c-2-1.7-4.4-3-7-3.9c-1.3-0.4-2.6-0.7-3.9-0.8l-2.1-0.2c-0.7,0-1.4,0-2.1,0h-1c-0.4,0-0.7,0.1-1.1,0.1
		l-2.1,0.2c-1.4,0.2-2.8,0.5-4.1,0.9c-1.4,0.4-2.7,0.8-4,1.3c-0.6,0.3-1.3,0.6-1.9,0.9c-0.6,0.3-1.3,0.6-1.9,1c-2.5,1.4-4.8,3-7,4.9
		c-1.1,0.9-2.1,1.9-3.2,2.9s-2,2.1-3,3.2c-4.2,4.2-7.9,8.8-11.2,13.8c-1.7,2.5-3.2,5.1-4.7,7.7C481.1,434.9,479.7,437.6,478.5,440.3
		z"/>
	<path class="st1" d="M231.1,448.7c0,0,1.4,68.3,16.3,102.3s86.1,102.8,177.4,102.7c88-0.1,116.1-185.8,115.3-196.9
		s14.8-189,14.8-189s0.2-44.2-46.4-56.6c-34-9.1-244.5-76.8-265.8,52.6C225.7,367.1,231.1,448.7,231.1,448.7z"/>
	<path class="st2" d="M466.4,442.2c0,0-14.2-14.5-6.5-38.2s29-22.5,36.4-21.2c12.7,2.2,32,21.7,11,62.6L466.4,442.2z"/>
	<path class="st3" d="M486.9,385.4c-6.2-0.8-12.5,7.1-15.7,18.7l19.6,14.1l-21.5,4.2c0.6,10.7,4.6,18.7,10.3,19.4
		c7.5,1,15.3-10.9,17.3-26.5S494.5,386.4,486.9,385.4z"/>
	<path class="st0" d="M452.3,444.4c0,0,15.6-11.9,40.8-7.5c19.5,3.4,25.4,13.5,25.4,13.5"/>
	<path d="M452.3,444.4c2.2-2.2,4.7-4.1,7.4-5.5c2.7-1.5,5.6-2.7,8.6-3.6c6-1.8,12.3-2.5,18.6-2c6.3,0.4,12.4,2,18.1,4.6
		c2.9,1.3,5.5,3.1,7.9,5.1c2.4,2,4.3,4.5,5.6,7.4c-2.1-2-4.6-3.8-7.2-5.1c-2.6-1.3-5.2-2.4-8-3.3c-5.5-1.7-11.1-2.7-16.9-3.1
		c-5.7-0.4-11.5-0.2-17.2,0.6C463.4,440.5,457.7,442.1,452.3,444.4z"/>
	
		<linearGradient id="SVGID_1_" gradientUnits="userSpaceOnUse" x1="116.5524" y1="607.6251" x2="187.7324" y2="539.6751" gradientTransform="matrix(0.9924 0.1227 0.1227 -0.9924 18.3459 854.6053)">
		<stop  offset="0" style="stop-color:#231F20"/>
		<stop  offset="0.25" style="stop-color:#231F20"/>
		<stop  offset="0.46" style="stop-color:#7A7A7A"/>
		<stop  offset="0.69" style="stop-color:#231F20"/>
		<stop  offset="0.98" style="stop-color:#231F20"/>
	</linearGradient>
	<path class="st4" d="M228.6,238c0,0-42.7,35.9-38.9,79.3c4.1,46.5,21.1,112.7,21.1,112.7s25.2,32.8,23.4,32.2
		s-0.4-240.5,61.2-255.1"/>
	<path d="M228.6,238c-6,6.1-11.5,12.8-16.3,19.8c-4.8,6.9-8.9,14.4-12.2,22.1c-1.6,3.8-2.9,7.8-4,11.8c-1.2,3.9-2,7.9-2.6,12
		c-0.5,4-0.7,8.1-0.4,12.2c0,1,0.2,2.1,0.3,3.1l0.3,3.2c0.2,2.1,0.4,4.2,0.7,6.3l0.8,6.3l0.9,6.3c0.6,4.2,1.3,8.4,2,12.6
		c1.5,8.4,3,16.8,4.7,25.2c3.4,16.8,7.2,33.5,11.3,50.1l-0.6-1.3c4,5.2,7.9,10.4,11.8,15.6l5.8,7.9l2.9,4l1.4,2.1
		c0.5,0.7,0.9,1.4,1.4,2.3c0.2,0.3,0.3,0.6,0.5,0.9c0.1,0.2,0.1,0.4,0.2,0.6c0.1,0.3,0.1,0.7,0.1,1.1c0.4-0.3-1,3.3-2.2,3.2
		c-1,0.4-2.2,0.3-3.2-0.3c-0.7-0.4-1.2-1.1-1.4-1.8c0-0.1-0.1-0.3-0.1-0.4c0-0.1-0.1-0.2-0.1-0.3c-0.1-0.5-0.1-0.7-0.1-1v-0.7
		c-0.1-0.9-0.1-1.7-0.1-2.6c0-1.7-0.1-3.3-0.1-5c0-3.3,0-6.6,0.1-9.8c0.1-6.5,0.3-13.1,0.5-19.6c1-26.1,2.9-52.1,5.9-78.1
		c1.5-13,3.4-25.9,5.7-38.8c2.3-12.9,5-25.7,8.6-38.4c0.9-3.2,1.8-6.3,2.7-9.5c1-3.1,2.3-6.2,3.6-9.2c2.6-6.1,5.5-12.1,8.9-17.8
		c3.3-5.8,7.4-11.1,12.1-15.8c4.8-4.6,10.7-8.3,17.1-9.4c-3.1,1-6,2.4-8.6,4.4c-2.5,1.9-4.9,4.1-6.9,6.6c-4,5-7.3,10.4-9.9,16.3
		c-2.7,5.8-4.9,11.8-6.8,17.9c-1,3-1.8,6.2-2.8,9.2c-1,3.1-2,6.1-2.8,9.2c-3.4,12.4-6.1,25-8.4,37.7c-2.3,12.7-4.1,25.5-5.6,38.4
		c-3,25.7-4.9,51.6-5.9,77.5c-0.2,6.5-0.4,13-0.5,19.4c0,3.2-0.1,6.5,0,9.7c0,1.6,0,3.2,0.1,4.8c0,0.8,0.1,1.6,0.1,2.3v0.5
		c0,0.1,0,0.3,0,0.3c0,0,0-0.1,0-0.1c0-0.1,0-0.1-0.1-0.2c-0.3-0.7-0.8-1.3-1.4-1.7c-0.9-0.5-2-0.6-3-0.3c-1.2-0.2-2.6,3.4-2.1,3.1
		c0,0.3,0,0.6,0.1,0.9c0,0.1,0.1,0.2,0.1,0.3c0,0.1,0,0-0.1-0.2c-0.3-0.5-0.8-1.2-1.2-1.8l-1.4-2l-2.8-3.9l-5.8-7.8
		c-3.9-5.2-7.8-10.4-11.8-15.5l-0.4-0.6l-0.2-0.7c-4.2-16.8-8-33.5-11.4-50.5c-1.7-8.5-3.3-16.9-4.8-25.4c-0.7-4.3-1.4-8.5-2-12.8
		l-0.9-6.4l-0.8-6.4c-0.3-2.1-0.5-4.3-0.7-6.5l-0.3-3.2c-0.1-1.1-0.2-2.1-0.3-3.3c-0.5-9,0.6-18.1,3.3-26.7
		c1.5-4.2,3.3-8.3,5.3-12.2c4.2-7.7,9.2-15,15-21.6c2.9-3.3,5.8-6.5,8.9-9.5C221.9,243.4,225.2,240.6,228.6,238z"/>
	<path d="M191.5,295.7c0.5-2.4,1.4-4.8,2.5-7c1.1-2.2,2.4-4.4,3.8-6.5c2.9-4.2,6.2-8,10-11.3c1.9-1.7,3.9-3.3,6-4.7
		c1.1-0.7,2.1-1.4,3.2-2.1l3.1-1.9c4.1-2.6,8.1-5.2,12-8.1c7.8-5.6,14.9-12,21.3-19.2c3.2-3.6,6.2-7.4,8.9-11.4
		c2.8-3.9,5.4-8.2,8.5-12c-2.1,4.5-4,9-6.2,13.4c-2.3,4.5-4.9,8.7-7.8,12.8c-6,8-13.3,15.1-21.4,20.9c-4.1,2.9-8.3,5.7-12.7,8.1
		l-3.2,1.8c-1,0.6-2.1,1.2-3.1,1.8c-2,1.2-4,2.6-5.9,4c-3.8,2.8-7.4,6-10.6,9.5c-1.6,1.8-3.2,3.6-4.6,5.6c-0.7,1-1.4,2-2.1,3
		C192.6,293.5,192,294.6,191.5,295.7z"/>
	<path d="M194.3,331.3c-0.5-1-0.9-2-1.1-3.1c-0.2-1.1-0.3-2.2-0.3-3.3c0-1.1,0.1-2.2,0.3-3.3c0.1-1.1,0.4-2.2,0.6-3.3
		c1.2-4.3,3.3-8.4,6-11.9c2.7-3.6,5.8-6.7,9.3-9.5c0.9-0.7,1.7-1.4,2.6-2l2.7-1.9c1.9-1.3,3.6-2.3,5.3-3.5c7-4.6,13.7-9.7,20.1-15.1
		c6.5-5.5,12.6-11.3,18.4-17.5c-4.1,7.6-9.3,14.6-15.4,20.7c-6,6.2-12.7,11.8-20,16.6c-1.8,1.2-3.7,2.4-5.4,3.5l-2.6,1.7
		c-0.9,0.6-1.6,1.2-2.5,1.8c-3.3,2.4-6.4,5.1-9.1,8.1c-2.8,3-5.1,6.3-6.8,10.1c-0.9,1.9-1.5,3.8-1.9,5.8l-0.3,1.5
		c-0.1,0.5-0.1,1-0.1,1.5C194,329.2,194.1,330.3,194.3,331.3z"/>
	<path d="M195.7,359.7c-0.1-1.9,0.1-3.8,0.6-5.6c0.4-1.8,1-3.6,1.7-5.4c1.3-3.6,3-7,5-10.3c2-3.3,4.3-6.4,6.9-9.3l1-1.1l1-1l2.1-2
		c1.5-1.3,3-2.5,4.6-3.6l4.6-3.1c0.8-0.5,1.4-1,2.2-1.5s1.4-1,2.1-1.6c2.8-2.2,5.5-4.6,8-7.2c2.5-2.6,5-5.3,7.2-8.1
		c2.3-2.8,4.5-5.8,6.6-8.9c-1.1,3.6-2.5,7.1-4.4,10.4c-1.8,3.4-3.9,6.6-6.2,9.6c-0.6,0.8-1.2,1.5-1.8,2.2c-0.6,0.7-1.2,1.5-1.9,2.1
		s-1.3,1.4-2,2.1l-2.1,2c-0.7,0.7-1.5,1.2-2.2,1.9c-0.7,0.6-1.5,1.2-2.3,1.8l-4.6,3.1c-1.5,1-2.9,2-4.2,3.1l-2,1.8l-1,0.9l-0.9,0.9
		c-2.5,2.5-4.9,5.2-7.1,8.1c-2.2,2.9-4.3,5.9-6.1,9c-1,1.5-1.8,3.2-2.7,4.8c-0.4,0.8-0.8,1.6-1.2,2.5c-0.2,0.4-0.4,0.8-0.5,1.3
		l-0.2,0.7L195.7,359.7z"/>
	<path d="M201,377c0.1-0.7,0.2-1.3,0.3-2l0.5-1.9c0.4-1.2,0.8-2.5,1.2-3.7s1-2.4,1.5-3.6s1.1-2.4,1.7-3.5c2.5-4.6,5.5-8.9,9-12.9
		c3.5-3.9,7.6-7.4,12.1-10.2c4.5-2.8,9.5-4.6,14.6-5.4c-4.2,2.8-8.2,5.8-12,9.1c-3.7,3.2-7.2,6.7-10.5,10.3
		c-3.3,3.7-6.4,7.5-9.4,11.5c-0.8,1-1.5,2-2.3,3s-1.5,2-2.3,3C203.9,372.8,202.4,374.9,201,377z"/>
	<path d="M268.8,226.9c0,0,47.4-23.6,140.6,24.8s63-51.5-17-70c-57.5-13.3-99.9-9-133.8,39"/>
	<path d="M268.8,226.9c4.5-2,9.3-3.5,14.1-4.5c4.9-1,9.8-1.6,14.7-1.9c9.9-0.6,19.8-0.2,29.7,1.1c9.8,1.5,19.5,3.7,29,6.6
		c9.5,2.9,18.8,6.2,27.9,10.1c9.1,3.8,18,8.1,26.8,12.6s17.7,8.4,27.1,10.8c4.6,1.3,9.4,1.8,14.2,1.6c2.3-0.1,4.5-0.7,6.6-1.6
		c2-0.9,3.7-2.4,4.9-4.3c1.1-1.9,1.8-4.1,1.9-6.4c0.1-2.3-0.1-4.7-0.6-6.9c-1.1-4.7-2.9-9.1-5.4-13.3c-4.9-8.4-11.1-15.9-18.5-22.3
		c-14.6-13-32.4-22-51.5-26c-9.5-2.2-19.2-3.9-28.9-5c-9.7-1.1-19.5-1.3-29.2-0.4c-4.8,0.5-9.6,1.2-14.4,2.4
		c-4.7,1.2-9.3,2.7-13.8,4.6c-4.5,1.8-8.9,4-13,6.5c-4.2,2.6-8.1,5.4-11.8,8.6c-7.4,6.4-14.1,13.6-20,21.5c2.8-4.1,5.6-8.1,8.8-11.9
		c3.2-3.8,6.6-7.4,10.2-10.8c3.7-3.3,7.5-6.4,11.7-9.2c4.1-2.8,8.5-5.2,13.1-7.3c9.2-3.9,19-6.3,29-7.2c9.9-0.9,19.9-0.7,29.8,0.4
		c9.8,1.1,19.6,2.8,29.3,5c19.6,4.1,37.8,13.3,52.8,26.6c7.5,6.6,13.9,14.4,19,23c2.6,4.4,4.5,9.1,5.6,14.1c0.6,2.5,0.8,5.1,0.7,7.7
		c-0.1,2.7-0.9,5.3-2.3,7.6c-1.5,2.3-3.6,4.2-6.1,5.3c-2.4,1.1-5,1.7-7.6,1.9c-5.1,0.2-10.2-0.3-15.1-1.6c-9.7-2.5-18.9-6.5-27.7-11
		c-8.8-4.5-17.6-8.7-26.6-12.5c-9-3.8-18.3-7.1-27.6-10c-9.4-2.8-18.9-5-28.6-6.5c-9.6-1.7-19.4-2.6-29.2-2.4
		c-4.9,0.1-9.8,0.5-14.6,1.2C278.1,223.9,273.4,225.1,268.8,226.9z"/>
	
		<linearGradient id="SVGID_2_" gradientUnits="userSpaceOnUse" x1="290.8398" y1="618.4937" x2="340.0199" y2="794.9537" gradientTransform="matrix(0.9924 0.1227 0.1227 -0.9924 18.3459 854.6053)">
		<stop  offset="0" style="stop-color:#231F20"/>
		<stop  offset="0.36" style="stop-color:#231F20"/>
		<stop  offset="0.49" style="stop-color:#7A7A7A"/>
		<stop  offset="0.65" style="stop-color:#231F20"/>
		<stop  offset="0.98" style="stop-color:#231F20"/>
	</linearGradient>
	<path class="st5" d="M261.4,224c-4.8,10.4-9.4,24.5-3.1,33c10.3,13.9,39.9,0.1,74.5-2c81.5-5.1,106.1,59.3,186.9,51.4
		c15.8-1.5,46.3-5.3,62.1-26.9c22.7-30.9,11.1-82.3-33.5-120.3c0,0,5,24.5-60.9,24.4c-65.9-0.1-154.7-69.5-237.1,19.3
		c0,0,9.4-44.5,61.9-51.6c0,0-76.4-16.4-84.6,75.5c0,0-14.9-21.4-6.1-38.8c-7,7-11.4,16.1-12.5,25.9c-2.2,20.4,10.2,34.8,12.3,37.1"
		/>
	<path d="M261.4,224c-2.2,4.9-3.8,10-4.9,15.3c-0.5,2.6-0.7,5.2-0.6,7.9c0.1,2.6,0.8,5.1,2,7.4c0.6,1.1,1.3,2.1,2.2,3
		c0.9,0.9,1.9,1.6,3,2.2c2.3,1.1,4.7,1.8,7.3,1.9c5.1,0.4,10.4-0.4,15.6-1.3c5.2-0.9,10.5-2.1,15.7-3.2c5.3-1.1,10.6-2.2,15.9-3
		c10.8-1.9,21.7-2.7,32.6-2.3l4.1,0.2l4.1,0.4c2.7,0.2,5.5,0.7,8.2,1.1c1.4,0.2,2.7,0.5,4.1,0.8c1.4,0.3,2.7,0.5,4,0.9
		c2.6,0.7,5.3,1.4,7.9,2.3c5.3,1.6,10.3,3.7,15.4,5.9c5,2.1,9.9,4.6,14.7,7c9.6,5,18.9,10.4,28.4,15.2c4.7,2.4,9.5,4.8,14.3,6.8
		c4.8,2.1,9.7,4,14.7,5.5l3.8,1.1c1.3,0.4,2.5,0.6,3.8,1c2.5,0.7,5.1,1.1,7.6,1.6c1.3,0.3,2.6,0.4,3.9,0.6c1.3,0.2,2.6,0.4,3.9,0.5
		c2.6,0.2,5.2,0.5,7.8,0.6l3.9,0.1c1.3,0,2.6,0,3.9-0.1s2.6,0,3.9-0.1l3.9-0.3c2.6-0.2,5.3-0.4,7.9-0.8c2.6-0.3,5.2-0.7,7.8-1.1
		c10.3-1.7,20.5-4.5,29.5-9.3s16.5-11.8,21.2-20.9c4.7-9.1,7-19.2,6.6-29.4c-0.3-10.3-2.5-20.5-6.4-30.1c-4-9.6-9.2-18.7-15.5-27
		c-3.2-4.2-6.6-8.2-10.2-12c-3.6-3.8-7.5-7.4-11.4-10.8l5.6-3.3c0.1,0.4,0.1,0.7,0.1,1.1c0,0.3,0,0.6,0,0.9c0,0.6,0,1.1-0.1,1.7
		c-0.1,1.1-0.4,2.1-0.8,3.1c-0.7,2-1.7,3.8-3,5.4c-1.2,1.5-2.6,2.9-4.1,4.1c-0.7,0.6-1.5,1.2-2.3,1.7c-0.8,0.5-1.6,1-2.4,1.4
		c-6.5,3.6-13.4,5.3-20.3,6.7c-6.8,1.2-13.7,1.9-20.6,2.2l-5.2,0.2h-5.1c-3.5-0.1-7-0.1-10.5-0.5c-6.9-0.7-13.7-1.7-20.4-3.2
		c-6.7-1.4-13.3-3.1-19.9-4.9c-13.1-3.5-26.1-7.3-39.1-10.4c-6.5-1.5-13.1-3-19.6-4.1c-6.6-1.1-13.2-2-19.8-2.4
		c-3.3-0.1-6.6-0.4-9.9-0.3c-1.6,0-3.3,0-5,0l-4.9,0.3c-0.8,0.1-1.6,0.1-2.5,0.2l-2.4,0.3l-4.9,0.6l-4.8,0.9l-2.4,0.4
		c-0.8,0.2-1.6,0.4-2.4,0.6c-12.8,3.1-25,8.2-36.1,15.3c-11.1,7.2-21.2,15.8-30.2,25.6l-8.8,9.4l2.9-12.5c0.3-1.1,0.5-2,0.8-2.9
		c0.3-0.9,0.6-1.8,0.9-2.7c0.6-1.8,1.3-3.5,2.1-5.2c4.7-10.3,11.6-19.3,20.3-26.5c1.4-1.2,3-2.3,4.5-3.4s3.1-2.1,4.7-3
		c1.6-0.9,3.3-1.8,4.9-2.7c0.8-0.4,1.7-0.8,2.5-1.2c0.8-0.4,1.7-0.8,2.6-1.1c6.9-2.8,14.1-4.7,21.5-5.7l-0.3,6.8
		c-1.1-0.2-2.5-0.4-3.7-0.6c-1.3-0.2-2.6-0.3-3.9-0.3c-2.6-0.2-5.2-0.2-7.8-0.1c-5.2,0.2-10.3,0.9-15.4,2.2
		c-10,2.4-19.2,7.4-26.7,14.5c-3.7,3.6-6.9,7.6-9.6,12c-0.7,1.1-1.3,2.3-1.9,3.4l-0.9,1.7l-0.8,1.8l-1.7,3.5l-1.5,3.6
		c-3.8,9.9-6.2,20.2-7.3,30.8l-0.8,7.6l-4.1-6.3c-1-1.5-1.9-3.1-2.7-4.7c-0.8-1.6-1.5-3.2-2.2-4.8c-1.4-3.3-2.4-6.7-3.1-10.2
		c-0.7-3.6-0.9-7.2-0.6-10.8c0.2-1.8,0.5-3.6,1-5.4c0.5-1.8,1.2-3.5,2.1-5.2l2.8,2.1c-1,0.9-1.9,1.9-2.8,3c-0.9,1-1.7,2.2-2.6,3.3
		c-3.2,4.6-5.5,9.8-6.7,15.3c-0.2,0.7-0.3,1.4-0.4,2.1l-0.2,1L210,215c-0.2,1.4-0.3,2.8-0.3,4.2c0,0.7,0,1.4,0,2.1l0.2,2.1l0.1,1.1
		l0.2,1l0.3,2.1c1.6,8.5,5.3,16.5,10.9,23.2c-4-4.3-7.2-9.2-9.5-14.6c-1.2-2.7-2.1-5.5-2.8-8.3l-0.4-2.2l-0.2-1.1l-0.1-1.1l-0.3-2.2
		c-0.1-0.7-0.1-1.5-0.1-2.2c-0.1-1.5-0.1-3,0-4.4l0-1l0.1-1.1c0.1-0.7,0.2-1.5,0.3-2.2c1-5.9,3.2-11.6,6.4-16.7
		c0.8-1.3,1.6-2.5,2.6-3.7c0.9-1.2,1.9-2.4,3-3.5l6.7-6.7l-3.9,8.8c-0.7,1.4-1.2,2.9-1.6,4.5c-0.4,1.5-0.6,3.1-0.7,4.7
		c-0.1,3.2,0.2,6.4,1,9.6c0.8,3.2,1.9,6.3,3.2,9.2c0.7,1.5,1.4,3,2.2,4.4c0.8,1.4,1.6,2.8,2.6,4.1l-4.9,1.3
		c0.6-11.1,2.7-22.1,6.3-32.7l1.4-4l1.8-3.9l0.9-1.9l1.1-1.9c0.7-1.2,1.4-2.5,2.1-3.7c3.1-4.8,6.7-9.3,10.8-13.3
		c8.3-7.9,18.6-13.5,29.8-16.2c5.5-1.4,11.1-2.1,16.8-2.3c2.8-0.1,5.7-0.1,8.5,0.1c1.4,0.1,2.8,0.2,4.2,0.4c1.4,0.2,2.8,0.4,4.4,0.7
		l20.1,4l-20.4,2.8c-6.8,0.9-13.4,2.7-19.8,5.2c-0.8,0.3-1.6,0.7-2.3,1s-1.6,0.7-2.3,1.1c-1.5,0.8-3,1.5-4.5,2.4s-2.9,1.8-4.3,2.7
		c-1.4,0.9-2.8,2-4,3.1c-5.2,4.3-9.8,9.4-13.5,15.1c-1.9,2.8-3.5,5.8-4.9,8.9c-0.7,1.5-1.3,3.1-1.9,4.7c-0.3,0.8-0.6,1.6-0.8,2.4
		c-0.2,0.8-0.5,1.6-0.6,2.3l-5.9-3.1c9.3-10.2,19.9-19.2,31.5-26.7c11.8-7.5,24.7-13,38.3-16.2c0.9-0.2,1.7-0.4,2.5-0.6l2.6-0.5
		l5.1-0.9l5.2-0.6l2.6-0.3c0.9-0.1,1.7-0.1,2.6-0.2l5.2-0.3c1.7-0.1,3.5,0,5.2,0c3.5-0.1,6.9,0.2,10.4,0.3
		c6.9,0.5,13.7,1.3,20.5,2.5c6.8,1.1,13.5,2.6,20.1,4.1c13.3,3.2,26.3,6.9,39.3,10.4c6.5,1.7,13,3.4,19.5,4.8
		c6.5,1.4,13,2.5,19.6,3.1c3.3,0.4,6.5,0.4,9.8,0.5l5,0l5-0.2c6.6-0.2,13.2-0.9,19.7-2.1c6.4-1.2,12.8-2.9,18.2-5.9
		c0.7-0.4,1.3-0.8,2-1.2c0.7-0.4,1.3-0.8,1.8-1.3c1.1-0.9,2.1-1.9,3-3c0.8-1,1.5-2.2,1.9-3.4c0.2-0.6,0.4-1.2,0.4-1.8
		c0-0.3,0.1-0.6,0.1-0.8c0-0.2,0-0.3,0-0.4c0-0.1,0-0.3,0-0.2l5.6-3.3c4.2,3.6,8.2,7.4,12,11.3c3.8,4,7.4,8.2,10.7,12.6
		c6.7,8.8,12.2,18.4,16.4,28.7c4.3,10.3,6.6,21.4,6.9,32.5c0.3,11.4-2.2,22.6-7.5,32.8c-0.6,1.3-1.4,2.5-2.1,3.7
		c-0.7,1.2-1.6,2.4-2.4,3.5l-2.7,3.4c-0.4,0.6-0.9,1.1-1.5,1.6l-1.5,1.5c-4.1,3.9-8.7,7.3-13.8,10c-10,5.3-20.8,8.3-31.6,10
		c-2.7,0.4-5.4,0.8-8.1,1.1c-2.7,0.3-5.4,0.6-8.1,0.8l-4.1,0.3c-1.4,0.1-2.8,0.1-4.1,0.1c-1.4,0-2.8,0.1-4.1,0.1l-4.1-0.1
		c-2.8,0-5.5-0.4-8.3-0.6c-1.4-0.1-2.7-0.4-4.1-0.5c-1.4-0.2-2.7-0.4-4.1-0.6c-2.7-0.6-5.4-1-8.1-1.7c-1.3-0.3-2.7-0.6-4-1l-4-1.2
		c-5.2-1.6-10.4-3.6-15.4-5.8c-5-2.2-9.9-4.6-14.7-7.1c-9.6-5-18.9-10.3-28.4-15.2c-9.4-4.9-19-9.3-29.1-12.3
		c-10-3.1-20.3-5.2-30.7-6.1c-10.5-0.8-21.1-0.5-31.6,0.8c-10.6,1.3-21.1,3.3-31.8,4.7c-5.4,0.6-10.9,1.2-16.4,0.5
		c-2.8-0.3-5.6-1.2-8.1-2.6c-1.2-0.7-2.4-1.6-3.4-2.7c-0.9-1.1-1.7-2.3-2.4-3.6c-1.2-2.6-1.7-5.3-1.7-8.1c0-2.7,0.4-5.5,1.1-8.1
		C257.1,233.8,259,228.8,261.4,224z"/>
	<path d="M248.7,226.8c0.9-2.5,1.9-4.9,3.1-7.2c1.2-2.3,2.5-4.6,3.9-6.8c2.8-4.4,5.9-8.7,9.3-12.7c6.8-8.1,14.7-15.2,23.3-21.3
		c4.3-3,8.9-5.8,13.5-8.2c4.7-2.4,9.5-4.5,14.5-6.4c9.9-3.6,20.2-5.7,30.7-6.4c-9.9,2.8-19.6,6.4-29,10.5c-4.6,2.2-9.2,4.4-13.6,7
		c-4.4,2.6-8.7,5.2-12.9,8.2c-8.3,5.9-16.1,12.4-23.3,19.7c-3.6,3.6-7.1,7.4-10.3,11.4c-1.7,2-3.3,4-4.8,6S250,224.5,248.7,226.8z"
		/>
	<path d="M323.9,201c5.9-2.8,11.9-5.3,17.7-7.8s11.7-5,17.4-7.8c5.7-2.8,11.3-5.6,16.1-9.3c2.4-1.7,4.4-3.9,5.9-6.5
		c0.7-1.3,1.1-2.7,1.1-4.2c0-1.6-0.4-3.1-1-4.6c1.2,1.2,2.1,2.7,2.5,4.4c0.5,1.8,0.5,3.6,0,5.3c-1.1,3.4-3,6.4-5.6,8.8
		c-2.4,2.4-5.1,4.5-7.9,6.3c-2.8,1.8-5.7,3.4-8.7,4.8c-5.9,2.8-12.1,5.1-18.4,6.8C336.8,199.2,330.4,200.4,323.9,201z"/>
	<path d="M349.7,214.4c7.7-2.1,15.2-4.1,22.7-6.3s14.9-4.5,22.1-7.2c1.8-0.7,3.6-1.4,5.3-2.2c1.7-0.8,3.5-1.6,5.2-2.4
		c3.4-1.6,6.6-3.6,9.7-5.8c3-2.2,5.6-4.8,7.7-7.9c2.1-3.2,3.2-7,3.3-10.8c1.1,4,0.8,8.3-0.8,12.1c-1.7,3.8-4.2,7.2-7.3,10
		c-3,2.8-6.4,5.2-10,7.1c-3.5,2-7.2,3.7-11,5.1c-7.5,2.8-15.2,4.9-23.1,6.3C365.6,213.8,357.7,214.5,349.7,214.4z"/>
	<path d="M356.6,219.3c13.5,1.2,26.9,2,40.2,2.4c6.7,0.1,13.4,0.2,20,0c6.6-0.2,13.3-0.5,19.9-1.2c6.6-0.6,13.1-1.6,19.6-3.1
		c6.4-1.4,12.7-3.4,18.7-6c3-1.3,5.8-2.9,8.5-4.8c2.7-1.8,5.2-3.9,7.4-6.3c4.6-4.8,7.9-10.7,9.6-17.1c-0.7,6.9-3.3,13.5-7.5,18.9
		c-2.2,2.8-4.6,5.3-7.3,7.4c-2.7,2.2-5.6,4.1-8.7,5.7c-3.1,1.6-6.2,3.1-9.5,4.2c-3.2,1.2-6.5,2.2-9.9,3.1
		c-6.7,1.6-13.4,2.8-20.3,3.5c-6.8,0.6-13.6,0.9-20.4,0.9c-6.8-0.1-13.6-0.3-20.4-1C383.1,225,369.7,222.7,356.6,219.3z"/>
	<path d="M380.4,238.8c8.8,0.8,17.5,1.4,26.3,1.7c8.8,0.3,17.5,0.4,26.2,0.2c8.7-0.3,17.4-0.7,26.1-1.8c8.6-0.9,17.2-2.4,25.6-4.5
		c8.4-2,16.5-4.8,24.2-8.6c7.7-3.6,14.7-8.6,20.8-14.6c6-6.1,10.6-13.4,13.5-21.5c1.5-4.1,2.6-8.3,3.3-12.5l0.5-3.2
		c0.2-1.1,0.2-2.2,0.4-3.3c0.3-2.2,0.3-4.4,0.5-6.6c0.4,4.4,0.5,8.8,0.3,13.3c-0.3,4.5-1.1,8.9-2.2,13.2c-1.2,4.3-3,8.5-5.1,12.5
		c-2.2,4-4.8,7.7-7.8,11.1c-6.2,6.7-13.5,12.2-21.6,16.3c-8.1,4-16.5,7.1-25.3,9.3c-17.4,4.2-35.3,5.5-53,5.1
		c-8.9-0.2-17.7-0.8-26.4-1.8C397.7,242.3,389,240.8,380.4,238.8z"/>
	<path d="M398.1,253.9c9.3,1.9,18.6,3.5,27.9,4.9s18.7,2.5,28.1,3.3c9.4,0.8,18.8,1.2,28.1,1.1c9.3,0,18.6-0.8,27.8-2.2
		c9.1-1.3,18.1-3.8,26.5-7.4c4.2-1.8,8.2-4.1,11.9-6.7c3.7-2.6,7.1-5.7,10.1-9.1c3-3.5,5.5-7.3,7.5-11.4c2-4.1,3.5-8.5,4.5-13
		c0.6-2.3,0.9-4.6,1.3-6.9c0.2-1.2,0.3-2.3,0.4-3.5l0.2-1.7l0.1-1.8c0.1-1.2,0.1-2.3,0.2-3.5v-3.5c0.1-2.4-0.1-4.7-0.2-7.1
		c0.8,4.7,1.4,9.4,1.5,14.2l0.1,1.8c0,0.6,0,1.2,0,1.8c0,1.2,0,2.4-0.1,3.6c-0.2,2.4-0.3,4.8-0.8,7.2c-0.7,4.8-2,9.5-3.8,14
		c-1.9,4.5-4.4,8.8-7.4,12.7c-6,7.8-14.3,13.7-23.1,17.9c-8.9,4-18.3,6.7-27.9,8.1c-4.8,0.8-9.6,1.2-14.4,1.5s-9.6,0.5-14.4,0.4
		c-9.5-0.1-19.1-0.8-28.5-2c-9.5-1.2-18.8-2.9-28.1-4.9C416.3,259.5,407.1,256.9,398.1,253.9z"/>
	<path d="M414.3,266.8c8.4,3,16.8,5.8,25.3,8.3c8.5,2.5,17,4.7,25.6,6.6c8.6,1.8,17.3,3.5,26,4.4c8.7,1.1,17.4,1.5,26.1,1.2
		c8.6-0.2,17.2-1.4,25.6-3.7c4.1-1.1,8.1-2.7,12-4.5c3.8-1.9,7.5-4.1,10.9-6.7c6.8-5.3,12.5-11.9,16.7-19.5c4.3-7.6,7.1-16,9.3-24.6
		c-0.8,8.9-3.1,17.7-6.8,25.9c-1.9,4.1-4.2,8.1-6.9,11.7c-2.8,3.7-5.9,7-9.4,10c-7.1,5.9-15.3,10.3-24.1,12.9
		c-8.7,2.6-17.8,4-26.9,4.3c-18.1,0.5-36-2.4-53.3-7c-8.6-2.3-17.1-5.1-25.5-8.3C430.4,274.5,422.2,270.9,414.3,266.8z"/>
	<path class="st0" d="M256.1,429c0,0-12.8-55.9-52-53.6s-46.1,99.2,5,127.2c42.1,23.1,51.9-19.1,51.9-19.1"/>
	<path d="M256.1,429c-1-3-2.2-5.9-3.5-8.7c-1.3-2.8-2.7-5.6-4.1-8.4c-2.9-5.4-6.3-10.5-10.2-15.3l-2.8-3.5c-1-1.1-1.9-2.3-3-3.3
		c-2.1-2.1-4.3-4-6.8-5.6c-0.6-0.4-1.2-0.8-1.9-1.2c-0.6-0.4-1.3-0.7-1.9-1.1c-1.3-0.7-2.6-1.2-4-1.7c-1.4-0.5-2.7-0.9-4.1-1.3
		c-1.4-0.3-2.9-0.5-4.3-0.6c-0.7,0-1.4-0.1-2.2-0.1h-2.2c-1.4,0-2.8,0.2-4.2,0.5c-2.7,0.6-5.3,1.8-7.5,3.4
		c-4.6,3.2-8.2,8.1-10.8,13.4c-2.6,5.4-4.4,11.2-5.5,17.1c-1.1,6-1.7,12.1-1.6,18.2c0,6.1,0.6,12.2,1.7,18.2c1.1,6,2.8,11.9,5,17.5
		c2.2,5.6,5.1,11,8.6,15.9c3.4,4.9,7.6,9.3,12.4,13c2.4,1.8,4.9,3.5,7.5,4.9c2.6,1.4,5.4,2.7,8.2,3.8l2.1,0.8l2.1,0.6
		c0.7,0.2,1.4,0.4,2.1,0.5c0.7,0.1,1.4,0.3,2.1,0.4l2.1,0.3c0.7,0,1.4,0,2.1,0.1s1.4-0.1,2.1-0.1s1.4-0.1,2.1-0.2
		c2.8-0.2,5.6-1,8.2-2.2c2.6-1.3,5.1-3,7.1-5.1c2.2-2.2,4.1-4.6,5.6-7.2c1.7-2.6,3-5.5,4.1-8.4c-1.1,6.3-3.7,12.4-7.5,17.5
		c-2,2.7-4.4,5-7.2,6.9c-2.9,1.9-6.1,3.3-9.5,4c-0.8,0.2-1.7,0.3-2.6,0.3c-0.9,0.1-1.7,0.1-2.6,0c-0.9,0-1.7-0.1-2.6-0.1l-2.5-0.3
		c-0.8-0.1-1.6-0.3-2.5-0.5c-0.8-0.1-1.6-0.3-2.4-0.6l-2.4-0.7l-2.3-0.8c-3.1-1.2-6-2.5-8.9-4.1c-2.9-1.6-5.7-3.4-8.3-5.4
		c-5.2-4-9.7-8.8-13.5-14.2c-3.8-5.3-6.8-11.1-9.2-17.1c-2.4-6-4.2-12.2-5.3-18.6c-1.2-6.3-1.8-12.7-1.8-19.2
		c-0.1-6.5,0.5-12.9,1.7-19.3c1.2-6.4,3.2-12.7,6-18.6c1.5-3,3.2-5.8,5.3-8.5c2.1-2.7,4.6-5.1,7.4-7.1c2.9-2,6.1-3.5,9.5-4.2
		c1.7-0.4,3.4-0.6,5.2-0.6h2.5c0.8,0,1.7,0.1,2.5,0.2c1.7,0.2,3.3,0.4,5,0.7c1.6,0.4,3.3,0.9,4.9,1.5c1.6,0.6,3.1,1.2,4.6,2
		c0.8,0.4,1.5,0.8,2.2,1.2c0.7,0.4,1.4,0.9,2.1,1.3c2.8,1.9,5.3,4,7.7,6.4c1.2,1.1,2.3,2.4,3.4,3.6c1.1,1.2,2.1,2.5,3,3.9
		c1.7,2.7,3.3,5.6,4.7,8.5c1.4,2.9,2.6,5.8,3.7,8.9C253.5,416.6,255.1,422.8,256.1,429z"/>
	<path d="M196.6,426.6c0-2.1,0.2-4.1,0.6-6.1c0.4-2.1,1.1-4.1,2.1-6c1.1-2.1,2.6-3.8,4.4-5.2c1-0.7,2.1-1.3,3.3-1.7
		c1.2-0.4,2.4-0.6,3.7-0.6c2.4,0,4.7,0.4,7,1.3c1,0.4,2.1,0.9,3.1,1.4c1,0.6,2,1.2,2.9,1.9c1.8,1.3,3.5,2.9,4.9,4.6
		c1.4,1.7,2.7,3.5,3.7,5.4c4.3,7.5,6.3,15.7,7.3,23.9c0.5,4.1,0.7,8.2,0.5,12.2c-0.1,2-0.2,4.1-0.5,6.1c-0.2,2-0.6,4.1-1.3,6
		c-0.3-4-0.9-7.9-1.7-11.8c-0.7-3.9-1.6-7.7-2.5-11.5c-1.9-7.5-4.3-14.9-8-21.3c-0.4-0.8-0.9-1.6-1.4-2.3s-1-1.5-1.6-2.2
		s-1.1-1.4-1.7-2s-1.2-1.2-1.9-1.8c-0.6-0.5-1.3-1.1-2-1.5c-0.8-0.4-1.5-0.9-2.3-1.3c-1.4-0.8-3-1.3-4.6-1.5c-0.7-0.1-1.5-0.1-2.3,0
		c-0.8,0.1-1.5,0.4-2.2,0.7c-1.5,0.8-2.9,1.9-4,3.2C199.8,419.5,197.9,423,196.6,426.6z"/>
	<path d="M217.8,473.8c-3.6-4.6-6.1-10-7.4-15.6c-0.7-3-0.9-6.2-0.4-9.2c0.3-1.7,0.8-3.3,1.6-4.8c0.8-1.6,1.9-2.9,3.3-4.1l1-0.8
		c0.4-0.3,0.7-0.5,1.1-0.7c0.7-0.4,1.5-0.8,2.3-1.1c1.5-0.6,3.2-1,4.8-1.1c1.7-0.2,3.5,0,5.1,0.5c1.7,0.5,3.2,1.4,4.5,2.7
		c2.2,2.3,3.7,5.1,4.4,8.2c0.6,2.9,0.8,5.8,0.4,8.7c-0.8-2.7-1.8-5.3-3-7.8c-1.1-2.3-2.6-4.3-4.6-5.8c-1.8-1.2-4-1.7-6.1-1.3
		c-0.6,0.1-1.1,0.2-1.7,0.4s-1.1,0.4-1.6,0.6c-1,0.4-2,1-2.8,1.7c-1.7,1.5-2.8,3.4-3.2,5.6c-0.5,2.5-0.7,5-0.4,7.5
		C215.3,463,216.3,468.4,217.8,473.8z"/>
	<path class="st6" d="M323.3,333.1c-8,1.9-15.7,4.5-23.2,7.9c0,0-7.9,6.1-8.1,12.6c-0.3,6.5-3.2,25.7-3.2,25.7s11.3-3.3,12.3-3.8
		c3.7-1.7,7.1-4.1,9.8-7.2c6.5-6.8,14.6-11.7,23.5-14.5c3-0.9,6.1-1.5,9.2-2C336.8,345.5,330,339.3,323.3,333.1z"/>
	<path class="st6" d="M406.9,326.3c0,0-36.8-2.4-72.6,4.4c7.2,6.6,14.4,13.3,21.7,19.9c14-0.5,28.5,1.2,41.7,1.5
		c1.8,0.2,3.6-0.1,5.3-0.7C407.4,349.2,406.8,331,406.9,326.3z"/>
	<path class="st7" d="M462.4,333.1l-1.8,30.8c29-13.1,63.2-5.6,84,18.4L548,355C548,355,527.8,336.3,462.4,333.1z"/>
	<path d="M321.5,501.5c1.2,3.3,2.7,6.5,4.5,9.5c1.8,3,3.8,5.8,6.1,8.4c2.2,2.6,4.6,5.1,7.2,7.4c1.3,1.2,2.6,2.2,4,3.3l2.1,1.5
		c0.7,0.5,1.4,1,2.1,1.5c11.4,7.6,24.5,12.3,38,15.3l5.1,1.1l5.1,0.8c1.7,0.3,3.4,0.5,5.2,0.7c1.7,0.2,3.4,0.5,5.2,0.6
		c3.5,0.3,6.9,0.7,10.4,0.9l5.2,0.3l5.2,0.2l2.6,0.1h0.6c0.1,0,0.2,0,0.3,0h0.3l1.3-0.1c1.8-0.1,3.6-0.2,5.3-0.2
		c3.6-0.1,7.1-0.2,10.7-0.2c7.1-0.1,14.3,0.3,21.4,1c-7.1,0.7-14.1,1.5-21.1,2.5c-3.5,0.4-7,0.9-10.5,1.3l-5.3,0.7l-1.3,0.2l-0.3,0
		h-0.4h-0.7l-2.7,0.1l-5.4,0.2c-1.8,0-3.6,0-5.4,0c-3.6,0.1-7.2-0.2-10.8-0.4c-7.2-0.5-14.4-1.5-21.5-3c-7.1-1.6-14.1-3.8-20.8-6.6
		c-6.7-2.9-13.1-6.6-18.9-11.1c-0.7-0.5-1.4-1.1-2.1-1.7L340,534c-1.3-1.3-2.7-2.5-3.9-3.9c-2.5-2.7-4.8-5.5-6.8-8.6
		c-2-3-3.7-6.3-5-9.6C322.9,508.6,322,505.1,321.5,501.5z"/>
	<path class="st0" d="M298.1,519.3c0,0,38.6-1.1,39.8-40.8"/>
	<path d="M298.1,519.3c5-1.4,9.8-3.3,14.5-5.6c4.4-2.2,8.5-5.1,12-8.5c3.5-3.5,6.3-7.5,8.4-12c2.1-4.7,3.8-9.6,5-14.7
		c1,5.4,0.7,11-0.8,16.2c-1.6,5.5-4.5,10.4-8.6,14.4c-4,3.9-9,6.9-14.3,8.6C309.1,519.5,303.5,520,298.1,519.3z"/>
	<path class="st8" d="M343.9,432.9c0,0-15.7-13.8-9.1-37.9c6.7-24.1,29.1-23.8,36.9-22.8c13.4,1.6,34.8,20.2,15.3,62L343.9,432.9z"
		/>
	<path class="st3" d="M363.4,375.4c-6.5-0.8-13.1,7.1-16.3,18.7l20.7,14.1l-22.5,4.2c0.8,10.7,5,18.7,11,19.5
		c7.9,1,15.9-10.9,17.8-26.5S371.3,376.3,363.4,375.4z"/>
	<path class="st9" d="M434.3,520.6c-19.6-1.1-34.6-2.1-43-2.6c-39.8-2.7-52.5,0-55.3,7.6c-1.3,3.5-0.3,7.5,0.8,10.1
		c23.7-1.7,47.5-1,71,2c5.3,0.7,10.5,1.5,15.5,2.4l9.8-9.9l4.7,11.3c4.9-0.2,9.7-0.2,14.6,0.2c13.4,1,26.6,4.2,39,9.4
		c1.3-3.2,2.8-8.1,1.4-12.5c-2.2-6.8-10-8.6-17.7-10.1C458.9,525.1,445.3,522.5,434.3,520.6z"/>
	<path class="st0" d="M329.2,435.8c0,0,15.6-12.6,42.3-9.3c20.6,2.5,27.4,12.4,27.4,12.4"/>
	<path d="M329.2,435.8c2.2-2.3,4.8-4.3,7.6-5.9c2.8-1.6,5.8-3,8.8-4c6.2-2,12.7-2.9,19.2-2.7c6.5,0.1,13,1.4,19.1,3.8
		c3,1.2,5.9,2.8,8.5,4.8c2.6,1.9,4.8,4.3,6.4,7.2c-2.4-2-5-3.6-7.9-4.8c-2.7-1.2-5.6-2.2-8.5-2.9c-5.8-1.4-11.8-2.2-17.8-2.4
		c-6-0.2-12,0.3-17.9,1.4C340.7,431.3,334.8,433.2,329.2,435.8z"/>
	<path class="st0" d="M425.3,516.6l41,5c0,0,35.1,4.8,35.4-19.6c0,0-0.5-8.9-14.2-26.8s-42.6-89.4-42.6-89.4"/>
	<path d="M425.3,516.6c7.4,0,14.7,0.1,22,0.3l5.5,0.2c0.9,0.1,1.8,0.2,2.7,0.3c0.9,0.1,1.8,0.3,2.7,0.4l5.4,0.7l2.7,0.3
		c0.9,0.1,1.7,0.2,2.6,0.3c3.5,0.3,6.9,0.2,10.4-0.2c3.4-0.3,6.6-1.1,9.8-2.4c2.9-1.2,5.4-3.1,7.3-5.6c1.7-2.6,2.6-5.7,2.5-8.8v0.2
		c0,0-0.1-0.4-0.1-0.6s-0.1-0.5-0.2-0.9c-0.1-0.6-0.3-1.2-0.5-1.7c-0.4-1.2-0.9-2.4-1.4-3.5c-1.1-2.4-2.3-4.7-3.6-6.9
		c-1.3-2.2-2.8-4.5-4.3-6.6c-0.8-1.1-1.5-2.2-2.3-3.2l-1.2-1.6l-1.2-1.7c-3.1-4.6-5.9-9.3-8.5-14.3c-2.5-4.8-5-9.7-7.3-14.6
		c-4.7-9.8-9.1-19.7-13.5-29.6c-0.5-1.3-1.1-2.5-1.7-3.7s-0.9-2.6-1.3-3.9l-2.5-7.8c-1.6-5.2-3.2-10.4-4.6-15.7l7.9,14.3l3.9,7.1
		c0.6,1.2,1.3,2.4,1.9,3.6s1,2.5,1.5,3.7c4.3,9.9,8.7,19.7,13.4,29.4c2.3,4.9,4.7,9.6,7.2,14.4c2.4,4.7,5.1,9.3,8,13.6l1.1,1.6
		l1.2,1.7c0.8,1.1,1.6,2.2,2.4,3.4c1.6,2.3,3.1,4.6,4.5,7c1.4,2.4,2.7,4.9,3.9,7.5c0.6,1.3,1.1,2.6,1.6,4c0.2,0.7,0.4,1.4,0.6,2.1
		c0.1,0.4,0.2,0.8,0.3,1.1c0.1,0.5,0.2,0.9,0.2,1.4v0.2c0,4.2-1.2,8.4-3.5,11.9c-1.2,1.8-2.7,3.3-4.4,4.6c-1.6,1.2-3.4,2.3-5.3,3.1
		c-3.6,1.5-7.4,2.5-11.4,2.9c-3.8,0.4-7.6,0.5-11.4,0.2c-0.9-0.1-1.9-0.2-2.9-0.3l-2.7-0.3l-5.4-0.7c-0.9-0.1-1.8-0.2-2.7-0.3
		c-0.9-0.1-1.8-0.2-2.7-0.3l-5.4-1.2C439.5,520,432.4,518.4,425.3,516.6z"/>
</g>
<g id="Layer_6">
	<path d="M311.7,616.7c-7-11.5-6.5-27-2.5-28.7c3.2-1.3,7.8,6.5,20.7,20.2c14.7,15.6,24.3,25.8,38.7,32.2c2,0.9,15.1,3,41.1,7.1
		c12.1,1.9,20,3,29.1-0.5c5.2-2.2,10.1-5.1,14.4-8.7c4.4-3.5,8.3-7.5,11.8-12c4.8-6.1,7.3-9.1,8.7-13.3c1.6-4.9,1.4-8.6,4.9-11.5
		c0.6-0.5,3-2.5,4.9-1.8c3.5,1.4,2.3,11.4,2.2,12.4c-0.2,2.1-0.6,4.1-1.3,6c-2.5,6.7-8.2,10.3-10.9,12c-15.2,10-12.7,13.2-23.3,18.7
		c-13.2,6.8-25.7,6.5-38,6.2c-14-0.3-24.5-3.2-33.8-5.8c-9.6-2.7-16.2-5.3-26.4-9.6C328.7,630.2,316.9,625.3,311.7,616.7z"/>
</g>
</svg>
