<svg id="Layer_1" data-name="Layer 1" xmlns="http://www.w3.org/2000/svg" viewBox="0 0 1774.56 257"><rect y="0.35" width="136.19" height="85.48" fill="#121309"/><rect y="85.83" width="136.19" height="85.48" fill="none"/><rect y="171.52" width="136.19" height="85.48" fill="#121309"/><rect x="136.19" y="85.83" width="136.19" height="85.48" fill="#121309"/><rect x="272.38" y="0.24" width="136.19" height="85.48" fill="#121309"/><rect x="272.38" y="85.72" width="136.19" height="85.48" fill="none"/><rect x="272.38" y="171.41" width="136.19" height="85.48" fill="#121309"/><rect x="272.38" y="0.29" width="136.19" height="85.48" fill="#121309"/><rect x="272.38" y="85.77" width="136.19" height="85.48" fill="none"/><rect x="272.38" y="171.47" width="136.19" height="85.48" fill="#121309"/><rect x="408.57" y="85.77" width="136.19" height="85.48" fill="#121309"/><rect x="544.76" y="0.19" width="136.19" height="85.48" fill="#121309"/><rect x="544.76" y="85.67" width="136.19" height="85.48" fill="none"/><rect x="544.76" y="171.36" width="136.19" height="85.48" fill="#121309"/><rect x="548.85" y="0.16" width="136.19" height="85.48" fill="#121309"/><rect x="548.85" y="85.64" width="136.19" height="85.48" fill="none"/><rect x="548.85" y="171.33" width="136.19" height="85.48" fill="#121309"/><rect x="685.04" y="85.64" width="136.19" height="85.48" fill="#121309"/><rect x="821.23" y="0.05" width="136.19" height="85.48" fill="#121309"/><rect x="821.23" y="85.53" width="136.19" height="85.48" fill="none"/><rect x="821.23" y="171.23" width="136.19" height="85.48" fill="#121309"/><rect x="821.23" y="0.11" width="136.19" height="85.48" fill="#121309"/><rect x="821.23" y="85.59" width="136.19" height="85.48" fill="none"/><rect x="821.23" y="171.28" width="136.19" height="85.48" fill="#121309"/><rect x="957.42" y="85.59" width="136.19" height="85.48" fill="#121309"/><rect x="1093.61" width="136.19" height="85.48" fill="#121309"/><rect x="1093.61" y="85.48" width="136.19" height="85.48" fill="none"/><rect x="1093.61" y="171.17" width="136.19" height="85.48" fill="#121309"/><rect x="1365.99" y="0.24" width="136.19" height="85.48" fill="#121309"/><rect x="1365.99" y="85.72" width="136.19" height="85.48" fill="none"/><rect x="1365.99" y="171.41" width="136.19" height="85.48" fill="#121309"/><rect x="1365.99" y="0.29" width="136.19" height="85.48" fill="#121309"/><rect x="1365.99" y="85.77" width="136.19" height="85.48" fill="none"/><rect x="1365.99" y="171.47" width="136.19" height="85.48" fill="#121309"/><rect x="1502.18" y="85.77" width="136.19" height="85.48" fill="#121309"/><rect x="1638.37" y="0.19" width="136.19" height="85.48" fill="#121309"/><rect x="1638.37" y="85.67" width="136.19" height="85.48" fill="none"/><rect x="1638.37" y="171.36" width="136.19" height="85.48" fill="#121309"/><rect x="1229.8" y="85.48" width="136.19" height="85.48" fill="#121309"/></svg>