<svg xmlns="http://www.w3.org/2000/svg" xmlns:xlink="http://www.w3.org/1999/xlink" viewBox="0 0 437.48 494.95"><defs><pattern id="USGS_22_Gravel_Beach_3" data-name="USGS 22 Gravel Beach 3" width="72" height="72" patternTransform="matrix(-1.04, 0.13, 0.13, 1.04, 129.49, 11.34)" patternUnits="userSpaceOnUse" viewBox="0 0 72 72"><rect width="72" height="72" fill="none"/><path d="M72.25,58a.35.35,0,0,1-.25-.6.38.38,0,0,1,.5,0,.35.35,0,0,1-.25.6Z" fill="#eb9773"/><path d="M20.75,3.22a.39.39,0,0,1-.25-.1.36.36,0,0,1,0-.5.36.36,0,0,1,.6.25.39.39,0,0,1-.1.25A.39.39,0,0,1,20.75,3.22Z" fill="#eb9773"/><path d="M19.75,8.47a.34.34,0,0,1-.35-.35.33.33,0,0,1,.11-.25.37.37,0,0,1,.49,0,.36.36,0,0,1,.1.25.39.39,0,0,1-.1.25A.37.37,0,0,1,19.75,8.47Z" fill="#eb9773"/><path d="M20,10.72a.35.35,0,0,1-.25-.6.37.37,0,0,1,.5,0,.35.35,0,0,1-.25.6Z" fill="#eb9773"/><path d="M15,10.72a.34.34,0,0,1-.35-.35.37.37,0,0,1,.1-.25.38.38,0,0,1,.5,0,.35.35,0,0,1-.25.6Z" fill="#eb9773"/><path d="M22.5,20.22a.35.35,0,0,1-.25-.6.36.36,0,0,1,.6.25.34.34,0,0,1-.35.35Z" fill="#eb9773"/><path d="M15,23.22a.34.34,0,0,1-.35-.35.33.33,0,0,1,.11-.25.37.37,0,0,1,.49,0,.36.36,0,0,1,.1.25.34.34,0,0,1-.35.35Z" fill="#eb9773"/><path d="M13.75,24.22a.35.35,0,0,1-.25-.6.36.36,0,0,1,.6.25.39.39,0,0,1-.1.25A.37.37,0,0,1,13.75,24.22Z" fill="#eb9773"/><path d="M23.75,27.22a.34.34,0,0,1-.35-.35.33.33,0,0,1,.11-.25.37.37,0,0,1,.49,0,.39.39,0,0,1,.1.25.35.35,0,0,1-.1.24A.36.36,0,0,1,23.75,27.22Z" fill="#eb9773"/><path d="M30.5,26a.35.35,0,0,1-.25-.6.36.36,0,0,1,.6.25.34.34,0,0,1-.35.35Z" fill="#eb9773"/><path d="M31,23.47a.34.34,0,0,1-.35-.35.33.33,0,0,1,.11-.25.35.35,0,0,1,.59.25.39.39,0,0,1-.1.25A.37.37,0,0,1,31,23.47Z" fill="#eb9773"/><path d="M29,18.47a.35.35,0,0,1-.25-.6.36.36,0,0,1,.6.25.34.34,0,0,1-.35.35Z" fill="#eb9773"/><path d="M33.75,20a.35.35,0,0,1-.25-.6.36.36,0,0,1,.6.25.34.34,0,0,1-.35.35Z" fill="#eb9773"/><path d="M31.25,15a.35.35,0,0,1-.25-.6.36.36,0,0,1,.6.25.34.34,0,0,1-.35.35Z" fill="#eb9773"/><path d="M31.5,12a.35.35,0,0,1-.25-.6.37.37,0,0,1,.5,0,.35.35,0,0,1-.25.6Z" fill="#eb9773"/><path d="M32,7.22a.35.35,0,0,1-.25-.6.36.36,0,0,1,.6.25.34.34,0,0,1-.35.35Z" fill="#eb9773"/><path d="M31.75,3.22a.39.39,0,0,1-.25-.1.39.39,0,0,1-.1-.25.33.33,0,0,1,.11-.25.35.35,0,0,1,.59.25.39.39,0,0,1-.1.25A.39.39,0,0,1,31.75,3.22Z" fill="#eb9773"/><path d="M33.75,1.47a.36.36,0,0,1-.25-.11.33.33,0,0,1-.1-.24.33.33,0,0,1,.11-.25.36.36,0,0,1,.49,0,.36.36,0,0,1,.1.25.34.34,0,0,1-.11.25A.35.35,0,0,1,33.75,1.47Z" fill="#eb9773"/><path d="M41.25,7.22a.39.39,0,0,1-.25-.1.35.35,0,0,1-.1-.25.39.39,0,0,1,.1-.25.35.35,0,0,1,.49,0,.36.36,0,0,1,.11.25.34.34,0,0,1-.35.35Z" fill="#eb9773"/><path d="M45.25,7a.39.39,0,0,1-.25-.1.36.36,0,0,1,0-.5.36.36,0,0,1,.6.25.34.34,0,0,1-.35.35Z" fill="#eb9773"/><path d="M42.25,13.72a.34.34,0,0,1-.35-.35.33.33,0,0,1,.11-.25.35.35,0,0,1,.59.25.34.34,0,0,1-.35.35Z" fill="#eb9773"/><path d="M46.75,14.47a.34.34,0,0,1-.35-.35.33.33,0,0,1,.11-.25.36.36,0,0,1,.49,0,.39.39,0,0,1,.1.25.33.33,0,0,1-.1.24A.36.36,0,0,1,46.75,14.47Z" fill="#eb9773"/><path d="M46.75,16.47a.34.34,0,0,1-.35-.35.33.33,0,0,1,.11-.25.36.36,0,0,1,.49,0,.39.39,0,0,1,.1.25.37.37,0,0,1-.1.24A.36.36,0,0,1,46.75,16.47Z" fill="#eb9773"/><path d="M38.75,21a.35.35,0,0,1-.25-.6.36.36,0,0,1,.49,0,.34.34,0,0,1,.11.25.34.34,0,0,1-.35.35Z" fill="#eb9773"/><path d="M50,13.72a.39.39,0,0,1-.25-.1.36.36,0,0,1,0-.5.37.37,0,0,1,.5,0,.35.35,0,0,1-.25.6Z" fill="#eb9773"/><path d="M52,12.22a.36.36,0,0,1-.25-.11.35.35,0,0,1-.1-.24.33.33,0,0,1,.11-.25.37.37,0,0,1,.49,0,.36.36,0,0,1,.1.25.34.34,0,0,1-.35.35Z" fill="#eb9773"/><path d="M54.5,11.22a.36.36,0,0,1-.25-.11.35.35,0,0,1-.1-.24.33.33,0,0,1,.11-.25.35.35,0,0,1,.59.25.34.34,0,0,1-.35.35Z" fill="#eb9773"/><path d="M56.25,1A.39.39,0,0,1,56,.87a.39.39,0,0,1-.1-.25A.39.39,0,0,1,56,.37a.36.36,0,0,1,.5,0,.35.35,0,0,1,.1.24.39.39,0,0,1-.1.25A.39.39,0,0,1,56.25,1Z" fill="#eb9773"/><path d="M67.75,3.22a.39.39,0,0,1-.25-.1.39.39,0,0,1-.1-.25.33.33,0,0,1,.11-.25.37.37,0,0,1,.49,0,.36.36,0,0,1,.1.25.39.39,0,0,1-.1.25A.37.37,0,0,1,67.75,3.22Z" fill="#eb9773"/><path d="M67.75,10.47a.36.36,0,0,1-.25-.11.35.35,0,0,1-.1-.24.39.39,0,0,1,.1-.25.37.37,0,0,1,.5,0,.39.39,0,0,1,.1.25.34.34,0,0,1-.11.25A.35.35,0,0,1,67.75,10.47Z" fill="#eb9773"/><path d="M64,12.47a.35.35,0,0,1-.25-.6.36.36,0,0,1,.6.25.34.34,0,0,1-.35.35Z" fill="#eb9773"/><path d="M65,16a.34.34,0,0,1-.35-.35.37.37,0,0,1,.1-.25.38.38,0,0,1,.5,0A.35.35,0,0,1,65,16Z" fill="#eb9773"/><path d="M63.75,20a.36.36,0,0,1-.25-.11.35.35,0,0,1-.1-.24.39.39,0,0,1,.1-.25.37.37,0,0,1,.5,0,.39.39,0,0,1,.1.25.34.34,0,0,1-.11.25A.35.35,0,0,1,63.75,20Z" fill="#eb9773"/><path d="M66,20a.34.34,0,0,1-.35-.35.33.33,0,0,1,.11-.25.37.37,0,0,1,.49,0,.36.36,0,0,1,.1.25A.34.34,0,0,1,66,20Z" fill="#eb9773"/><path d="M67.75,21.47a.35.35,0,0,1-.25-.6.37.37,0,0,1,.5,0,.35.35,0,0,1-.25.6Z" fill="#eb9773"/><path d="M6.75,52.47a.35.35,0,0,1-.25-.6.38.38,0,0,1,.5,0,.35.35,0,0,1-.25.6Z" fill="#eb9773"/><path d="M7,54.72a.35.35,0,0,1-.25-.6.37.37,0,0,1,.5,0,.35.35,0,0,1-.25.6Z" fill="#eb9773"/><path d="M2,54.72a.39.39,0,0,1-.25-.1.36.36,0,0,1,0-.5.38.38,0,0,1,.5,0,.36.36,0,0,1,0,.5A.39.39,0,0,1,2,54.72Z" fill="#eb9773"/><path d="M9.5,64.22a.35.35,0,0,1-.25-.6.36.36,0,0,1,.6.25.34.34,0,0,1-.35.35Z" fill="#eb9773"/><path d="M.75,68.22a.39.39,0,0,1-.25-.1.36.36,0,0,1,0-.5.38.38,0,0,1,.5,0,.36.36,0,0,1,0,.5A.39.39,0,0,1,.75,68.22Z" fill="#eb9773"/><path d="M10.75,71.22a.35.35,0,0,1-.25-.6.38.38,0,0,1,.5,0,.35.35,0,0,1-.25.6Z" fill="#eb9773"/><path d="M18,67.47a.34.34,0,0,1-.35-.35.37.37,0,0,1,.1-.25.37.37,0,0,1,.49,0,.36.36,0,0,1,.11.25.34.34,0,0,1-.35.35Z" fill="#eb9773"/><path d="M16,62.47a.35.35,0,0,1-.25-.6.37.37,0,0,1,.5,0,.35.35,0,0,1-.25.6Z" fill="#eb9773"/><path d="M19.25,58a.34.34,0,0,1-.35-.35.33.33,0,0,1,.11-.25.37.37,0,0,1,.49,0,.36.36,0,0,1,.1.25.34.34,0,0,1-.35.35Z" fill="#eb9773"/><path d="M18.5,56a.34.34,0,0,1-.35-.35.33.33,0,0,1,.11-.25.37.37,0,0,1,.49,0,.36.36,0,0,1,.1.25.34.34,0,0,1-.35.35Z" fill="#eb9773"/><path d="M16,55a.34.34,0,0,1-.35-.35.33.33,0,0,1,.11-.25.37.37,0,0,1,.49,0,.36.36,0,0,1,.1.25A.34.34,0,0,1,16,55Z" fill="#eb9773"/><path d="M19,51.22a.34.34,0,0,1-.35-.35.33.33,0,0,1,.11-.25.37.37,0,0,1,.49,0,.36.36,0,0,1,.1.25.34.34,0,0,1-.35.35Z" fill="#eb9773"/><path d="M18.75,47.22a.35.35,0,0,1-.25-.6.38.38,0,0,1,.5,0,.35.35,0,0,1-.25.6Z" fill="#eb9773"/><path d="M16,47.47a.35.35,0,0,1-.25-.6.37.37,0,0,1,.5,0,.35.35,0,0,1-.25.6Z" fill="#eb9773"/><path d="M32.25,51a.34.34,0,0,1-.35-.35.33.33,0,0,1,.11-.25.35.35,0,0,1,.59.25.34.34,0,0,1-.35.35Z" fill="#eb9773"/><path d="M27,54.47a.35.35,0,0,1-.25-.6.37.37,0,0,1,.5,0,.35.35,0,0,1-.25.6Z" fill="#eb9773"/><path d="M31.75,56a.35.35,0,0,1-.25-.6.37.37,0,0,1,.5,0,.35.35,0,0,1-.25.6Z" fill="#eb9773"/><path d="M31.75,57.72a.35.35,0,0,1-.24-.1.35.35,0,0,1,0-.5.37.37,0,0,1,.5,0,.36.36,0,0,1,.1.25.34.34,0,0,1-.35.35Z" fill="#eb9773"/><path d="M33.75,58.47a.35.35,0,0,1-.25-.6.37.37,0,0,1,.5,0,.35.35,0,0,1-.25.6Z" fill="#eb9773"/><path d="M25.75,65a.35.35,0,0,1-.25-.6.36.36,0,0,1,.6.25.34.34,0,0,1-.35.35Z" fill="#eb9773"/><path d="M35.75,56.47a.35.35,0,0,1-.25-.6.36.36,0,0,1,.6.25.34.34,0,0,1-.35.35Z" fill="#eb9773"/><path d="M39,56.22a.35.35,0,0,1-.24-.1.36.36,0,0,1-.11-.25.39.39,0,0,1,.1-.25.37.37,0,0,1,.5,0,.35.35,0,0,1-.25.6Z" fill="#eb9773"/><path d="M41.5,51a.35.35,0,0,1-.25-.6.37.37,0,0,1,.5,0,.35.35,0,0,1-.25.6Z" fill="#eb9773"/><path d="M43.25,45a.36.36,0,0,1-.25-.11.35.35,0,0,1-.1-.24.39.39,0,0,1,.1-.25.37.37,0,0,1,.5,0,.35.35,0,0,1-.25.6Z" fill="#eb9773"/><path d="M50.75,50.72a.39.39,0,0,1-.25-.1.36.36,0,0,1-.1-.25.39.39,0,0,1,.1-.25.36.36,0,0,1,.5,0,.35.35,0,0,1-.25.6Z" fill="#eb9773"/><path d="M51.75,46.72a.36.36,0,0,1-.25-.11.35.35,0,0,1-.1-.24.33.33,0,0,1,.11-.25.37.37,0,0,1,.49,0,.36.36,0,0,1,.1.25.34.34,0,0,1-.35.35Z" fill="#eb9773"/><path d="M54.75,47.22a.33.33,0,0,1-.25-.11.35.35,0,0,1-.1-.24.37.37,0,0,1,.1-.25.36.36,0,0,1,.49,0,.34.34,0,0,1,.11.25.34.34,0,0,1-.35.35Z" fill="#eb9773"/><path d="M54.75,54.47a.33.33,0,0,1-.25-.11.35.35,0,0,1-.1-.24.33.33,0,0,1,.11-.25.37.37,0,0,1,.49,0,.36.36,0,0,1,.1.25.34.34,0,0,1-.35.35Z" fill="#eb9773"/><path d="M51,56.47a.35.35,0,0,1-.25-.6.37.37,0,0,1,.5,0,.35.35,0,0,1,.1.25.39.39,0,0,1-.1.25A.37.37,0,0,1,51,56.47Z" fill="#eb9773"/><path d="M50.75,64a.34.34,0,0,1-.35-.35.31.31,0,0,1,.1-.24.34.34,0,0,1,.49,0,.36.36,0,0,1,.11.25.39.39,0,0,1-.1.25A.37.37,0,0,1,50.75,64Z" fill="#eb9773"/><path d="M53,64a.34.34,0,0,1-.35-.35.33.33,0,0,1,.11-.25.36.36,0,0,1,.49,0,.31.31,0,0,1,.1.24A.34.34,0,0,1,53,64Z" fill="#eb9773"/><path d="M55.75,63.22a.35.35,0,0,1-.25-.6.36.36,0,0,1,.6.25.34.34,0,0,1-.35.35Z" fill="#eb9773"/><path d="M58,61.72a.36.36,0,0,1-.25-.11.35.35,0,0,1-.1-.24.39.39,0,0,1,.1-.25.37.37,0,0,1,.5,0,.37.37,0,0,1,.1.25.34.34,0,0,1-.35.35Z" fill="#eb9773"/><path d="M20.75,27.22a.35.35,0,0,1-.25-.6.36.36,0,0,1,.6.25.34.34,0,0,1-.35.35Z" fill="#eb9773"/><path d="M22.5,24.22a.35.35,0,0,1-.25-.6.37.37,0,0,1,.5,0,.35.35,0,0,1-.25.6Z" fill="#eb9773"/><path d="M38.75,25a.35.35,0,0,1-.25-.6.37.37,0,0,1,.5,0,.35.35,0,0,1-.25.6Z" fill="#eb9773"/><path d="M46,29.22a.39.39,0,0,1-.25-.1.35.35,0,0,1,0-.49.34.34,0,0,1,.49,0,.36.36,0,0,1,.11.25.34.34,0,0,1-.35.35Z" fill="#eb9773"/><path d="M55,28.22a.35.35,0,0,1-.25-.6.37.37,0,0,1,.5,0,.35.35,0,0,1-.25.6Z" fill="#eb9773"/><path d="M51,25.47a.35.35,0,0,1-.25-.6.37.37,0,0,1,.5,0,.35.35,0,0,1,.1.25.34.34,0,0,1-.35.35Z" fill="#eb9773"/><path d="M51.75,29.72a.37.37,0,0,1-.25-.1.36.36,0,0,1,0-.5.36.36,0,0,1,.6.25.34.34,0,0,1-.35.35Z" fill="#eb9773"/><path d="M62.25,35.72a.34.34,0,0,1-.35-.35.33.33,0,0,1,.11-.25.36.36,0,0,1,.49,0,.31.31,0,0,1,.1.24.34.34,0,0,1-.35.35Z" fill="#eb9773"/><path d="M56.5,39.22a.35.35,0,0,1-.25-.6.36.36,0,0,1,.6.25.34.34,0,0,1-.35.35Z" fill="#eb9773"/><path d="M48,37.47a.35.35,0,0,1-.24-.1.36.36,0,0,1-.11-.25.39.39,0,0,1,.1-.25.36.36,0,0,1,.5,0,.33.33,0,0,1,.1.24.34.34,0,0,1-.35.35Z" fill="#eb9773"/><path d="M47.75,41.47a.33.33,0,0,1-.25-.11.35.35,0,0,1-.1-.24.39.39,0,0,1,.1-.25.38.38,0,0,1,.5,0,.35.35,0,0,1-.25.6Z" fill="#eb9773"/><path d="M53.25,45.22a.34.34,0,0,1-.25-.11.31.31,0,0,1-.1-.24.34.34,0,0,1,.11-.25.37.37,0,0,1,.49,0,.35.35,0,0,1-.25.6Z" fill="#eb9773"/><path d="M62,48.22a.34.34,0,0,1-.35-.35.33.33,0,0,1,.11-.25.36.36,0,0,1,.49,0,.31.31,0,0,1,.1.24.34.34,0,0,1-.35.35Z" fill="#eb9773"/><path d="M64.75,52a.34.34,0,0,1-.35-.35.33.33,0,0,1,.11-.25.37.37,0,0,1,.49,0,.36.36,0,0,1,.1.25.34.34,0,0,1-.35.35Z" fill="#eb9773"/><path d="M69.25,45.22a.35.35,0,0,1-.25-.6.37.37,0,0,1,.5,0,.35.35,0,0,1-.25.6Z" fill="#eb9773"/><path d="M59.75,39.22a.33.33,0,0,1-.25-.11.35.35,0,0,1-.1-.24.34.34,0,0,1,.11-.25.36.36,0,0,1,.49,0,.36.36,0,0,1,0,.5A.37.37,0,0,1,59.75,39.22Z" fill="#eb9773"/><path d="M32.25,47.22a.35.35,0,0,1-.25-.6.36.36,0,0,1,.6.25.34.34,0,0,1-.35.35Z" fill="#eb9773"/><path d="M26,38a.35.35,0,0,1-.25-.6.36.36,0,0,1,.6.25A.34.34,0,0,1,26,38Z" fill="#eb9773"/><path d="M29.5,35.72a.35.35,0,0,1-.24-.1.36.36,0,0,1-.11-.25.33.33,0,0,1,.11-.25.37.37,0,0,1,.49,0,.36.36,0,0,1,.1.25.34.34,0,0,1-.35.35Z" fill="#eb9773"/><path d="M10.25,29.72a.35.35,0,0,1-.25-.6.37.37,0,0,1,.49,0,.33.33,0,0,1,.11.25.34.34,0,0,1-.35.35Z" fill="#eb9773"/><path d="M5.75,31.72a.35.35,0,0,1-.25-.6.36.36,0,0,1,.49,0,.33.33,0,0,1,.11.25.37.37,0,0,1-.1.25A.39.39,0,0,1,5.75,31.72Z" fill="#eb9773"/><path d="M2.25,35.47a.39.39,0,0,1-.25-.1.36.36,0,0,1,0-.5.37.37,0,0,1,.5,0,.35.35,0,0,1,.1.25.33.33,0,0,1-.1.24A.36.36,0,0,1,2.25,35.47Z" fill="#eb9773"/><path d="M16.75,42.22a.34.34,0,0,1-.35-.35.33.33,0,0,1,.11-.25.35.35,0,0,1,.59.25.39.39,0,0,1-.1.25A.37.37,0,0,1,16.75,42.22Z" fill="#eb9773"/><path d="M12.5,36.22a.34.34,0,0,1-.35-.35.33.33,0,0,1,.11-.25.37.37,0,0,1,.49,0,.36.36,0,0,1,.1.25.39.39,0,0,1-.1.25A.37.37,0,0,1,12.5,36.22Z" fill="#eb9773"/><path d="M26.25,30.47a.35.35,0,0,1-.25-.6.37.37,0,0,1,.5,0,.35.35,0,0,1-.25.6Z" fill="#eb9773"/><path d="M39,31a.35.35,0,0,1-.25-.6.37.37,0,0,1,.5,0,.36.36,0,0,1,0,.5A.37.37,0,0,1,39,31Z" fill="#eb9773"/><path d="M38,33a.35.35,0,0,1-.25-.6.37.37,0,0,1,.5,0A.35.35,0,0,1,38,33Z" fill="#eb9773"/><path d="M27.75,42.22a.35.35,0,0,1-.25-.6.37.37,0,0,1,.5,0,.35.35,0,0,1-.25.6Z" fill="#eb9773"/><path d="M6.25,20.72a.35.35,0,0,1-.25-.6.37.37,0,0,1,.5,0,.35.35,0,0,1-.25.6Z" fill="#eb9773"/><path d="M9.5,19a.35.35,0,0,1-.25-.6.36.36,0,0,1,.6.25A.34.34,0,0,1,9.5,19Z" fill="#eb9773"/><path d="M11.5,23.72a.34.34,0,0,1-.35-.35.33.33,0,0,1,.11-.25.37.37,0,0,1,.49,0,.36.36,0,0,1,.1.25.39.39,0,0,1-.1.25A.37.37,0,0,1,11.5,23.72Z" fill="#eb9773"/><path d="M2.75,26a.39.39,0,0,1-.25-.1.36.36,0,0,1,0-.5.38.38,0,0,1,.5,0,.36.36,0,0,1,0,.5A.39.39,0,0,1,2.75,26Z" fill="#eb9773"/><path d="M64,29.72a.35.35,0,0,1-.24-.1.36.36,0,0,1-.11-.25.39.39,0,0,1,.1-.25.36.36,0,0,1,.6.25.34.34,0,0,1-.35.35Z" fill="#eb9773"/><path d="M69.25,30a.34.34,0,0,1-.35-.35.34.34,0,0,1,.11-.25.37.37,0,0,1,.49,0,.36.36,0,0,1,.1.25.39.39,0,0,1-.1.25A.37.37,0,0,1,69.25,30Z" fill="#eb9773"/><path d="M1.25,9.22A.39.39,0,0,1,1,9.12a.36.36,0,0,1,0-.5.38.38,0,0,1,.5,0,.36.36,0,0,1,0,.5A.39.39,0,0,1,1.25,9.22Z" fill="#eb9773"/><path d="M16.25,6.22a.34.34,0,0,1-.35-.35.37.37,0,0,1,.1-.25.38.38,0,0,1,.5,0,.35.35,0,0,1-.25.6Z" fill="#eb9773"/><path d="M3.5,6.22a.35.35,0,0,1-.25-.6.36.36,0,0,1,.6.25.34.34,0,0,1-.35.35Z" fill="#eb9773"/><path d="M12.5,14.47a.35.35,0,0,1-.25-.6.36.36,0,0,1,.6.25.34.34,0,0,1-.35.35Z" fill="#eb9773"/><path d="M18.25,19.47a.34.34,0,0,1-.35-.35.37.37,0,0,1,.1-.25.36.36,0,0,1,.6.25.34.34,0,0,1-.35.35Z" fill="#eb9773"/><path d="M21,37.22a.34.34,0,0,1-.35-.35.37.37,0,0,1,.1-.25.37.37,0,0,1,.49,0,.36.36,0,0,1,.11.25.34.34,0,0,1-.35.35Z" fill="#eb9773"/><path d="M.5,44.47a.39.39,0,0,1-.25-.1.39.39,0,0,1-.1-.25.33.33,0,0,1,.11-.25.37.37,0,0,1,.49,0,.36.36,0,0,1,.1.25.39.39,0,0,1-.1.25A.39.39,0,0,1,.5,44.47Z" fill="#eb9773"/><path d="M67.75,66.22a.34.34,0,0,1-.35-.35.33.33,0,0,1,.11-.25.37.37,0,0,1,.49,0,.36.36,0,0,1,.1.25.34.34,0,0,1-.35.35Z" fill="#eb9773"/><path d="M59.5,70a.39.39,0,0,1-.25-.1.35.35,0,0,1-.1-.25.39.39,0,0,1,.1-.25.37.37,0,0,1,.5,0,.36.36,0,0,1,.1.25.37.37,0,0,1-.1.25A.39.39,0,0,1,59.5,70Z" fill="#eb9773"/><path d="M40.25,68.22a.35.35,0,0,1-.25-.6.37.37,0,0,1,.5,0,.36.36,0,0,1,0,.5A.37.37,0,0,1,40.25,68.22Z" fill="#eb9773"/><path d="M4.25,60.22a.35.35,0,0,1-.25-.6.36.36,0,0,1,.6.25.34.34,0,0,1-.35.35Z" fill="#eb9773"/><path d="M26.25,59.72a.35.35,0,0,1-.25-.6.36.36,0,0,1,.6.25.34.34,0,0,1-.35.35Z" fill="#eb9773"/><path d="M37,48.72a.34.34,0,0,1-.35-.35.37.37,0,0,1,.1-.25.37.37,0,0,1,.5,0,.36.36,0,0,1,0,.5A.37.37,0,0,1,37,48.72Z" fill="#eb9773"/><path d="M8.5,40.47a.35.35,0,0,1-.25-.6.36.36,0,0,1,.6.25.34.34,0,0,1-.35.35Z" fill="#eb9773"/><path d="M52,38.22a.36.36,0,0,1-.25-.11.35.35,0,0,1-.1-.24.33.33,0,0,1,.11-.25.37.37,0,0,1,.49,0,.36.36,0,0,1,.1.25.34.34,0,0,1-.35.35Z" fill="#eb9773"/><path d="M60.5,46.22a.34.34,0,0,1-.35-.35.33.33,0,0,1,.11-.25.37.37,0,0,1,.49,0,.36.36,0,0,1,.1.25.34.34,0,0,1-.35.35Z" fill="#eb9773"/><path d="M51,66.47a.35.35,0,0,1-.25-.6.37.37,0,0,1,.5,0,.39.39,0,0,1,.1.25.35.35,0,0,1-.1.25A.39.39,0,0,1,51,66.47Z" fill="#eb9773"/><path d="M39.75,38a.35.35,0,0,1-.25-.6.36.36,0,0,1,.6.25.34.34,0,0,1-.35.35Z" fill="#eb9773"/><path d="M27.25,13.72a.35.35,0,0,1-.25-.6.36.36,0,0,1,.6.25.34.34,0,0,1-.35.35Z" fill="#eb9773"/><path d="M19.5,26.72a.34.34,0,0,1-.35-.35.37.37,0,0,1,.1-.25.37.37,0,0,1,.49,0,.36.36,0,0,1,.11.25.34.34,0,0,1-.35.35Z" fill="#eb9773"/><path d="M11.5,2a.39.39,0,0,1-.25-.1.39.39,0,0,1-.1-.25.39.39,0,0,1,.1-.25.38.38,0,0,1,.5,0,.39.39,0,0,1,.1.25.39.39,0,0,1-.1.25A.39.39,0,0,1,11.5,2Z" fill="#eb9773"/><path d="M55,4a.34.34,0,0,1-.35-.35.33.33,0,0,1,.11-.25.37.37,0,0,1,.49,0,.36.36,0,0,1,.1.25A.34.34,0,0,1,55,4Z" fill="#eb9773"/><path d="M47,70a.39.39,0,0,1-.25-.1.37.37,0,0,1-.1-.25.39.39,0,0,1,.1-.25.36.36,0,0,1,.6.25A.34.34,0,0,1,47,70Z" fill="#eb9773"/><path d="M4.5,40.47a.34.34,0,0,1-.35-.35.33.33,0,0,1,.11-.25.37.37,0,0,1,.49,0,.36.36,0,0,1,.1.25.34.34,0,0,1-.35.35Z" fill="#eb9773"/><path d="M68.5,13.47a.35.35,0,0,1-.25-.6.37.37,0,0,1,.5,0,.36.36,0,0,1,0,.5A.39.39,0,0,1,68.5,13.47Z" fill="#eb9773"/><path d="M23,14.22a.35.35,0,0,1-.25-.6.36.36,0,0,1,.6.25.34.34,0,0,1-.35.35Z" fill="#eb9773"/><path d="M20.25,17.47a.35.35,0,0,1-.25-.6.37.37,0,0,1,.5,0,.35.35,0,0,1-.25.6Z" fill="#eb9773"/><path d="M14.5,17.47a.34.34,0,0,1-.35-.35.33.33,0,0,1,.11-.25.37.37,0,0,1,.49,0,.36.36,0,0,1,.1.25.34.34,0,0,1-.35.35Z" fill="#eb9773"/><path d="M5.75,12a.35.35,0,0,1-.25-.6.36.36,0,0,1,.49,0,.33.33,0,0,1,.11.25.34.34,0,0,1-.35.35Z" fill="#eb9773"/><path d="M6.75,3a.37.37,0,0,1-.24-.1.36.36,0,0,1-.11-.25.39.39,0,0,1,.1-.25.36.36,0,0,1,.6.25.39.39,0,0,1-.1.25A.39.39,0,0,1,6.75,3Z" fill="#eb9773"/><path d="M9.75,8.47a.35.35,0,0,1-.25-.6.36.36,0,0,1,.6.25.34.34,0,0,1-.35.35Z" fill="#eb9773"/><path d="M14,8.47a.34.34,0,0,1-.35-.35.33.33,0,0,1,.11-.25.37.37,0,0,1,.49,0,.36.36,0,0,1,.1.25.34.34,0,0,1-.35.35Z" fill="#eb9773"/><path d="M25.5,7.22a.35.35,0,0,1-.25-.6.36.36,0,0,1,.6.25.34.34,0,0,1-.35.35Z" fill="#eb9773"/><path d="M36.75,7.72a.35.35,0,0,1-.25-.6.37.37,0,0,1,.5,0,.35.35,0,0,1-.25.6Z" fill="#eb9773"/><path d="M37.25,4.47a.34.34,0,0,1-.35-.35A.33.33,0,0,1,37,3.87a.35.35,0,0,1,.59.25.34.34,0,0,1-.35.35Z" fill="#eb9773"/><path d="M43,2.47a.39.39,0,0,1-.25-.1.39.39,0,0,1-.1-.25.39.39,0,0,1,.1-.25.37.37,0,0,1,.5,0,.39.39,0,0,1,.1.25.39.39,0,0,1-.1.25A.42.42,0,0,1,43,2.47Z" fill="#eb9773"/><path d="M49.25,8.47a.39.39,0,0,1-.25-.1.36.36,0,0,1,0-.5.37.37,0,0,1,.5,0,.35.35,0,0,1-.25.6Z" fill="#eb9773"/><path d="M45.75,9.47a.35.35,0,0,1-.25-.6.37.37,0,0,1,.5,0,.36.36,0,0,1,0,.5A.37.37,0,0,1,45.75,9.47Z" fill="#eb9773"/><path d="M35.5,11.22a.34.34,0,0,1-.35-.35.37.37,0,0,1,.1-.25.36.36,0,0,1,.6.25.34.34,0,0,1-.35.35Z" fill="#eb9773"/><path d="M39,15.22a.35.35,0,0,1-.25-.6.36.36,0,0,1,.6.25.34.34,0,0,1-.35.35Z" fill="#eb9773"/><path d="M24.5,18.22a.35.35,0,0,1-.25-.6.36.36,0,0,1,.6.25.34.34,0,0,1-.35.35Z" fill="#eb9773"/><path d="M8,27.47a.35.35,0,0,1-.25-.6.36.36,0,0,1,.6.25.34.34,0,0,1-.35.35Z" fill="#eb9773"/><path d="M15.75,32a.35.35,0,0,1-.25-.6.38.38,0,0,1,.5,0,.35.35,0,0,1-.25.6Z" fill="#eb9773"/><path d="M10.25,33.72a.34.34,0,0,1-.35-.35.33.33,0,0,1,.11-.25.37.37,0,0,1,.49,0,.36.36,0,0,1,.1.25.37.37,0,0,1-.1.25A.39.39,0,0,1,10.25,33.72Z" fill="#eb9773"/><path d="M5,37.22a.35.35,0,0,1-.25-.6.38.38,0,0,1,.5,0,.37.37,0,0,1,.1.25.34.34,0,0,1-.35.35Z" fill="#eb9773"/><path d="M3,20.72a.39.39,0,0,1-.25-.1.36.36,0,0,1,0-.5.38.38,0,0,1,.5,0,.36.36,0,0,1,0,.5A.39.39,0,0,1,3,20.72Z" fill="#eb9773"/><path d="M20.25,31a.34.34,0,0,1-.35-.35.33.33,0,0,1,.11-.25.35.35,0,0,1,.59.25.34.34,0,0,1-.35.35Z" fill="#eb9773"/><path d="M17.25,35.72a.35.35,0,0,1-.25-.6.37.37,0,0,1,.5,0,.35.35,0,0,1-.25.6Z" fill="#eb9773"/><path d="M15.75,39.22a.34.34,0,0,1-.35-.35.33.33,0,0,1,.11-.25.37.37,0,0,1,.49,0,.36.36,0,0,1,.1.25.39.39,0,0,1-.1.25A.37.37,0,0,1,15.75,39.22Z" fill="#eb9773"/><path d="M12.5,41.47a.34.34,0,0,1-.35-.35.33.33,0,0,1,.11-.25.37.37,0,0,1,.49,0,.36.36,0,0,1,.1.25.34.34,0,0,1-.35.35Z" fill="#eb9773"/><path d="M12.5,46.72a.34.34,0,0,1-.35-.35.33.33,0,0,1,.11-.25.37.37,0,0,1,.49,0,.36.36,0,0,1,.1.25.34.34,0,0,1-.35.35Z" fill="#eb9773"/><path d="M5.5,48.72a.35.35,0,0,1-.25-.6.38.38,0,0,1,.5,0,.35.35,0,0,1-.25.6Z" fill="#eb9773"/><path d="M10.75,54.72a.35.35,0,0,1-.25-.6.38.38,0,0,1,.5,0,.35.35,0,0,1-.25.6Z" fill="#eb9773"/><path d="M15.25,58.72a.35.35,0,0,1-.25-.6.37.37,0,0,1,.5,0,.35.35,0,0,1-.25.6Z" fill="#eb9773"/><path d="M5.75,63.72a.35.35,0,0,1-.25-.6.38.38,0,0,1,.5,0,.36.36,0,0,1,.1.25.34.34,0,0,1-.35.35Z" fill="#eb9773"/><path d="M2,62.22a.39.39,0,0,1-.25-.1.36.36,0,0,1,0-.5.37.37,0,0,1,.49,0,.34.34,0,0,1,.11.25.39.39,0,0,1-.1.25A.39.39,0,0,1,2,62.22Z" fill="#eb9773"/><path d="M8.75,68.22a.35.35,0,0,1-.25-.6.36.36,0,0,1,.6.25.39.39,0,0,1-.1.25A.37.37,0,0,1,8.75,68.22Z" fill="#eb9773"/><path d="M13.25,69.72a.35.35,0,0,1-.25-.6.38.38,0,0,1,.5,0,.35.35,0,0,1-.25.6Z" fill="#eb9773"/><path d="M21.25,68.72a.34.34,0,0,1-.35-.35.33.33,0,0,1,.11-.25.35.35,0,0,1,.59.25.34.34,0,0,1-.35.35Z" fill="#eb9773"/><path d="M22.75,66a.35.35,0,0,1-.25-.6.37.37,0,0,1,.5,0,.36.36,0,0,1,0,.5A.37.37,0,0,1,22.75,66Z" fill="#eb9773"/><path d="M22,60.22a.35.35,0,0,1-.25-.6.38.38,0,0,1,.5,0,.36.36,0,0,1,0,.5A.37.37,0,0,1,22,60.22Z" fill="#eb9773"/><path d="M24,57.72a.34.34,0,0,1-.35-.35.37.37,0,0,1,.1-.25.38.38,0,0,1,.5,0,.37.37,0,0,1,.1.25.39.39,0,0,1-.1.25A.37.37,0,0,1,24,57.72Z" fill="#eb9773"/><path d="M26,48a.35.35,0,0,1-.25-.6.37.37,0,0,1,.5,0A.35.35,0,0,1,26,48Z" fill="#eb9773"/><path d="M25.5,43.72a.35.35,0,0,1-.25-.6.37.37,0,0,1,.5,0,.35.35,0,0,1-.25.6Z" fill="#eb9773"/><path d="M32,31.22a.34.34,0,0,1-.35-.35.33.33,0,0,1,.11-.25.35.35,0,0,1,.59.25.34.34,0,0,1-.35.35Z" fill="#eb9773"/><path d="M34,28a.34.34,0,0,1-.35-.35.35.35,0,0,1,.1-.25.37.37,0,0,1,.5,0,.36.36,0,0,1,0,.5A.37.37,0,0,1,34,28Z" fill="#eb9773"/><path d="M41.5,26a.35.35,0,0,1-.25-.6.37.37,0,0,1,.5,0,.35.35,0,0,1-.25.6Z" fill="#eb9773"/><path d="M42.75,21a.36.36,0,0,1-.25-.11.33.33,0,0,1-.1-.24.39.39,0,0,1,.1-.25.37.37,0,0,1,.5,0,.39.39,0,0,1,.1.25.34.34,0,0,1-.11.25A.35.35,0,0,1,42.75,21Z" fill="#eb9773"/><path d="M36.25,19.47a.39.39,0,0,1-.25-.1.36.36,0,0,1-.1-.25.31.31,0,0,1,.1-.24.35.35,0,0,1,.5,0,.35.35,0,0,1-.25.6Z" fill="#eb9773"/><path d="M27.5,22.47a.35.35,0,0,1-.25-.6.37.37,0,0,1,.5,0,.35.35,0,0,1-.25.6Z" fill="#eb9773"/><path d="M51.75,22.22a.33.33,0,0,1-.25-.11.35.35,0,0,1-.1-.24.39.39,0,0,1,.1-.25.36.36,0,0,1,.6.25.39.39,0,0,1-.1.25A.37.37,0,0,1,51.75,22.22Z" fill="#eb9773"/><path d="M43,18a.37.37,0,0,1-.25-.1.36.36,0,0,1,0-.5.38.38,0,0,1,.5,0A.35.35,0,0,1,43,18Z" fill="#eb9773"/><path d="M50.25,18.22a.37.37,0,0,1-.25-.1.36.36,0,0,1,0-.5.36.36,0,0,1,.6.25.34.34,0,0,1-.35.35Z" fill="#eb9773"/><path d="M59.25,17.47a.34.34,0,0,1-.35-.35.33.33,0,0,1,.11-.25.37.37,0,0,1,.49,0,.36.36,0,0,1,.1.25.34.34,0,0,1-.35.35Z" fill="#eb9773"/><path d="M58,14.22a.37.37,0,0,1-.25-.1.36.36,0,0,1,0-.5.36.36,0,0,1,.6.25.34.34,0,0,1-.35.35Z" fill="#eb9773"/><path d="M61.25,11.22a.34.34,0,0,1-.35-.35.33.33,0,0,1,.11-.25.36.36,0,0,1,.49,0,.31.31,0,0,1,.1.24.34.34,0,0,1-.35.35Z" fill="#eb9773"/><path d="M58.5,7.72a.39.39,0,0,1-.25-.1.35.35,0,0,1-.1-.25.31.31,0,0,1,.1-.24.35.35,0,0,1,.6.24.34.34,0,0,1-.35.35Z" fill="#eb9773"/><path d="M59.75,5a.34.34,0,0,1-.25-.11.35.35,0,0,1-.1-.24.33.33,0,0,1,.11-.25.37.37,0,0,1,.49,0,.36.36,0,0,1,.1.25.34.34,0,0,1-.35.35Z" fill="#eb9773"/><path d="M67.25,6.22a.39.39,0,0,1-.25-.1.36.36,0,0,1-.1-.25.37.37,0,0,1,.1-.25.38.38,0,0,1,.5,0,.35.35,0,0,1-.25.6Z" fill="#eb9773"/><path d="M70.5,8.72a.39.39,0,0,1-.25-.1.36.36,0,0,1-.1-.25.37.37,0,0,1,.1-.25.37.37,0,0,1,.49,0,.36.36,0,0,1,.11.25.34.34,0,0,1-.35.35Z" fill="#eb9773"/><path d="M65.5,10a.34.34,0,0,1-.35-.35.37.37,0,0,1,.1-.25.38.38,0,0,1,.5,0,.35.35,0,0,1-.25.6Z" fill="#eb9773"/><path d="M60,24a.35.35,0,0,1-.25-.6.37.37,0,0,1,.5,0A.35.35,0,0,1,60,24Z" fill="#eb9773"/><path d="M55.25,24a.35.35,0,0,1-.25-.6.38.38,0,0,1,.5,0,.35.35,0,0,1-.25.6Z" fill="#eb9773"/><path d="M55.25,19a.34.34,0,0,1-.25-.11.35.35,0,0,1-.1-.24.33.33,0,0,1,.11-.25.37.37,0,0,1,.49,0,.36.36,0,0,1,.1.25.34.34,0,0,1-.35.35Z" fill="#eb9773"/><path d="M64.75,26a.34.34,0,0,1-.35-.35.33.33,0,0,1,.11-.25.37.37,0,0,1,.49,0,.36.36,0,0,1,.1.25.34.34,0,0,1-.35.35Z" fill="#eb9773"/><path d="M57.5,31a.33.33,0,0,1-.25-.11.35.35,0,0,1-.1-.24.33.33,0,0,1,.11-.25.37.37,0,0,1,.49,0,.36.36,0,0,1,.1.25.34.34,0,0,1-.35.35Z" fill="#eb9773"/><path d="M52.5,33a.36.36,0,0,1-.25-.11.35.35,0,0,1-.1-.24.33.33,0,0,1,.11-.25.37.37,0,0,1,.49,0,.36.36,0,0,1,.1.25.34.34,0,0,1-.35.35Z" fill="#eb9773"/><path d="M47.25,34a.36.36,0,0,1-.25-.11.35.35,0,0,1-.1-.24.33.33,0,0,1,.11-.25.37.37,0,0,1,.49,0,.36.36,0,0,1,.1.25.34.34,0,0,1-.35.35Z" fill="#eb9773"/><path d="M44,39.47a.36.36,0,0,1-.25-.11.35.35,0,0,1-.1-.24.39.39,0,0,1,.1-.25.37.37,0,0,1,.5,0,.37.37,0,0,1,.1.25.33.33,0,0,1-.11.25A.35.35,0,0,1,44,39.47Z" fill="#eb9773"/><path d="M33.75,41.72a.35.35,0,0,1-.25-.6.37.37,0,0,1,.5,0,.35.35,0,0,1-.25.6Z" fill="#eb9773"/><path d="M40.5,48.22a.35.35,0,0,1-.25-.6.36.36,0,0,1,.49,0,.34.34,0,0,1,.11.25.34.34,0,0,1-.35.35Z" fill="#eb9773"/><path d="M45.5,52.47a.34.34,0,0,1-.35-.35.33.33,0,0,1,.11-.25.35.35,0,0,1,.59.25.34.34,0,0,1-.35.35Z" fill="#eb9773"/><path d="M46.25,57a.35.35,0,0,1-.25-.6.35.35,0,0,1,.49,0,.36.36,0,0,1,.11.25.34.34,0,0,1-.35.35Z" fill="#eb9773"/><path d="M41.75,59.72a.35.35,0,0,1-.24-.1.36.36,0,0,1-.11-.25.39.39,0,0,1,.1-.25.37.37,0,0,1,.5,0,.35.35,0,0,1-.25.6Z" fill="#eb9773"/><path d="M39.75,63a.35.35,0,0,1-.25-.6.37.37,0,0,1,.5,0,.36.36,0,0,1,0,.5A.37.37,0,0,1,39.75,63Z" fill="#eb9773"/><path d="M35.75,63a.34.34,0,0,1-.35-.35.33.33,0,0,1,.11-.25.35.35,0,0,1,.59.25.34.34,0,0,1-.35.35Z" fill="#eb9773"/><path d="M36.25,53a.39.39,0,0,1-.25-.1.35.35,0,0,1-.1-.25.39.39,0,0,1,.1-.25.36.36,0,0,1,.5,0,.31.31,0,0,1,.1.24.34.34,0,0,1-.35.35Z" fill="#eb9773"/><path d="M29.75,63.72a.35.35,0,0,1-.24-.1.36.36,0,0,1-.11-.25.33.33,0,0,1,.11-.25.37.37,0,0,1,.49,0,.36.36,0,0,1,.1.25.34.34,0,0,1-.35.35Z" fill="#eb9773"/><path d="M31.25,68.72a.35.35,0,0,1-.25-.6.37.37,0,0,1,.5,0,.35.35,0,0,1-.25.6Z" fill="#eb9773"/><path d="M36.75,71.22a.39.39,0,0,1-.25-.1.37.37,0,0,1-.1-.25.33.33,0,0,1,.11-.25.37.37,0,0,1,.49,0,.36.36,0,0,1,.1.25.37.37,0,0,1-.1.25A.39.39,0,0,1,36.75,71.22Z" fill="#eb9773"/><path d="M62.75,57.22a.34.34,0,0,1-.35-.35.33.33,0,0,1,.11-.25.37.37,0,0,1,.49,0,.36.36,0,0,1,.1.25.34.34,0,0,1-.35.35Z" fill="#eb9773"/><path d="M59.75,51a.33.33,0,0,1-.25-.11.35.35,0,0,1-.1-.24.35.35,0,0,1,.59-.25.36.36,0,0,1,.11.25.39.39,0,0,1-.1.25A.37.37,0,0,1,59.75,51Z" fill="#eb9773"/><path d="M54.25,50.72a.39.39,0,0,1-.25-.1.37.37,0,0,1-.1-.25.35.35,0,0,1,.7,0,.35.35,0,0,1-.1.24A.34.34,0,0,1,54.25,50.72Z" fill="#eb9773"/><path d="M54.5,42a.36.36,0,0,1-.25-.11.33.33,0,0,1-.1-.24.39.39,0,0,1,.1-.25.37.37,0,0,1,.5,0,.39.39,0,0,1,.1.25.34.34,0,0,1-.11.25A.35.35,0,0,1,54.5,42Z" fill="#eb9773"/><path d="M62.25,42.47a.35.35,0,0,1-.25-.6.37.37,0,0,1,.5,0,.35.35,0,0,1-.25.6Z" fill="#eb9773"/><path d="M66.75,47.72a.35.35,0,0,1-.24-.1.36.36,0,0,1-.11-.25.39.39,0,0,1,.1-.25.36.36,0,0,1,.49,0,.32.32,0,0,1,.11.25.34.34,0,0,1-.35.35Z" fill="#eb9773"/><path d="M69.25,54.47a.35.35,0,0,1-.24-.1.36.36,0,0,1-.11-.25.39.39,0,0,1,.1-.25.36.36,0,0,1,.6.25.34.34,0,0,1-.35.35Z" fill="#eb9773"/><path d="M63.25,62a.35.35,0,0,1-.24-.1.36.36,0,0,1-.11-.25.39.39,0,0,1,.1-.25.36.36,0,0,1,.49,0,.32.32,0,0,1,.11.25.34.34,0,0,1-.35.35Z" fill="#eb9773"/><path d="M70,61.22a.34.34,0,0,1-.35-.35.33.33,0,0,1,.11-.25.37.37,0,0,1,.49,0,.36.36,0,0,1,.1.25.34.34,0,0,1-.35.35Z" fill="#eb9773"/><path d="M64.5,65.72a.35.35,0,0,1-.25-.6.36.36,0,0,1,.5,0,.35.35,0,0,1,.1.24.34.34,0,0,1-.35.35Z" fill="#eb9773"/><path d="M65.5,68.47a.35.35,0,0,1-.25-.6.37.37,0,0,1,.5,0,.35.35,0,0,1-.25.6Z" fill="#eb9773"/><path d="M62.25,70.47a.34.34,0,0,1-.35-.35.34.34,0,0,1,.11-.25.36.36,0,0,1,.49,0,.31.31,0,0,1,.1.24.34.34,0,0,1-.35.35Z" fill="#eb9773"/><path d="M52.5,70a.36.36,0,0,1-.25-.1.36.36,0,0,1,0-.5.36.36,0,0,1,.6.25.39.39,0,0,1-.1.25A.37.37,0,0,1,52.5,70Z" fill="#eb9773"/><path d="M44.5,66.72a.34.34,0,0,1-.25-.11.35.35,0,0,1-.1-.24.33.33,0,0,1,.11-.25.37.37,0,0,1,.49,0,.36.36,0,0,1,.1.25.34.34,0,0,1-.35.35Z" fill="#eb9773"/><path d="M28.25,71.47a.39.39,0,0,1-.25-.1.36.36,0,0,1-.1-.25.33.33,0,0,1,.11-.25.35.35,0,0,1,.59.25.33.33,0,0,1-.11.25A.35.35,0,0,1,28.25,71.47Z" fill="#eb9773"/><path d="M2.75,29.72a.39.39,0,0,1-.25-.1.36.36,0,0,1,0-.5.38.38,0,0,1,.5,0,.36.36,0,0,1,0,.5A.39.39,0,0,1,2.75,29.72Z" fill="#eb9773"/><path d="M13,5.22a.36.36,0,0,1-.25-.11.31.31,0,0,1-.1-.24.37.37,0,0,1,.1-.25.36.36,0,0,1,.6.25.33.33,0,0,1-.11.25A.35.35,0,0,1,13,5.22Z" fill="#eb9773"/><path d="M70,34.72a.34.34,0,0,1-.35-.35.33.33,0,0,1,.11-.25.37.37,0,0,1,.49,0,.36.36,0,0,1,.1.25.34.34,0,0,1-.35.35Z" fill="#eb9773"/><path d="M71,41.47a.35.35,0,0,1-.25-.6.37.37,0,0,1,.5,0,.35.35,0,0,1-.25.6Z" fill="#eb9773"/><path d="M.75,52a.39.39,0,0,1-.25-.1.39.39,0,0,1-.1-.25.33.33,0,0,1,.11-.25.37.37,0,0,1,.49,0,.36.36,0,0,1,.1.25.39.39,0,0,1-.1.25A.39.39,0,0,1,.75,52Z" fill="#eb9773"/><path d="M71.75,23.72a.35.35,0,0,1-.25-.6.38.38,0,0,1,.5,0,.35.35,0,0,1-.25.6Z" fill="#eb9773"/><path d="M68.75,26.72a.35.35,0,0,1-.25-.6.37.37,0,0,1,.5,0,.39.39,0,0,1,.1.25.35.35,0,0,1-.1.25A.39.39,0,0,1,68.75,26.72Z" fill="#eb9773"/><path d="M68.25,60.47a.34.34,0,0,1-.35-.35.37.37,0,0,1,.1-.25.38.38,0,0,1,.5,0,.35.35,0,0,1-.25.6Z" fill="#eb9773"/><path d="M71.25,68.47a.35.35,0,0,1-.25-.6.37.37,0,0,1,.5,0,.39.39,0,0,1,.1.25.35.35,0,0,1-.1.25A.39.39,0,0,1,71.25,68.47Z" fill="#eb9773"/><path d="M.25,58a.39.39,0,0,1-.25-.1.36.36,0,0,1,0-.5.38.38,0,0,1,.5,0,.36.36,0,0,1,0,.5A.39.39,0,0,1,.25,58Z" fill="#eb9773"/><path d="M2.5,71.47a.39.39,0,0,1-.25-.1.36.36,0,0,1,0-.5.36.36,0,0,1,.6.25.39.39,0,0,1-.1.25A.39.39,0,0,1,2.5,71.47Z" fill="#eb9773"/><path d="M70,24.22a.34.34,0,0,1-.35-.35.33.33,0,0,1,.11-.25.37.37,0,0,1,.49,0,.36.36,0,0,1,.1.25.34.34,0,0,1-.35.35Z" fill="#eb9773"/><path d="M1,17a.39.39,0,0,1-.25-.1.36.36,0,0,1,0-.5.38.38,0,0,1,.5,0,.36.36,0,0,1,0,.5A.39.39,0,0,1,1,17Z" fill="#eb9773"/><path d="M17.75,13.27a.65.65,0,0,1-.65-.65.66.66,0,0,1,.19-.46.68.68,0,0,1,.92,0,.65.65,0,0,1-.46,1.11Z" fill="#eb9773"/><path d="M29,11.27a.66.66,0,0,1-.46-.19.68.68,0,0,1-.19-.46.66.66,0,0,1,.19-.46.67.67,0,0,1,.92,0,.66.66,0,0,1,.19.46.65.65,0,0,1-.65.65Z" fill="#eb9773"/><path d="M29,3.77a.65.65,0,0,1-.65-.65.64.64,0,0,1,.19-.46.68.68,0,0,1,.92,0,.65.65,0,0,1,0,.92A.68.68,0,0,1,29,3.77Z" fill="#eb9773"/><path d="M40,10.77a.65.65,0,0,1-.65-.65.66.66,0,0,1,.19-.46.68.68,0,0,1,.92,0,.63.63,0,0,1,.19.46.68.68,0,0,1-.19.46A.66.66,0,0,1,40,10.77Z" fill="#eb9773"/><path d="M44.75,12.27a.61.61,0,0,1-.46-.2.64.64,0,0,1-.19-.45.66.66,0,0,1,.19-.46.68.68,0,0,1,.92,0,.63.63,0,0,1,.19.46.61.61,0,0,1-.2.46A.6.6,0,0,1,44.75,12.27Z" fill="#eb9773"/><path d="M47,23.27a.65.65,0,0,1-.46-1.11.68.68,0,0,1,.92,0A.65.65,0,0,1,47,23.27Z" fill="#eb9773"/><path d="M54.5,7.27A.64.64,0,0,1,54,7.08a.65.65,0,0,1,0-.92.68.68,0,0,1,.92,0,.64.64,0,0,1,.19.46.66.66,0,0,1-.19.46A.64.64,0,0,1,54.5,7.27Z" fill="#eb9773"/><path d="M63.75,7a.65.65,0,0,1-.46-1.11.68.68,0,0,1,.92,0A.65.65,0,0,1,63.75,7Z" fill="#eb9773"/><path d="M64.75,3a.66.66,0,0,1-.46-.19.68.68,0,0,1-.19-.46.66.66,0,0,1,.19-.46.68.68,0,0,1,.92,0,.68.68,0,0,1,.19.46.63.63,0,0,1-.18.45A.67.67,0,0,1,64.75,3Z" fill="#eb9773"/><path d="M69.25,18.52a.65.65,0,0,1-.46-1.11.67.67,0,0,1,.92,0,.65.65,0,0,1-.46,1.11Z" fill="#eb9773"/><path d="M7.75,47.52a.64.64,0,0,1-.46-.19.68.68,0,0,1-.19-.46.66.66,0,0,1,.19-.46.68.68,0,0,1,.92,0,.66.66,0,0,1,.19.46.68.68,0,0,1-.19.46A.64.64,0,0,1,7.75,47.52Z" fill="#eb9773"/><path d="M4.75,57.27a.64.64,0,0,1-.46-.19.65.65,0,0,1,0-.92.67.67,0,0,1,.92,0,.65.65,0,0,1,0,.92A.64.64,0,0,1,4.75,57.27Z" fill="#eb9773"/><path d="M2,67.52a.66.66,0,0,1-.46-.19.68.68,0,0,1-.19-.46.66.66,0,0,1,.19-.46.68.68,0,0,1,.92,0,.66.66,0,0,1,.19.46.68.68,0,0,1-.19.46A.66.66,0,0,1,2,67.52Z" fill="#eb9773"/><path d="M17.5,70.27a.66.66,0,0,1-.46-.19.68.68,0,0,1-.19-.46.66.66,0,0,1,.19-.46.68.68,0,0,1,.92,0,.66.66,0,0,1,.19.46.68.68,0,0,1-.19.46A.66.66,0,0,1,17.5,70.27Z" fill="#eb9773"/><path d="M19,62.77a.65.65,0,0,1-.65-.65.64.64,0,0,1,.19-.46.67.67,0,0,1,.92,0,.66.66,0,0,1,.19.46.68.68,0,0,1-.19.46A.66.66,0,0,1,19,62.77Z" fill="#eb9773"/><path d="M20.75,45.77a.65.65,0,0,1-.65-.65.64.64,0,0,1,.19-.46.67.67,0,0,1,.92,0,.66.66,0,0,1,.19.46.68.68,0,0,1-.19.46A.64.64,0,0,1,20.75,45.77Z" fill="#eb9773"/><path d="M28.25,51.52a.65.65,0,0,1-.46-1.11.67.67,0,0,1,.92,0,.66.66,0,0,1,.19.46.68.68,0,0,1-.19.46A.64.64,0,0,1,28.25,51.52Z" fill="#eb9773"/><path d="M33.75,60.77a.65.65,0,0,1-.65-.65.64.64,0,0,1,.19-.46.68.68,0,0,1,.92,0,.63.63,0,0,1,.19.46.64.64,0,0,1-.19.46A.66.66,0,0,1,33.75,60.77Z" fill="#eb9773"/><path d="M34,67.27a.64.64,0,0,1-.46-.19.65.65,0,0,1,0-.92.67.67,0,0,1,.92,0,.65.65,0,0,1,0,.92A.66.66,0,0,1,34,67.27Z" fill="#eb9773"/><path d="M41.5,55.52A.65.65,0,0,1,41,54.41a.68.68,0,0,1,.92,0,.65.65,0,0,1-.46,1.11Z" fill="#eb9773"/><path d="M52,60.27a.65.65,0,0,1-.46-1.11.68.68,0,0,1,.92,0A.65.65,0,0,1,52,60.27Z" fill="#eb9773"/><path d="M54.75,65.77a.66.66,0,0,1-.46-.19.68.68,0,0,1-.19-.46.64.64,0,0,1,.19-.46.68.68,0,0,1,.92,0,.64.64,0,0,1,.19.46.68.68,0,0,1-.19.46A.66.66,0,0,1,54.75,65.77Z" fill="#eb9773"/><path d="M25,25a.66.66,0,0,1-.46-.19.68.68,0,0,1-.19-.46.66.66,0,0,1,.19-.46.68.68,0,0,1,.92,0,.66.66,0,0,1,.19.46.68.68,0,0,1-.19.46A.66.66,0,0,1,25,25Z" fill="#eb9773"/><path d="M35,23.77a.64.64,0,0,1-.46-.19.65.65,0,0,1,0-.92.68.68,0,0,1,.92,0A.65.65,0,0,1,35,23.77Z" fill="#eb9773"/><path d="M44.75,30a.65.65,0,0,1-.46-1.11.68.68,0,0,1,.92,0,.63.63,0,0,1,.19.46.61.61,0,0,1-.2.46A.62.62,0,0,1,44.75,30Z" fill="#eb9773"/><path d="M51.75,43.52a.65.65,0,0,1-.46-1.11.67.67,0,0,1,.92,0,.64.64,0,0,1,.19.46.65.65,0,0,1-.65.65Z" fill="#eb9773"/><path d="M66.75,52.27a.65.65,0,0,1-.65-.65.61.61,0,0,1,.2-.46.68.68,0,0,1,.91,0,.65.65,0,0,1-.46,1.11Z" fill="#eb9773"/><path d="M47,48.27a.65.65,0,0,1-.46-1.11.68.68,0,0,1,.92,0A.65.65,0,0,1,47,48.27Z" fill="#eb9773"/><path d="M36.75,45a.66.66,0,0,1-.46-.19.68.68,0,0,1-.19-.46.66.66,0,0,1,.19-.46.68.68,0,0,1,.92,0,.66.66,0,0,1,.19.46.68.68,0,0,1-.19.46A.66.66,0,0,1,36.75,45Z" fill="#eb9773"/><path d="M16.75,29a.65.65,0,0,1-.46-1.11.68.68,0,0,1,.92,0,.65.65,0,0,1,0,.92A.64.64,0,0,1,16.75,29Z" fill="#eb9773"/><path d="M11,37.27a.65.65,0,0,1-.65-.65.64.64,0,0,1,.19-.46.67.67,0,0,1,.92,0A.65.65,0,0,1,11,37.27Z" fill="#eb9773"/><path d="M67.25,31.27a.66.66,0,0,1-.46-.19.68.68,0,0,1-.19-.46.66.66,0,0,1,.19-.46.68.68,0,0,1,.92,0,.64.64,0,0,1,.19.46.65.65,0,0,1-.65.65Z" fill="#eb9773"/><path d="M7,16.27a.61.61,0,0,1-.46-.2.62.62,0,0,1-.19-.45.66.66,0,0,1,.19-.46.67.67,0,0,1,.92,0,.65.65,0,0,1,0,.92A.64.64,0,0,1,7,16.27Z" fill="#eb9773"/><path d="M8.25,5.77a.68.68,0,0,1-.46-.19.66.66,0,0,1-.19-.46.64.64,0,0,1,.19-.46.67.67,0,0,1,.92,0,.64.64,0,0,1,.19.46.65.65,0,0,1-.65.65Z" fill="#eb9773"/><path d="M3.25,3a.66.66,0,0,1-.46-.19.68.68,0,0,1-.19-.46.66.66,0,0,1,.19-.46.68.68,0,0,1,.92,0,.66.66,0,0,1,.19.46.68.68,0,0,1-.19.46A.66.66,0,0,1,3.25,3Z" fill="#eb9773"/><path d="M66.25,37.77a.65.65,0,0,1-.46-1.11.68.68,0,0,1,.92,0,.64.64,0,0,1,.19.46.66.66,0,0,1-.19.46A.64.64,0,0,1,66.25,37.77Z" fill="#eb9773"/><path d="M43.75,63.52a.66.66,0,0,1-.46-.19.68.68,0,0,1-.19-.46.66.66,0,0,1,.19-.46.67.67,0,0,1,.92,0,.66.66,0,0,1,.19.46.68.68,0,0,1-.19.46A.66.66,0,0,1,43.75,63.52Z" fill="#eb9773"/><path d="M25.5,70.52a.66.66,0,0,1-.46-.19.68.68,0,0,1-.19-.46.66.66,0,0,1,.19-.46.67.67,0,0,1,.92,0,.66.66,0,0,1,.19.46.68.68,0,0,1-.19.46A.66.66,0,0,1,25.5,70.52Z" fill="#eb9773"/><path d="M21.75,42.27a.66.66,0,0,1-.46-.19.65.65,0,0,1,0-.92.68.68,0,0,1,.92,0,.65.65,0,0,1-.46,1.11Z" fill="#eb9773"/><path d="M23.75,29.52a.66.66,0,0,1-.46-.19.68.68,0,0,1-.19-.46.66.66,0,0,1,.19-.46.67.67,0,0,1,.92,0,.64.64,0,0,1,.19.46.65.65,0,0,1-.65.65Z" fill="#eb9773"/><path d="M41.25,35a.65.65,0,0,1-.46-1.11.68.68,0,0,1,.92,0,.66.66,0,0,1,.19.46.68.68,0,0,1-.19.46A.66.66,0,0,1,41.25,35Z" fill="#eb9773"/><path d="M67.25,44.27a.66.66,0,0,1-.46-.19.68.68,0,0,1-.19-.46.66.66,0,0,1,.19-.46.68.68,0,0,1,.92,0,.64.64,0,0,1,.19.46.65.65,0,0,1-.65.65Z" fill="#eb9773"/><path d="M53,15.52a.65.65,0,0,1-.46-1.11.68.68,0,0,1,.92,0,.66.66,0,0,1,.19.46.68.68,0,0,1-.19.46A.66.66,0,0,1,53,15.52Z" fill="#eb9773"/><path d="M33.75,16.52a.66.66,0,0,1-.46-.19.68.68,0,0,1-.19-.46.64.64,0,0,1,.19-.46.68.68,0,0,1,.92,0,.64.64,0,0,1,.19.46.65.65,0,0,1-.65.65Z" fill="#eb9773"/><path d="M12.5,19.77A.65.65,0,0,1,12,18.66a.67.67,0,0,1,.92,0,.65.65,0,0,1-.46,1.11Z" fill="#eb9773"/><path d="M49.25,5a.65.65,0,0,1-.46-1.11.68.68,0,0,1,.92,0A.65.65,0,0,1,49.25,5Z" fill="#eb9773"/><path d="M58.75,21.27a.65.65,0,0,1-.46-1.11.68.68,0,0,1,.92,0,.64.64,0,0,1,.19.46.65.65,0,0,1-.65.65Z" fill="#eb9773"/><path d="M67.25,57.77a.66.66,0,0,1-.46-.19.68.68,0,0,1-.19-.46.66.66,0,0,1,.19-.46.68.68,0,0,1,.92,0,.64.64,0,0,1,.19.46.65.65,0,0,1-.65.65Z" fill="#eb9773"/><path d="M5,70.27a.64.64,0,0,1-.46-.19.65.65,0,0,1,0-.92.67.67,0,0,1,.92,0,.65.65,0,0,1,0,.92A.64.64,0,0,1,5,70.27Z" fill="#eb9773"/><path d="M2.5,13.77a.61.61,0,0,1-.46-.2.62.62,0,0,1-.19-.45A.66.66,0,0,1,2,12.66a.67.67,0,0,1,.92,0,.65.65,0,0,1,0,.92A.64.64,0,0,1,2.5,13.77Z" fill="#eb9773"/><path d="M16.25,3.77a.65.65,0,0,1-.46-1.11.68.68,0,0,1,.92,0,.65.65,0,0,1-.46,1.11Z" fill="#eb9773"/><path d="M40.25,5a.65.65,0,0,1-.46-1.11.68.68,0,0,1,.92,0,.64.64,0,0,1,.19.46.65.65,0,0,1-.65.65Z" fill="#eb9773"/><path d="M2.5,32.52A.64.64,0,0,1,2,32.33a.65.65,0,0,1,0-.92.68.68,0,0,1,.92,0,.65.65,0,0,1-.46,1.11Z" fill="#eb9773"/><path d="M7.25,25.52a.64.64,0,0,1-.46-.19.65.65,0,0,1,0-.92.68.68,0,0,1,.92,0,.64.64,0,0,1,.19.46.66.66,0,0,1-.19.46A.64.64,0,0,1,7.25,25.52Z" fill="#eb9773"/><path d="M3.75,47.27a.66.66,0,0,1-.46-.19.68.68,0,0,1-.19-.46.66.66,0,0,1,.19-.46.67.67,0,0,1,.92,0,.66.66,0,0,1,.19.46.68.68,0,0,1-.19.46A.64.64,0,0,1,3.75,47.27Z" fill="#eb9773"/><path d="M10.75,51a.66.66,0,0,1-.46-.19.68.68,0,0,1-.19-.46.64.64,0,0,1,.19-.46.68.68,0,0,1,.92,0,.66.66,0,0,1,.19.46.68.68,0,0,1-.19.46A.66.66,0,0,1,10.75,51Z" fill="#eb9773"/><path d="M9.75,60.27a.64.64,0,0,1-.46-.19.65.65,0,0,1,0-.92.68.68,0,0,1,.92,0,.65.65,0,0,1,0,.92A.64.64,0,0,1,9.75,60.27Z" fill="#eb9773"/><path d="M13.25,66.27a.66.66,0,0,1-.46-.19.68.68,0,0,1-.19-.46.64.64,0,0,1,.19-.46.67.67,0,0,1,.92,0,.66.66,0,0,1,.19.46.68.68,0,0,1-.19.46A.66.66,0,0,1,13.25,66.27Z" fill="#eb9773"/><path d="M21.75,53.77a.66.66,0,0,1-.46-.19.64.64,0,0,1-.19-.46.6.6,0,0,1,.2-.46.65.65,0,0,1,1.1.46.68.68,0,0,1-.19.46A.66.66,0,0,1,21.75,53.77Z" fill="#eb9773"/><path d="M31,38a.66.66,0,0,1-.46-.19.68.68,0,0,1-.19-.46.66.66,0,0,1,.19-.46.68.68,0,0,1,.92,0,.66.66,0,0,1,.19.46.68.68,0,0,1-.19.46A.66.66,0,0,1,31,38Z" fill="#eb9773"/><path d="M25.75,34.52a.65.65,0,0,1-.46-1.11.67.67,0,0,1,.92,0,.65.65,0,0,1-.46,1.11Z" fill="#eb9773"/><path d="M37,29a.66.66,0,0,1-.46-.19.68.68,0,0,1-.19-.46.66.66,0,0,1,.19-.46.68.68,0,0,1,.92,0,.66.66,0,0,1,.19.46.68.68,0,0,1-.19.46A.66.66,0,0,1,37,29Z" fill="#eb9773"/><path d="M61.5,17a.66.66,0,0,1-.46-.19.68.68,0,0,1-.19-.46.66.66,0,0,1,.19-.46.68.68,0,0,1,.92,0,.64.64,0,0,1,.19.46.65.65,0,0,1-.65.65Z" fill="#eb9773"/><path d="M61,27.52a.64.64,0,0,1-.46-.19.68.68,0,0,1-.19-.46.66.66,0,0,1,.19-.46.68.68,0,0,1,.92,0,.65.65,0,0,1,0,.92A.64.64,0,0,1,61,27.52Z" fill="#eb9773"/><path d="M58.5,57.52a.66.66,0,0,1-.46-.19.68.68,0,0,1-.19-.46.66.66,0,0,1,.19-.46.68.68,0,0,1,.92,0,.66.66,0,0,1,.19.46.68.68,0,0,1-.19.46A.66.66,0,0,1,58.5,57.52Z" fill="#eb9773"/><path d="M59,44.77a.64.64,0,0,1-.46-.19.65.65,0,0,1,0-.92.68.68,0,0,1,.92,0,.65.65,0,0,1,0,.92A.64.64,0,0,1,59,44.77Z" fill="#eb9773"/><path d="M55.5,36a.66.66,0,0,1-.46-.19.68.68,0,0,1-.19-.46.66.66,0,0,1,.19-.46.68.68,0,0,1,.92,0,.66.66,0,0,1,.19.46.68.68,0,0,1-.19.46A.66.66,0,0,1,55.5,36Z" fill="#eb9773"/><path d="M69,71a.68.68,0,0,1-.46-.19.65.65,0,0,1,0-.92.69.69,0,0,1,.92,0A.65.65,0,0,1,69,71Z" fill="#eb9773"/><path d="M60.5,66.27A.65.65,0,0,1,60,65.16a.67.67,0,0,1,.92,0,.64.64,0,0,1,.19.46.65.65,0,0,1-.65.65Z" fill="#eb9773"/><path d="M44.25,71.77a.65.65,0,0,1-.46-1.11.68.68,0,0,1,.92,0,.65.65,0,0,1-.46,1.11Z" fill="#eb9773"/><path d="M24.25,1.52A.65.65,0,0,1,23.6.87a.64.64,0,0,1,.19-.46.67.67,0,0,1,.92,0,.66.66,0,0,1,.19.46.68.68,0,0,1-.19.46A.64.64,0,0,1,24.25,1.52Z" fill="#eb9773"/><path d="M-.25,23.72a.39.39,0,0,1-.25-.1.39.39,0,0,1-.1-.25.39.39,0,0,1,.1-.25.38.38,0,0,1,.5,0,.39.39,0,0,1,.1.25.39.39,0,0,1-.1.25A.39.39,0,0,1-.25,23.72Z" fill="#eb9773"/></pattern></defs><g style="isolation:isolate"><g id="cheerCoffee"><g id="coffeeRightArm"><path d="M474.9,209.58c-11.54,17.35-10.62,42.42-26.62,55.77-9.1,7.59-22,9.41-33.62,6.92s-22-8.82-31.34-16.08" transform="translate(-80.33 -44.97)" fill="none" stroke="#61271c" stroke-linecap="round" stroke-linejoin="round" stroke-width="17.5"/><path d="M458.87,194.23c-.74,6.6-2,6.71-2.43,11.22-1.1,11.82,17.2,19.38,27,17.74a9.06,9.06,0,0,0,4-1.6c4.05-3,4.51-8.06,6.75-12.21,2.45-4.52,6.14-7,9.95-10.27a46.25,46.25,0,0,0,9-9.4c2.33-3.5,4.47-8.68,2.63-12.83a7.63,7.63,0,0,0-7.8-4.16c-.59.06-5.59.95-4.46-.81a81.67,81.67,0,0,0,7.45-15.37,112.45,112.45,0,0,0,5.26-16.19c.84-3.88,1.7-9.38-2.38-11.8a8.87,8.87,0,0,0-8-.16c-4.42,2.07-6,6.85-7.55,11.11-3.35,9.28-7.2,19.41-7.08,29.42-.07-8.59-.55-15.7-1-20.83-1.56-17.44-3.65-20.32-6-21.34-2.66-1.14-6-.07-8,1.52-3.53,2.82-3.2,8.48-3.26,12.53A116.63,116.63,0,0,0,474,159.19c.08.55.24,1.65-.22,2.1s-1.19-.09-1.86-.21a28.22,28.22,0,0,0-3.43-.44,18.22,18.22,0,0,0-6.77.78,11.91,11.91,0,0,0-7.63,7.2c-1.34,4.11,1.51,8.5,2.92,12.22A28.49,28.49,0,0,1,458.87,194.23Z" transform="translate(-80.33 -44.97)" fill="#fff" stroke="#61271c" stroke-linecap="round" stroke-linejoin="round" stroke-width="2"/><path d="M474.15,161.56a30.71,30.71,0,0,1,7.11,5.23c2,2,4.68,5.06,3.34,8.08-1.46,3.27-6.61,3.68-9.67,3.34a15.44,15.44,0,0,1-8.41-3.94" transform="translate(-80.33 -44.97)" fill="none" stroke="#61271c" stroke-linecap="round" stroke-linejoin="round" stroke-width="2"/><path d="M494.07,208.59c-3.9,3.83-11.1,3.08-15.6.44" transform="translate(-80.33 -44.97)" fill="none" stroke="#61271c" stroke-linecap="round" stroke-linejoin="round" stroke-width="2"/><path d="M468.74,204.82c-3.34-1.52-7.87-5.82-10.17-8.67" transform="translate(-80.33 -44.97)" fill="none" stroke="#61271c" stroke-linecap="round" stroke-linejoin="round" stroke-width="2"/><path d="M477.08,178.9a6.13,6.13,0,0,1-.76,5.47,5.87,5.87,0,0,1-3.56,2.11,5.67,5.67,0,0,1-1.77,0" transform="translate(-80.33 -44.97)" fill="none" stroke="#61271c" stroke-linecap="round" stroke-linejoin="round" stroke-width="2"/><path d="M515.7,184.08a18.32,18.32,0,0,1-9.21,9.67c-3.3,1.52-7,1.54-9.48-1.41s-1.91-7.16-1.72-8.48c1-6.65,6.88-10.41,8-11.09" transform="translate(-80.33 -44.97)" fill="none" stroke="#61271c" stroke-linecap="round" stroke-linejoin="round" stroke-width="2"/></g><path d="M320.33,486c-4.12,9.55.72,35.39,19.61,46.53,14.6,8.62,42.17,10.77,54.57-4.16,5.14-6.18,5.67-16.87-4.85-13.18-57.07,20-54.86-24.22-59.72-32.24C326.88,477.88,322.31,481.39,320.33,486Z" transform="translate(-80.33 -44.97)" fill="#fff" stroke="#61271c" stroke-linecap="round" stroke-linejoin="round" stroke-width="1.25"/><path d="M354.41,530.07c-23.29-5.45-37.4-37.81-28.25-51.37,2-3,9.35-9.65,13.17-9.8,6.43-.26,20.48,17.55,24.22,22.68,1.3,1.77,2.06,1.58,3.44.5,8.51-6.68,27.57-3.28,30.56,17.76.74,5.25.95,7.32-6,12.82C379,532.68,366.91,533,354.41,530.07Z" transform="translate(-80.33 -44.97)" fill="#f27548" stroke="#61271c" stroke-miterlimit="10" stroke-width="2"/><path d="M352.73,519.71c-.51-10.86,3.34-21.07,13.14-26.93" transform="translate(-80.33 -44.97)" fill="none" stroke="#61271c" stroke-linecap="round" stroke-linejoin="round" stroke-width="1.25"/><path d="M333.2,493.81c14.67,15.36,38.69-11.69,23.12-25.78S319.2,479.17,333.2,493.81Z" transform="translate(-80.33 -44.97)" fill="#fff" stroke="#61271c" stroke-linecap="round" stroke-linejoin="round" stroke-width="1.25"/><path d="M271,437c91.81-31.91,115.05-44.42,113.83-49-.28-1.06-1.87-1.73-36.32-7l-18.66-2.82" transform="translate(-80.33 -44.97)" fill="none" stroke="#61271c" stroke-linecap="round" stroke-linejoin="round" stroke-width="17.5"/><path d="M344.33,477.67c-7.27-17.8-8.95-32.1-9.09-42.06-.13-9.5,1.07-21.42-6.41-27.44-1.74-1.41-3.27-1.94-8.83-3.5-13.81-3.88-22.95-5.8-26.61-6.76-6.84-1.79-16.32-5.88-26.78-16.34" transform="translate(-80.33 -44.97)" fill="none" stroke="#61271c" stroke-linecap="round" stroke-linejoin="round" stroke-width="17.5"/><path d="M262.58,426.33c12.56,1.6,25.41,20.06,13.9,22.69-6.45,1.47-31-7.57-27-17.92C251.21,426.66,257.44,425.67,262.58,426.33Z" transform="translate(-80.33 -44.97)" fill="#fff" stroke="#61271c" stroke-linecap="round" stroke-linejoin="round" stroke-width="1.05"/><path d="M259.46,435.23c13.76,6.17,18.88,20.06,22.64,22.85,1.8,1.34,24.09,5.71,22.86,26.44-.9,15.15-21.69,35.29-48.44,4.73C205.09,430.49,247.67,430,259.46,435.23Z" transform="translate(-80.33 -44.97)" fill="#f27548" stroke="#61271c" stroke-miterlimit="10" stroke-width="1.68"/><path d="M274.53,458.16c1.55-.64,4.71-.52,7.57-.08-3.34-4.1-8.09-7.11-12.57-6.27" transform="translate(-80.33 -44.97)" fill="none" stroke="#61271c" stroke-linecap="round" stroke-linejoin="round" stroke-width="1.05"/><path d="M272.52,505.24c-24.67-2.05-44.66-39.38-44.31-54.41a18.78,18.78,0,0,1,3.61-11.05,9,9,0,0,1,9.27-3.32c11,2.22,46.45,31.1,49,49.89,1.33,9.83-4.09,19.66-16.89,18.94Z" transform="translate(-80.33 -44.97)" fill="#fff" stroke="#61271c" stroke-linecap="round" stroke-linejoin="round" stroke-width="1.05"/><path d="M231.82,439.78c12.41,1.58,27.48,16.76,34.46,24.72,18,20.53,19.25,35.74,6.9,40.79" transform="translate(-80.33 -44.97)" fill="none" stroke="#61271c" stroke-linecap="round" stroke-linejoin="round" stroke-width="1.05"/><line x1="158.79" y1="397.05" x2="148" y2="408.42" fill="none" stroke="#61271c" stroke-linecap="round" stroke-linejoin="round" stroke-width="1.05"/><line x1="167.59" y1="402.35" x2="150.97" y2="419.84" fill="none" stroke="#61271c" stroke-linecap="round" stroke-linejoin="round" stroke-width="1.05"/><line x1="175.37" y1="408.72" x2="155.52" y2="429.64" fill="none" stroke="#61271c" stroke-linecap="round" stroke-linejoin="round" stroke-width="1.05"/><line x1="182.52" y1="415.77" x2="161.01" y2="438.42" fill="none" stroke="#61271c" stroke-linecap="round" stroke-linejoin="round" stroke-width="1.05"/><line x1="189.16" y1="423.35" x2="167.39" y2="446.27" fill="none" stroke="#61271c" stroke-linecap="round" stroke-linejoin="round" stroke-width="1.05"/><line x1="195.09" y1="431.68" x2="174.81" y2="453.01" fill="none" stroke="#61271c" stroke-linecap="round" stroke-linejoin="round" stroke-width="1.05"/><line x1="199.73" y1="441.35" x2="183.75" y2="458.2" fill="none" stroke="#61271c" stroke-linecap="round" stroke-linejoin="round" stroke-width="1.05"/><path d="M429.67,417" transform="translate(-80.33 -44.97)" fill="none" stroke="#61271c" stroke-linecap="round" stroke-linejoin="round" stroke-width="17.5"/><path d="M233.37,341.7a12.08,12.08,0,0,0,3.07-23.15c-63-26-100.65-53.22-122-88.3-10.67-17.5-11.31-32.14-1.77-40.18,7.48-6.31,21.62-7.82,31.4.73l49.22,43a12.08,12.08,0,0,0,15.89-18.2l-49.21-43c-17.64-15.41-45.26-15.85-62.87-1-14.92,12.57-23.62,37.88-3.29,71.22,31.07,50.94,87.64,79.17,133.45,98.06A12,12,0,0,0,233.37,341.7Z" transform="translate(-80.33 -44.97)" fill="#eeece8" stroke="#61271c" stroke-linecap="round" stroke-linejoin="round" stroke-width="3"/><path d="M176.8,202.21S147.12,167.27,124,170.29s-47,27.21-26.55,58,63.09,54.81,63.09,54.81S106,240.47,102.89,211.18c-2.6-24.62,13.59-31.11,30-28.83s50.24,41.11,50.24,41.11Z" transform="translate(-80.33 -44.97)" opacity="0.75" fill="url(#USGS_22_Gravel_Beach_3)" style="mix-blend-mode:multiply"/><path d="M207.59,308s-17.26-1.2-43.31-12.6c-12.9-5.65-46.72-26.84-46.72-26.84s29.71,30.63,93,62.26Z" transform="translate(-80.33 -44.97)" opacity="0.75" fill="url(#USGS_22_Gravel_Beach_3)" style="mix-blend-mode:multiply"/><ellipse cx="306.54" cy="367.73" rx="60.7" ry="27.95" transform="translate(-124.97 -2.61) rotate(-7.37)" fill="#eeece8" stroke="#61271c" stroke-linecap="round" stroke-linejoin="round" stroke-width="3"/><path d="M309.06,387.18c31.7-4.1,50.44-18.24,49.42-26.17S335.73,344.17,304,348.27s-50.45,18.24-49.42,26.17S277.35,391.28,309.06,387.18Z" transform="translate(-80.33 -44.97)" opacity="0.75" fill="url(#USGS_22_Gravel_Beach_3)" style="mix-blend-mode:multiply"/><path d="M307.66,376.39c57.62-7.46,101.15-62.18,97.66-128.15L396.4,128,158.64,158.76l22,118.55C193.79,340.9,249,384,307.66,376.39Z" transform="translate(-80.33 -44.97)" fill="#eeece8" stroke="#61271c" stroke-linecap="round" stroke-linejoin="round" stroke-width="3"/><path d="M158.59,158.45c.75,5.81,5.91,10.72,14.44,14.56l.12.06c21,9.43,62.44,12.41,109,6.38s86-19.51,103.93-34c.94-.77,1.83-1.54,2.66-2.32,5.5-5.14,8.24-10.38,7.59-15.42-2.12-16.35-39.16-25.63-88.27-23.94-8.48.29-17.32.92-26.41,1.88-2.94.32-5.92.67-8.91,1-1.77.23-3.54.47-5.28.73C235.58,112,207.44,120,187.76,129.31,168.52,138.42,157.34,148.8,158.59,158.45Z" transform="translate(-80.33 -44.97)" fill="#f27548" stroke="#61271c" stroke-miterlimit="10" stroke-width="3"/><path d="M173,173c21,9.48,62.47,12.48,109.16,6.44s86-19.51,103.93-34C375,129.54,329,122.31,275.69,129.2S179.74,154.8,173,173Z" transform="translate(-80.33 -44.97)" fill="#f3dfd8" stroke="#61271c" stroke-linecap="round" stroke-linejoin="round" stroke-width="3"/><path d="M173.15,173.07c21,9.43,62.44,12.41,109,6.38s86-19.51,103.93-34c.94-.77,1.83-1.54,2.66-2.32-12.09-9.94-33-19.82-45.87-24.11-20.79-6.93-25.3-4.63-34.81-15.25-1.54-1.72-3.22-3.79-5.11-6.29-12.71-16.76-27.68-7.3-21.3,8.17a26.86,26.86,0,0,0,1.62,3.28c7.47,12.82-3.69,11-15.81-1.5A78.17,78.17,0,0,1,255.21,90.5c-14.32-26.43-29.33-50.71-41-41.47-11.2,8.87.82,25.86,16.56,45.67s-5.17,24.61-12.43,6.7S184.58,43.64,167.49,52c-20,9.78-.52,31.33,10.21,42,15.39,15.28-3.11,5.5-8,12.54-4.27,6.18,1.78,8.42,14,18.7a26.73,26.73,0,0,1,4,4.08c4,5.22,3.73,10.26-5.75,10.63C174.22,140.25,166.06,158.36,173.15,173.07Z" transform="translate(-80.33 -44.97)" fill="#61271c" stroke="#61271c" stroke-linecap="round" stroke-linejoin="round" stroke-width="3"/><path d="M154.64,124.67c-3.27-11.11-28.32-30.37-30.17-10.56S157,132.66,154.64,124.67Z" transform="translate(-80.33 -44.97)" fill="#61271c" stroke="#61271c" stroke-linecap="round" stroke-linejoin="round" stroke-width="3"/><path d="M278.32,60.08c-2.76-13-34.06-20.83-20.89-4S280.66,71.13,278.32,60.08Z" transform="translate(-80.33 -44.97)" fill="#61271c" stroke="#61271c" stroke-linecap="round" stroke-linejoin="round" stroke-width="3"/><path d="M394.66,286.75c6.08-33.22-1.29-85.25-4.66-134.14-28.37,18.64-47.23,22.55-72.73,29.67C305.55,185.55,376,210.78,394.66,286.75Z" transform="translate(-80.33 -44.97)" opacity="0.75" fill="url(#USGS_22_Gravel_Beach_3)" style="mix-blend-mode:multiply"/><path d="M238.14,190.16s-27.42,94.25-1.7,128.39c43.45,57.7,131.36,18.35,131.36,18.35S355.18,356.12,318,366.25s-79.51-3.65-101.88-28.8c-36.76-41.34-31.87-77.79-46.65-159.83C169.45,177.62,190.74,193.65,238.14,190.16Z" transform="translate(-80.33 -44.97)" opacity="0.75" fill="url(#USGS_22_Gravel_Beach_3)" style="mix-blend-mode:multiply"/><path d="M324.52,155.9c-1.67-12.93-13.13-20.33-33-14.64s-43.43.91-54.18-14.82" transform="translate(-80.33 -44.97)" fill="none" stroke="#f3dfd8" stroke-linecap="round" stroke-linejoin="round" stroke-width="3"/><path d="M230.89,163.37s-10.53-24.17-34.95-17.78" transform="translate(-80.33 -44.97)" fill="none" stroke="#f3dfd8" stroke-linecap="round" stroke-linejoin="round" stroke-width="3"/><path d="M323.18,248.89l3.26,25.2c10.36-11.31,25.81-15.19,39.73-5.69L363,243.74c-2.87-22.26-14.12-39.15-25.11-37.73S320.31,226.63,323.18,248.89Z" transform="translate(-80.33 -44.97)" fill="#fff" stroke="#61271c" stroke-miterlimit="10" stroke-width="3"/><path d="M326.44,274.09c10.36-11.31,25.8-15.19,39.73-5.69a41.46,41.46,0,0,1,7.57,6.71" transform="translate(-80.33 -44.97)" fill="none" stroke="#61271c" stroke-miterlimit="10" stroke-width="3"/><path d="M323.18,248.89l3.26,25.2c7.66-8.35,18.08-12.65,28.62-10.51a185.23,185.23,0,0,0-3.43-22.51l-16.43-6.89,12.3-8.05A97.63,97.63,0,0,0,338.14,206l-.27,0C326.88,207.43,320.3,226.63,323.18,248.89Z" transform="translate(-80.33 -44.97)" fill="#61271c" stroke="#61271c" stroke-miterlimit="10" stroke-width="3"/><path d="M243.29,259.22l3.26,25.2c10.36-11.31,25.8-15.19,39.73-5.69l-3.19-24.66C280.21,231.82,269,214.93,258,216.35S240.41,237,243.29,259.22Z" transform="translate(-80.33 -44.97)" fill="#fff" stroke="#61271c" stroke-miterlimit="10" stroke-width="3"/><path d="M240.86,292.3a43.21,43.21,0,0,1,5.69-7.88c10.36-11.31,25.8-15.19,39.73-5.69a41.87,41.87,0,0,1,7.57,6.72" transform="translate(-80.33 -44.97)" fill="none" stroke="#61271c" stroke-miterlimit="10" stroke-width="3"/><path d="M243.29,259.22l3.26,25.21c7.65-8.36,18.08-12.66,28.61-10.51a183.5,183.5,0,0,0-3.42-22.52l-16.44-6.89,12.31-8a98.31,98.31,0,0,0-9.36-20.14l-.27,0C247,217.77,240.41,237,243.29,259.22Z" transform="translate(-80.33 -44.97)" fill="#61271c" stroke="#61271c" stroke-miterlimit="10" stroke-width="3"/><path d="M311.66,289.75a17.35,17.35,0,0,0,9.85-6c5.3-6.16,5.9-14.33,1.35-18.24s-12.54-2.09-17.84,4.08c-4,4.62-5.3,10.37-3.8,14.61" transform="translate(-80.33 -44.97)" fill="none" stroke="#61271c" stroke-miterlimit="10" stroke-width="3"/><path d="M351.78,202.69c-3.06-9.32-12.5-14.51-17.78-9.46" transform="translate(-80.33 -44.97)" fill="none" stroke="#61271c" stroke-miterlimit="10" stroke-width="3"/><path d="M243.68,216.67c.59-9.79,8.39-17.21,14.78-13.67" transform="translate(-80.33 -44.97)" fill="none" stroke="#61271c" stroke-miterlimit="10" stroke-width="3"/><path d="M275.73,300.11c6.5,24.65,37.32,40.06,59.11,16.17,11.91-13,8.93-34.36-1.07-26.38-18.82,15-35.28,12.09-40.48,9.55C285.06,295.44,273.88,293.07,275.73,300.11Z" transform="translate(-80.33 -44.97)" fill="#61271c" stroke="#61271c" stroke-linecap="round" stroke-linejoin="round" stroke-width="3"/><path d="M301.67,311.92c8,1.23,11.84,5.8,11.84,5.8s-3.95-6,3.52-6.8c3.76-.4,10.91,2.82,17.1,6.12-12.17,12.75-27,13.57-38.82,7.54C293.92,317,295.67,311,301.67,311.92Z" transform="translate(-80.33 -44.97)" fill="#bc5530" stroke="#61271c" stroke-linecap="round" stroke-linejoin="round" stroke-width="3"/><path d="M328.46,330.42c-.62,1.49-13.24,14.47-31.9,4.12" transform="translate(-80.33 -44.97)" fill="none" stroke="#61271c" stroke-linecap="round" stroke-linejoin="round" stroke-width="3"/><path d="M167,364.56a236.4,236.4,0,0,1-7.13-39.85c-.68-7.33-1.22-13.25-.8-18.37,1.92-23,24.39-40.3,39.37-49.51" transform="translate(-80.33 -44.97)" fill="none" stroke="#61271c" stroke-linecap="round" stroke-linejoin="round" stroke-width="17.5"/><path d="M177.34,380.3c1.74-1.46,6.74-6.07,7.31-8.26,1.95-7.59-31.34-43.22-35.89-8.65-.41,3.1-17.68,8.07-33.57,21.28-9.17,7.63-19.62,22.25-5.41,30.82-2,16.54,15.87,17.14,19.31,10.44,2.18,6.27,10,8.9,15.81,6.08,10.46-5,10.22-18.6,12.39-22.81,2.38-4.58,6.62-5.78,12,1,12.13,15.41,24.1,7.11,23.51.12C192,401,172.65,398.43,177.34,380.3Z" transform="translate(-80.33 -44.97)" fill="#fff" stroke="#61271c" stroke-linecap="round" stroke-linejoin="round" stroke-width="2"/><path d="M129.09,425.93c-3.21-16.61,4.79-26.67,16.82-35.2" transform="translate(-80.33 -44.97)" fill="none" stroke="#61271c" stroke-linecap="round" stroke-linejoin="round" stroke-width="2"/><path d="M109.78,415.49c1.71-11.78,11-24.55,21.43-30.24" transform="translate(-80.33 -44.97)" fill="none" stroke="#61271c" stroke-linecap="round" stroke-linejoin="round" stroke-width="2"/><path d="M166.09,369.71c6.14.93,9.07,6.16,11.25,10.59" transform="translate(-80.33 -44.97)" fill="none" stroke="#61271c" stroke-linecap="round" stroke-linejoin="round" stroke-width="2"/><path d="M148.71,363.58c1.95.13,4.85,1,5.91,2" transform="translate(-80.33 -44.97)" fill="none" stroke="#61271c" stroke-linecap="round" stroke-linejoin="round" stroke-width="2"/><ellipse cx="356.13" cy="279.31" rx="9.57" ry="7.12" transform="translate(-113.22 3.02) rotate(-7.37)" fill="#e0b89d"/><ellipse cx="259.67" cy="291.78" rx="9.57" ry="7.12" transform="translate(-115.62 -9.25) rotate(-7.37)" fill="#e0b89d"/><path d="M523.08,191.58" transform="translate(-80.33 -44.97)" fill="none" stroke="#61271c" stroke-linecap="round" stroke-linejoin="round" stroke-width="0.93"/></g><g id="shadow"><path d="M396.11,134.33c-.42,0,6.83,51.55-.44,114.11-2.18,18.72-5.23,34.77-11.56,52.56a215.94,215.94,0,0,1-24.29,48.13h0v.06c.12,4,.62,4.45.62,4.45,1.27.91,20.16-14.84,32.67-41.81a138.75,138.75,0,0,0,12.27-50.47c.39-6.27.13-12.37-.39-24.58-.86-20.2-2.42-32.33-4.33-51.67C397.84,156.6,396.39,134.31,396.11,134.33Z" transform="translate(-80.33 -44.97)" fill="#61271c" opacity="0.19"/><path d="M354.17,358.75c-8.86,10-13.78,25.25-10.46,27.35.76.48,3.84-1.32,10-4.93,7.45-4.4,9.19-6,10.66-8.06,1.06-1.48,3.17-4.45,2.78-7.89-.11-1-.32-1.11-.61-3.05-.48-3.17-.12-4-.7-5.69-.22-.65-1-2.9-2.45-3.53C360.4,351.7,355.47,357.28,354.17,358.75Z" transform="translate(-80.33 -44.97)" fill="#61271c" opacity="0.3"/><path d="M384.92,344.42" transform="translate(-80.33 -44.97)" fill="#61271c"/><path d="M280.5,497.5a15.22,15.22,0,0,0,.64-1.68,14.09,14.09,0,0,0,.53-2.6c.35-3,5.16-7.44,5.16-7.44,6.92-6.45,3.49-20.76,7.39-21.63,1.76-.39,3.69,2.24,5.21,4.29,4.09,5.56,6.54,14.39,3.35,22.84-.57,1.5-3.11,8.24-9.28,11.22a26.86,26.86,0,0,1-6.44,1.94c-2.52.42-2.49,0-7.17.45-2.66.24-4,.49-4.22,0s1.25-1.09,2.83-3.45A23.46,23.46,0,0,0,280.5,497.5Z" transform="translate(-80.33 -44.97)" fill="#191919" opacity="0.2"/><path d="M521.5,388.67" transform="translate(-80.33 -44.97)" fill="#191919"/><path d="M383.28,491.33c-2.21,1.15,1.5,8.27,1.94,19.5.47,11.91-2.9,24.35-1.55,24.67.54.13,2-.42,3.94-1.72,0,0,7.58-4.45,9.61-12.11a10.8,10.8,0,0,0,.34-2.23,11.85,11.85,0,0,0-.34-2.78c-.48-2.08-.21-3.18-.3-5.2a24.08,24.08,0,0,0-2-8.07,22.89,22.89,0,0,0-4.22-7.22C390.31,495.77,385.36,490.25,383.28,491.33Z" transform="translate(-80.33 -44.97)" fill="#191919" opacity="0.26"/></g></g></svg>