<svg id="cheerPirate" data-name="Layer 1" xmlns="http://www.w3.org/2000/svg" viewBox="0 0 477.53 416.34"><g id="rightHand"><path d="M133.23,89.24a845.44,845.44,0,0,1,71.44,106.59c4.17,7.39,4.81,14.47,1.46,16.72h0c-4.2,2.81-12.92-3.21-18.1-12.6a685.91,685.91,0,0,0-64.89-96.86c-6.69-8.41-9-18.69-4.75-21.54h0C121.72,79.31,128.05,82.6,133.23,89.24Z" transform="translate(-30.11 -12.35)" fill="#232323" stroke="#232323" stroke-miterlimit="10" stroke-width="2.64"/><ellipse cx="125.28" cy="85.1" rx="21.56" ry="13.73" transform="translate(-55.63 86.79) rotate(-39.5)" fill="#fff" stroke="#232323" stroke-miterlimit="10" stroke-width="1.81"/><path d="M97.11,91.57c-11.54-4.25-16.52-21.3-16.52-21.3-8.54,8.12-26.45,10-29.52-.82S73.32,54.29,73.32,54.29,49.74,55.74,58,40s39.55-.15,39.55-.15C72.68,25.91,75.78,14.05,86.44,13.32c22.17-1.52,37.94,25,41.72,32a.29.29,0,0,0,.53-.19c-.67-4.51-1.58-16.09,5.72-22.92,9.15-8.58,20.28,1.85,16.2,12-3.12,7.74-5.67,15.4-6.46,32.06a17.79,17.79,0,0,1-3.44,9.83C132.69,86.8,117.3,82,117.3,82S108.64,95.82,97.11,91.57Z" transform="translate(-30.11 -12.35)" fill="#fff" stroke="#232323" stroke-miterlimit="10" stroke-width="1.81"/><path d="M72.13,54.47a24.91,24.91,0,0,1,18.93,4.12" transform="translate(-30.11 -12.35)" fill="none" stroke="#232323" stroke-linecap="round" stroke-miterlimit="10" stroke-width="1.81"/><path d="M105.71,72.06c9.19-22.37,24-19.22,24-19.22" transform="translate(-30.11 -12.35)" fill="none" stroke="#232323" stroke-miterlimit="10" stroke-width="1.81"/><path d="M91.19,37.05c8.09,2.55,11.68,7,11.68,7" transform="translate(-30.11 -12.35)" fill="none" stroke="#232323" stroke-linecap="round" stroke-miterlimit="10" stroke-width="1.81"/><path d="M89.16,63.3c6.27-18.24,20.68-22.45,20.68-22.45" transform="translate(-30.11 -12.35)" fill="none" stroke="#232323" stroke-linecap="round" stroke-miterlimit="10" stroke-width="1.81"/></g><path d="M41.18,204.3" transform="translate(-30.11 -12.35)" fill="#f4f4f4"/><g id="torsoUpper"><path d="M184.11,211c4.63-1.66,28.8-10.11,50.51-.24,15.62,7.11,23.05,21.52,27,29.25,1.56,3,19.23,38.32,4.3,60.35-6.59,9.65-12.44,6.41-42.66,23.66-22,12.54-22.5,16.31-30.37,16.68-16.24.75-41.51-21.18-51-50.23-8.45-25.9-4.87-58.62,9.26-66.36.69-.38,4.48-1.9,12-4.93C171.33,215.93,181.05,212.15,184.11,211Z" transform="translate(-30.11 -12.35)" fill="#232323"/></g><g id="pirateArm1"><path d="M396.91,342.56c-2.75-1.71-10.09,7.54-18.4,22.71s-10.95,34.64-8.21,36.35,11.72-9.2,20-24.36S399.66,344.28,396.91,342.56Z" transform="translate(-30.11 -12.35)" fill="#3e3d40" stroke="#232323" stroke-miterlimit="10" stroke-width="1.5"/><path d="M418.27,399.9a287.84,287.84,0,0,0,26.53,13.82c5.69,2.72,11.41,5.37,17.23,7.75,5.66,2.32,11.52,4.7,17.5,5.81a32.25,32.25,0,0,0,12.91,0l.5-.13c4.88-1.18,11.63-3.86,13.47-9.36,1.32-4-.35-8.33-1.9-11.94-3.8-8.86-10.63-14.49-18.82-18.34-1-.46-8.8-4.11-7.38-.33a3.7,3.7,0,0,0,.77,1.14c2.55,2.81,6,4.52,8.78,7.15a35,35,0,0,1,7.32,9.81c1.76,3.61,2.36,8.51-.81,11.46-4,3.76-10.47,3-15.23,1.66a77.87,77.87,0,0,1-16.81-7.08q-6.22-3.52-12.34-7.25c-5.11-3.11-10.17-6.32-15.38-9.24-2.09-1.17-13.92-9.27-15.89-8.2s-2.09,10.48-2.85,12.5" transform="translate(-30.11 -12.35)" fill="#bcbab8" stroke="#232323" stroke-miterlimit="10" stroke-width="1.5"/><path d="M370.78,401.83s50.11,27.93,67.49,2.52-40.87-61.52-40.87-61.52,5.39,7.71-6,31.72C378.14,402.38,370.78,401.83,370.78,401.83Z" transform="translate(-30.11 -12.35)" fill="#58585a" stroke="#232323" stroke-miterlimit="10" stroke-width="1.5"/><g id="rightHand-2" data-name="rightHand"><path d="M387,376.05c-2.1,4.25-1.93,5.29-2.83,6.05-4.77,4-23-11.93-23-11.93-35-30.69-59.86-47.66-119-80.89-11.46-6.44-19.18-17.33-16.15-22.6,2.43-4.19,10.84-3.4,19.86,1.79,57.88,33.33,99.69,75.82,131,89,.74.31,14,5.88,13.84,11.32C390.67,370.48,389.44,371.07,387,376.05Z" transform="translate(-30.11 -12.35)" fill="#232323" stroke="#232323" stroke-miterlimit="10" stroke-width="6.26"/></g><path d="M404.09,351.43c1.58-1,4.87,1.67,11.4,7.13,8.1,6.77,12.55,10.56,17,17.3,4.05,6.18,7,13.2,6.17,13.77-1.12.8-10.09-10.46-12.83-13.9-5.89-7.39-8-11.07-12.6-11.89-3.3-.59-5,.85-7.14-.68C402.45,360.61,401.86,352.9,404.09,351.43Z" transform="translate(-30.11 -12.35)" fill="#f4f4f4" opacity="0.38"/><path d="M375.69,399.56c12.13-5.28,53.16,6.93,51.95,12.77-.72,3.44-15.73,2.9-23.61,1.73-3.29-.49-.91-.43-20.33-6.35-6.4-1.95-11.27-3.36-11.27-5.34C372.43,401,374.83,399.94,375.69,399.56Z" transform="translate(-30.11 -12.35)" fill="#0c0c0c" opacity="0.29"/><path d="M486.86,389.5c.3-.45,12.49,6.76,16.43,16.83.37,1,.94,2.62.67,2.78-.5.29-3.24-5.27-8-11C490.74,391.84,486.7,389.75,486.86,389.5Z" transform="translate(-30.11 -12.35)" fill="#f9f9f9" opacity="0.51"/><path d="M438.09,404.62a101.71,101.71,0,0,0,22.35,12.92,143.74,143.74,0,0,0,23.59,7c4.27.89,5.25,1,5.25,1,2.44.36,4.1.42,4.12.73s-2.18.78-2.56.85c-10.72,2-30.83-6.42-30.83-6.42-9.63-4.13-21.26-9.86-24.25-11.34l-.68-.34" transform="translate(-30.11 -12.35)" fill="#232321" opacity="0.37"/></g><path d="M135.32,358.67c2.5,1.52,4,2,3.92,2.37-.41,1.46-28.29-1.49-53.91-13.37-30.46-14.14-59.64-41.81-54.66-52.5,1.37-2.95,5.17-4.27,7.66-4.5,11.62-1.1,17.67,19.13,40.84,36,3.92,2.85,6.68,4.83,11,6.52,8.32,3.25,12.51,1.83,22.4,5.5A42.48,42.48,0,0,1,121,343C124.61,345.34,126.86,353.51,135.32,358.67Z" transform="translate(-30.11 -12.35)" fill="#232323"/><g id="torsoLower"><path d="M209.1,328.77c1.23-2.48,3.39-8.3-4.47-29.06-5.69-15.13-42.72-75-53.47-75.58-5.79-.33-15.27,2-19.39,9a16,16,0,0,0-2.08,7.76,21.1,21.1,0,0,0-.41-3.45c-.89-5.06-4.39-11.1-9.58-12.72a11.27,11.27,0,0,0-6.28.07c-6.73,1.89-12,7.31-17,12-5.35,5-10.21,11.1-12.09,18.35-1.39,5.4-.81,11.15,2.67,15,1,1.13,2,1.71,4.62,3.17,10.06,5.55,11.7,5.75,13.8,7.19,9.78,6.77.77,21.18,11.75,35.18,2,2.49,6.28,7.17,4.9,9.61-.55,1-1.22,1.56-4.78,2.89-4.84,1.81-5.41,5.56-2.6,9.6a82.58,82.58,0,0,0,20.61,20.91,35.79,35.79,0,0,0,13.93,5.82c4.35.74,10.49,1.05,13.67-2.62,3-3.37,1-8.43,4.15-11.82,2.75-2.93,7-3.9,10.85-4.4A64.07,64.07,0,0,0,189.11,343C196.34,341.24,205.47,335.94,209.1,328.77Z" transform="translate(-30.11 -12.35)" fill="#f97046" stroke="#232323" stroke-miterlimit="10" stroke-width="1.83"/><g id="Layer_12" data-name="Layer 12"><path d="M139.88,331a1,1,0,0,1-.27.62q-2.18,2-20.41-13.49" transform="translate(-30.11 -12.35)" fill="#f97046" stroke="#232323" stroke-miterlimit="10" stroke-width="1.83"/></g><ellipse cx="102.79" cy="247.63" rx="24.18" ry="12" transform="translate(-169.49 120.22) rotate(-42.04)" fill="#f97046" stroke="#232323" stroke-miterlimit="10" stroke-width="1.83"/></g><g id="head1"><g id="groupHead"><g id="faceGroup1"><circle cx="316.05" cy="197" r="106.95" transform="translate(-76.84 268.83) rotate(-45)" fill="#ffe757"/><circle id="HeadOutline" cx="285.97" cy="184.55" r="107.44" fill="none" stroke="#232323" stroke-miterlimit="10" stroke-width="3.19"/><path d="M365.61,178c12.25-3.11,18.81,6.32,18.36,15.78-.75,15.59-22.34,36.77-35.38,49.16-3.55-11.61-14.72-23.28-26.14-24.75C335,203.25,350.17,181.89,365.61,178Z" transform="translate(-30.11 -12.35)" fill="#fff" stroke="#232323" stroke-linecap="round" stroke-linejoin="round" stroke-width="3.78"/><path d="M322.48,218.2a17.18,17.18,0,0,0-6.27.28" transform="translate(-30.11 -12.35)" fill="none" stroke="#232323" stroke-linecap="round" stroke-linejoin="round" stroke-width="3.78"/><path d="M349.66,251.52a23.82,23.82,0,0,0-1.12-8.55h0" transform="translate(-30.11 -12.35)" fill="none" stroke="#232323" stroke-linecap="round" stroke-linejoin="round" stroke-width="3.78"/><path d="M331.2,218.34c6.55,2.51,12.55,8.49,16,15.15C391.42,194.44,377.94,161.55,331.2,218.34Z" transform="translate(-30.11 -12.35)" fill="#232323" stroke="#232323" stroke-linecap="round" stroke-linejoin="round" stroke-width="3.23"/><path d="M340.59,224.47c5.49-3.9,11.12-10.62,16.5-11.13s7.8,1.35,7.8,1.35A14.82,14.82,0,0,1,363.5,208c-.06-5.39,6-14.11,9.17-18.83-5.83,5.41-16.19,15.16-23.86,10.37C352.53,206.55,344.69,218,340.59,224.47Z" transform="translate(-30.11 -12.35)" fill="#fff" stroke="#232323" stroke-linecap="round" stroke-linejoin="round" stroke-width="0.89"/><path d="M382.22,164.83c9.2-1.33,12.24,12.3,10.06,22.7" transform="translate(-30.11 -12.35)" fill="none" stroke="#232323" stroke-linecap="round" stroke-linejoin="round" stroke-width="3.78"/><path d="M333.64,148.75c2-12.48-8-18.18-17.36-16.89-15.45,2.14-34.59,25.53-45.8,39.63,11.89,2.5,24.49,12.57,27,23.81C311.21,181.53,331.13,164.48,333.64,148.75Z" transform="translate(-30.11 -12.35)" fill="#232323" stroke="#232323" stroke-linecap="round" stroke-linejoin="round" stroke-width="3.78"/><path d="M297.49,195.34a17,17,0,0,1,.28,6.28" transform="translate(-30.11 -12.35)" fill="none" stroke="#232323" stroke-linecap="round" stroke-linejoin="round" stroke-width="3.78"/><path d="M261.81,171.18a23.63,23.63,0,0,1,8.63.36h0" transform="translate(-30.11 -12.35)" fill="none" stroke="#232323" stroke-linecap="round" stroke-linejoin="round" stroke-width="3.78"/><path d="M345.25,131c.52-9.27-13.32-11.08-23.49-8" transform="translate(-30.11 -12.35)" fill="none" stroke="#232323" stroke-linecap="round" stroke-linejoin="round" stroke-width="3.78"/><path d="M305.88,201c5.13-4.17,11.49-3.07,14,1.12,4.4,7.53-6.46,16-14,8.68" transform="translate(-30.11 -12.35)" fill="none" stroke="#232323" stroke-linecap="round" stroke-linejoin="round" stroke-width="3.78"/><path d="M255.5,187.17c13.79,9.3,6,25.61,36.23,41.12,17.94,9.21,35.82,12.08,42.22,23,15.15,25.9-35.29,60.11-87.51,0C198.6,196.2,239.81,176.61,255.5,187.17Z" transform="translate(-30.11 -12.35)" fill="#232323" stroke="#232323" stroke-linecap="round" stroke-linejoin="round" stroke-width="2.78"/><path d="M270,211.89c.38-.1.74-.22,1.11-.34-5.74-8.19-6.61-15.79-12.18-21.53C248.67,202.84,252.22,216.84,270,211.89Z" transform="translate(-30.11 -12.35)" fill="#fff" stroke="#232323" stroke-linecap="round" stroke-linejoin="round" stroke-width="2.78"/><path d="M322.86,241.84c-6.52-3.42-14.79-6.18-23.47-10C292.14,249.07,304.15,261.17,322.86,241.84Z" transform="translate(-30.11 -12.35)" fill="#fff" stroke="#232323" stroke-linecap="round" stroke-linejoin="round" stroke-width="2.78"/><path d="M255.08,247.4C260.47,235,244,224.47,227,221.24c3.25,8.48,9.36,18.48,19.41,30,12.18,14,24.25,22.87,35.43,27.93C287.21,261.89,270.38,247.94,255.08,247.4Z" transform="translate(-30.11 -12.35)" fill="#f97046" stroke="#232323" stroke-miterlimit="10" stroke-width="1.83"/><path d="M280.81,291.83a35.86,35.86,0,0,0,24.57,3.82" transform="translate(-30.11 -12.35)" fill="none" stroke="#232323" stroke-linecap="round" stroke-linejoin="round" stroke-width="2.78"/><path d="M232,181.9a20.51,20.51,0,0,1,20.08-5" transform="translate(-30.11 -12.35)" fill="none" stroke="#232323" stroke-linecap="round" stroke-linejoin="round" stroke-width="2.78"/><path d="M366.14,154.57c-20.21,20.54-50.26,24.86-71.61,11.9-23-13.95-25.45-41.58-25.66-44.53" transform="translate(-30.11 -12.35)" fill="none" stroke="#232323" stroke-miterlimit="10" stroke-width="2.74"/></g></g><path d="M380.65,232a82.73,82.73,0,0,0,7.8,30.5c.67,1.44,2.76,1.33,2.08-.12a81.11,81.11,0,0,1-7.67-29.92c-.09-1.43-2.3-1.89-2.21-.46Z" transform="translate(-30.11 -12.35)" fill="#f97046"/><path d="M380.93,258a60.78,60.78,0,0,1,12.88-.61c1.38.05.56-2.25-.8-2.3a60.77,60.77,0,0,0-12.88.62c-1.27.23-.48,2.53.8,2.29Z" transform="translate(-30.11 -12.35)" fill="#f97046"/><path d="M378.94,248.13c3.75-.15,7.4-.62,11.23-.53,1.38,0,.56-2.26-.81-2.29-3.83-.09-7.47.37-11.22.52-1.35.06-.54,2.35.8,2.3Z" transform="translate(-30.11 -12.35)" fill="#f97046"/><path d="M376.44,237c4,.16,8,.53,12,.8,1.39.09.57-2.2-.8-2.3-4-.27-8-.64-12-.8-1.38,0-.56,2.24.81,2.3Z" transform="translate(-30.11 -12.35)" fill="#f97046"/></g><path d="M246.92,114.44c-32.49-4.52-66-10.07-99.92-6.73-16.15,1.92-44.86,3.06-57.12,15.86,11.42,21.17,56.26,17.07,75.59,17.18,18.29.12,27.62-3.21,55.21-7.46a612.8,612.8,0,0,0-64.2,26.46c-8.78,4.89-30,15.27-33.39,26.32-8.83,26.3,37.89,12.76,47.73,8.89,26.9-12.07,71.09-46.46,79.85-75.9" transform="translate(-30.11 -12.35)" fill="#f97046"/><path d="M247.22,113.34c-24.81-3.46-49.66-7.39-74.76-7.76-6.36-.09-12.73,0-19.08.47-4.58.3-9.13.84-13.68,1.3a221.25,221.25,0,0,0-25.9,3.72c-8.82,2-18.28,5-24.73,11.7a1.18,1.18,0,0,0-.18,1.38c3.82,7,11,11.07,18.29,13.51,8.66,2.89,17.92,3.83,27,4.25,8.56.4,17.13.18,25.7,0,3.93-.07,7.87,0,11.8-.15a129.24,129.24,0,0,0,12.88-1.2c12.2-1.72,24.26-4.32,36.43-6.2l-.6-2.2c-14.09,4.81-27.95,10.28-41.61,16.19q-10.25,4.43-20.33,9.18c-4.22,2-8.3,4.3-12.36,6.6a114.8,114.8,0,0,0-13.29,8.62c-3.66,2.82-7.36,6.08-9.6,10.19-2.75,5-3.88,12.69,1.14,16.71,4.68,3.74,11.75,3.62,17.4,3.18a107.58,107.58,0,0,0,20.65-4c2.48-.7,5-1.46,7.38-2.34a73.55,73.55,0,0,0,10-4.8A202.41,202.41,0,0,0,206.69,174a195.44,195.44,0,0,0,25.46-23.25c6.83-7.55,13.22-15.89,17.35-25.27a52.66,52.66,0,0,0,2.27-6.11c.43-1.41-1.77-2-2.2-.6-2.72,9-8.11,17.2-14,24.5a173.29,173.29,0,0,1-23.46,23.45,214.64,214.64,0,0,1-26.24,18.9c-6.15,3.75-12.5,7.43-19.37,9.66a123.46,123.46,0,0,1-18.37,4.52c-6,1-12.9,1.81-18.86-.08A8.87,8.87,0,0,1,124.1,196c-1.35-2.33-1.1-5.22-.46-7.73A20.87,20.87,0,0,1,130,178.14,73,73,0,0,1,142.38,169c3.92-2.41,8-4.62,12-6.81,5.45-3,11.15-5.46,16.8-8,13.2-5.93,26.59-11.45,40.19-16.41,3.19-1.16,6.39-2.3,9.6-3.39a1.14,1.14,0,0,0-.6-2.2c-11,1.69-21.85,3.89-32.81,5.65-4.12.66-8.27,1.19-12.44,1.48s-8.21.26-12.33.3c-16.94.16-34.37,1.32-51-3-8.18-2.12-16.75-5.92-21-13.66l-.18,1.38c5.62-5.8,13.7-8.64,21.37-10.56a183.94,183.94,0,0,1,25.48-4,307.21,307.21,0,0,1,30.77-2,341.48,341.48,0,0,1,37.14,2.24c13.76,1.51,27.45,3.56,41.16,5.47,1.44.2,2.06-2,.61-2.2Z" transform="translate(-30.11 -12.35)" fill="#232323"/><path d="M243.63,125.86a192.79,192.79,0,0,1,69.73,5.43c62,16.62,97.43,60.07,109.6,76.59a104.77,104.77,0,0,0-7.07-53.54c-13.7-32.77-40.12-47.69-48.13-52.06-29-15.81-56.12-13.5-66.83-12.46-9.43.92-20.38,2.1-32.32,9.23A67.54,67.54,0,0,0,243.63,125.86Z" transform="translate(-30.11 -12.35)" fill="#f97046" stroke="#232323" stroke-miterlimit="10" stroke-width="1.83"/><path d="M271.22,103c-14.35-15.55-51.08,14.5-29.63,30.93,7.55,5.79,15.52.28,21.12-7.1,5.79-7.62,3.73-15.64,8-23.3" transform="translate(-30.11 -12.35)" fill="#f97046" stroke="#232323" stroke-miterlimit="10" stroke-width="1.83"/><path d="M91.34,124.77c.46.24,1.18.62,2.07,1.06,7.61,3.8,28.58,12.76,68.61,6.73,22.81-3.44,46.93-11,54.11-4.63.76.68,3.09,2.75,2.59,4.43-.72,2.39-6.69,2.53-8.74,2.6-20.07.67-16.37,5.55-67.62,6-3.29,0-11.8-.9-28.82-2.75-3.46-.37-9.51-1.11-14.67-5.58a21.24,21.24,0,0,1-4.12-4.82" transform="translate(-30.11 -12.35)" fill="#232323" opacity="0.4"/><path d="M208.88,169.19c-.43-.74-4.48.88-10.35,3.24-20,8-25,14.4-42.27,20.6-9.61,3.46-15.1,4-17.44,4.19-7.53.57-13-.62-13.17.19s5.08,3.19,10.83,3.72a40.25,40.25,0,0,0,12.4-.78A118.73,118.73,0,0,0,172.09,193C191.41,184.11,209.86,170.91,208.88,169.19Z" transform="translate(-30.11 -12.35)" fill="#232323" opacity="0.39"/><path d="M262.75,124.82c-1.9-4-22.23-.48-23.18,5.15-.34,2,1.75,4.18,3.32,5.18,3.15,2,6.89.89,8.69.35C258,133.55,264,127.34,262.75,124.82Z" transform="translate(-30.11 -12.35)" fill="#232323" opacity="0.41"/><path d="M263.19,125.87c-.51,2.51,15.93,7.77,17.91,8.4,15.17,4.8,24.69,5.15,33.64,6.65,20.26,3.4,34.55,12.2,54.9,24.72a196.56,196.56,0,0,1,28.94,21c13.26,11.7,22.88,23.58,23.69,22.92.57-.48-4-6.9-4.9-8.13a180.45,180.45,0,0,0-26.29-28.19,217.31,217.31,0,0,0-24.49-18.18,179.94,179.94,0,0,0-24.39-13.44c-9.67-4.35-16.85-6.47-27.16-9.53-4.08-1.21-3.82-1-15-2.94-11.38-1.94-14.18-4.16-25.75-4.57C271.31,124.47,263.53,124.2,263.19,125.87Z" transform="translate(-30.11 -12.35)" fill="#232323" opacity="0.41"/><path d="M282.4,101.71c-.14-.55,27-14.18,57.1-7.27,14.45,3.32,25.07,10.33,24.78,11-.36.9-17.39-8.52-40.89-9.92C299.06,94.12,282.52,102.15,282.4,101.71Z" transform="translate(-30.11 -12.35)" fill="#f4f4f4" opacity="0.17"/><path d="M115.72,117a188.27,188.27,0,0,1,45.37-7.31c32.62-1.19,59.62,6.49,59.55,6.94,0,.25-8.93-1.32-29.36-3.13-10.75-1-19.7-1.53-26-1.89" transform="translate(-30.11 -12.35)" fill="#f4f4f4" opacity="0.32"/><path d="M135.05,178.59c.41.68,12.26-6.67,32.22-16.12,5.5-2.61,13.55-6.15,29.64-13.23,12.15-5.35,20.25-8.84,20.18-9s-8.1,3.22-20.26,7.58c-13.6,4.87-12.62,3.87-20.14,6.79a167.35,167.35,0,0,0-30.77,15.9C142.07,173,134.72,178.05,135.05,178.59Z" transform="translate(-30.11 -12.35)" fill="#f4f4f4" opacity="0.34"/><path d="M306.6,103c0-.57,29.17-8.89,57.45,3.52,13.58,6,22.7,14.83,22.28,15.49-.52.82-15.49-11.62-38.31-17.39C324.38,98.62,306.63,103.42,306.6,103Z" transform="translate(-30.11 -12.35)" fill="#f4f4f4" opacity="0.17"/><path d="M263.37,288c2.51-4.17,24.49,8.67,48.6,9.29,13.8.35,24.6-3.4,35.75-7.27,17.84-6.19,37.53-16,37.53-16,5.73-2.86,8.72-4.55,9-4.08.76,1.12-13.34,15.08-31.5,23.32a122.56,122.56,0,0,1-43.25,10.86s-17.89.87-46.55-8.4c-6.11-2-9.93-4.08-10-6.43A2.76,2.76,0,0,1,263.37,288Z" transform="translate(-30.11 -12.35)" fill="#232321" opacity="0.29"/><path d="M86.78,227.46c18.14,7.5,32,16.92,30.68,21.68-.23.84-1,1.79-2.64,3.68a33.36,33.36,0,0,1-6,5.43c-7.9,5.23-32.38-12-32.38-12-9.33-6.58-32.42-22.86-29.66-28C49.93,212.38,84,226.32,86.78,227.46Z" transform="translate(-30.11 -12.35)" fill="#232323"/></svg>