<svg xmlns="http://www.w3.org/2000/svg" viewBox="0 0 574.64 520.43"><g id="Layer_2" data-name="Layer 2"><ellipse cx="287.64" cy="423.8" rx="125.44" ry="80.73" fill="#ffd7e1" stroke="#000" stroke-miterlimit="10" stroke-width="2"/><path d="M300.32,525.81c-69.49,0-126-36.47-126-81.3s56.53-81.3,126-81.3,126,36.47,126,81.3S369.8,525.81,300.32,525.81Zm0-161.45c-68.85,0-124.87,35.95-124.87,80.15s56,80.15,124.87,80.15,124.86-35.95,124.86-80.15S369.17,364.36,300.32,364.36Z" transform="translate(-12.68 -20.71)" stroke="#000" stroke-miterlimit="10" stroke-width="2"/><ellipse cx="428.28" cy="73" rx="69.93" ry="71.43" stroke="#000" stroke-miterlimit="10" stroke-width="2"/><path d="M441,165.71c-38.88,0-70.5-32.3-70.5-72s31.62-72,70.5-72,70.5,32.3,70.5,72S479.83,165.71,441,165.71Zm0-142.86c-38.24,0-69.35,31.79-69.35,70.86s31.11,70.86,69.35,70.86,69.35-31.79,69.35-70.86S479.2,22.85,441,22.85Z" transform="translate(-12.68 -20.71)" stroke="#000" stroke-miterlimit="10" stroke-width="2"/><ellipse cx="150.18" cy="79.57" rx="69.93" ry="71.43" stroke="#000" stroke-miterlimit="10" stroke-width="2"/><path d="M162.86,172.28c-38.87,0-70.49-32.3-70.49-72s31.62-72,70.49-72,70.5,32.3,70.5,72S201.74,172.28,162.86,172.28Zm0-142.86c-38.24,0-69.35,31.79-69.35,70.86s31.11,70.85,69.35,70.85,69.36-31.78,69.36-70.85S201.1,29.42,162.86,29.42Z" transform="translate(-12.68 -20.71)" stroke="#000" stroke-miterlimit="10" stroke-width="2"/><path d="M92.25,300.52A78.32,78.32,0,0,0,94.84,311c29.24,90,137.53,115.78,217.85,110.4,69.21-4.64,142-29.42,184.58-89.74,13.06-18.49,32-59.74,3.18-74.22-5.95-3-12.85-2.91-20-.35.28-5.27.42-10.57.27-15.94A181.14,181.14,0,0,0,383.68,85.48a178.32,178.32,0,0,0-180.39,9.44l-.24.16a181.28,181.28,0,0,0-79.63,128.17A184.2,184.2,0,0,0,122,251.56c0,.41.06.82.07,1.27a23.06,23.06,0,0,0-15.36,1.83C91,262.73,89.24,283.58,92.25,300.52Z" transform="translate(-12.68 -20.71)" fill="#8d7dff" stroke="#000" stroke-miterlimit="10" stroke-width="2"/><path d="M292.41,422.59c-38.3,0-76.75-7.08-108-20.13-45.74-19.09-76.89-50.67-90.1-91.33a79.52,79.52,0,0,1-2.61-10.51h0c-1.48-8.36-4.81-36.4,14.8-46.47a23.29,23.29,0,0,1,15-2c0-.18,0-.37,0-.55a185.85,185.85,0,0,1,1.39-28.4A181.52,181.52,0,0,1,202.73,94.6l.45.39-.32-.47.15-.1A178.92,178.92,0,0,1,384,85a181.22,181.22,0,0,1,93.89,125.27,183.87,183.87,0,0,1,3.49,30.84c.12,4.6.05,9.56-.23,15.13,7.2-2.4,14-2.18,19.6.66,7.6,3.82,12.44,9.75,14.41,17.63,4.78,19.16-8.67,45.12-17.37,57.44-50.05,70.85-137.4,86.79-185,90C306,422.37,299.2,422.59,292.41,422.59ZM116.78,252.85a21.13,21.13,0,0,0-9.77,2.32c-4.78,2.45-19.94,13-14.2,45.25h0a79.22,79.22,0,0,0,2.57,10.36c13.1,40.32,44,71.66,89.45,90.62,36.66,15.3,83.25,22.36,127.82,19.37,47.41-3.18,134.38-19,184.15-89.49,8.59-12.16,21.88-37.75,17.2-56.5-1.88-7.54-6.53-13.22-13.81-16.88-5.56-2.8-12.31-2.91-19.51-.32l-.82.29.05-.86c.31-5.89.4-11.09.27-15.89A181,181,0,0,0,443.73,137a180.53,180.53,0,0,0-60.31-51A177.72,177.72,0,0,0,203.61,95.4l-.43-.41.32.48-.17.11A180.32,180.32,0,0,0,124,223.32a183.64,183.64,0,0,0-1.38,28.23c0,.19,0,.38,0,.58s0,.45,0,.69l0,.72-.71-.15A26.43,26.43,0,0,0,116.78,252.85Z" transform="translate(-12.68 -20.71)" stroke="#000" stroke-miterlimit="10" stroke-width="2"/><path d="M347.63,328.81c-9,7.71-23.09,13.69-43.63,14.63-20.76,1-36.74-5.1-47.19-13.61-17.52-14.3-19.54-35.52-2.52-42.16,27.17-10.61,46.38,12.39,46.38,12.39s31.84-28,54.67-9.2C363.41,297.53,363,315.7,347.63,328.81Z" transform="translate(-12.68 -20.71)" fill="#ffdf00" stroke="#000" stroke-miterlimit="10" stroke-width="2"/><path d="M299.76,344.11c-17,0-32.27-4.85-43.31-13.84-10.29-8.39-15.74-19.53-14.24-29.08,1-6.47,5.23-11.46,11.87-14.06,25.14-9.81,43.78,9,46.65,12.13,3.93-3.26,33.49-26.57,55-8.84,3.4,2.81,5.38,7.61,5.42,13.17.07,9.14-4.71,18.49-13.12,25.66h0c-10.3,8.81-25.5,13.91-44,14.76C302.59,344.08,301.17,344.11,299.76,344.11Zm-31.22-58.64a38.3,38.3,0,0,0-14,2.73c-6.24,2.44-10.21,7.12-11.16,13.17-1.44,9.14,3.86,19.88,13.83,28,11.74,9.56,28.36,14.34,46.8,13.48,18.22-.83,33.18-5.84,43.28-14.48h0c8.16-6.95,12.79-16,12.73-24.78-.05-5.22-1.87-9.71-5-12.3-22.19-18.31-53.6,8.91-53.92,9.19l-.44.39-.37-.45C300.08,300.25,287.45,285.47,268.54,285.47Z" transform="translate(-12.68 -20.71)" stroke="#000" stroke-miterlimit="10" stroke-width="2"/><path d="M302.73,320.28c-16.34,0-29.06-10.16-35.27-16.32l.81-.81c6.24,6.19,19.12,16.51,35.69,16,16.84-.54,28.8-12,34.44-18.82l.88.73c-5.75,7-18,18.69-35.29,19.24C303.57,320.28,303.15,320.28,302.73,320.28Z" transform="translate(-12.68 -20.71)" stroke="#000" stroke-miterlimit="10" stroke-width="2"/><g id="eyelidR"><path d="M332.94,196.41a115.39,115.39,0,0,0,6.42,34.66v0c8.17,22.84,23.09,39,40.22,41.93a32.6,32.6,0,0,0,6.71.45c16.68-.59,31-13.73,39.55-33.55,5.7-13.33,8.78-29.6,8.16-47.12-1.53-43.51-25.42-78-53.31-77a31.16,31.16,0,0,0-6.63.92C349.47,122.69,331.53,156.35,332.94,196.41Z" transform="translate(-12.68 -20.71)" fill="#fff" stroke="#000" stroke-miterlimit="10" stroke-width="2"/><path d="M385.05,274.07a32.45,32.45,0,0,1-5.57-.47c-17-2.89-32.22-18.71-40.66-42.31l0-.13a114.89,114.89,0,0,1-6.42-34.73c-1.4-39.65,16.47-74.17,41.56-80.29a31.4,31.4,0,0,1,6.74-.93c13.69-.47,26.84,7.36,37,22.08s16.13,34.35,16.87,55.5c.61,17-2.23,33.39-8.21,47.36-8.85,20.66-23.83,33.33-40.05,33.9ZM339.94,231c8.3,23.15,23.15,38.65,39.74,41.47a31.45,31.45,0,0,0,6.59.43c15.77-.55,30.37-13,39-33.2,5.91-13.82,8.72-30,8.11-46.87-.73-20.93-6.65-40.43-16.66-54.89s-22.76-22-36.05-21.58a31.27,31.27,0,0,0-6.51.89c-24.57,6-42.06,40-40.68,79.14h0a113.87,113.87,0,0,0,6.38,34.48Z" transform="translate(-12.68 -20.71)" stroke="#000" stroke-miterlimit="10" stroke-width="2"/><path d="M339.36,231.07v0c8.17,22.84,23.09,39,40.22,41.93a32.6,32.6,0,0,0,6.71.45c16.68-.59,31-13.73,39.55-33.55-2.83-26.54-22-47-44.83-46.59C361.21,193.65,344.72,209.5,339.36,231.07Z" transform="translate(-12.68 -20.71)" stroke="#000" stroke-miterlimit="10" stroke-width="2"/><path d="M385.05,274.07a32.45,32.45,0,0,1-5.57-.47c-17-2.89-32.22-18.71-40.66-42.31l0-.26,0-.1c5.59-22.52,22.54-37.86,42.19-38.17h.6c22.72,0,41.93,20.13,44.81,47.11V240l-.06.13c-8.85,20.66-23.83,33.33-40.05,33.9Zm-45.09-43c8.3,23.12,23.14,38.59,39.72,41.41a31.49,31.49,0,0,0,6.59.43c15.73-.55,30.3-12.91,39-33.06-2.87-26.31-21.56-45.94-43.65-45.94H381C361.94,194.21,345.46,209.13,340,231.06Z" transform="translate(-12.68 -20.71)" stroke="#000" stroke-miterlimit="10" stroke-width="2"/></g><path d="M272.93,197.68a115.12,115.12,0,0,1-6.2,34.69v0c-8,22.89-22.85,39.17-40,42.18a32.61,32.61,0,0,1-6.71.49c-16.69-.49-31.14-13.53-39.76-33.31-5.78-13.28-9-29.54-8.45-47.06,1.25-43.52,24.93-78.16,52.82-77.36a31.77,31.77,0,0,1,6.63.87C255.94,124.07,274.09,157.61,272.93,197.68Z" transform="translate(-12.68 -20.71)" fill="#fff" stroke="#000" stroke-miterlimit="10" stroke-width="2"/><path d="M221.08,275.66h-1c-16.24-.47-31.29-13-40.27-33.65-6.07-13.93-9-30.29-8.51-47.3.61-21.16,6.48-40.91,16.52-55.62s23.2-22.67,36.9-22.3a31.61,31.61,0,0,1,6.75.89c25.12,6,43.2,40.36,42.05,80a115,115,0,0,1-6.2,34.78l0,.13c-8.29,23.65-23.39,39.56-40.39,42.56A33,33,0,0,1,221.08,275.66Zm2.64-157.75c-12.95,0-25.33,7.72-35,21.82-9.92,14.53-15.72,34.06-16.32,55-.5,16.85,2.41,33,8.41,46.82,8.8,20.18,23.47,32.5,39.25,32.95a31.3,31.3,0,0,0,6.58-.47c16.57-2.92,31.33-18.52,39.48-41.72l0-.13a114.21,114.21,0,0,0,6.17-34.52h0c1.13-39.13-16.57-73-41.18-78.88a31.3,31.3,0,0,0-6.52-.86Z" transform="translate(-12.68 -20.71)" stroke="#000" stroke-miterlimit="10" stroke-width="2"/><path d="M266.73,232.37v0c-8,22.89-22.85,39.17-40,42.18a32.61,32.61,0,0,1-6.71.49c-16.69-.49-31.14-13.53-39.76-33.31C183,215.23,202,194.69,224.85,194.9,244.64,195.09,261.24,210.84,266.73,232.37Z" transform="translate(-12.68 -20.71)" stroke="#000" stroke-miterlimit="10" stroke-width="2"/><path d="M221.08,275.66h-1c-16.24-.47-31.29-13-40.27-33.65l-.06-.13v-.15c2.72-27.09,21.93-47.39,44.75-47.39h.37c19.64.19,36.69,15.42,42.42,37.9l0,.27,0,.1c-8.29,23.65-23.39,39.56-40.39,42.56A33,33,0,0,1,221.08,275.66Zm-40.18-34c8.8,20.1,23.45,32.37,39.19,32.82a31.3,31.3,0,0,0,6.58-.47c16.56-2.92,31.3-18.49,39.46-41.66-5.63-21.89-22.21-36.71-41.29-36.89h-.34C202.3,195.48,183.61,215.26,180.9,241.68Z" transform="translate(-12.68 -20.71)" stroke="#000" stroke-miterlimit="10" stroke-width="2"/><path d="M281,260.6c.06,7.95,10.44,14.32,23.19,14.23s23-6.62,23-14.58S316.74,245.93,304,246,281,252.65,281,260.6Z" transform="translate(-12.68 -20.71)" fill="#f95338" stroke="#000" stroke-miterlimit="10" stroke-width="2"/><path d="M303.92,275.4a31.69,31.69,0,0,1-16.37-4.18c-4.56-2.79-7.08-6.56-7.11-10.62-.07-8.25,10.5-15.05,23.55-15.15a31.87,31.87,0,0,1,16.66,4.18c4.55,2.8,7.08,6.57,7.11,10.62s-2.44,7.86-6.95,10.72a31.85,31.85,0,0,1-16.6,4.43Zm.35-28.8H304c-12.41.09-22.46,6.37-22.41,14,0,3.64,2.36,7.06,6.57,9.64a30.51,30.51,0,0,0,15.77,4h.28a30.56,30.56,0,0,0,16-4.25c4.17-2.64,6.45-6.1,6.42-9.74s-2.36-7.07-6.56-9.65A30.58,30.58,0,0,0,304.27,246.6Z" transform="translate(-12.68 -20.71)" stroke="#000" stroke-miterlimit="10" stroke-width="2"/><path d="M324.35,243.57a49.92,49.92,0,0,0-5.13-2.06A39.78,39.78,0,0,0,314,240a46.54,46.54,0,0,0-21.47.15,40.31,40.31,0,0,0-5.22,1.61,52.45,52.45,0,0,0-5.1,2.14l-.06-.1a40.39,40.39,0,0,1,42.28-.31Z" transform="translate(-12.68 -20.71)" stroke="#000" stroke-miterlimit="10" stroke-width="2"/><g id="eyeLids1"><g id="eyelidR-2" data-name="eyelidR"><path d="M334,197.59a115,115,0,0,0,6.42,34.65v0c8.17,22.84,23.09,39,40.21,41.93a31.92,31.92,0,0,0,6.71.44c16.69-.58,31.05-13.72,39.55-33.54,5.7-13.33,8.79-29.61,8.16-47.12-1.52-43.52-25.42-78-53.3-77a31.71,31.71,0,0,0-6.63.91C350.53,123.87,332.59,157.53,334,197.59Z" transform="translate(-12.68 -20.71)" fill="#6d6b89" stroke="#000" stroke-miterlimit="10" stroke-width="2"/><path d="M386.11,275.25a32.56,32.56,0,0,1-5.58-.47c-17-2.89-32.21-18.71-40.65-42.31l0-.13a115.21,115.21,0,0,1-6.43-34.73C332,158,349.9,123.44,375,117.32a31.5,31.5,0,0,1,6.75-.93c13.69-.47,26.84,7.36,37,22.07s16.12,34.36,16.87,55.51c.6,17-2.23,33.39-8.21,47.36-8.85,20.66-23.83,33.33-40.06,33.9ZM341,232.18c8.31,23.15,23.16,38.65,39.74,41.47a31.49,31.49,0,0,0,6.59.43c15.78-.55,30.37-13,39-33.2,5.92-13.82,8.72-30,8.12-46.87-.73-20.93-6.65-40.43-16.67-54.89s-22.75-22-36-21.58a31.27,31.27,0,0,0-6.51.89c-24.58,6-42.07,40-40.69,79.14h0A113.87,113.87,0,0,0,341,232.05Z" transform="translate(-12.68 -20.71)" fill="#6d6b89" stroke="#000" stroke-miterlimit="10" stroke-width="2"/></g><path d="M274,198.86a115.43,115.43,0,0,1-6.21,34.69v0c-8,22.89-22.84,39.17-39.95,42.18a32.52,32.52,0,0,1-6.7.49c-16.69-.49-31.14-13.53-39.76-33.31-5.79-13.28-9-29.54-8.46-47.06,1.25-43.52,24.93-78.16,52.82-77.36a31.21,31.21,0,0,1,6.64.87C257,125.24,275.14,158.79,274,198.86Z" transform="translate(-12.68 -20.71)" fill="#6d6b89" stroke="#000" stroke-miterlimit="10" stroke-width="2"/><path d="M222.13,276.84h-1c-16.23-.47-31.29-13.05-40.27-33.65-6.06-13.93-9-30.29-8.5-47.3.61-21.16,6.47-40.91,16.52-55.62s23.2-22.67,36.89-22.3a32.36,32.36,0,0,1,6.76.88c25.12,6,43.2,40.37,42.05,80a115.36,115.36,0,0,1-6.2,34.78l0,.13c-8.29,23.65-23.39,39.56-40.39,42.55A32,32,0,0,1,222.13,276.84Zm2.65-157.75c-12.95,0-25.34,7.72-35,21.82-9.93,14.53-15.72,34.06-16.33,55-.49,16.85,2.42,33,8.41,46.81,8.8,20.18,23.48,32.51,39.25,33a31.4,31.4,0,0,0,6.59-.47c16.57-2.92,31.32-18.52,39.48-41.72l0-.13a113.9,113.9,0,0,0,6.17-34.52h0c1.13-39.13-16.57-73-41.17-78.88a31.48,31.48,0,0,0-6.52-.86Z" transform="translate(-12.68 -20.71)" fill="#6d6b89" stroke="#000" stroke-miterlimit="10" stroke-width="2"/></g><polygon points="524.98 415.04 343.22 514.43 249.12 518.84 46.06 406.21 50.61 167.73 248.76 250.06 340.66 248.16 527.85 166.28 524.98 415.04" fill="#b5714b" stroke="#000" stroke-miterlimit="10" stroke-width="2"/><path d="M261.67,540.13l-.15-.08L58.17,427.25v-.34l4.56-239.33.78.33,198,82.29,91.67-1.91L541.11,186.1l-2.88,250-.29.16L356.06,535.71h-.13ZM59.33,426.59,261.94,539l93.8-4.4,181.35-99.16L540,187.86,353.47,269.44h-.11l-92,1.91-.11-.05-197.37-82Z" transform="translate(-12.68 -20.71)" stroke="#000" stroke-miterlimit="10" stroke-width="2"/><path d="M70.77,191.54l190.66,79.22a156,156,0,0,0,91.92-1.89l176-77-28.5-18c-111.09,34.9-196.65,93-196.65,93s-87.8-62.59-200.31-94.38Z" transform="translate(-12.68 -20.71)" fill="#fff" stroke="#000" stroke-miterlimit="10" stroke-width="2"/><path d="M304.35,277.34a156.12,156.12,0,0,1-43.08-6L69.47,191.62,103.83,172l.24.06c107.9,30.49,194.17,90,200.16,94.24,5.95-4,90-59.47,196.47-92.91l.25-.08.23.14L530.59,192l-1,.44-176,77a155.2,155.2,0,0,1-48.3,7.94ZM72.06,191.46l189.59,78.76a155.55,155.55,0,0,0,91.52-1.89l175-76.56-27.36-17.24C391.17,209,305.4,266.86,304.54,267.44l-.33.22-.32-.23C303,266.8,215,204.61,104,173.2Z" transform="translate(-12.68 -20.71)" stroke="#000" stroke-miterlimit="10" stroke-width="2"/><path d="M292.24,267.25c-27.08-15.28-51.81-28-82.67-42.45-37.6-17.64-75.85-33.54-113.68-47.27l.4-1.07c37.85,13.73,76.13,29.65,113.77,47.3C241,238.25,265.69,251,292.8,266.25Z" transform="translate(-12.68 -20.71)" stroke="#000" stroke-miterlimit="10" stroke-width="2"/><path d="M281.45,270.49c-28.84-14.74-58.53-29-88.26-42.39-36.92-16.63-72-31.28-107.34-44.79l.41-1.07c35.33,13.51,70.46,28.17,107.4,44.81,29.75,13.4,59.46,27.67,88.31,42.42Z" transform="translate(-12.68 -20.71)" stroke="#000" stroke-miterlimit="10" stroke-width="2"/><path d="M317.53,266.71l-.53-1,3.45-1.82c30.28-15.89,56.43-29.62,91.8-45.59C443.38,204.23,475.6,190.69,508,178l.42,1.07c-32.38,12.64-64.58,26.17-95.69,40.23C377.38,235.29,351.25,249,321,264.9Z" transform="translate(-12.68 -20.71)" stroke="#000" stroke-miterlimit="10" stroke-width="2"/><path d="M331.09,269.63l-.53-1c23.17-11.95,58.36-29.8,96.3-46.67,31.86-14.17,62.45-26.9,90.9-37.83l.41,1.08c-28.43,10.91-59,23.63-90.85,37.8C389.42,239.85,354.24,257.68,331.09,269.63Z" transform="translate(-12.68 -20.71)" stroke="#000" stroke-miterlimit="10" stroke-width="2"/><rect x="354.21" y="268.59" width="1.15" height="267.19" transform="translate(-13.98 -19.56) rotate(-0.18)" stroke="#000" stroke-miterlimit="10" stroke-width="2"/><rect x="261.04" y="270.83" width="1.15" height="268.49" transform="translate(-13.93 -19.9) rotate(-0.18)" stroke="#000" stroke-miterlimit="10" stroke-width="2"/><path d="M261.53,307l.13,40.72a217.56,217.56,0,0,0,93.15-2.51l-.13-40.53a382.46,382.46,0,0,1-47.11,4.06A372.47,372.47,0,0,1,261.53,307Z" transform="translate(-12.68 -20.71)" fill="#a06447" stroke="#000" stroke-miterlimit="10" stroke-width="2"/><path d="M302.22,352.2a218.65,218.65,0,0,1-40.87-3.88l-.46-.09-.14-41.83.64.07a371.47,371.47,0,0,0,46,1.73,381.57,381.57,0,0,0,47-4.05l.66-.1.13,41.64-.43.11a217.32,217.32,0,0,1-50.38,6.39ZM262,347.28A218.35,218.35,0,0,0,304.36,351,215.72,215.72,0,0,0,354,344.8l-.12-39.41a383.91,383.91,0,0,1-46.53,4,373.8,373.8,0,0,1-45.48-1.68Z" transform="translate(-12.68 -20.71)" stroke="#000" stroke-miterlimit="10" stroke-width="2"/><path d="M261.53,458.11l.13,40.72a217.56,217.56,0,0,0,93.15-2.51l-.13-40.53a382.46,382.46,0,0,1-47.11,4.06A372.47,372.47,0,0,1,261.53,458.11Z" transform="translate(-12.68 -20.71)" fill="#a06447" stroke="#000" stroke-miterlimit="10" stroke-width="2"/><path d="M302.79,503.28a219.34,219.34,0,0,1-40.87-3.88l-.46-.09-.14-41.83.63.06a373.74,373.74,0,0,0,46,1.74,383.7,383.7,0,0,0,47-4l.66-.1.13,41.64-.43.11a217.46,217.46,0,0,1-50.38,6.39Zm-40.19-4.92a218.92,218.92,0,0,0,42.33,3.76,216.28,216.28,0,0,0,49.67-6.25l-.12-39.41a381.91,381.91,0,0,1-46.53,4,375.68,375.68,0,0,1-45.48-1.67Z" transform="translate(-12.68 -20.71)" stroke="#000" stroke-miterlimit="10" stroke-width="2"/><path d="M262.3,384l.13,40.72a214,214,0,0,0,92.38-2.51l-.13-40.53A376,376,0,0,1,308,385.72,366.38,366.38,0,0,1,262.3,384Z" transform="translate(-12.68 -20.71)" fill="#a06447" stroke="#000" stroke-miterlimit="10" stroke-width="2"/><path d="M302.65,429.15a215.91,215.91,0,0,1-40.53-3.88l-.46-.09-.13-41.83.63.06a367.44,367.44,0,0,0,45.59,1.74,377.47,377.47,0,0,0,46.65-4l.65-.1.13,41.64-.43.11a213.88,213.88,0,0,1-50,6.39Zm-39.85-4.92A213.39,213.39,0,0,0,354,421.74l-.12-39.41a377.79,377.79,0,0,1-46.14,4,369.67,369.67,0,0,1-45.11-1.67Z" transform="translate(-12.68 -20.71)" stroke="#000" stroke-miterlimit="10" stroke-width="2"/><path d="M539.43,284c0-.43,11.15,2.61,14.35,3.95,10.12,4.22,19.51,10.68,25.3,20.14a46.5,46.5,0,0,1,6.42,19.76c2.39,24.16-13,46.55-37.3,51.07-17.77,3.31-35.15-4.38-49.23-14.71a38.09,38.09,0,0,1-3.58-2.74s-13.87-14.13,5.87-19.06c0,0-21-16.89,2.9-24.09,0,0-17.35-26.82,35.09-16.87C539.25,301.46,539.43,284,539.43,284Z" transform="translate(-12.68 -20.71)" fill="#fff" stroke="#000" stroke-miterlimit="10" stroke-width="2"/><path d="M539.77,380.27c-16.19,0-31-8.13-41.14-15.59l-.92-.66A25.3,25.3,0,0,1,495,361.9c-.05,0-6.16-6.26-4.7-12.13.87-3.47,4.15-6,9.76-7.63-2.4-2.15-9-8.69-7.74-15,.78-4,4.47-7,11-9.13-1.17-2.07-4.33-8.59-1-13.59,4.12-6.14,16.35-7.36,36.35-3.64.16-15.25.17-16.64.17-16.78h0l0-.3.26-.18c.9-.59,13,3.12,14.87,3.92,11.67,4.87,20.28,11.72,25.57,20.37a46.66,46.66,0,0,1,6.5,20c2.48,25-13.76,47.22-37.77,51.69A46,46,0,0,1,539.77,380.27Zm-20.28-80.44c-10.08,0-14.42,2.56-16.21,5.21-3.53,5.26,1.32,12.9,1.37,13l.41.64-.73.22c-6.51,2-10.17,4.81-10.88,8.46-1.34,6.87,8.07,14.56,8.17,14.63l.89.73-1.11.28c-5.71,1.42-9,3.74-9.93,6.89-1.48,5.24,4.27,11.15,4.33,11.21a24.75,24.75,0,0,0,2.57,2l.94.67c11.74,8.63,29.74,18.15,48.78,14.62,23.42-4.37,39.26-26.05,36.84-50.45a45.61,45.61,0,0,0-6.33-19.52c-5.17-8.44-13.6-15.14-25-19.91a109.3,109.3,0,0,0-13.57-3.9c0,3-.17,16.87-.17,16.87v.69l-.67-.13A107.51,107.51,0,0,0,519.49,299.83Z" transform="translate(-12.68 -20.71)" stroke="#000" stroke-miterlimit="10" stroke-width="2"/><rect x="519.39" y="305.25" width="1.15" height="32.36" transform="translate(90.79 748.18) rotate(-78.78)" stroke="#000" stroke-linecap="round" stroke-linejoin="round" stroke-width="2"/><rect x="516.31" y="330.03" width="1.15" height="32.39" transform="translate(47.67 748.14) rotate(-76.61)" stroke="#000" stroke-linecap="round" stroke-linejoin="round" stroke-width="2"/><rect x="549.29" y="292.65" width="1.15" height="21.37" transform="translate(140.64 769.57) rotate(-79.73)" stroke="#000" stroke-linecap="round" stroke-linejoin="round" stroke-width="2"/><path d="M61.48,283.88c0-.43-11.9,2.78-15.26,4.08C36,291.9,26.71,298.64,20.92,308.1a46.5,46.5,0,0,0-6.42,19.76c-2.39,24.16,13,46.55,37.3,51.07C69.57,382.24,87,374.55,101,364.22a38.09,38.09,0,0,0,3.58-2.74s13.87-14.13-5.87-19.06c0,0,21-16.89-2.9-24.09,0,0,17.76-27-34.67-17.05Z" transform="translate(-12.68 -20.71)" fill="#fff" stroke="#000" stroke-miterlimit="10" stroke-width="2"/><path d="M60.23,380.27a46,46,0,0,1-8.53-.78c-24-4.47-40.25-26.69-37.77-51.69a46.71,46.71,0,0,1,6.5-20c5.52-9,14.37-16.06,25.58-20.38,1.51-.58,14.85-4.66,15.77-4l.25.16,0,.32s0,0-.3,16.73c19.88-3.7,32-2.48,36.09,3.63,3.37,5,.06,11.69-1.14,13.78,6.5,2.09,10.19,5.16,11,9.13,1.23,6.32-5.34,12.86-7.74,15,5.61,1.6,8.89,4.16,9.76,7.63,1.46,5.87-4.65,12.08-4.71,12.14a26.43,26.43,0,0,1-2.7,2.11l-.92.66C91.21,372.14,76.42,380.27,60.23,380.27Zm.67-95.81a135.17,135.17,0,0,0-14.48,4c-7.65,2.95-18.21,8.79-25,19.91a45.65,45.65,0,0,0-6.33,19.52c-2.42,24.4,13.42,46.08,36.84,50.45,19,3.54,37-6,48.78-14.62l.93-.67a22.67,22.67,0,0,0,2.59-2c.05,0,5.8-5.95,4.32-11.19-.88-3.15-4.22-5.47-9.93-6.89l-1.12-.28.9-.73c.1-.07,9.51-7.76,8.17-14.63-.71-3.65-4.37-6.5-10.88-8.46l-.74-.22.43-.65c0-.07,5.07-7.85,1.53-13.16-2.64-4-11-7.69-35.61-3l-.7.14,0-.71S60.84,287.5,60.9,284.46Z" transform="translate(-12.68 -20.71)" stroke="#000" stroke-miterlimit="10" stroke-width="2"/><rect x="63.86" y="320.9" width="32.31" height="1.15" transform="translate(-73.06 0.7) rotate(-11.1)" stroke="#000" stroke-miterlimit="10" stroke-width="2"/><rect x="66.92" y="345.61" width="32.29" height="1.15" transform="translate(-91.47 8.38) rotate(-13.55)" stroke="#000" stroke-miterlimit="10" stroke-width="2"/><rect x="42.42" y="302.42" width="18.91" height="1.15" transform="matrix(0.98, -0.18, 0.18, 0.98, -66.51, -6.37)" stroke="#000" stroke-miterlimit="10" stroke-width="2"/></g><g id="Layer_3" data-name="Layer 3"><g opacity="0.61"><path d="M424.11,292.54l-9.56,4.64.28,15.89.14,3c0,1.44.2,2.33.54,2.67s.95.37,1.85.09l1.52-.57v1l-19,9.62,0-1.05L402,326.5a4.83,4.83,0,0,0,1.72-2,9.27,9.27,0,0,0,.55-3.22v-3.08l-.89-32.47-.18-3.2a6.37,6.37,0,0,0-.69-2.87c-.33-.45-1-.55-1.9-.31l-2.37.81,0-1.14,20-9.29v1.14l-1.58.95a4.57,4.57,0,0,0-1.89,2,8.48,8.48,0,0,0-.46,3.38l0,3.27.27,15.21L424.1,291,424,275.89l-.12-3.17a6.15,6.15,0,0,0-.61-2.86c-.31-.4-.92-.49-1.82-.25l-1.58.51V269l19.3-9v1.13l-2.21,1.3a4.69,4.69,0,0,0-1.72,2,10.26,10.26,0,0,0-.62,3.37l-.09,3.24v32.07l.08,3a5.78,5.78,0,0,0,.56,2.62c.28.4.85.47,1.69.21l2-.76v1l-18.39,9.3,0-1,1.51-1a4.79,4.79,0,0,0,1.74-1.86,9.74,9.74,0,0,0,.52-3.22l.05-3.06Z" transform="translate(-12.68 -20.71)"/><path d="M462.84,281.91A29,29,0,0,1,459.39,295q-3.27,6.13-7.58,8.31-4.57,2.32-7.66-.66t-3.07-10a29.22,29.22,0,0,1,3.32-13.39c2.19-4.22,4.83-7.08,7.92-8.55s5.56-1.1,7.63,1S463,277.21,462.84,281.91Zm-7.93,3.84c0-.61,0-1.84,0-3.67s0-2.93,0-3.29a19,19,0,0,0-.56-5.65c-.42-1.36-1.11-1.81-2.06-1.36s-1.55,1.57-2,3.44a26.33,26.33,0,0,0-.77,6.22c0,.84-.05,1.89-.1,3.13s-.11,2.57-.16,4c0,.61,0,1.87,0,3.75s0,3,0,3.26a17.65,17.65,0,0,0,.59,5.45q.61,1.92,2,1.23c.87-.44,1.54-1.54,2-3.31a25,25,0,0,0,.78-6.05q0-1.29.09-3.12C454.77,288.57,454.83,287.23,454.91,285.75Z" transform="translate(-12.68 -20.71)"/><path d="M479.53,266.55l-.66-3.45c-.17-.79-.34-1.44-.5-2s-.43-.74-.82-.69l-.85.28,0-1.07L488.6,254l-.05,1.06-.58.28a4.93,4.93,0,0,0-.85.6,2.53,2.53,0,0,0-.61,1.86c0,.31,0,.62,0,.91s.11,1.07.29,2.29.48,3,.9,5.39.74,4.19,1,5.54l3.18-13a29.24,29.24,0,0,0,.68-3.95c0-.66,0-1-.2-1.13a1.08,1.08,0,0,0-.71-.05,4.92,4.92,0,0,0-.77.21,6,6,0,0,0-.63.27l0-1.07,6.39-3.06-.06,1.06-1.39.93q-1.17.89-2.38,5.6l-6.77,27.89L483.36,287l-3.54-19-5.75,23.7L471.35,293c-.33-1.63-.66-3.31-1-5s-1-4.87-1.92-9.45-1.56-7.66-1.87-9a19.13,19.13,0,0,0-.7-2.58.63.63,0,0,0-.69-.43,4,4,0,0,0-.94.25c-.3.13-.59.25-.86.38l0-1.08,12.49-6,0,1.07-.28.13a5.73,5.73,0,0,0-.69.53,2.59,2.59,0,0,0-.59,1.87c0,.31,0,.61,0,.91s.11.95.28,1.93.46,2.6.87,4.82.82,4.42,1.27,6.63Z" transform="translate(-12.68 -20.71)"/><path d="M402.54,376.11l-2.81,1.53-.05-1.62a19.59,19.59,0,0,0,2.88-3.62,48.48,48.48,0,0,0,2.83-5,52.88,52.88,0,0,0,2.23-5.12,43.73,43.73,0,0,0,1.35-4.19l1.16-.62.28,12.07,5.29-2.88-.52,2.58-4.72,2.57.37,16,.14,2.9a5.17,5.17,0,0,0,.84,3.3,1.42,1.42,0,0,0,1.92.19,5,5,0,0,0,2.21-3.12,14.75,14.75,0,0,0,.63-4.55l.56-.31a16.62,16.62,0,0,1-1.2,6.37c-.84,2.1-2.68,3.95-5.55,5.58a5.69,5.69,0,0,1-5,.72q-2.21-.84-2.32-4.58Z" transform="translate(-12.68 -20.71)"/><path d="M438.26,368.26a24.83,24.83,0,0,1-3.11,11.85q-3.09,5.75-7.28,8.12c-3,1.68-5.49,1.77-7.54.23s-3.16-4.36-3.22-8.46a24.91,24.91,0,0,1,3-12.11q3.09-5.91,7.59-8.35t7.52.07C437.26,361.23,438.28,364.12,438.26,368.26Zm-7.71,4.22q0-.81-.09-3.21c-.06-1.61-.09-2.58-.09-2.89a14.46,14.46,0,0,0-.67-4.9c-.44-1.15-1.12-1.47-2.05-1s-1.49,1.54-1.93,3.23a21.13,21.13,0,0,0-.63,5.54q0,1.13,0,2.76c0,1.1-.06,2.27-.07,3.53,0,.54,0,1.64.11,3.29s.1,2.6.1,2.86a13.5,13.5,0,0,0,.69,4.73c.44,1.08,1.09,1.37,2,.88a4.87,4.87,0,0,0,1.92-3.14,20.49,20.49,0,0,0,.64-5.39c0-.77,0-1.68,0-2.75S430.5,373.79,430.55,372.48Z" transform="translate(-12.68 -20.71)"/><path d="M417.07,439.58l.21,12,.12,2.27a3,3,0,0,0,.63,1.95c.33.27.87.23,1.64-.1l1.88-1v.79l-17.87,11.07,0-.8,1.17-.73,1.57-1.25a4.14,4.14,0,0,0,1.17-1.48,7.3,7.3,0,0,0,.48-2.58v-2.37l-.67-24.62-.15-2.42a3.38,3.38,0,0,0-.65-2.07,1.24,1.24,0,0,0-1.35-.08,13.32,13.32,0,0,0-1.49.69c-.42.23-.81.43-1.18.61l0-.86,17.32-10.24a42.64,42.64,0,0,1,5.74-2.94,5.23,5.23,0,0,1,3.58-.38,4,4,0,0,1,2.18,1.89,7.82,7.82,0,0,1,.81,3.89,19.07,19.07,0,0,1-.45,4,16.55,16.55,0,0,1-1.42,4,15.62,15.62,0,0,1-2.37,3.46,20.37,20.37,0,0,1-4.54,3.47v.36c1.27-.38,2.33-.66,3.19-.83a4.45,4.45,0,0,1,2.31.11,3.67,3.67,0,0,1,1.87,1.78,13.38,13.38,0,0,1,1.34,3.37,12.24,12.24,0,0,0,.92,2.63.71.71,0,0,0,1.12.25,3.36,3.36,0,0,0,1.24-2.45,24.53,24.53,0,0,0,.31-4.06l.58-.35a31.93,31.93,0,0,1-.22,4.07,16.52,16.52,0,0,1-3.55,7.77,14.07,14.07,0,0,1-3.48,3.13c-2,1.22-3.53,1.42-4.73.59s-2-2.42-2.28-4.8-.57-4.43-.77-6.1c-.3-1.83-.67-2.78-1.13-2.83a2.45,2.45,0,0,0-1.47.33C418.12,439,417.6,439.26,417.07,439.58Zm3-2.91a7.45,7.45,0,0,0,2.12-4.16,26.25,26.25,0,0,0,.66-6.16,13.44,13.44,0,0,0-.82-4.67c-.52-1.4-1.15-2-1.86-1.9a7.1,7.1,0,0,0-1.92.64l-1.49.78.3,17.44,1.28-.77A12.74,12.74,0,0,0,420.06,436.67Z" transform="translate(-12.68 -20.71)"/><path d="M454.88,427.48a25.73,25.73,0,0,1-3.27,7.82,16.49,16.49,0,0,1-5.15,5.28c-2.78,1.72-5.07,2.06-6.86,1s-2.71-3.56-2.7-7.48a22.7,22.7,0,0,1,2.89-10.85,19.44,19.44,0,0,1,6.87-7.72q4.14-2.47,6.26-.41c1.4,1.36,2.07,3.65,2,6.85L444,428.59a33.09,33.09,0,0,0,.16,3.61,12.54,12.54,0,0,0,.71,3.2,3.11,3.11,0,0,0,1.51,1.88,2.64,2.64,0,0,0,2.48-.47,9.39,9.39,0,0,0,3.43-3.82,24.59,24.59,0,0,0,2-5.51Zm-6.13-2.77c0-.36,0-.8,0-1.3s0-1.15,0-1.94a12.78,12.78,0,0,0-.47-4.45c-.34-.88-.95-1-1.83-.52a3.87,3.87,0,0,0-1.61,2.54,30.38,30.38,0,0,0-.67,5.2l-.11,3.33Z" transform="translate(-12.68 -20.71)"/><path d="M457.79,411.32l-2.4,1.44,0-1.4a19.27,19.27,0,0,0,2.56-3.25,49.15,49.15,0,0,0,2.57-4.47c.83-1.6,1.52-3.11,2.08-4.51s1-2.63,1.31-3.68l1-.59-.31,10.42,4.53-2.71-.55,2.25-4,2.43-.41,13.86v2.51a4.36,4.36,0,0,0,.55,2.84,1.13,1.13,0,0,0,1.59.09,5,5,0,0,0,2-2.8,14,14,0,0,0,.73-4l.48-.3a15.48,15.48,0,0,1-1.28,5.59,11.6,11.6,0,0,1-4.88,5.08,4.78,4.78,0,0,1-4.16.83c-1.2-.44-1.77-1.74-1.72-3.9Z" transform="translate(-12.68 -20.71)"/><path d="M480,419.33l-10.9,6.75,0-.79.81-.55a3.33,3.33,0,0,0,1.21-1.43,10.13,10.13,0,0,0,.29-2.51l.12-2.31.45-12.08,0-2.08a11.37,11.37,0,0,0-.14-1.73c-.08-.36-.48-.37-1.22,0l-.93.46,0-.83,9-5.42L478,414.49l-.06,2.27a7.41,7.41,0,0,0,.09,2.23q.18.45,1.14,0l.79-.45Zm-7.56-27.23a9.69,9.69,0,0,1,1.13-4.1,6.79,6.79,0,0,1,2.45-2.87,1.87,1.87,0,0,1,2.36,0,3.62,3.62,0,0,1,.84,3,9.74,9.74,0,0,1-1.14,4.12,6.84,6.84,0,0,1-2.46,2.87,1.81,1.81,0,0,1-2.32,0A3.69,3.69,0,0,1,472.41,392.1Z" transform="translate(-12.68 -20.71)"/><path d="M480.4,419.06l0-.79.89-.6a3.22,3.22,0,0,0,1.2-1.41,10.75,10.75,0,0,0,.31-2.49l.14-2.31.58-12,.07-2.07a11.12,11.12,0,0,0-.11-1.73c-.07-.35-.47-.37-1.18,0l-.88.43,0-.83,8.75-5.24-.23,4.3c.19-.7.56-1.82,1.13-3.35a7.93,7.93,0,0,1,3.58-3.94,1.92,1.92,0,0,1,2.6.11,4.44,4.44,0,0,1,.85,3.39,11.24,11.24,0,0,1-1.27,4.5,7.58,7.58,0,0,1-2.63,3.08,1.58,1.58,0,0,1-2.08,0,3.06,3.06,0,0,1-.74-2.51,11.46,11.46,0,0,1,.43-2.52q.39-1.17.78-2.4c-.1-.17-.2-.22-.32-.16a4.84,4.84,0,0,0-1.58,2.49,11.88,11.88,0,0,0-.79,3.34l-.63,11.61-.11,2.46a3.86,3.86,0,0,0,.13,1.73c.13.24.49.22,1.09,0l1-.5-.05.78Z" transform="translate(-12.68 -20.71)"/><path d="M514.09,391.17a27.19,27.19,0,0,1-3.28,7.54,15.61,15.61,0,0,1-4.77,4.94c-2.51,1.55-4.5,1.76-6,.62s-2.13-3.64-1.89-7.51a24.92,24.92,0,0,1,3.14-10.53,18.59,18.59,0,0,1,6.38-7.24c2.49-1.49,4.3-1.51,5.44-.09s1.58,3.7,1.33,6.84l-9.8,6c-.08,1.2-.11,2.39-.08,3.56a13.92,13.92,0,0,0,.42,3.19,3.05,3.05,0,0,0,1.2,1.93c.55.33,1.28.22,2.18-.34a9,9,0,0,0,3.19-3.58,26.38,26.38,0,0,0,2.05-5.33Zm-5.13-3c0-.36,0-.79,0-1.28s.07-1.13.13-1.91a14.68,14.68,0,0,0-.14-4.41c-.25-.87-.77-1.08-1.56-.6a3.94,3.94,0,0,0-1.54,2.41,35.05,35.05,0,0,0-.89,5.09l-.28,3.27Z" transform="translate(-12.68 -20.71)"/></g></g></svg>