<svg id="Layer_4" data-name="Layer 4" xmlns="http://www.w3.org/2000/svg" viewBox="0 0 650.56 690.39"><g id="legFull"><ellipse cx="418.56" cy="681.66" rx="227.25" ry="8.73" fill="#232323" opacity="0.29" style="isolation:isolate"/><path d="M185.71,610.87a29.51,29.51,0,0,0-9,1.84,31.69,31.69,0,0,0-15.62,12.92c-5,8.12-4.75,16.09-4.57,20.26a32.73,32.73,0,0,0,3,13.63c4.7,9.5,13.89,13.57,19,15.72,10.64,4.54,20.71,4.1,40.42,3,13.95-.75,7.39-1.55,36-4.73,9.94-1.11,16.71-1.68,23.36-6.78,5.27-4.05,10.35-10.85,9-12.67-.21-.3-.79-.74-4-.17A33.81,33.81,0,0,0,272,658.36c-4.15,2.28-4.68.74-20.73,2.62-9.94,1.16-8,1.55-15.3,2.21-10.86,1-15.09.12-18.91,2.42-.45.26-1.66,1-2.62.6-1.65-.76-1.37-4.59-1.29-6,.26-5-.76-9.56-2.78-18.71-1.51-6.79-2.83-12.76-7.79-17.18-3.84-3.43-8.09-4.31-14.5-10.81C187.09,612.42,186.25,611.49,185.71,610.87Z" transform="translate(0 -0.03)" fill="#fff8e9" stroke="#232323" stroke-miterlimit="10" stroke-width="0.91"/><path d="M182.89,610.45a41,41,0,0,1,17.74,11.47,42.29,42.29,0,0,1,8.52,15.23c5.1,15.18.43,25.89,5.57,28.61,2,1.06,3.31-.24,9.4-1.84,5.83-1.54,6.52-.7,26.11-2.24.61,0,8.91-.7,19.74-2.22,6.53-.92,11.39-1.79,14.76-5.72a15.86,15.86,0,0,0,3.07-6c1.31-4.39.6-7.65-.26-13.25-1.51-9.87-2.42-15.84-1.91-22.55s.91-8.86.91-8.86c.81-4.44,1.53-5.37,1-7.25-.29-1.06-1.12-2.9-7.68-6.69-5.19-3-7.79-4.51-10.78-5.11-8.12-1.64-11.34,2.69-17.16-.27-1.58-.81-2.86-1.91-5.11-1.93-.73,0-2.59.09-6.16,2.53-2.57,1.76-5.26,3.52-7.24,7-1.06,1.88-3.06,5.43-2.42,9.46.19,1.19.57,2.15,0,3-.78,1.22-2.37.69-5.43,1.61-1.85.56-4,1.2-5.43,3-1.14,1.42-1,2.44-2.22,3.22-.87.55-1.86.61-3.62.4-4.45-.53-5.86-1.87-9.83-2.5-.36,0-1.71-.12-4.41-.26-4.69-.24-7-.36-8.74-.29A34.88,34.88,0,0,0,182.89,610.45Z" transform="translate(0 -0.03)" fill="#765ba7" stroke="#232323" stroke-miterlimit="10" stroke-width="2"/><path d="M207.52,667.78c15.15-3,30.5-4.82,45.86-6.46,8.73-.93,19.23-1.15,27.19-5.24a13.82,13.82,0,0,0,6.13-6.2,12.47,12.47,0,0,0,1.14-4.1" transform="translate(0 -0.03)" fill="none" stroke="#232323" stroke-miterlimit="10" stroke-width="3.62"/><path d="M245.67,593.68c.58-26.76-21.36-64.46-7.31-109.87,4.51-14.6,24.41-67.71,25.18-76.39v-.17c.69-7.05,5.76-13.94,13.59-13.59.47,0,6.71-.47,9.07,3.27,1.93,3.07.22,7.34-.36,8.8-19.3,48.42-28.95,72.56-31.75,87.74-5.55,29.59,1.39,75.48,11.68,96.6,1.33,2.74,5.11,10,2.27,13.67-3.41,4.45-16,3.2-20.44-3.19A11.62,11.62,0,0,1,245.67,593.68Z" transform="translate(0 -0.03)" fill="#232323" stroke="#232323" stroke-miterlimit="10" stroke-width="2.72"/><path d="M231,599.65a2.07,2.07,0,0,0,.08.7c.79,5.43,5.62,9.19,10.19,11.54,13,6.69,32.77,8,43-4.34,5.2-6.27,2.87-13.6-3.55-17.93a54.87,54.87,0,0,0-20.12-7.89c-6.65-1.21-14-1.12-19.93,2.6a23,23,0,0,0-8.29,8.87A12.67,12.67,0,0,0,231,599.65Z" transform="translate(0 -0.03)" fill="none" stroke="#232323" stroke-miterlimit="10" stroke-width="3.62"/><path d="M232,604a7,7,0,0,0-1.55-.41c-2.23-.29-4.43.68-6.34,1.87-7.9,4.94-12.69,5.9-21.85,4.17-14-2.65-29.66,1.83-38.7,13.19-8.28,10.41-8.94,25.41-3.71,37.33,6.06,13.8,21.61,16.75,35.06,17.83a191.27,191.27,0,0,0,44.78-1.94c13.13-2.06,29.36-4.3,41.24-10.59,7.35-3.9,6.86-15.72,7-22.81.25-14.16-4.63-28.14-.77-42-2.34,8.4-10.17,13.39-18.41,14.92A40.18,40.18,0,0,1,248.22,614a36.76,36.76,0,0,1-9.71-5.14C236.35,607.31,234.46,605,232,604Z" transform="translate(0 -0.03)" fill="none" stroke="#232323" stroke-miterlimit="10" stroke-width="3.62"/><path d="M220,625.25c1,2.48,2,4.83,2.18,5.64l.11.69-.11-.69c-1.36-7.89-7.37-13.65-7.37-13.65-4.28-4.11-9.61-6.1-9.49-6.33,0-.06.3,0,.35.06a26.27,26.27,0,0,0,7.93,1.13c1.23-.07,3.42-.61,6-3.66-2.77,4.91-2.72,8.25-2.07,10.46.37,1.28,1.45,3.88,2.47,6.35" transform="translate(0 -0.03)" fill="#232323" stroke="#232323" stroke-miterlimit="10" stroke-width="3.62"/><path d="M188.81,614c7.48,2.52,13.85,8.87,17.43,16a64.68,64.68,0,0,1,5.59,18.17,86.79,86.79,0,0,1,1.41,13.46,6.91,6.91,0,0,1-.62,3.5,5.05,5.05,0,0,1-2.77,2.14c-2.11.74-4.4.62-6.6.73a63.8,63.8,0,0,1-11.31-.44,55,55,0,0,1-19.6-5.94c-11-6.11-17.78-17.67-13.88-30.17a27.5,27.5,0,0,1,16.11-17.28A20.92,20.92,0,0,1,188.81,614Z" transform="translate(0 -0.03)" fill="none" stroke="#232323" stroke-miterlimit="10" stroke-width="3.62"/></g><g id="torsoUpper"><path d="M356.39,308.44c2.81,7.64,4.22,11.47,4.4,12.24,3.72,15.68-18.18,40.25-43.08,51.32-27.92,12.42-61.13,8.34-71.45-4.23-5-6.09-2.55-9-7.95-33.72-7.43-34-13.75-36.17-11-47.53,6.36-25.84,44.4-36.35,47.7-37.22,8.4-2.22,24.08-6.35,39.82.49,21.87,9.51,31.78,33.12,33.65,37.67C349.68,290.5,353.38,300.25,356.39,308.44Z" transform="translate(0 -0.03)" fill="#232323"/></g><g id="torsoLower"><path d="M247.09,372.15a64.53,64.53,0,0,0,5.54,10.08c2.2,3.19,4.33,7,4,11-.4,4.62-5.47,6.55-6,11-.6,4.82,3.75,9.17,7.21,11.91a35.77,35.77,0,0,0,13.65,6.44,82.66,82.66,0,0,0,29.33,1.31c4.88-.62,7.29-3.56,5.39-8.36-1.4-3.54-1.41-4.43-1.06-5.49.89-2.66,7.25-2.59,10.42-2.8,17.75-1.22,22.42-17.56,34-14.83,2.47.59,3.72,1.68,14.58,5.43,2.86,1,3.93,1.31,5.45,1.31,5.2,0,9.85-3.42,12.93-8.07,4.13-6.25,5.37-13.92,5.53-21.27.14-6.79.62-14.35-2.49-20.62a11.26,11.26,0,0,0-4.15-4.71c-4.68-2.77-11.51-1.32-15.86,1.41a21.66,21.66,0,0,0-2.84,2,16,16,0,0,0,4.37-6.74c2.46-7.77-2.17-16.35-6.29-20.43-7.66-7.58-76.9,5-91.94,10.9-20.68,8.07-23.56,13.57-24.58,16.15C241.39,355.26,243.57,365.59,247.09,372.15Z" transform="translate(0 -0.03)" fill="#765ba7" stroke="#232323" stroke-miterlimit="10" stroke-width="2"/><g id="Layer_12" data-name="Layer 12"><path d="M312.43,407.37q-23.71-3.18-23.69-6.12a1,1,0,0,1,.28-.62" transform="translate(0 -0.03)" fill="#765ba7" stroke="#232323" stroke-miterlimit="10" stroke-width="2"/></g><ellipse cx="375.74" cy="372.35" rx="12" ry="24.18" fill="#765ba7" stroke="#232323" stroke-miterlimit="10" stroke-width="2"/></g><g id="leftArm"><path d="M95.68,276h0c-.73,5.06,8.46,10.23,19.18,10.9a686.17,686.17,0,0,1,115.42,16.67c10.44,2.45,20.74,0,21.47-5h0c.58-4-5.11-8.26-13.39-10.11a846,846,0,0,0-127-18.34C102.92,269.48,96.26,272,95.68,276Z" transform="translate(0 -0.03)" fill="#232323" stroke="#232323" stroke-miterlimit="10" stroke-width="2.64"/></g><g id="ring"><g id="outerRing1"><path d="M203.69,253.08,162.9,240.9l23.26-15.75L160.58,210l30.57-8.8-14.72-20.5,33.23-.44L208,157.47l30.85,8L250.55,144l23.73,15.16,23.26-17,13,20,31.28-9.91.34,21.9,34.53-1.31L364.28,193.2l32.53,7.49-23.26,15.8,25.58,15.15-30.58,8.79" transform="translate(0 -0.03)" fill="#ffe757" stroke="#232323" stroke-miterlimit="10" stroke-width="1.63" fill-rule="evenodd"/></g></g><g id="leftHand"><g id="Layer_22" data-name="Layer 22"><path d="M69.59,236.88a15.28,15.28,0,0,0-.93-1.56c-3.6-5.36-11.5-10.68-19.32-9.15-10.1,2-16.86,14.75-14,19,2.65,3.92,13.66.83,17-.17" transform="translate(0 -0.03)" fill="#fff" stroke="#232323" stroke-miterlimit="10" stroke-width="1.81"/></g><g id="wand"><rect x="45.27" y="184.16" width="14.25" height="151.41" transform="translate(-54.12 17.08) rotate(-12.29)" fill="#ffe757" stroke="#232323" stroke-miterlimit="10" stroke-width="1.74"/><polygon points="59.11 202.55 38.18 196.77 21.55 210.74 20.58 189.04 2.16 177.54 22.49 169.92 27.74 148.85 41.27 165.83 62.93 164.3 50.97 182.42 59.11 202.55" fill="#ffe757" stroke="#232323" stroke-miterlimit="10" stroke-width="1.92"/><path d="M33.17,202.85c.19,3.86,8.73,3.69,12.48,10.35,1.91,3.39,1.54,6.8,1.5,8.67C46.66,245.15,65.09,285,66.49,310a76.3,76.3,0,0,0,5.33,16.83c.73,1.65,2.73,6.19,3.33,6,.9-.29-2-10.86-4.92-22.88-8.24-33.83-9-47.4-14.68-67.61-.8-2.86-2-7.1-3.23-13.18-.8-4.16-2-10.19-2.67-16.75-.3-3-1.47-5.84-1.5-8.83a5.49,5.49,0,0,0-1.06-3.84c-.52-.53-1.11-.75-3.1-1.24-3-.75-4.54-1.12-5.17-1C36.18,197.85,33,200.47,33.17,202.85Z" transform="translate(0 -0.03)" fill="#232323" opacity="0.44" style="isolation:isolate"/></g><ellipse cx="98.15" cy="276.12" rx="16.83" ry="26.42" transform="translate(-15.31 5.9) rotate(-3.21)" fill="#fff" stroke="#232323" stroke-miterlimit="10" stroke-width="1.81"/><path d="M69,235.71A9.68,9.68,0,0,0,72.3,239c14.09,8.75,30.43,15.35,25.59,43.34s-26.66,29.42-34.09,25.3c-.22-.12-1.76.64-2,.72a38.78,38.78,0,0,1-12.16,2.09,18.63,18.63,0,0,1-9.78-2.56A9.85,9.85,0,0,1,36,303.79c-1.93-4.29.53-9.47-.91-13.94-.8-2.48-2.75-4.56-3-7.15-.31-2.82,1.44-5.48,1.53-8.31.1-3.16-1.86-6-2.23-9.17a12.56,12.56,0,0,1,3.1-9.08,33,33,0,0,1,14.88-10.32" transform="translate(0 -0.03)" fill="#fff" stroke="#232323" stroke-miterlimit="10" stroke-width="1.81"/><g id="Layer_23" data-name="Layer 23"><path d="M49.18,245.78c.34,0,5-.14,6.26-2.85a3.42,3.42,0,0,0,.27-1.09" transform="translate(0 -0.03)" fill="none" stroke="#232323" stroke-miterlimit="10" stroke-width="2"/></g><path d="M63.8,307.67c-.07-.79,5.74-1,13-4.34,2.94-1.36,2.46-1.54,8.22-4.77s8.56-4.78,12.48-6a34.18,34.18,0,0,1,11.78-.78c1,.08,2,.18,2.28.81.86,1.64-2.85,6-7.3,7.91-1.26.53-5.14,2.15-8.76.62-2.39-1-3.38-2.88-4.88-2.45-1.17.33-1.38,1.68-2.29,3.16-1.58,2.56-4,3.56-7.64,5a27.27,27.27,0,0,1-11.93,1.6C67.4,308.41,63.86,308.28,63.8,307.67Z" transform="translate(0 -0.03)" fill="#232323" stroke="#232323" stroke-miterlimit="10" opacity="0.44" style="isolation:isolate"/></g><g id="legOutside"><path d="M578.62,469.76a29.78,29.78,0,0,0,1.14,9.15,31.63,31.63,0,0,0,11.69,16.54c7.71,5.61,15.67,6,19.84,6.11a32.54,32.54,0,0,0,13.82-2c9.84-3.95,14.6-12.8,17.14-17.68,5.34-10.27,5.68-20.34,6.14-40.07.32-14-1-7.49-2-36.26-.34-10-.38-16.79-5-23.82-3.63-5.56-10-11.15-11.94-10-.31.2-.8.74-.47,3.95a33.45,33.45,0,0,0,3.55,11.58c2,4.31.38,4.72,1,20.87.39,10,.93,8.12,1,15.42.15,10.91-1,15.06,1,19.05.23.46.91,1.73.4,2.65-.88,1.59-4.68,1-6.11.83-4.94-.65-9.59,0-18.87,1.33-6.88,1-12.94,1.84-17.72,6.44-3.72,3.57-4.93,7.73-11.9,13.63A25.74,25.74,0,0,1,578.62,469.76Z" transform="translate(0 -0.03)" fill="#fff8e9" stroke="#232323" stroke-miterlimit="10" stroke-width="0.91"/><path d="M578,472.54a41.13,41.13,0,0,1,12.81-16.81,42.45,42.45,0,0,1,15.82-7.32c15.53-3.92,25.84,1.56,29-3.35,1.21-1.91,0-3.32-1.11-9.52-1.09-5.93-.19-6.55-.22-26.2,0-.61,0-8.94-.7-19.86-.41-6.58-.91-11.49-4.56-15.14a15.94,15.94,0,0,0-5.79-3.54c-4.27-1.64-7.58-1.18-13.23-.76-10,.75-16,1.2-22.63.18s-8.77-1.6-8.77-1.6c-4.36-1.15-5.23-1.94-7.14-1.56-1.08.22-3,.91-7.27,7.15-3.4,5-5.1,7.42-5.93,10.35-2.25,8,1.82,11.52-1.59,17.09-.92,1.52-2.11,2.71-2.31,5-.06.72-.11,2.59,2,6.33,1.56,2.7,3.1,5.52,6.46,7.77,1.79,1.2,5.18,3.47,9.25,3.14,1.2-.1,2.18-.4,3,.23,1.15.87.5,2.41,1.19,5.54.41,1.89.88,4.06,2.59,5.65,1.33,1.24,2.36,1.15,3,2.45.47.91.47,1.9.12,3.65-.87,4.39-2.32,5.69-3.25,9.61-.08.34-.26,1.69-.6,4.37-.6,4.66-.9,7-1,8.69A35.29,35.29,0,0,0,578,472.54Z" transform="translate(0 -0.03)" fill="#765ba7" stroke="#232323" stroke-miterlimit="10" stroke-width="2"/><path d="M637,452.4c-1.86-15.34-2.47-30.79-2.92-46.22-.25-8.78.33-19.27-3.13-27.52a13.84,13.84,0,0,0-5.71-6.59,12.4,12.4,0,0,0-4-1.45" transform="translate(0 -0.03)" fill="none" stroke="#232323" stroke-miterlimit="10" stroke-width="3.62"/><path d="M560.37,408.33c-47.39,7.48-71.08,11.22-171.31-17.6-7.77-2.23-16.76-5-22.73-10.72-3.89-3.7-4.87-8.68-3.5-13.75.67-2.47,4.61-12.67,7.6-12.78a3.28,3.28,0,0,1,1.73.6c39,22.08,84.62,38.6,130.08,36.16,10.75-.58,21.43-1.85,32.09-3.36,8.9-1.27,18.14-5.16,27.19-4.33a14.66,14.66,0,0,1,6.53,2c5.41,3.42,6.67,12.75,3.34,18C570.89,403.29,568.31,407.07,560.37,408.33Z" transform="translate(0 -0.03)" fill="#232323"/><path d="M570.92,423.76h.71c5.47-.37,9.59-4.9,12.28-9.27,7.68-12.46,10.5-32.06-1-43.2-5.86-5.67-13.34-3.91-18.16,2.16a55.07,55.07,0,0,0-9.41,19.45c-1.72,6.53-2.2,13.92,1.06,20.07a23.1,23.1,0,0,0,8.21,9A12.66,12.66,0,0,0,570.92,423.76Z" transform="translate(0 -0.03)" fill="none" stroke="#232323" stroke-miterlimit="10" stroke-width="3.62"/><path d="M575.8,423.3c-1.63,4.72,1.14,8.29,2.85,13.16,2,5.63,1.57,11,0,16.74-3.71,13.73-.45,29.71,10.18,39.59,9.74,9.06,24.64,10.88,36.93,6.58,17.18-6,20-27.26,21.54-42.87,2.32-24.31,3-54.59-6.94-77.45-3.32-7.63-15.14-8-22.2-8.71-14.1-1.34-28.41,2.45-41.93-2.46,11.1,4,14.79,15.16,13.51,26.11a48.29,48.29,0,0,1-4.87,15.9c-2,4.1-5.59,7.2-8,11.08A12,12,0,0,0,575.8,423.3Z" transform="translate(0 -0.03)" fill="none" stroke="#232323" stroke-miterlimit="10" stroke-width="3.62"/><path d="M595.6,436.65c2.55-.83,5-1.62,5.8-1.74l.68-.06-.68.06c-8,.74-14.19,6.3-14.19,6.3-4.42,4-6.81,9.11-7,9a2,2,0,0,1,.09-.35A25.94,25.94,0,0,0,582,442c0-1.22-.35-3.45-3.19-6.26,4.68,3.14,8,3.35,10.26,2.87,1.32-.27,4-1.14,6.53-2" transform="translate(0 -0.03)" fill="#232323" stroke="#232323" stroke-miterlimit="10" stroke-width="3.62"/><path d="M582,466.91c3.09-7.27,9.91-13.13,17.33-16.15a65.16,65.16,0,0,1,18.53-4.18,87.33,87.33,0,0,1,13.53-.36,6.91,6.91,0,0,1,3.44.88,4.92,4.92,0,0,1,1.92,2.93c.58,2.16.28,4.43.22,6.63a64.43,64.43,0,0,1-1.3,11.25A55,55,0,0,1,628.24,487c-6.94,10.55-19,16.37-31.15,11.52a27.48,27.48,0,0,1-16-17.36A20.85,20.85,0,0,1,582,466.91Z" transform="translate(0 -0.03)" fill="none" stroke="#232323" stroke-miterlimit="10" stroke-width="3.62"/></g><g id="rightHand"><path d="M490.66,257.37h0c.73,5.06-8.46,10.23-19.18,10.9a685.82,685.82,0,0,0-115.39,16.67c-10.44,2.45-20.75,0-21.48-5h0c-.57-4,5.12-8.26,13.4-10.11a846,846,0,0,1,127-18.34C483.41,250.9,490.09,253.39,490.66,257.37Z" transform="translate(0 -0.03)" fill="#232323" stroke="#232323" stroke-miterlimit="10" stroke-width="2.64"/><ellipse cx="483.4" cy="254.63" rx="13.73" ry="21.56" transform="translate(-10.81 21.65) rotate(-2.54)" fill="#fff" stroke="#232323" stroke-miterlimit="10" stroke-width="1.81"/><path d="M491.09,258.44s-13.91-8.18-11.34-21.29a17.81,17.81,0,0,1,5-9.14c11.84-11.75,15.82-18.77,19.48-26.27,4.8-9.82,20-8.54,19.75,4-.18,10-9.39,17.08-13.19,19.6a.29.29,0,0,0,.22.52c7.75-1.9,38-7.94,51.72,9.54,6.59,8.4-.14,18.65-27.14,9.51,0,0,32.55,12.79,26.38,29.47s-20.88-1.8-20.88-1.8,13.69,21.75,3.64,26.68-20.69-9.6-20.38-21.38c0,0-16,7.72-26.88,2S491.09,258.44,491.09,258.44Z" transform="translate(0 -0.03)" fill="#fff" stroke="#232323" stroke-miterlimit="10" stroke-width="1.81"/><path d="M526,262.29a24.84,24.84,0,0,1,15.74,11.3" transform="translate(0 -0.03)" fill="none" stroke="#232323" stroke-linecap="round" stroke-miterlimit="10" stroke-width="1.81"/><path d="M504.4,229.73s12.26,8.89,1.8,30.7" transform="translate(0 -0.03)" fill="none" stroke="#232323" stroke-miterlimit="10" stroke-width="1.81"/><path d="M528.92,243.76s5.69-.3,13,4" transform="translate(0 -0.03)" fill="none" stroke="#232323" stroke-linecap="round" stroke-miterlimit="10" stroke-width="1.81"/><path d="M526.61,236.46s6.52,13.52-2.82,30.39" transform="translate(0 -0.03)" fill="none" stroke="#232323" stroke-linecap="round" stroke-miterlimit="10" stroke-width="1.81"/></g><g id="head1"><g id="groupHead"><g id="faceGroup1"><circle cx="281.54" cy="214.48" r="77.04" fill="#ff7545"/><circle id="HeadOutline" cx="281.57" cy="214.41" r="77.39" fill="none" stroke="#232323" stroke-miterlimit="10" stroke-width="2.3"/><g id="ring-2"><g id="outerRing1-2"><path d="M397.52,231.66c.06.28.11.56.17.84l-38.17,16.65,20.88,15.26-25.71,7.74,11.69,20.19L338.7,292l.73,22L314,305.52,303.64,326,284.3,310.85l-19.85,15.88L254.17,307l-26.33,8.83.34-21.18-28.79.47,10.9-19.42-26.88-8L203.22,253" transform="translate(0 -0.03)" fill="#ffe757" stroke="#232323" stroke-miterlimit="10" stroke-width="1.46" fill-rule="evenodd"/></g></g><path d="M267.84,222.65c-6.78-4.77-18.39-4-25.92.45-.91-12.93-2.09-34.68,5.09-43.33,4.36-5.25,12.43-7.07,17.43.54C270.75,189.89,268.45,208.64,267.84,222.65Z" transform="translate(0 -0.03)" fill="#fff" stroke="#232323" stroke-linecap="round" stroke-linejoin="round" stroke-width="2.72"/><path d="M271,225.85a12.48,12.48,0,0,0-3.2-3.2" transform="translate(0 -0.03)" fill="none" stroke="#232323" stroke-linecap="round" stroke-linejoin="round" stroke-width="2.72"/><path d="M241.92,223.15h0a17.22,17.22,0,0,0-4.75,4" transform="translate(0 -0.03)" fill="none" stroke="#232323" stroke-linecap="round" stroke-linejoin="round" stroke-width="2.72"/><path d="M247.24,218.76c5.07-1.86,11.17-2.12,15.87-.27C265.87,165.58,242.72,176.51,247.24,218.76Z" transform="translate(0 -0.03)" fill="#232323" stroke="#232323" stroke-linecap="round" stroke-linejoin="round" stroke-width="2.33"/><path d="M262.9,199.92c-6.41-1.18-7.17-11.4-7.64-17.11-.61,4.05-1.63,11.63-4.28,14.47a10.74,10.74,0,0,1-4,2.89s2.19.18,4.8,3.07,2.34,9.2,3.36,13.94C256.09,211.76,257.5,201.85,262.9,199.92Z" transform="translate(0 -0.03)" fill="#fff" stroke="#232323" stroke-linecap="round" stroke-linejoin="round" stroke-width="0.64"/><path d="M245.62,172.42c3.9-6.59,12.14-12.36,16.38-7.18" transform="translate(0 -0.03)" fill="none" stroke="#232323" stroke-linecap="round" stroke-linejoin="round" stroke-width="2.72"/><path d="M292.25,222.65c6.78-4.77,18.38-4,25.91.45.9-12.94,2.09-34.68-5.08-43.33-4.36-5.25-12.44-7.07-17.44.54C289.33,189.89,291.63,208.64,292.25,222.65Z" transform="translate(0 -0.03)" fill="#fff" stroke="#232323" stroke-linecap="round" stroke-linejoin="round" stroke-width="2.72"/><path d="M289,225.85a12.17,12.17,0,0,1,3.2-3.2" transform="translate(0 -0.03)" fill="none" stroke="#232323" stroke-linecap="round" stroke-linejoin="round" stroke-width="2.72"/><path d="M318.16,223.15h0a17.11,17.11,0,0,1,4.76,4" transform="translate(0 -0.03)" fill="none" stroke="#232323" stroke-linecap="round" stroke-linejoin="round" stroke-width="2.72"/><path d="M313,218.66c-5-1.85-11.11-2.11-15.78-.27C294.51,165.76,317.55,176.64,313,218.66Z" transform="translate(0 -0.03)" fill="#232323" stroke="#232323" stroke-linecap="round" stroke-linejoin="round" stroke-width="2.32"/><path d="M297.47,199.91c6.38-1.16,7.14-11.33,7.6-17,.61,4,1.62,11.57,4.26,14.39a10.69,10.69,0,0,0,3.9,2.92s-2.17.18-4.77,3.06-2.37,9.15-3.37,13.87C304.22,211.7,302.84,201.84,297.47,199.91Z" transform="translate(0 -0.03)" fill="#fff" stroke="#232323" stroke-linecap="round" stroke-linejoin="round" stroke-width="0.63"/><path d="M314.46,172.42c-3.9-6.59-12.14-12.36-16.37-7.18" transform="translate(0 -0.03)" fill="none" stroke="#232323" stroke-linecap="round" stroke-linejoin="round" stroke-width="2.72"/><path d="M280.22,226.74c-7.56.26-9.2-9.54-3.2-11.4,3.38-1,7.3,1.51,8,6.22" transform="translate(0 -0.03)" fill="none" stroke="#232323" stroke-linecap="round" stroke-linejoin="round" stroke-width="2.72"/><path d="M248.4,251c13.58,11.19,50.17,11.83,70-8C309.17,297.51,247,288.15,248.4,251Z" transform="translate(0 -0.03)" fill="#232323" stroke="#232323" stroke-linecap="round" stroke-linejoin="round" stroke-width="1.02"/><path d="M283.57,270.81c-1.1.68-1.36.57-2.22,0-3.54-2.22-13-.54-19.55,5.51,11.73,7.31,28.85,7.08,41.39-3.75C298.27,267.81,289.92,266.87,283.57,270.81Z" transform="translate(0 -0.03)" fill="#f15060" stroke="#232323" stroke-miterlimit="10" stroke-width="0.95"/><path d="M279.51,260.64c-2.93,1.08-4.46,3-4.78,5.06" transform="translate(0 -0.03)" fill="none" stroke="#232323" stroke-linecap="round" stroke-linejoin="round" stroke-width="0.96"/><path d="M277.71,265.82c.9-.9,1.15-2.65,1.78-7.14a65.45,65.45,0,0,1-14.79-.95c-1.38,8.15,3.48,7.57,11.61,8.55A1.69,1.69,0,0,0,277.71,265.82Z" transform="translate(0 -0.03)" fill="#fff" stroke="#232323" stroke-linecap="round" stroke-linejoin="round" stroke-width="1.02"/><path d="M291.64,264.33c.25-.55.22-.49.44-7.41a69.86,69.86,0,0,1-12.54,1.75,33.31,33.31,0,0,1-1.15,6.1C281.38,268.15,290.92,265.9,291.64,264.33Z" transform="translate(0 -0.03)" fill="#fff" stroke="#232323" stroke-linecap="round" stroke-linejoin="round" stroke-width="1.02"/><path d="M264,286.62A28.52,28.52,0,0,0,290,287.93" transform="translate(0 -0.03)" fill="none" stroke="#232323" stroke-linecap="round" stroke-linejoin="round" stroke-width="1.9"/></g></g></g><path d="M210,252.82a72.59,72.59,0,0,1,7.84-4.29,78.55,78.55,0,0,1,37.74-6.95c13.64.82,12.94,4.23,23.51,3.59,7.6-.46,8.95-2.28,24.73-6.84,13.36-3.86,20-5.79,28.25-6.12,14.11-.58,27.9,3.24,27.82,5.54,0,.79-1.7,1.9-10.16,3" transform="translate(0 -0.03)" fill="#ffe757"/><path d="M212.47,250.89A78.64,78.64,0,0,1,244,241c15.67-1.32,17.68,3.64,33.55,3.44,22.31-.28,28.1-10.21,51.56-11.33a89.44,89.44,0,0,1,28,3.18" transform="translate(0 -0.03)" fill="none" stroke="#232323" stroke-miterlimit="10" stroke-width="2"/><path d="M412.61,59.86v1.39l-1.16-.58L410.89,62,410,61l-1,1-.41-1.27-1.26.5.09-1.34h-1.35l.59-1.2-1.23-.57,1-.89-.92-1,1.23-.44-.47-1.3,1.3.08v-1.4l1.16.59.17-.38C387.42,22.27,342.86-9.12,303.09,4.15,273.94,13.83,255,42.51,239.19,67.2c-17,26.53-30.64,55-44.92,83.07-1,2-1.25,3.42-.9,4.59.79,2.61,3.73,4,4.79,4.41,14.63,6.36,49.65.16,49.65.16,19.74-3.5,29.61-5.24,40.89-6,3.61-.24,10.15-.59,37.77.22,11.79.35,25.84.86,41.72,1.65l.39-.18c-1.11-1.33-3-3.63-5.09-6.63C344.89,122,344.19,86.34,349,55.44c1.23-7.88,4.49-12,8.84-13.56l1.42-1.29-1.6-1.77,2.16-.77L359,35.77l2.27.14.09-2.44,2,1,1-2.24L365.84,34l1.73-1.69.72,2.22,2.21-.89L370.33,36l2.37.05-1,2.11,2.15,1-1.76,1.54,1.6,1.76-1.38.5c8.89,3.18,18.21,9.63,24,14,5.47,4.12,11.08,9.4,17.79,11.18,1.24-2.65.46-5.52-1-8.25Z" transform="translate(0 -0.03)" fill="#765ba7" stroke="#232323" stroke-miterlimit="10" stroke-width="2"/><path d="M372.09,40.68l1.73-1.53-2.15-1,1-2.11-2.37,0,.17-2.35-2.21.89-.72-2.22L365.81,34l-1.48-1.76-1,2.24-2-1-.09,2.44L359,35.78l.83,2.28-2.16.77,1.6,1.77-1.42,1.29c4.13-1.52,9.23-.78,14.49,1.1l1.38-.5Z" transform="translate(0 -0.03)" fill="#ffe757" stroke="#232323" stroke-miterlimit="10"/><path d="M407.61,53v1.4l-1.3-.08.47,1.3-1.23.44.92,1-1,.89,1.23.57-.59,1.2h1.35l-.09,1.34,1.26-.5.41,1.27,1-1,.85,1,.56-1.28,1.16.58V59.78h.56a53.55,53.55,0,0,0-3.24-5.19l-1-1.45-.17.38Z" transform="translate(0 -0.03)" fill="#ffe757" stroke="#232323" stroke-miterlimit="10" stroke-width="0.57"/><g id="ring-3"><g id="outerRing1-3"><polygon points="228.55 113.28 229.26 115.5 231.48 114.62 231.31 116.96 233.67 117.02 232.65 119.13 234.8 120.11 233.07 121.67 234.68 123.44 232.52 124.21 233.34 126.49 231.08 126.35 230.99 128.79 228.96 127.77 227.97 130 226.49 128.25 224.75 129.93 224.04 127.72 221.82 128.6 222 126.25 219.63 126.2 220.66 124.09 218.51 123.1 220.23 121.54 218.62 119.78 220.78 119.01 219.96 116.73 222.23 116.87 222.32 114.42 224.35 115.45 225.33 113.21 226.82 114.97 228.55 113.28 228.55 113.28" fill="#ffe757" stroke="#232323" stroke-miterlimit="10" fill-rule="evenodd"/></g></g><g id="ring-4"><g id="outerRing1-4"><polygon points="281.1 79.81 281.81 82.03 284.02 81.14 283.85 83.49 286.22 83.54 285.19 85.66 287.34 86.64 285.62 88.2 287.23 89.97 285.06 90.74 285.89 93.02 283.62 92.88 283.53 95.32 281.5 94.29 280.51 96.53 279.03 94.77 277.3 96.46 276.59 94.24 274.37 95.13 274.54 92.78 272.18 92.73 273.2 90.62 271.05 89.63 272.77 88.07 271.17 86.31 273.33 85.54 272.5 83.26 274.77 83.4 274.86 80.95 276.89 81.98 277.88 79.74 279.36 81.5 281.1 79.81 281.1 79.81" fill="#ffe757" stroke="#232323" stroke-miterlimit="10" fill-rule="evenodd"/></g></g><g id="ring-5"><g id="outerRing1-5"><polygon points="320.67 114.7 321.38 116.92 323.6 116.03 323.43 118.38 325.79 118.43 324.76 120.55 326.91 121.53 325.19 123.09 326.8 124.86 324.64 125.63 325.46 127.9 323.19 127.77 323.1 130.21 321.07 129.18 320.09 131.42 318.6 129.66 316.87 131.35 316.16 129.13 313.94 130.02 314.11 127.67 311.75 127.62 312.77 125.5 310.62 124.52 312.35 122.96 310.74 121.19 312.9 120.42 312.08 118.15 314.34 118.29 314.43 115.84 316.46 116.87 317.45 114.63 318.93 116.39 320.67 114.7 320.67 114.7" fill="#ffe757" stroke="#232323" stroke-miterlimit="10" fill-rule="evenodd"/></g></g><g id="ring-6"><g id="outerRing1-6"><polygon points="295.83 32.25 296.54 34.48 298.75 33.59 298.58 35.94 300.95 35.99 299.92 38.1 302.07 39.09 300.35 40.65 301.96 42.41 299.8 43.18 300.62 45.46 298.35 45.32 298.26 47.76 296.23 46.74 295.25 48.98 293.76 47.22 292.03 48.91 291.32 46.69 289.1 47.57 289.27 45.23 286.91 45.17 287.93 43.06 285.78 42.08 287.51 40.52 285.9 38.75 288.06 37.98 287.24 35.7 289.5 35.84 289.59 33.4 291.62 34.42 292.61 32.19 294.09 33.94 295.83 32.25 295.83 32.25" fill="#ffe757" stroke="#232323" stroke-miterlimit="10" fill-rule="evenodd"/></g></g><g id="ring-7"><g id="outerRing1-7"><polygon points="332.96 53.59 333.67 55.81 335.89 54.92 335.72 57.27 338.08 57.32 337.06 59.44 339.21 60.42 337.49 61.98 339.09 63.75 336.93 64.52 337.75 66.79 335.49 66.65 335.4 69.1 333.37 68.07 332.38 70.31 330.9 68.55 329.16 70.24 328.45 68.02 326.24 68.91 326.41 66.56 324.04 66.51 325.07 64.39 322.92 63.41 324.64 61.85 323.03 60.08 325.19 59.31 324.37 57.04 326.64 57.17 326.73 54.73 328.76 55.76 329.75 53.52 331.23 55.28 332.96 53.59 332.96 53.59" fill="#ffe757" stroke="#232323" stroke-miterlimit="10" fill-rule="evenodd"/></g></g><g id="ring-8"><g id="outerRing1-8"><polygon points="332.96 6.41 333.67 8.63 335.89 7.75 335.72 10.09 338.08 10.15 337.06 12.26 339.21 13.24 337.49 14.8 339.09 16.57 336.93 17.34 337.75 19.62 335.49 19.48 335.4 21.92 333.37 20.9 332.38 23.13 330.9 21.38 329.16 23.06 328.45 20.85 326.24 21.73 326.41 19.38 324.04 19.33 325.07 17.22 322.92 16.23 324.64 14.67 323.03 12.91 325.19 12.14 324.37 9.86 326.64 10 326.73 7.55 328.76 8.58 329.75 6.34 331.23 8.1 332.96 6.41 332.96 6.41" fill="#ffe757" stroke="#232323" stroke-miterlimit="10" fill-rule="evenodd"/></g></g><path d="M429.85,146.31c-1.91-14-73.69-15.77-160.33-4S114.18,175,116.09,189c1.33,9.78,36.83,13.59,87.7,11a66.23,66.23,0,0,1,12.09-24.48c8.56-10.74,21.2-11.34,33.9-10.94,15.6.49,31.09-2.29,46.55-4,14-1.54,30-3.94,43.12,2.34a51.38,51.38,0,0,1,18.43,15.22C402.21,167.53,431.09,155.44,429.85,146.31Z" transform="translate(0 -0.03)" fill="#765ba7" stroke="#232323" stroke-miterlimit="10" stroke-width="2"/><path d="M430.66,152.28c-3.78-18-105.2-11.48-160.33-4C183.69,160.15,115,181,116.9,195c.73,5.35,9.49,7.19,13.61,8.16,11.4,2.68,23.36,3.21,35,3.49,5.6.14,11.21.15,16.82.06q4.56-.06,9.12-.2c2.61-.09,7.78.72,10.11-.4,1.94-.93,1.8-4.37,2.39-6.65a64.11,64.11,0,0,1,2.67-8.11c2.73-6.73,6.31-13.35,11.59-18.44,8.73-8.41,22-8.75,33.38-8.78,15,0,29.7-1.91,44.63-3.75,16-2,24-3.59,34-.05,2.68.94,11,3.86,16.39,10.85a60.38,60.38,0,0,1,4.5,7c2.94,5.32,3.39,7.94,4.16,9C361.51,195.65,434,168,430.66,152.28Z" transform="translate(0 -0.03)" fill="#4a4260" stroke="#232323" stroke-miterlimit="10"/><g id="shadows"><path d="M345.09,318.67c-.44,1.13,3,3.51,6.24,5.68,7.6,5.15,9.87,4.48,10.84,7.26,1.34,3.85.15,8.24-1.05,12-.25.77-2.7,6.1-1.53,6.65s3.57-2.8,4.21-3.56a16.41,16.41,0,0,0,4-8.57,15.19,15.19,0,0,0-.17-4.31,22.55,22.55,0,0,0-3.77-9.38c-1.52-2.19-2.59-3.72-4.67-4.83-1.65-.87-3.63-1-7.5-1.28C347.5,318.06,345.41,317.92,345.09,318.67Z" transform="translate(0 -0.03)" fill="#232323" opacity="0.44" style="isolation:isolate"/><path d="M310.57,406.73l.37-.43a55.26,55.26,0,0,1,7.24-6.69c4.86-3.66,11.68-6.29,16.44-8.11,8.52-3.24,12.86-4.85,17.22-4.27A35.56,35.56,0,0,1,362,390.39c2.61,1.26,3.07,1.91,6.33,3.39a25.73,25.73,0,0,1,3.56,2.06c1.5,1,2.25,1.52,2.17,2-.16.91-3.34,1.28-5.89,1.16-3.78-.16-7-1.42-10.45-2.77a38.4,38.4,0,0,0-5.11-1.73c-.31-.07-1.1-.25-2.28-.55l-1.94-.5a13,13,0,0,0-2.22-.5,7.85,7.85,0,0,0-4.67,1,14.76,14.76,0,0,0-2.83,2.33c-1.36,1.15-1.7,1.08-4.28,2.72-3.13,2-2.61,2.08-4.39,3.06a27.44,27.44,0,0,1-6.28,2.28c-1.59.44-2.77.69-4.78,1.11-2.56.53-4.72.91-6.27,1.16" transform="translate(0 -0.03)" fill="#232323" opacity="0.44" style="isolation:isolate"/><path d="M289,402.78c-.84,1,1,2.46,2.56,8.5a35.08,35.08,0,0,1,1.55,8.5c.07,2.25-.19,2.89.39,3.67,1.68,2.22,7.67,2,10.56-1.17,2.37-2.61,2-6.54,1.95-7.14-.34-3.32-2.26-5.05-1.34-6.47s3.5-.88,3.55-1.39-4-1.46-8.44-2.55C291.92,402.79,289.85,401.75,289,402.78Z" transform="translate(0 -0.03)" fill="#232323" opacity="0.44" style="isolation:isolate"/><path d="M511.29,226.77c-.12-.8,7.21-3.08,14.92-3.69a55.4,55.4,0,0,1,21,2.63c6.52,2.09,12.66,4.07,15.46,9.78a14,14,0,0,1,1.38,5.35,86.59,86.59,0,0,0-10.66-5.92,91.28,91.28,0,0,0-19.7-6.53A94,94,0,0,0,523,226.75C513.32,227.47,511.35,227.15,511.29,226.77Z" transform="translate(0 -0.03)" fill="#232323" opacity="0.44" style="isolation:isolate"/><path d="M531.84,244.06a.36.36,0,0,1,.19-.26c1.31-.75,5.79,2.07,6.9,2.64A61.85,61.85,0,0,1,553.6,257c1.68,1.63,3.32,3.32,4.88,5.08,1.25,1.42,4.22,4.12,4,6.26-2.43-1-4.31-3.41-6.34-5.06s-4-3.23-6.09-4.68c-3.41-2.38-7-4.49-10.35-6.9C538.55,250.9,531.57,245.51,531.84,244.06Z" transform="translate(0 -0.03)" fill="#232323" stroke="#232323" stroke-miterlimit="10" stroke-width="1.86" opacity="0.44" style="isolation:isolate"/><path d="M525.93,264.15a1.31,1.31,0,0,0,0,.83c.43,1.78,2.93,2.74,3.43,2.93l.81.3a22.28,22.28,0,0,1,3.92,2.75,27.51,27.51,0,0,1,2.92,3.09,47.6,47.6,0,0,1,3.83,5.41c1.68,2.72,7.21,11.77,5.89,14.35-.1.18-.56,1-.26,1.38a.74.74,0,0,0,.87.19c.73-.4.14-2.8-.16-4-3.21-12.7-9-19.49-9-19.49-5.72-7.68-8.23-9.2-10.54-8.84C527,263.28,526.17,263.48,525.93,264.15Z" transform="translate(0 -0.03)" fill="#232323" stroke="#232323" stroke-miterlimit="10" stroke-width="2.1" opacity="0.44" style="isolation:isolate"/><path d="M596.5,436c-6.17-1-12.5,6.37-15.29,10.95-7.07,11.6-6.82,30.88,5,43.15,11.16,11.54,26.57,10.63,29.25,10.42,12.46-1,22.78-8.08,22.18-10s-13.9,5.08-25.51-1c-7.27-3.78-13.62-12.56-14-21.66-.5-11.86,9.4-18,5.66-26A10.36,10.36,0,0,0,596.5,436Z" transform="translate(0 -0.03)" fill="#232323" stroke="#232323" stroke-miterlimit="10" opacity="0.44" style="isolation:isolate"/><path d="M554.31,406.6c-1.43,2.44,2.74,8.7,7.7,11.9,2.79,1.8,4.84,2,9.62,5.23a25.37,25.37,0,0,1,4.29,3.3c4.43,4.54,2.74,7.85,6,10.68,4.11,3.6,11.3,2.15,15.11.46,2.23-1,3.82-1.69,4.39-3.26,1.45-4-5.26-9.69-11.22-14.74s-12.18-10.2-22-13C565.48,406.4,556,403.71,554.31,406.6Z" transform="translate(0 -0.03)" fill="#232323" stroke="#232323" stroke-miterlimit="10" opacity="0.44" style="isolation:isolate"/><path d="M250.09,594.84c-10.19,24.33,15.51,50.06,3.56,67.55-2.84,4.16-7.58,7.53-6.45,9.78,1.56,3.09,12.34.48,14.44,0,7.43-1.8,16.84-4.06,22.23-11.31,6.19-8.33-.08-13.61,2-38,1.3-15.23,4.34-20.13.31-26.77-4.28-7.05-13.16-10.54-15.63-11.5-3.44-1.36-6.18-2.39-9.37-1.68C254.52,584.33,251.14,592.41,250.09,594.84Z" transform="translate(0 -0.03)" fill="#232323" stroke="#232323" stroke-miterlimit="10" opacity="0.44" style="isolation:isolate"/><path d="M185,225.25c-.12-2.3-4.2-3.9-18.58-11.83-1.8-1-3.71-2.07-3.59-3.25.24-2.26,7.78-3.19,9.67-3.42,9.83-1.22,21.33.43,25.81-.06a32.74,32.74,0,0,0,3.26-.59,9.51,9.51,0,0,0,3.16-1c1.68-1.38,1-4.74.9-5.62-1.07-6.67,3.72-14.48,6-18.2,6-9.82,16.47-13.4,19.37-14.4,2.47-.84,4.52-1.27,19.84-2.24,15-.95,15.54-.7,22.62-1.24,2.89-.22,3.88-.35,30.16-3.6,11.1-1.37,16.78-2,23.56-.38,4.49,1.09,8.75,2.12,12.76,5.64,3.13,2.74,5.9,7.54,11.5,17.11,2.21,3.76,3.51,6.18,5.89,6.51,1.22.16-10.76-5.25-13.58-7.65-8.93-7.56-25.13-2.5-32.45-.5-37.1,10.16-44.88-3.75-71.55,7.34-35.25,14.65-61.71,55.58-73,54-.5-.07-2.83-.4-3-1.41-.31-1.65,5.37-3.56,14-8.94C182.62,228.33,185.09,226.75,185,225.25Z" transform="translate(0 -0.03)" fill="#232323" opacity="0.44" style="isolation:isolate"/></g><path d="M414.09,68.15a36.64,36.64,0,0,1-12.78-6.49c-2.28-1.81-3-2.78-5.39-5-4.56-4.22-8.74-6.44-13.76-9.12-7.58-4-12.61-6.63-19.26-6.53a13.25,13.25,0,0,0-6.81,1.64c-1.21.7-3.59,2.4-5.81,7.53-2.3,5.32-2.1,8.94-3,19.13-.7,7.79-.91,6.68-1.17,10.76-.67,10.71,1.14,20.11,4.75,38.91,1.37,7.15,1.89,8.54,2.58,9.92,1.19,2.37,2.37,3.72,1.79,4.71-.81,1.37-3.76.8-8,.62-7-.3-13.79.74-24.32,2.35-3,.46-3.21.57-3.75.3-7.38-3.56,3.6-39.12,9-56.62,9.35-30.27,14.22-45.55,24.67-48.78S374.29,35,386.09,42.15A97.28,97.28,0,0,1,414.09,68.15Z" transform="translate(0 -0.03)" fill="#232323" opacity="0.44" style="isolation:isolate"/><path d="M77.07,257.49a18.06,18.06,0,0,0,13.81,17.22" transform="translate(0 -0.03)" fill="none" stroke="#0c0c0c" stroke-linecap="round" stroke-miterlimit="10" stroke-width="1.35"/><path d="M72.31,295.38c1.21,5.39-5.92,11.6-15.93,13.86-6.5,1.46-17,.9-20.34-5.68-1.54-3-1.62-7.34.5-10.27,2.84-3.92,8.53-3.81,15.43-3.59C58.56,289.92,71.16,290.29,72.31,295.38Z" transform="translate(0 -0.03)" fill="none" stroke="#0c0c0c" stroke-linecap="round" stroke-miterlimit="10" stroke-width="1.51"/><path d="M73.33,275.6c.15,3.21-2.33,5.57-4.13,7.29A22.84,22.84,0,0,1,59.87,288a38.31,38.31,0,0,1-7.7,1.59,32.12,32.12,0,0,1-3.25.14c-1.07,0-2.13-.12-3.19-.09a15.06,15.06,0,0,0-5.49,1.22c-1,.43-2.14,1.15-3.26,1a3.14,3.14,0,0,1-2.33-2.09,40.73,40.73,0,0,1-2-6,9.11,9.11,0,0,1-.49-4c0-.14.07-.28.11-.42a11.46,11.46,0,0,0,.94-2.76c.17-1.33.35-1.78.34-2,0-.68-.18-.88,0-1.3s.32-.61,1.39-1.28A10.06,10.06,0,0,1,37,270.89a8.29,8.29,0,0,1,3.11-.44c2.76.1,5.5-.63,8.25-.89,9.49-.9,15.07-2.65,19.57-.92a7.17,7.17,0,0,1,1.87,1.08C70.75,270.44,73.19,272.58,73.33,275.6Z" transform="translate(0 -0.03)" fill="none" stroke="#0c0c0c" stroke-linecap="round" stroke-miterlimit="10" stroke-width="1.62"/><path d="M72.2,254.44c1,6-7.51,13-14.65,14.37-.44.09-1.38.18-3.24.36-4.23.4-9.61.68-14.7,1.35-1.9.25-3.58.53-4.82,1.83-.54.56-.91,1.22-1.23,1.12s.28-1.65-.3-3.46c-.35-1.11-.81-1.23-1.35-2.36a8.11,8.11,0,0,1-.61-4,13.57,13.57,0,0,1,2.89-7.19,26.93,26.93,0,0,1,19.48-11.15C60.71,245.15,71.23,248.26,72.2,254.44Z" transform="translate(0 -0.03)" fill="none" stroke="#0c0c0c" stroke-linecap="round" stroke-miterlimit="10" stroke-width="1.57"/></svg>