<?xml version="1.0" encoding="utf-8"?>
<!-- Generator: Adobe Illustrator 25.2.3, SVG Export Plug-In . SVG Version: 6.00 Build 0)  -->
<svg version="1.1" id="Layer_1" xmlns="http://www.w3.org/2000/svg" xmlns:xlink="http://www.w3.org/1999/xlink" x="0px" y="0px"
	 viewBox="0 0 437.5 495" style="enable-background:new 0 0 437.5 495;" xml:space="preserve">
<style type="text/css">
	.st0{fill:none;}
	.st1{fill:#EB9773;}
	.st2{fill:none;stroke:#011111;stroke-width:17.5;stroke-linecap:round;stroke-linejoin:round;}
	.st3{fill:#FFFFFF;stroke:#011111;stroke-width:2;stroke-linecap:round;stroke-linejoin:round;}
	.st4{fill:none;stroke:#011111;stroke-width:2;stroke-linecap:round;stroke-linejoin:round;}
	.st5{fill:none;stroke:#011111;stroke-width:2.12;stroke-linecap:round;stroke-linejoin:round;}
	.st6{fill:#FFFFFF;stroke:#011111;stroke-width:1.25;stroke-linecap:round;stroke-linejoin:round;}
	.st7{fill:#F27548;stroke:#011111;stroke-width:2;stroke-miterlimit:10;}
	.st8{fill:none;stroke:#011111;stroke-width:1.25;stroke-linecap:round;stroke-linejoin:round;}
	.st9{fill:none;stroke:#1E1E1E;stroke-width:17.5;stroke-linecap:round;stroke-linejoin:round;}
	.st10{fill:none;stroke:#191919;stroke-width:17.5;stroke-linecap:round;stroke-linejoin:round;}
	.st11{fill:#FFFFFF;stroke:#011111;stroke-width:1.05;stroke-linecap:round;stroke-linejoin:round;}
	.st12{fill:#F27548;stroke:#011111;stroke-width:1.68;stroke-miterlimit:10;}
	.st13{fill:none;stroke:#61271C;stroke-width:1.05;stroke-linecap:round;stroke-linejoin:round;}
	.st14{fill:none;stroke:#011111;stroke-width:1.05;stroke-linecap:round;stroke-linejoin:round;}
	.st15{fill:none;stroke:#61271C;stroke-width:17.5;stroke-linecap:round;stroke-linejoin:round;}
	.st16{fill:#EEECE8;stroke:#011111;stroke-width:3;stroke-linecap:round;stroke-linejoin:round;}
	.st17{opacity:0.75;fill:url(#SVGID_1_);enable-background:new    ;}
	.st18{opacity:0.75;fill:url(#SVGID_2_);enable-background:new    ;}
	.st19{opacity:0.75;fill:url(#SVGID_3_);enable-background:new    ;}
	.st20{fill:#EEECE8;stroke:#111111;stroke-width:3;stroke-linecap:round;stroke-linejoin:round;}
	.st21{fill:#F27548;stroke:#011111;stroke-width:3;stroke-miterlimit:10;}
	.st22{fill:#F3DFD8;stroke:#61271C;stroke-width:3;stroke-linecap:round;stroke-linejoin:round;}
	.st23{fill:#61271C;stroke:#011111;stroke-width:3;stroke-linecap:round;stroke-linejoin:round;}
	.st24{opacity:0.75;fill:url(#SVGID_4_);enable-background:new    ;}
	.st25{opacity:0.75;fill:url(#SVGID_5_);enable-background:new    ;}
	.st26{fill:none;stroke:#F3DFD8;stroke-width:3;stroke-linecap:round;stroke-linejoin:round;}
	.st27{fill:#FFFFFF;stroke:#011111;stroke-width:3;stroke-miterlimit:10;}
	.st28{fill:none;stroke:#011111;stroke-width:3;stroke-miterlimit:10;}
	.st29{fill:#011111;stroke:#011111;stroke-width:3;stroke-miterlimit:10;}
	.st30{fill:#011111;stroke:#011111;stroke-width:3;stroke-linecap:round;stroke-linejoin:round;}
	.st31{fill:#BC5530;stroke:#011111;stroke-width:3;stroke-linecap:round;stroke-linejoin:round;}
	.st32{fill:none;stroke:#011111;stroke-width:3;stroke-linecap:round;stroke-linejoin:round;}
	.st33{fill:#E0B89D;}
	.st34{fill:none;stroke:#61271C;stroke-width:0.93;stroke-linecap:round;stroke-linejoin:round;}
	.st35{opacity:0.19;fill:#61271C;enable-background:new    ;}
	.st36{opacity:0.3;fill:#61271C;enable-background:new    ;}
	.st37{fill:#61271C;}
	.st38{opacity:0.2;fill:#191919;enable-background:new    ;}
	.st39{fill:#191919;}
	.st40{opacity:0.26;fill:#191919;enable-background:new    ;}
</style>
<pattern  y="495" width="72" height="72" patternUnits="userSpaceOnUse" id="USGS_22_Gravel_Beach_3" viewBox="0.6 -72 72 72" style="overflow:visible;">
	<g>
		<rect x="0.6" y="-72" class="st0" width="72" height="72"/>
		<rect x="0.6" y="-72" class="st0" width="72" height="72"/>
		<rect x="0.6" y="-72" class="st0" width="72" height="72"/>
		<path class="st1" d="M72.8-14c-0.2,0-0.4-0.2-0.4-0.3c0-0.1,0-0.2,0.1-0.3c0.1-0.1,0.4-0.1,0.5,0c0.1,0.1,0.1,0.4,0,0.5
			C73-14,72.9-14,72.8-14z"/>
		<path class="st1" d="M21.4-68.8c-0.1,0-0.2,0-0.3-0.1c-0.1-0.1-0.1-0.4,0-0.5c0.1-0.1,0.4-0.1,0.5,0c0.1,0.1,0.1,0.1,0.1,0.2
			C21.7-68.9,21.6-68.8,21.4-68.8C21.4-68.8,21.4-68.8,21.4-68.8z"/>
		<path class="st1" d="M20.4-63.5c-0.2,0-0.3-0.1-0.3-0.3c0,0,0,0,0,0l0,0c0-0.1,0-0.2,0.1-0.3c0.1-0.1,0.3-0.1,0.5,0
			c0.1,0.1,0.1,0.4,0,0.5C20.5-63.5,20.4-63.5,20.4-63.5L20.4-63.5z"/>
		<path class="st1" d="M20.6-61.3c-0.2,0-0.4-0.2-0.4-0.3c0-0.1,0-0.2,0.1-0.3c0.1-0.1,0.4-0.1,0.5,0c0.1,0.1,0.1,0.4,0,0.5
			C20.8-61.3,20.7-61.3,20.6-61.3z"/>
		<path class="st1" d="M15.6-61.3c-0.2,0-0.3-0.1-0.3-0.3c0,0,0,0,0,0l0,0c0-0.1,0-0.2,0.1-0.3c0.1-0.1,0.4-0.1,0.5,0
			c0.1,0.1,0.1,0.4,0,0.5C15.8-61.3,15.7-61.3,15.6-61.3z"/>
		<path class="st1" d="M23.1-51.8c-0.2,0-0.3-0.2-0.3-0.3c0-0.2,0.2-0.3,0.4-0.3c0.2,0,0.3,0.1,0.3,0.3
			C23.5-51.9,23.3-51.8,23.1-51.8C23.1-51.8,23.1-51.8,23.1-51.8L23.1-51.8z"/>
		<path class="st1" d="M15.6-48.8c-0.2,0-0.3-0.1-0.3-0.3c0,0,0,0,0,0l0,0c0-0.1,0-0.2,0.1-0.3c0.1-0.1,0.3-0.1,0.5,0
			c0.1,0.1,0.1,0.2,0.1,0.3C16-48.9,15.8-48.8,15.6-48.8C15.6-48.8,15.6-48.8,15.6-48.8L15.6-48.8z"/>
		<path class="st1" d="M14.4-47.8c-0.2,0-0.3-0.2-0.3-0.3c0-0.2,0.2-0.3,0.4-0.3c0.2,0,0.3,0.1,0.3,0.3
			C14.7-47.9,14.6-47.8,14.4-47.8C14.4-47.8,14.4-47.8,14.4-47.8z"/>
		<path class="st1" d="M24.4-44.8c-0.2,0-0.3-0.1-0.3-0.3c0,0,0,0,0,0l0,0c0-0.1,0-0.2,0.1-0.3c0.1-0.1,0.3-0.1,0.5,0
			c0.1,0.1,0.1,0.2,0.1,0.3c0,0.1,0,0.2-0.1,0.2C24.5-44.8,24.4-44.8,24.4-44.8z"/>
		<path class="st1" d="M31.1-46c-0.2,0-0.3-0.2-0.3-0.3c0-0.2,0.2-0.3,0.4-0.3c0.2,0,0.3,0.1,0.3,0.3C31.5-46.2,31.3-46,31.1-46
			C31.1-46,31.1-46,31.1-46L31.1-46z"/>
		<path class="st1" d="M31.6-48.5c-0.2,0-0.3-0.1-0.3-0.3c0,0,0,0,0,0l0,0c0-0.1,0-0.2,0.1-0.3c0.1-0.1,0.4-0.1,0.5,0
			c0.1,0.1,0.1,0.2,0.1,0.2C32-48.7,31.8-48.5,31.6-48.5C31.6-48.5,31.6-48.5,31.6-48.5L31.6-48.5z"/>
		<path class="st1" d="M29.6-53.5c-0.2,0-0.3-0.2-0.3-0.3c0-0.2,0.2-0.3,0.4-0.3c0.2,0,0.3,0.1,0.3,0.3C30-53.7,29.8-53.5,29.6-53.5
			C29.6-53.5,29.6-53.5,29.6-53.5L29.6-53.5z"/>
		<path class="st1" d="M34.3-52c-0.2,0-0.3-0.2-0.3-0.3c0-0.2,0.2-0.3,0.3-0.3c0.2,0,0.3,0.1,0.3,0.3C34.7-52.2,34.6-52,34.3-52
			C34.4-52,34.4-52,34.3-52L34.3-52z"/>
		<path class="st1" d="M31.9-57c-0.2,0-0.3-0.2-0.3-0.3c0-0.2,0.2-0.3,0.4-0.3c0.2,0,0.3,0.1,0.3,0.3C32.2-57.2,32.1-57,31.9-57
			C31.9-57,31.9-57,31.9-57L31.9-57z"/>
		<path class="st1" d="M32.1-60c-0.2,0-0.4-0.2-0.4-0.3c0-0.1,0-0.2,0.1-0.3c0.1-0.1,0.4-0.1,0.5,0c0.1,0.1,0.1,0.4,0,0.5
			C32.3-60,32.2-60,32.1-60z"/>
		<path class="st1" d="M32.6-64.8c-0.2,0-0.3-0.2-0.3-0.3c0-0.2,0.2-0.3,0.3-0.3c0.2,0,0.3,0.1,0.3,0.3C33-64.9,32.8-64.8,32.6-64.8
			C32.6-64.8,32.6-64.8,32.6-64.8L32.6-64.8z"/>
		<path class="st1" d="M32.3-68.8c-0.2,0-0.3-0.1-0.3-0.3c0,0,0,0,0,0c0-0.1,0-0.2,0.1-0.3c0.1-0.1,0.4-0.1,0.5,0
			c0.1,0.1,0.1,0.2,0.1,0.2C32.7-69,32.6-68.8,32.3-68.8C32.4-68.8,32.4-68.8,32.3-68.8L32.3-68.8z"/>
		<path class="st1" d="M34.3-70.5c-0.1,0-0.2,0-0.3-0.1C34-70.7,34-70.8,34-70.9c0-0.1,0-0.2,0.1-0.3c0.1-0.1,0.4-0.1,0.5,0
			c0.1,0.1,0.1,0.2,0.1,0.3c0,0.1,0,0.2-0.1,0.3C34.5-70.6,34.4-70.5,34.3-70.5z"/>
		<path class="st1" d="M41.8-64.8c-0.1,0-0.2,0-0.3-0.1c-0.1-0.1-0.1-0.2-0.1-0.3c0-0.1,0-0.2,0.1-0.3c0.1-0.1,0.4-0.1,0.5,0
			c0.1,0.1,0.1,0.1,0.1,0.2C42.2-64.9,42.1-64.8,41.8-64.8C41.9-64.8,41.9-64.8,41.8-64.8L41.8-64.8z"/>
		<path class="st1" d="M45.8-65c-0.1,0-0.2,0-0.3-0.1c-0.1-0.1-0.1-0.4,0-0.5c0.1-0.1,0.4-0.1,0.5,0c0.1,0.1,0.1,0.1,0.1,0.2
			C46.2-65.2,46.1-65,45.8-65C45.9-65,45.9-65,45.8-65L45.8-65z"/>
		<path class="st1" d="M42.8-58.3c-0.2,0-0.3-0.1-0.3-0.3c0,0,0,0,0,0l0,0c0-0.1,0-0.2,0.1-0.3c0.1-0.1,0.4-0.1,0.5,0
			c0.1,0.1,0.1,0.2,0.1,0.2C43.2-58.4,43.1-58.3,42.8-58.3C42.9-58.3,42.9-58.3,42.8-58.3L42.8-58.3z"/>
		<path class="st1" d="M47.3-57.5c-0.2,0-0.3-0.1-0.3-0.3c0,0,0,0,0,0l0,0c0-0.1,0-0.2,0.1-0.3c0.1-0.1,0.4-0.1,0.5,0
			c0.1,0.1,0.1,0.2,0.1,0.3c0,0.1,0,0.2-0.1,0.2C47.5-57.6,47.4-57.5,47.3-57.5z"/>
		<path class="st1" d="M47.3-55.5c-0.2,0-0.3-0.1-0.3-0.3c0,0,0,0,0,0l0,0c0-0.1,0-0.2,0.1-0.3c0.1-0.1,0.4-0.1,0.5,0
			c0.1,0.1,0.1,0.2,0.1,0.3c0,0.1,0,0.2-0.1,0.2C47.5-55.6,47.4-55.5,47.3-55.5z"/>
		<path class="st1" d="M39.3-51c-0.2,0-0.4-0.2-0.4-0.3c0-0.1,0-0.2,0.1-0.3c0.1-0.1,0.4-0.1,0.5,0c0.1,0.1,0.1,0.2,0.1,0.3
			C39.7-51.2,39.6-51,39.3-51C39.4-51,39.4-51,39.3-51L39.3-51z"/>
		<path class="st1" d="M50.6-58.3c-0.1,0-0.2,0-0.3-0.1c-0.1-0.1-0.1-0.4,0-0.5s0.4-0.1,0.5,0c0.1,0.1,0.1,0.4,0,0.5
			C50.8-58.3,50.7-58.3,50.6-58.3z"/>
		<path class="st1" d="M52.6-59.8c-0.1,0-0.2,0-0.3-0.1c-0.1-0.1-0.1-0.2-0.1-0.2c0-0.1,0-0.2,0.1-0.3c0.1-0.1,0.3-0.1,0.5,0
			c0.1,0.1,0.1,0.2,0.1,0.3C53-59.9,52.8-59.8,52.6-59.8C52.6-59.8,52.6-59.8,52.6-59.8L52.6-59.8z"/>
		<path class="st1" d="M55.1-60.8c-0.1,0-0.2,0-0.3-0.1c-0.1-0.1-0.1-0.2-0.1-0.2c0-0.1,0-0.2,0.1-0.3c0.1-0.1,0.4-0.1,0.5,0
			c0.1,0.1,0.1,0.2,0.1,0.2C55.5-61,55.3-60.8,55.1-60.8C55.1-60.8,55.1-60.8,55.1-60.8L55.1-60.8z"/>
		<path class="st1" d="M56.8-71c-0.1,0-0.2-0.1-0.3-0.1c-0.1-0.1-0.1-0.4,0-0.5c0.1-0.1,0.4-0.1,0.5,0c0.1,0.1,0.1,0.2,0.1,0.2
			c0,0.1,0,0.2-0.1,0.3C57-71.1,56.9-71,56.8-71z"/>
		<path class="st1" d="M68.3-68.8c-0.2,0-0.3-0.1-0.3-0.3c0,0,0,0,0,0c0-0.1,0-0.2,0.1-0.3c0.1-0.1,0.3-0.1,0.5,0
			c0.1,0.1,0.1,0.4,0,0.5C68.5-68.8,68.4-68.8,68.3-68.8z"/>
		<path class="st1" d="M68.3-61.5c-0.1,0-0.2,0-0.3-0.1C68-61.7,68-61.8,68-61.9c0-0.1,0-0.2,0.1-0.3c0.1-0.1,0.4-0.1,0.5,0
			c0.1,0.1,0.1,0.2,0.1,0.3c0,0.1,0,0.2-0.1,0.3C68.5-61.6,68.4-61.5,68.3-61.5z"/>
		<path class="st1" d="M64.6-59.5c-0.2,0-0.3-0.2-0.3-0.3s0.2-0.3,0.3-0.3c0.2,0,0.3,0.1,0.3,0.3C65-59.7,64.8-59.5,64.6-59.5
			C64.6-59.5,64.6-59.5,64.6-59.5L64.6-59.5z"/>
		<path class="st1" d="M65.6-56c-0.2,0-0.3-0.1-0.3-0.3c0,0,0,0,0,0l0,0c0-0.1,0-0.2,0.1-0.3c0.1-0.1,0.4-0.1,0.5,0
			c0.1,0.1,0.1,0.4,0,0.5C65.8-56,65.7-56,65.6-56z"/>
		<path class="st1" d="M64.3-52c-0.1,0-0.2,0-0.3-0.1C64-52.2,64-52.3,64-52.4c0-0.1,0-0.2,0.1-0.3c0.1-0.1,0.4-0.1,0.5,0
			c0.1,0.1,0.1,0.2,0.1,0.3c0,0.1,0,0.2-0.1,0.3C64.5-52,64.4-52,64.3-52z"/>
		<path class="st1" d="M66.6-52c-0.2,0-0.3-0.1-0.3-0.3c0,0,0,0,0,0l0,0c0-0.1,0-0.2,0.1-0.3c0.1-0.1,0.3-0.1,0.5,0
			c0.1,0.1,0.1,0.2,0.1,0.3C66.9-52.1,66.8-52,66.6-52C66.6-52,66.6-52,66.6-52z"/>
		<path class="st1" d="M68.3-50.5c-0.2,0-0.4-0.2-0.4-0.3c0-0.1,0-0.2,0.1-0.3c0.1-0.1,0.4-0.1,0.5,0c0.1,0.1,0.1,0.4,0,0.5
			C68.5-50.6,68.4-50.5,68.3-50.5z"/>
		<path class="st1" d="M7.3-19.5c-0.2,0-0.4-0.2-0.4-0.3c0-0.1,0-0.2,0.1-0.3c0.1-0.1,0.4-0.1,0.5,0c0.1,0.1,0.1,0.4,0,0.5
			C7.5-19.6,7.4-19.5,7.3-19.5z"/>
		<path class="st1" d="M7.6-17.3c-0.2,0-0.4-0.2-0.4-0.3c0-0.1,0-0.2,0.1-0.3c0.1-0.1,0.4-0.1,0.5,0c0.1,0.1,0.1,0.4,0,0.5
			C7.8-17.3,7.7-17.3,7.6-17.3z"/>
		<path class="st1" d="M2.6-17.3c-0.1,0-0.2,0-0.3-0.1c-0.1-0.1-0.1-0.4,0-0.5c0.1-0.1,0.4-0.1,0.5,0c0.1,0.1,0.1,0.4,0,0.5
			C2.8-17.3,2.7-17.3,2.6-17.3z"/>
		<path class="st1" d="M10.1-7.8c-0.2,0-0.3-0.2-0.3-0.3c0-0.2,0.2-0.3,0.4-0.3c0.2,0,0.3,0.1,0.3,0.3C10.5-7.9,10.3-7.8,10.1-7.8
			C10.1-7.8,10.1-7.8,10.1-7.8L10.1-7.8z"/>
		<path class="st1" d="M1.4-3.8c-0.1,0-0.2,0-0.3-0.1C1-4,1-4.2,1.1-4.4c0.1-0.1,0.4-0.1,0.5,0c0.1,0.1,0.1,0.4,0,0.5
			C1.5-3.8,1.4-3.8,1.4-3.8z"/>
		<path class="st1" d="M11.4-0.8c-0.2,0-0.3-0.1-0.4-0.3c0-0.1,0-0.2,0.1-0.3c0.1-0.1,0.4-0.1,0.5,0c0.1,0.1,0.1,0.4,0,0.5
			C11.5-0.8,11.4-0.8,11.4-0.8z"/>
		<path class="st1" d="M18.6-4.5c-0.2,0-0.3-0.1-0.3-0.3c0,0,0,0,0,0l0,0c0-0.1,0-0.2,0.1-0.3c0.1-0.1,0.3-0.1,0.5,0
			C18.9-5,18.9-5,19-4.9C18.9-4.7,18.8-4.5,18.6-4.5C18.6-4.5,18.6-4.5,18.6-4.5z"/>
		<path class="st1" d="M16.6-9.5c-0.2,0-0.4-0.2-0.4-0.3c0-0.1,0-0.2,0.1-0.3c0.1-0.1,0.4-0.1,0.5,0c0.1,0.1,0.1,0.4,0,0.5
			C16.8-9.6,16.7-9.5,16.6-9.5z"/>
		<path class="st1" d="M19.9-14c-0.2,0-0.3-0.1-0.3-0.3c0,0,0,0,0,0l0,0c0-0.1,0-0.2,0.1-0.3c0.1-0.1,0.3-0.1,0.5,0
			c0.1,0.1,0.1,0.2,0.1,0.3C20.2-14.1,20.1-14,19.9-14C19.9-14,19.9-14,19.9-14L19.9-14z"/>
		<path class="st1" d="M19.1-16c-0.2,0-0.3-0.1-0.3-0.3c0,0,0,0,0,0l0,0c0-0.1,0-0.2,0.1-0.3c0.1-0.1,0.3-0.1,0.5,0
			c0.1,0.1,0.1,0.2,0.1,0.3C19.5-16.1,19.3-16,19.1-16C19.1-16,19.1-16,19.1-16L19.1-16z"/>
		<path class="st1" d="M16.6-17c-0.2,0-0.3-0.1-0.3-0.3c0,0,0,0,0,0l0,0c0-0.1,0-0.2,0.1-0.3c0.1-0.1,0.3-0.1,0.5,0
			c0.1,0.1,0.1,0.2,0.1,0.3C16.9-17.1,16.8-17,16.6-17C16.6-17,16.6-17,16.6-17z"/>
		<path class="st1" d="M19.6-20.8c-0.2,0-0.3-0.1-0.3-0.3c0,0,0,0,0,0l0,0c0-0.1,0-0.2,0.1-0.3c0.1-0.1,0.3-0.1,0.5,0
			c0.1,0.1,0.1,0.2,0.1,0.3C20-20.9,19.8-20.8,19.6-20.8C19.6-20.8,19.6-20.8,19.6-20.8L19.6-20.8z"/>
		<path class="st1" d="M19.4-24.8c-0.2,0-0.4-0.2-0.4-0.3c0-0.1,0-0.2,0.1-0.3c0.1-0.1,0.4-0.1,0.5,0c0.1,0.1,0.1,0.4,0,0.5
			C19.5-24.8,19.4-24.8,19.4-24.8z"/>
		<path class="st1" d="M16.6-24.5c-0.2,0-0.4-0.2-0.4-0.3c0-0.1,0-0.2,0.1-0.3c0.1-0.1,0.4-0.1,0.5,0c0.1,0.1,0.1,0.4,0,0.5
			C16.8-24.6,16.7-24.5,16.6-24.5z"/>
		<path class="st1" d="M32.8-21c-0.2,0-0.3-0.1-0.3-0.3c0,0,0,0,0,0l0,0c0-0.1,0-0.2,0.1-0.3c0.1-0.1,0.4-0.1,0.5,0
			c0.1,0.1,0.1,0.2,0.1,0.2C33.2-21.2,33.1-21,32.8-21C32.9-21,32.9-21,32.8-21L32.8-21z"/>
		<path class="st1" d="M27.6-17.5c-0.2,0-0.4-0.2-0.4-0.3c0-0.1,0-0.2,0.1-0.3c0.1-0.1,0.4-0.1,0.5,0c0.1,0.1,0.1,0.4,0,0.5
			C27.8-17.6,27.7-17.5,27.6-17.5z"/>
		<path class="st1" d="M32.3-16c-0.2,0-0.4-0.2-0.4-0.3c0-0.1,0-0.2,0.1-0.3c0.1-0.1,0.4-0.1,0.5,0c0.1,0.1,0.1,0.4,0,0.5
			C32.5-16,32.4-16,32.3-16z"/>
		<path class="st1" d="M32.3-14.3c-0.2,0-0.3-0.2-0.3-0.4c0-0.1,0-0.2,0.1-0.2l0,0c0.1-0.1,0.4-0.1,0.5,0c0.1,0.1,0.1,0.2,0.1,0.3
			C32.7-14.4,32.6-14.3,32.3-14.3C32.4-14.3,32.4-14.3,32.3-14.3L32.3-14.3L32.3-14.3z"/>
		<path class="st1" d="M34.3-13.5c-0.2,0-0.4-0.2-0.4-0.3c0-0.1,0-0.2,0.1-0.3c0.1-0.1,0.4-0.1,0.5,0c0.1,0.1,0.1,0.4,0,0.5
			C34.5-13.6,34.4-13.5,34.3-13.5z"/>
		<path class="st1" d="M26.4-7C26.2-7,26-7.2,26-7.4c0-0.2,0.2-0.3,0.4-0.3c0.2,0,0.3,0.1,0.3,0.3C26.7-7.2,26.6-7,26.4-7
			C26.4-7,26.4-7,26.4-7L26.4-7z"/>
		<path class="st1" d="M36.3-15.5c-0.2,0-0.3-0.2-0.3-0.3c0-0.2,0.2-0.3,0.3-0.3c0.2,0,0.3,0.1,0.3,0.3
			C36.7-15.7,36.6-15.5,36.3-15.5C36.4-15.5,36.4-15.5,36.3-15.5L36.3-15.5z"/>
		<path class="st1" d="M39.6-15.8c-0.1,0-0.2,0-0.2-0.1c-0.1-0.1-0.1-0.2-0.1-0.3c0-0.1,0-0.2,0.1-0.3c0.1-0.1,0.4-0.1,0.5,0
			c0.1,0.1,0.1,0.4,0,0.5C39.8-15.8,39.7-15.8,39.6-15.8z"/>
		<path class="st1" d="M42.1-21c-0.2,0-0.4-0.2-0.4-0.3c0-0.1,0-0.2,0.1-0.3c0.1-0.1,0.4-0.1,0.5,0c0.1,0.1,0.1,0.4,0,0.5
			C42.3-21,42.2-21,42.1-21z"/>
		<path class="st1" d="M43.8-27c-0.1,0-0.2,0-0.3-0.1c-0.1-0.1-0.1-0.2-0.1-0.2c0-0.1,0-0.2,0.1-0.3c0.1-0.1,0.4-0.1,0.5,0
			c0.1,0.1,0.1,0.4,0,0.5C44-27,43.9-27,43.8-27z"/>
		<path class="st1" d="M51.3-21.3c-0.2,0-0.4-0.2-0.4-0.3c0-0.1,0-0.2,0.1-0.3c0.1-0.1,0.4-0.1,0.5,0c0.1,0.1,0.1,0.4,0,0.5
			C51.5-21.3,51.4-21.3,51.3-21.3z"/>
		<path class="st1" d="M52.3-25.3c-0.1,0-0.2,0-0.3-0.1C52-25.5,52-25.5,52-25.6c0-0.1,0-0.2,0.1-0.3c0.1-0.1,0.3-0.1,0.5,0
			c0.1,0.1,0.1,0.2,0.1,0.3C52.7-25.4,52.6-25.3,52.3-25.3C52.4-25.3,52.4-25.3,52.3-25.3L52.3-25.3z"/>
		<path class="st1" d="M55.3-24.8c-0.1,0-0.2,0-0.3-0.1C55-25,55-25,55-25.1c0-0.1,0-0.2,0.1-0.3c0.1-0.1,0.4-0.1,0.5,0
			c0.1,0.1,0.1,0.2,0.1,0.3C55.7-24.9,55.6-24.8,55.3-24.8C55.4-24.8,55.4-24.8,55.3-24.8L55.3-24.8z"/>
		<path class="st1" d="M55.3-17.5c-0.1,0-0.2,0-0.3-0.1C55-17.7,55-17.8,55-17.9c0-0.1,0-0.2,0.1-0.3c0.1-0.1,0.3-0.1,0.5,0
			c0.1,0.1,0.1,0.2,0.1,0.3C55.7-17.7,55.6-17.5,55.3-17.5C55.4-17.5,55.4-17.5,55.3-17.5L55.3-17.5z"/>
		<path class="st1" d="M51.6-15.5c-0.2,0-0.4-0.2-0.4-0.3c0-0.1,0-0.2,0.1-0.3c0.1-0.1,0.4-0.1,0.5,0c0.1,0.1,0.1,0.2,0.1,0.3
			C52-15.7,51.8-15.5,51.6-15.5C51.6-15.5,51.6-15.5,51.6-15.5z"/>
		<path class="st1" d="M51.3-8C51.2-8,51-8.1,51-8.3c0,0,0,0,0,0l0,0c0-0.1,0-0.2,0.1-0.2c0.1-0.1,0.3-0.1,0.5,0l0,0
			c0.1,0.1,0.1,0.2,0.1,0.3c0,0.1,0,0.2-0.1,0.3C51.5-8,51.4-8,51.3-8z"/>
		<path class="st1" d="M53.6-8c-0.2,0-0.3-0.1-0.3-0.3c0,0,0,0,0,0l0,0c0-0.1,0-0.2,0.1-0.3c0.1-0.1,0.4-0.1,0.5,0
			C53.9-8.5,54-8.4,54-8.3C54-8.2,53.8-8,53.6-8C53.6-8,53.6-8,53.6-8z"/>
		<path class="st1" d="M56.3-8.8c-0.2,0-0.3-0.2-0.3-0.3c0-0.2,0.2-0.3,0.3-0.3c0.2,0,0.3,0.1,0.3,0.3C56.7-8.9,56.6-8.8,56.3-8.8
			C56.4-8.8,56.4-8.8,56.3-8.8L56.3-8.8z"/>
		<path class="st1" d="M58.6-10.3c-0.1,0-0.2,0-0.3-0.1c-0.1-0.1-0.1-0.2-0.1-0.2c0-0.1,0-0.2,0.1-0.3c0.1-0.1,0.4-0.1,0.5,0
			c0.1,0.1,0.1,0.2,0.1,0.3C59-10.4,58.8-10.3,58.6-10.3C58.6-10.3,58.6-10.3,58.6-10.3L58.6-10.3z"/>
		<path class="st1" d="M21.4-44.8c-0.2,0-0.3-0.2-0.3-0.3c0-0.2,0.2-0.3,0.4-0.3c0.2,0,0.3,0.1,0.3,0.3
			C21.7-44.9,21.6-44.8,21.4-44.8C21.4-44.8,21.4-44.8,21.4-44.8L21.4-44.8z"/>
		<path class="st1" d="M23.1-47.8c-0.2,0-0.4-0.2-0.4-0.3c0-0.1,0-0.2,0.1-0.3c0.1-0.1,0.4-0.1,0.5,0c0.1,0.1,0.1,0.4,0,0.5
			C23.3-47.8,23.2-47.8,23.1-47.8z"/>
		<path class="st1" d="M39.3-47c-0.2,0-0.4-0.2-0.4-0.3c0-0.1,0-0.2,0.1-0.3c0.1-0.1,0.4-0.1,0.5,0c0.1,0.1,0.1,0.4,0,0.5
			C39.5-47,39.4-47,39.3-47z"/>
		<path class="st1" d="M46.6-42.8c-0.1,0-0.2,0-0.3-0.1c-0.1-0.1-0.1-0.4,0-0.5c0.1-0.1,0.3-0.1,0.5,0l0,0c0.1,0.1,0.1,0.2,0.1,0.3
			C46.9-42.9,46.8-42.8,46.6-42.8C46.6-42.8,46.6-42.8,46.6-42.8L46.6-42.8L46.6-42.8z"/>
		<path class="st1" d="M55.6-43.8c-0.2,0-0.4-0.2-0.4-0.3c0-0.1,0-0.2,0.1-0.3c0.1-0.1,0.4-0.1,0.5,0c0.1,0.1,0.1,0.4,0,0.5
			C55.8-43.8,55.7-43.8,55.6-43.8z"/>
		<path class="st1" d="M51.6-46.5c-0.2,0-0.4-0.2-0.4-0.3c0-0.1,0-0.2,0.1-0.3c0.1-0.1,0.4-0.1,0.5,0c0.1,0.1,0.1,0.2,0.1,0.3
			C52-46.7,51.8-46.5,51.6-46.5C51.6-46.5,51.6-46.5,51.6-46.5L51.6-46.5z"/>
		<path class="st1" d="M52.3-42.3c-0.1,0-0.2,0-0.3-0.1c-0.1-0.1-0.1-0.4,0-0.5c0.1-0.1,0.4-0.1,0.5,0c0.1,0.1,0.1,0.1,0.1,0.2
			C52.7-42.4,52.6-42.3,52.3-42.3C52.4-42.3,52.4-42.3,52.3-42.3L52.3-42.3z"/>
		<path class="st1" d="M62.8-36.3c-0.2,0-0.3-0.1-0.3-0.3c0,0,0,0,0,0l0,0c0-0.1,0-0.2,0.1-0.3c0.1-0.1,0.4-0.1,0.5,0
			c0.1,0.1,0.1,0.1,0.1,0.2C63.2-36.4,63.1-36.3,62.8-36.3C62.9-36.3,62.9-36.3,62.8-36.3L62.8-36.3L62.8-36.3z"/>
		<path class="st1" d="M57.1-32.8c-0.2,0-0.3-0.2-0.3-0.3c0-0.2,0.2-0.3,0.3-0.3c0.2,0,0.3,0.1,0.3,0.3
			C57.5-32.9,57.3-32.8,57.1-32.8C57.1-32.8,57.1-32.8,57.1-32.8L57.1-32.8z"/>
		<path class="st1" d="M48.6-34.5c-0.1,0-0.2,0-0.2-0.1c-0.1-0.1-0.1-0.2-0.1-0.3c0-0.1,0-0.2,0.1-0.3c0.1-0.1,0.4-0.1,0.5,0
			c0.1,0.1,0.1,0.2,0.1,0.2C49-34.7,48.8-34.5,48.6-34.5C48.6-34.5,48.6-34.5,48.6-34.5L48.6-34.5L48.6-34.5z"/>
		<path class="st1" d="M48.3-30.5c-0.1,0-0.2,0-0.3-0.1C48-30.7,48-30.8,48-30.9c0-0.1,0-0.2,0.1-0.3c0.1-0.1,0.4-0.1,0.5,0
			c0.1,0.1,0.1,0.4,0,0.5C48.5-30.6,48.4-30.5,48.3-30.5z"/>
		<path class="st1" d="M53.8-26.8c-0.1,0-0.2,0-0.3-0.1c-0.1-0.1-0.1-0.1-0.1-0.2c0-0.1,0-0.2,0.1-0.3c0.1-0.1,0.3-0.1,0.5,0
			c0.1,0.1,0.1,0.4,0,0.5C54-26.8,53.9-26.8,53.8-26.8z"/>
		<path class="st1" d="M62.6-23.8c-0.2,0-0.3-0.1-0.3-0.3c0,0,0,0,0,0l0,0c0-0.1,0-0.2,0.1-0.3c0.1-0.1,0.4-0.1,0.5,0
			c0.1,0.1,0.1,0.1,0.1,0.2C63-23.9,62.8-23.8,62.6-23.8C62.6-23.8,62.6-23.8,62.6-23.8L62.6-23.8L62.6-23.8z"/>
		<path class="st1" d="M65.3-20c-0.2,0-0.3-0.1-0.3-0.3c0,0,0,0,0,0l0,0c0-0.1,0-0.2,0.1-0.3c0.1-0.1,0.3-0.1,0.5,0
			c0.1,0.1,0.1,0.2,0.1,0.3C65.7-20.1,65.6-20,65.3-20C65.4-20,65.4-20,65.3-20L65.3-20z"/>
		<path class="st1" d="M69.8-26.8c-0.2,0-0.4-0.2-0.4-0.3c0-0.1,0-0.2,0.1-0.3c0.1-0.1,0.4-0.1,0.5,0c0.1,0.1,0.1,0.4,0,0.5
			C70-26.8,69.9-26.8,69.8-26.8z"/>
		<path class="st1" d="M60.3-32.8c-0.1,0-0.2,0-0.3-0.1C60-33,60-33,60-33.1c0-0.1,0-0.2,0.1-0.3c0.1-0.1,0.4-0.1,0.5,0
			c0.1,0.1,0.1,0.4,0,0.5C60.5-32.8,60.4-32.8,60.3-32.8z"/>
		<path class="st1" d="M32.8-24.8c-0.2,0-0.3-0.2-0.3-0.3c0-0.2,0.2-0.3,0.3-0.3c0.2,0,0.3,0.1,0.3,0.3
			C33.2-24.9,33.1-24.8,32.8-24.8C32.9-24.8,32.9-24.8,32.8-24.8L32.8-24.8z"/>
		<path class="st1" d="M26.6-34c-0.2,0-0.3-0.2-0.3-0.3c0-0.2,0.2-0.3,0.4-0.3c0.2,0,0.3,0.1,0.3,0.3C27-34.2,26.8-34,26.6-34
			C26.6-34,26.6-34,26.6-34z"/>
		<path class="st1" d="M30.1-36.3c-0.1,0-0.2,0-0.2-0.1c-0.1-0.1-0.1-0.2-0.1-0.3c0-0.1,0-0.2,0.1-0.3c0.1-0.1,0.3-0.1,0.5,0
			c0.1,0.1,0.1,0.2,0.1,0.3C30.5-36.4,30.3-36.3,30.1-36.3C30.1-36.3,30.1-36.3,30.1-36.3L30.1-36.3z"/>
		<path class="st1" d="M10.9-42.3c-0.2,0-0.4-0.2-0.4-0.3c0-0.1,0-0.2,0.1-0.3c0.1-0.1,0.3-0.1,0.5,0c0.1,0.1,0.1,0.2,0.1,0.3
			C11.2-42.4,11.1-42.3,10.9-42.3C10.9-42.3,10.9-42.3,10.9-42.3L10.9-42.3z"/>
		<path class="st1" d="M6.3-40.3c-0.2,0-0.4-0.2-0.4-0.3c0-0.1,0-0.2,0.1-0.3c0.1-0.1,0.4-0.1,0.5,0c0.1,0.1,0.1,0.2,0.1,0.3
			C6.7-40.4,6.6-40.3,6.3-40.3C6.4-40.3,6.4-40.3,6.3-40.3z"/>
		<path class="st1" d="M2.8-36.5c-0.1,0-0.2,0-0.3-0.1c-0.1-0.1-0.1-0.4,0-0.5c0.1-0.1,0.4-0.1,0.5,0c0.1,0.1,0.1,0.4,0,0.5
			C3-36.6,2.9-36.5,2.8-36.5z"/>
		<path class="st1" d="M17.4-29.8c-0.2,0-0.3-0.1-0.3-0.3c0,0,0,0,0,0l0,0c0-0.1,0-0.2,0.1-0.3c0.1-0.1,0.4-0.1,0.5,0
			c0.1,0.1,0.1,0.2,0.1,0.2C17.7-29.9,17.6-29.8,17.4-29.8C17.4-29.8,17.4-29.8,17.4-29.8L17.4-29.8z"/>
		<path class="st1" d="M13.1-35.8c-0.2,0-0.3-0.1-0.3-0.3c0,0,0,0,0,0l0,0c0-0.1,0-0.2,0.1-0.3c0.1-0.1,0.3-0.1,0.5,0
			c0.1,0.1,0.1,0.4,0,0.5C13.3-35.8,13.2-35.8,13.1-35.8L13.1-35.8z"/>
		<path class="st1" d="M26.9-41.5c-0.2,0-0.4-0.2-0.4-0.3c0-0.1,0-0.2,0.1-0.3c0.1-0.1,0.4-0.1,0.5,0c0.1,0.1,0.1,0.4,0,0.5
			C27-41.6,26.9-41.5,26.9-41.5z"/>
		<path class="st1" d="M39.6-41c-0.2,0-0.4-0.2-0.4-0.3c0-0.1,0-0.2,0.1-0.3c0.1-0.1,0.4-0.1,0.5,0s0.1,0.4,0,0.5
			C39.8-41,39.7-41,39.6-41z"/>
		<path class="st1" d="M38.6-39c-0.2,0-0.4-0.2-0.4-0.3c0-0.1,0-0.2,0.1-0.3c0.1-0.1,0.4-0.1,0.5,0c0.1,0.1,0.1,0.4,0,0.5
			C38.8-39,38.7-39,38.6-39z"/>
		<path class="st1" d="M28.4-29.8c-0.2,0-0.4-0.2-0.4-0.3c0-0.1,0-0.2,0.1-0.3c0.1-0.1,0.4-0.1,0.5,0c0.1,0.1,0.1,0.4,0,0.5
			C28.5-29.8,28.4-29.8,28.4-29.8z"/>
		<path class="st1" d="M6.8-51.3c-0.2,0-0.4-0.2-0.4-0.3c0-0.1,0-0.2,0.1-0.3C6.7-52,7-52,7.1-51.9c0.1,0.1,0.1,0.4,0,0.5
			C7-51.3,6.9-51.3,6.8-51.3z"/>
		<path class="st1" d="M10.1-53c-0.2,0-0.3-0.2-0.3-0.3c0-0.2,0.2-0.3,0.4-0.3c0.2,0,0.3,0.1,0.3,0.3C10.5-53.2,10.3-53,10.1-53
			C10.1-53,10.1-53,10.1-53L10.1-53z"/>
		<path class="st1" d="M12.1-48.3c-0.2,0-0.3-0.1-0.3-0.3c0,0,0,0,0,0l0,0c0-0.1,0-0.2,0.1-0.3c0.1-0.1,0.3-0.1,0.5,0
			c0.1,0.1,0.1,0.4,0,0.5C12.3-48.3,12.2-48.3,12.1-48.3L12.1-48.3z"/>
		<path class="st1" d="M3.3-46c-0.1,0-0.2,0-0.3-0.1c-0.1-0.1-0.1-0.4,0-0.5c0.1-0.1,0.4-0.1,0.5,0c0.1,0.1,0.1,0.4,0,0.5
			C3.5-46,3.4-46,3.3-46z"/>
		<path class="st1" d="M64.6-42.3c-0.1,0-0.2,0-0.2-0.1c-0.1-0.1-0.1-0.2-0.1-0.3c0-0.1,0-0.2,0.1-0.3c0.1-0.1,0.4-0.1,0.5,0
			c0.1,0.1,0.1,0.1,0.1,0.2C65-42.4,64.8-42.3,64.6-42.3C64.6-42.3,64.6-42.3,64.6-42.3L64.6-42.3z"/>
		<path class="st1" d="M69.8-42c-0.2,0-0.3-0.1-0.3-0.3c0,0,0,0,0,0l0,0c0-0.1,0-0.2,0.1-0.3c0.1-0.1,0.3-0.1,0.5,0
			c0.1,0.1,0.1,0.4,0,0.5C70-42,69.9-42,69.8-42L69.8-42z"/>
		<path class="st1" d="M1.9-62.8c-0.1,0-0.2,0-0.3-0.1c-0.1-0.1-0.1-0.4,0-0.5c0.1-0.1,0.4-0.1,0.5,0c0.1,0.1,0.1,0.4,0,0.5
			C2-62.8,1.9-62.8,1.9-62.8z"/>
		<path class="st1" d="M16.9-65.8c-0.2,0-0.3-0.1-0.3-0.3c0,0,0,0,0,0l0,0c0-0.1,0-0.2,0.1-0.3c0.1-0.1,0.4-0.1,0.5,0
			c0.1,0.1,0.1,0.4,0,0.5C17-65.8,16.9-65.8,16.9-65.8z"/>
		<path class="st1" d="M4.1-65.8c-0.2,0-0.3-0.2-0.3-0.3c0-0.2,0.2-0.3,0.3-0.3c0.2,0,0.3,0.1,0.3,0.3C4.5-65.9,4.3-65.8,4.1-65.8
			C4.1-65.8,4.1-65.8,4.1-65.8L4.1-65.8z"/>
		<path class="st1" d="M13.1-57.5c-0.2,0-0.3-0.2-0.3-0.3c0-0.2,0.2-0.3,0.4-0.3c0.2,0,0.3,0.1,0.3,0.3
			C13.5-57.7,13.3-57.5,13.1-57.5C13.1-57.5,13.1-57.5,13.1-57.5L13.1-57.5z"/>
		<path class="st1" d="M18.9-52.5c-0.2,0-0.3-0.1-0.3-0.3c0,0,0,0,0,0l0,0c0-0.1,0-0.2,0.1-0.3c0.1-0.1,0.4-0.1,0.5,0
			c0.1,0.1,0.1,0.1,0.1,0.2C19.2-52.7,19.1-52.5,18.9-52.5C18.9-52.5,18.9-52.5,18.9-52.5L18.9-52.5z"/>
		<path class="st1" d="M21.6-34.8c-0.2,0-0.3-0.1-0.3-0.3c0,0,0,0,0,0l0,0c0-0.1,0-0.2,0.1-0.3c0.1-0.1,0.3-0.1,0.5,0
			c0.1,0.1,0.1,0.2,0.1,0.3C22-34.9,21.8-34.8,21.6-34.8C21.6-34.8,21.6-34.8,21.6-34.8L21.6-34.8z"/>
		<path class="st1" d="M1.1-27.5c-0.1,0-0.2,0-0.3-0.1c-0.1-0.1-0.1-0.2-0.1-0.3c0-0.1,0-0.2,0.1-0.3c0.1-0.1,0.3-0.1,0.5,0
			c0.1,0.1,0.1,0.4,0,0.5C1.3-27.6,1.2-27.5,1.1-27.5z"/>
		<path class="st1" d="M68.3-5.8c-0.2,0-0.3-0.1-0.3-0.3c0,0,0,0,0,0l0,0c0-0.1,0-0.2,0.1-0.3c0.1-0.1,0.3-0.1,0.5,0
			c0.1,0.1,0.1,0.2,0.1,0.3C68.7-5.9,68.6-5.8,68.3-5.8C68.4-5.8,68.4-5.8,68.3-5.8L68.3-5.8z"/>
		<path class="st1" d="M60.1-2c-0.1,0-0.2,0-0.3-0.1c-0.1-0.1-0.1-0.2-0.1-0.3c0-0.1,0-0.2,0.1-0.3c0.1-0.1,0.4-0.1,0.5,0
			c0.1,0.1,0.1,0.2,0.1,0.3c0,0.1,0,0.2-0.1,0.3C60.3-2,60.2-2,60.1-2z"/>
		<path class="st1" d="M40.8-3.8c-0.2,0-0.4-0.2-0.4-0.3c0-0.1,0-0.2,0.1-0.3c0.1-0.1,0.4-0.1,0.5,0s0.1,0.4,0,0.5
			C41-3.8,40.9-3.8,40.8-3.8z"/>
		<path class="st1" d="M4.8-11.8c-0.2,0-0.3-0.2-0.3-0.4c0-0.2,0.2-0.3,0.3-0.3c0.2,0,0.3,0.1,0.3,0.3C5.2-11.9,5.1-11.8,4.8-11.8
			C4.9-11.8,4.9-11.8,4.8-11.8L4.8-11.8z"/>
		<path class="st1" d="M26.9-12.3c-0.2,0-0.3-0.2-0.3-0.4c0-0.2,0.2-0.3,0.4-0.3c0.2,0,0.3,0.1,0.3,0.3
			C27.2-12.4,27.1-12.3,26.9-12.3C26.9-12.3,26.9-12.3,26.9-12.3L26.9-12.3z"/>
		<path class="st1" d="M37.6-23.3c-0.2,0-0.3-0.1-0.3-0.3c0,0,0,0,0,0l0,0c0-0.1,0-0.2,0.1-0.3c0.1-0.1,0.4-0.1,0.5,0s0.1,0.4,0,0.5
			C37.8-23.3,37.7-23.3,37.6-23.3z"/>
		<path class="st1" d="M9.1-31.5c-0.2,0-0.3-0.2-0.3-0.4c0-0.2,0.2-0.3,0.4-0.3c0.2,0,0.3,0.1,0.3,0.3C9.5-31.7,9.3-31.5,9.1-31.5
			C9.1-31.5,9.1-31.5,9.1-31.5L9.1-31.5z"/>
		<path class="st1" d="M52.6-33.8c-0.1,0-0.2,0-0.3-0.1c-0.1-0.1-0.1-0.2-0.1-0.2c0-0.1,0-0.2,0.1-0.3c0.1-0.1,0.3-0.1,0.5,0
			c0.1,0.1,0.1,0.2,0.1,0.3C53-33.9,52.8-33.8,52.6-33.8C52.6-33.8,52.6-33.8,52.6-33.8L52.6-33.8z"/>
		<path class="st1" d="M61.1-25.8c-0.2,0-0.3-0.1-0.3-0.3c0,0,0,0,0,0l0,0c0-0.1,0-0.2,0.1-0.3c0.1-0.1,0.3-0.1,0.5,0
			c0.1,0.1,0.1,0.2,0.1,0.3C61.5-25.9,61.3-25.8,61.1-25.8C61.1-25.8,61.1-25.8,61.1-25.8L61.1-25.8z"/>
		<path class="st1" d="M51.6-5.5c-0.2,0-0.4-0.2-0.4-0.3c0-0.1,0-0.2,0.1-0.3c0.1-0.1,0.4-0.1,0.5,0c0.1,0.1,0.1,0.2,0.1,0.3
			c0,0.1,0,0.2-0.1,0.3C51.8-5.6,51.7-5.5,51.6-5.5z"/>
		<path class="st1" d="M40.3-34c-0.2,0-0.3-0.2-0.3-0.3c0-0.2,0.2-0.3,0.3-0.3c0.2,0,0.3,0.1,0.3,0.3C40.7-34.2,40.6-34,40.3-34
			C40.4-34,40.4-34,40.3-34L40.3-34z"/>
		<path class="st1" d="M27.9-58.3c-0.2,0-0.3-0.2-0.3-0.3c0-0.2,0.2-0.3,0.4-0.3c0.2,0,0.3,0.1,0.3,0.3
			C28.2-58.4,28.1-58.3,27.9-58.3C27.9-58.3,27.9-58.3,27.9-58.3L27.9-58.3z"/>
		<path class="st1" d="M20.1-45.3c-0.2,0-0.3-0.1-0.3-0.3c0,0,0,0,0,0l0,0c0-0.1,0-0.2,0.1-0.3c0.1-0.1,0.3-0.1,0.5,0
			c0.1,0.1,0.1,0.2,0.1,0.3C20.5-45.4,20.3-45.3,20.1-45.3C20.1-45.3,20.1-45.3,20.1-45.3L20.1-45.3z"/>
		<path class="st1" d="M12.1-70c-0.2,0-0.4-0.2-0.4-0.3c0-0.1,0-0.2,0.1-0.3c0.1-0.1,0.4-0.1,0.5,0c0.1,0.1,0.1,0.4,0,0.5
			C12.3-70,12.2-70,12.1-70z"/>
		<path class="st1" d="M55.6-68c-0.2,0-0.3-0.1-0.3-0.3c0,0,0,0,0,0l0,0c0-0.1,0-0.2,0.1-0.3c0.1-0.1,0.3-0.1,0.5,0
			c0.1,0.1,0.1,0.2,0.1,0.3C55.9-68.1,55.8-68,55.6-68C55.6-68,55.6-68,55.6-68z"/>
		<path class="st1" d="M47.6-2c-0.1,0-0.2,0-0.3-0.1c-0.1-0.1-0.1-0.2-0.1-0.3c0-0.1,0-0.2,0.1-0.3c0.1-0.1,0.4-0.1,0.5,0
			c0.1,0.1,0.1,0.1,0.1,0.2C48-2.2,47.8-2,47.6-2C47.6-2,47.6-2,47.6-2z"/>
		<path class="st1" d="M5.1-31.5c-0.2,0-0.3-0.1-0.3-0.3c0,0,0,0,0,0l0,0c0-0.1,0-0.2,0.1-0.3c0.1-0.1,0.3-0.1,0.5,0
			C5.4-32,5.4-32,5.4-31.9C5.5-31.7,5.3-31.5,5.1-31.5C5.1-31.5,5.1-31.5,5.1-31.5L5.1-31.5z"/>
		<path class="st1" d="M69.1-58.5c-0.2,0-0.4-0.2-0.4-0.3c0-0.1,0-0.2,0.1-0.3c0.1-0.1,0.4-0.1,0.5,0s0.1,0.4,0,0.5
			C69.3-58.6,69.2-58.5,69.1-58.5z"/>
		<path class="st1" d="M23.6-57.8c-0.2,0-0.3-0.2-0.3-0.3c0-0.2,0.2-0.3,0.4-0.3c0.2,0,0.3,0.1,0.3,0.3C24-57.9,23.8-57.8,23.6-57.8
			C23.6-57.8,23.6-57.8,23.6-57.8L23.6-57.8z"/>
		<path class="st1" d="M20.9-54.5c-0.2,0-0.4-0.2-0.4-0.3c0-0.1,0-0.2,0.1-0.3c0.1-0.1,0.4-0.1,0.5,0c0.1,0.1,0.1,0.4,0,0.5
			C21-54.6,20.9-54.5,20.9-54.5z"/>
		<path class="st1" d="M15.1-54.5c-0.2,0-0.3-0.1-0.3-0.3c0,0,0,0,0,0l0,0c0-0.1,0-0.2,0.1-0.3c0.1-0.1,0.3-0.1,0.5,0
			c0.1,0.1,0.1,0.2,0.1,0.3C15.5-54.7,15.3-54.5,15.1-54.5C15.1-54.5,15.1-54.5,15.1-54.5L15.1-54.5z"/>
		<path class="st1" d="M6.3-60C6.2-60,6-60.2,6-60.3c0-0.1,0-0.2,0.1-0.3c0.1-0.1,0.4-0.1,0.5,0c0.1,0.1,0.1,0.2,0.1,0.3
			C6.7-60.2,6.6-60,6.3-60C6.4-60,6.4-60,6.3-60L6.3-60z"/>
		<path class="st1" d="M7.3-69c-0.1,0-0.2,0-0.2-0.1C7-69.2,7-69.3,7-69.3c0-0.1,0-0.2,0.1-0.3c0.1-0.1,0.4-0.1,0.5,0
			c0.1,0.1,0.1,0.1,0.1,0.2C7.7-69.2,7.6-69,7.3-69C7.4-69,7.4-69,7.3-69z"/>
		<path class="st1" d="M10.4-63.5c-0.2,0-0.3-0.2-0.3-0.3c0-0.2,0.2-0.3,0.4-0.3c0.2,0,0.3,0.1,0.3,0.3
			C10.7-63.7,10.6-63.5,10.4-63.5C10.4-63.5,10.4-63.5,10.4-63.5L10.4-63.5z"/>
		<path class="st1" d="M14.6-63.5c-0.2,0-0.3-0.1-0.3-0.3c0,0,0,0,0,0l0,0c0-0.1,0-0.2,0.1-0.3c0.1-0.1,0.3-0.1,0.5,0
			c0.1,0.1,0.1,0.2,0.1,0.3C15-63.7,14.8-63.5,14.6-63.5C14.6-63.5,14.6-63.5,14.6-63.5L14.6-63.5z"/>
		<path class="st1" d="M26.1-64.8c-0.2,0-0.3-0.2-0.3-0.3c0-0.2,0.2-0.3,0.4-0.3c0.2,0,0.3,0.1,0.3,0.3
			C26.5-64.9,26.3-64.8,26.1-64.8C26.1-64.8,26.1-64.8,26.1-64.8L26.1-64.8z"/>
		<path class="st1" d="M37.3-64.3c-0.2,0-0.4-0.2-0.4-0.3c0-0.1,0-0.2,0.1-0.3c0.1-0.1,0.4-0.1,0.5,0c0.1,0.1,0.1,0.4,0,0.5
			C37.5-64.3,37.4-64.3,37.3-64.3z"/>
		<path class="st1" d="M37.8-67.5c-0.2,0-0.3-0.1-0.3-0.3c0,0,0,0,0,0l0,0c0-0.2,0.1-0.3,0.3-0.3c0.1,0,0.2,0,0.3,0.1
			c0.1,0.1,0.1,0.2,0.1,0.2C38.2-67.7,38-67.5,37.8-67.5C37.9-67.5,37.9-67.5,37.8-67.5L37.8-67.5L37.8-67.5z"/>
		<path class="st1" d="M43.6-69.5c-0.2,0-0.4-0.2-0.4-0.3c0-0.1,0-0.2,0.1-0.3c0.1-0.1,0.4-0.1,0.5,0c0.1,0.1,0.1,0.4,0,0.5
			C43.8-69.6,43.7-69.5,43.6-69.5z"/>
		<path class="st1" d="M49.8-63.5c-0.1,0-0.2,0-0.3-0.1c-0.1-0.1-0.1-0.4,0-0.5c0.1-0.1,0.4-0.1,0.5,0c0.1,0.1,0.1,0.4,0,0.5
			C50-63.6,49.9-63.5,49.8-63.5z"/>
		<path class="st1" d="M46.3-62.5c-0.2,0-0.4-0.2-0.4-0.3c0-0.1,0-0.2,0.1-0.3c0.1-0.1,0.4-0.1,0.5,0s0.1,0.4,0,0.5
			C46.5-62.6,46.4-62.5,46.3-62.5z"/>
		<path class="st1" d="M36.1-60.8c-0.2,0-0.3-0.1-0.3-0.3c0,0,0,0,0,0l0,0c0-0.1,0-0.2,0.1-0.3c0.1-0.1,0.4-0.1,0.5,0
			c0.1,0.1,0.1,0.1,0.1,0.2C36.5-60.9,36.3-60.8,36.1-60.8C36.1-60.8,36.1-60.8,36.1-60.8L36.1-60.8z"/>
		<path class="st1" d="M39.6-56.8c-0.2,0-0.3-0.2-0.3-0.3c0-0.2,0.2-0.3,0.3-0.3c0.2,0,0.3,0.1,0.3,0.3C40-56.9,39.8-56.8,39.6-56.8
			C39.6-56.8,39.6-56.8,39.6-56.8L39.6-56.8z"/>
		<path class="st1" d="M25.1-53.8c-0.2,0-0.3-0.2-0.3-0.3c0-0.2,0.2-0.3,0.4-0.3c0.2,0,0.3,0.1,0.3,0.3
			C25.5-53.9,25.3-53.8,25.1-53.8C25.1-53.8,25.1-53.8,25.1-53.8L25.1-53.8z"/>
		<path class="st1" d="M8.6-44.5c-0.2,0-0.3-0.2-0.3-0.3c0-0.2,0.2-0.3,0.4-0.3c0.2,0,0.3,0.1,0.3,0.3C9-44.7,8.8-44.5,8.6-44.5
			C8.6-44.5,8.6-44.5,8.6-44.5z"/>
		<path class="st1" d="M16.4-40c-0.2,0-0.4-0.2-0.4-0.3c0-0.1,0-0.2,0.1-0.3c0.1-0.1,0.4-0.1,0.5,0c0.1,0.1,0.1,0.4,0,0.5
			C16.5-40,16.4-40,16.4-40z"/>
		<path class="st1" d="M10.9-38.3c-0.2,0-0.3-0.1-0.3-0.3c0,0,0,0,0,0l0,0c0-0.1,0-0.2,0.1-0.3c0.1-0.1,0.3-0.1,0.5,0
			c0.1,0.1,0.1,0.4,0,0.5C11-38.3,10.9-38.3,10.9-38.3L10.9-38.3z"/>
		<path class="st1" d="M5.6-34.8c-0.2,0-0.4-0.2-0.4-0.3c0-0.1,0-0.2,0.1-0.3c0.1-0.1,0.4-0.1,0.5,0c0.1,0.1,0.1,0.2,0.1,0.3
			C6-34.9,5.8-34.8,5.6-34.8C5.6-34.8,5.6-34.8,5.6-34.8z"/>
		<path class="st1" d="M3.6-51.3c-0.1,0-0.2,0-0.3-0.1c-0.1-0.1-0.1-0.4,0-0.5c0.1-0.1,0.4-0.1,0.5,0c0.1,0.1,0.1,0.4,0,0.5
			C3.8-51.3,3.7-51.3,3.6-51.3z"/>
		<path class="st1" d="M20.9-41c-0.2,0-0.3-0.1-0.3-0.3c0,0,0,0,0,0l0,0c0-0.1,0-0.2,0.1-0.3c0.1-0.1,0.4-0.1,0.5,0
			c0.1,0.1,0.1,0.2,0.1,0.2C21.2-41.2,21.1-41,20.9-41C20.9-41,20.9-41,20.9-41L20.9-41z"/>
		<path class="st1" d="M17.9-36.3c-0.2,0-0.4-0.2-0.4-0.3c0-0.1,0-0.2,0.1-0.3c0.1-0.1,0.4-0.1,0.5,0c0.1,0.1,0.1,0.4,0,0.5
			C18-36.3,17.9-36.3,17.9-36.3z"/>
		<path class="st1" d="M16.4-32.8c-0.2,0-0.3-0.1-0.3-0.3c0,0,0,0,0,0l0,0c0-0.1,0-0.2,0.1-0.3c0.1-0.1,0.3-0.1,0.5,0
			c0.1,0.1,0.1,0.4,0,0.5C16.5-32.8,16.4-32.8,16.4-32.8L16.4-32.8z"/>
		<path class="st1" d="M13.1-30.5c-0.2,0-0.3-0.1-0.3-0.3c0,0,0,0,0,0l0,0c0-0.1,0-0.2,0.1-0.3c0.1-0.1,0.3-0.1,0.5,0
			c0.1,0.1,0.1,0.2,0.1,0.3C13.5-30.7,13.3-30.5,13.1-30.5C13.1-30.5,13.1-30.5,13.1-30.5L13.1-30.5z"/>
		<path class="st1" d="M13.1-25.3c-0.2,0-0.3-0.1-0.3-0.3c0,0,0,0,0,0l0,0c0-0.1,0-0.2,0.1-0.3c0.1-0.1,0.3-0.1,0.5,0
			c0.1,0.1,0.1,0.2,0.1,0.3C13.5-25.4,13.3-25.3,13.1-25.3C13.1-25.3,13.1-25.3,13.1-25.3L13.1-25.3z"/>
		<path class="st1" d="M6.1-23.3c-0.2,0-0.4-0.2-0.4-0.3c0-0.1,0-0.2,0.1-0.3C6-24,6.2-24,6.3-23.9c0.1,0.1,0.1,0.4,0,0.5
			C6.3-23.3,6.2-23.3,6.1-23.3z"/>
		<path class="st1" d="M11.4-17.3c-0.2,0-0.4-0.2-0.4-0.3c0-0.1,0-0.2,0.1-0.3c0.1-0.1,0.4-0.1,0.5,0c0.1,0.1,0.1,0.4,0,0.5
			C11.5-17.3,11.4-17.3,11.4-17.3z"/>
		<path class="st1" d="M15.9-13.3c-0.2,0-0.4-0.2-0.4-0.3c0-0.1,0-0.2,0.1-0.3c0.1-0.1,0.4-0.1,0.5,0c0.1,0.1,0.1,0.4,0,0.5
			C16-13.3,15.9-13.3,15.9-13.3z"/>
		<path class="st1" d="M6.3-8.3C6.2-8.3,6-8.4,6-8.6c0-0.1,0-0.2,0.1-0.3C6.2-9,6.5-9,6.6-8.9c0.1,0.1,0.1,0.2,0.1,0.3
			C6.7-8.4,6.6-8.3,6.3-8.3C6.4-8.3,6.4-8.3,6.3-8.3L6.3-8.3z"/>
		<path class="st1" d="M2.6-9.8c-0.1,0-0.2,0-0.3-0.1c-0.1-0.1-0.1-0.4,0-0.5c0.1-0.1,0.3-0.1,0.5,0c0.1,0.1,0.1,0.2,0.1,0.3
			c0,0.1,0,0.2-0.1,0.3C2.8-9.8,2.7-9.8,2.6-9.8z"/>
		<path class="st1" d="M9.4-3.8C9.2-3.8,9-3.9,9-4.1c0-0.2,0.2-0.3,0.4-0.3c0.2,0,0.3,0.1,0.3,0.3C9.7-3.9,9.6-3.8,9.4-3.8
			C9.4-3.8,9.4-3.8,9.4-3.8z"/>
		<path class="st1" d="M13.9-2.3c-0.2,0-0.4-0.2-0.4-0.3c0-0.1,0-0.2,0.1-0.3C13.7-3,14-3,14.1-2.9c0.1,0.1,0.1,0.4,0,0.5
			C14-2.3,13.9-2.3,13.9-2.3z"/>
		<path class="st1" d="M21.9-3.3c-0.2,0-0.3-0.1-0.3-0.3c0,0,0,0,0,0l0,0c0-0.1,0-0.2,0.1-0.3C21.7-4,22-4,22.1-3.9
			c0.1,0.1,0.1,0.2,0.1,0.2C22.2-3.4,22.1-3.3,21.9-3.3C21.9-3.3,21.9-3.3,21.9-3.3L21.9-3.3z"/>
		<path class="st1" d="M23.4-6C23.2-6,23-6.2,23-6.3c0-0.1,0-0.2,0.1-0.3c0.1-0.1,0.4-0.1,0.5,0s0.1,0.4,0,0.5C23.5-6,23.4-6,23.4-6
			z"/>
		<path class="st1" d="M22.6-11.8c-0.2,0-0.4-0.2-0.4-0.3c0-0.1,0-0.2,0.1-0.3c0.1-0.1,0.4-0.1,0.5,0s0.1,0.4,0,0.5
			C22.8-11.8,22.7-11.8,22.6-11.8z"/>
		<path class="st1" d="M24.6-14.3c-0.2,0-0.3-0.1-0.3-0.3c0,0,0,0,0,0l0,0c0-0.1,0-0.2,0.1-0.3c0.1-0.1,0.4-0.1,0.5,0
			c0.1,0.1,0.1,0.4,0,0.5C24.8-14.3,24.7-14.3,24.6-14.3L24.6-14.3z"/>
		<path class="st1" d="M26.6-24c-0.2,0-0.4-0.2-0.4-0.3c0-0.1,0-0.2,0.1-0.3c0.1-0.1,0.4-0.1,0.5,0c0.1,0.1,0.1,0.4,0,0.5
			C26.8-24,26.7-24,26.6-24z"/>
		<path class="st1" d="M26.1-28.3c-0.2,0-0.4-0.2-0.4-0.3c0-0.1,0-0.2,0.1-0.3c0.1-0.1,0.4-0.1,0.5,0c0.1,0.1,0.1,0.4,0,0.5
			C26.3-28.3,26.2-28.3,26.1-28.3z"/>
		<path class="st1" d="M32.6-40.8c-0.2,0-0.3-0.1-0.3-0.3c0,0,0,0,0,0l0,0c0-0.1,0-0.2,0.1-0.3c0.1-0.1,0.4-0.1,0.5,0
			c0.1,0.1,0.1,0.2,0.1,0.2C33-40.9,32.8-40.8,32.6-40.8C32.6-40.8,32.6-40.8,32.6-40.8L32.6-40.8z"/>
		<path class="st1" d="M34.6-44c-0.2,0-0.3-0.1-0.3-0.3c0,0,0,0,0,0l0,0c0-0.1,0-0.2,0.1-0.3c0.1-0.1,0.4-0.1,0.5,0s0.1,0.4,0,0.5
			C34.8-44,34.7-44,34.6-44z"/>
		<path class="st1" d="M42.1-46c-0.2,0-0.4-0.2-0.4-0.3c0-0.1,0-0.2,0.1-0.3c0.1-0.1,0.4-0.1,0.5,0c0.1,0.1,0.1,0.4,0,0.5
			C42.3-46,42.2-46,42.1-46z"/>
		<path class="st1" d="M43.3-51c-0.1,0-0.2,0-0.3-0.1C43-51.2,43-51.3,43-51.4c0-0.1,0-0.2,0.1-0.3c0.1-0.1,0.4-0.1,0.5,0
			c0.1,0.1,0.1,0.2,0.1,0.3c0,0.1,0,0.2-0.1,0.3C43.5-51,43.4-51,43.3-51z"/>
		<path class="st1" d="M36.8-52.5c-0.2,0-0.3-0.1-0.3-0.3c0,0,0,0,0,0c0-0.1,0-0.2,0.1-0.2c0.1-0.1,0.4-0.1,0.5,0l0,0
			c0.1,0.1,0.1,0.4,0,0.5C37-52.6,36.9-52.5,36.8-52.5L36.8-52.5z"/>
		<path class="st1" d="M28.1-49.5c-0.2,0-0.4-0.2-0.4-0.3c0-0.1,0-0.2,0.1-0.3c0.1-0.1,0.4-0.1,0.5,0c0.1,0.1,0.1,0.4,0,0.5
			C28.3-49.6,28.2-49.5,28.1-49.5z"/>
		<path class="st1" d="M52.3-49.8c-0.1,0-0.2,0-0.3-0.1C52-50,52-50,52-50.1c0-0.1,0-0.2,0.1-0.3c0.1-0.1,0.4-0.1,0.5,0
			c0.1,0.1,0.1,0.1,0.1,0.2C52.7-49.9,52.6-49.8,52.3-49.8C52.4-49.8,52.4-49.8,52.3-49.8z"/>
		<path class="st1" d="M43.6-54c-0.1,0-0.2,0-0.3-0.1c-0.1-0.1-0.1-0.4,0-0.5s0.4-0.1,0.5,0c0.1,0.1,0.1,0.4,0,0.5
			C43.8-54,43.7-54,43.6-54z"/>
		<path class="st1" d="M50.8-53.8c-0.1,0-0.2,0-0.3-0.1c-0.1-0.1-0.1-0.4,0-0.5c0.1-0.1,0.4-0.1,0.5,0c0.1,0.1,0.1,0.1,0.1,0.2
			C51.2-53.9,51.1-53.8,50.8-53.8C50.9-53.8,50.9-53.8,50.8-53.8L50.8-53.8z"/>
		<path class="st1" d="M59.8-54.5c-0.2,0-0.3-0.1-0.3-0.3c0,0,0,0,0,0l0,0c0-0.1,0-0.2,0.1-0.3c0.1-0.1,0.3-0.1,0.5,0
			c0.1,0.1,0.1,0.2,0.1,0.3C60.2-54.7,60.1-54.5,59.8-54.5C59.9-54.5,59.9-54.5,59.8-54.5L59.8-54.5z"/>
		<path class="st1" d="M58.6-57.8c-0.1,0-0.2,0-0.3-0.1c-0.1-0.1-0.1-0.4,0-0.5c0.1-0.1,0.4-0.1,0.5,0c0.1,0.1,0.1,0.1,0.1,0.2
			C59-57.9,58.8-57.8,58.6-57.8C58.6-57.8,58.6-57.8,58.6-57.8L58.6-57.8z"/>
		<path class="st1" d="M61.8-60.8c-0.2,0-0.3-0.1-0.3-0.3c0,0,0,0,0,0l0,0c0-0.1,0-0.2,0.1-0.3c0.1-0.1,0.4-0.1,0.5,0
			c0.1,0.1,0.1,0.1,0.1,0.2C62.2-60.9,62.1-60.8,61.8-60.8C61.9-60.8,61.9-60.8,61.8-60.8L61.8-60.8L61.8-60.8z"/>
		<path class="st1" d="M59.1-64.3c-0.1,0-0.2,0-0.3-0.1c-0.1-0.1-0.1-0.2-0.1-0.3c0-0.1,0-0.2,0.1-0.2c0.1-0.1,0.4-0.1,0.5,0
			c0.1,0.1,0.1,0.2,0.1,0.3C59.5-64.4,59.3-64.3,59.1-64.3C59.1-64.3,59.1-64.3,59.1-64.3L59.1-64.3z"/>
		<path class="st1" d="M60.3-67c-0.1,0-0.2,0-0.3-0.1C60-67.2,60-67.3,60-67.3c0-0.1,0-0.2,0.1-0.3c0.1-0.1,0.3-0.1,0.5,0
			c0.1,0.1,0.1,0.2,0.1,0.3C60.7-67.2,60.6-67,60.3-67C60.4-67,60.4-67,60.3-67L60.3-67z"/>
		<path class="st1" d="M67.8-65.8c-0.2,0-0.4-0.2-0.4-0.3c0-0.1,0-0.2,0.1-0.3c0.1-0.1,0.4-0.1,0.5,0c0.1,0.1,0.1,0.4,0,0.5
			C68-65.8,67.9-65.8,67.8-65.8z"/>
		<path class="st1" d="M71.1-63.3c-0.2,0-0.4-0.2-0.4-0.3c0-0.1,0-0.2,0.1-0.3c0.1-0.1,0.3-0.1,0.5,0c0.1,0.1,0.1,0.2,0.1,0.3
			C71.5-63.4,71.3-63.3,71.1-63.3C71.1-63.3,71.1-63.3,71.1-63.3L71.1-63.3z"/>
		<path class="st1" d="M66.1-62c-0.2,0-0.3-0.1-0.3-0.3c0,0,0,0,0,0l0,0c0-0.1,0-0.2,0.1-0.3c0.1-0.1,0.4-0.1,0.5,0
			c0.1,0.1,0.1,0.4,0,0.5C66.3-62,66.2-62,66.1-62z"/>
		<path class="st1" d="M60.6-48c-0.2,0-0.4-0.2-0.4-0.3c0-0.1,0-0.2,0.1-0.3c0.1-0.1,0.4-0.1,0.5,0c0.1,0.1,0.1,0.4,0,0.5
			C60.8-48,60.7-48,60.6-48z"/>
		<path class="st1" d="M55.8-48c-0.2,0-0.4-0.2-0.4-0.3c0-0.1,0-0.2,0.1-0.3c0.1-0.1,0.4-0.1,0.5,0c0.1,0.1,0.1,0.4,0,0.5
			C56-48,55.9-48,55.8-48z"/>
		<path class="st1" d="M55.8-53c-0.1,0-0.2,0-0.3-0.1c-0.1-0.1-0.1-0.2-0.1-0.2c0-0.1,0-0.2,0.1-0.3c0.1-0.1,0.3-0.1,0.5,0
			c0.1,0.1,0.1,0.2,0.1,0.3C56.2-53.2,56.1-53,55.8-53C55.9-53,55.9-53,55.8-53L55.8-53z"/>
		<path class="st1" d="M65.3-46c-0.2,0-0.3-0.1-0.3-0.3c0,0,0,0,0,0l0,0c0-0.1,0-0.2,0.1-0.3c0.1-0.1,0.3-0.1,0.5,0
			c0.1,0.1,0.1,0.2,0.1,0.3C65.7-46.1,65.6-46,65.3-46C65.4-46,65.4-46,65.3-46L65.3-46z"/>
		<path class="st1" d="M58.1-41c-0.1,0-0.2,0-0.3-0.1c-0.1-0.1-0.1-0.2-0.1-0.2c0-0.1,0-0.2,0.1-0.3c0.1-0.1,0.3-0.1,0.5,0
			c0.1,0.1,0.1,0.2,0.1,0.3C58.5-41.2,58.3-41,58.1-41C58.1-41,58.1-41,58.1-41L58.1-41z"/>
		<path class="st1" d="M53.1-39c-0.1,0-0.2,0-0.3-0.1c-0.1-0.1-0.1-0.2-0.1-0.2c0-0.1,0-0.2,0.1-0.3c0.1-0.1,0.3-0.1,0.5,0
			c0.1,0.1,0.1,0.2,0.1,0.3C53.5-39.2,53.3-39,53.1-39C53.1-39,53.1-39,53.1-39L53.1-39z"/>
		<path class="st1" d="M47.8-38c-0.1,0-0.2,0-0.3-0.1c-0.1-0.1-0.1-0.2-0.1-0.2c0-0.1,0-0.2,0.1-0.3c0.1-0.1,0.3-0.1,0.5,0
			c0.1,0.1,0.1,0.2,0.1,0.3C48.2-38.2,48.1-38,47.8-38C47.9-38,47.9-38,47.8-38L47.8-38z"/>
		<path class="st1" d="M44.6-32.5c-0.1,0-0.2,0-0.3-0.1c-0.1-0.1-0.1-0.2-0.1-0.2c0-0.1,0-0.2,0.1-0.3c0.1-0.1,0.4-0.1,0.5,0
			c0.1,0.1,0.1,0.2,0.1,0.3c0,0.1,0,0.2-0.1,0.3C44.8-32.6,44.7-32.5,44.6-32.5z"/>
		<path class="st1" d="M34.3-30.3c-0.2,0-0.4-0.2-0.4-0.3c0-0.1,0-0.2,0.1-0.3c0.1-0.1,0.4-0.1,0.5,0c0.1,0.1,0.1,0.4,0,0.5
			C34.5-30.3,34.4-30.3,34.3-30.3z"/>
		<path class="st1" d="M41.1-23.8c-0.2,0-0.4-0.2-0.4-0.3c0-0.1,0-0.2,0.1-0.3c0.1-0.1,0.4-0.1,0.5,0c0.1,0.1,0.1,0.2,0.1,0.3
			C41.5-23.9,41.3-23.8,41.1-23.8C41.1-23.8,41.1-23.8,41.1-23.8L41.1-23.8z"/>
		<path class="st1" d="M46.1-19.5c-0.2,0-0.3-0.1-0.3-0.3c0,0,0,0,0,0l0,0c0-0.1,0-0.2,0.1-0.3c0.1-0.1,0.4-0.1,0.5,0
			c0.1,0.1,0.1,0.2,0.1,0.2C46.5-19.7,46.3-19.5,46.1-19.5C46.1-19.5,46.1-19.5,46.1-19.5L46.1-19.5z"/>
		<path class="st1" d="M46.8-15c-0.2,0-0.4-0.2-0.4-0.3c0-0.1,0-0.2,0.1-0.3c0.1-0.1,0.4-0.1,0.5,0c0.1,0.1,0.1,0.1,0.1,0.2
			C47.2-15.2,47.1-15,46.8-15C46.9-15,46.9-15,46.8-15L46.8-15z"/>
		<path class="st1" d="M42.3-12.3c-0.1,0-0.2,0-0.2-0.1C42-12.4,42-12.5,42-12.6c0-0.1,0-0.2,0.1-0.3c0.1-0.1,0.4-0.1,0.5,0
			c0.1,0.1,0.1,0.4,0,0.5C42.5-12.3,42.4-12.3,42.3-12.3z"/>
		<path class="st1" d="M40.3-9C40.2-9,40-9.2,40-9.3c0-0.1,0-0.2,0.1-0.3c0.1-0.1,0.4-0.1,0.5,0s0.1,0.4,0,0.5l0,0
			C40.5-9,40.4-9,40.3-9z"/>
		<path class="st1" d="M36.3-9C36.2-9,36-9.1,36-9.3c0,0,0,0,0,0l0,0c0-0.1,0-0.2,0.1-0.3c0.1-0.1,0.4-0.1,0.5,0
			c0.1,0.1,0.1,0.2,0.1,0.2C36.7-9.2,36.6-9,36.3-9L36.3-9z"/>
		<path class="st1" d="M36.8-19c-0.1,0-0.2,0-0.3-0.1c-0.1-0.1-0.1-0.2-0.1-0.3c0-0.1,0-0.2,0.1-0.3c0.1-0.1,0.4-0.1,0.5,0
			c0.1,0.1,0.1,0.1,0.1,0.2C37.2-19.2,37.1-19,36.8-19C36.9-19,36.9-19,36.8-19L36.8-19L36.8-19z"/>
		<path class="st1" d="M30.4-8.3c-0.1,0-0.2,0-0.2-0.1C30-8.4,30-8.5,30-8.6c0-0.1,0-0.2,0.1-0.3c0.1-0.1,0.3-0.1,0.5,0
			c0.1,0.1,0.1,0.2,0.1,0.3C30.7-8.4,30.6-8.3,30.4-8.3C30.4-8.3,30.4-8.3,30.4-8.3L30.4-8.3z"/>
		<path class="st1" d="M31.9-3.3c-0.2,0-0.4-0.2-0.4-0.3c0-0.1,0-0.2,0.1-0.3C31.7-4,32-4,32.1-3.9c0.1,0.1,0.1,0.4,0,0.5
			C32-3.3,31.9-3.3,31.9-3.3z"/>
		<path class="st1" d="M37.3-0.8c-0.1,0-0.2,0-0.3-0.1C37-0.9,37-1,37-1.1c0-0.1,0-0.2,0.1-0.3c0.1-0.1,0.3-0.1,0.5,0
			c0.1,0.1,0.1,0.2,0.1,0.3c0,0.1,0,0.2-0.1,0.3C37.5-0.8,37.4-0.8,37.3-0.8z"/>
		<path class="st1" d="M63.3-14.8c-0.2,0-0.3-0.1-0.3-0.3c0,0,0,0,0,0l0,0c0-0.1,0-0.2,0.1-0.3c0.1-0.1,0.3-0.1,0.5,0
			c0.1,0.1,0.1,0.2,0.1,0.3C63.7-14.9,63.6-14.8,63.3-14.8C63.4-14.8,63.4-14.8,63.3-14.8L63.3-14.8z"/>
		<path class="st1" d="M60.3-21c-0.1,0-0.2,0-0.3-0.1C60-21.2,60-21.3,60-21.4c0-0.2,0.2-0.4,0.3-0.4c0.1,0,0.2,0,0.2,0.1
			c0.1,0.1,0.1,0.2,0.1,0.3C60.7-21.2,60.6-21,60.3-21C60.4-21,60.4-21,60.3-21z"/>
		<path class="st1" d="M54.8-21.3c-0.2,0-0.3-0.1-0.3-0.3c0,0,0,0,0,0c0-0.2,0.2-0.4,0.3-0.4c0.2,0,0.4,0.2,0.4,0.4
			c0,0.1,0,0.2-0.1,0.2C55-21.3,54.9-21.3,54.8-21.3z"/>
		<path class="st1" d="M55.1-30c-0.1,0-0.2,0-0.3-0.1c-0.1-0.1-0.1-0.2-0.1-0.2c0-0.1,0-0.2,0.1-0.3c0.1-0.1,0.4-0.1,0.5,0
			c0.1,0.1,0.1,0.2,0.1,0.3c0,0.1,0,0.2-0.1,0.3C55.3-30,55.2-30,55.1-30z"/>
		<path class="st1" d="M62.8-29.5c-0.2,0-0.4-0.2-0.4-0.3c0-0.1,0-0.2,0.1-0.3c0.1-0.1,0.4-0.1,0.5,0c0.1,0.1,0.1,0.4,0,0.5
			C63-29.6,62.9-29.5,62.8-29.5z"/>
		<path class="st1" d="M67.3-24.3c-0.1,0-0.2,0-0.2-0.1C67-24.4,67-24.5,67-24.6c0-0.1,0-0.2,0.1-0.3c0.1-0.1,0.4-0.1,0.5,0
			c0.1,0.1,0.1,0.2,0.1,0.3C67.7-24.4,67.6-24.3,67.3-24.3C67.4-24.3,67.4-24.3,67.3-24.3L67.3-24.3z"/>
		<path class="st1" d="M69.8-17.5c-0.1,0-0.2,0-0.2-0.1c-0.1-0.1-0.1-0.2-0.1-0.3c0-0.1,0-0.2,0.1-0.3c0.1-0.1,0.4-0.1,0.5,0
			c0.1,0.1,0.1,0.1,0.1,0.2C70.2-17.7,70.1-17.5,69.8-17.5C69.9-17.5,69.9-17.5,69.8-17.5L69.8-17.5z"/>
		<path class="st1" d="M63.8-10c-0.1,0-0.2,0-0.2-0.1c-0.1-0.1-0.1-0.2-0.1-0.3c0-0.1,0-0.2,0.1-0.3c0.1-0.1,0.4-0.1,0.5,0
			c0.1,0.1,0.1,0.2,0.1,0.3C64.2-10.2,64.1-10,63.8-10C63.9-10,63.9-10,63.8-10L63.8-10z"/>
		<path class="st1" d="M70.6-10.8c-0.2,0-0.3-0.1-0.3-0.3c0,0,0,0,0,0l0,0c0-0.1,0-0.2,0.1-0.3c0.1-0.1,0.3-0.1,0.5,0
			c0.1,0.1,0.1,0.2,0.1,0.3C71-10.9,70.8-10.8,70.6-10.8C70.6-10.8,70.6-10.8,70.6-10.8L70.6-10.8z"/>
		<path class="st1" d="M65.1-6.3c-0.2,0-0.4-0.2-0.4-0.3c0-0.1,0-0.2,0.1-0.3C65-7,65.2-7,65.3-6.9c0.1,0.1,0.1,0.2,0.1,0.2
			C65.5-6.5,65.3-6.3,65.1-6.3C65.1-6.3,65.1-6.3,65.1-6.3L65.1-6.3L65.1-6.3z"/>
		<path class="st1" d="M66.1-3.5c-0.2,0-0.4-0.2-0.4-0.3c0-0.1,0-0.2,0.1-0.3c0.1-0.1,0.4-0.1,0.5,0c0.1,0.1,0.1,0.4,0,0.5
			C66.3-3.6,66.2-3.5,66.1-3.5z"/>
		<path class="st1" d="M62.8-1.5c-0.2,0-0.3-0.1-0.3-0.3c0,0,0,0,0,0l0,0c0-0.1,0-0.2,0.1-0.3c0.1-0.1,0.4-0.1,0.5,0
			C63.2-2,63.2-2,63.2-1.9C63.2-1.7,63.1-1.5,62.8-1.5C62.9-1.5,62.9-1.5,62.8-1.5L62.8-1.5L62.8-1.5z"/>
		<path class="st1" d="M53.1-2c-0.1,0-0.2,0-0.3-0.1c-0.1-0.1-0.1-0.4,0-0.5c0.1-0.1,0.4-0.1,0.5,0c0.1,0.1,0.1,0.1,0.1,0.2
			c0,0.1,0,0.2-0.1,0.3C53.3-2,53.2-2,53.1-2z"/>
		<path class="st1" d="M45.1-5.3c-0.1,0-0.2,0-0.3-0.1c-0.1-0.1-0.1-0.2-0.1-0.2c0-0.1,0-0.2,0.1-0.3C45-6,45.2-6,45.4-5.9
			c0.1,0.1,0.1,0.2,0.1,0.3C45.5-5.4,45.3-5.3,45.1-5.3C45.1-5.3,45.1-5.3,45.1-5.3L45.1-5.3z"/>
		<path class="st1" d="M28.9-0.5c-0.1,0-0.2,0-0.3-0.1c-0.1-0.1-0.1-0.2-0.1-0.3c0-0.1,0-0.2,0.1-0.3c0.1-0.1,0.4-0.1,0.5,0
			c0.1,0.1,0.1,0.2,0.1,0.2c0,0.1,0,0.2-0.1,0.3C29-0.6,28.9-0.5,28.9-0.5z"/>
		<path class="st1" d="M3.3-42.3c-0.1,0-0.2,0-0.3-0.1c-0.1-0.1-0.1-0.4,0-0.5c0.1-0.1,0.4-0.1,0.5,0c0.1,0.1,0.1,0.4,0,0.5
			C3.5-42.3,3.4-42.3,3.3-42.3z"/>
		<path class="st1" d="M13.6-66.8c-0.1,0-0.2,0-0.3-0.1c-0.1-0.1-0.1-0.1-0.1-0.2c0-0.1,0-0.2,0.1-0.3c0.1-0.1,0.4-0.1,0.5,0
			c0.1,0.1,0.1,0.1,0.1,0.2c0,0.1,0,0.2-0.1,0.3C13.8-66.8,13.7-66.8,13.6-66.8z"/>
		<path class="st1" d="M70.6-37.3c-0.2,0-0.3-0.1-0.3-0.3c0,0,0,0,0,0l0,0c0-0.1,0-0.2,0.1-0.3c0.1-0.1,0.3-0.1,0.5,0
			c0.1,0.1,0.1,0.2,0.1,0.3C71-37.4,70.8-37.3,70.6-37.3C70.6-37.3,70.6-37.3,70.6-37.3L70.6-37.3z"/>
		<path class="st1" d="M71.6-30.5c-0.2,0-0.4-0.2-0.4-0.3c0-0.1,0-0.2,0.1-0.3c0.1-0.1,0.4-0.1,0.5,0c0.1,0.1,0.1,0.4,0,0.5
			C71.8-30.6,71.7-30.5,71.6-30.5z"/>
		<path class="st1" d="M1.4-20c-0.1,0-0.2,0-0.3-0.1C1-20.2,1-20.3,1-20.4c0-0.1,0-0.2,0.1-0.3c0.1-0.1,0.3-0.1,0.5,0
			c0.1,0.1,0.1,0.4,0,0.5C1.5-20,1.4-20,1.4-20z"/>
		<path class="st1" d="M72.3-48.3c-0.2,0-0.4-0.2-0.4-0.3c0-0.1,0-0.2,0.1-0.3c0.1-0.1,0.4-0.1,0.5,0c0.1,0.1,0.1,0.4,0,0.5
			C72.5-48.3,72.4-48.3,72.3-48.3z"/>
		<path class="st1" d="M69.3-45.3c-0.2,0-0.4-0.2-0.4-0.3c0-0.1,0-0.2,0.1-0.3c0.1-0.1,0.4-0.1,0.5,0c0.1,0.1,0.1,0.2,0.1,0.3
			c0,0.1,0,0.2-0.1,0.3C69.5-45.3,69.4-45.3,69.3-45.3z"/>
		<path class="st1" d="M68.8-11.5c-0.2,0-0.3-0.1-0.3-0.3c0,0,0,0,0,0l0,0c0-0.1,0-0.2,0.1-0.3c0.1-0.1,0.4-0.1,0.5,0
			c0.1,0.1,0.1,0.4,0,0.5C69-11.6,68.9-11.5,68.8-11.5z"/>
		<path class="st1" d="M71.8-3.5c-0.2,0-0.4-0.2-0.4-0.3c0-0.1,0-0.2,0.1-0.3c0.1-0.1,0.4-0.1,0.5,0c0.1,0.1,0.1,0.2,0.1,0.3
			c0,0.1,0,0.2-0.1,0.3C72-3.6,71.9-3.5,71.8-3.5z"/>
		<path class="st1" d="M0.9-14c-0.1,0-0.2,0-0.3-0.1c-0.1-0.1-0.1-0.4,0-0.5c0.1-0.1,0.4-0.1,0.5,0c0.1,0.1,0.1,0.4,0,0.5
			C1-14,0.9-14,0.9-14z"/>
		<path class="st1" d="M3.1-0.5c-0.1,0-0.2,0-0.3-0.1C2.7-0.8,2.7-1,2.8-1.1c0.1-0.1,0.4-0.1,0.5,0C3.4-1,3.4-1,3.4-0.9
			c0,0.1,0,0.2-0.1,0.3C3.3-0.6,3.2-0.5,3.1-0.5z"/>
		<path class="st1" d="M70.6-47.8c-0.2,0-0.3-0.1-0.3-0.3c0,0,0,0,0,0l0,0c0-0.1,0-0.2,0.1-0.3c0.1-0.1,0.3-0.1,0.5,0
			c0.1,0.1,0.1,0.2,0.1,0.3C71-47.9,70.8-47.8,70.6-47.8C70.6-47.8,70.6-47.8,70.6-47.8L70.6-47.8z"/>
		<path class="st1" d="M1.6-55c-0.1,0-0.2,0-0.3-0.1c-0.1-0.1-0.1-0.4,0-0.5c0.1-0.1,0.4-0.1,0.5,0c0.1,0.1,0.1,0.4,0,0.5
			C1.8-55,1.7-55,1.6-55z"/>
		<path class="st1" d="M18.4-58.7c-0.4,0-0.6-0.3-0.6-0.7l0,0c0-0.2,0.1-0.3,0.2-0.5c0.3-0.2,0.7-0.2,0.9,0c0.3,0.3,0.3,0.7,0,0.9
			C18.7-58.8,18.5-58.7,18.4-58.7z"/>
		<path class="st1" d="M29.6-60.7c-0.4,0-0.7-0.3-0.7-0.6c0-0.2,0.1-0.3,0.2-0.5c0.3-0.2,0.7-0.2,0.9,0c0.1,0.1,0.2,0.3,0.2,0.5
			C30.3-61,30-60.7,29.6-60.7C29.6-60.7,29.6-60.7,29.6-60.7z"/>
		<path class="st1" d="M29.6-68.2c-0.4,0-0.6-0.3-0.6-0.7l0,0c0-0.2,0.1-0.3,0.2-0.5c0.3-0.2,0.7-0.2,0.9,0c0.2,0.3,0.2,0.7,0,0.9
			l0,0C29.9-68.3,29.8-68.2,29.6-68.2z"/>
		<path class="st1" d="M40.6-61.2c-0.4,0-0.7-0.3-0.7-0.6v0l0,0c0-0.2,0.1-0.3,0.2-0.5c0.3-0.2,0.7-0.2,0.9,0c0.3,0.3,0.3,0.7,0,0.9
			C40.9-61.3,40.8-61.2,40.6-61.2z"/>
		<path class="st1" d="M45.3-59.7c-0.2,0-0.3-0.1-0.5-0.2c-0.1-0.1-0.2-0.3-0.2-0.5c0-0.2,0.1-0.3,0.2-0.5c0.3-0.2,0.7-0.2,0.9,0
			c0.1,0.1,0.2,0.3,0.2,0.5c0,0.2-0.1,0.3-0.2,0.5C45.7-59.8,45.5-59.7,45.3-59.7z"/>
		<path class="st1" d="M47.6-48.7c-0.4,0-0.7-0.3-0.7-0.6v0c0-0.2,0.1-0.3,0.2-0.5c0.3-0.2,0.7-0.2,0.9,0c0.3,0.3,0.3,0.7,0,0.9
			C47.9-48.8,47.8-48.7,47.6-48.7z"/>
		<path class="st1" d="M55.1-64.7c-0.4,0-0.7-0.2-0.7-0.6c0-0.2,0.1-0.4,0.2-0.5l0,0c0.3-0.2,0.7-0.2,0.9,0c0.3,0.3,0.3,0.7,0,0.9
			C55.4-64.8,55.3-64.7,55.1-64.7z"/>
		<path class="st1" d="M64.3-65c-0.4,0-0.7-0.3-0.7-0.7l0,0c0-0.2,0.1-0.3,0.2-0.5c0.3-0.2,0.7-0.2,0.9,0c0.3,0.3,0.3,0.7,0,0.9
			C64.7-65.1,64.5-65,64.3-65z"/>
		<path class="st1" d="M65.3-69c-0.4,0-0.7-0.3-0.7-0.6c0-0.2,0.1-0.3,0.2-0.5c0.3-0.2,0.7-0.2,0.9,0c0.1,0.1,0.2,0.3,0.2,0.5
			c0,0.2-0.1,0.3-0.2,0.4C65.7-69.1,65.5-69,65.3-69z"/>
		<path class="st1" d="M69.8-53.5c-0.4,0-0.7-0.3-0.7-0.6v0c0-0.2,0.1-0.3,0.2-0.5c0.3-0.2,0.7-0.2,0.9,0c0.3,0.3,0.3,0.7,0,0.9
			C70.2-53.5,70-53.5,69.8-53.5z"/>
		<path class="st1" d="M8.4-24.5c-0.4,0-0.7-0.3-0.7-0.6c0-0.2,0.1-0.3,0.2-0.5c0.3-0.2,0.7-0.2,0.9,0c0.3,0.3,0.3,0.7,0,0.9
			C8.7-24.5,8.5-24.5,8.4-24.5z"/>
		<path class="st1" d="M5.3-14.7c-0.4,0-0.7-0.3-0.7-0.6c0-0.2,0.1-0.3,0.2-0.5l0,0c0.3-0.2,0.7-0.2,0.9,0c0.2,0.3,0.2,0.7,0,0.9
			l0,0C5.7-14.8,5.5-14.7,5.3-14.7z"/>
		<path class="st1" d="M2.6-4.5c-0.4,0-0.7-0.3-0.7-0.6c0-0.2,0.1-0.3,0.2-0.5c0.3-0.2,0.7-0.2,0.9,0c0.3,0.3,0.3,0.7,0,0.9
			C2.9-4.5,2.8-4.5,2.6-4.5z"/>
		<path class="st1" d="M18.1-1.7c-0.4,0-0.7-0.2-0.7-0.6c0-0.2,0.1-0.4,0.2-0.5c0.3-0.2,0.7-0.2,0.9,0c0.3,0.3,0.3,0.7,0,0.9
			C18.4-1.8,18.2-1.7,18.1-1.7L18.1-1.7z"/>
		<path class="st1" d="M19.6-9.2c-0.4,0-0.6-0.3-0.6-0.6l0,0c0-0.2,0.1-0.3,0.2-0.5c0.3-0.2,0.7-0.2,0.9,0c0.3,0.3,0.3,0.7,0,0.9
			C19.9-9.3,19.8-9.2,19.6-9.2z"/>
		<path class="st1" d="M21.4-26.2c-0.4,0-0.6-0.3-0.6-0.6l0,0c0-0.2,0.1-0.3,0.2-0.5c0.3-0.2,0.7-0.2,0.9,0c0.3,0.3,0.3,0.7,0,0.9
			C21.7-26.3,21.5-26.2,21.4-26.2z"/>
		<path class="st1" d="M28.9-20.5c-0.4,0-0.6-0.3-0.6-0.6c0-0.2,0.1-0.3,0.2-0.5c0.3-0.2,0.7-0.2,0.9,0c0.3,0.3,0.3,0.7,0,0.9
			C29.2-20.5,29-20.5,28.9-20.5z"/>
		<path class="st1" d="M34.3-11.2c-0.4,0-0.7-0.3-0.7-0.6v0l0,0c0-0.2,0.1-0.3,0.2-0.5c0.3-0.2,0.7-0.2,0.9,0c0.3,0.3,0.3,0.7,0,0.9
			C34.7-11.3,34.5-11.2,34.3-11.2z"/>
		<path class="st1" d="M34.6-4.7c-0.4,0-0.7-0.3-0.7-0.6c0-0.2,0.1-0.3,0.2-0.5l0,0c0.3-0.2,0.7-0.2,0.9,0c0.2,0.3,0.2,0.7,0,0.9
			l0,0C34.9-4.8,34.8-4.7,34.6-4.7z"/>
		<path class="st1" d="M42.1-16.5c-0.4,0-0.7-0.2-0.7-0.6c0,0,0,0,0,0c0-0.2,0.1-0.4,0.2-0.5c0.3-0.2,0.7-0.2,0.9,0
			c0.3,0.3,0.3,0.7,0,0.9C42.4-16.5,42.2-16.5,42.1-16.5L42.1-16.5z"/>
		<path class="st1" d="M52.6-11.7c-0.4,0-0.7-0.3-0.7-0.6v0c0-0.2,0.1-0.3,0.2-0.5c0.3-0.2,0.7-0.2,0.9,0c0.3,0.3,0.3,0.7,0,0.9
			C52.9-11.8,52.8-11.7,52.6-11.7z"/>
		<path class="st1" d="M55.3-6.2c-0.4,0-0.7-0.3-0.7-0.6c0-0.2,0.1-0.3,0.2-0.5c0.3-0.2,0.7-0.2,0.9,0c0.3,0.3,0.3,0.7,0,0.9
			C55.7-6.3,55.5-6.2,55.3-6.2z"/>
		<path class="st1" d="M25.6-47c-0.4,0-0.7-0.3-0.7-0.6c0-0.2,0.1-0.3,0.2-0.5c0.3-0.2,0.7-0.2,0.9,0c0.3,0.3,0.3,0.7,0,0.9
			C25.9-47.1,25.8-47,25.6-47z"/>
		<path class="st1" d="M35.6-48.2c-0.4,0-0.7-0.3-0.7-0.6c0-0.2,0.1-0.3,0.2-0.5l0,0c0.3-0.2,0.7-0.2,0.9,0c0.3,0.3,0.3,0.7,0,0.9
			C35.9-48.3,35.8-48.2,35.6-48.2z"/>
		<path class="st1" d="M45.3-42c-0.4,0-0.7-0.3-0.7-0.6v0c0-0.2,0.1-0.3,0.2-0.5c0.3-0.2,0.7-0.2,0.9,0c0.1,0.1,0.2,0.3,0.2,0.5
			c0,0.2-0.1,0.3-0.2,0.5C45.7-42.1,45.5-42,45.3-42z"/>
		<path class="st1" d="M52.3-28.5c-0.4,0-0.7-0.3-0.7-0.6c0,0,0,0,0,0c0-0.2,0.1-0.3,0.2-0.5c0.3-0.2,0.7-0.2,0.9,0
			c0.1,0.1,0.2,0.3,0.2,0.5C53-28.8,52.7-28.5,52.3-28.5C52.3-28.5,52.3-28.5,52.3-28.5z"/>
		<path class="st1" d="M67.3-19.7c-0.4,0-0.7-0.3-0.7-0.6c0,0,0,0,0,0l0,0c0-0.2,0.1-0.3,0.2-0.5c0.3-0.2,0.6-0.2,0.9,0
			c0.3,0.3,0.3,0.7,0,0.9C67.7-19.8,67.5-19.7,67.3-19.7z"/>
		<path class="st1" d="M47.6-23.7c-0.4,0-0.7-0.3-0.7-0.6c0,0,0,0,0,0c0-0.2,0.1-0.3,0.2-0.5c0.3-0.2,0.7-0.2,0.9,0
			c0.3,0.3,0.3,0.7,0,0.9C47.9-23.8,47.8-23.7,47.6-23.7z"/>
		<path class="st1" d="M37.3-27c-0.4,0-0.7-0.3-0.7-0.6c0-0.2,0.1-0.3,0.2-0.5c0.3-0.2,0.7-0.2,0.9,0c0.3,0.3,0.3,0.7,0,0.9
			C37.7-27.1,37.5-27,37.3-27z"/>
		<path class="st1" d="M17.4-43c-0.4,0-0.6-0.3-0.6-0.7l0,0c0-0.2,0.1-0.3,0.2-0.5c0.3-0.2,0.7-0.2,0.9,0c0.2,0.3,0.2,0.7,0,0.9l0,0
			C17.7-43.1,17.5-43,17.4-43z"/>
		<path class="st1" d="M11.6-34.7c-0.4,0-0.6-0.3-0.6-0.7l0,0l0,0c0-0.2,0.1-0.3,0.2-0.5c0.3-0.2,0.7-0.2,0.9,0
			c0.3,0.3,0.3,0.7,0,0.9C11.9-34.8,11.8-34.7,11.6-34.7z"/>
		<path class="st1" d="M67.8-40.7c-0.4,0-0.7-0.3-0.7-0.6c0-0.2,0.1-0.3,0.2-0.5c0.3-0.2,0.7-0.2,0.9,0c0.1,0.1,0.2,0.3,0.2,0.5
			C68.5-41,68.2-40.7,67.8-40.7L67.8-40.7z"/>
		<path class="st1" d="M7.6-55.7c-0.2,0-0.3-0.1-0.5-0.2C7-56,7-56.2,6.9-56.4c0-0.2,0.1-0.3,0.2-0.5c0.3-0.2,0.7-0.2,0.9,0
			c0.2,0.3,0.2,0.7,0,0.9l0,0C7.9-55.8,7.8-55.7,7.6-55.7z"/>
		<path class="st1" d="M8.9-66.2c-0.4,0-0.7-0.3-0.7-0.6c0-0.2,0.1-0.3,0.2-0.5c0.3-0.2,0.7-0.2,0.9,0c0.1,0.1,0.2,0.3,0.2,0.5
			C9.5-66.5,9.2-66.2,8.9-66.2L8.9-66.2z"/>
		<path class="st1" d="M3.8-69c-0.4,0-0.7-0.3-0.7-0.6c0-0.2,0.1-0.3,0.2-0.5c0.3-0.2,0.7-0.2,0.9,0c0.3,0.3,0.3,0.7,0,0.9
			C4.2-69.1,4-69,3.8-69z"/>
		<path class="st1" d="M66.8-34.2c-0.4,0-0.7-0.3-0.7-0.6v0c0-0.2,0.1-0.3,0.2-0.5c0.3-0.2,0.7-0.2,0.9,0c0.3,0.3,0.3,0.7,0,0.9
			C67.2-34.3,67-34.2,66.8-34.2z"/>
		<path class="st1" d="M44.3-8.5c-0.4,0-0.7-0.3-0.7-0.6c0-0.2,0.1-0.3,0.2-0.5c0.3-0.2,0.7-0.2,0.9,0c0.3,0.3,0.3,0.7,0,0.9
			C44.7-8.5,44.5-8.5,44.3-8.5z"/>
		<path class="st1" d="M26.1-1.5c-0.4,0-0.7-0.2-0.7-0.6c0-0.2,0.1-0.4,0.2-0.5c0.3-0.2,0.7-0.2,0.9,0c0.3,0.3,0.3,0.7,0,0.9
			C26.4-1.5,26.2-1.5,26.1-1.5L26.1-1.5z"/>
		<path class="st1" d="M22.4-29.7c-0.4,0-0.7-0.3-0.7-0.6c0-0.2,0.1-0.3,0.2-0.5l0,0c0.3-0.2,0.7-0.2,0.9,0c0.3,0.3,0.3,0.7,0,0.9
			C22.7-29.8,22.5-29.7,22.4-29.7z"/>
		<path class="st1" d="M24.4-42.5c-0.4,0-0.7-0.3-0.7-0.6c0-0.2,0.1-0.3,0.2-0.5c0.3-0.2,0.7-0.2,0.9,0c0.1,0.1,0.2,0.3,0.2,0.5
			C25-42.8,24.7-42.5,24.4-42.5C24.4-42.5,24.4-42.5,24.4-42.5z"/>
		<path class="st1" d="M41.8-37c-0.4,0-0.7-0.3-0.7-0.6v0c0-0.2,0.1-0.3,0.2-0.5c0.3-0.2,0.7-0.2,0.9,0c0.3,0.3,0.3,0.7,0,0.9
			C42.2-37.1,42-37,41.8-37z"/>
		<path class="st1" d="M67.8-27.7c-0.4,0-0.7-0.3-0.7-0.6c0-0.2,0.1-0.3,0.2-0.5c0.3-0.2,0.7-0.2,0.9,0c0.1,0.1,0.2,0.3,0.2,0.5
			C68.5-28,68.2-27.7,67.8-27.7C67.8-27.7,67.8-27.7,67.8-27.7z"/>
		<path class="st1" d="M53.6-56.5c-0.4,0-0.7-0.3-0.7-0.6v0c0-0.2,0.1-0.3,0.2-0.5c0.3-0.2,0.7-0.2,0.9,0c0.3,0.3,0.3,0.7,0,0.9
			C53.9-56.5,53.8-56.5,53.6-56.5z"/>
		<path class="st1" d="M34.3-55.5c-0.4,0-0.7-0.3-0.7-0.6c0-0.2,0.1-0.3,0.2-0.5c0.3-0.2,0.7-0.2,0.9,0c0.1,0.1,0.2,0.3,0.2,0.5
			C35-55.8,34.7-55.5,34.3-55.5C34.3-55.5,34.3-55.5,34.3-55.5z"/>
		<path class="st1" d="M13.1-52.2c-0.4,0-0.7-0.2-0.7-0.6c0,0,0,0,0,0c0-0.2,0.1-0.4,0.2-0.5c0.3-0.2,0.7-0.2,0.9,0
			c0.3,0.3,0.3,0.7,0,0.9C13.4-52.3,13.2-52.2,13.1-52.2L13.1-52.2z"/>
		<path class="st1" d="M49.8-67c-0.4,0-0.7-0.3-0.7-0.7l0,0c0-0.2,0.1-0.3,0.2-0.5c0.3-0.2,0.7-0.2,0.9,0c0.3,0.3,0.3,0.7,0,0.9
			C50.2-67.1,50-67,49.8-67z"/>
		<path class="st1" d="M59.3-50.7c-0.4,0-0.7-0.3-0.7-0.6v0c0-0.2,0.1-0.3,0.2-0.5c0.3-0.2,0.7-0.2,0.9,0c0.1,0.1,0.2,0.3,0.2,0.5
			C60-51,59.7-50.7,59.3-50.7C59.3-50.7,59.3-50.7,59.3-50.7z"/>
		<path class="st1" d="M67.8-14.2c-0.4,0-0.7-0.3-0.7-0.6c0-0.2,0.1-0.3,0.2-0.5c0.3-0.2,0.7-0.2,0.9,0c0.1,0.1,0.2,0.3,0.2,0.5
			C68.5-14.5,68.2-14.2,67.8-14.2L67.8-14.2z"/>
		<path class="st1" d="M5.6-1.7C5.2-1.7,4.9-2,4.9-2.4c0-0.2,0.1-0.3,0.2-0.5l0,0c0.3-0.2,0.7-0.2,0.9,0c0.2,0.3,0.2,0.7,0,0.9l0,0
			C5.9-1.8,5.8-1.7,5.6-1.7z"/>
		<path class="st1" d="M3.1-58.2c-0.2,0-0.3-0.1-0.5-0.2c-0.2-0.3-0.2-0.6,0-0.9c0.3-0.2,0.7-0.2,0.9,0c0.2,0.3,0.2,0.7,0,0.9l0,0
			C3.4-58.3,3.3-58.2,3.1-58.2z"/>
		<path class="st1" d="M16.9-68.2c-0.4,0-0.6-0.3-0.6-0.7l0,0c0-0.2,0.1-0.3,0.2-0.5c0.3-0.2,0.7-0.2,0.9,0c0.3,0.3,0.3,0.7,0,0.9
			C17.2-68.3,17-68.2,16.9-68.2z"/>
		<path class="st1" d="M40.8-67c-0.4,0-0.7-0.3-0.7-0.7l0,0c0-0.2,0.1-0.3,0.2-0.5c0.3-0.2,0.7-0.2,0.9,0c0.1,0.1,0.2,0.3,0.2,0.5
			C41.5-67.3,41.2-67,40.8-67C40.8-67,40.8-67,40.8-67z"/>
		<path class="st1" d="M3.1-39.5c-0.4,0-0.7-0.2-0.7-0.6c0-0.2,0.1-0.4,0.2-0.5l0,0c0.3-0.2,0.7-0.2,0.9,0c0.3,0.3,0.3,0.7,0,0.9
			C3.4-39.5,3.2-39.5,3.1-39.5L3.1-39.5z"/>
		<path class="st1" d="M7.8-46.5c-0.4,0-0.7-0.3-0.7-0.6c0-0.2,0.1-0.3,0.2-0.5l0,0c0.3-0.2,0.7-0.2,0.9,0c0.3,0.3,0.3,0.7,0,0.9
			C8.2-46.5,8-46.5,7.8-46.5z"/>
		<path class="st1" d="M4.3-24.7c-0.4,0-0.7-0.3-0.7-0.6c0-0.2,0.1-0.3,0.2-0.5c0.3-0.2,0.7-0.2,0.9,0c0.3,0.3,0.3,0.7,0,0.9
			C4.7-24.8,4.5-24.7,4.3-24.7z"/>
		<path class="st1" d="M11.4-21c-0.4,0-0.7-0.3-0.7-0.6c0-0.2,0.1-0.3,0.2-0.5c0.3-0.2,0.7-0.2,0.9,0c0.3,0.3,0.3,0.7,0,0.9
			C11.7-21.1,11.5-21,11.4-21z"/>
		<path class="st1" d="M10.4-11.7c-0.4,0-0.7-0.3-0.7-0.6c0-0.2,0.1-0.3,0.2-0.5l0,0c0.3-0.2,0.7-0.2,0.9,0c0.2,0.3,0.2,0.7,0,0.9
			l0,0C10.7-11.8,10.5-11.7,10.4-11.7z"/>
		<path class="st1" d="M13.9-5.7c-0.4,0-0.7-0.3-0.7-0.6c0-0.2,0.1-0.3,0.2-0.5c0.3-0.2,0.7-0.2,0.9,0c0.3,0.3,0.3,0.7,0,0.9
			C14.2-5.8,14-5.7,13.9-5.7z"/>
		<path class="st1" d="M22.4-18.2c-0.4,0-0.6-0.3-0.6-0.6c0-0.2,0.1-0.3,0.2-0.5c0.3-0.3,0.7-0.3,0.9,0c0,0,0,0,0,0
			c0.2,0.3,0.2,0.7,0,0.9C22.7-18.3,22.5-18.3,22.4-18.2L22.4-18.2z"/>
		<path class="st1" d="M31.6-34c-0.4,0-0.7-0.3-0.7-0.6c0-0.2,0.1-0.3,0.2-0.5c0.3-0.2,0.7-0.2,0.9,0c0.3,0.3,0.3,0.7,0,0.9
			C31.9-34.1,31.8-34,31.6-34z"/>
		<path class="st1" d="M26.4-37.5c-0.4,0-0.6-0.3-0.6-0.7l0,0c0-0.2,0.1-0.3,0.2-0.5c0.3-0.2,0.7-0.2,0.9,0c0.3,0.3,0.3,0.7,0,0.9
			C26.7-37.5,26.5-37.5,26.4-37.5z"/>
		<path class="st1" d="M37.6-43c-0.4,0-0.7-0.3-0.7-0.6c0-0.2,0.1-0.3,0.2-0.5c0.3-0.2,0.7-0.2,0.9,0c0.3,0.3,0.3,0.7,0,0.9
			C37.9-43.1,37.8-43,37.6-43z"/>
		<path class="st1" d="M62.1-55c-0.4,0-0.7-0.2-0.7-0.6c0-0.2,0.1-0.4,0.2-0.5c0.3-0.2,0.7-0.2,0.9,0c0.1,0.1,0.2,0.3,0.2,0.5
			C62.7-55.3,62.4-55,62.1-55z"/>
		<path class="st1" d="M61.6-44.5c-0.4,0-0.7-0.3-0.7-0.6c0-0.2,0.1-0.3,0.2-0.5c0.3-0.2,0.7-0.2,0.9,0c0.2,0.3,0.2,0.7,0,0.9l0,0
			C61.9-44.5,61.8-44.5,61.6-44.5z"/>
		<path class="st1" d="M59.1-14.5c-0.4,0-0.7-0.2-0.7-0.6c0-0.2,0.1-0.4,0.2-0.5c0.3-0.2,0.7-0.2,0.9,0c0.3,0.3,0.3,0.7,0,0.9
			C59.4-14.5,59.2-14.5,59.1-14.5L59.1-14.5z"/>
		<path class="st1" d="M59.6-27.2c-0.4,0-0.7-0.3-0.7-0.6c0-0.2,0.1-0.3,0.2-0.5l0,0c0.3-0.2,0.7-0.2,0.9,0c0.2,0.3,0.2,0.7,0,0.9
			l0,0C59.9-27.3,59.8-27.2,59.6-27.2z"/>
		<path class="st1" d="M56.1-36c-0.4,0-0.7-0.2-0.7-0.6c0-0.2,0.1-0.4,0.2-0.5c0.3-0.2,0.7-0.2,0.9,0c0.3,0.3,0.3,0.7,0,0.9
			C56.4-36.1,56.3-36,56.1-36z"/>
		<path class="st1" d="M69.6-1c-0.4,0-0.7-0.3-0.7-0.6c0-0.2,0.1-0.3,0.2-0.5l0,0c0.3-0.2,0.7-0.2,0.9,0c0.3,0.3,0.3,0.7,0,0.9
			C69.9-1.1,69.8-1,69.6-1z"/>
		<path class="st1" d="M61.1-5.7c-0.4,0-0.7-0.2-0.7-0.6c0,0,0,0,0,0c0-0.2,0.1-0.4,0.2-0.5c0.3-0.2,0.7-0.2,0.9,0
			c0.1,0.1,0.2,0.3,0.2,0.5C61.7-6,61.4-5.7,61.1-5.7L61.1-5.7L61.1-5.7L61.1-5.7z"/>
		<path class="st1" d="M44.8-0.2c-0.4,0-0.7-0.3-0.7-0.6c0,0,0,0,0,0c0-0.2,0.1-0.3,0.2-0.5c0.3-0.2,0.7-0.2,0.9,0
			c0.2,0.3,0.2,0.7,0,0.9C45.2-0.3,45-0.2,44.8-0.2z"/>
		<path class="st1" d="M24.9-70.5c-0.4,0-0.6-0.3-0.6-0.7l0,0c0-0.2,0.1-0.3,0.2-0.5c0.3-0.2,0.7-0.2,0.9,0c0.3,0.3,0.3,0.7,0,0.9
			C25.2-70.5,25-70.5,24.9-70.5z"/>
		<path class="st1" d="M0.4-48.3c-0.1,0-0.2,0-0.3-0.1C0-48.4,0-48.5,0-48.6c0-0.1,0-0.2,0.1-0.3c0.1-0.1,0.4-0.1,0.5,0
			c0.1,0.1,0.1,0.2,0.1,0.3c0,0.1,0,0.2-0.1,0.3C0.5-48.3,0.4-48.3,0.4-48.3z"/>
	</g>
</pattern>
<g id="cheerCoffee">
	<g id="coffeeRightArm">
		<path class="st2" d="M394.5,164.6C383,182,384,207,368,220.4c-9.1,7.6-22,9.4-33.6,6.9s-22-8.8-31.3-16.1"/>
		<path class="st3" d="M378.5,149.3c-0.7,6.6-2,6.7-2.4,11.2c-1.1,11.8,17.2,19.4,27,17.7c1.4-0.2,2.8-0.8,4-1.6
			c4-3,4.5-8.1,6.8-12.2c2.5-4.5,6.1-7,10-10.3c3.4-2.7,6.5-5.9,9-9.4c2.3-3.5,4.5-8.7,2.6-12.8s-6.5-4.3-10.4-3.9
			c-3.4,0.4-1.1-2.2-0.3-3.7s1.5-2.7,2.2-4.1c1.4-2.8,2.6-5.7,3.7-8.7c2.2-5.3,3.9-10.7,5.3-16.2c0.8-3.9,1.7-9.4-2.4-11.8
			c-2.5-1.3-5.5-1.4-8-0.2c-4.4,2.1-6,6.8-7.5,11.1c-3.4,9.3-7.2,19.4-7.1,29.4c-0.1-8.6-0.5-15.7-1-20.8c-1.6-17.4-3.6-20.3-6-21.3
			c-2.7-1.1-6-0.1-8,1.5c-3.5,2.8-3.2,8.5-3.3,12.5c-0.1,6.1,0.2,12.3,1,18.4c0.1,0.6,0.2,1.7-0.2,2.1s-1.2-0.1-1.9-0.2
			c-1.1-0.3-2.3-0.4-3.4-0.4c-1.9,0-3.3,1.2-4.7,2.4c-2,1.7-3.6,3.9-4.7,6.3c-1.6,3.6-2.3,7.5-2.1,11.5
			C376.9,141.8,379.1,144.2,378.5,149.3z"/>
		<path class="st4" d="M392.6,116.6c6.1,2.4,11.6,6.2,16,10.9c2.8,3.1,5.8,6.5,4.8,9.5c-1.2,3.4-6.9,4.1-7.7,4.2
			c-4.8,0.6-9.3-2-11.5-3.3c-2.5-1.5-4.9-3.4-6.9-5.5"/>
		<path class="st4" d="M413.7,163.6c-3.9,3.8-11.1,3.1-15.6,0.4"/>
		<path class="st4" d="M388.4,159.9c-3.3-1.5-7.9-5.8-10.2-8.7"/>
		<path class="st4" d="M394.5,138.3c0.7,2.2,0.3,4.5-1,6.4c-1.1,1.3-2.6,2.2-4.3,2.5c-0.7,0.1-1.4,0.1-2.1,0"/>
		<path class="st5" d="M413.1,133c3-2.6,6.6-4.3,10.5-5"/>
		<path class="st5" d="M435.6,138.3c-5.1,4.3-9.6,10.1-16.2,12.2c-3.3,1.1-7.7,1-10.5-1.3c-2.5-2.1-1.7-5-1-7.8"/>
	</g>
	<path class="st6" d="M240,441c-4.1,9.5,0.7,35.4,19.6,46.5c14.6,8.6,42.2,10.8,54.6-4.2c5.1-6.2,5.7-16.9-4.9-13.2
		c-57.1,20-54.9-24.2-59.7-32.2C246.5,432.9,242,436.4,240,441z"/>
	<path class="st7" d="M274,485.1c-23.3-5.5-37.4-37.8-28.2-51.4c2-3,9.4-9.6,13.2-9.8c6.4-0.3,20.5,17.5,24.2,22.7
		c1.3,1.8,2.1,1.6,3.4,0.5c8.5-6.7,27.6-3.3,30.6,17.8c0.7,5.3,1,7.3-6,12.8C298.6,487.7,286.5,488,274,485.1z"/>
	<path class="st8" d="M272.4,474.7c-0.5-10.9,3.3-21.1,13.1-26.9"/>
	<path class="st6" d="M252.8,448.8c14.7,15.4,38.7-11.7,23.1-25.8S238.8,434.2,252.8,448.8z"/>
	<path class="st9" d="M190.6,392c91.8-31.9,115-44.4,113.8-49c-0.3-1.1-1.9-1.7-36.3-7l-18.7-2.8"/>
	<path class="st10" d="M264,432.7c-7.3-17.8-8.9-32.1-9.1-42.1c-0.1-9.5,1.1-21.4-6.4-27.4c-1.7-1.4-3.3-1.9-8.8-3.5
		c-13.8-3.9-22.9-5.8-26.6-6.8c-6.8-1.8-16.3-5.9-26.8-16.3"/>
	<path class="st11" d="M182.2,381.4c12.6,1.6,25.4,20.1,13.9,22.7c-6.4,1.5-31-7.6-27-17.9C170.8,381.7,177.1,380.7,182.2,381.4z"/>
	<path class="st12" d="M179.1,390.3c13.8,6.2,18.9,20.1,22.6,22.9c1.8,1.3,24.1,5.7,22.9,26.4c-0.9,15.1-21.7,35.3-48.4,4.7
		C124.7,385.5,167.3,385,179.1,390.3z"/>
	<path class="st13" d="M194.2,413.2c1.6-0.6,4.7-0.5,7.6-0.1c-3.3-4.1-8.1-7.1-12.6-6.3"/>
	<path class="st11" d="M192.2,460.3c-24.7-2-44.7-39.4-44.3-54.4c0-4,1.3-7.8,3.6-11c2.2-2.8,5.8-4.2,9.3-3.3
		c11,2.2,46.4,31.1,49,49.9c1.3,9.8-4.1,19.7-16.9,18.9L192.2,460.3z"/>
	<path class="st14" d="M151.5,394.8c12.4,1.6,27.5,16.8,34.5,24.7c18,20.5,19.3,35.7,6.9,40.8"/>
	<line class="st14" x1="158.8" y1="397" x2="148" y2="408.4"/>
	<line class="st14" x1="167.6" y1="402.4" x2="150.9" y2="419.8"/>
	<line class="st14" x1="175.3" y1="408.7" x2="155.5" y2="429.6"/>
	<line class="st14" x1="182.5" y1="415.8" x2="161" y2="438.4"/>
	<line class="st14" x1="189.1" y1="423.4" x2="167.4" y2="446.3"/>
	<line class="st14" x1="195.1" y1="431.7" x2="174.8" y2="453"/>
	<line class="st14" x1="199.7" y1="441.4" x2="183.7" y2="458.2"/>
	<path class="st15" d="M349.3,372"/>
	<path class="st16" d="M153,296.7c6.6-0.8,11.3-6.9,10.4-13.5c-0.6-4.3-3.4-8-7.4-9.6c-63-26-100.7-53.2-122-88.3
		c-10.7-17.5-11.3-32.1-1.8-40.2c7.5-6.3,21.6-7.8,31.4,0.7l49.2,43c5,4.4,12.7,3.9,17-1.2c4.4-5,3.9-12.7-1.2-17l0,0l0,0l-49.2-43
		c-17.6-15.4-45.3-15.8-62.9-1c-14.9,12.6-23.6,37.9-3.3,71.2c31.1,50.9,87.6,79.2,133.4,98.1C148.8,296.7,150.9,297,153,296.7z"/>
	
		<pattern  id="SVGID_1_" xlink:href="#USGS_22_Gravel_Beach_3" patternTransform="matrix(-1.0419 0.1303 0.1303 1.0419 -15042.2344 1154.9663)">
	</pattern>
	<path class="st17" d="M96.4,157.2c0,0-29.7-34.9-52.8-31.9s-47,27.2-26.5,58s63.1,54.8,63.1,54.8s-54.5-42.6-57.7-71.9
		c-2.6-24.6,13.6-31.1,30-28.8s50.2,41.1,50.2,41.1L96.4,157.2z"/>
	
		<pattern  id="SVGID_2_" xlink:href="#USGS_22_Gravel_Beach_3" patternTransform="matrix(-1.0419 0.1303 0.1303 1.0419 -15042.2344 1154.9663)">
	</pattern>
	<path class="st18" d="M127.2,263c0,0-17.3-1.2-43.3-12.6c-12.9-5.6-46.7-26.8-46.7-26.8s29.7,30.6,93,62.3L127.2,263z"/>
	
		<ellipse transform="matrix(0.9917 -0.1283 0.1283 0.9917 -39.5334 31.6792)" class="st16" cx="226.2" cy="322.8" rx="60.7" ry="28"/>
	
		<pattern  id="SVGID_3_" xlink:href="#USGS_22_Gravel_Beach_3" patternTransform="matrix(-1.0419 0.1303 0.1303 1.0419 -15042.2344 1154.9663)">
	</pattern>
	<path class="st19" d="M228.7,342.2c31.7-4.1,50.4-18.2,49.4-26.2s-22.7-16.8-54.5-12.7s-50.4,18.2-49.4,26.2S197,346.3,228.7,342.2
		z"/>
	<path class="st20" d="M227.3,331.4C285,324,328.4,269.2,325,203.3L316,83L78.3,113.8l22,118.5C113.4,295.9,168.6,339,227.3,331.4z"
		/>
	<path class="st21" d="M78.2,113.5c0.7,5.8,5.9,10.7,14.4,14.5l0.1,0.1c21,9.4,62.4,12.4,109,6.4s86-19.5,103.9-34
		c0.9-0.8,1.8-1.5,2.7-2.3c5.5-5.1,8.2-10.4,7.6-15.4c-2.1-16.3-39.2-25.6-88.3-23.9c-8.5,0.3-17.3,0.9-26.4,1.9l-8.9,1
		c-1.8,0.2-3.5,0.5-5.3,0.7c-31.9,4.6-60,12.6-79.7,21.9C88.2,93.4,77,103.8,78.2,113.5z"/>
	<path class="st22" d="M92.6,128c21,9.5,62.5,12.5,109.2,6.4s86-19.5,103.9-34c-11.1-15.9-57.1-23.1-110.4-16.2S99.4,109.8,92.6,128
		z"/>
	<path class="st23" d="M92.8,128.1c21,9.4,62.4,12.4,109,6.4s86-19.5,103.9-34c0.9-0.8,1.8-1.5,2.7-2.3c-12.1-9.9-33-19.8-45.9-24.1
		c-20.8-6.9-25.3-4.6-34.8-15.3c-1.5-1.7-3.2-3.8-5.1-6.3c-12.7-16.8-27.7-7.3-21.3,8.2c0.5,1.1,1,2.3,1.6,3.3
		c7.5,12.8-3.7,11-15.8-1.5c-4.8-5.1-8.9-10.8-12.3-16.9c-14.3-26.4-29.3-50.7-41-41.5c-11.2,8.9,0.8,25.9,16.6,45.7
		s-5.2,24.6-12.4,6.7S104.2-1.3,87.1,7c-20,9.8-0.5,31.3,10.2,42c15.4,15.3-3.1,5.5-8,12.5c-4.3,6.2,1.8,8.4,14,18.7
		c1.5,1.2,2.8,2.6,4,4.1c4,5.2,3.7,10.3-5.8,10.6C93.8,95.3,85.7,113.4,92.8,128.1z"/>
	<path class="st23" d="M74.3,79.7C71,68.6,46,49.3,44.1,69.1S76.6,87.7,74.3,79.7z"/>
	<path class="st23" d="M198,15.1c-2.8-13-34.1-20.8-20.9-4S200.3,26.2,198,15.1z"/>
	
		<pattern  id="SVGID_4_" xlink:href="#USGS_22_Gravel_Beach_3" patternTransform="matrix(-1.0419 0.1303 0.1303 1.0419 -15042.2344 1154.9663)">
	</pattern>
	<path class="st24" d="M314.3,241.8c6.1-33.2-1.3-85.3-4.7-134.1c-28.4,18.6-47.2,22.6-72.7,29.7
		C225.2,140.6,295.6,165.8,314.3,241.8z"/>
	
		<pattern  id="SVGID_5_" xlink:href="#USGS_22_Gravel_Beach_3" patternTransform="matrix(-1.0419 0.1303 0.1303 1.0419 -15042.2344 1154.9663)">
	</pattern>
	<path class="st25" d="M157.8,145.2c0,0-27.4,94.3-1.7,128.4c43.4,57.7,131.4,18.4,131.4,18.4s-12.6,19.2-49.8,29.4
		s-79.5-3.6-101.9-28.8c-36.8-41.3-31.9-77.8-46.7-159.8C89.1,132.6,110.4,148.7,157.8,145.2z"/>
	<path class="st26" d="M244.2,110.9c-1.7-12.9-13.1-20.3-33-14.6s-43.4,0.9-54.2-14.8"/>
	<path class="st26" d="M150.5,118.4c0,0-10.6-24.2-35-17.8"/>
	<path class="st27" d="M242.8,203.9l3.3,25.2c10.4-11.3,25.8-15.2,39.7-5.7l-3.2-24.7c-2.9-22.3-14.1-39.1-25.1-37.7
		C246.5,162.5,240,181.7,242.8,203.9z"/>
	<path class="st28" d="M246.1,229.1c10.4-11.3,25.8-15.2,39.7-5.7c2.8,1.9,5.3,4.2,7.6,6.7"/>
	<path class="st29" d="M242.8,203.9l3.3,25.2c7.7-8.4,18.1-12.6,28.6-10.5c-0.7-7.6-1.8-15.1-3.4-22.5l-16.4-6.9l12.3-8.1
		c-2.3-7.1-5.5-13.8-9.4-20.2h-0.3C246.5,162.5,240,181.7,242.8,203.9z"/>
	<path class="st27" d="M163,214.3l3.3,25.2c10.4-11.3,25.8-15.2,39.7-5.7l-3.2-24.7c-2.9-22.3-14.1-39.1-25.1-37.7
		S160,192,163,214.3z"/>
	<path class="st28" d="M160.5,247.3c1.6-2.8,3.5-5.5,5.7-7.9c10.4-11.3,25.8-15.2,39.7-5.7c2.8,1.9,5.3,4.2,7.6,6.7"/>
	<path class="st29" d="M163,214.3l3.3,25.2c7.6-8.4,18.1-12.7,28.6-10.5c-0.7-7.6-1.8-15.1-3.4-22.5l-16.4-6.9l12.3-8
		c-2.3-7-5.5-13.8-9.4-20.1h-0.3C166.6,172.8,160,192,163,214.3z"/>
	<path class="st28" d="M231.3,244.8c3.9-0.8,7.3-2.9,9.9-6c5.3-6.2,5.9-14.3,1.4-18.2s-12.5-2.1-17.8,4.1c-4,4.6-5.3,10.4-3.8,14.6"
		/>
	<path class="st28" d="M271.4,157.7c-3.1-9.3-12.5-14.5-17.8-9.5"/>
	<path class="st28" d="M163.3,171.7c0.6-9.8,8.4-17.2,14.8-13.7"/>
	<path class="st30" d="M195.4,255.1c6.5,24.7,37.3,40.1,59.1,16.2c11.9-13,8.9-34.4-1.1-26.4c-18.8,15-35.3,12.1-40.5,9.6
		C204.7,250.5,193.5,248.1,195.4,255.1z"/>
	<path class="st31" d="M221.3,267c8,1.2,11.8,5.8,11.8,5.8s-4-6,3.5-6.8c3.8-0.4,10.9,2.8,17.1,6.1c-12.2,12.8-27,13.6-38.8,7.5
		C213.6,272,215.3,266,221.3,267z"/>
	<path class="st32" d="M248.1,285.5c-0.6,1.5-13.2,14.5-31.9,4.1"/>
	<path class="st2" d="M86.6,319.6c-3.5-13.1-5.9-26.4-7.1-39.9c-0.7-7.3-1.2-13.3-0.8-18.4c1.9-23,24.4-40.3,39.4-49.5"/>
	<path class="st3" d="M97,335.3c1.7-1.5,6.7-6.1,7.3-8.3c2-7.6-31.3-43.2-35.9-8.6c-0.4,3.1-17.7,8.1-33.6,21.3
		c-9.2,7.6-19.6,22.3-5.4,30.8c-2,16.5,15.9,17.1,19.3,10.4c2.2,6.3,10,8.9,15.8,6.1c10.4-5,10.2-18.6,12.4-22.8
		c2.4-4.6,6.6-5.8,12,1c12.1,15.4,24.1,7.1,23.5,0.1C111.6,356,92.3,353.5,97,335.3z"/>
	<path class="st4" d="M48.7,381c-3.2-16.6,4.8-26.7,16.8-35.2"/>
	<path class="st4" d="M29.4,370.5c1.7-11.8,11-24.5,21.4-30.2"/>
	<path class="st4" d="M85.7,324.7c6.1,0.9,9.1,6.2,11.3,10.6"/>
	<path class="st4" d="M68.3,318.6c2,0.1,4.8,1,5.9,2"/>
	
		<ellipse transform="matrix(0.9917 -0.1283 0.1283 0.9917 -27.7815 37.3097)" class="st33" cx="275.8" cy="234.3" rx="9.6" ry="7.1"/>
	
		<ellipse transform="matrix(0.9917 -0.1283 0.1283 0.9917 -30.1783 25.0375)" class="st33" cx="179.3" cy="246.8" rx="9.6" ry="7.1"/>
	<path class="st34" d="M442.7,146.6"/>
</g>
<g id="shadow">
	<path class="st35" d="M315.7,89.4c-0.4,0,6.8,51.6-0.4,114.1c-2.2,18.7-5.2,34.8-11.6,52.6c-6.1,17-14.2,33.2-24.3,48.1l0,0v0.1
		c0.1,4,0.6,4.5,0.6,4.5c1.3,0.9,20.2-14.8,32.7-41.8c7.2-15.9,11.4-33,12.3-50.5c0.4-6.3,0.1-12.4-0.4-24.6
		c-0.9-20.2-2.4-32.3-4.3-51.7C317.5,111.6,316,89.3,315.7,89.4z"/>
	<path class="st36" d="M273.8,313.8c-8.9,10-13.8,25.3-10.5,27.4c0.8,0.5,3.8-1.3,10-4.9c7.5-4.4,9.2-6,10.7-8.1
		c1.1-1.5,3.2-4.5,2.8-7.9c-0.1-1-0.3-1.1-0.6-3c-0.5-3.2-0.1-4-0.7-5.7c-0.2-0.6-1-2.9-2.5-3.5C280,306.7,275.1,312.3,273.8,313.8z
		"/>
	<path class="st37" d="M304.5,299.5"/>
	<path class="st38" d="M200.1,452.5c0.2-0.5,0.5-1.1,0.6-1.7c0.3-0.8,0.4-1.7,0.5-2.6c0.4-3,5.2-7.4,5.2-7.4
		c6.9-6.5,3.5-20.8,7.4-21.6c1.8-0.4,3.7,2.2,5.2,4.3c4.1,5.6,6.5,14.4,3.4,22.8c-0.6,1.5-3.1,8.2-9.3,11.2
		c-2.1,0.9-4.2,1.6-6.4,1.9c-2.5,0.4-2.5,0-7.2,0.5c-2.7,0.2-4,0.5-4.2,0s1.3-1.1,2.8-3.5C198.9,455.2,199.6,453.9,200.1,452.5z"/>
	<path class="st39" d="M441.1,343.7"/>
	<path class="st40" d="M303,446.4c-2.2,1.1,1.5,8.3,1.9,19.5c0.5,11.9-2.9,24.4-1.5,24.7c0.5,0.1,2-0.4,3.9-1.7
		c0,0,7.6-4.5,9.6-12.1c0.2-0.7,0.3-1.5,0.3-2.2c0-0.9-0.1-1.9-0.3-2.8c-0.5-2.1-0.2-3.2-0.3-5.2c-0.2-2.8-0.9-5.5-2-8.1
		c-0.9-2.6-2.4-5.1-4.2-7.2C310,450.8,305,445.3,303,446.4z"/>
</g>
</svg>
