<svg xmlns="http://www.w3.org/2000/svg" xmlns:xlink="http://www.w3.org/1999/xlink" viewBox="0 0 540.24 540.89"><defs><pattern id="USGS_22_Gravel_Beach_3" data-name="USGS 22 Gravel Beach 3" width="72" height="72" patternTransform="translate(114.09 641.09) rotate(172.87) scale(1.05)" patternUnits="userSpaceOnUse" viewBox="0 0 72 72"><rect width="72" height="72" fill="none"/><rect width="72" height="72" fill="none"/><path d="M72.25,14a.35.35,0,0,0-.25.6.37.37,0,0,0,.5,0,.35.35,0,0,0,0-.49A.36.36,0,0,0,72.25,14Z" fill="#eb9773"/><path d="M20.75,68.78a.39.39,0,0,0-.25.1.37.37,0,0,0,0,.5.36.36,0,0,0,.6-.25.34.34,0,0,0-.35-.35Z" fill="#eb9773"/><path d="M19.75,63.53a.34.34,0,0,0-.35.33v0a.33.33,0,0,0,.11.25.38.38,0,0,0,.49,0,.35.35,0,0,0-.25-.6Z" fill="#eb9773"/><path d="M20,61.28a.35.35,0,0,0-.25.6.37.37,0,0,0,.5,0,.35.35,0,0,0,0-.49A.36.36,0,0,0,20,61.28Z" fill="#eb9773"/><path d="M15,61.28a.34.34,0,0,0-.35.33v0a.39.39,0,0,0,.1.25.37.37,0,0,0,.5,0,.35.35,0,0,0,0-.49A.36.36,0,0,0,15,61.28Z" fill="#eb9773"/><path d="M22.5,51.78a.34.34,0,1,0,.35.35.34.34,0,0,0-.33-.35Z" fill="#eb9773"/><path d="M15,48.78a.34.34,0,0,0-.35.33v0a.33.33,0,0,0,.11.25.38.38,0,0,0,.49,0,.39.39,0,0,0,.1-.25.34.34,0,0,0-.33-.35Z" fill="#eb9773"/><path d="M13.75,47.78a.34.34,0,1,0,.35.35.34.34,0,0,0-.35-.35Z" fill="#eb9773"/><path d="M23.75,44.78a.34.34,0,0,0-.35.33v0a.33.33,0,0,0,.11.25.38.38,0,0,0,.49,0,.39.39,0,0,0,.1-.25.35.35,0,0,0-.1-.24A.36.36,0,0,0,23.75,44.78Z" fill="#eb9773"/><path d="M30.5,46a.34.34,0,1,0,.35.35.34.34,0,0,0-.33-.35Z" fill="#eb9773"/><path d="M31,48.53a.34.34,0,0,0-.35.33v0a.33.33,0,0,0,.11.25.35.35,0,0,0,.49,0,.37.37,0,0,0,.1-.24.34.34,0,0,0-.35-.35Z" fill="#eb9773"/><path d="M29,53.53a.34.34,0,1,0,.35.35.34.34,0,0,0-.33-.35Z" fill="#eb9773"/><path d="M33.75,52a.34.34,0,1,0,.35.35.34.34,0,0,0-.33-.35Z" fill="#eb9773"/><path d="M31.25,57a.34.34,0,1,0,.35.35.34.34,0,0,0-.33-.35Z" fill="#eb9773"/><path d="M31.5,60a.35.35,0,0,0-.25.6.37.37,0,0,0,.5,0,.35.35,0,0,0,0-.49A.36.36,0,0,0,31.5,60Z" fill="#eb9773"/><path d="M32,64.78a.34.34,0,1,0,.35.35.34.34,0,0,0-.33-.35Z" fill="#eb9773"/><path d="M31.75,68.78a.34.34,0,0,0-.35.35.33.33,0,0,0,.11.25.35.35,0,0,0,.49,0,.37.37,0,0,0,.1-.24.34.34,0,0,0-.35-.35Z" fill="#eb9773"/><path d="M33.75,70.53a.36.36,0,0,0-.25.11.35.35,0,0,0-.1.24.33.33,0,0,0,.11.25.36.36,0,0,0,.49,0,.39.39,0,0,0,.1-.25.33.33,0,0,0-.11-.25A.35.35,0,0,0,33.75,70.53Z" fill="#eb9773"/><path d="M41.25,64.78a.39.39,0,0,0-.25.1.35.35,0,0,0-.1.25.39.39,0,0,0,.1.25.36.36,0,0,0,.6-.25.34.34,0,0,0-.33-.35Z" fill="#eb9773"/><path d="M45.25,65a.39.39,0,0,0-.25.1.37.37,0,0,0,0,.5.36.36,0,0,0,.6-.25.34.34,0,0,0-.33-.35Z" fill="#eb9773"/><path d="M42.25,58.28a.34.34,0,0,0-.35.33v0a.33.33,0,0,0,.11.25.35.35,0,0,0,.49,0,.37.37,0,0,0,.1-.24.34.34,0,0,0-.33-.35Z" fill="#eb9773"/><path d="M46.75,57.53a.34.34,0,0,0-.35.33v0a.33.33,0,0,0,.11.25.36.36,0,0,0,.49,0,.39.39,0,0,0,.1-.25.35.35,0,0,0-.1-.24A.36.36,0,0,0,46.75,57.53Z" fill="#eb9773"/><path d="M46.75,55.53a.34.34,0,0,0-.35.33v0a.33.33,0,0,0,.11.25.36.36,0,0,0,.49,0,.39.39,0,0,0,.1-.25.37.37,0,0,0-.1-.24A.36.36,0,0,0,46.75,55.53Z" fill="#eb9773"/><path d="M38.75,51a.35.35,0,0,0-.25.6.36.36,0,0,0,.49,0,.33.33,0,0,0,.11-.25.34.34,0,0,0-.33-.35Z" fill="#eb9773"/><path d="M50,58.28a.39.39,0,0,0-.25.1.35.35,0,0,0,.5.5.35.35,0,0,0,0-.49A.36.36,0,0,0,50,58.28Z" fill="#eb9773"/><path d="M52,59.78a.36.36,0,0,0-.25.11.35.35,0,0,0-.1.24.33.33,0,0,0,.11.25.38.38,0,0,0,.49,0,.39.39,0,0,0,.1-.25.34.34,0,0,0-.33-.35Z" fill="#eb9773"/><path d="M54.5,60.78a.36.36,0,0,0-.25.11.35.35,0,0,0-.1.24.33.33,0,0,0,.11.25.35.35,0,0,0,.49,0,.37.37,0,0,0,.1-.24.34.34,0,0,0-.33-.35Z" fill="#eb9773"/><path d="M56.25,71a.38.38,0,0,0-.25.13.36.36,0,0,0,0,.5.37.37,0,0,0,.5,0,.35.35,0,0,0,.1-.24.39.39,0,0,0-.1-.25A.35.35,0,0,0,56.25,71Z" fill="#eb9773"/><path d="M67.75,68.78a.34.34,0,0,0-.35.35.33.33,0,0,0,.11.25.38.38,0,0,0,.49,0,.35.35,0,0,0-.25-.6Z" fill="#eb9773"/><path d="M67.75,61.53a.36.36,0,0,0-.25.11.35.35,0,0,0-.1.24.39.39,0,0,0,.1.25.37.37,0,0,0,.5,0,.39.39,0,0,0,.1-.25.33.33,0,0,0-.11-.25A.35.35,0,0,0,67.75,61.53Z" fill="#eb9773"/><path d="M64,59.53a.34.34,0,1,0,.35.35.34.34,0,0,0-.33-.35Z" fill="#eb9773"/><path d="M65,56a.34.34,0,0,0-.35.33v0a.39.39,0,0,0,.1.25.37.37,0,0,0,.5,0,.35.35,0,0,0,0-.49A.36.36,0,0,0,65,56Z" fill="#eb9773"/><path d="M63.75,52a.36.36,0,0,0-.25.11.35.35,0,0,0-.1.24.39.39,0,0,0,.1.25.37.37,0,0,0,.5,0,.39.39,0,0,0,.1-.25A.33.33,0,0,0,64,52.1.35.35,0,0,0,63.75,52Z" fill="#eb9773"/><path d="M66,52a.34.34,0,0,0-.35.33v0a.33.33,0,0,0,.11.25.38.38,0,0,0,.49,0,.39.39,0,0,0,.1-.25A.34.34,0,0,0,66,52Z" fill="#eb9773"/><path d="M67.75,50.53a.35.35,0,0,0-.25.6.37.37,0,0,0,.5,0,.35.35,0,0,0,0-.49A.36.36,0,0,0,67.75,50.53Z" fill="#eb9773"/><path d="M6.75,19.53a.35.35,0,0,0-.25.6.37.37,0,0,0,.5,0,.35.35,0,0,0,0-.49A.36.36,0,0,0,6.75,19.53Z" fill="#eb9773"/><path d="M7,17.28a.35.35,0,0,0-.25.6.37.37,0,0,0,.5,0,.35.35,0,0,0,0-.49A.36.36,0,0,0,7,17.28Z" fill="#eb9773"/><path d="M2,17.28a.39.39,0,0,0-.25.1.37.37,0,0,0,0,.5.37.37,0,0,0,.5,0,.37.37,0,0,0,0-.5A.39.39,0,0,0,2,17.28Z" fill="#eb9773"/><path d="M9.5,7.78a.34.34,0,1,0,.35.35.34.34,0,0,0-.33-.35Z" fill="#eb9773"/><path d="M.75,3.78a.39.39,0,0,0-.25.1.37.37,0,0,0,0,.5.37.37,0,0,0,.5,0,.37.37,0,0,0,0-.5A.39.39,0,0,0,.75,3.78Z" fill="#eb9773"/><path d="M10.75.78a.36.36,0,0,0-.36.34.36.36,0,0,0,.11.26.37.37,0,0,0,.5,0,.35.35,0,0,0,0-.49A.36.36,0,0,0,10.75.78Z" fill="#eb9773"/><path d="M18,4.53a.34.34,0,0,0-.35.33v0a.39.39,0,0,0,.1.25.38.38,0,0,0,.49,0,.36.36,0,0,0,.11-.25A.34.34,0,0,0,18,4.53Z" fill="#eb9773"/><path d="M16,9.53a.35.35,0,0,0-.25.6.37.37,0,0,0,.5,0,.35.35,0,0,0,0-.49A.36.36,0,0,0,16,9.53Z" fill="#eb9773"/><path d="M19.25,14a.34.34,0,0,0-.35.33v0a.33.33,0,0,0,.11.25.38.38,0,0,0,.49,0,.39.39,0,0,0,.1-.25.34.34,0,0,0-.33-.35Z" fill="#eb9773"/><path d="M18.5,16a.34.34,0,0,0-.35.33v0a.33.33,0,0,0,.11.25.38.38,0,0,0,.49,0,.39.39,0,0,0,.1-.25.34.34,0,0,0-.33-.35Z" fill="#eb9773"/><path d="M16,17a.34.34,0,0,0-.35.33v0a.33.33,0,0,0,.11.25.38.38,0,0,0,.49,0,.39.39,0,0,0,.1-.25A.34.34,0,0,0,16,17Z" fill="#eb9773"/><path d="M19,20.78a.34.34,0,0,0-.35.33v0a.33.33,0,0,0,.11.25.38.38,0,0,0,.49,0,.39.39,0,0,0,.1-.25.34.34,0,0,0-.33-.35Z" fill="#eb9773"/><path d="M18.75,24.78a.35.35,0,0,0-.25.6.37.37,0,0,0,.5,0,.35.35,0,0,0,0-.49A.36.36,0,0,0,18.75,24.78Z" fill="#eb9773"/><path d="M16,24.53a.35.35,0,0,0-.25.6.37.37,0,0,0,.5,0,.35.35,0,0,0,0-.49A.36.36,0,0,0,16,24.53Z" fill="#eb9773"/><path d="M32.25,21a.34.34,0,0,0-.35.33v0a.33.33,0,0,0,.11.25.35.35,0,0,0,.49,0,.37.37,0,0,0,.1-.24.34.34,0,0,0-.33-.35Z" fill="#eb9773"/><path d="M27,17.53a.35.35,0,0,0-.25.6.37.37,0,0,0,.5,0,.35.35,0,0,0,0-.49A.36.36,0,0,0,27,17.53Z" fill="#eb9773"/><path d="M31.75,16a.35.35,0,0,0-.25.6.37.37,0,0,0,.5,0,.35.35,0,0,0,0-.49A.36.36,0,0,0,31.75,16Z" fill="#eb9773"/><path d="M31.75,14.28a.35.35,0,0,0-.25.59h0a.37.37,0,0,0,.5,0,.39.39,0,0,0,.1-.25.34.34,0,0,0-.33-.35h0Z" fill="#eb9773"/><path d="M33.75,13.53a.35.35,0,0,0-.25.6.37.37,0,0,0,.5,0,.35.35,0,0,0,0-.49A.36.36,0,0,0,33.75,13.53Z" fill="#eb9773"/><path d="M25.75,7a.34.34,0,1,0,.35.35A.34.34,0,0,0,25.77,7Z" fill="#eb9773"/><path d="M35.75,15.53a.34.34,0,1,0,.35.35.34.34,0,0,0-.33-.35Z" fill="#eb9773"/><path d="M39,15.78a.35.35,0,0,0-.24.1.36.36,0,0,0-.11.25.39.39,0,0,0,.1.25.37.37,0,0,0,.5,0,.35.35,0,0,0,0-.49A.36.36,0,0,0,39,15.78Z" fill="#eb9773"/><path d="M41.5,21a.35.35,0,0,0-.25.6.37.37,0,0,0,.5,0,.35.35,0,0,0,0-.49A.36.36,0,0,0,41.5,21Z" fill="#eb9773"/><path d="M43.25,27a.36.36,0,0,0-.25.11.35.35,0,0,0-.1.24.39.39,0,0,0,.1.25.37.37,0,0,0,.5,0,.35.35,0,0,0,0-.49A.36.36,0,0,0,43.25,27Z" fill="#eb9773"/><path d="M50.75,21.28a.35.35,0,0,0-.25.6.37.37,0,0,0,.5,0,.35.35,0,0,0,0-.49A.36.36,0,0,0,50.75,21.28Z" fill="#eb9773"/><path d="M51.75,25.28a.36.36,0,0,0-.25.11.35.35,0,0,0-.1.24.33.33,0,0,0,.11.25.38.38,0,0,0,.49,0,.39.39,0,0,0,.1-.25.34.34,0,0,0-.33-.35Z" fill="#eb9773"/><path d="M54.75,24.78a.33.33,0,0,0-.25.11.35.35,0,0,0-.1.24.39.39,0,0,0,.1.25.36.36,0,0,0,.49,0,.33.33,0,0,0,.11-.25.34.34,0,0,0-.33-.35Z" fill="#eb9773"/><path d="M54.75,17.53a.33.33,0,0,0-.25.11.35.35,0,0,0-.1.24.33.33,0,0,0,.11.25.38.38,0,0,0,.49,0,.39.39,0,0,0,.1-.25.34.34,0,0,0-.33-.35Z" fill="#eb9773"/><path d="M51,15.53a.35.35,0,0,0-.25.6.37.37,0,0,0,.5,0,.35.35,0,0,0,.1-.25.34.34,0,0,0-.35-.35Z" fill="#eb9773"/><path d="M50.75,8a.34.34,0,0,0-.35.33v0a.31.31,0,0,0,.1.24.34.34,0,0,0,.48,0h0a.36.36,0,0,0,.11-.25.39.39,0,0,0-.1-.25A.38.38,0,0,0,50.75,8Z" fill="#eb9773"/><path d="M53,8a.34.34,0,0,0-.35.33v0a.33.33,0,0,0,.11.25.36.36,0,0,0,.49,0,.31.31,0,0,0,.1-.24A.34.34,0,0,0,53,8Z" fill="#eb9773"/><path d="M55.75,8.78a.34.34,0,1,0,.35.35.34.34,0,0,0-.33-.35Z" fill="#eb9773"/><path d="M58,10.28a.36.36,0,0,0-.25.11.35.35,0,0,0-.1.24.39.39,0,0,0,.1.25.37.37,0,0,0,.5,0,.39.39,0,0,0,.1-.25.34.34,0,0,0-.33-.35Z" fill="#eb9773"/><path d="M20.75,44.78a.34.34,0,1,0,.35.35.34.34,0,0,0-.33-.35Z" fill="#eb9773"/><path d="M22.5,47.78a.35.35,0,0,0-.25.6.37.37,0,0,0,.5,0,.35.35,0,0,0,0-.49A.36.36,0,0,0,22.5,47.78Z" fill="#eb9773"/><path d="M38.75,47a.35.35,0,0,0-.25.6.37.37,0,0,0,.5,0,.35.35,0,0,0,0-.49A.36.36,0,0,0,38.75,47Z" fill="#eb9773"/><path d="M46,42.78a.39.39,0,0,0-.25.1.36.36,0,0,0,0,.49.34.34,0,0,0,.48,0h0a.36.36,0,0,0,.11-.25.34.34,0,0,0-.33-.35h0Z" fill="#eb9773"/><path d="M55,43.78a.35.35,0,0,0-.25.6.37.37,0,0,0,.5,0,.35.35,0,0,0,0-.49A.36.36,0,0,0,55,43.78Z" fill="#eb9773"/><path d="M51,46.53a.35.35,0,0,0-.25.6.37.37,0,0,0,.5,0,.35.35,0,0,0,.1-.25.34.34,0,0,0-.33-.35Z" fill="#eb9773"/><path d="M51.75,42.28a.39.39,0,0,0-.25.1.37.37,0,0,0,0,.5.36.36,0,0,0,.6-.25.34.34,0,0,0-.33-.35Z" fill="#eb9773"/><path d="M62.25,36.28a.34.34,0,0,0-.35.33v0a.33.33,0,0,0,.11.25.36.36,0,0,0,.49,0,.31.31,0,0,0,.1-.24.34.34,0,0,0-.33-.35h0Z" fill="#eb9773"/><path d="M56.5,32.78a.34.34,0,1,0,.35.35.34.34,0,0,0-.33-.35Z" fill="#eb9773"/><path d="M48,34.53a.35.35,0,0,0-.24.1.36.36,0,0,0-.11.25.39.39,0,0,0,.1.25.37.37,0,0,0,.5,0,.35.35,0,0,0,.1-.24.34.34,0,0,0-.33-.35h0Z" fill="#eb9773"/><path d="M47.75,30.53a.33.33,0,0,0-.25.11.35.35,0,0,0-.1.24.39.39,0,0,0,.1.25.37.37,0,0,0,.5,0,.35.35,0,0,0,0-.49A.36.36,0,0,0,47.75,30.53Z" fill="#eb9773"/><path d="M53.25,26.78a.33.33,0,0,0-.25.11.31.31,0,0,0-.1.24.33.33,0,0,0,.11.25.38.38,0,0,0,.49,0,.35.35,0,0,0,0-.49A.36.36,0,0,0,53.25,26.78Z" fill="#eb9773"/><path d="M62,23.78a.34.34,0,0,0-.35.33v0a.33.33,0,0,0,.11.25.36.36,0,0,0,.49,0,.31.31,0,0,0,.1-.24.34.34,0,0,0-.33-.35h0Z" fill="#eb9773"/><path d="M64.75,20a.34.34,0,0,0-.35.33v0a.33.33,0,0,0,.11.25.38.38,0,0,0,.49,0,.39.39,0,0,0,.1-.25.34.34,0,0,0-.33-.35Z" fill="#eb9773"/><path d="M69.25,26.78a.35.35,0,0,0-.25.6.37.37,0,0,0,.5,0,.35.35,0,0,0,0-.49A.36.36,0,0,0,69.25,26.78Z" fill="#eb9773"/><path d="M59.75,32.78a.33.33,0,0,0-.25.11.35.35,0,0,0-.1.24.33.33,0,0,0,.11.25.36.36,0,0,0,.49,0,.37.37,0,0,0,0-.5A.39.39,0,0,0,59.75,32.78Z" fill="#eb9773"/><path d="M32.25,24.78a.34.34,0,1,0,.35.35.34.34,0,0,0-.33-.35Z" fill="#eb9773"/><path d="M26,34a.34.34,0,1,0,.35.35A.34.34,0,0,0,26,34Z" fill="#eb9773"/><path d="M29.5,36.28a.35.35,0,0,0-.24.1.36.36,0,0,0-.11.25.33.33,0,0,0,.11.25.38.38,0,0,0,.49,0,.39.39,0,0,0,.1-.25.34.34,0,0,0-.33-.35Z" fill="#eb9773"/><path d="M10.25,42.28a.35.35,0,0,0-.25.6.38.38,0,0,0,.49,0,.33.33,0,0,0,.11-.25.34.34,0,0,0-.33-.35Z" fill="#eb9773"/><path d="M5.75,40.28a.35.35,0,0,0-.25.6.36.36,0,0,0,.49,0,.33.33,0,0,0,.11-.25.34.34,0,0,0-.35-.35Z" fill="#eb9773"/><path d="M2.25,36.53a.39.39,0,0,0-.25.1.35.35,0,0,0,.5.5.35.35,0,0,0,0-.49A.36.36,0,0,0,2.25,36.53Z" fill="#eb9773"/><path d="M16.75,29.78a.34.34,0,0,0-.35.33v0a.33.33,0,0,0,.11.25.35.35,0,0,0,.49,0,.37.37,0,0,0,.1-.24.34.34,0,0,0-.35-.35Z" fill="#eb9773"/><path d="M12.5,35.78a.34.34,0,0,0-.35.33v0a.33.33,0,0,0,.11.25.38.38,0,0,0,.49,0,.35.35,0,0,0-.25-.6Z" fill="#eb9773"/><path d="M26.25,41.53a.35.35,0,0,0-.25.6.37.37,0,0,0,.5,0,.35.35,0,0,0,0-.49A.36.36,0,0,0,26.25,41.53Z" fill="#eb9773"/><path d="M39,41a.35.35,0,0,0-.25.6.35.35,0,0,0,.5-.5A.39.39,0,0,0,39,41Z" fill="#eb9773"/><path d="M38,39a.35.35,0,0,0-.25.6.37.37,0,0,0,.5,0,.35.35,0,0,0,0-.49A.36.36,0,0,0,38,39Z" fill="#eb9773"/><path d="M27.75,29.78a.35.35,0,0,0-.25.6.37.37,0,0,0,.5,0,.35.35,0,0,0,0-.49A.36.36,0,0,0,27.75,29.78Z" fill="#eb9773"/><path d="M6.25,51.28a.35.35,0,0,0-.25.6.37.37,0,0,0,.5,0,.35.35,0,0,0,0-.49A.36.36,0,0,0,6.25,51.28Z" fill="#eb9773"/><path d="M9.5,53a.34.34,0,1,0,.35.35A.34.34,0,0,0,9.52,53Z" fill="#eb9773"/><path d="M11.5,48.28a.34.34,0,0,0-.35.33v0a.33.33,0,0,0,.11.25.38.38,0,0,0,.49,0,.35.35,0,0,0-.25-.6Z" fill="#eb9773"/><path d="M2.75,46a.39.39,0,0,0-.25.1.35.35,0,0,0,.5.5.37.37,0,0,0,0-.5A.39.39,0,0,0,2.75,46Z" fill="#eb9773"/><path d="M64,42.28a.35.35,0,0,0-.24.1.36.36,0,0,0-.11.25.39.39,0,0,0,.1.25.36.36,0,0,0,.6-.25.34.34,0,0,0-.33-.35Z" fill="#eb9773"/><path d="M69.25,42a.34.34,0,0,0-.35.33v0a.33.33,0,0,0,.11.25.38.38,0,0,0,.49,0,.35.35,0,0,0-.25-.6Z" fill="#eb9773"/><path d="M1.25,62.78a.39.39,0,0,0-.25.1.37.37,0,0,0,0,.5.37.37,0,0,0,.5,0,.37.37,0,0,0,0-.5A.39.39,0,0,0,1.25,62.78Z" fill="#eb9773"/><path d="M16.25,65.78a.34.34,0,0,0-.35.33v0a.39.39,0,0,0,.1.25.37.37,0,0,0,.5,0,.35.35,0,0,0,0-.49A.36.36,0,0,0,16.25,65.78Z" fill="#eb9773"/><path d="M3.5,65.78a.34.34,0,1,0,.35.35.34.34,0,0,0-.33-.35Z" fill="#eb9773"/><path d="M12.5,57.53a.34.34,0,1,0,.35.35.34.34,0,0,0-.33-.35Z" fill="#eb9773"/><path d="M18.25,52.53a.34.34,0,0,0-.35.33v0a.39.39,0,0,0,.1.25.36.36,0,0,0,.6-.25.34.34,0,0,0-.33-.35Z" fill="#eb9773"/><path d="M21,34.78a.34.34,0,0,0-.35.33v0a.39.39,0,0,0,.1.25.38.38,0,0,0,.49,0,.36.36,0,0,0,.11-.25.34.34,0,0,0-.33-.35Z" fill="#eb9773"/><path d="M.5,27.53a.39.39,0,0,0-.25.1.39.39,0,0,0-.1.25.33.33,0,0,0,.11.25.38.38,0,0,0,.49,0,.36.36,0,0,0,0-.5A.39.39,0,0,0,.5,27.53Z" fill="#eb9773"/><path d="M67.75,5.78a.34.34,0,0,0-.35.33v0a.33.33,0,0,0,.11.25.38.38,0,0,0,.49,0,.39.39,0,0,0,.1-.25.34.34,0,0,0-.33-.35Z" fill="#eb9773"/><path d="M59.5,2a.39.39,0,0,0-.25.1.35.35,0,0,0-.1.25.39.39,0,0,0,.1.25.37.37,0,0,0,.5,0,.39.39,0,0,0,.1-.25.39.39,0,0,0-.1-.25A.39.39,0,0,0,59.5,2Z" fill="#eb9773"/><path d="M40.25,3.78a.35.35,0,0,0-.25.6.35.35,0,0,0,.5-.5A.39.39,0,0,0,40.25,3.78Z" fill="#eb9773"/><path d="M4.25,11.78a.34.34,0,1,0,.35.35.34.34,0,0,0-.33-.35Z" fill="#eb9773"/><path d="M26.25,12.28a.34.34,0,1,0,.35.35.34.34,0,0,0-.33-.35Z" fill="#eb9773"/><path d="M37,23.28a.34.34,0,0,0-.35.33v0a.39.39,0,0,0,.1.25.35.35,0,0,0,.5-.5A.39.39,0,0,0,37,23.28Z" fill="#eb9773"/><path d="M8.5,31.53a.34.34,0,1,0,.35.35.34.34,0,0,0-.33-.35Z" fill="#eb9773"/><path d="M52,33.78a.36.36,0,0,0-.25.11.35.35,0,0,0-.1.24.33.33,0,0,0,.11.25.38.38,0,0,0,.49,0,.39.39,0,0,0,.1-.25.34.34,0,0,0-.33-.35Z" fill="#eb9773"/><path d="M60.5,25.78a.34.34,0,0,0-.35.33v0a.33.33,0,0,0,.11.25.38.38,0,0,0,.49,0,.39.39,0,0,0,.1-.25.34.34,0,0,0-.33-.35Z" fill="#eb9773"/><path d="M51,5.53a.35.35,0,0,0-.25.6.37.37,0,0,0,.5,0,.39.39,0,0,0,.1-.25.35.35,0,0,0-.1-.25A.39.39,0,0,0,51,5.53Z" fill="#eb9773"/><path d="M39.75,34a.34.34,0,1,0,.35.35.34.34,0,0,0-.33-.35Z" fill="#eb9773"/><path d="M27.25,58.28a.34.34,0,1,0,.35.35.34.34,0,0,0-.33-.35Z" fill="#eb9773"/><path d="M19.5,45.28a.34.34,0,0,0-.35.33v0a.39.39,0,0,0,.1.25.38.38,0,0,0,.49,0,.36.36,0,0,0,.11-.25.34.34,0,0,0-.33-.35Z" fill="#eb9773"/><path d="M11.5,70a.35.35,0,0,0-.25.6.37.37,0,0,0,.5,0,.35.35,0,0,0-.25-.6Z" fill="#eb9773"/><path d="M55,68a.34.34,0,0,0-.35.33v0a.33.33,0,0,0,.11.25.38.38,0,0,0,.49,0,.39.39,0,0,0,.1-.25A.34.34,0,0,0,55,68Z" fill="#eb9773"/><path d="M47,2a.39.39,0,0,0-.25.1.39.39,0,0,0-.1.25.39.39,0,0,0,.1.25.36.36,0,0,0,.6-.25A.34.34,0,0,0,47,2Z" fill="#eb9773"/><path d="M4.5,31.53a.34.34,0,0,0-.35.33v0a.33.33,0,0,0,.11.25.38.38,0,0,0,.49,0,.39.39,0,0,0,.1-.25.34.34,0,0,0-.33-.35Z" fill="#eb9773"/><path d="M68.5,58.53a.35.35,0,0,0-.25.6.35.35,0,0,0,.5-.5A.39.39,0,0,0,68.5,58.53Z" fill="#eb9773"/><path d="M23,57.78a.34.34,0,1,0,.35.35.34.34,0,0,0-.33-.35Z" fill="#eb9773"/><path d="M20.25,54.53a.35.35,0,0,0-.25.6.37.37,0,0,0,.5,0,.35.35,0,0,0,0-.49A.36.36,0,0,0,20.25,54.53Z" fill="#eb9773"/><path d="M14.5,54.53a.34.34,0,0,0-.35.33v0a.33.33,0,0,0,.11.25.38.38,0,0,0,.49,0,.39.39,0,0,0,.1-.25.34.34,0,0,0-.33-.35Z" fill="#eb9773"/><path d="M5.75,60a.35.35,0,0,0-.25.6.36.36,0,0,0,.49,0,.33.33,0,0,0,.11-.25A.34.34,0,0,0,5.77,60Z" fill="#eb9773"/><path d="M6.75,69a.37.37,0,0,0-.24.1.36.36,0,0,0-.11.25.39.39,0,0,0,.1.25.36.36,0,0,0,.6-.25A.34.34,0,0,0,6.75,69Z" fill="#eb9773"/><path d="M9.75,63.53a.34.34,0,1,0,.35.35.34.34,0,0,0-.33-.35Z" fill="#eb9773"/><path d="M14,63.53a.34.34,0,0,0-.35.33v0a.33.33,0,0,0,.11.25.38.38,0,0,0,.49,0,.39.39,0,0,0,.1-.25.34.34,0,0,0-.33-.35Z" fill="#eb9773"/><path d="M25.5,64.78a.34.34,0,1,0,.35.35.34.34,0,0,0-.33-.35Z" fill="#eb9773"/><path d="M36.75,64.28a.35.35,0,0,0-.25.6.37.37,0,0,0,.5,0,.35.35,0,0,0,0-.49A.36.36,0,0,0,36.75,64.28Z" fill="#eb9773"/><path d="M37.25,67.53a.34.34,0,0,0-.35.33v0a.34.34,0,0,0,.59.24.37.37,0,0,0,.1-.24.34.34,0,0,0-.33-.35h0Z" fill="#eb9773"/><path d="M43,69.53a.35.35,0,0,0-.25.6.37.37,0,0,0,.5,0,.35.35,0,0,0-.25-.6Z" fill="#eb9773"/><path d="M49.25,63.53a.39.39,0,0,0-.25.1.35.35,0,0,0,.5.5.35.35,0,0,0,0-.49A.36.36,0,0,0,49.25,63.53Z" fill="#eb9773"/><path d="M45.75,62.53a.35.35,0,0,0-.25.6.35.35,0,0,0,.5-.5A.39.39,0,0,0,45.75,62.53Z" fill="#eb9773"/><path d="M35.5,60.78a.34.34,0,0,0-.35.33v0a.39.39,0,0,0,.1.25.36.36,0,0,0,.6-.25.34.34,0,0,0-.33-.35Z" fill="#eb9773"/><path d="M39,56.78a.34.34,0,1,0,.35.35.34.34,0,0,0-.33-.35Z" fill="#eb9773"/><path d="M24.5,53.78a.34.34,0,1,0,.35.35.34.34,0,0,0-.33-.35Z" fill="#eb9773"/><path d="M8,44.53a.34.34,0,1,0,.35.35A.34.34,0,0,0,8,44.53Z" fill="#eb9773"/><path d="M15.75,40a.35.35,0,0,0-.25.6.37.37,0,0,0,.5,0,.35.35,0,0,0,0-.49A.36.36,0,0,0,15.75,40Z" fill="#eb9773"/><path d="M10.25,38.28a.34.34,0,0,0-.35.33v0a.33.33,0,0,0,.11.25.38.38,0,0,0,.49,0,.35.35,0,0,0-.25-.6Z" fill="#eb9773"/><path d="M5,34.78a.35.35,0,0,0-.25.6.37.37,0,0,0,.5,0,.39.39,0,0,0,.1-.25A.34.34,0,0,0,5,34.78Z" fill="#eb9773"/><path d="M3,51.28a.39.39,0,0,0-.25.1.35.35,0,0,0,.5.5.37.37,0,0,0,0-.5A.39.39,0,0,0,3,51.28Z" fill="#eb9773"/><path d="M20.25,41a.34.34,0,0,0-.35.33v0a.33.33,0,0,0,.11.25.35.35,0,0,0,.49,0,.37.37,0,0,0,.1-.24.34.34,0,0,0-.33-.35Z" fill="#eb9773"/><path d="M17.25,36.28a.35.35,0,0,0-.25.6.37.37,0,0,0,.5,0,.35.35,0,0,0,0-.49A.36.36,0,0,0,17.25,36.28Z" fill="#eb9773"/><path d="M15.75,32.78a.34.34,0,0,0-.35.33v0a.33.33,0,0,0,.11.25.38.38,0,0,0,.49,0,.35.35,0,0,0-.25-.6Z" fill="#eb9773"/><path d="M12.5,30.53a.34.34,0,0,0-.35.33v0a.33.33,0,0,0,.11.25.38.38,0,0,0,.49,0,.39.39,0,0,0,.1-.25.34.34,0,0,0-.33-.35Z" fill="#eb9773"/><path d="M12.5,25.28a.34.34,0,0,0-.35.33v0a.33.33,0,0,0,.11.25.38.38,0,0,0,.49,0,.39.39,0,0,0,.1-.25.34.34,0,0,0-.33-.35Z" fill="#eb9773"/><path d="M5.5,23.28a.35.35,0,0,0-.25.6.37.37,0,0,0,.5,0,.35.35,0,0,0,0-.49A.36.36,0,0,0,5.5,23.28Z" fill="#eb9773"/><path d="M10.75,17.28a.35.35,0,0,0-.25.6.37.37,0,0,0,.5,0,.35.35,0,0,0,0-.49A.36.36,0,0,0,10.75,17.28Z" fill="#eb9773"/><path d="M15.25,13.28a.35.35,0,0,0-.25.6.37.37,0,0,0,.5,0,.35.35,0,0,0,0-.49A.36.36,0,0,0,15.25,13.28Z" fill="#eb9773"/><path d="M5.75,8.28a.35.35,0,0,0-.25.6.37.37,0,0,0,.5,0,.39.39,0,0,0,.1-.25.34.34,0,0,0-.33-.35Z" fill="#eb9773"/><path d="M2,9.78a.39.39,0,0,0-.25.1.37.37,0,0,0,0,.5.38.38,0,0,0,.49,0,.33.33,0,0,0,.11-.25.39.39,0,0,0-.1-.25A.39.39,0,0,0,2,9.78Z" fill="#eb9773"/><path d="M8.75,3.78a.34.34,0,1,0,.35.35.34.34,0,0,0-.35-.35Z" fill="#eb9773"/><path d="M13.25,2.28a.35.35,0,0,0-.25.6.37.37,0,0,0,.5,0,.35.35,0,0,0,0-.49A.36.36,0,0,0,13.25,2.28Z" fill="#eb9773"/><path d="M21.25,3.28a.34.34,0,0,0-.35.33v0a.33.33,0,0,0,.11.25.35.35,0,0,0,.49,0,.37.37,0,0,0,.1-.24.34.34,0,0,0-.33-.35Z" fill="#eb9773"/><path d="M22.75,6a.35.35,0,0,0-.25.6.35.35,0,0,0,.5-.5A.39.39,0,0,0,22.75,6Z" fill="#eb9773"/><path d="M22,11.78a.35.35,0,0,0-.25.6.35.35,0,0,0,.5-.5A.39.39,0,0,0,22,11.78Z" fill="#eb9773"/><path d="M24,14.28a.34.34,0,0,0-.35.33v0a.39.39,0,0,0,.1.25.37.37,0,0,0,.5,0,.35.35,0,0,0-.25-.6Z" fill="#eb9773"/><path d="M26,24a.35.35,0,0,0-.25.6.37.37,0,0,0,.5,0,.35.35,0,0,0,0-.49A.36.36,0,0,0,26,24Z" fill="#eb9773"/><path d="M25.5,28.28a.35.35,0,0,0-.25.6.37.37,0,0,0,.5,0,.35.35,0,0,0,0-.49A.36.36,0,0,0,25.5,28.28Z" fill="#eb9773"/><path d="M32,40.78a.34.34,0,0,0-.35.33v0a.33.33,0,0,0,.11.25.35.35,0,0,0,.49,0,.37.37,0,0,0,.1-.24.34.34,0,0,0-.33-.35Z" fill="#eb9773"/><path d="M34,44a.34.34,0,0,0-.35.33v0a.35.35,0,0,0,.1.25.35.35,0,0,0,.5-.5A.39.39,0,0,0,34,44Z" fill="#eb9773"/><path d="M41.5,46a.35.35,0,0,0-.25.6.37.37,0,0,0,.5,0,.35.35,0,0,0,0-.49A.36.36,0,0,0,41.5,46Z" fill="#eb9773"/><path d="M42.75,51a.36.36,0,0,0-.25.11.35.35,0,0,0-.1.24.39.39,0,0,0,.1.25.37.37,0,0,0,.5,0,.39.39,0,0,0,.1-.25A.33.33,0,0,0,43,51.1.35.35,0,0,0,42.75,51Z" fill="#eb9773"/><path d="M36.25,52.53a.34.34,0,0,0-.35.35.31.31,0,0,0,.1.24.35.35,0,0,0,.49,0h0a.35.35,0,0,0,0-.49.36.36,0,0,0-.26-.11Z" fill="#eb9773"/><path d="M27.5,49.53a.35.35,0,0,0-.25.6.37.37,0,0,0,.5,0,.35.35,0,0,0,0-.49A.36.36,0,0,0,27.5,49.53Z" fill="#eb9773"/><path d="M51.75,49.78a.33.33,0,0,0-.25.11.35.35,0,0,0-.1.24.39.39,0,0,0,.1.25.36.36,0,0,0,.6-.25.34.34,0,0,0-.35-.35Z" fill="#eb9773"/><path d="M43,54a.39.39,0,0,0-.25.1.35.35,0,0,0,.5.5.35.35,0,0,0,0-.49A.36.36,0,0,0,43,54Z" fill="#eb9773"/><path d="M50.25,53.78a.39.39,0,0,0-.25.1.37.37,0,0,0,0,.5.36.36,0,0,0,.6-.25.34.34,0,0,0-.33-.35Z" fill="#eb9773"/><path d="M59.25,54.53a.34.34,0,0,0-.35.33v0a.33.33,0,0,0,.11.25.38.38,0,0,0,.49,0,.39.39,0,0,0,.1-.25.34.34,0,0,0-.33-.35Z" fill="#eb9773"/><path d="M58,57.78a.39.39,0,0,0-.25.1.37.37,0,0,0,0,.5.36.36,0,0,0,.6-.25.34.34,0,0,0-.33-.35Z" fill="#eb9773"/><path d="M61.25,60.78a.34.34,0,0,0-.35.33v0a.33.33,0,0,0,.11.25.36.36,0,0,0,.49,0,.31.31,0,0,0,.1-.24.34.34,0,0,0-.33-.35h0Z" fill="#eb9773"/><path d="M58.5,64.28a.39.39,0,0,0-.25.1.35.35,0,0,0-.1.25.31.31,0,0,0,.1.24.35.35,0,0,0,.49,0,.36.36,0,0,0,.11-.25.34.34,0,0,0-.33-.35Z" fill="#eb9773"/><path d="M59.75,67a.33.33,0,0,0-.25.11.35.35,0,0,0-.1.24.33.33,0,0,0,.11.25.38.38,0,0,0,.49,0,.39.39,0,0,0,.1-.25.34.34,0,0,0-.33-.35Z" fill="#eb9773"/><path d="M67.25,65.78a.35.35,0,0,0-.25.6.37.37,0,0,0,.5,0,.35.35,0,0,0,0-.49A.36.36,0,0,0,67.25,65.78Z" fill="#eb9773"/><path d="M70.5,63.28a.35.35,0,0,0-.25.6.38.38,0,0,0,.49,0,.36.36,0,0,0,.11-.25.34.34,0,0,0-.33-.35Z" fill="#eb9773"/><path d="M65.5,62a.34.34,0,0,0-.35.33v0a.39.39,0,0,0,.1.25.37.37,0,0,0,.5,0,.35.35,0,0,0,0-.49A.36.36,0,0,0,65.5,62Z" fill="#eb9773"/><path d="M60,48a.35.35,0,0,0-.25.6.37.37,0,0,0,.5,0,.35.35,0,0,0,0-.49A.36.36,0,0,0,60,48Z" fill="#eb9773"/><path d="M55.25,48a.35.35,0,0,0-.25.6.37.37,0,0,0,.5,0,.35.35,0,0,0,0-.49A.36.36,0,0,0,55.25,48Z" fill="#eb9773"/><path d="M55.25,53a.33.33,0,0,0-.25.11.35.35,0,0,0-.1.24.33.33,0,0,0,.11.25.38.38,0,0,0,.49,0,.39.39,0,0,0,.1-.25.34.34,0,0,0-.33-.35Z" fill="#eb9773"/><path d="M64.75,46a.34.34,0,0,0-.35.33v0a.33.33,0,0,0,.11.25.38.38,0,0,0,.49,0,.39.39,0,0,0,.1-.25.34.34,0,0,0-.33-.35Z" fill="#eb9773"/><path d="M57.5,41a.33.33,0,0,0-.25.11.35.35,0,0,0-.1.24.33.33,0,0,0,.11.25.38.38,0,0,0,.49,0,.39.39,0,0,0,.1-.25.34.34,0,0,0-.33-.35Z" fill="#eb9773"/><path d="M52.5,39a.36.36,0,0,0-.25.11.35.35,0,0,0-.1.24.33.33,0,0,0,.11.25.38.38,0,0,0,.49,0,.39.39,0,0,0,.1-.25.34.34,0,0,0-.33-.35Z" fill="#eb9773"/><path d="M47.25,38a.36.36,0,0,0-.25.11.35.35,0,0,0-.1.24.33.33,0,0,0,.11.25.38.38,0,0,0,.49,0,.39.39,0,0,0,.1-.25.34.34,0,0,0-.33-.35Z" fill="#eb9773"/><path d="M44,32.53a.36.36,0,0,0-.25.11.35.35,0,0,0-.1.24.39.39,0,0,0,.1.25.37.37,0,0,0,.5,0,.39.39,0,0,0,.1-.25.33.33,0,0,0-.11-.25A.35.35,0,0,0,44,32.53Z" fill="#eb9773"/><path d="M33.75,30.28a.35.35,0,0,0-.25.6.37.37,0,0,0,.5,0,.35.35,0,0,0,0-.49A.36.36,0,0,0,33.75,30.28Z" fill="#eb9773"/><path d="M40.5,23.78a.35.35,0,0,0-.25.6.36.36,0,0,0,.49,0,.33.33,0,0,0,.11-.25.34.34,0,0,0-.33-.35Z" fill="#eb9773"/><path d="M45.5,19.53a.34.34,0,0,0-.35.33v0a.33.33,0,0,0,.11.25.35.35,0,0,0,.49,0,.37.37,0,0,0,.1-.24.34.34,0,0,0-.33-.35Z" fill="#eb9773"/><path d="M46.25,15a.35.35,0,0,0-.25.6.36.36,0,0,0,.6-.25.34.34,0,0,0-.33-.35Z" fill="#eb9773"/><path d="M41.75,12.28a.35.35,0,0,0-.24.1.36.36,0,0,0-.11.25.39.39,0,0,0,.1.25.37.37,0,0,0,.5,0,.35.35,0,0,0,0-.49A.36.36,0,0,0,41.75,12.28Z" fill="#eb9773"/><path d="M39.75,9a.35.35,0,0,0-.25.6.35.35,0,0,0,.5-.5A.39.39,0,0,0,39.75,9Z" fill="#eb9773"/><path d="M35.75,9a.34.34,0,0,0-.35.33v0a.33.33,0,0,0,.11.25.35.35,0,0,0,.49,0,.37.37,0,0,0,.1-.24A.34.34,0,0,0,35.77,9Z" fill="#eb9773"/><path d="M36.25,19a.39.39,0,0,0-.25.1.35.35,0,0,0-.1.25.39.39,0,0,0,.1.25.37.37,0,0,0,.5,0,.31.31,0,0,0,.1-.24.34.34,0,0,0-.33-.35h0Z" fill="#eb9773"/><path d="M29.75,8.28a.35.35,0,0,0-.24.1.36.36,0,0,0-.11.25.33.33,0,0,0,.11.25.38.38,0,0,0,.49,0,.39.39,0,0,0,.1-.25.34.34,0,0,0-.33-.35Z" fill="#eb9773"/><path d="M31.25,3.28a.35.35,0,0,0-.25.6.37.37,0,0,0,.5,0,.35.35,0,0,0,0-.49A.36.36,0,0,0,31.25,3.28Z" fill="#eb9773"/><path d="M36.75.78a.39.39,0,0,0-.25.1.39.39,0,0,0-.1.25.33.33,0,0,0,.11.25.38.38,0,0,0,.49,0,.39.39,0,0,0,.1-.25A.39.39,0,0,0,37,.88.39.39,0,0,0,36.75.78Z" fill="#eb9773"/><path d="M62.75,14.78a.34.34,0,0,0-.35.33v0a.33.33,0,0,0,.11.25.38.38,0,0,0,.49,0,.39.39,0,0,0,.1-.25.34.34,0,0,0-.33-.35Z" fill="#eb9773"/><path d="M59.75,21a.33.33,0,0,0-.25.11.35.35,0,0,0-.1.24.35.35,0,0,0,.35.35.4.4,0,0,0,.24-.1.36.36,0,0,0,.11-.25.34.34,0,0,0-.35-.35Z" fill="#eb9773"/><path d="M54.25,21.28a.34.34,0,0,0-.35.35.35.35,0,0,0,.7,0,.35.35,0,0,0-.1-.24A.33.33,0,0,0,54.25,21.28Z" fill="#eb9773"/><path d="M54.5,30a.36.36,0,0,0-.25.11.35.35,0,0,0-.1.24.39.39,0,0,0,.1.25.37.37,0,0,0,.5,0,.39.39,0,0,0,.1-.25.33.33,0,0,0-.11-.25A.35.35,0,0,0,54.5,30Z" fill="#eb9773"/><path d="M62.25,29.53a.35.35,0,0,0-.25.6.37.37,0,0,0,.5,0,.35.35,0,0,0,0-.49A.36.36,0,0,0,62.25,29.53Z" fill="#eb9773"/><path d="M66.75,24.28a.35.35,0,0,0-.24.1.36.36,0,0,0-.11.25.39.39,0,0,0,.1.25.36.36,0,0,0,.49,0,.33.33,0,0,0,.11-.25.34.34,0,0,0-.33-.35Z" fill="#eb9773"/><path d="M69.25,17.53a.35.35,0,0,0-.24.1.36.36,0,0,0-.11.25.39.39,0,0,0,.1.25.36.36,0,0,0,.6-.25.34.34,0,0,0-.33-.35Z" fill="#eb9773"/><path d="M63.25,10a.35.35,0,0,0-.24.1.36.36,0,0,0-.11.25.39.39,0,0,0,.1.25.36.36,0,0,0,.49,0,.33.33,0,0,0,.11-.25.34.34,0,0,0-.33-.35Z" fill="#eb9773"/><path d="M70,10.78a.34.34,0,0,0-.35.33v0a.33.33,0,0,0,.11.25.38.38,0,0,0,.49,0,.39.39,0,0,0,.1-.25.34.34,0,0,0-.33-.35Z" fill="#eb9773"/><path d="M64.5,6.28a.35.35,0,0,0-.25.6.37.37,0,0,0,.5,0,.35.35,0,0,0,.1-.24.34.34,0,0,0-.33-.35h0Z" fill="#eb9773"/><path d="M65.5,3.53a.35.35,0,0,0-.25.6.37.37,0,0,0,.5,0,.35.35,0,0,0,0-.49A.36.36,0,0,0,65.5,3.53Z" fill="#eb9773"/><path d="M62.25,1.53a.34.34,0,0,0-.35.33v0a.33.33,0,0,0,.11.25.36.36,0,0,0,.49,0,.31.31,0,0,0,.1-.24.34.34,0,0,0-.33-.35h0Z" fill="#eb9773"/><path d="M52.5,2a.39.39,0,0,0-.25.1.37.37,0,0,0,0,.5.36.36,0,0,0,.6-.25.39.39,0,0,0-.1-.25A.39.39,0,0,0,52.5,2Z" fill="#eb9773"/><path d="M44.5,5.28a.33.33,0,0,0-.25.11.35.35,0,0,0-.1.24.33.33,0,0,0,.11.25.38.38,0,0,0,.49,0,.39.39,0,0,0,.1-.25.34.34,0,0,0-.33-.35Z" fill="#eb9773"/><path d="M28.25.53a.39.39,0,0,0-.25.1.39.39,0,0,0-.1.25.33.33,0,0,0,.11.25.35.35,0,0,0,.49,0,.37.37,0,0,0,.1-.24.33.33,0,0,0-.11-.25A.35.35,0,0,0,28.25.53Z" fill="#eb9773"/><path d="M2.75,42.28a.39.39,0,0,0-.25.1.35.35,0,0,0,.5.5.37.37,0,0,0,0-.5A.39.39,0,0,0,2.75,42.28Z" fill="#eb9773"/><path d="M13,66.78a.36.36,0,0,0-.25.11.31.31,0,0,0-.1.24.39.39,0,0,0,.1.25.36.36,0,0,0,.6-.25.33.33,0,0,0-.11-.25A.35.35,0,0,0,13,66.78Z" fill="#eb9773"/><path d="M70,37.28a.34.34,0,0,0-.35.33v0a.33.33,0,0,0,.11.25.38.38,0,0,0,.49,0,.39.39,0,0,0,.1-.25.34.34,0,0,0-.33-.35Z" fill="#eb9773"/><path d="M71,30.53a.35.35,0,0,0-.25.6.37.37,0,0,0,.5,0,.35.35,0,0,0,0-.49A.36.36,0,0,0,71,30.53Z" fill="#eb9773"/><path d="M.75,20a.39.39,0,0,0-.25.1.39.39,0,0,0-.1.25.33.33,0,0,0,.11.25.38.38,0,0,0,.49,0,.36.36,0,0,0,0-.5A.39.39,0,0,0,.75,20Z" fill="#eb9773"/><path d="M71.75,48.28a.35.35,0,0,0-.25.6.37.37,0,0,0,.5,0,.35.35,0,0,0,0-.49A.36.36,0,0,0,71.75,48.28Z" fill="#eb9773"/><path d="M68.75,45.28a.35.35,0,0,0-.25.6.37.37,0,0,0,.5,0,.39.39,0,0,0,.1-.25.35.35,0,0,0-.1-.25A.39.39,0,0,0,68.75,45.28Z" fill="#eb9773"/><path d="M68.25,11.53a.34.34,0,0,0-.35.33v0a.39.39,0,0,0,.1.25.37.37,0,0,0,.5,0,.35.35,0,0,0,0-.49A.36.36,0,0,0,68.25,11.53Z" fill="#eb9773"/><path d="M71.25,3.53a.35.35,0,0,0-.25.6.37.37,0,0,0,.5,0,.39.39,0,0,0,.1-.25.35.35,0,0,0-.1-.25A.39.39,0,0,0,71.25,3.53Z" fill="#eb9773"/><path d="M.25,14a.39.39,0,0,0-.25.1.37.37,0,0,0,0,.5.37.37,0,0,0,.5,0,.37.37,0,0,0,0-.5A.39.39,0,0,0,.25,14Z" fill="#eb9773"/><path d="M2.5.53a.39.39,0,0,0-.25.1.37.37,0,0,0,0,.5.36.36,0,0,0,.6-.25.39.39,0,0,0-.1-.25A.39.39,0,0,0,2.5.53Z" fill="#eb9773"/><path d="M70,47.78a.34.34,0,0,0-.35.33v0a.33.33,0,0,0,.11.25.38.38,0,0,0,.49,0,.39.39,0,0,0,.1-.25.34.34,0,0,0-.33-.35Z" fill="#eb9773"/><path d="M1,55a.39.39,0,0,0-.25.1.37.37,0,0,0,0,.5.37.37,0,0,0,.5,0,.37.37,0,0,0,0-.5A.39.39,0,0,0,1,55Z" fill="#eb9773"/><path d="M17.75,58.73a.65.65,0,0,0-.65.65.66.66,0,0,0,.19.46.68.68,0,0,0,.92,0,.65.65,0,0,0-.46-1.11Z" fill="#eb9773"/><path d="M29,60.73a.65.65,0,0,0-.46,1.11.68.68,0,0,0,.92,0,.66.66,0,0,0,.19-.46A.65.65,0,0,0,29,60.73Z" fill="#eb9773"/><path d="M29,68.23a.65.65,0,0,0-.65.65.66.66,0,0,0,.19.46.68.68,0,0,0,.92,0,.66.66,0,0,0,0-.92h0A.66.66,0,0,0,29,68.23Z" fill="#eb9773"/><path d="M40,61.23a.65.65,0,0,0-.65.65h0a.66.66,0,0,0,.19.46.68.68,0,0,0,.92,0A.65.65,0,0,0,40,61.23Z" fill="#eb9773"/><path d="M44.75,59.73a.63.63,0,0,0-.46.2.64.64,0,0,0-.19.45.66.66,0,0,0,.19.46.68.68,0,0,0,.92,0,.66.66,0,0,0,.19-.46.63.63,0,0,0-.2-.46A.64.64,0,0,0,44.75,59.73Z" fill="#eb9773"/><path d="M47,48.73a.65.65,0,0,0-.65.65.66.66,0,0,0,.19.46.68.68,0,0,0,.92,0A.65.65,0,0,0,47,48.73Z" fill="#eb9773"/><path d="M54.5,64.73a.65.65,0,0,0-.5,1.11h0a.68.68,0,0,0,.92,0,.65.65,0,0,0-.42-1.11Z" fill="#eb9773"/><path d="M63.75,65a.65.65,0,0,0-.65.65.66.66,0,0,0,.19.46.68.68,0,0,0,.92,0A.65.65,0,0,0,63.75,65Z" fill="#eb9773"/><path d="M64.75,69a.65.65,0,0,0-.46,1.11.68.68,0,0,0,.92,0,.66.66,0,0,0,.19-.46.63.63,0,0,0-.18-.45A.63.63,0,0,0,64.75,69Z" fill="#eb9773"/><path d="M69.25,53.48a.65.65,0,0,0-.65.65.66.66,0,0,0,.19.46.68.68,0,0,0,.92,0,.65.65,0,0,0-.46-1.11Z" fill="#eb9773"/><path d="M7.75,24.48a.65.65,0,0,0-.46,1.11.68.68,0,0,0,.92,0,.65.65,0,0,0-.46-1.11Z" fill="#eb9773"/><path d="M4.75,14.73a.65.65,0,0,0-.46,1.11h0a.68.68,0,0,0,.92,0,.66.66,0,0,0,0-.92h0A.66.66,0,0,0,4.75,14.73Z" fill="#eb9773"/><path d="M2,4.48a.65.65,0,0,0-.46,1.11.68.68,0,0,0,.92,0A.65.65,0,0,0,2,4.48Z" fill="#eb9773"/><path d="M17.5,1.73A.65.65,0,0,0,17,2.84a.68.68,0,0,0,.92,0,.65.65,0,0,0-.46-1.11Z" fill="#eb9773"/><path d="M19,9.23a.65.65,0,0,0-.65.65h0a.66.66,0,0,0,.19.46.68.68,0,0,0,.92,0A.65.65,0,0,0,19,9.23Z" fill="#eb9773"/><path d="M20.75,26.23a.65.65,0,0,0-.65.65h0a.66.66,0,0,0,.19.46.68.68,0,0,0,.92,0,.65.65,0,0,0-.46-1.11Z" fill="#eb9773"/><path d="M28.25,20.48a.65.65,0,0,0-.65.65.66.66,0,0,0,.19.46.68.68,0,0,0,.92,0,.65.65,0,0,0-.46-1.11Z" fill="#eb9773"/><path d="M33.75,11.23a.65.65,0,0,0-.65.65h0a.66.66,0,0,0,.19.46.68.68,0,0,0,.92,0,.65.65,0,0,0-.46-1.11Z" fill="#eb9773"/><path d="M34,4.73a.65.65,0,0,0-.46,1.11h0a.68.68,0,0,0,.92,0,.66.66,0,0,0,0-.92h0A.66.66,0,0,0,34,4.73Z" fill="#eb9773"/><path d="M41.5,16.48a.65.65,0,0,0-.69.61.67.67,0,0,0,.19.5.68.68,0,0,0,.92,0,.65.65,0,0,0-.46-1.11Z" fill="#eb9773"/><path d="M52,11.73a.65.65,0,0,0-.65.65.66.66,0,0,0,.19.46.68.68,0,0,0,.92,0A.65.65,0,0,0,52,11.73Z" fill="#eb9773"/><path d="M54.75,6.23a.65.65,0,0,0-.46,1.11.68.68,0,0,0,.92,0,.65.65,0,0,0-.46-1.11Z" fill="#eb9773"/><path d="M25,47a.65.65,0,0,0-.46,1.11.68.68,0,0,0,.92,0A.65.65,0,0,0,25,47Z" fill="#eb9773"/><path d="M35,48.23a.65.65,0,0,0-.46,1.11h0a.68.68,0,0,0,.92,0A.65.65,0,0,0,35,48.23Z" fill="#eb9773"/><path d="M44.75,42a.65.65,0,0,0-.65.65.66.66,0,0,0,.19.46.68.68,0,0,0,.92,0,.66.66,0,0,0,.19-.46.63.63,0,0,0-.2-.46A.64.64,0,0,0,44.75,42Z" fill="#eb9773"/><path d="M51.75,28.48a.65.65,0,0,0-.65.65.66.66,0,0,0,.19.46.68.68,0,0,0,.92,0,.66.66,0,0,0,.19-.46.65.65,0,0,0-.65-.65Z" fill="#eb9773"/><path d="M66.75,19.73a.65.65,0,0,0-.65.65h0a.63.63,0,0,0,.2.46.69.69,0,0,0,.91,0,.65.65,0,0,0-.46-1.11Z" fill="#eb9773"/><path d="M47,23.73a.65.65,0,0,0-.65.65.66.66,0,0,0,.19.46.68.68,0,0,0,.92,0A.65.65,0,0,0,47,23.73Z" fill="#eb9773"/><path d="M36.75,27a.65.65,0,0,0-.46,1.11.68.68,0,0,0,.92,0A.65.65,0,0,0,36.75,27Z" fill="#eb9773"/><path d="M16.75,43a.65.65,0,0,0-.65.65.66.66,0,0,0,.19.46.68.68,0,0,0,.92,0,.66.66,0,0,0,0-.92h0A.66.66,0,0,0,16.75,43Z" fill="#eb9773"/><path d="M11,34.73a.65.65,0,0,0-.65.65h0a.66.66,0,0,0,.19.46.68.68,0,0,0,.92,0A.65.65,0,0,0,11,34.73Z" fill="#eb9773"/><path d="M67.25,40.73a.65.65,0,0,0-.46,1.11.68.68,0,0,0,.92,0,.66.66,0,0,0,.19-.46.65.65,0,0,0-.65-.65Z" fill="#eb9773"/><path d="M7,55.73a.63.63,0,0,0-.46.2.64.64,0,0,0-.19.45.66.66,0,0,0,.19.46.68.68,0,0,0,.92,0,.66.66,0,0,0,0-.92h0A.66.66,0,0,0,7,55.73Z" fill="#eb9773"/><path d="M8.25,66.23a.65.65,0,0,0-.46,1.11.68.68,0,0,0,.92,0,.66.66,0,0,0,.19-.46A.65.65,0,0,0,8.25,66.23Z" fill="#eb9773"/><path d="M3.25,69a.65.65,0,0,0-.46,1.11.68.68,0,0,0,.92,0A.65.65,0,0,0,3.25,69Z" fill="#eb9773"/><path d="M66.25,34.23a.65.65,0,0,0-.65.65.66.66,0,0,0,.19.46.68.68,0,0,0,.92,0,.65.65,0,0,0-.46-1.11Z" fill="#eb9773"/><path d="M43.75,8.48a.65.65,0,0,0-.46,1.11.68.68,0,0,0,.92,0,.65.65,0,0,0-.46-1.11Z" fill="#eb9773"/><path d="M25.5,1.48A.65.65,0,0,0,25,2.59a.68.68,0,0,0,.92,0,.65.65,0,0,0-.46-1.11Z" fill="#eb9773"/><path d="M21.75,29.73a.65.65,0,0,0-.46,1.11h0a.68.68,0,0,0,.92,0,.65.65,0,0,0-.46-1.11Z" fill="#eb9773"/><path d="M23.75,42.48a.65.65,0,0,0-.46,1.11.68.68,0,0,0,.92,0,.66.66,0,0,0,.19-.46A.65.65,0,0,0,23.75,42.48Z" fill="#eb9773"/><path d="M41.25,37a.65.65,0,0,0-.65.65.66.66,0,0,0,.19.46.68.68,0,0,0,.92,0A.65.65,0,0,0,41.25,37Z" fill="#eb9773"/><path d="M67.25,27.73a.65.65,0,0,0-.46,1.11.68.68,0,0,0,.92,0,.66.66,0,0,0,.19-.46.65.65,0,0,0-.65-.65Z" fill="#eb9773"/><path d="M53,56.48a.65.65,0,0,0-.65.65.66.66,0,0,0,.19.46.68.68,0,0,0,.92,0A.65.65,0,0,0,53,56.48Z" fill="#eb9773"/><path d="M33.75,55.48a.65.65,0,0,0-.46,1.11.68.68,0,0,0,.92,0,.66.66,0,0,0,.19-.46.65.65,0,0,0-.65-.65Z" fill="#eb9773"/><path d="M12.5,52.23a.65.65,0,0,0-.69.61.67.67,0,0,0,.19.5.68.68,0,0,0,.92,0,.65.65,0,0,0-.46-1.11Z" fill="#eb9773"/><path d="M49.25,67a.65.65,0,0,0-.65.65.66.66,0,0,0,.19.46.68.68,0,0,0,.92,0A.65.65,0,0,0,49.25,67Z" fill="#eb9773"/><path d="M58.75,50.73a.65.65,0,0,0-.65.65.66.66,0,0,0,.19.46.68.68,0,0,0,.92,0,.66.66,0,0,0,.19-.46.65.65,0,0,0-.65-.65Z" fill="#eb9773"/><path d="M67.25,14.23a.65.65,0,0,0-.46,1.11.68.68,0,0,0,.92,0,.66.66,0,0,0,.19-.46.65.65,0,0,0-.65-.65Z" fill="#eb9773"/><path d="M5,1.73a.65.65,0,0,0-.46,1.11h0a.68.68,0,0,0,.92,0,.66.66,0,0,0,0-.92h0A.66.66,0,0,0,5,1.73Z" fill="#eb9773"/><path d="M2.5,58.23a.63.63,0,0,0-.46.2.69.69,0,0,0,0,.91.68.68,0,0,0,.92,0,.66.66,0,0,0,0-.92h0A.65.65,0,0,0,2.5,58.23Z" fill="#eb9773"/><path d="M16.25,68.23a.65.65,0,0,0-.65.65.66.66,0,0,0,.19.46.68.68,0,0,0,.92,0,.65.65,0,0,0-.46-1.11Z" fill="#eb9773"/><path d="M40.25,67a.65.65,0,0,0-.65.65.66.66,0,0,0,.19.46.68.68,0,0,0,.92,0,.66.66,0,0,0,.19-.46.65.65,0,0,0-.65-.65Z" fill="#eb9773"/><path d="M2.5,39.48A.65.65,0,0,0,2,40.59H2a.68.68,0,0,0,.92,0,.65.65,0,0,0-.46-1.11Z" fill="#eb9773"/><path d="M7.25,46.48a.65.65,0,0,0-.46,1.11h0a.68.68,0,0,0,.92,0,.65.65,0,0,0-.46-1.11Z" fill="#eb9773"/><path d="M3.75,24.73a.65.65,0,0,0-.46,1.11.68.68,0,0,0,.92,0,.65.65,0,0,0-.46-1.11Z" fill="#eb9773"/><path d="M10.75,21a.65.65,0,0,0-.46,1.11.68.68,0,0,0,.92,0A.65.65,0,0,0,10.75,21Z" fill="#eb9773"/><path d="M9.75,11.73a.65.65,0,0,0-.46,1.11h0a.68.68,0,0,0,.92,0,.66.66,0,0,0,0-.92h0A.66.66,0,0,0,9.75,11.73Z" fill="#eb9773"/><path d="M13.25,5.73a.65.65,0,0,0-.46,1.11.68.68,0,0,0,.92,0,.65.65,0,0,0-.46-1.11Z" fill="#eb9773"/><path d="M21.75,18.23a.65.65,0,0,0-.65.65.61.61,0,0,0,.2.46.65.65,0,0,0,.92,0,.65.65,0,0,0-.47-1.09Z" fill="#eb9773"/><path d="M31,34a.65.65,0,0,0-.46,1.11.68.68,0,0,0,.92,0A.65.65,0,0,0,31,34Z" fill="#eb9773"/><path d="M25.75,37.48a.65.65,0,0,0-.65.65.66.66,0,0,0,.19.46.68.68,0,0,0,.92,0,.65.65,0,0,0-.46-1.11Z" fill="#eb9773"/><path d="M37,43a.65.65,0,0,0-.46,1.11.68.68,0,0,0,.92,0A.65.65,0,0,0,37,43Z" fill="#eb9773"/><path d="M61.5,55A.65.65,0,0,0,61,56.11a.68.68,0,0,0,.92,0,.66.66,0,0,0,.19-.46A.65.65,0,0,0,61.5,55Z" fill="#eb9773"/><path d="M61,44.48a.65.65,0,0,0-.46,1.11.68.68,0,0,0,.92,0,.66.66,0,0,0,0-.92h0A.66.66,0,0,0,61,44.48Z" fill="#eb9773"/><path d="M58.5,14.48A.65.65,0,0,0,58,15.59a.68.68,0,0,0,.92,0,.65.65,0,0,0-.46-1.11Z" fill="#eb9773"/><path d="M59,27.23a.65.65,0,0,0-.46,1.11h0a.68.68,0,0,0,.92,0,.66.66,0,0,0,0-.92h0A.66.66,0,0,0,59,27.23Z" fill="#eb9773"/><path d="M55.5,36A.65.65,0,0,0,55,37.11a.68.68,0,0,0,.92,0A.65.65,0,0,0,55.5,36Z" fill="#eb9773"/><path d="M69,1a.65.65,0,0,0-.46,1.11h0a.7.7,0,0,0,.92,0A.65.65,0,0,0,69,1Z" fill="#eb9773"/><path d="M60.5,5.73a.65.65,0,0,0-.69.61.67.67,0,0,0,.19.5.68.68,0,0,0,.92,0,.66.66,0,0,0,.19-.46.65.65,0,0,0-.65-.65h0Z" fill="#eb9773"/><path d="M44.25.23a.65.65,0,0,0-.65.65.66.66,0,0,0,.19.46.68.68,0,0,0,.92,0,.66.66,0,0,0,0-.92A.66.66,0,0,0,44.25.23Z" fill="#eb9773"/><path d="M24.25,70.48a.65.65,0,0,0-.65.65.66.66,0,0,0,.19.46.68.68,0,0,0,.92,0,.65.65,0,0,0-.46-1.11Z" fill="#eb9773"/><path d="M-.25,48.28a.39.39,0,0,0-.25.1.39.39,0,0,0-.1.25.39.39,0,0,0,.1.25.37.37,0,0,0,.5,0,.39.39,0,0,0,.1-.25.39.39,0,0,0-.1-.25A.39.39,0,0,0-.25,48.28Z" fill="#eb9773"/></pattern></defs><g id="coffee"><rect x="0.14" y="445.9" width="539.97" height="1.06"/></g><g id="cheerClock"><polygon points="115.43 71.45 133.88 97.26 160.75 78.55 143.03 51.43 115.43 71.45" fill="#ffde00" stroke="#232323" stroke-miterlimit="10" stroke-width="1.29"/><path d="M169.72,121.24l-.31-.43L150.66,94.58l28.47-20.66,18.3,28Zm-17.6-26.42,17.85,25,26-18.12L178.85,75.43Z" transform="translate(-35.96 -23.24)" stroke="#232323" stroke-miterlimit="10" stroke-width="1.29"/><polygon points="417.28 73.55 398.99 99.46 372 80.9 389.55 53.68 417.28 73.55" fill="#ffde00" stroke="#232323" stroke-miterlimit="10" stroke-width="1.29"/><path d="M435.08,123.44l-27.84-19.15,18.13-28.12L454,96.67ZM408.68,104l26.14,18L452.5,96.92,425.65,77.68Z" transform="translate(-35.96 -23.24)" stroke="#232323" stroke-miterlimit="10" stroke-width="1.29"/><polygon points="261.59 19.55 262.01 47.59 283.37 47.71 282.76 19.04 261.59 19.55" fill="#ffde00" stroke="#232323" stroke-miterlimit="10" stroke-width="1.29"/><path d="M319.86,71.49l-22.41-.13L297,42.28l22.23-.54Zm-21.37-1.18,20.3.12-.58-27.61-20.13.49Z" transform="translate(-35.96 -23.24)" stroke="#232323" stroke-miterlimit="10" stroke-width="1.29"/><path d="M176.33,30.83c-15.46-2.15-64.61,5.27-71.41,58.37-2.39,18.7,4.41,36.44,16,49.54A217.19,217.19,0,0,1,227.15,64.47C217.16,46.23,198.53,33.92,176.33,30.83Z" transform="translate(-35.96 -23.24)" fill="#ffe757" stroke="#333" stroke-miterlimit="10" stroke-width="1.88"/><path d="M121,139.57l-.43-.48C108,125,102.14,106.75,104.4,89.14c2.47-19.33,10.69-34.44,24.42-44.93,16.68-12.74,37.59-15.3,47.59-13.9,22.45,3.12,41.11,15.48,51.2,33.91l.31.56-.61.19a215.44,215.44,0,0,0-106,74.09ZM170.92,31c-10.81,0-27.6,3.45-41.46,14-13.5,10.31-21.58,25.19-24,44.22-2.2,17.11,3.43,34.8,15.44,48.64A216.45,216.45,0,0,1,226.37,64.16c-10-17.82-28.22-29.76-50.11-32.81A39.76,39.76,0,0,0,170.92,31Z" transform="translate(-35.96 -23.24)" fill="#ffe757" stroke="#333" stroke-miterlimit="10" stroke-width="1.88"/><path d="M136.84,34.64A5.35,5.35,0,1,1,130.23,31,5.33,5.33,0,0,1,136.84,34.64Z" transform="translate(-35.96 -23.24)" fill="#ffde00" stroke="#232323" stroke-miterlimit="10" stroke-width="1.29"/><path d="M131.7,42A5.89,5.89,0,0,1,126,37.7a5.87,5.87,0,0,1,4-7.25,5.9,5.9,0,0,1,7.27,4,5.87,5.87,0,0,1-4,7.25A5.89,5.89,0,0,1,131.7,42Zm0-10.69a5,5,0,0,0-1.32.18,4.83,4.83,0,0,0-2.89,2.29,4.72,4.72,0,0,0-.42,3.66,4.82,4.82,0,1,0,9.27-2.63h0A4.82,4.82,0,0,0,131.69,31.28Z" transform="translate(-35.96 -23.24)" stroke="#232323" stroke-miterlimit="10" stroke-width="1.29"/><path d="M427.48,30.3c15.45-2.23,64.63,4.94,71.75,58,2.5,18.68-4.2,36.46-15.71,49.61A217.42,217.42,0,0,0,376.86,64.2C386.74,45.9,405.3,33.5,427.48,30.3Z" transform="translate(-35.96 -23.24)" fill="#ffe757" stroke="#333" stroke-miterlimit="10" stroke-width="1.88"/><path d="M483.5,138.75l-.4-.5A215.58,215.58,0,0,0,376.7,64.7l-.61-.19.31-.56c10-18.48,28.57-30.93,51-34.18,10-1.43,30.91,1,47.66,13.67,13.8,10.41,22.1,25.49,24.69,44.8,2.36,17.6-3.41,35.84-15.83,50ZM377.63,63.89a216.66,216.66,0,0,1,105.91,73.2C495.47,123.2,501,105.48,498.7,88.38c-2.54-19-10.71-33.86-24.27-44.1-16.5-12.46-37.07-14.88-46.88-13.46l-.07-.52.07.52C405.68,34,387.53,46,377.63,63.89Z" transform="translate(-35.96 -23.24)" stroke="#232323" stroke-miterlimit="10" stroke-width="1.29"/><path d="M467,33.9a5.35,5.35,0,1,0,6.59-3.71A5.35,5.35,0,0,0,467,33.9Z" transform="translate(-35.96 -23.24)" fill="#ffde00" stroke="#232323" stroke-miterlimit="10" stroke-width="1.29"/><path d="M472.15,41.21a5.74,5.74,0,0,1-1.58-.22,5.87,5.87,0,1,1,6.69-8.54,5.8,5.8,0,0,1,.55,4.46A5.89,5.89,0,0,1,472.15,41.21Zm0-10.69A4.83,4.83,0,0,0,467.5,34h0a4.81,4.81,0,1,0,4.64-3.52ZM467,33.9h0Z" transform="translate(-35.96 -23.24)" stroke="#232323" stroke-miterlimit="10" stroke-width="1.29"/><path d="M270.6,48.68l75.5-.38-1.21-2.22c-16.38-30-60.08-28.52-74.29,2.6Z" transform="translate(-35.96 -23.24)" fill="#ffe757" stroke="#333" stroke-miterlimit="10" stroke-width="1.88"/><path d="M269.78,49.21l.34-.75a42.11,42.11,0,0,1,75.24-2.64l1.63,3Zm38.65-24.27c-.5,0-1,0-1.49,0a40.24,40.24,0,0,0-35.51,23.18l73.79-.38-.79-1.44A40.81,40.81,0,0,0,308.43,24.94Z" transform="translate(-35.96 -23.24)" stroke="#232323" stroke-miterlimit="10" stroke-width="1.29"/><ellipse cx="301.52" cy="273.99" rx="210.79" ry="207.92" transform="translate(-109.84 92.44) rotate(-19.4)" fill="#5b55a5" stroke="#232323" stroke-miterlimit="10" stroke-width="3.87"/><path d="M299.87,482.76q-10,0-20.12-.95c-56.39-5.31-107-32.13-142.58-75.52A204.57,204.57,0,0,1,91.65,254.22c12-114.59,115.93-198.94,231.65-188.06,56.39,5.31,107,32.13,142.58,75.52A204.58,204.58,0,0,1,511.4,293.75l-.53-.05.53.05C500.09,401.65,407.28,482.76,299.87,482.76Zm3.3-416.49C196.29,66.27,104,147,92.7,254.33A203.57,203.57,0,0,0,138,405.62c35.38,43.17,85.76,69.86,141.87,75.14C395,491.61,498.4,407.66,510.35,293.64a203.57,203.57,0,0,0-45.28-151.29C429.69,99.18,379.31,72.5,323.2,67.21Q313.12,66.27,303.17,66.27Z" transform="translate(-35.96 -23.24)"/><ellipse cx="300.98" cy="273.48" rx="186.94" ry="187.22" transform="translate(-42.65 516.17) rotate(-83.1)" fill="#6f67ce" stroke="#232323" stroke-miterlimit="10" stroke-width="3.87"/><path d="M301.39,461a188.59,188.59,0,0,1-18.95-1c-103-10.24-178.51-102.26-168.28-205.12a187.59,187.59,0,0,1,205.37-168C422.54,97.18,498,189.2,487.81,292.06A187.62,187.62,0,0,1,301.39,461ZM300.57,87A186.57,186.57,0,0,0,115.21,255C105,357.28,180.1,448.79,282.54,459A186.53,186.53,0,0,0,486.76,292c10.16-102.28-64.9-193.79-167.34-204C313.12,87.36,306.82,87,300.57,87Z" transform="translate(-35.96 -23.24)"/><ellipse cx="300.98" cy="273.48" rx="157.54" ry="157.78" transform="translate(-42.54 516.29) rotate(-83.12)" fill="#a29bf9" stroke="#232323" stroke-miterlimit="10" stroke-width="2.58"/><path d="M301.16,431.55c-1.69,0-3.39,0-5.09-.07-87.25-2.74-156-75.84-153.32-163a158.15,158.15,0,0,1,163.14-153c87.25,2.74,156,75.84,153.32,163a158.13,158.13,0,0,1-158,153.11Zm-.36-315.09a157.07,157.07,0,0,0-157,152.09c-2.69,86.54,65.63,159.15,152.29,161.87a157.07,157.07,0,0,0,162-152h0c2.69-86.54-65.63-159.16-152.29-161.87C304.17,116.48,302.48,116.46,300.8,116.46Z" transform="translate(-35.96 -23.24)" stroke="#232323" stroke-miterlimit="10" stroke-width="2.58"/><path d="M306.06,94c-10.1-1.69-12.74,14-2.62,15.68S316.18,95.64,306.06,94Z" transform="translate(-35.96 -23.24)" fill="#fff"/><path d="M304.92,110.28a10.72,10.72,0,0,1-1.57-.13,7.76,7.76,0,0,1-6.29-5,9.48,9.48,0,0,1,1.52-9.07,7.75,7.75,0,0,1,7.56-2.67h0a7.75,7.75,0,0,1,6.29,5,9.48,9.48,0,0,1-1.52,9.07A7.56,7.56,0,0,1,304.92,110.28Zm-.33-15.93a6.54,6.54,0,0,0-5.19,2.42,8.4,8.4,0,0,0-1.35,8,7.25,7.25,0,0,0,12.05,2,8.37,8.37,0,0,0,1.34-8A6.72,6.72,0,0,0,306,94.47h0A8.22,8.22,0,0,0,304.59,94.35Z" transform="translate(-35.96 -23.24)"/><path d="M131.52,266.1c-10.11-1.69-12.74,14-2.63,15.68S141.63,267.79,131.52,266.1Z" transform="translate(-35.96 -23.24)" fill="#fff"/><path d="M130.36,282.43a9.26,9.26,0,0,1-1.55-.13c-5.57-.93-7.38-5.69-6.71-9.71s4.19-7.89,9.5-7c5.57.93,7.38,5.69,6.71,9.71C137.68,279,134.8,282.43,130.36,282.43ZM130,266.5c-4,0-6.35,3.09-6.88,6.26-.59,3.53,1,7.69,5.84,8.5s7.7-2.62,8.29-6.15-1-7.68-5.84-8.49h0A8.76,8.76,0,0,0,130,266.5Z" transform="translate(-35.96 -23.24)"/><path d="M473.41,268.3c-10.1-1.69-12.74,14-2.62,15.67S483.53,270,473.41,268.3Z" transform="translate(-35.96 -23.24)" fill="#fff"/><path d="M472.28,284.63a9.56,9.56,0,0,1-1.58-.14,7.74,7.74,0,0,1-6.28-5,9.45,9.45,0,0,1,1.51-9.07,8.29,8.29,0,0,1,13.85,2.31,9.45,9.45,0,0,1-1.51,9.07A7.57,7.57,0,0,1,472.28,284.63Zm-.34-15.93a6.51,6.51,0,0,0-5.19,2.42,8.39,8.39,0,0,0-1.35,8,7.26,7.26,0,0,0,12.05,2,8.4,8.4,0,0,0,1.35-8,6.73,6.73,0,0,0-5.48-4.31h0A8.22,8.22,0,0,0,471.94,268.7Z" transform="translate(-35.96 -23.24)"/><path d="M304,437.12c-10.1-1.68-12.74,14-2.62,15.68S314.14,438.81,304,437.12Z" transform="translate(-35.96 -23.24)" fill="#fff"/><path d="M302.88,453.45a9.5,9.5,0,0,1-1.57-.13,7.76,7.76,0,0,1-6.29-5,9.48,9.48,0,0,1,1.52-9.07,7.76,7.76,0,0,1,7.56-2.67h0a7.75,7.75,0,0,1,6.29,5,9.48,9.48,0,0,1-1.52,9.07A7.53,7.53,0,0,1,302.88,453.45Zm-.33-15.92a6.53,6.53,0,0,0-5.19,2.41,8.4,8.4,0,0,0-1.35,8,7.24,7.24,0,0,0,12.05,2,8.37,8.37,0,0,0,1.34-8,6.74,6.74,0,0,0-5.47-4.31A8.19,8.19,0,0,0,302.55,437.53Z" transform="translate(-35.96 -23.24)"/><g id="cheerCoffee"><path d="M115.45,497a4.82,4.82,0,0,0,.61-9.3c-25.78-8.68-41.5-18.51-50.94-31.91-4.71-6.69-5.36-12.5-1.77-16a9.94,9.94,0,0,1,12.52-.54l20.75,15.81a4.82,4.82,0,0,0,5.84-7.67h0L81.72,431.64a19.66,19.66,0,0,0-25.07,1.27c-5.6,5.4-8.39,15.72.59,28.45,13.73,19.46,37,29.2,55.76,35.5A4.74,4.74,0,0,0,115.45,497Z" transform="translate(-35.96 -23.24)" fill="#eeece8" stroke="#61271c" stroke-linecap="round" stroke-linejoin="round" stroke-width="1.2"/><path d="M89.21,443s-12.75-13.13-21.88-11.31-18,12.09-9,23.81,26.59,20.15,26.59,20.15S62,460.1,60,448.52c-1.69-9.74,4.59-12.75,11.18-12.28s21.11,15,21.11,15Z" transform="translate(-35.96 -23.24)" opacity="0.75" fill="url(#USGS_22_Gravel_Beach_3)" style="isolation:isolate"/><path d="M104.29,484.29s-6.91,0-17.59-3.87c-5.28-1.9-19.32-9.44-19.32-9.44S80,482.39,106.08,493.3Z" transform="translate(-35.96 -23.24)" opacity="0.75" fill="url(#USGS_22_Gravel_Beach_3)" style="isolation:isolate"/><ellipse cx="145.28" cy="505.44" rx="24.23" ry="11.16" transform="translate(-131.33 14.58) rotate(-11.2)" fill="#eeece8" stroke="#61271c" stroke-linecap="round" stroke-linejoin="round" stroke-width="1.2"/><path d="M146.8,513.12c12.52-2.48,19.61-8.61,19-11.74s-9.51-6.1-22-3.62-19.6,8.61-19,11.74S134.29,515.6,146.8,513.12Z" transform="translate(-35.96 -23.24)" opacity="0.75" fill="url(#USGS_22_Gravel_Beach_3)" style="isolation:isolate"/><path d="M146,508.86c22.75-4.51,38.63-27.46,35.48-53.64l-6.76-47.64L80.82,426.16l11.92,46.62C99.67,497.76,122.8,513.45,146,508.86Z" transform="translate(-35.96 -23.24)" fill="#eeece8" stroke="#61271c" stroke-linecap="round" stroke-linejoin="round" stroke-width="1.2"/><path d="M80.79,426c.45,2.29,2.64,4.11,6.14,5.41l0,0c8.61,3.2,25.2,3.28,43.58-.36S164.29,421.05,171,414.8c.35-.33.69-.66,1-1,2.05-2.2,3-4.36,2.61-6.35-1.28-6.45-16.28-9.16-35.79-7.18-3.37.34-6.87.83-10.47,1.45l-3.52.64-2.08.43c-12.58,2.69-23.57,6.62-31.16,10.86C84.21,417.8,80,422.23,80.79,426Z" transform="translate(-35.96 -23.24)" fill="#f27548" stroke="#61271c" stroke-miterlimit="10" stroke-width="1.2"/><path d="M86.92,431.45c8.61,3.21,25.21,3.3,43.64-.34S164.29,421.05,171,414.8c-4.84-6-23.35-7.69-44.39-3.53S89.12,424,86.92,431.45Z" transform="translate(-35.96 -23.24)" fill="#f3dfd8" stroke="#61271c" stroke-linecap="round" stroke-linejoin="round" stroke-width="1.2"/><path d="M87,431.47c8.61,3.2,25.2,3.28,43.58-.36S164.29,421.05,171,414.8c.35-.33.69-.66,1-1-5.08-3.64-13.67-7-18.91-8.38-8.47-2.21-10.2-1.17-14.27-5.15-.66-.64-1.38-1.42-2.2-2.37-5.51-6.33-11.22-2.17-8.27,3.82a12.28,12.28,0,0,0,.73,1.27c3.32,4.9-1.17,4.48-6.33-.18a31,31,0,0,1-5.33-6.42C111.05,386.26,104.43,377,100,381c-4.23,3.83,1,10.28,7.81,17.75s-1.41,9.94-4.77,3-15-22.11-21.57-18.32c-7.7,4.43.63,12.49,5.19,16.45,6.53,5.68-1.1,2.28-2.86,5.21-1.53,2.57.94,3.3,6.08,7.07a11.19,11.19,0,0,1,1.7,1.52c1.73,2,1.76,4-2,4.39C86.53,418.37,83.76,425.8,87,431.47Z" transform="translate(-35.96 -23.24)" fill="#61271c" stroke="#61271c" stroke-linecap="round" stroke-linejoin="round" stroke-width="1.2"/><path d="M78.32,412.69c-1.6-4.34-12.09-11.34-12.3-3.4S79.47,415.81,78.32,412.69Z" transform="translate(-35.96 -23.24)" fill="#61271c" stroke="#61271c" stroke-linecap="round" stroke-linejoin="round" stroke-width="1.2"/><path d="M125.85,383.67c-1.44-5.1-14.12-7.38-8.42-1S127.08,388,125.85,383.67Z" transform="translate(-35.96 -23.24)" fill="#61271c" stroke="#61271c" stroke-linecap="round" stroke-linejoin="round" stroke-width="1.2"/><path d="M178.22,470.84c1.54-13.39-2.78-33.91-5.43-53.29-10.8,8.18-18.21,10.24-28.17,13.75C140,432.92,168.76,441.09,178.22,470.84Z" transform="translate(-35.96 -23.24)" opacity="0.75" fill="url(#USGS_22_Gravel_Beach_3)" style="isolation:isolate"/><path d="M113.32,436.55s-8.41,38.26,2.74,51.17c18.84,21.82,52.8,3.81,52.8,3.81s-4.52,8-19.05,13-31.76.66-41.34-8.76c-15.74-15.49-14.76-30.13-22.84-62.41C85.63,433.38,94.53,439.2,113.32,436.55Z" transform="translate(-35.96 -23.24)" opacity="0.75" fill="url(#USGS_22_Gravel_Beach_3)" style="isolation:isolate"/><path d="M146.8,420.6c-1-5.1-5.77-7.74-13.53-5s-17.27,1.52-22-4.46" transform="translate(-35.96 -23.24)" fill="none" stroke="#f3dfd8" stroke-linecap="round" stroke-linejoin="round" stroke-width="1.2"/><path d="M109.71,426.07s-4.83-9.34-14.39-6.15" transform="translate(-35.96 -23.24)" fill="none" stroke="#f3dfd8" stroke-linecap="round" stroke-linejoin="round" stroke-width="1.2"/><path d="M148.75,457.67l2,9.95c3.83-4.78,9.88-6.74,15.67-3.32l-1.91-9.74c-1.74-8.79-6.67-15.22-11-14.36S147,448.88,148.75,457.67Z" transform="translate(-35.96 -23.24)" fill="#fff" stroke="#61271c" stroke-miterlimit="10" stroke-width="1.2"/><path d="M150.71,467.62c3.83-4.78,9.87-6.74,15.67-3.32a16.36,16.36,0,0,1,3.2,2.47" transform="translate(-35.96 -23.24)" fill="none" stroke="#61271c" stroke-miterlimit="10" stroke-width="1.2"/><path d="M148.75,457.67l2,9.95c2.83-3.53,6.87-5.52,11.12-4.95a74.66,74.66,0,0,0-2-8.87l-6.73-2.31,4.68-3.53a39.12,39.12,0,0,0-4.26-7.77h-.11C149.11,441.06,147,448.88,148.75,457.67Z" transform="translate(-35.96 -23.24)" fill="#61271c" stroke="#61271c" stroke-miterlimit="10" stroke-width="1.2"/><path d="M117.21,463.91l2,9.95c3.83-4.78,9.87-6.74,15.67-3.32l-1.92-9.74c-1.74-8.78-6.66-15.21-11-14.35S115.47,455.14,117.21,463.91Z" transform="translate(-35.96 -23.24)" fill="#fff" stroke="#61271c" stroke-miterlimit="10" stroke-width="1.2"/><path d="M117.12,477.15a17.75,17.75,0,0,1,2-3.29c3.83-4.78,9.87-6.74,15.67-3.32A16.36,16.36,0,0,1,138,473" transform="translate(-35.96 -23.24)" fill="none" stroke="#61271c" stroke-miterlimit="10" stroke-width="1.2"/><path d="M117.21,463.91l2,9.95c2.83-3.53,6.87-5.52,11.12-4.94a74.82,74.82,0,0,0-2-8.88l-6.73-2.31,4.69-3.51a39.68,39.68,0,0,0-4.27-7.77h-.11C117.58,447.31,115.47,455.14,117.21,463.91Z" transform="translate(-35.96 -23.24)" fill="#61271c" stroke="#61271c" stroke-miterlimit="10" stroke-width="1.2"/><path d="M145.25,474.25A7,7,0,0,0,149,471.6c1.94-2.6,2-5.87.05-7.3s-5.05-.5-7,2.1a6.15,6.15,0,0,0-1.12,5.92" transform="translate(-35.96 -23.24)" fill="none" stroke="#61271c" stroke-miterlimit="10" stroke-width="1.2"/><path d="M158.9,438.51c-1.46-3.63-5.36-5.44-7.33-3.29" transform="translate(-35.96 -23.24)" fill="none" stroke="#61271c" stroke-miterlimit="10" stroke-width="1.2"/><path d="M116.23,447c0-3.92,2.88-7.08,5.52-5.84" transform="translate(-35.96 -23.24)" fill="none" stroke="#61271c" stroke-miterlimit="10" stroke-width="1.2"/><path d="M161.31,480.8c-.53,1.57-12.57,15.73-32.39,6.41" transform="translate(-35.96 -23.24)" fill="none" stroke="#61271c" stroke-linecap="round" stroke-linejoin="round" stroke-width="1.4"/><ellipse cx="162.68" cy="468.91" rx="3.82" ry="2.84" transform="translate(-123.9 17.26) rotate(-11.2)" fill="#e0b89d"/><ellipse cx="124.59" cy="476.44" rx="3.82" ry="2.84" transform="translate(-126.09 10.01) rotate(-11.2)" fill="#e0b89d"/><path d="M158,476.84a5.47,5.47,0,0,0,3.1,3.29,5.35,5.35,0,0,0,5.68-1.45" transform="translate(-35.96 -23.24)" fill="#eeece8" stroke="#61271c" stroke-linecap="round" stroke-linejoin="round" stroke-width="1.2"/><path d="M123.18,486.52a5.44,5.44,0,0,0,4.46.72,5.36,5.36,0,0,0,3.63-4.6" transform="translate(-35.96 -23.24)" fill="#eeece8" stroke="#61271c" stroke-linecap="round" stroke-linejoin="round" stroke-width="1.2"/></g><path d="M557.5,444c-2.63,22.33-26.37,24.73-44.41,26.35-20.87,1.88-41.76,2.85-62.71,3.36s-42.19.43-63.24,1.29c-4.46.19-8.23-3.38-9.56-7.48a10,10,0,0,1-.51-3.53c.28-6.05,5.32-9.84,11-10.07,6.26-.26,12.52-.43,18.79-.56,15.16-.32,30.32-.39,45.47-.76,18.34-.44,36.59-1.36,54.88-2.75,7.75-.59,16-1.07,23.49-3.26,4.71-1.37,7-3.51,5.35-8.54-2.35-7.19-8.68-13.64-13.27-19.45q-8.28-10.46-17-20.58-10.2-11.91-20.81-23.46a209.16,209.16,0,0,0,10.05-20.23c12.53,13.54,24.83,27.3,36.51,41.57,6.18,7.53,12.41,15.12,18,23.14C554.53,426.34,558.56,435,557.5,444Z" transform="translate(-35.96 -23.24)"/><path d="M50.71,441.12C39.78,447.21,33.9,457.46,37.58,464s15.52,6.92,26.44.83,16.75-13.46,11.65-22.93C72.11,435.3,61.64,435,50.71,441.12Z" transform="translate(-35.96 -23.24)" fill="#fff"/><path d="M48.8,469.68c-5.31,0-9.66-1.82-11.68-5.41a10.4,10.4,0,0,1-.66-8.07c1.63-5.75,6.86-11.56,14-15.54h0c7.12-4,14.21-5.37,19.43-3.84a10,10,0,0,1,6.25,4.84c4.74,8.82.87,16.55-11.86,23.64A32.52,32.52,0,0,1,48.8,469.68ZM51,441.58c-6.79,3.79-12,9.5-13.49,14.91a9.36,9.36,0,0,0,.56,7.26c3.53,6.29,15.07,6.57,25.73.63,12.11-6.75,15.85-14,11.44-22.22a8.91,8.91,0,0,0-5.61-4.33c-5-1.45-11.75-.08-18.63,3.75Z" transform="translate(-35.96 -23.24)"/><path d="M92.23,470.47s-.15-19.62-16.32-18.59S42.11,474.19,51,485.68C65,503.68,92.23,470.47,92.23,470.47Z" transform="translate(-35.96 -23.24)" fill="#fff"/><path d="M61.36,491.56h-.2A13.19,13.19,0,0,1,50.6,486c-3.1-4-3.33-9.47-.65-15.41,4-8.91,14.82-18.54,25.93-19.24a13.94,13.94,0,0,1,10.85,3.52c5.88,5.47,6,15.18,6,15.59v.19l-.12.15C91.94,471.66,75.44,491.56,61.36,491.56Zm15.75-39.19c-.38,0-.77,0-1.16,0-10.72.68-21.15,10-25,18.62-2.51,5.57-2.33,10.66.52,14.33a12.16,12.16,0,0,0,9.74,5.14h.19c13,0,28.77-18.35,30.34-20.21-.06-1.38-.58-9.89-5.69-14.65A12.63,12.63,0,0,0,77.11,452.37Z" transform="translate(-35.96 -23.24)"/><path d="M72.5,476.82c-9.78,7.8-13.93,18.9-9.27,24.79S79.6,506,89.38,498.14s13.93-18.9,9.27-24.79S82.28,469,72.5,476.82Z" transform="translate(-35.96 -23.24)" fill="#fff"/><path d="M71.92,505.72a16.87,16.87,0,0,1-1.9-.11,10.36,10.36,0,0,1-7.2-3.67c-4.84-6.11-.64-17.57,9.35-25.54l.33.42-.33-.42c6.39-5.09,13.75-7.73,19.69-7a10.36,10.36,0,0,1,7.2,3.67c4.83,6.11.63,17.56-9.36,25.54C84,503.12,77.48,505.71,71.92,505.72ZM90,470.3c-5.3,0-11.72,2.56-17.19,6.93h0c-9.54,7.61-13.66,18.4-9.19,24a9.35,9.35,0,0,0,6.5,3.28c5.59.64,12.83-2,18.91-6.83,9.53-7.61,13.65-18.4,9.18-24.05a9.33,9.33,0,0,0-6.49-3.28A16.06,16.06,0,0,0,90,470.3Z" transform="translate(-35.96 -23.24)"/><polygon points="465.5 444.02 539.16 540.36 405.27 540.3 344 448.81 465.5 444.02" fill="#fff"/><path d="M576.19,564.13h-1.07L441,564.07l-62-92.5.95,0,121.77-4.81.17.22ZM441.51,563l132.55.06L501.21,467.8l-120.29,4.75Z" transform="translate(-35.96 -23.24)"/><path d="M561.7,499.68l-3.63-23.95L479.23,482,468,490l-7.86,5.57,9.1,4.37h0L481.92,506Z" transform="translate(-35.96 -23.24)" fill="#ffde00"/><path d="M481.82,506.53,459.1,495.62l19.95-14.14h.14l79.33-6.31,3.78,25-.56,0Zm-12.13-7L482,505.45l79.07-6.25-3.47-22.91-78.2,6.22-18.25,12.93Z" transform="translate(-35.96 -23.24)"/><polygon points="443.28 458.75 449.97 462.27 443.91 467.15 451.95 470.45 444.97 475.08 451.48 478.39 445.96 482.74 424.18 472.29 443.28 458.75" fill="#fff"/><path d="M482,506.61l-22.89-11,20.1-14.24,7.69,4-6,4.83,8.14,3.34-7,4.68,6.43,3.27Zm-20.82-11.16,20.68,9.92,4.61-3.64-6.58-3.34,6.91-4.58-8-3.26,6.13-4.94-5.69-3Z" transform="translate(-35.96 -23.24)"/><path d="M468,490a6.68,6.68,0,0,1,3.53,4.39c.59,3.17-2,5.36-2.29,5.55l-9.11-4.37Z" transform="translate(-35.96 -23.24)"/><path d="M469.31,500.52l-10.21-4.9,8.86-6.28.28.15a7.17,7.17,0,0,1,3.81,4.76c.64,3.45-2.16,5.81-2.48,6.06Zm-8.14-5.07,8,3.83a5.48,5.48,0,0,0,1.85-4.84,6.06,6.06,0,0,0-3-3.86Z" transform="translate(-35.96 -23.24)"/><path d="M485.78,486.1a.53.53,0,0,1,0-1.06l72.77-5.62a.52.52,0,0,1,.57.49.53.53,0,0,1-.49.56l-72.76,5.62Z" transform="translate(-35.96 -23.24)"/><path d="M487.55,494.21a.52.52,0,0,1-.52-.49.53.53,0,0,1,.48-.57l72.11-6.23a.53.53,0,0,1,.09,1.06L487.6,494.2Z" transform="translate(-35.96 -23.24)"/><path d="M487.23,502.22a.53.53,0,0,1,0-1.05L561,494.65a.54.54,0,0,1,.58.48.53.53,0,0,1-.48.57l-73.82,6.52Z" transform="translate(-35.96 -23.24)"/><path d="M556.22,475.8s16.69-4,19.22,10S559.27,500,559.27,500Z" transform="translate(-35.96 -23.24)" fill="#ff6429"/><path d="M558.81,500.49l-3.17-25.1.46-.11c.35-.08,8.63-2,14.54,1.85a12.31,12.31,0,0,1,5.32,8.55,10.64,10.64,0,0,1-2,9c-4.54,5.53-14.29,5.79-14.7,5.79Zm-2-24.27,2.92,23.19c2-.13,9.75-.9,13.43-5.39a9.62,9.62,0,0,0,1.76-8.15,11.34,11.34,0,0,0-4.85-7.86C565.31,474.91,558.61,475.87,556.81,476.22Z" transform="translate(-35.96 -23.24)"/><path d="M570.76,483.16c-.75-2.71-4.26-5.1-8.48-5-.89,0-.88-.91,0-.94,4.8-.13,9,2.58,9.81,5.68C572.26,483.51,570.92,483.75,570.76,483.16Z" transform="translate(-35.96 -23.24)" fill="#fff"/><path d="M571.09,484.66c0-.92,1.52-1,1.51,0S571.08,485.58,571.09,484.66Z" transform="translate(-35.96 -23.24)" fill="#fff"/><polygon points="515.63 452.99 519.18 477.05 523.62 476.73 520.29 452.58 515.63 452.99"/><path d="M554.69,500.86,551,475.75l5.72-.49,3.48,25.19Zm-2.5-24.15,3.4,23,3.39-.25-3.19-23.08Z" transform="translate(-35.96 -23.24)"/><path d="M181.48,381H430.82c.16,0,.28.17.27.38L422.9,517.68c-.38,6.45-4.58,11.43-9.64,11.43H205.94c-4.81,0-8.89-4.52-9.57-10.61L181,381.8A.62.62,0,0,1,181.48,381Z" transform="translate(-35.96 -23.24)" fill="#ff7545" stroke="#232323" stroke-miterlimit="10" stroke-width="2.58"/><path d="M413.26,529.64H205.94c-5.05,0-9.38-4.77-10.1-11.08l-15.4-136.7a1.3,1.3,0,0,1,.31-1,1,1,0,0,1,.73-.34H430.82a.77.77,0,0,1,.56.25,1,1,0,0,1,.24.69l-8.19,136.26C423,524.4,418.56,529.64,413.26,529.64ZM181.52,381.57a.29.29,0,0,0,0,.17l15.4,136.7c.65,5.78,4.54,10.14,9.05,10.14H413.26c4.75,0,8.75-4.8,9.12-10.93l8.17-136.08Zm249.3,0h0Z" transform="translate(-35.96 -23.24)"/><polygon points="230.98 451.8 320.05 451.8 336.49 539.51 211.8 539.51 230.98 451.8" fill="#b75739" stroke="#232323" stroke-miterlimit="10" stroke-width="2.58"/><path d="M373.09,563.28h-126l19.42-88.77h89.93l.08.44Zm-124.67-1.06h123.4l-16.25-86.65h-88.2Z" transform="translate(-35.96 -23.24)"/><path d="M182,381H430.53c.23,0,.36-.35.22-.58l-4.21-6.57H185.26L181.54,380C181.27,380.4,181.52,381,182,381Z" transform="translate(-35.96 -23.24)" fill="#b75739"/><path d="M430.53,381.57H182a1,1,0,0,1-.88-.55,1.34,1.34,0,0,1,0-1.33l3.87-6.33H426.83l4.36,6.82a1,1,0,0,1,0,1A.78.78,0,0,1,430.53,381.57Zm-248.53-1h0Zm0,0H430.15l-3.9-6.09H185.56L182,380.24A.28.28,0,0,0,182,380.51Z" transform="translate(-35.96 -23.24)"/><path d="M418,399.36c0,2.78-2.52,5-5.64,5s-5.63-2.26-5.63-5,2.52-5,5.63-5S418,396.58,418,399.36Z" transform="translate(-35.96 -23.24)" fill="#fff"/><path d="M412.38,404.93c-3.39,0-6.16-2.5-6.16-5.57s2.77-5.56,6.16-5.56,6.17,2.49,6.17,5.56S415.78,404.93,412.38,404.93Zm0-10.08c-2.81,0-5.11,2-5.11,4.51s2.3,4.51,5.11,4.51,5.11-2,5.11-4.51S415.2,394.85,412.38,394.85Z" transform="translate(-35.96 -23.24)"/><path d="M352,302.56c10.28,13.85.32,43.41-37.14,46.55C275.34,352.43,237.46,323,247,315.94,285.38,287.43,343.53,291.14,352,302.56Z" transform="translate(-35.96 -23.24)" fill="#401904" stroke="#232323" stroke-linecap="round" stroke-linejoin="round" stroke-width="3.87"/><path d="M233.62,304.66c13.91,6.25,16,22.53,5.72,32.38" transform="translate(-35.96 -23.24)" fill="none" stroke="#232323" stroke-linecap="round" stroke-linejoin="round" stroke-width="3.87"/><path d="M308.8,364.24c11.69,5.7,27.83,2.37,35.59-7.34" transform="translate(-35.96 -23.24)" fill="none" stroke="#232323" stroke-linecap="round" stroke-linejoin="round" stroke-width="3.87"/><path d="M298.55,319.31c32.17,1.56,50-.13,52-18.22-11.11-9.32-57.62-11.94-93.54,8.34C261.2,315,268.28,317.85,298.55,319.31Z" transform="translate(-35.96 -23.24)" fill="#fff" stroke="#232323" stroke-linecap="round" stroke-linejoin="round" stroke-width="3.87"/><path d="M319.78,340c-12.56-10.31-31.9-7.84-41.26,3.87a87.22,87.22,0,0,0,36.35,5.22c17.76-1.49,29.33-8.92,35.5-17.8C334.73,324.66,322.31,331.47,319.78,340Z" transform="translate(-35.96 -23.24)" fill="#ff5a29" stroke="#232323" stroke-linecap="round" stroke-linejoin="round" stroke-width="3.87"/><path d="M211.25,212.62C191.31,231,193.46,260.34,220,273.88c22.12,11.29,50.56,4.24,61.7-18.08C305.7,207.72,246.19,180.41,211.25,212.62Z" transform="translate(-35.96 -23.24)" fill="#fff" stroke="#232323" stroke-linecap="round" stroke-linejoin="round" stroke-width="3.87"/><path d="M240.44,222.77c6.64,10.75,3.76,23.53-3.16,17.64a26.5,26.5,0,0,1-5.28-6c-4.41-6.9-3.75-9-5.07-9.73-2.52-1.4-9.08,2.52-25.91,23.35a52.54,52.54,0,0,0,15,21.09c4.38,3.68,18.4,15.44,35.43,11.39,10.29-2.44,19.66-9.83,25.49-22.31a47.77,47.77,0,0,0,2.61-7C272.93,233.77,255.61,218.32,240.44,222.77Z" transform="translate(-35.96 -23.24)" fill="#232323" stroke="#232323" stroke-linecap="round" stroke-linejoin="round" stroke-width="3.87"/><path d="M234.56,200.06c9.38-2.78,12.74-12.33,7.64-18.73" transform="translate(-35.96 -23.24)" fill="none" stroke="#232323" stroke-linecap="round" stroke-linejoin="round" stroke-width="3.87"/><path d="M246.83,198.66c8.3-.73,13.43-7.38,11.3-14.63" transform="translate(-35.96 -23.24)" fill="none" stroke="#232323" stroke-linecap="round" stroke-linejoin="round" stroke-width="3.87"/><path d="M261.15,200.93c8.75.27,14.29-5.05,12-12.75" transform="translate(-35.96 -23.24)" fill="none" stroke="#232323" stroke-linecap="round" stroke-linejoin="round" stroke-width="3.87"/><path d="M333.37,212.62c-19.93,18.37-17.79,47.72,8.75,61.26,22.13,11.29,50.57,4.24,61.71-18.08C427.82,207.72,368.32,180.41,333.37,212.62Z" transform="translate(-35.96 -23.24)" fill="#fff" stroke="#232323" stroke-linecap="round" stroke-linejoin="round" stroke-width="3.87"/><path d="M362.29,222.57c6,11.09,2.46,23.7-4.12,17.44-8.37-7.95-7-15.33-9.48-16.25-2.12-.79-17.29,5.35-25.11,21.47a52.47,52.47,0,0,0,11.8,22.3c18,20.29,47.37,18.71,61.43-7.57a48.23,48.23,0,0,0,3-6.85C394.12,235.33,377.67,219,362.29,222.57Z" transform="translate(-35.96 -23.24)" fill="#232323" stroke="#232323" stroke-linecap="round" stroke-linejoin="round" stroke-width="3.87"/><path d="M356.68,200.06c9.39-2.78,12.75-12.33,7.65-18.73" transform="translate(-35.96 -23.24)" fill="none" stroke="#232323" stroke-linecap="round" stroke-linejoin="round" stroke-width="3.87"/><path d="M369,198.66c8.3-.73,13.44-7.38,11.3-14.63" transform="translate(-35.96 -23.24)" fill="none" stroke="#232323" stroke-linecap="round" stroke-linejoin="round" stroke-width="3.87"/><path d="M383.27,200.93c8.75.27,14.3-5.05,12-12.75" transform="translate(-35.96 -23.24)" fill="none" stroke="#232323" stroke-linecap="round" stroke-linejoin="round" stroke-width="3.87"/><path d="M204.76,196.38c4.68-12,14.71-22.27,27.36-28" transform="translate(-35.96 -23.24)" fill="none" stroke="#232323" stroke-linecap="round" stroke-linejoin="round" stroke-width="3.87"/><path d="M365.22,161.23c12-.44,24,6.51,28.51,16.57" transform="translate(-35.96 -23.24)" fill="none" stroke="#232323" stroke-linecap="round" stroke-linejoin="round" stroke-width="3.87"/><g id="clockFace"><g id="largeTicker"><path d="M310.24,273.34a.53.53,0,0,1-.53-.52l-.47-108.14a.52.52,0,0,1,.52-.53h0a.53.53,0,0,1,.53.53l.48,108.13a.53.53,0,0,1-.53.53Z" transform="translate(-35.96 -23.24)" stroke="#333" stroke-miterlimit="10" stroke-width="9.03"/><polygon points="264.56 148.58 273.84 144.54 283.19 148.4 273.65 126.44 264.56 148.58" fill="#c6f670" stroke="#333" stroke-miterlimit="10" stroke-width="9.03"/><path d="M299.54,172.83l10.06-24.5,10.56,24.3-10.36-4.27ZM309.62,151l-8.12,19.78,8.29-3.61,8.36,3.45Z" transform="translate(-35.96 -23.24)" stroke="#333" stroke-miterlimit="10" stroke-width="9.03"/></g><g id="smallTicker"><path d="M400,324.71a.52.52,0,0,1-.24,0l-91.63-47.07a.53.53,0,0,1-.23-.71.52.52,0,0,1,.71-.22l91.64,47.06a.53.53,0,0,1-.25,1Z" transform="translate(-35.96 -23.24)" stroke="#333" stroke-miterlimit="10" stroke-width="2.58"/><polygon points="362.58 289.36 361.36 299.39 353.28 305.48 377.07 308.43 362.58 289.36" fill="#ffde00" stroke="#333" stroke-miterlimit="10" stroke-width="2.58"/><path d="M414.21,332.35l-26.33-3.26,8.94-6.74,1.35-11.1Zm-23.61-4L411.85,331l-12.94-17-1.09,9Z" transform="translate(-35.96 -23.24)" stroke="#333" stroke-miterlimit="10" stroke-width="2.58"/></g><path d="M327.34,286.77c-3.58,5.58-10.2,6.26-17.83,7-4.23.44-8.4.86-9.88-1.36-1.77-2.64,2.33-5.88,2.27-12.72-.06-6.39-3.69-8.16-2.5-10.9,2.39-5.5,21.22-8.13,27.82,1.81A15.38,15.38,0,0,1,327.34,286.77Z" transform="translate(-35.96 -23.24)" fill="#fc844f" stroke="#232323" stroke-miterlimit="10" stroke-width="2.73"/></g></g></svg>