<?xml version="1.0" encoding="utf-8"?>
<!-- Generator: Adobe Illustrator 25.2.3, SVG Export Plug-In . SVG Version: 6.00 Build 0)  -->
<svg version="1.1" id="Layer_1" xmlns="http://www.w3.org/2000/svg" xmlns:xlink="http://www.w3.org/1999/xlink" x="0px" y="0px"
	 viewBox="0 0 790.7 777.3" style="enable-background:new 0 0 790.7 777.3;" xml:space="preserve">
<style type="text/css">
	.st0{fill:#C68A6A;}
	.st1{fill:#C68A6A;stroke:#000000;stroke-width:5.7955;stroke-miterlimit:10;}
	.st2{fill:url(#SVGID_1_);}
	.st3{fill:url(#SVGID_2_);}
	.st4{fill:#FFFFFF;stroke:#000000;stroke-width:4.7289;stroke-miterlimit:10;}
	.st5{fill:#0E2D1D;}
	.st6{fill:#401904;stroke:#0A0A0A;stroke-width:5.9061;stroke-linecap:round;stroke-linejoin:round;}
	.st7{fill:none;stroke:#0A0A0A;stroke-width:4.0781;stroke-linecap:round;stroke-linejoin:round;}
	.st8{fill:#FFFFFF;stroke:#0A0A0A;stroke-width:5.9061;stroke-linecap:round;stroke-linejoin:round;}
	.st9{fill:#FF5A29;stroke:#0A0A0A;stroke-width:5.9061;stroke-linecap:round;stroke-linejoin:round;}
	.st10{fill:#442517;}
	.st11{fill:#331A0E;}
</style>
<g id="Layer_5">
	
		<image style="overflow:visible;enable-background:new    ;" width="2000" height="2000" xlink:href="CF6D8F90.png"  transform="matrix(0.4 0 0 0.39 0 0)">
	</image>
</g>
<g id="Layer_1_2_">
	<path class="st0" d="M271.2,401.2c0,0-6.5-63.6-45.2-63.8c-38.7-0.3-55.8,107.9-8.8,142.9c38.8,28.9,52.9-17.8,52.9-17.8"/>
	<path d="M271.2,401.2c-0.7-3.3-1.5-6.5-2.4-9.7s-2-6.4-3.1-9.5c-1.1-3.1-2.3-6.2-3.7-9.2c-1.3-3-2.8-5.9-4.5-8.7
		c-2.7-5.7-6.5-11-11-15.4c-0.6-0.5-1.1-1.1-1.8-1.5l-1.8-1.4c-1.3-0.9-2.6-1.7-3.9-2.4c-2.7-1.4-5.6-2.4-8.6-2.8l-1.1-0.2
		c-0.4-0.1-0.8-0.1-1.2-0.1l-2.3-0.1c-1.4,0-2.9,0.2-4.3,0.5c-2.9,0.8-5.5,2.1-7.8,3.9c-4.8,3.7-8.5,9.1-11.4,14.7
		c-2.9,5.8-5.2,11.9-6.8,18.2c-1.6,6.3-2.8,12.8-3.4,19.3c-1.3,13-0.6,26.2,2.2,39c1.4,6.3,3.4,12.5,6.1,18.4
		c2.6,5.8,6.1,11.3,10.3,16.1c2.1,2.4,4.4,4.6,6.9,6.5c2.5,2,5.2,3.7,7.9,5.3c2.7,1.5,5.6,2.7,8.6,3.5c1.5,0.4,2.9,0.6,4.4,0.8
		c0.7,0.1,1.5,0.1,2.2,0c0.7,0,1.5,0,2.2-0.1c3-0.1,5.9-0.9,8.6-2.2c2.8-1.4,5.4-3.3,7.6-5.6c2.3-2.3,4.4-4.9,6.1-7.6
		c1.9-2.8,3.4-5.7,4.8-8.8c-1.6,6.6-4.5,12.9-8.6,18.4c-2.1,2.9-4.7,5.4-7.6,7.4c-3.1,2.1-6.6,3.5-10.2,4.1
		c-0.9,0.2-1.9,0.3-2.8,0.2c-0.9,0-1.9,0-2.8-0.2c-1.8-0.2-3.6-0.5-5.4-0.9c-3.4-1-6.8-2.4-9.9-4.1c-3-1.7-5.9-3.7-8.7-5.9
		c-2.7-2.2-5.3-4.6-7.6-7.2c-4.6-5.3-8.4-11.2-11.2-17.5c-2.8-6.3-5-12.8-6.5-19.6c-2.9-13.4-3.7-27.2-2.3-40.8
		c0.6-6.8,1.8-13.6,3.5-20.2c1.7-6.7,4.1-13.2,7.2-19.4c1.6-3.1,3.4-6.1,5.5-8.9c2.1-2.9,4.6-5.5,7.5-7.7c2.9-2.3,6.3-4,10-5
		c1.9-0.4,3.8-0.7,5.7-0.7c0.9,0,1.8,0.1,2.7,0.1c0.4,0.1,0.9,0,1.4,0.1l1.3,0.2c0.9,0.2,1.8,0.3,2.7,0.5l2.6,0.7
		c0.9,0.3,1.7,0.6,2.6,1c0.9,0.3,1.7,0.7,2.5,1.1c1.6,0.8,3.1,1.8,4.6,2.8l2.1,1.7c0.7,0.5,1.3,1.2,2,1.8c2.6,2.4,4.9,5.1,6.9,8
		c0.5,0.7,1,1.4,1.5,2.2c0.5,0.7,1,1.5,1.4,2.2s0.9,1.5,1.3,2.3s0.8,1.5,1.2,2.3c2.7,6.3,4.7,12.9,6,19.6
		C270.1,387.8,271,394.5,271.2,401.2z"/>
	<path class="st1" d="M528.2,486.7c-1.6,20.7-7.5,63.9-35.9,101.5c-48.6,64.4-136.4,77.1-197.2,42.5
		c-69.5-39.7-83.3-129.6-86.1-148.1c-7.3-47.7-1.1-93.7,11-150.1c4.5-20.9,18.8-80.9,18.8-80.9c2.6-11.2,8-21.6,15.8-30.2
		c15.5-16.9,34.1-19.2,41.4-20.1c34.9-4.1,62.5,20.2,79.8,32.9c82.7,60.9,144.4,16.6,176,62.5C569.7,322.5,576.2,374,528.2,486.7z"
		/>
	<path class="st0" d="M325.3,411.1c0,0-19.1-10.8-46.5,0.5c-21.1,8.7-26.2,22.5-26.2,22.5"/>
	<path d="M325.3,411.1c-6.6-1.8-13.4-2.5-20.2-2.2c-6.6,0.3-13.1,1.5-19.4,3.5c-3.2,1-6.3,2.2-9.3,3.5c-3,1.4-6,2.9-8.8,4.6
		c-2.8,1.8-5.5,3.7-8,5.9c-2.6,2.2-4.9,4.8-6.9,7.6c0.4-1.7,1-3.4,1.8-5c0.8-1.6,1.7-3.2,2.8-4.6c2.2-2.9,4.7-5.6,7.5-7.9
		c2.8-2.3,5.9-4.3,9.1-6l2.5-1.2c0.8-0.4,1.6-0.7,2.5-1.1l2.5-1c0.9-0.3,1.7-0.7,2.6-0.9c6.9-2.2,14.2-3,21.5-2.4
		c3.6,0.3,7.1,1.1,10.6,2.2c0.8,0.3,1.7,0.6,2.5,1c0.8,0.3,1.6,0.7,2.4,1.1C322.5,409,324,410,325.3,411.1z"/>
	
		<linearGradient id="SVGID_1_" gradientUnits="userSpaceOnUse" x1="1197.2537" y1="587.0756" x2="1279.9194" y2="508.1628" gradientTransform="matrix(-0.9959 -5.148960e-02 5.148960e-02 -0.9959 1755.7639 963.5727)">
		<stop  offset="0" style="stop-color:#3C2415"/>
		<stop  offset="0.25" style="stop-color:#3C2415"/>
		<stop  offset="0.46" style="stop-color:#8B5E3C"/>
		<stop  offset="0.69" style="stop-color:#3C2415"/>
		<stop  offset="0.98" style="stop-color:#3C2415"/>
	</linearGradient>
	<path class="st2" d="M570.3,280.6c0,0,35.5,48.6,23,97.7c-13.4,52.6-43.6,125.7-43.6,125.7s-31.7,33.2-29.8,32.9
		c1.9-0.3,48.4-275.8-10.3-303.2"/>
	<path d="M570.3,280.6c6.1,7.8,11.4,16.3,15.8,25.2c4.5,8.9,8.1,18.3,10.6,28c1.3,4.9,2.2,9.9,2.8,15c0.2,1.3,0.3,2.5,0.3,3.8
		c0,1.3,0.1,2.6,0,3.8l-0.1,3.8l-0.2,3.8c-0.4,5.1-1.3,10.2-2.5,15.2c-1.3,4.8-2.5,9.6-3.9,14.4c-5.5,19.1-11.8,37.8-18.5,56.4
		c-6.7,18.6-13.8,37-21.3,55.3l-0.3,0.6l-0.5,0.5c-5.1,5.4-10.2,10.8-15.3,16.2c-2.5,2.7-5,5.4-7.5,8.2c-1.2,1.4-2.5,2.7-3.7,4.1
		c-0.6,0.7-1.2,1.4-1.7,2c-0.3,0.3-0.5,0.7-0.8,1l-0.2,0.3l0,0c0-0.1,0.1-0.2,0.1-0.3c0.1-0.3,0.2-0.5,0.2-0.8
		c0.2,0.6,0-3.1-1.4-3.6c-1.1-0.8-2.7-1-3.9-0.3c-0.7,0.3-1.2,0.9-1.5,1.5l-0.1,0.2c0,0.1,0,0.1,0,0.1l0,0l0-0.2l0.1-0.6l0.3-1.3
		l0.5-2.7l1-5.4c0.6-3.6,1.3-7.3,1.8-10.9c1.2-7.3,2.3-14.7,3.3-22c4.1-29.4,7.4-59,9.5-88.5c1.1-14.8,1.8-29.6,2.1-44.4
		c0.3-14.8,0.2-29.6-0.7-44.3c-0.2-3.7-0.6-7.3-0.9-11c-0.4-3.7-0.5-7.3-0.8-11c-0.5-7.3-1.5-14.6-2.9-21.8
		c-1.3-7.2-3.4-14.2-6.4-20.9c-1.5-3.3-3.4-6.5-5.6-9.4c-2.3-2.9-5.1-5.4-8.3-7.2c3.5,1.5,6.6,3.6,9.3,6.3c2.7,2.7,5,5.8,6.9,9.1
		c1.9,3.3,3.6,6.7,5,10.2c1.4,3.5,2.7,7.1,3.8,10.7c2.1,7.3,3.8,14.6,5.1,22.1c0.6,3.7,1.3,7.4,1.6,11.2c0.3,3.8,0.5,7.5,0.8,11.3
		c0.9,15,1,30,0.7,44.9c-0.3,15-1.1,29.9-2.1,44.8c-2.1,29.8-5.4,59.5-9.5,89.1c-1,7.4-2.2,14.8-3.3,22.2c-0.6,3.7-1.2,7.4-1.9,11.1
		l-1,5.6l-0.6,2.8l-0.3,1.5l-0.2,0.8l-0.1,0.5l-0.1,0.3c0,0,0,0.1-0.1,0.3l-0.2,0.3c-0.3,0.7-0.9,1.3-1.6,1.7
		c-1.3,0.7-2.9,0.6-4-0.3c-1.5-0.5-1.7-4.3-1.5-3.7c0.1-0.3,0.1-0.7,0.3-1c0.1-0.2,0.2-0.4,0.3-0.6l0.2-0.3c0.2-0.3,0.4-0.6,0.6-0.8
		c0.3-0.5,0.7-0.8,1-1.2c0.6-0.8,1.3-1.5,1.9-2.2c1.3-1.4,2.5-2.8,3.8-4.2c2.5-2.8,5-5.5,7.6-8.3c5.1-5.5,10.2-10.9,15.4-16.3
		l-0.8,1.2c7.4-18.1,14.5-36.5,21.1-55s13-37.1,18.4-55.9c1.4-4.7,2.6-9.4,3.9-14.1c1.1-4.6,1.9-9.2,2.3-13.9
		c0.3-4.8,0.2-9.5-0.1-14.3c-0.1-4.8-0.6-9.5-1.3-14.3c-1.6-9.6-4.1-19-7.6-28C579.5,297.9,575.3,289,570.3,280.6z"/>
	<path d="M595.8,353.2c-0.3-1.3-0.7-2.6-1.1-3.8c-0.4-1.3-0.9-2.5-1.5-3.7c-1-2.4-2.2-4.8-3.4-7.2c-2.5-4.6-5.4-9-8.7-13.1
		c-1.6-2-3.4-3.9-5.2-5.8c-0.9-0.9-1.9-1.8-2.8-2.7l-3-2.8c-4-3.7-7.7-7.7-11.3-11.9c-7.1-8.4-12.9-17.8-17.2-28
		c-2.1-5.1-3.8-10.3-5-15.6c-1.3-5.3-2.1-10.6-3.3-15.9c2.4,4.9,4.1,10,6.1,15c1.9,4.9,4.1,9.8,6.5,14.5
		c4.8,9.3,10.7,18.1,17.5,26.1c3.4,4,6.9,7.9,10.6,11.7l2.8,2.8c1,1,1.9,2,2.9,3.1c1.8,2.1,3.6,4.3,5.1,6.6
		c3.1,4.6,5.6,9.5,7.6,14.7c0.9,2.6,1.7,5.2,2.3,7.9C595.5,347.8,595.8,350.5,595.8,353.2z"/>
	<path d="M585.9,393.6c0.4-1.1,0.7-2.2,0.8-3.4l0.2-1.7l0-1.7c0-2.3-0.2-4.5-0.7-6.8c-0.9-4.4-2.4-8.7-4.5-12.6
		c-1-2-2.2-3.9-3.4-5.8c-0.6-0.9-1.3-1.8-2-2.7l-1-1.4l-1.1-1.3l-2.2-2.6c-0.8-0.8-1.6-1.6-2.3-2.4l-2.4-2.5l-2.5-2.6
		c-6.5-7-12.3-14.6-17.1-22.9c-4.9-8.1-8.6-16.9-11.1-26.1c4.6,8.1,9.7,15.9,15.1,23.5c5.4,7.5,11.2,14.6,17.5,21.3l2.4,2.5
		c0.8,0.8,1.6,1.8,2.4,2.6c0.8,0.9,1.6,1.8,2.4,2.7l2.2,2.9l1.1,1.5l1,1.5c0.7,1,1.3,2,2,3.1l1.7,3.3l0.4,0.8l0.4,0.8l0.7,1.7
		c1.9,4.5,2.9,9.4,3.1,14.3c0.1,2.4-0.1,4.9-0.6,7.2C588.2,389.3,587.2,391.6,585.9,393.6z"/>
	<path d="M578.9,426l0-0.8c0-0.2-0.1-0.5-0.1-0.8c-0.1-0.5-0.2-1-0.3-1.5c-0.2-1-0.5-2-0.7-3L577,417l-0.9-2.9
		c-1.2-3.8-2.7-7.6-4.3-11.3c-0.8-1.8-1.7-3.6-2.5-5.4c-0.8-1.8-1.8-3.5-2.9-5.2c-2-3.4-4.2-6.5-6.8-9.5l-1.9-2.2l-2.2-2.4
		c-0.7-0.8-1.4-1.7-2-2.5c-0.7-0.9-1.4-1.7-1.9-2.6l-1.8-2.7c-0.6-0.9-1.1-1.8-1.6-2.8c-0.5-0.9-1-1.9-1.5-2.8s-1-1.9-1.4-2.9
		c-1.7-3.8-3.1-7.8-4.2-11.9c-1.1-4-1.7-8.2-1.9-12.3c1.5,3.9,3,7.7,4.8,11.3c1.8,3.6,3.6,7.3,5.6,10.7c2,3.4,4.2,6.7,6.6,9.9
		c0.6,0.8,1.2,1.5,1.9,2.3c0.6,0.8,1.2,1.5,1.9,2.2l2,2.1l2.2,2.4c0.4,0.4,0.7,0.8,1.1,1.2l1,1.3c0.6,0.9,1.3,1.7,1.9,2.6
		c1.2,1.8,2.3,3.6,3.3,5.5c1.1,1.9,1.9,3.8,2.7,5.8c0.9,1.9,1.5,4,2.1,6c1.2,4,2.1,8.2,2.6,12.4c0.2,2.1,0.4,4.2,0.5,6.3
		C579.6,421.8,579.4,423.9,578.9,426z"/>
	<path d="M570.1,444.9c-1-2.7-2.2-5.2-3.2-7.8c-1-2.5-2.2-5.1-3.3-7.6c-2.2-5-4.5-9.9-7-14.7c-1.3-2.4-2.6-4.7-3.9-7
		s-2.8-4.6-4.4-6.8s-3.2-4.4-4.9-6.5c-1.7-2.1-3.6-4.1-5.6-6.2c2.7,1,5.3,2.4,7.6,4c2.4,1.7,4.6,3.6,6.6,5.6c2,2.1,3.8,4.3,5.5,6.7
		c1.6,2.4,3.1,4.8,4.5,7.4c2.6,5.1,4.6,10.4,6,16c0.7,2.8,1.2,5.6,1.6,8.4c0.2,1.4,0.3,2.8,0.4,4.3
		C570.3,442,570.3,443.4,570.1,444.9z"/>
	
		<linearGradient id="SVGID_2_" gradientUnits="userSpaceOnUse" x1="1385.6683" y1="603.644" x2="1425.4316" y2="746.3168" gradientTransform="matrix(-0.9959 -5.148960e-02 5.148960e-02 -0.9959 1755.7639 963.5727)">
		<stop  offset="0" style="stop-color:#3C2415"/>
		<stop  offset="0.13" style="stop-color:#8B5E3C"/>
		<stop  offset="0.44" style="stop-color:#3C2415"/>
		<stop  offset="0.65" style="stop-color:#3C2415"/>
		<stop  offset="0.98" style="stop-color:#3C2415"/>
	</linearGradient>
	<path class="st3" d="M540.2,258.8c3.3,13.2,1.1,19.5-1.2,22.8c-8.5,12.1-31.2,1-76.2,0.4c-5.2-0.1-13.6,0.4-30.4,1.2
		c-99.9,5.1-172.3,38.5-196.2,5.3c-4.4-6.1-9.8-18-6.3-42.9c19.8-24.1,50.2-53.7,92.5-72.4c20.3-9,104.6-37.6,182.7,8.3
		c18.2,10.7,35.3,28,50.4,55.1c-9.5-24.5-10.5-31.2-9.3-32.1c2.5-1.7,18.6,17.4,23.7,43.1c2.5,13.6,2.1,27.7-1.3,41.1"/>
	<path d="M540.2,258.8c1.2,3.8,1.9,7.7,2.1,11.7c0.1,2,0,4.1-0.4,6.1c-0.4,2-1.2,4-2.3,5.7c-1.2,1.8-2.8,3.3-4.7,4.3
		c-1.9,0.9-3.9,1.5-5.9,1.8c-4,0.5-8.1,0.6-12.1,0.2c-8-0.5-15.8-1.4-23.6-2.1c-7.8-0.6-15.6-1-23.4-1.1c-2,0-3.9,0-5.8,0
		c-1.9,0-3.8,0.1-5.8,0.2l-5.8,0.4c-2,0.1-3.9,0.2-5.9,0.3l-11.8,0.5c-3.9,0.2-7.8,0.4-11.7,0.7c-15.6,1.1-31.2,2.8-46.7,5.1
		c-15.5,2.2-31,4.9-46.6,7.5c-7.8,1.3-15.6,2.6-23.4,3.8c-7.9,1.1-15.8,2.1-23.8,2.6c-8.2,0.6-16.4,0.2-24.5-1.1
		c-4.2-0.8-8.3-2.2-12.2-4.1c-7.9-4.1-14-11-17.1-19.3c-1.5-4-2.5-8.1-3-12.4c-0.8-8.2-0.6-16.4,0.6-24.6l0.2-1l0.7-0.8
		c10.2-12.6,21.5-24.2,33.8-34.9c6.1-5.3,12.5-10.3,19.1-15.1c13.2-9.5,27.4-17.5,42.3-24.1c7.5-3.1,15.2-5.8,23-8
		c15.6-4.4,31.7-7.2,47.9-8.3c16.2-1.2,32.6-0.5,48.7,2c8,1.3,16,3.1,23.8,5.4c3.9,1.1,7.7,2.5,11.6,3.8c3.8,1.5,7.7,2.9,11.3,4.6
		c3.7,1.7,7.4,3.5,11,5.3c3.6,2,7.1,3.9,10.6,6.1c7,4.4,13.4,9.6,19.3,15.4c11.8,11.5,21.3,25,29.3,39.1l-6.8,3.2
		c-1.9-4.9-3.9-9.9-5.5-14.9c-0.8-2.5-1.6-5.1-2.3-7.7c-0.3-1.3-0.7-2.6-1-4c-0.3-1.4-0.6-2.9-0.7-4.4c0-0.5,0-0.9,0-1.4
		c0-0.8,0.3-1.6,0.7-2.4c0.1-0.2,0.2-0.3,0.3-0.5c0.1-0.2,0.3-0.4,0.5-0.5c0.4-0.4,0.8-0.6,1.3-0.8c0.7-0.2,1.4-0.3,2.1-0.1
		c0.7,0.1,1.3,0.4,1.9,0.8c0.7,0.5,1.4,1,2,1.6c0.6,0.5,1.1,1.1,1.6,1.6c1.8,2.1,3.5,4.3,5,6.6c2.9,4.6,5.4,9.4,7.5,14.4
		c2.1,5,3.7,10.1,4.9,15.3c1.2,5.2,1.9,10.5,2.2,15.9c0.4,10.6-0.9,21.1-3.8,31.3c2.2-10.2,2.7-20.8,1.5-31.1
		c-1.2-10.3-4.2-20.2-8.8-29.5c-2.3-4.6-4.9-9-7.9-13.1c-1.5-2-3.1-3.9-4.8-5.6c-0.4-0.4-0.8-0.8-1.3-1.2c-0.3-0.3-0.7-0.6-1.1-0.8
		c-0.1,0-0.2,0,0,0c0.4,0.1,0.8,0.1,1.1-0.1c0.3-0.1,0.6-0.3,0.9-0.5c0.1-0.1,0.2-0.2,0.3-0.3c0.1-0.1,0.1-0.2,0.2-0.3
		c0.3-0.6,0.2-0.5,0.2-0.4c0,0.1,0,0.3,0,0.5c0.2,1.1,0.4,2.2,0.8,3.3c0.3,1.2,0.7,2.4,1.1,3.6c0.8,2.4,1.7,4.8,2.6,7.3
		c1.9,4.8,3.6,9.7,5.5,14.6l-6.8,3.2c-3.8-6.9-8-13.5-12.6-19.8c-4.6-6.3-9.7-12.2-15.3-17.6c-5.5-5.4-11.6-10.2-18.1-14.4
		c-3.2-2.1-6.7-3.9-10.1-5.8c-3.5-1.7-7-3.6-10.6-5.1c-3.6-1.5-7.2-3-10.8-4.5c-3.7-1.3-7.4-2.6-11.1-3.7c-7.5-2.2-15.2-4-22.9-5.2
		c-15.5-2.5-31.3-3.1-46.9-2c-15.7,1.1-31.2,3.8-46.3,8.1c-7.6,2.1-15,4.6-22.2,7.7c-7.2,3.2-14.2,6.7-21,10.6
		c-27.3,15.6-51.3,36.8-71.2,61.2l0.8-1.9c-1.1,7.5-1.3,15.1-0.6,22.6c0.9,7.3,3.2,14.4,7.8,19.6c2.3,2.6,5.1,4.7,8.2,6.3
		c3.3,1.5,6.7,2.7,10.2,3.4c7.5,1.2,15.1,1.6,22.6,1c15.4-0.9,30.9-3.6,46.4-6.2c15.5-2.6,31.1-5.3,46.8-7.6
		c15.7-2.2,31.4-4,47.3-5.2l23.7-1.4c2-0.1,3.9-0.2,5.9-0.2c2,0,4-0.1,6-0.1c2,0,4.1,0,6.1,0.2c2,0.1,4,0.2,6,0.4
		c8,0.6,15.9,1.5,23.7,2.6s15.6,2.6,23.4,3.6c3.8,0.6,7.6,0.8,11.5,0.6c1.8-0.1,3.6-0.5,5.3-1.2c1.7-0.7,3.1-1.8,4.2-3.3
		c2.3-2.9,3.2-6.8,3.3-10.7C541.5,266.6,541.1,262.6,540.2,258.8z"/>
	<path d="M482.1,243.4c-8-1.9-15.8-4.6-23.4-7.9c-7.6-3.3-14.9-7.2-21.8-11.8c-3.5-2.3-6.8-4.8-10-7.5c-3.3-2.8-6.2-5.9-8.8-9.2
		c-1.3-1.8-2.5-3.6-3.4-5.6c-1-2.1-1.6-4.3-1.8-6.5c-0.2-2.3,0.2-4.6,1.3-6.7c1-1.9,2.4-3.6,4.2-4.8c-1.1,1.6-1.9,3.5-2.3,5.4
		c-0.3,1.8-0.2,3.6,0.3,5.4c1.1,3.4,3.4,6.4,6.1,9.1c2.7,2.7,5.7,5.3,8.8,7.6c1.6,1.2,3.1,2.4,4.8,3.5s3.3,2.3,4.9,3.3
		c6.6,4.4,13.5,8.6,20.4,12.7C468.2,234.5,475.2,238.8,482.1,243.4z"/>
	<path d="M427.4,231.2c-5.7-0.8-11.2-2.1-16.6-3.9c-2.7-0.9-5.4-1.9-8-3c-2.6-1.1-5.2-2.4-7.7-3.8c-5.2-2.7-9.8-6.4-13.6-10.8
		c-2-2.3-3.4-5-4.1-7.9c-0.7-2.9-0.3-6,1-8.6c-0.5,2.7-0.2,5.5,0.9,8c1.1,2.4,2.6,4.6,4.6,6.4c4,3.7,8.5,6.8,13.3,9.4
		c4.8,2.7,9.8,5.1,14.9,7.4L427.4,231.2z"/>
	<path d="M433.7,264.3c-6.4-0.7-12.7-1.7-19-3.1c-6.3-1.4-12.5-3-18.6-4.9c-12.4-3.7-24.3-9-35.4-15.6c-5.6-3.4-10.8-7.4-15.5-11.9
		c-4.8-4.6-8.7-9.9-11.5-15.9c-2.8-6-4.2-12.6-4-19.2c0.1-3.2,0.6-6.5,1.4-9.6c0.8-3.1,1.9-6.1,3.2-9.1c-0.4,1.5-0.9,3.1-1.2,4.6
		c-0.3,1.6-0.6,3.1-0.9,4.7c-0.5,3.1-0.6,6.3-0.5,9.4c0.3,6.2,1.9,12.3,4.8,17.8c3,5.4,6.8,10.4,11.4,14.5c4.6,4.3,9.6,8,14.9,11.3
		c5.4,3.3,10.9,6.3,16.7,8.9c5.7,2.7,11.6,5,17.6,7.2C409.1,257.7,421.3,261.4,433.7,264.3z"/>
	<path d="M406.2,267.4c-6.8,1.1-13.6,1.9-20.4,2.3c-6.8,0.4-13.7,0.6-20.6,0.4c-13.7-0.3-27.6-1.9-41-5.8c-6.7-2-13.2-4.8-19.2-8.4
		c-5.9-3.8-11.4-8.7-15-14.9c-1.8-3.1-3.1-6.4-4-9.9c-0.8-3.4-1.1-6.9-1.1-10.5c0.3-6.9,1.8-13.7,4.4-20.2
		c-1.6,6.6-2.8,13.4-2.4,20.1c0.2,6.6,2.2,13.1,5.7,18.7c3.7,5.5,8.6,10,14.3,13.3c5.8,3.4,11.9,6,18.3,7.8
		c6.5,1.9,13.1,3.4,19.7,4.4c6.7,1.1,13.4,1.7,20.2,2.2C378.9,267.8,392.6,268,406.2,267.4z"/>
	<path d="M373.1,278.8c-6.1,2-12.4,3.6-18.7,4.9c-6.3,1.3-12.7,2.3-19.2,3c-12.9,1.5-26,1.3-38.9-0.6c-6.5-1.1-12.8-3-18.9-5.6
		c-6.1-2.7-11.6-6.6-16.2-11.4c-2.3-2.4-4.2-5.2-5.8-8.1c-1.6-2.9-2.8-6-3.7-9.2c-1.7-6.3-2.2-12.8-1.6-19.3
		c0.2,6.4,1.4,12.7,3.5,18.7c2.1,5.9,5.5,11.2,9.9,15.6c4.5,4.3,9.7,7.7,15.5,10.1c5.8,2.4,11.9,4.1,18,5.1
		c6.2,1.1,12.5,1.7,18.9,1.8c6.4,0.2,12.7,0,19.1-0.3C347.8,282.7,360.5,281.1,373.1,278.8z"/>
	<path class="st4" d="M333.7,398.1c0,0,20.3-14,18.1-44.9c-0.6-9.2-3.3-15.9-6.9-20.9c-7-9.8-18.8-15.4-28.8-14.2
		c-17.1,2.1-33.8,24.5-33.1,53.5c1.6,19.1,13.2,33.4,27.1,35.2C321.9,408.3,331.4,400.2,333.7,398.1z"/>
	<path class="st0" d="M504.9,474.8c0,0,15.3-40.8,46.4-37.7c31.1,3.2,27.7,75-15.6,93.8C500,546.4,496,514.8,496,514.8"/>
	<path d="M504.9,474.8c1.3-4.8,3-9.4,5.2-13.8c1.1-2.2,2.3-4.4,3.6-6.5c1.3-2.2,2.8-4.2,4.4-6.2c0.8-1,1.7-1.9,2.7-2.7
		c1-0.8,1.9-1.7,2.9-2.5c2-1.6,4.2-3.1,6.4-4.3c2.3-1.3,4.7-2.3,7.2-3.1c2.5-0.8,5.1-1.3,7.8-1.5c0.7-0.1,1.3,0,2-0.1
		c0.7,0,1.3,0,2,0c1.3,0,2.7,0.2,4,0.4c2.8,0.5,5.4,1.5,7.8,3c2.3,1.5,4.4,3.4,6,5.6c1.6,2.1,3,4.4,4,6.9c2,4.8,3.2,9.8,3.5,15
		c0.4,5,0.3,10.1-0.4,15.1c-1.3,10-4.6,19.7-9.7,28.4c-2.6,4.4-5.6,8.5-9.1,12.2c-5.3,5.6-11.6,10.1-18.7,13.1
		c-1.2,0.5-2.3,1-3.5,1.4c-1.2,0.5-2.4,0.9-3.6,1.2c-5,1.6-10.3,2.1-15.6,1.5c-2.7-0.6-5.2-1.7-7.5-3.2c-2.2-1.5-4.1-3.4-5.6-5.6
		c-2.8-4.2-4.4-9.1-4.6-14.1c0.7,2.3,1.6,4.5,2.8,6.6c1.1,2,2.5,3.9,4.2,5.5c1.6,1.5,3.5,2.8,5.5,3.7c2,0.8,4.1,1.3,6.2,1.4
		c1,0,2.1,0.2,3.2,0.2l0.8,0l0.8-0.1c0.5,0,1.1,0,1.6-0.1c1.1-0.2,2.2-0.3,3.3-0.5s2.2-0.5,3.3-0.8s2.2-0.7,3.2-1.1
		c1.1-0.3,2.2-0.9,3.2-1.3c6.3-2.7,12-6.7,16.8-11.7c3.2-3.4,5.9-7.1,8.3-11.1c4.7-8.1,7.7-17,8.9-26.3c0.6-4.6,0.8-9.3,0.4-13.9
		c-0.3-4.5-1.4-9-3.1-13.2c-1.6-4-4.3-7.4-7.8-9.9c-1.7-1.1-3.7-1.8-5.7-2.2c-1.1-0.2-2.1-0.2-3.2-0.3c-0.6,0-1.1,0-1.7,0
		c-0.6,0-1.1,0-1.7,0.1c-2.2,0.2-4.4,0.6-6.5,1.2c-2.1,0.7-4.2,1.6-6.1,2.6c-4,2.3-7.5,5.1-10.6,8.5c-3.5,3.1-6.7,6.6-9.6,10.4
		c-1.5,1.9-2.9,3.8-4.2,5.9C507.3,470.6,506.1,472.7,504.9,474.8z"/>
	<path d="M561.1,474c0-3.8-0.5-7.5-1.5-11.2c-0.5-1.6-1.2-3.1-2.2-4.5c-0.9-1.1-2.1-1.9-3.4-2.3c-2.6-0.7-6.2,0.2-9.1,1.5
		c-3,1.6-5.8,3.8-8.1,6.3c-5,5.5-9.3,11.5-13,17.9c-1.9,3.2-3.8,6.5-5.6,9.9c-1.9,3.4-3.6,6.8-5.1,10.3c0-2,0.3-3.9,0.7-5.8
		c0.3-1.9,0.8-3.8,1.4-5.7c1.1-3.8,2.4-7.5,4-11.1c1.6-3.6,3.4-7.2,5.5-10.5c2.1-3.5,4.6-6.7,7.4-9.6c1.5-1.5,3-2.9,4.7-4.1
		c1.7-1.3,3.6-2.4,5.6-3.3c1.1-0.4,2.1-0.8,3.2-1c0.5-0.1,1.1-0.3,1.6-0.3c0.5-0.1,1.1-0.2,1.6-0.2c2.4-0.3,4.8,0,7,0.9
		c2.3,0.9,4.2,2.6,5.3,4.8c1,2,1.6,4.1,1.7,6.3c0.2,2,0.1,4.1-0.3,6.1C562.3,470.3,561.8,472.2,561.1,474z"/>
	<path d="M528.8,512.3c2.8-4.6,5.2-9.3,7.3-14.2c0.5-1.2,0.9-2.4,1.3-3.6c0.3-1.2,0.6-2.4,0.8-3.6c0.2-1.1,0.2-2.3,0.1-3.4
		c-0.1-1.1-0.3-2.1-0.7-3.1c-0.2-0.5-0.4-0.9-0.7-1.4c-0.3-0.4-0.6-0.9-1-1.3c-0.2-0.2-0.3-0.4-0.5-0.6l-0.6-0.6
		c-0.4-0.4-0.8-0.7-1.3-1c-1.6-1.2-3.7-1.5-5.5-0.8c-2.2,1-4.2,2.4-5.7,4.3c-1.8,2-3.4,4.1-4.9,6.4c0.5-2.8,1.5-5.4,2.8-7.9
		c1.4-2.7,3.5-5,6.1-6.6c1.5-0.8,3.3-1.2,5-1.2c1.7,0.1,3.4,0.6,4.9,1.5c0.4,0.2,0.7,0.4,1,0.6c0.3,0.2,0.7,0.5,1,0.7l0.9,0.8
		c0.3,0.3,0.6,0.6,0.9,0.9c0.6,0.6,1.1,1.3,1.5,1.9c0.4,0.7,0.8,1.5,1.1,2.2c1.1,3,1.4,6.3,0.6,9.4c-0.7,2.9-1.8,5.6-3.3,8.1
		c-1.4,2.4-3.1,4.7-5,6.8C533.1,508.8,531.1,510.6,528.8,512.3z"/>
	<path class="st4" d="M465,420.1c0,0,20.3-14,18.1-44.9c-0.6-9.2-3.3-15.9-6.9-20.9c-7-9.8-18.8-15.4-28.9-14.2
		c-17.1,2.1-33.8,24.5-33.1,53.5c1.6,19.1,13.2,33.4,27.1,35.2C453.3,430.3,462.8,422.1,465,420.1z"/>
	<path class="st5" d="M455.8,345.6c7.3,0.3,12.9,11.3,13.9,26.1l-25.8,13.4l23.9,9.5c-3.2,13-9.5,22.1-16.3,21.8
		c-8.9-0.3-15.2-16.4-14-36C438.7,360.8,446.9,345.3,455.8,345.6z"/>
	<path class="st0" d="M366,447.4c-4.2,3.6-8.8,6.6-13.7,9.2c-8.9,4.7-28.5,15-40.1,5.5c-7.5-6.2-9.8-19.1-7.9-29.4
		c3-15.7,16.3-19.6,30.5-36.2c7.8-9.1,17.5-23.7,23.9-47.1"/>
	<path d="M366,447.4c-1.3,1.6-2.7,3-4.2,4.4c-1.5,1.4-3,2.7-4.7,4c-1.6,1.3-3.4,2.5-5,3.6c-1.7,1.1-3.4,2.3-5.2,3.4
		c-0.9,0.5-1.8,0.9-2.8,1.3l-2.9,1.2c-1.9,0.8-3.9,1.5-6,2c-4.2,1.3-8.6,1.9-12.9,1.7c-2.3-0.1-4.6-0.6-6.8-1.4
		c-2.2-0.9-4.3-2.1-6.1-3.7c-1.7-1.6-3.2-3.4-4.3-5.4c-1.1-1.9-2-4-2.7-6.1c-1.9-6.3-2.4-12.9-1.3-19.3c0.4-2.2,1-4.3,1.7-6.4
		c1.7-4.1,4.2-7.9,7.3-11c3-3.1,6.1-5.7,9.1-8.3c3-2.6,5.9-5.2,8.7-8l2-2.1l1.9-2.2c1.3-1.4,2.5-3,3.7-4.5
		c4.7-6.2,8.8-12.9,12.1-19.9c4.2-6.8,7.9-13.9,11.1-21.2c-1,8.1-2.8,16.2-5.4,23.9c-3.5,7.5-7.8,14.5-12.8,21.1
		c-1.3,1.6-2.6,3.2-4,4.8l-2.1,2.3l-2.2,2.2c-2.9,2.9-6,5.7-9,8.3c-6.1,5.3-12.2,10.1-14.7,16.8c-1.2,3.4-1.9,7-1.9,10.7
		c-0.1,3.7,0.5,7.3,1.6,10.9c1,3.3,2.8,6.4,5.3,8.8c2.5,2.2,5.7,3.5,9,3.6c3.7,0.1,7.3-0.4,10.8-1.5c1.8-0.5,3.6-1.2,5.4-1.9
		c0.9-0.4,1.8-0.7,2.7-1.1c0.9-0.5,1.7-0.9,2.7-1.2c3.7-1.3,7.5-2.7,11.1-4.2c1.8-0.8,3.6-1.6,5.4-2.6
		C362.5,449.5,364.2,448.5,366,447.4z"/>
	<path class="st5" d="M318.9,327.2c7.3,0.3,12.9,11.3,13.9,26.1L307,366.7l23.9,9.5c-3.2,13-9.5,22.1-16.3,21.8
		c-8.9-0.3-15.2-16.4-14-36S310.1,326.8,318.9,327.2z"/>
	<path class="st6" d="M284.5,511.6c-12.5,11.3-7.8,44.3,10,62.8c9.2,9.5,22.5,16.6,40.4,18.3c51.7,5,103.9-41.9,97.9-58.7
		c-3.4-9.6-22.9-2-78.6-12.6C309.3,512.8,294.5,502.6,284.5,511.6z"/>
	<path class="st7" d="M438.7,511.8c-10,12.2-5.2,31.5,8.3,38.9"/>
	<path class="st8" d="M365.8,543.4c-45.8,0.3-70.7-4-70.9-35.7c24.4,5.7,50.6,10.8,78.4,15c18.2,2.8,35.8,4.9,52.8,6.6
		C419.4,538.7,408.9,543.2,365.8,543.4z"/>
	<path class="st9" d="M328.4,576.9c18.3-18.2,45.7-14,58.3,6.4c-15.7,7-33.7,11.2-51.8,9.5c-25.1-2.4-41.2-15.3-49.5-30.8
		C308,550.1,325.2,561.9,328.4,576.9z"/>
	
		<ellipse transform="matrix(0.1714 -0.9852 0.9852 0.1714 -95.3104 839.868)" class="st10" cx="451.7" cy="476.6" rx="0.9" ry="0.8"/>
	
		<ellipse transform="matrix(0.1714 -0.9852 0.9852 0.1714 -85.2202 851.2599)" class="st10" cx="463.5" cy="476.3" rx="2.3" ry="2"/>
	
		<ellipse transform="matrix(0.1714 -0.9852 0.9852 0.1714 -110.8013 857.2585)" class="st10" cx="454.3" cy="494.5" rx="2.7" ry="2.4"/>
	
		<ellipse transform="matrix(0.1714 -0.9852 0.9852 0.1714 -113.6196 833.2285)" class="st10" cx="438.6" cy="484.2" rx="1" ry="0.9"/>
	
		<ellipse transform="matrix(0.1714 -0.9852 0.9852 0.1714 -125.6244 844.4545)" class="st10" cx="439.2" cy="496.9" rx="2.2" ry="2"/>
	
		<ellipse transform="matrix(0.1714 -0.9852 0.9852 0.1714 -93.2027 872.4634)" class="st10" cx="472.1" cy="491.6" rx="0.6" ry="0.5"/>
	
		<ellipse transform="matrix(0.1714 -0.9852 0.9852 0.1714 -128.7008 871.5399)" class="st10" cx="453.8" cy="512.3" rx="1.5" ry="1.3"/>
	
		<ellipse transform="matrix(0.1714 -0.9852 0.9852 0.1714 -132.1552 803.4335)" class="st10" cx="411.6" cy="480.3" rx="0.8" ry="0.7"/>
	
		<ellipse transform="matrix(0.1714 -0.9852 0.9852 0.1714 -115.2769 816.705)" class="st10" cx="427.9" cy="476.9" rx="0.5" ry="0.4"/>
	<path class="st11" d="M339.4,316.2c-4.6-1.7-11.4-3.4-19.6-3.5c-7.9-0.1-14.5,1.5-19.1,3c-1.8,0-3.3-1.8-3.3-3.9
		c0-2.1,1.6-3.9,3.4-3.8c4.2-1.7,10.9-3.7,19.1-3.7c8.5,0.1,15.3,2.3,19.6,4.1c1.8,0,3.3,1.8,3.3,3.9
		C342.8,314.5,341.2,316.2,339.4,316.2z"/>
	
		<ellipse transform="matrix(0.1714 -0.9852 0.9852 0.1714 -130.6994 824.3751)" class="st10" cx="424.8" cy="489.9" rx="0.5" ry="0.5"/>
	<ellipse transform="matrix(0.1714 -0.9852 0.9852 0.1714 -149.7817 843.9377)" class="st10" cx="426.8" cy="511" rx="1" ry="0.9"/>
	
		<ellipse transform="matrix(0.1714 -0.9852 0.9852 0.1714 -148.151 888.6416)" class="st10" cx="454.2" cy="532.4" rx="0.6" ry="0.5"/>
	
		<ellipse transform="matrix(0.1714 -0.9852 0.9852 0.1714 -272.8167 603.1815)" class="st10" cx="222.2" cy="463.8" rx="0.5" ry="0.4"/>
	
		<ellipse transform="matrix(0.1714 -0.9852 0.9852 0.1714 -284.1909 614.9248)" class="st10" cx="223.5" cy="476.4" rx="0.8" ry="0.7"/>
	
		<ellipse transform="matrix(0.1714 -0.9852 0.9852 0.1714 -274.4412 615.4557)" class="st10" cx="228.7" cy="470.9" rx="0.6" ry="0.6"/>
	
		<ellipse transform="matrix(0.1714 -0.9852 0.9852 0.1714 -260.1994 623.3979)" class="st10" cx="240.5" cy="466.4" rx="1.8" ry="1.5"/>
	
		<ellipse transform="matrix(0.1714 -0.9852 0.9852 0.1714 -279.0201 625.8973)" class="st10" cx="232.6" cy="478.8" rx="1.6" ry="1.4"/>
	<path class="st10" d="M233.7,464.3L233.7,464.3z"/>
	
		<ellipse transform="matrix(0.1714 -0.9852 0.9852 0.1714 -264.4164 643.1147)" class="st10" cx="250.1" cy="478.8" rx="0.3" ry="0.3"/>
	
		<ellipse transform="matrix(0.1714 -0.9852 0.9852 0.1714 -298.9306 631.6234)" class="st10" cx="226" cy="493.5" rx="0.8" ry="0.7"/>
	
		<ellipse transform="matrix(0.1714 -0.9852 0.9852 0.1714 -263.4538 616.2853)" class="st10" cx="234.7" cy="464.8" rx="1.2" ry="1"/>
	
		<ellipse transform="matrix(0.1714 -0.9852 0.9852 0.1714 -248.3744 642.7416)" class="st10" cx="257.9" cy="469" rx="0.5" ry="0.4"/>
	
		<ellipse transform="matrix(0.1714 -0.9852 0.9852 0.1714 -244.7554 608.0128)" class="st10" cx="239.1" cy="449.5" rx="0.8" ry="0.7"/>
	
		<ellipse transform="matrix(0.1714 -0.9852 0.9852 0.1714 -244.4856 622.1517)" class="st10" cx="247.6" cy="456.4" rx="1.1" ry="1"/>
	<path class="st0" d="M474.1,455.5c0,0-11.6-20.4-39.7-25.5c-21.7-4-31.9,5.6-31.9,5.6"/>
	<path d="M474.1,455.5c-2.3-2.5-4.8-4.8-7.5-6.9c-2.6-2.1-5.3-4-8.1-5.7c-5.5-3.4-11.5-6.1-17.7-8c-6.2-1.9-12.6-3-19.1-3.2
		c-3.3-0.1-6.5,0.2-9.7,0.8c-3.3,0.6-6.5,1.6-9.5,3.2c1.1-1.4,2.4-2.6,3.9-3.6c1.5-1,3-1.9,4.7-2.6c3.3-1.4,6.8-2.4,10.4-2.8
		c1.8-0.2,3.6-0.3,5.4-0.3c0.9,0,1.8,0,2.7,0.1l1.3,0.1l1.3,0.2c0.9,0.1,1.8,0.2,2.7,0.3l2.6,0.5l2.6,0.6c0.9,0.2,1.7,0.5,2.6,0.8
		c6.9,2.1,13.3,5.5,18.8,10c2.7,2.2,5.2,4.8,7.4,7.6c1.1,1.4,2.1,2.8,3,4.3C472.7,452.2,473.4,453.8,474.1,455.5z"/>
	<path class="st11" d="M483.9,338.7c-4.9-3.4-12.2-7.4-21.7-9.7c-9.2-2.2-17.3-2-23.1-1.4c-2.1-0.5-3.4-3.2-2.7-5.8
		c0.7-2.7,3-4.4,5.1-3.9c5.4-1,13.7-1.7,23.3,0.6c9.9,2.4,17.1,7,21.5,10.5c2.1,0.5,3.4,3.2,2.7,5.8
		C488.3,337.4,486.1,339.2,483.9,338.7z"/>
</g>
</svg>
