<svg id="Layer_1" data-name="Layer 1" xmlns="http://www.w3.org/2000/svg" viewBox="0 0 994.83 1031.93"><defs><style>.cls-1{fill:#ffe757;fill-rule:evenodd;}.cls-1,.cls-10,.cls-11,.cls-12,.cls-3,.cls-4,.cls-5,.cls-6,.cls-7,.cls-9{stroke:#333;}.cls-1,.cls-10,.cls-11,.cls-7,.cls-8,.cls-9{stroke-miterlimit:10;}.cls-1,.cls-11,.cls-9{stroke-width:9.53px;}.cls-2{fill:#ff7545;}.cls-10,.cls-11,.cls-12,.cls-3,.cls-5,.cls-9{fill:none;}.cls-10,.cls-12,.cls-3,.cls-4,.cls-5,.cls-6,.cls-9{stroke-linecap:round;}.cls-12,.cls-3,.cls-4,.cls-5,.cls-6{stroke-linejoin:round;}.cls-3,.cls-4{stroke-width:8.1px;}.cls-4,.cls-6{fill:#fcfcfc;}.cls-5{stroke-width:7.85px;}.cls-6{stroke-width:6.76px;}.cls-7{fill:#2b2b2b;}.cls-7,.cls-8{stroke-width:4.76px;}.cls-8{fill:#fff;stroke:#fff;}.cls-10{stroke-width:8.14px;}.cls-12{stroke-width:7.7px;}</style></defs><g id="ring"><g id="outerRing1"><polygon class="cls-1" points="497.4 9.05 567.83 128.15 684.47 47.64 705.57 185.61 843.05 157.53 811.64 293.37 949.02 321.98 869.87 435.01 986.23 515.97 871.38 588.99 949.02 709.95 815.98 731.84 843.05 874.4 712.06 841.84 684.47 984.29 575.48 902.21 497.4 1022.87 427 903.79 310.33 984.29 289.24 846.32 151.75 874.4 183.17 738.57 45.81 709.95 124.96 596.92 8.6 515.97 123.42 442.94 45.81 321.98 178.83 300.11 151.75 157.53 282.74 190.11 310.33 47.64 419.33 129.72 497.4 9.05 497.4 9.05"/></g></g><g id="groupHead"><g id="faceGroup1"><circle class="cls-2" cx="497.36" cy="514.63" r="319.36"/><path class="cls-3" d="M551.44,542.55c37.12-36.88,89.61-43.85,123.76-21.09,29,19.33,35,53.6,36.25,61.58" transform="translate(0 0)"/><path class="cls-3" d="M294.56,597.36c-2-5-11.09-29,.79-50.82,13.64-25,44.69-28.42,57.18-29.78a97.67,97.67,0,0,1,44.07,5.56" transform="translate(0 0)"/><path class="cls-3" d="M406.13,558.45c-11-21.35-6.23-45.19,7.14-55.19,16.64-12.44,49.91-5.92,64.32,23" transform="translate(0 0)"/><path class="cls-4" d="M339.76,612.13c-2.2,25.12,19.52,41.23,40,50.17,5.64,2.45,11.42,4.56,17.25,6.48,57.36,18.88,119,28.25,177.63,9.4,18-5.79,36.33-13.35,51.68-24.9,13.14-9.88,30.57-26.73,28.63-44.83-2.85-27-36.42-28-56.33-22.26-27,7.81-53.14,19-81.07,23.13-26,3.94-49.6-1.13-74.2-9.21-24.94-8.19-50.72-16.28-77.31-14.39C350.6,586.82,341,598.06,339.76,612.13Z" transform="translate(0 0)"/><line class="cls-5" x1="401.79" y1="592.44" x2="382.63" y2="663.49"/><path class="cls-6" d="M456.68,603.72,438.81,677Z" transform="translate(0 0)"/><line class="cls-3" x1="576.53" y1="594.51" x2="598.4" y2="667.77"/><path class="cls-7" d="M342.23,514.94a5.25,5.25,0,0,1-3.29-1.51c-1.93-1.89-2.82-4.73-3.45-7.27a61.82,61.82,0,0,1-1.32-16.78c.32-9.79,3.23-20.3,9-28.33,4-5.53,15-14.46,10.2-22.28a19,19,0,0,0-4.12-4.13c-7.45-6.46-10.09-15-12.25-24.29-4.42-19-2.74-39.24,3.83-57.57,5.08-14.15,15-32.47,32.34-32.42,12,0,20.43,10.62,27.27,19.32,6.11,7.78,12.47,18.88,17.47,41,3.17,14.1,3.86,28.58,4.83,43a252.37,252.37,0,0,0,6.39,42.61c1.86,7.74,8,22.35.39,28.66-4.7,3.92-11.66,3.44-16,8-3.11,3.3-4.64,7.75-6.92,11.67-3.21,5.53-8.13,8.69-14.59,7.44-14.42-2.78-27-11-42.31-8.34C347.28,514.15,344.62,515.18,342.23,514.94Z" transform="translate(0 0)"/><path class="cls-8" d="M414.54,497.07c-1.54.73-3,1-3.83.05a4.73,4.73,0,0,1-1-2c-1.13-3.93-.7-8.39-.88-12.45-1.38-31.05-4.26-62.61-13.72-92.38a294.67,294.67,0,0,0-10.62-27.66c-2.29-5.28-5.11-10.31-7.51-15.53-1.92-4.2-5.79-11.47-4.53-16.24,1.76-6.65,11.54,1.06,14.18,3.14a63.91,63.91,0,0,1,11.46,11.72c6,8,9,17.51,11.92,27a194.27,194.27,0,0,1,8.23,40.35c1.09,13.06,2.44,26.1,4.24,39.08,1.26,9.1,3.26,18.07,4.62,27.14.71,4.76-1.89,9-5.2,12.19C420.72,492.55,417.41,495.72,414.54,497.07Z" transform="translate(0 0)"/><path class="cls-7" d="M641.54,505.38c2.86-2.64,3.7-7,4.21-11a323.37,323.37,0,0,0-10.1-129.91c-4.34-15.12-10.46-30.92-23.36-39.92-3.9-2.72-8.44-4.74-13.19-4.88-9.5-.27-17.54,6.79-23.68,14.05-15.77,18.65-26.16,41.49-31.88,65.24-2.21,9.17-3.52,19.62,1.87,27.36,4,5.69,10.7,8.62,16.32,12.68s10.64,10.88,8.5,17.48c-3.3,10.19-19.61,10-24.47,19.53-1.76,3.44-1.62,7.5-1.45,11.36l1.64,35.5c.26,5.7-.27,12.11.8,17.71,1.76,9.29,15.32-7,18.36-9.34,19.52-14.86,44.3-20.15,68.19-23,2.51-.3,5.14-.62,7.25-2A9,9,0,0,0,641.54,505.38Z" transform="translate(0 0)"/><path class="cls-8" d="M636.27,501.41a253.08,253.08,0,0,0,6.09-58c-.12-10.66-1.31-20.69-3.7-40.76-.66-5.48-3.76-30.57-12.18-51.35a47.78,47.78,0,0,0-13-17.74c-1.61-1.35-6.46-5.46-8.2-4.23-2.44,1.71,2.67,12.81,3.44,14.56,5.42,12.38,10.41,52.58,11.91,158.28" transform="translate(0 0)"/><path class="cls-9" d="M316.2,319a38.11,38.11,0,0,1,9.92-16.68,38.63,38.63,0,0,1,22.44-10.52" transform="translate(0 0)"/><path class="cls-10" d="M616.72,283.74a32.56,32.56,0,0,1,15.6,5.6,32.89,32.89,0,0,1,12.48,17.1" transform="translate(0 0)"/><circle id="HeadOutline" class="cls-11" cx="497.42" cy="515.96" r="320.8"/><line class="cls-12" x1="519.82" y1="612.17" x2="525.6" y2="684.81"/></g></g></svg>