<svg xmlns="http://www.w3.org/2000/svg" viewBox="0 0 381.45 136.73"><g id="Layer_3" data-name="Layer 3"><path d="M262.67,93.27c-3.35-10.87,1.52-17.09,10.79-18.77,11.74-2.13,24-4.62,35.66-3.29,20.44,2.34,30.3,15.28,30.66,36.28.26,15.52-.19,31.05.17,46.57.15,6.44-1.88,9.81-8.42,8.93-7.77-1-17.07,4-22.62-6.09-11.35,7.23-23.15,9.29-35.92,5.34-11-3.38-18-10.25-19.39-21.89-1.35-11.28,3.51-20.17,13.51-24.71,11-5,22.7-8.19,33.92-12.63,3.49-1.38,9.4-5.37,9.08-6.26-1.82-5-4.43-12.49-8.22-13.49-7-1.86-15.29-.84-22.59.9C273.68,85.51,268.75,89.81,262.67,93.27Zm49.8,22.24L308.68,113c-8.14,2.13-16.93,3-24.21,6.82-4.82,2.53-9.2,8.79-10.71,14.25-2,7.41,2.88,13.18,10.11,15.48,9.15,2.89,18.09.52,22.23-7.91C309.94,133.76,310.48,124.27,312.47,115.51Z" transform="translate(-94.11 -28.54)" fill="#fffcf8"/><path d="M174.42,53.05c-10,.94-19.88,4.07-23.23-10-.5-2.09-5.81-4.26-8.76-4.09-2.25.14-5.73,3.64-6.18,6.11a123.2,123.2,0,0,0-1.74,22.46c0,1.6,3.38,4.06,5.55,4.58,3.39.8,7.23-.31,10.61.53,2.07.52,3.63,3.16,5.41,4.85-1.53,1.65-2.8,4.27-4.63,4.75-5.36,1.43-14.21.31-15.71,3.28-2.79,5.54-1.57,13.26-1.63,20.08-.14,15.89-.41,31.8.11,47.67.25,7.78-2.68,9.83-9.9,9.92-19,.23-19,.52-19-18.94V87L94.11,77.49,104.61,69c4-26.17,14.68-37.7,36.69-37.9C162.53,30.88,171.75,36.69,174.42,53.05Z" transform="translate(-94.11 -28.54)" fill="#fffcf8"/><path d="M240.33,141.28c3.36,10.85-1.2,16.71-10.18,19.84-15.76,5.49-31.62,6.15-46.71-1.74-19.42-10.17-27-36.54-18.23-61.06,7.17-20.07,29.17-32.46,50.13-27.7,14.63,3.32,23.15,13.56,27.54,27.56,1.64,5.21.54,8.81-5.94,10-12.95,2.39-25.69,6-38.66,8.24-6.35,1.12-7.24,4.18-6.51,9.72,2.76,21.16,22.41,31.1,40.6,20.33C234.8,145,237.12,143.39,240.33,141.28Zm-47.55-32.15L224.13,102c-1.35-17.11-7.33-25.17-17.07-24.27C196.51,78.66,190.31,91.65,192.78,109.13Z" transform="translate(-94.11 -28.54)" fill="#fffcf8"/><path d="M467.51,86.42c-7.92-1.17-15.24-2.53-22.63-3.24a30.59,30.59,0,0,0-11.53.86c-2.72.83-6.48,3.25-6.86,5.47s2.65,5.6,5,7.15c10.2,6.63,20.89,12.48,31,19.18C471,121.39,477.11,128.5,475.2,140c-1.82,11-8.85,16.9-18.36,20.54-17,6.53-34.46,4.53-51.63,1.1-2.47-.49-3.82-6.65-7.1-12.86,9.81,1.56,16,2.9,22.19,3.43,6.39.54,12.93,1,19.22.12,3.72-.52,7.08-3.69,10.61-5.68-2.29-2.94-4-6.79-7-8.66-10.56-6.71-22.09-11.94-32.21-19.22-15.95-11.47-14.19-32.09,3.23-41.08a45.42,45.42,0,0,1,18.34-5.06c9.52-.4,19.12,1.28,28.7,1.58C469.26,74.5,469.71,78.84,467.51,86.42Z" transform="translate(-94.11 -28.54)" fill="#fffcf8"/><path d="M342.12,38.65c.67-.82,1.19-2.13,1.93-2.27,13.23-2.61,26.48-5.07,41.19-7.84.53,4.32,1.35,8,1.36,11.71.1,36.88-.49,73.79.35,110.65.3,13.27-6.91,11.92-15.46,12.37-9.67.52-14-1.67-13.67-12.9.81-28.19.27-56.41.26-84.62C358.07,46.59,358.05,46.59,342.12,38.65Z" transform="translate(-94.11 -28.54)" fill="#fffcf8"/></g></svg>