<svg id="ghost1" xmlns="http://www.w3.org/2000/svg" viewBox="0 0 563.08 609.87"><path d="M239.52,161.3C250.9,110.29,325.59,36.19,402,48c75.25,11.66,111.1,100.28,113.27,105.85,15.05,38.76,2.56,51,22.92,111.92,14.65,43.85,22,65.78,43.15,87.65,15.91,16.42,38.19,31.31,73.49,69.44,7.63,8.24,16.71,18.47,14.16,28.32-4,15.3-31.25,11.19-40.45,29-10.1,19.52,15.08,39.27,4.72,59.33-7.21,13.94-21,7.52-38.43,24.27-18.55,17.81-10.76,32.52-29,53.94-14,16.39-31.27,22.77-44.49,27.64-24,8.83-42.85,7.73-71.47,6.07-21.08-1.22-25.51-4-28.32-6.74-13.59-13.4.27-37.48-10.78-46.52-6.65-5.44-16.38-.58-53.94,12.81-4.31,1.53-25.57,8-68.1,20.9-20.23,6.14-31.66,9.43-43.82,4-2-.9-13.34-6.13-18.88-18.2-9.62-20.93,8.15-40.54.67-47.87-8-7.84-29.11,13.8-64.05,13.49-6.89-.07-36.62-.33-47.87-18.88-12.57-20.74,5.59-51.69,8.09-56,15.08-25.71,33.54-25.92,35.74-43.83,1.66-13.53-8.55-16.08-16.18-42.47-3.35-11.58-8.27-28.6-4.05-45.85,4.7-19.23,16.2-20.11,42.48-51.91,12.35-14.95,25.21-30.76,34.38-53.94,3.68-9.3,4.78-14.76,11.46-47.2C235,183.2,239.11,163.14,239.52,161.3Z" transform="translate(-108.38 -44.74)" fill="#fff" stroke="#232323" stroke-miterlimit="10" stroke-width="4.05"/><path d="M277.28,193A283.6,283.6,0,0,0,264,236.38c-9.89,45-6.15,81.28,14.63,214.16,0,0,10.84,69.31-2.7,122-3.44,13.41-9.26,27.35-22.25,36.41a51.87,51.87,0,0,1-24.94,8.76" transform="translate(-108.38 -44.74)" fill="none" stroke="#232323" stroke-linecap="round" stroke-miterlimit="10" stroke-width="4.05"/><path d="M225.27,366.26a428.39,428.39,0,0,1,2,74.49,433.49,433.49,0,0,1-10.78,73.41" transform="translate(-108.38 -44.74)" fill="none" stroke="#232323" stroke-linecap="round" stroke-miterlimit="10" stroke-width="3.63"/><path d="M158.62,464.69q2.2-5.13,4.36-10.36a716.36,716.36,0,0,0,29.35-86.72" transform="translate(-108.38 -44.74)" fill="none" stroke="#232323" stroke-linecap="round" stroke-miterlimit="10" stroke-width="3.54"/><path d="M228.06,571.22a86.18,86.18,0,0,1,36.13,27.61" transform="translate(-108.38 -44.74)" fill="none" stroke="#232323" stroke-miterlimit="10" stroke-width="4.05"/><path d="M421.56,644c10.43-3.15,23.76-9.16,30.34-21.58,12.65-23.88-9.5-52.93-26.29-101.13a358.87,358.87,0,0,1-18.88-93" transform="translate(-108.38 -44.74)" fill="none" stroke="#232323" stroke-linecap="round" stroke-miterlimit="10" stroke-width="4.05"/><path d="M403.53,596a50.36,50.36,0,0,1,24.77-.53,51.13,51.13,0,0,1,27,16.57" transform="translate(-108.38 -44.74)" fill="none" stroke="#232323" stroke-miterlimit="10" stroke-width="4.05"/><path d="M497.07,457.53a326.76,326.76,0,0,1,40.83,21c23.72,14.35,35.74,21.81,43.72,35.65,7.71,13.37,13.82,34.81,7.74,51-.94,2.5-2.92,6.88-6.3,16-3.12,8.39-5.41,15.37-6.89,20" transform="translate(-108.38 -44.74)" fill="none" stroke="#232323" stroke-linecap="round" stroke-miterlimit="10" stroke-width="4.05"/><path d="M535.22,507.18a67.17,67.17,0,0,1,18.38,49.87" transform="translate(-108.38 -44.74)" fill="none" stroke="#232323" stroke-linecap="round" stroke-miterlimit="10" stroke-width="4.05"/><path d="M510.91,368.05c18.07,25.28,36.6,36.34,50.69,41.7,6.82,2.6,11.64,3.5,18.73,7.46,18.73,10.47,27.91,28.16,32.77,42" transform="translate(-108.38 -44.74)" fill="none" stroke="#232323" stroke-linecap="round" stroke-miterlimit="10" stroke-width="3.11"/><ellipse cx="357.17" cy="176.8" rx="26.63" ry="48.54" transform="translate(-123.67 -9.73) rotate(-5.49)" fill="#232323"/><ellipse cx="431.65" cy="164.42" rx="26.63" ry="48.54" transform="translate(-122.14 -2.66) rotate(-5.49)" fill="#232323"/><ellipse cx="296.27" cy="207.91" rx="9.8" ry="17.87" fill="#232323"/><rect x="390.32" y="296.92" width="144.71" height="64.95" transform="matrix(0.98, -0.19, 0.19, 0.98, -162.02, 48.03)" fill="#f2f9d7" stroke="#232323" stroke-linejoin="round" stroke-width="4.05"/><line x1="283.43" y1="294.65" x2="424.7" y2="267.63" fill="#6698e2" stroke="#232323" stroke-linejoin="round" stroke-width="4.05"/><rect x="388.92" y="298.6" width="140.49" height="25.84" transform="translate(-158.72 47.06) rotate(-10.83)" fill="#58aae9"/><text transform="translate(298.78 284.84) rotate(-10.83)" font-size="24.27" fill="#232323" font-family="Gadugi">Freelancer</text><text transform="translate(333.13 312.29) rotate(-10.83)" font-size="32.36" fill="#232323" font-family="Calibri">Carl</text><path d="M230.22,573.11c-8.8,2.48-7.17,28.61-7.09,29.76.5,7.18.88,12.75,4.65,14.91,4.29,2.46,10.49-1.18,22.89-8.45,8.71-5.1,13.07-7.72,13.22-10.88.18-3.55-3.67-5.18-18.11-15.78C234.3,574.24,232.8,572.38,230.22,573.11Z" transform="translate(-108.38 -44.74)" fill="#232323" opacity="0.24"/><path d="M177.11,534.22" transform="translate(-108.38 -44.74)" fill="#232323"/><path d="M410.11,595.44c-.42,1,1.1,1.7,3.11,5,3.87,6.34,3.93,13.18,4,21.56,0,4.28-.29,4.25-.11,7.89.35,7,.61,12.31,2.89,13.89,6.71,4.65,38.31-17.48,34.22-31.89-1.55-5.46-7.78-8.24-16.44-12.11C425.83,594.44,411.35,592.39,410.11,595.44Z" transform="translate(-108.38 -44.74)" fill="#232323" opacity="0.27"/><path d="M465.11,585.89" transform="translate(-108.38 -44.74)" fill="#232323"/></svg>