<svg xmlns="http://www.w3.org/2000/svg" viewBox="0 0 879.16 328.85"><g id="redButton1"><ellipse cx="832.72" cy="210.88" rx="42" ry="113.53" fill="#848281" stroke="#232323" stroke-miterlimit="10" stroke-width="8.88"/><path d="M708.34,507.44c-7.83,6.4-13.66.25-48.12,5.67-12.1,1.9-12.86.68-13.33.22-6.46-6.2,21.73-29.55,22-60.66.26-30.87-27.08-53.47-20-60.54,1.4-1.4,2.53-.57,15.15,0,15.75.69,19.8,1.48,31.62,1.41,6.19,0,12.53.32,16.06,6.12a30.46,30.46,0,0,1,3.51,10.77c2.13,12.63,1.57,25.81,1.63,38.57l0,5.79C717,485.1,717,500.4,708.34,507.44Z" transform="translate(130.28 -241.49)" fill="#af473c" stroke="#232323" stroke-miterlimit="10" stroke-width="7.49"/><ellipse id="button1" cx="771.08" cy="210.88" rx="28.86" ry="62.73" fill="#d35442" stroke="#232323" stroke-miterlimit="10" stroke-width="6.88"/></g><g id="handButton"><path d="M-364.78,31.61" transform="translate(130.28 -241.49)" fill="#fff" stroke="#232323" stroke-miterlimit="10" stroke-width="6.27"/><path d="M313.43,426.55c-3.44,7.18-18.72,1.46-25.22-1.08C215.83,397.16,151.7,341.1,98.28,325.21c-92.35-27.47-185.67,55.3-215.2-1.13-2.78-5.31-11.65-22.25-6.39-37.15,7-19.87,35.07-24.62,48.65-26.64,92-13.69,138.05-20.53,196.21-2.88,23.64,7.18,104.76,34.44,163.81,113.59C293.2,381.51,318.65,415.62,313.43,426.55Z" transform="translate(130.28 -241.49)" fill="#232323" stroke="#232323" stroke-miterlimit="10" stroke-width="10.66"/><ellipse cx="304.19" cy="392.3" rx="70.02" ry="44.6" transform="translate(-55.47 230.78) rotate(-61.48)" fill="#fff" stroke="#2d1f17" stroke-miterlimit="10" stroke-width="4.8"/><path d="M449.8,371.44c87.44-54.21,29.95-100.2,2-84.42-26.19,14.79-21,43.08-43.65,45.68-43.67,5-90.29,2.3-110.41,74.84s30.52,100.71,53,99.25c0,0,39.82,44.16,73.23,21.53,29.76-20.15,5.51-44.08,5.51-44.08,13.44,2.59,26.71-4.56,31.61-16.48,5.1-12.38-.34-27.8-11.91-34.5-2-1.14,5.87.91,19.05,5.94,6.34,2.41,12.83,4.42,19.22,6.7,19.56,7,45.88,16.37,57.91,5.52,5.92-5.34,7.51-14.77,6.09-21.79-2.38-11.82-13.65-18.64-41.25-31.75C494.56,390.44,474.18,381.24,449.8,371.44Z" transform="translate(130.28 -241.49)" fill="#fff" stroke="#232323" stroke-miterlimit="10" stroke-width="4.8"/><path d="M395.55,471.32s22.34,16.05,42.26,12.3" transform="translate(130.28 -241.49)" fill="none" stroke="#232323" stroke-linecap="round" stroke-miterlimit="10" stroke-width="4.8"/><path d="M407.21,412.53q19.59,9.33,39.39,19.22,4.27,2.13,8.53,4.28" transform="translate(130.28 -241.49)" fill="none" stroke="#232323" stroke-linecap="round" stroke-miterlimit="10" stroke-width="4.59"/><path d="M411.85,357.05c14.54,3.59,34.13,11.8,39.11,15.1" transform="translate(130.28 -241.49)" fill="none" stroke="#232323" stroke-linecap="round" stroke-miterlimit="10" stroke-width="4.8"/><path d="M-114.78,171.92" transform="translate(130.28 -241.49)" fill="#fff" stroke="#232323" stroke-miterlimit="10" stroke-width="4.8"/></g></svg>