<?xml version="1.0" encoding="utf-8"?>
<!-- Generator: Adobe Illustrator 25.2.3, SVG Export Plug-In . SVG Version: 6.00 Build 0)  -->
<svg version="1.1" xmlns="http://www.w3.org/2000/svg" xmlns:xlink="http://www.w3.org/1999/xlink" x="0px" y="0px"
	 viewBox="0 0 66 66" style="enable-background:new 0 0 66 66;" xml:space="preserve">
<style type="text/css">
	.st0{fill:#FFFDF5;}
</style>
<g id="Layer_3">
	<path class="st0" d="M63.3,51.6c-6.7,1.6-10.7,1.6-13.3,1.1c-0.7-0.1-2.6-0.5-3.4,0.5c-1,1.1,0.5,3.1-0.4,4.3
		c-0.8,1.1-3,0.6-5.5,0.3c-7.7-0.8-11.7,1.9-13.1-0.1c-1-1.5,0.9-3.1-0.1-4.5c-1.3-1.8-4.7-0.4-11.3-1.1c-1.7-0.2-3.1-0.4-4-0.7
		c-0.7-1.1-1.7-2.8-2.3-5c-0.9-3.6,0.2-4.8,0-9.4c-0.2-3.5-0.4-8.5-3.5-10.5c-1.3-0.8-2.6-0.8-3.2-2.1c-0.6-1.2,0.2-1.9,0-4.1
		c-0.2-2.6-1.9-3.5-1.3-4.6c0.5-0.9,1.8-0.5,3.1-1.6c1.2-1,1.5-2.6,1.5-3.8c0.5-0.6,1.2-1.3,2-1.3c0.7,0,0.8,0.5,1.8,0.7
		c0.2,0,1.4,0.3,2.7-0.2c1-0.4,1-1,1.8-1.2c0.7-0.2,1.7,0.1,2,0.6c0.4,0.6-0.3,1.2-0.1,1.8c0.4,1.4,2.9,1.8,4.8,2.1
		c6,0.9,8.3,0.9,8.3,0.9c5.8,0,10,0,14.1,0.2c6.7,0.3,6.1,0.7,9.3,0.5c2.1-0.1,4.3-0.4,7.3,0.2c1.6,0.4,2.9,0.9,3.8,1.3
		C64.1,27.9,63.7,39.8,63.3,51.6z"/>
</g>
<g id="information-technology">
	<path d="M37.8,45.4c-0.7-0.2-2.1-0.1-2.9,0.5c-2.3,1.7-0.6,4.8,2,4.8c0.2,0,0.5,0,0.7-0.1c1.1-0.3,1.9-1.5,1.9-2.6
		C39.5,47,38.9,45.7,37.8,45.4z M37.3,49.7c-0.5,0.2-1.1,0-1.7-0.4c-1-0.8-0.9-1.9-0.1-2.5c0.5-0.4,0.9-0.3,1.4-0.4
		c0.2,0,0.5,0,0.6,0c0.5,0.1,0.9,1,0.9,1.6C38.5,48.8,38,49.5,37.3,49.7z"/>
	<path d="M3.1,19.5c0,0.7,0.1,1.3,0.3,2c-0.6,0.5-1.2,1-1.7,1.5c-0.2,0.2-0.2,0.4-0.1,0.6l0.5,0.9c0.4,0.6,0.8,1.2,1.1,1.8
		c0.1,0.2,0.3,0.3,0.5,0.2c0.8-0.1,1.6-0.3,2.3-0.4c0.5,0.5,1,0.9,1.6,1.3c0,0.8-0.1,1.5-0.2,2.3c0,0.2,0.1,0.5,0.4,0.5
		c0.5,0.1,1,0.2,1.4,0.3L9.2,42.8c0,0,0,0.1,0,0.2c0,0.1,0,0.1,0,0.2l0,0.1c-0.1,7.9,2.5,9.9,9,9.9h0l9.4,0c-0.2,1.4-0.5,2.8-1,4.1
		l-2,0h0c-0.3,0-0.5,0.2-0.5,0.5c0,0.3,0.2,0.5,0.5,0.5l25.1,0.3h0c0.3,0,0.5-0.2,0.5-0.5c0-0.3-0.2-0.5-0.5-0.5l-2,0
		c-0.5-1.4-0.8-2.8-1-4.3l11.7,0c4.6,0,6-1.4,6.1-6.2L65,20c0.1-4.5-1.3-6.3-6.3-6.3l-35.8-0.5l-0.6-0.9C22.2,12,22,12,21.8,12
		c-0.8,0.1-1.6,0.3-2.3,0.4c-0.5-0.5-1-0.9-1.6-1.3c0-0.8,0.1-1.5,0.2-2.3c0-0.2-0.1-0.5-0.4-0.5l-3.1-0.7c-0.2,0-0.4,0-0.5,0.2
		c-0.4,0.7-0.9,1.3-1.4,1.9c-0.7,0-1.4,0.1-2,0.3c-0.5-0.6-1-1.2-1.5-1.8C8.9,8,8.6,7.9,8.4,8.1L8.2,8.2c-0.8,0.5-1.7,1-2.5,1.6
		c-0.2,0.1-0.3,0.3-0.2,0.5c0.2,0.8,0.3,1.6,0.4,2.3c-0.5,0.5-0.9,1-1.2,1.6c-0.8,0-1.5-0.1-2.3-0.2c-0.2,0-0.5,0.1-0.5,0.4L1.6,15
		c-0.2,0.8-0.4,1.7-0.6,2.5c0,0.2,0,0.4,0.2,0.5C1.9,18.5,2.6,19,3.1,19.5z M30.3,54.7C30.3,54.7,30.3,54.7,30.3,54.7L29.6,54
		l0.6-0.6c0,0,0,0,0-0.1l0.7,0.7L30.3,54.7z M29.2,53.7l-0.5-0.5h1L29.2,53.7z M27.6,57.2l0-0.1L27.6,57.2L27.6,57.2z M28,56.8
		l-0.2-0.2c0.1-0.3,0.2-0.7,0.3-1l0.6,0.6C28.7,56.2,28,56.8,28,56.8z M28.5,53.6l0.4,0.4l-0.6,0.6C28.4,54.3,28.4,53.9,28.5,53.6z
		 M28.3,57.3l0.7-0.7l0,0c0.1,0.1,0.3,0.1,0.4,0s0.1-0.3,0-0.4l0,0l0,0c0.1-0.1,0.1-0.3,0-0.4c-0.1-0.1-0.3-0.1-0.4,0c0,0,0,0,0,0
		l0,0l-0.7-0.7c0,0,0,0,0.1,0c0.1,0,0.1,0,0.2-0.1l0.7-0.7l0.8,0.8c0,0,0.1,0.1,0.2,0.1c0.1,0,0.2-0.1,0.2-0.2c0.1,0,0.1,0,0.2-0.1
		l0.6-0.6l0.3,0.3c0.1,0.1,0.3,0.1,0.4,0s0.1-0.3,0-0.4l-0.3-0.3l0.4-0.4c0.1-0.1,0.1-0.3,0-0.4c-0.1-0.1-0.3-0.1-0.4,0c0,0,0,0,0,0
		l-0.4,0.4l-0.6-0.6h1.8l0.6,0.6l-0.6,0.6c-0.1,0.1-0.1,0.3,0,0.4s0.3,0.1,0.4,0l0.6-0.6l0.6,0.6c0.1,0.1,0.3,0.1,0.4,0c0,0,0,0,0,0
		c0,0,0.1-0.1,0.1-0.2c0.1,0.1,0.2,0.1,0.3,0l0.6-0.6l0.8,0.8c0.1,0.1,0.3,0.1,0.4,0s0.1-0.3,0-0.4l-0.8-0.8l0.4-0.4H37l0.5,0.5
		l-0.6,0.6c-0.1,0.1-0.1,0.3,0,0.4s0.3,0.1,0.4,0l0.6-0.6l0.6,0.6c0.1,0.1,0.3,0.1,0.4,0s0.1-0.3,0-0.4l-0.6-0.6l0.4-0.4
		c0,0,0,0,0-0.1h1.3l0.1,0.1L39,54.3c-0.1,0.1-0.1,0.3,0,0.4s0.3,0.1,0.4,0l1.1-1.1l1.1,1.1c0.1,0.1,0.4,0.1,0.4-0.2l0.8-0.8
		l1.1,1.1c0.1,0.1,0.3,0.1,0.4,0s0.1-0.3,0-0.4l0,0c0.1,0,0.1,0,0.2-0.1l0.5-0.5l0,0c0.1,0.1,0.3,0.1,0.4,0s0.1-0.3,0-0.4l0,0
		l0.4-0.4c0.2,1.5,0.5,2.9,1,4.3L28.3,57.3L28.3,57.3z M34.5,54.2c0,0-0.1,0.1-0.1,0.2l-0.6-0.6l0.6-0.6h0.2l0.4,0.4
		C35.1,53.6,34.5,54.2,34.5,54.2z M35.4,53.1h0.2H35.4L35.4,53.1z M33.5,53.4l-0.3-0.3h0.6C33.8,53.1,33.5,53.4,33.5,53.4z M38,53.1
		l-0.1,0.1l-0.1-0.1C37.8,53.1,38,53.1,38,53.1z M41.7,51.9c0.1,0.1,0.3,0.1,0.4,0c0,0,0,0,0,0c0.1-0.1,0.1-0.3,0-0.4c0,0,0,0,0,0
		l-0.3-0.3l0.7-0.7l1,1l-0.6,0.6h-2l0.5-0.5L41.7,51.9z M46.6,51.9c0.1,0.1,0.3,0.1,0.4,0s0.1-0.3,0-0.4l-0.3-0.3l1.5-1.5l1.2,1.2
		l-1,1c0,0,0,0.1-0.1,0.1l-2.5,0l0.5-0.5L46.6,51.9z M50.5,51.4L50.1,51l1.6-1.6l1.2,1.2l-1.2,1.2c-0.1,0.1-0.1,0.2,0,0.3l-2.7,0
		l0.8-0.8l0.4,0.4c0.1,0.1,0.3,0.1,0.4,0S50.6,51.5,50.5,51.4z M54.6,51.5l-0.9-0.9l1.5-1.5l1.3,1.3l-1.1,1.1
		c-0.1,0.1-0.1,0.3,0,0.4c0.1,0.1,0.3,0.1,0.4,0c0,0,0,0,0,0l1.1-1.1l1.4,1.4l-6.1,0l1.2-1.2l0.9,0.9c0.1,0.1,0.3,0.1,0.4,0
		C54.7,51.8,54.7,51.7,54.6,51.5C54.6,51.6,54.6,51.6,54.6,51.5z M57.2,50.4l1.1-1.1l1.4,1.4l-1.1,1.1L57.2,50.4z M44,54.2l-0.9-0.9
		l0.2-0.2h0.8l0.4,0.4L44,54.1C44,54.1,44,54.2,44,54.2z M41.6,54.1l-0.9-0.9c0,0,0,0,0,0h1.5c0,0,0,0.1,0,0.1l0.1,0.1L41.6,54.1z
		 M44.8,53.1H45H44.8L44.8,53.1z M45.3,52c0,0,0,0.1-0.1,0.1h-0.8c0.1-0.1,0.1-0.2,0-0.3l-0.3-0.3l1-1l0.8,0.8
		C46,51.3,45.3,52,45.3,52z M44.1,52.1h-0.5l0.3-0.3L44.1,52.1z M59,52.1l1.1-1.1l0.6,0.6c0.1,0.1,0.3,0.1,0.4,0s0.1-0.3,0-0.4
		l-0.6-0.6l1.7-1.7l0.4,0.4c0.1,0.1,0.3,0.1,0.4,0s0.1-0.3,0-0.4l-0.4-0.4l0.3-0.3c0.1-0.1,0.1-0.3,0-0.4s-0.3-0.1-0.4,0l-0.3,0.3
		l-0.5-0.5l1.1-1.1c0.1-0.1,0.1-0.3,0-0.4s-0.3-0.1-0.4,0l-1.1,1.1l-0.7-0.7c-0.1-0.1-0.3-0.1-0.4,0s-0.1,0.3,0,0.4l0.7,0.7
		l-0.4,0.4c-0.1,0.1-0.1,0.3,0,0.4s0.3,0.1,0.4,0l0.4-0.4l0.5,0.5l-1.7,1.7l-1.4-1.4l1.2-1.2c0.1-0.1,0.1-0.3,0-0.4s-0.3-0.1-0.4,0
		l-1.2,1.2l-1-1c-0.1-0.1-0.3-0.1-0.4,0s-0.1,0.3,0,0.4l1,1L56.8,50l-1.3-1.3l1.9-1.9c0.1-0.1,0.1-0.3,0-0.4s-0.3-0.1-0.4,0
		l-1.9,1.9l-0.5-0.5c-0.1-0.1-0.3-0.1-0.4,0s-0.1,0.3,0,0.4l0.5,0.5l-1.5,1.5L52,49l1.8-1.8c0.1-0.1,0.1-0.3,0-0.4c0,0,0,0,0,0
		c-0.1-0.1-0.3-0.1-0.4,0c0,0,0,0,0,0l-1.8,1.8l-0.3-0.3c-0.1-0.1-0.3-0.1-0.4,0s-0.1,0.3,0,0.4l0.3,0.3l-1.6,1.6l-1.2-1.2l1.5-1.5
		c0.1-0.1,0.1-0.3,0-0.4s-0.3-0.1-0.4,0l-1.5,1.5c-0.1-0.1-0.2-0.1-0.3,0s-0.1,0.2,0,0.3l-1.5,1.5l-0.8-0.8l1.4-1.4
		c0.1-0.1,0.1-0.3,0-0.4s-0.3-0.1-0.4,0l-1.4,1.4l-0.3-0.3c-0.1-0.1-0.3-0.1-0.4,0s-0.1,0.3,0,0.4l0.3,0.3l-1,1l-1-1L43,50
		c0.1-0.1,0.1-0.3,0-0.4c-0.1-0.1-0.3-0.1-0.4,0c0,0,0,0,0,0l-0.3,0.3c-0.1,0-0.1,0-0.2,0.1c-0.1,0.1-0.1,0.1-0.1,0.2l-0.8,0.8
		l-0.6-0.6c-0.1-0.1-0.3-0.1-0.4,0s-0.1,0.3,0,0.4l0.6,0.6l-0.9,0.9h-1.8l0.5-0.5l0.4,0.3c0.1,0.1,0.3,0.1,0.4,0c0,0,0,0,0,0
		c0.1-0.1,0.1-0.3,0-0.4c0,0,0,0,0,0l-0.4-0.3l1.4-1.4c0.1-0.1,0.1-0.3,0-0.4s-0.3-0.1-0.4,0L38.8,51l-0.3-0.3
		c-0.1-0.1-0.3-0.1-0.4,0s-0.1,0.3,0,0.4l0.3,0.3l-0.8,0.8l-19.5,0h0c-5.7,0-8-1.4-8-8.6c23,0.4,22.1,0.5,36.4,0
		c5.6-0.2,11.3-0.3,17-0.2l0,2.5l-1.2-1.2l0.9-0.9c0.1-0.1,0.1-0.3,0-0.4s-0.3-0.1-0.4,0L62,44.3L61.6,44c-0.1-0.1-0.3-0.1-0.4,0
		s-0.1,0.3,0,0.4l0.3,0.3L61.2,45c-0.1,0.1-0.1,0.3,0,0.4s0.3,0.1,0.4,0c0,0,0,0,0,0L62,45l1.5,1.5l0,0.4
		C63.4,50.7,62.6,52.1,59,52.1z M58.6,14.7c4.6,0.1,5.4,1.4,5.4,5.3l-0.4,22.3c-5.7-0.1-11.4,0.1-17,0.2c-14,0.4-13.1,0.3-36.3,0
		l0.1-11.6L11,31c0.2,0,0.4,0,0.5-0.2c0.5-0.7,1-1.3,1.4-1.9c0.7,0,1.4-0.1,2-0.3c0.5,0.6,1,1.1,1.5,1.8c0.2,0.2,0.4,0.2,0.6,0.1
		c0.9-0.6,1.8-1.1,2.7-1.7c0.2-0.1,0.3-0.3,0.2-0.5c-0.1-0.8-0.3-1.6-0.4-2.3c0.5-0.5,0.9-1,1.3-1.6c0.8,0,1.5,0.1,2.3,0.2
		c0.4,0,0.5-0.2,0.6-0.5c0.2-1,0.5-2,0.7-2.9c0-0.2,0-0.4-0.2-0.5c-0.7-0.4-1.3-0.9-1.9-1.4c0-0.7-0.1-1.4-0.3-2
		c0.6-0.5,1.2-1,1.8-1.5c0.2-0.2,0.2-0.4,0.1-0.6l-0.5-0.7C23.5,14.2,58.6,14.7,58.6,14.7z M2.6,15.2l0-0.1c0.7,0.1,1.5,0.1,2.2,0.1
		c0.2,0,0.4-0.1,0.4-0.2c0.4-0.7,0.8-1.2,1.4-1.9c0.1-0.1,0.2-0.3,0.1-0.4c-0.1-0.8-0.2-1.5-0.4-2.3c0.7-0.4,1.4-0.8,2-1.3
		c0.5,0.6,1,1.1,1.5,1.7c0.1,0.1,0.3,0.2,0.5,0.1c0.9-0.2,1.5-0.3,2.3-0.3c0.2,0,0.3-0.1,0.4-0.2c0.5-0.6,0.9-1.2,1.4-1.9L17,9.1
		c-0.1,0.8-0.1,1.5-0.1,2.2c0,0.2,0.1,0.4,0.2,0.5c0.7,0.4,1.2,0.8,1.9,1.4c0.1,0.1,0.4,0.2,0.5,0.1c0.7-0.1,1.5-0.2,2.2-0.4
		l0.5,0.8c0,0.1,0.1,0.2,0.1,0.2l0.6,1c-0.6,0.5-1.1,1-1.7,1.5c-0.1,0.1-0.2,0.3-0.1,0.5c0.2,0.7,0.3,1.5,0.3,2.3
		c0,0.2,0.1,0.3,0.2,0.4c0.5,0.4,1.2,0.9,1.9,1.4c-0.2,0.8-0.4,1.6-0.6,2.3c-0.7-0.1-1.5-0.1-2.2-0.1c-0.2,0-0.4,0.1-0.5,0.2
		c-0.4,0.7-0.8,1.2-1.4,1.9c-0.1,0.1-0.2,0.3-0.1,0.4c0.1,0.7,0.2,1.5,0.3,2.3c-0.7,0.4-1.4,0.8-2.1,1.3c-0.5-0.6-1-1.1-1.5-1.7
		c-0.1-0.1-0.3-0.2-0.5-0.1c-0.8,0.2-1.5,0.3-2.3,0.3c-0.2,0-0.3,0.1-0.4,0.2c-0.5,0.6-0.9,1.2-1.4,1.9l-1-0.2
		c-0.4-0.1-0.9-0.2-1.3-0.3c0.1-0.8,0.1-1.5,0.1-2.2c0-0.2-0.1-0.4-0.2-0.5l-0.1-0.1c-0.6-0.4-1.2-0.8-1.7-1.3c0,0-0.1-0.1-0.1-0.1
		c-0.1-0.1-0.3-0.1-0.4-0.1c-0.7,0.1-1.5,0.2-2.2,0.3c-0.3-0.5-0.6-1-0.9-1.5l-0.3-0.5c0.6-0.5,1.1-1,1.7-1.5
		c0.1-0.1,0.2-0.3,0.1-0.5c-0.2-0.7-0.3-1.5-0.3-2.3c0-0.2-0.1-0.3-0.2-0.4c-0.6-0.5-1.2-0.9-1.9-1.4C2.2,16.7,2.4,16,2.6,15.2z"/>
	<path d="M40.5,33.8c2.3,1.8,5.6,1.4,7.4-0.9c1.8-2.3,1.4-5.6-0.9-7.4c-1.1-0.9-2.5-1.3-3.9-1.1c-1.4,0.2-2.7,0.9-3.5,2
		C37.8,28.7,38.2,32,40.5,33.8z M39.6,30.6c-0.1-0.5-0.2-1.1-0.1-1.7l1.6,1.6l-0.8,0.8L39.6,30.6C39.7,30.6,39.6,30.6,39.6,30.6z
		 M40,31.7L40,31.7C40,31.7,40,31.7,40,31.7C40,31.7,40,31.7,40,31.7z M47.2,32.3c-1.5,1.9-4.2,2.2-6,0.8c-0.3-0.3-0.6-0.5-0.8-0.9
		l0.1-0.1l0.3,0.3c0.1,0.1,0.3,0.1,0.4,0c0,0,0,0,0,0c0.1-0.1,0.1-0.3,0-0.4c0,0,0,0,0,0l-0.3-0.3l0.8-0.8c0,0,0,0,0,0
		c0.1,0,0.1,0,0.2-0.1c0.1-0.1,0.1-0.1,0.1-0.2l0.6-0.6c0.1-0.1,0.1-0.3,0-0.4c-0.1-0.1-0.3-0.1-0.4,0c0,0,0,0,0,0l-0.6,0.6
		l-1.8-1.8c0.1-0.5,0.4-1,0.7-1.4c0.1-0.2,0.3-0.3,0.4-0.4l0.7,0.7l-1.1,1.1c-0.1,0.1-0.1,0.3,0,0.4s0.3,0.1,0.4,0l1.1-1.1l0.8,0.8
		c0.1,0.1,0.3,0.1,0.4,0s0.1-0.3,0-0.4l-0.8-0.8l0.6-0.6c0.1-0.1,0.1-0.3,0-0.4c-0.1-0.1-0.3-0.1-0.4,0c0,0,0,0,0,0l-0.6,0.6
		l-0.7-0.7c0.4-0.3,0.8-0.5,1.2-0.6l1.6,1.6l-0.5,0.5c-0.1,0.1-0.1,0.3,0,0.4s0.3,0.1,0.4,0l0.6-0.6c0.1,0,0.1,0,0.1-0.1
		c0,0,0.1-0.1,0.1-0.1l0.7-0.7l0.7,0.7c0.1,0.1,0.3,0.1,0.4,0c0.1-0.1,0.1-0.3,0-0.4c0,0,0,0,0,0l-0.7-0.7c0.1-0.1,0.1-0.2,0-0.3
		c-0.1-0.1-0.2-0.1-0.3,0l-0.3-0.3c0.5,0.1,0.9,0.4,1.4,0.7C48.3,27.7,48.6,30.4,47.2,32.3z M43.8,25.3c0.3,0,0.6,0,0.9,0.1
		c0,0-0.1,0-0.1,0c-0.1,0.1-0.1,0.3,0,0.4c0,0,0,0,0,0l0.3,0.3l-0.7,0.7l-1.4-1.4C43.2,25.4,43.5,25.3,43.8,25.3z"/>
	<path d="M14.4,24.3c2.8-0.9,4.3-3.9,3.4-6.7c-0.9-2.8-3.9-4.3-6.7-3.4c-1.3,0.4-2.4,1.4-3.1,2.6c-0.6,1.3-0.7,2.7-0.3,4
		C8.7,23.7,11.7,25.2,14.4,24.3z M11.3,23.3c-0.5-0.2-1-0.5-1.4-0.9l2.2-0.4l0.2,1.1L11.3,23.3C11.3,23.3,11.3,23.3,11.3,23.3z
		 M12.4,23.6L12.4,23.6C12.4,23.6,12.4,23.6,12.4,23.6C12.4,23.6,12.4,23.6,12.4,23.6z M16.8,17.9c0.7,2.3-0.5,4.7-2.7,5.4
		c-0.4,0.1-0.8,0.2-1.2,0.2l0-0.1l0.3-0.1c0.1,0,0.2-0.2,0.2-0.3c0,0,0,0,0,0c0-0.1-0.2-0.2-0.3-0.2c0,0,0,0,0,0L12.8,23l-0.2-1.1
		c0,0,0,0,0,0c0-0.1,0.1-0.1,0-0.2c0-0.1-0.1-0.1-0.1-0.2l-0.2-0.9c0-0.1-0.2-0.2-0.3-0.2c-0.1,0-0.2,0.2-0.2,0.3c0,0,0,0,0,0
		l0.2,0.8L9.5,22c-0.3-0.4-0.6-0.9-0.8-1.4c-0.1-0.2-0.1-0.4-0.1-0.6l1-0.2l0.3,1.5c0,0.1,0.2,0.2,0.3,0.2c0.1,0,0.2-0.2,0.2-0.3
		L10,19.8l1.1-0.2c0.1,0,0.2-0.2,0.2-0.3c0-0.1-0.2-0.2-0.3-0.2l-1.1,0.2l-0.2-0.8c0-0.1-0.2-0.2-0.3-0.2c-0.1,0-0.2,0.2-0.2,0.3
		c0,0,0,0,0,0l0.2,0.8l-1,0.2c0-0.5,0-0.9,0.2-1.4l2.2-0.4l0.1,0.7c0,0.1,0.2,0.2,0.3,0.2s0.2-0.2,0.2-0.3l-0.2-0.8c0,0,0-0.1,0-0.2
		c0-0.1,0-0.1-0.1-0.1l-0.2-1l0.9-0.2c0.1,0,0.2-0.2,0.2-0.3c0-0.1-0.2-0.2-0.3-0.2c0,0,0,0,0,0l-1,0.2c-0.1-0.1-0.1-0.2-0.3-0.1
		c-0.1,0-0.2,0.1-0.2,0.2l-0.4,0.1c0.4-0.3,0.8-0.6,1.3-0.7C13.7,14.5,16.1,15.7,16.8,17.9z M9.2,16.9c0.2-0.3,0.4-0.5,0.6-0.7
		c0,0,0,0,0,0.1c0,0.1,0.2,0.2,0.3,0.2c0,0,0,0,0,0l0.4-0.1l0.2,0.9l-1.9,0.4C8.9,17.4,9,17.1,9.2,16.9z"/>
</g>
<g id="cog2">
	<path d="M33.7,33.3c0.3,0.6,0.5,1.2,0.8,1.8c0.1,0.2,0.3,0.3,0.5,0.3c0.7,0,1.4-0.1,2.1-0.1c0.4,0.5,0.8,0.9,1.3,1.3
		c-0.1,0.7-0.2,1.4-0.4,2c-0.1,0.2,0.1,0.5,0.3,0.6c0.5,0.2,1,0.4,1.5,0.6l1.2,0.4c0.2,0.1,0.4,0,0.5-0.1c0.5-0.6,1-1.1,1.4-1.6
		c0.6,0.1,1.2,0.1,1.8,0c0.4,0.5,0.8,1.1,1.2,1.7c0.1,0.2,0.4,0.3,0.6,0.2l0.1-0.1c0.8-0.4,1.7-0.8,2.5-1.1c0.2-0.1,0.3-0.3,0.3-0.5
		c-0.1-0.7-0.1-1.4-0.1-2.1c0.5-0.4,0.9-0.8,1.3-1.3c0.7,0.1,1.3,0.2,2,0.4c0.2,0,0.5-0.1,0.6-0.3c0.3-0.9,0.7-1.8,1-2.7
		c0.1-0.2,0-0.4-0.1-0.5c-0.5-0.5-1.1-0.9-1.6-1.4c0.1-0.6,0.1-1.2,0-1.8c0.5-0.4,1.1-0.8,1.7-1.2c0.2-0.1,0.3-0.4,0.2-0.6l-1.2-2.6
		c-0.1-0.2-0.3-0.3-0.5-0.3c-0.7,0.1-1.4,0.1-2.1,0.1c-0.4-0.5-0.8-0.9-1.3-1.3c0.1-0.7,0.2-1.3,0.4-2c0.1-0.2-0.1-0.5-0.3-0.6
		l-2.7-1c-0.2-0.1-0.4,0-0.5,0.1c-0.5,0.5-0.9,1.1-1.4,1.6c-0.6-0.1-1.2,0-1.8,0c-0.4-0.6-0.8-1.1-1.2-1.7c-0.1-0.2-0.4-0.3-0.6-0.2
		l-0.2,0.1c-0.8,0.4-1.6,0.8-2.4,1.1c-0.2,0.1-0.3,0.3-0.3,0.5c0.1,0.7,0.1,1.4,0.1,2.1c-0.5,0.4-0.9,0.8-1.3,1.3
		c-0.7-0.1-1.4-0.2-2-0.4c-0.2-0.1-0.5,0.1-0.6,0.3l-0.2,0.5c-0.3,0.7-0.5,1.5-0.8,2.2c-0.1,0.2,0,0.4,0.1,0.6
		c0.6,0.5,1.1,1,1.6,1.4c-0.1,0.6-0.1,1.2,0,1.8c-0.5,0.4-1.1,0.8-1.7,1.2c-0.2,0.1-0.3,0.4-0.2,0.6L33.7,33.3L33.7,33.3z M36,31.3
		c0.2-0.1,0.2-0.3,0.2-0.5c-0.1-0.7-0.1-1.4,0-2.1c0-0.2,0-0.3-0.1-0.4c-0.5-0.5-1-1-1.5-1.4c0.2-0.6,0.5-1.2,0.7-1.9l0-0.1
		c0.6,0.1,1.3,0.2,2,0.3c0.2,0,0.4,0,0.5-0.2l0.1-0.1c0.4-0.5,0.9-1,1.4-1.4c0.1-0.1,0.2-0.2,0.2-0.4c0-0.7,0-1.4-0.1-2.1
		c0.6-0.3,1.3-0.6,1.9-0.9c0.3,0.5,0.7,1,1,1.5l0.1,0.2c0.1,0.2,0.3,0.2,0.5,0.2c0.7-0.1,1.4-0.1,2.1,0c0.2,0,0.3,0,0.4-0.2
		c0.5-0.5,0.9-1,1.4-1.5l2,0.7c-0.1,0.6-0.2,1.1-0.3,1.7l0,0.3c0,0.2,0,0.4,0.2,0.5l0.1,0.1c0.5,0.4,1,0.9,1.4,1.4
		c0.1,0.1,0.3,0.2,0.5,0.2c0.7,0,1.3,0,2-0.1l0.9,1.9c-0.6,0.4-1.1,0.8-1.6,1.1c-0.2,0.1-0.2,0.3-0.2,0.5c0.1,0.7,0.1,1.4,0,2.1
		c0,0.2,0,0.3,0.1,0.4c0.4,0.4,1,0.9,1.5,1.4c-0.2,0.7-0.5,1.3-0.7,2c-0.6-0.1-1.3-0.2-1.9-0.4c-0.2,0-0.4,0-0.5,0.2L50,34.5
		c-0.4,0.5-0.9,1-1.4,1.4c-0.1,0.1-0.2,0.2-0.2,0.4c0,0.7,0,1.4,0.1,2.1c-0.6,0.3-1.3,0.6-1.9,0.9c-0.4-0.5-0.7-1.1-1.1-1.6
		c-0.1-0.2-0.3-0.2-0.5-0.2c-0.7,0.1-1.4,0.1-2.1,0c-0.2,0-0.3,0-0.4,0.1c-0.4,0.4-0.9,1-1.4,1.5l-0.8-0.3c-0.4-0.1-0.8-0.3-1.1-0.4
		c0.1-0.7,0.2-1.3,0.4-1.9c0-0.2,0-0.4-0.2-0.5l-0.1-0.1c-0.5-0.4-1-0.9-1.4-1.4c0,0-0.1-0.1-0.1-0.1c-0.1-0.1-0.3-0.1-0.4-0.1
		c-0.7,0-1.3,0-2,0.1c-0.2-0.5-0.4-1-0.7-1.4l-0.2-0.5C34.9,32.1,35.5,31.7,36,31.3z"/>
</g>
</svg>
