<svg xmlns="http://www.w3.org/2000/svg" viewBox="0 0 438.63 548.71"><g id="body"><g id="rightLeg"><path d="M479.17,436.61c-2.34,7.24-5.17,9.49-6.74,13.48-2,5.15-.79,10.09.63,15.71,1.93,7.56,2.88,11.34,4.94,15,.59,1,2.24,3.76,1.29,5-.56.65-1.74.56-2.17.53-3.71-.28-6.53,2-15,5.28-5.68,2.25-4.38,1.23-12.21,4.09-12.66,4.62-12.47,6-16.42,5.82a28.23,28.23,0,0,0-10.1.91c-2.6.78-2.87,1.33-2.91,1.63-.33,1.86,6,5,11.44,6.06,6.87,1.3,12.12-.81,19.93-3.71,22.49-8.35,17.91-5.3,28.58-10,15.08-6.56,22.74-10,29-17.37,3-3.52,8.31-10,8.25-18.82a27.1,27.1,0,0,0-2.87-11.27c-1.43-3.18-4.23-9.2-11-13.37a26.33,26.33,0,0,0-16.47-3.77,24.63,24.63,0,0,0-7.39,2C479.76,434.43,479.48,435.43,479.17,436.61Z" transform="translate(-80.56 -26.77)" fill="#fff8e9" stroke="#232323" stroke-miterlimit="10" stroke-width="0.76"/><path d="M475.06,434.47c-1.32.6-3,1.55-6.4,3.49-2,1.12-2.91,1.71-3.18,1.85-2.72,1.95-3.27,3.48-6.38,5.54a4.34,4.34,0,0,1-2.85,1.06c-1.2-.13-1.48-.94-2.86-1.57a8.55,8.55,0,0,0-5.16-.2c-2.63.47-3.61,1.46-4.65.84-.74-.42-.82-1.28-1.12-2.23-1-3.24-3.85-5.14-5.35-6.14-2.78-1.85-5.44-2.15-8-2.5-3.57-.48-5,.15-5.53.43-1.67.86-2.21,2.15-3.08,3.35-3.23,4.38-7.25,2.37-12.68,6.63-2,1.57-3.37,3.66-6.11,7.84-3.46,5.28-3.39,7-3.21,7.86.31,1.6,1.2,2,3.46,5,0,0,1.11,1.45,4,6.26s4.45,9.59,7,17.5c1.45,4.49,2.15,7.18,4.77,10a13.16,13.16,0,0,0,4.53,3.32c4,1.66,7.93.49,13.13-1.28,8.63-2.92,15.07-5.51,15.53-5.74,15.16-6.19,15.36-7.08,20.27-8.11,5.14-1.1,6.6-.62,7.69-2.16,2.81-3.95-4.68-10.17-6.57-23.38a35.25,35.25,0,0,1,.63-14.53,34.34,34.34,0,0,1,8.91-15.19A29.13,29.13,0,0,0,475.06,434.47Z" transform="translate(-80.56 -26.77)" fill="#765ba7" stroke="#232323" stroke-miterlimit="10" stroke-width="1.67"/><path d="M417,498a10.46,10.46,0,0,0,2.39,2.62,11.54,11.54,0,0,0,6.88,2.32c7.46.06,15.36-3.71,22.21-6.29,12.05-4.53,24.16-8.93,36.56-12.37" transform="translate(-80.56 -26.77)" fill="none" stroke="#232323" stroke-miterlimit="10" stroke-width="3.02"/><path d="M438.56,438.1a19.15,19.15,0,0,0-9.49-3.5c-5.81-.55-11.32,2.14-15.81,5.53a45.69,45.69,0,0,0-12,13.42c-3.15,5.62-2.14,11.95,4.08,14.67,12.24,5.36,26.46-3,33.64-12.88,2.52-3.46,4.7-8.07,3.26-12.41a1.84,1.84,0,0,0-.21-.55A10.48,10.48,0,0,0,438.56,438.1Z" transform="translate(-80.56 -26.77)" fill="none" stroke="#232323" stroke-miterlimit="10" stroke-width="3.02"/><path d="M439.88,452.06a30.88,30.88,0,0,1-5.31,7.46,33.42,33.42,0,0,1-14.69,8.87c-6.71,1.95-14.41,1.17-19.3-4.21,8.07,8.88,9.67,21.11,15.16,31.56C418.5,501,422.57,510,429.5,510.1c11.2.23,24.12-4.19,34.67-7.57a159.45,159.45,0,0,0,34.06-15.34c9.61-5.84,20.08-13.86,19.42-26.41C517.08,450,511,439,500.9,434.39c-11-5.07-24.32-2.54-33.75,4.68-6.17,4.72-10.1,5.8-17.83,5.08a8.28,8.28,0,0,0-5.42,1,6.5,6.5,0,0,0-1,.89C441.44,447.66,440.9,450.09,439.88,452.06Z" transform="translate(-80.56 -26.77)" fill="none" stroke="#232323" stroke-miterlimit="10" stroke-width="3.02"/><path d="M459.78,457.32c-.16-2.22-.33-4.56-.54-5.65-.34-1.89-1.55-4.4-5.46-7,3.07,1.3,4.9.88,5.84.47a21.89,21.89,0,0,0,5.48-3.81c0-.06.22-.22.24-.18.18.13-3,3.61-4.69,8.27,0,0-2.32,6.54-.37,12.92l.17.56-.17-.56c-.17-.67-.31-2.79-.5-5" transform="translate(-80.56 -26.77)" fill="#232323" stroke="#232323" stroke-miterlimit="10" stroke-width="3.02"/><path d="M489.45,432a22.92,22.92,0,0,1,18.47,6.83c7.59,7.84,6.87,19,1,27.66a45.82,45.82,0,0,1-12.36,11.76,53.66,53.66,0,0,1-8.26,4.57,19.46,19.46,0,0,1-5.19,1.93,4.22,4.22,0,0,1-2.86-.56,5.69,5.69,0,0,1-1.77-2.37,72.19,72.19,0,0,1-4-10.55,54.19,54.19,0,0,1-2.64-15.62c0-6.65,2.35-13.76,7-18.44A17.39,17.39,0,0,1,489.45,432Z" transform="translate(-80.56 -26.77)" fill="none" stroke="#232323" stroke-miterlimit="10" stroke-width="3.02"/><path d="M342.45,290.73c1.17-2.24,20,2.55,37.5,13,6.13,3.69,37.69,22.65,47.5,58.49,2.53,9.28,3,17.44,3.61,28,.7,12.12-.2,21.14-2,39.17-1.77,17.78-3.42,24.46-8.5,27-2,1-5.1,1.67-7.11.23-4.27-3.05-1.17-14-.22-17.73,5.16-20.23,7-61.75-8.62-88.79a100.37,100.37,0,0,0-26.35-29.25c-5.72-4.22-11.9-7.72-21.44-15.93S341.73,292.1,342.45,290.73Z" transform="translate(-80.56 -26.77)" fill="#232323" stroke="#232323" stroke-miterlimit="10" stroke-width="3"/><path d="M498.18,475.6c-2.37,3.27-7.47,10.32-5.86,12.3s11.27-1,17.3-7.64a27,27,0,0,0,6.49-14.07C518,454.55,513,440.44,503,435.64c-4.18-2-9.4-2.45-10.21-.9-1.09,2.05,6.76,5.43,10.72,14.73.56,1.31,4.55,11.07.38,19C502.48,471.2,501.56,470.92,498.18,475.6Z" transform="translate(-80.56 -26.77)" fill="#232323" opacity="0.42"/></g><g id="torsoUpper"><path d="M250.24,249.88c-.9-4-5.47-24.84,4.87-41.81,7.45-12.21,20.11-16.92,26.9-19.44,2.67-1,33.63-12.07,50.36,2.49,7.33,6.42,4.06,10.93,15.3,37.67,8.18,19.44,11.25,20.25,10.76,26.79-1,13.52-21.68,32.23-46.67,37.16-22.28,4.4-49-1.84-54-14.31-.25-.62-1.12-3.9-2.87-10.46C253,261,250.88,252.53,250.24,249.88Z" transform="translate(-80.56 -26.77)" fill="#232323"/></g><g id="torsoLower"><path d="M350.19,241c-1.94-1.26-6.54-3.63-24.5.79-13.08,3.19-66.3,27.83-67.89,36.67a8.67,8.67,0,0,0,.5,3.45c.47,1.8,1.06,3.57,1.68,5.32s1.21,3.53,2,5.21,2,3.68,2.13,5.73a12.62,12.62,0,0,1-1.27,5.93,14.06,14.06,0,0,1-1.63,2.24,17.39,17.39,0,0,0-1.48,2.63,29.51,29.51,0,0,0-1.9,5.79,10.77,10.77,0,0,0-.33,4,11.1,11.1,0,0,0,1.5,3.87,24.32,24.32,0,0,0,3.95,4.64,44,44,0,0,0,4.84,4.09c.34.25.69.49,1,.73a54.73,54.73,0,0,0,5.12,3.13c.49.26,1,.52,1.69.87,3.63,1.83,7.67,3.38,11.81,3.14a13.22,13.22,0,0,0,2.34-.35c5.5-1.35,7.85-7.58,9-12.57.44-2,.76-4.17,2.23-5.6,2.34-2.28,6.51-1.84,9.49-1.82a71.33,71.33,0,0,0,11.6-.42,21.81,21.81,0,0,0,8.08-2.77c2.27-1.38,6.57-4.48,8.45-3.09.75.55,1.17,1.16,1.91,4.25,1,4.18,4.06,5,7.68,3.11a68.83,68.83,0,0,0,19.36-15,29.73,29.73,0,0,0,6.22-10.94c1-3.52,1.92-8.57-.8-11.57-2.5-2.78-6.88-1.66-9.37-4.62-2.14-2.57-2.52-6.19-2.55-9.42A52.56,52.56,0,0,0,360,259C359.22,252.81,355.75,244.72,350.19,241Z" transform="translate(-80.56 -26.77)" fill="#ff7545" stroke="#232323" stroke-miterlimit="10" stroke-width="2"/><g id="Layer_12" data-name="Layer 12"><path d="M349.29,300.23a3.41,3.41,0,0,1-.74,1.88,23,23,0,0,1-3.76,3.61,57.89,57.89,0,0,1-5.43,4c-1.44,1-3.46,2.37-6.15,4.12" transform="translate(-80.56 -26.77)" fill="none" stroke="#232323" stroke-linecap="round" stroke-miterlimit="10" stroke-width="1.67"/></g><ellipse cx="275.56" cy="326.01" rx="9.23" ry="18.6" transform="translate(-226.83 364.65) rotate(-58.61)" fill="#a04432" stroke="#232323" stroke-miterlimit="10" stroke-width="2"/></g><g id="leftLeg"><path d="M221.65,536.92c-7.08-2.79-9.14-5.75-13-7.58-5-2.35-10-1.4-15.71-.35-7.68,1.43-11.53,2.16-15.25,4-1.09.51-3.93,2-5,1-.65-.59-.45-1.77-.39-2.2.51-3.68-1.5-6.65-4.3-15.3-1.9-5.78-1-4.44-3.33-12.44-3.83-12.92-5.18-12.82-4.79-16.74a27.82,27.82,0,0,0-.29-10.09c-.6-2.62-1.13-2.92-1.43-3-1.83-.38-5.37,5.73-6.75,11.09-1.77,6.78,0,12.15,2.42,20.14,6.9,23,4.11,18.19,8.11,29.16,5.63,15.45,8.59,23.31,15.55,30,3.31,3.17,9.43,8.88,18.25,9.37a27.07,27.07,0,0,0,11.45-2.11,28.24,28.24,0,0,0,14-10.12A26.41,26.41,0,0,0,226,545.53,25.13,25.13,0,0,0,224.4,538,19.61,19.61,0,0,1,221.65,536.92Z" transform="translate(-80.56 -26.77)" fill="#fff8e9" stroke="#232323" stroke-miterlimit="10" stroke-width="0.76"/><path d="M224,533.08c-.53-1.3-1.39-3.07-3.11-6.59-1-2-1.49-3-1.64-3.29-1.78-2.85-3.28-3.48-5.14-6.72a4.46,4.46,0,0,1-.88-2.91c.16-1.2,1-1.4,1.72-2.74a8.44,8.44,0,0,0,.53-5.15c-.29-2.65-1.21-3.7-.54-4.69.48-.72,1.33-.74,2.31-1,3.3-.83,5.37-3.53,6.46-4.95,2-2.68,2.52-5.31,3-7.86a10.33,10.33,0,0,0-.12-5.53,9.91,9.91,0,0,0-2.37-3.73c-4.14-4.62-2.49-7.28-6.59-12.63-.72-.94.42-.68-7.45-6.59-5-3.78-6.74-3.81-7.65-3.7-1.61.21-2.08,1.07-5.22,3.14,0,0-1.53,1-6.49,3.61s-9.82,3.82-17.92,5.9c-4.57,1.18-7.31,1.7-10.24,4.14a13.31,13.31,0,0,0-3.62,4.34c-1.91,3.85-1,7.86.44,13.17,2.37,8.81,4.59,15.38,4.76,15.86,5.22,15.52,6.1,15.77,6.82,20.74.78,5.19.2,6.63,1.67,7.81,3.81,3,10.48-4,23.79-5.1A35.32,35.32,0,0,1,211,530.18,34.37,34.37,0,0,1,225.63,540,29.71,29.71,0,0,0,224,533.08Z" transform="translate(-80.56 -26.77)" fill="#765ba7" stroke="#232323" stroke-miterlimit="10" stroke-width="1.67"/><path d="M164.26,471.13a10.38,10.38,0,0,0-2.77,2.21,11.55,11.55,0,0,0-2.75,6.73c-.52,7.44,2.74,15.56,4.89,22.56,3.76,12.3,7.41,24.66,10,37.27" transform="translate(-80.56 -26.77)" fill="none" stroke="#232323" stroke-miterlimit="10" stroke-width="3.02"/><path d="M213.42,483.21c-2.83-.91-5-4.8-5.29-8a10.58,10.58,0,0,1,1.28-5.54c3.18-6.88,9.84-11.92,14.47-17.81,5.53-7.07,10.9-14.24,15.81-21.76a147.85,147.85,0,0,0,11.25-20.84c10.53-23.8,15.84-50.25,16.33-76.23.05-2.52,0-5,.23-7.52.62-6.37.93-9.56,2.5-10.48,2.31-1.36,5.69.57,10.61,3.37a6.17,6.17,0,0,1,2.56,2.42c1.41,2.67.27,6.37.23,9.25-.06,3.67-.13,7.35-.25,11-.25,7.34-.7,14.68-1.65,22a216.62,216.62,0,0,1-18.43,62.75,125.15,125.15,0,0,1-13.21,22.14c-1.77,2.38-4.88,6-11.11,13.11C220.5,482,216.37,484.15,213.42,483.21Z" transform="translate(-80.56 -26.77)" fill="#232323"/><path d="M222.69,496.53a19.2,19.2,0,0,0,4.08-9.3c.93-5.72-1.42-11.43-4.53-16.12a45.79,45.79,0,0,0-12.62-12.84c-5.43-3.51-11.8-2.9-14.91,3.14-6.11,11.87,1.36,26.59,10.75,34.37,3.29,2.73,7.75,5.21,12.17,4l.56-.19A10.52,10.52,0,0,0,222.69,496.53Z" transform="translate(-80.56 -26.77)" fill="none" stroke="#232323" stroke-miterlimit="10" stroke-width="3.02"/><path d="M212.75,499c-2.94-2.42-6.6-3.91-9.28-6.61a40.34,40.34,0,0,1-8.09-11.25c-3.94-8.3-4-18.1,3.69-24.22-9.36,7.48-21.67,8.32-32.44,13.14-5.39,2.45-14.62,5.9-15.2,12.81-1.74,20.7,6.89,44.42,15.21,63C172,557.81,179.93,573.82,195.1,574c10.85.11,22.13-5.31,27.39-15.06,5.76-10.64,4.06-24.13-2.54-34-2.77-4.11-4.54-8.23-4.47-13.21.05-4.3,1.28-7.86-1.27-11.15A9.75,9.75,0,0,0,212.75,499Z" transform="translate(-80.56 -26.77)" fill="none" stroke="#232323" stroke-miterlimit="10" stroke-width="3.02"/><path d="M180.15,565.65c.56-3.67,27.68,4.22,36.6-7.9,8.77-11.92-6.24-34.8-3.78-35.9,1.86-.83,12.85,11.21,11.24,25.44A27.74,27.74,0,0,1,218,561.58c-1.66,2-7.22,8.65-16.88,10.17C190.33,573.44,179.79,568,180.15,565.65Z" transform="translate(-80.56 -26.77)" fill="#232323" stroke="#232323" stroke-miterlimit="10" stroke-width="3.02" opacity="0.43"/><path d="M202.12,516.41c2.23,0,4.57,0,5.69-.17,1.91-.22,4.48-1.27,7.33-5-1.49,3-1.17,4.83-.85,5.79a21.66,21.66,0,0,0,3.47,5.71,2.13,2.13,0,0,1,.16.25c-.12.14-3.38-3.3-7.93-5.23,0,0-6.37-2.74-12.88-1.19l-.56.14.56-.14c.66-.11,2.81-.15,5-.17" transform="translate(-80.56 -26.77)" fill="#232323" stroke="#232323" stroke-miterlimit="10" stroke-width="3.02"/><path d="M225.49,547.65a22.88,22.88,0,0,1-8,18c-8.29,7.07-19.37,5.7-27.67-.77a46,46,0,0,1-11-13.08,53.6,53.6,0,0,1-4-8.53,19.36,19.36,0,0,1-1.6-5.29,4.08,4.08,0,0,1,.74-2.83,5.72,5.72,0,0,1,2.48-1.61,72.49,72.49,0,0,1,10.77-3.33A53.94,53.94,0,0,1,203,528.54c6.66.4,13.61,3.2,18,8.11A17.33,17.33,0,0,1,225.49,547.65Z" transform="translate(-80.56 -26.77)" fill="none" stroke="#232323" stroke-miterlimit="10" stroke-width="3.02"/></g><g id="leftHand"><g id="rightHand"><path d="M137.53,281.68a181.08,181.08,0,0,1,50.13-40.42c20.13-10.89,41.44-15.79,63.66-20.33,9.2-1.88,15.27-2.62,15.88-.88.74,2.09-6.34,7.79-13.57,10.54-2.75,1-3.43.87-10.49,2.76-18,4.81-37.77,9.82-54.12,19C173.56,261,161.17,274,148,285.57c-5.92,5.17-13,10.4-20.84,9.4A161.05,161.05,0,0,1,137.53,281.68Z" transform="translate(-80.56 -26.77)" fill="#232323" stroke="#232323" stroke-miterlimit="10" stroke-width="4"/></g><ellipse cx="138.3" cy="291.39" rx="15.22" ry="23.89" transform="translate(-245.06 153.5) rotate(-44.46)" fill="#fff" stroke="#232323" stroke-miterlimit="10" stroke-width="1.64"/><path d="M128.83,342.46c-2.75,2.17-8.15,5.82-12.91,3.93-9.34-3.63-7.18-11.37-7.18-11.37s-5.86,4.17-10.74,0c-5.12-4.39-2.21-12-2.21-12s-10.22,5.52-13.83-6.2c-4-13.15,14.33-21.74,14.33-21.74,1.77-7.47,16-21.19,37.67-7.38s16.12,28.75,13.39,43.5a8.78,8.78,0,0,0,.18,4.26" transform="translate(-80.56 -26.77)" fill="#fff" stroke="#232323" stroke-miterlimit="10" stroke-width="1.64"/><g id="Layer_22" data-name="Layer 22"><path d="M136.41,332.13a24.86,24.86,0,0,1-2,4.42c-1.18,2-2.09,3.54-3.89,4.78-1.08.75-1.45.68-1.64,1.14-.75,1.85,3.46,6.75,8.61,7.59,4.09.66,9.87-1.07,11.68-6,1.88-5.11-1.93-9.78-2.09-10" transform="translate(-80.56 -26.77)" fill="#fff" stroke="#232323" stroke-linecap="round" stroke-miterlimit="10" stroke-width="1.26"/></g><path d="M95.16,325.85c.76-6.88,8.23-12.57,8.23-12.57" transform="translate(-80.56 -26.77)" fill="none" stroke="#2d1f17" stroke-linecap="round" stroke-miterlimit="10" stroke-width="1.64"/><path d="M108.61,336.93c-.18-6.39,7.85-13.11,7.85-13.11" transform="translate(-80.56 -26.77)" fill="none" stroke="#2d1f17" stroke-linecap="round" stroke-miterlimit="10" stroke-width="1.64"/><path d="M127.84,343.1a24.28,24.28,0,0,0,2.4-1.79,19.6,19.6,0,0,0,5.49-7.35,19.87,19.87,0,0,0,.77-2.13" transform="translate(-80.56 -26.77)" fill="none" stroke="#232323" stroke-linecap="round" stroke-miterlimit="10" stroke-width="1.63"/></g><g id="rightHand-2" data-name="rightHand"><path d="M347.56,184.78a140.14,140.14,0,0,1,15.25-9.18c16.05-8.57,32.65-18,43.38-33.67,6.24-9.09,8.67-19.75,12.21-29.2a9.28,9.28,0,0,1,5.6-6c2.58-1,10.19-4.21,10.91-1.38a5.51,5.51,0,0,1-.37,2.76c-7.78,25-22.26,51.87-49,67.22A449.7,449.7,0,0,0,345,201.25c-4.47,3.24-20.25,14.76-15.14,3.45C333.52,196.49,340.08,190.09,347.56,184.78Z" transform="translate(-80.56 -26.77)" fill="#232323" stroke="#232323" stroke-miterlimit="10" stroke-width="4.59"/><ellipse cx="429.76" cy="102.33" rx="12.62" ry="19.75" transform="translate(142.83 466.17) rotate(-75.54)" fill="#fff" stroke="#232323" stroke-miterlimit="10" stroke-width="1.74"/><path d="M432.85,102.89c-16.47-1.54-26.78-7.62-24.55-22.14,0,0-10-14.47.74-33s24.72-9.39,24.72-9.39,12.17-6.82,19.77,3.34c0,0,15.69-6.66,19.67,6.23s-2.37,21.38-2.37,21.38S469.4,106.29,432.85,102.89Z" transform="translate(-80.56 -26.77)" fill="#fff" stroke="#232323" stroke-linecap="round" stroke-miterlimit="10" stroke-width="1.74"/><path d="M408.3,80.75C414.53,61,451,56.31,452.51,71S429.29,85.9,429.29,85.9" transform="translate(-80.56 -26.77)" fill="none" stroke="#232323" stroke-linecap="round" stroke-miterlimit="10" stroke-width="1.74"/><path d="M426.34,96.88s6.76-1.77,8.05-11.39" transform="translate(-80.56 -26.77)" fill="none" stroke="#232323" stroke-linecap="round" stroke-miterlimit="10" stroke-width="1.74"/><path d="M412.83,55.85s7.8.9,9.11,10.46" transform="translate(-80.56 -26.77)" fill="none" stroke="#232323" stroke-linecap="round" stroke-miterlimit="10" stroke-width="1.74"/><path d="M433.76,38.33c7,3,5.85,24.05,5.85,24.05" transform="translate(-80.56 -26.77)" fill="none" stroke="#232323" stroke-linecap="round" stroke-miterlimit="10" stroke-width="1.74"/><path d="M470.83,69.28c-4.7,8.08-15.43,10.2-18.44,1,0,0,7.77-21.32,1.14-28.56" transform="translate(-80.56 -26.77)" fill="none" stroke="#232323" stroke-linecap="round" stroke-miterlimit="10" stroke-width="1.74"/></g><path d="M342.85,221.39c-.26.22,3,5.75,5.62,15.67,1.24,4.77.46,7.35,2.17,11.33,2,4.58,3.4,3.47,5.18,7.5,1.7,3.85.38,11.23,3.13,17.33,1.19,2.65,3.09,4.92,3.66,4.67.81-.35-1.87-5.29-2.79-13.78a69.57,69.57,0,0,0-1.95-11c-.14-.49-.28-1-.43-1.42a37.79,37.79,0,0,0-3.35-7.61C347.31,232.6,343.09,221.18,342.85,221.39Z" transform="translate(-80.56 -26.77)" fill="#232323" stroke="#232323" stroke-miterlimit="10" opacity="0.36"/></g><g id="sunHead"><g id="outerRing1"><polygon points="148.74 11.78 145.87 42.03 115.16 36.93 123.86 66.32 93.92 73.59 112.85 97.65 88.22 116.18 114.51 131.25 98.95 158.21 128.6 161.99 124.47 193.28 152.96 185.2 160.9 216.06 183.9 197.35 202.69 223.09 216.68 196.59 243.47 213.27 246.34 183.03 277.05 188.13 268.35 158.73 298.3 151.47 279.36 127.41 303.98 108.88 277.69 93.81 293.25 66.85 263.61 63.07 267.73 31.77 239.25 39.86 231.31 8.99 208.32 27.71 189.52 1.97 175.53 28.47 148.74 11.78 148.74 11.78" fill="#ffe757" stroke="#333" stroke-miterlimit="10" stroke-width="2.09" fill-rule="evenodd"/></g><g id="faceGroup1"><circle cx="195.99" cy="112.26" r="70.14" fill="#ff7545"/><path d="M268.41,149.63c-10.82-3.86-21.9-.34-26.57,7.38-4,6.55-2,13.93-1.44,15.63" transform="translate(-80.56 -26.77)" fill="none" stroke="#333" stroke-linecap="round" stroke-linejoin="round" stroke-width="1.78"/><path d="M324.59,136.52c-.07-1.17-.51-6.8-4.91-10-5.05-3.7-11.54-1.47-14.15-.57a21.59,21.59,0,0,0-8.24,5.22" transform="translate(-80.56 -26.77)" fill="none" stroke="#333" stroke-linecap="round" stroke-linejoin="round" stroke-width="1.78"/><path d="M298.78,139.21c.19-5.27-3-9.56-6.58-10.3-4.47-.92-10.47,3.49-10.63,10.59" transform="translate(-80.56 -26.77)" fill="none" stroke="#333" stroke-linecap="round" stroke-linejoin="round" stroke-width="1.78"/><path d="M307.41,124.59a1.13,1.13,0,0,0,.51-.6,3.32,3.32,0,0,0,0-1.77,13.41,13.41,0,0,0-1.31-3.46,11.56,11.56,0,0,0-4.43-4.79c-1.31-.72-4.33-1.47-4.11-3.47a4.07,4.07,0,0,1,.43-1.21c.88-2,.6-3.93.17-6a22.62,22.62,0,0,0-6.14-11.08c-2.34-2.34-6-5.06-9.46-3.43-2.39,1.13-3.07,4-3.62,6.39-.48,2.12-.71,4.92.37,9.79a61,61,0,0,0,3.05,9,55.18,55.18,0,0,1,2.71,9.06c.35,1.72.5,5.19,2.6,5.74,1.3.34,2.64-.41,3.93.1a12.56,12.56,0,0,1,2.46,1.67,2.92,2.92,0,0,0,3.6.11c2.61-1.9,4.33-4.69,7.63-5.61A6,6,0,0,0,307.41,124.59Z" transform="translate(-80.56 -26.77)" fill="#2b2b2b" stroke="#333" stroke-miterlimit="10" stroke-width="1.05"/><path d="M291.37,127.8c.37,0,.67-.09.76-.35a.94.94,0,0,0,0-.5,11.82,11.82,0,0,0-1-2.55c-2.63-6.31-5-12.85-5.91-19.65-.28-2.12-.4-4.32-.47-6.49,0-1.26.05-2.52,0-3.78,0-1,.08-2.83-.61-3.66-1-1.15-2.2,1.29-2.53,2a14.28,14.28,0,0,0-1.18,3.4,18.63,18.63,0,0,0,.15,6.49,43.29,43.29,0,0,0,2.14,8.78c1,2.7,1.95,5.42,2.81,8.17.6,1.92,1,3.89,1.62,5.82a3.16,3.16,0,0,0,2.17,1.94A7.28,7.28,0,0,0,291.37,127.8Z" transform="translate(-80.56 -26.77)" fill="#fff" stroke="#fff" stroke-miterlimit="10" stroke-width="1.05"/><path d="M247,150.66a3.88,3.88,0,0,1-1.86-1.79A71,71,0,0,1,235,122.11c-.55-3.41-.8-7.12.92-10.12a5.45,5.45,0,0,1,2.16-2.2c1.86-.94,4.12-.29,6,.58a34.56,34.56,0,0,1,12.43,10c1.3,1.61,2.54,3.57,2.19,5.61-.26,1.5-1.32,2.71-2.06,4.05s-1.1,3.15-.06,4.26c1.61,1.72,4.83.15,6.69,1.6a4.92,4.92,0,0,1,1.35,2.12l3,7.2a28.2,28.2,0,0,1,1.5,3.6c.52,2-3.7,0-4.52-.14-5.27-1.13-10.69.13-15.71,1.79a3.54,3.54,0,0,1-1.63.28Z" transform="translate(-80.56 -26.77)" fill="#2b2b2b" stroke="#333" stroke-miterlimit="10" stroke-width="1.05"/><path d="M247.71,149.38a55.49,55.49,0,0,1-6.63-10.95A85.37,85.37,0,0,1,238,130a47.55,47.55,0,0,1-2.38-11.34,10.52,10.52,0,0,1,.92-4.74c.19-.42.77-1.69,1.23-1.61.65.12.67,2.8.68,3.22.08,3,2.84,11.42,12.42,32.57" transform="translate(-80.56 -26.77)" fill="#fff" stroke="#fff" stroke-miterlimit="10" stroke-width="1.05"/><path d="M289.4,82.73a14.35,14.35,0,0,0-6.76-.55,11.29,11.29,0,0,0-6.92,3.95" transform="translate(-80.56 -26.77)" fill="none" stroke="#333" stroke-linecap="round" stroke-miterlimit="10" stroke-width="3"/><path d="M241.59,102.78a20.37,20.37,0,0,0-7.88,1.11c-4.29,1.6-5.67,4.34-6.07,5.27" transform="translate(-80.56 -26.77)" fill="none" stroke="#333" stroke-linecap="round" stroke-miterlimit="10" stroke-width="3"/><circle id="HeadOutline" cx="196.1" cy="112.53" r="70.45" fill="none" stroke="#333" stroke-miterlimit="10" stroke-width="2.09"/></g><path d="M317.47,169a25.47,25.47,0,0,1-.84,2.84,21.87,21.87,0,0,1-6.69,9.39c-6,4.8-15.4,5.7-22.86,3.44-12.67-3.85-21.78-17.13-19.19-21.62,2.08-3.61,9.87,1.66,21.32-2.37,12.34-4.35,14.52-14.41,20.35-13C315.73,149.2,319,161.94,317.47,169Z" transform="translate(-80.56 -26.77)" fill="#232323" stroke="#232323" stroke-linecap="round" stroke-linejoin="round" stroke-width="2"/><path d="M317.47,169a18.74,18.74,0,0,1-.84,2.84c-5.23,13.52-18.67,16.11-29.55,12.83.2-.38.4-.74.59-1.08,2.65-4.77,8.21-11.61,15.6-4.08C303.71,172.22,309.4,167.75,317.47,169Z" transform="translate(-80.56 -26.77)" fill="#ffa2a8" stroke="#232323" stroke-linecap="round" stroke-linejoin="round" stroke-width="2"/><path d="M297.29,194.77c6,2,12.91-1,15-6.62" transform="translate(-80.56 -26.77)" fill="none" stroke="#232323" stroke-linecap="round" stroke-linejoin="round" stroke-width="2"/></g><g id="shadows"><path d="M340.92,111.18c-2.05.23,2.27,21.34-4.53,48.54-4.37,17.47-10.34,25.51-14.31,29.86-6.44,7.09-13.8,11.26-13.69,11.42s9.43-4.55,18.28-13.33c4.59-4.57,17.49-18,20.16-38.17,1.09-8.21,0-15.17-.84-20.43C344.89,121.85,342.39,111,340.92,111.18Z" transform="translate(-80.56 -26.77)" fill="#232323" opacity="0.38"/><path d="M338.36,311.44c-.07.77.4,1.19,1.39,2.59,3,4.26,2.67,5.91,4,6.69,1.65.95,4.24-.33,11.19-5.58,13.06-9.85,15.9-14.34,17.5-18.14,1.25-3,1.78-5.61,1.22-5.89-1.09-.56-4.81,9-13.63,12.28-.76.28-6.23,2.25-8.42,0-1.1-1.14-.77-2.74-1.58-2.94-1.26-.32-2,3.56-5.64,6.58C341.37,309.52,338.52,309.62,338.36,311.44Z" transform="translate(-80.56 -26.77)" fill="#232323" opacity="0.44"/></g></svg>