<svg xmlns="http://www.w3.org/2000/svg" xmlns:xlink="http://www.w3.org/1999/xlink" viewBox="0 0 928.54 533.44"><defs><clipPath id="clip-path" transform="translate(-28.66 -37.76)"><path d="M228.16,337.46c-14.83,10.51-38.59,5.71-46,28.17s28.51,25.17,62.55-1.28c39.43-30.65,44.48-64.84,23.6-65.08C250.12,299.06,245.44,325.2,228.16,337.46Z" fill="#fff" stroke="#232323" stroke-miterlimit="10" stroke-width="2.07"/></clipPath></defs><g id="rightshoe"><g id="rightLeg"><path d="M864.34,386.92c8.16,10.12,8.73,16.27,13,22.25,5.49,7.68,13.69,10.58,23.05,13.81,12.62,4.31,18.91,6.49,26.08,7,2,.09,7.47.32,8.35,2.83.41,1.41-.82,3-1.27,3.6-3.87,5.05-3.25,11.21-6.49,26.39-2.1,10.23-2.34,7.42-5.58,21.29-5.24,22.43-3.09,23.45-7,28.93a48.13,48.13,0,0,0-8.15,15.3c-1.32,4.44-.79,5.34-.39,5.68,2.35,2.21,12.76-3.9,19.37-10.69,8.29-8.6,10.18-18.09,13.35-32,9.1-40,9.18-30.57,12.44-50.23,4.73-27.7,7-41.87,2.3-57.72-2.22-7.59-6.52-21.24-19.19-29.41a46.35,46.35,0,0,0-18.8-6.45c-5.89-.93-17.12-2.56-29.41,3.22a45.05,45.05,0,0,0-20.81,20,42.33,42.33,0,0,0-4.06,12.44C861.77,384,862.94,385.37,864.34,386.92Z" transform="translate(-28.66 -37.76)" fill="#fff8e9" stroke="#232323" stroke-miterlimit="10" stroke-width="1.3"/><path d="M857.43,390.79c-.38,2.45-.59,5.75-1,12.42-.27,3.91-.28,5.76-.33,6.28.25,5.72,1.92,7.93,1.95,14.31a7.44,7.44,0,0,1-1.15,5.07c-1.31,1.59-2.73,1.23-4.92,2.62a14.59,14.59,0,0,0-5.11,7.19c-1.79,4.2-1.3,6.53-3.15,7.44-1.3.66-2.6,0-4.24-.49-5.57-1.6-11,.7-13.79,1.9-5.25,2.25-8.16,5.77-11.06,9.1-4,4.66-4.47,7.3-4.56,8.32-.33,3.19,1,5.17,1.91,7.53,3.24,8.72-3.4,12.59-2.39,24.34.37,4.33,2.08,8.25,5.49,16.08,4.32,9.89,6.84,11.4,8.24,11.94,2.58,1.06,4,.16,10.39-.27,0,0,3.11-.23,12.69.14s17.88,2.61,31.58,6.37c7.78,2.13,12.28,3.65,18.76,2.54a22.68,22.68,0,0,0,9-3.37c6.12-4.17,8.12-10.88,10.46-20,3.9-15.07,6.22-26.7,6.32-27.58,5.34-27.47,4.25-28.59,7.38-36.57,3.23-8.38,5.29-10,4.1-13-3-7.72-18.92-2.83-39.58-12.49a60.12,60.12,0,0,1-20.19-14.5,58.75,58.75,0,0,1-13.38-26.95A49.62,49.62,0,0,0,857.43,390.79Z" transform="translate(-28.66 -37.76)" fill="#765ba7" stroke="#232323" stroke-miterlimit="10" stroke-width="2.85"/><path d="M893.94,533.28a18,18,0,0,0,6-1,19.71,19.71,0,0,0,9.75-7.67c7.07-10.61,9.07-25.43,11.79-37.64,4.8-21.47,9.85-42.91,16.53-63.86" transform="translate(-28.66 -37.76)" fill="none" stroke="#232323" stroke-miterlimit="10" stroke-width="5.16"/><path d="M828.46,446.39a32.72,32.72,0,0,0-13.88,10.29c-6.23,7.8-7.54,18.19-6.89,27.79a78.15,78.15,0,0,0,8,29.72c5.09,9.76,15.08,14.24,24.8,7.89,19.12-12.49,20.47-40.64,13.06-60.16-2.59-6.84-7.14-14.27-14.7-16.27a3,3,0,0,0-1-.22A17.93,17.93,0,0,0,828.46,446.39Z" transform="translate(-28.66 -37.76)" fill="none" stroke="#232323" stroke-miterlimit="10" stroke-width="5.16"/><path d="M849.66,457.56a52.72,52.72,0,0,1,5.7,14.58,57.14,57.14,0,0,1-1.06,29.31c-3.49,11.42-11.82,21.7-24.09,23.66,20.25-3.23,39.24,5.92,59.32,7.85,10.11,1,26.79,3.58,33.42-6.23,10.81-15.8,16.58-38.42,21.62-56.67A272.56,272.56,0,0,0,954.51,407c.64-19.21-1-41.69-19.6-52.49-15.94-9.27-37.36-10.87-53.41-.74-17.54,11-26.39,32.4-24.89,52.64,1,13.24-1.16,19.87-9.42,30.25a14.14,14.14,0,0,0-3.65,8.69,11.54,11.54,0,0,0,.34,2.26C844.83,451.22,847.8,454.26,849.66,457.56Z" transform="translate(-28.66 -37.76)" fill="none" stroke="#232323" stroke-miterlimit="10" stroke-width="5.16"/><path d="M875.81,434c-3.33-1.85-6.83-3.8-8.59-4.52-3-1.28-7.74-1.9-15.12,1.26,4.73-3.17,5.85-6.18,6.14-7.91a37.26,37.26,0,0,0-.32-11.4c-.09-.06-.11-.52,0-.51.35-.14,2.35,7.66,7.43,14.44,0,0,7.19,9.44,18.13,12.62l1,.28-1-.28c-1.11-.38-4.28-2.16-7.61-4" transform="translate(-28.66 -37.76)" fill="#232323" stroke="#232323" stroke-miterlimit="10" stroke-width="5.16"/><path d="M867.37,367.91a39.14,39.14,0,0,1,27-20c18.31-3.52,33.6,7.95,40.49,24.45A78.35,78.35,0,0,1,940.16,401a92.24,92.24,0,0,1-1.2,16.09,33.25,33.25,0,0,1-2.09,9.23,7.22,7.22,0,0,1-3.48,3.56,9.74,9.74,0,0,1-5,.32,122.68,122.68,0,0,1-18.83-4.16,92.6,92.6,0,0,1-24.8-10.84C875.2,409,867.23,399,864.89,388A29.71,29.71,0,0,1,867.37,367.91Z" transform="translate(-28.66 -37.76)" fill="none" stroke="#232323" stroke-miterlimit="10" stroke-width="5.16"/></g><path d="M829.57,523.14c-3.89-5.4,8-28.41,22.79-29.86,12.61-1.23,16.82,14.45,32.8,15.07,14.26.54,25.27-11.41,27.32-13.73,11.6-13.17,5.65-24,13.47-50,7.73-25.69,23-46.38,26.93-44.93,1.72.64,1.51,6.12,1.07,17.09a154.87,154.87,0,0,1-1.61,16.51c-.73,5-1.7,13.59-3.2,19.19h0c-11.7,41.21-10.26,43.56-16.79,55.72-7.2,13.41-11.73,21.84-21.6,25.87-6.59,2.68-16.12,1.08-35.19-2.14-15.16-2.55-19.17-8.94-32.26-8.8C835,523.24,831.1,525.28,829.57,523.14Z" transform="translate(-28.66 -37.76)" fill="#232323" stroke="#232323" stroke-miterlimit="10" stroke-width="1.34" opacity="0.28"/></g><g id="leftShoe"><g id="leftLeg"><path d="M783.84,472.77c-10.12,9.14-16.51,10.09-22.53,14.83-7.76,6.15-10.22,14.94-13.08,24.94-3.83,13.47-5.73,20.24-5.74,27.68,0,2.15.08,7.9-2.38,8.82-1.46.57-3.2-.69-3.84-1.13-5.5-3.75-11.87-2.89-28-5.29-10.8-1.56-7.93-1.93-22.63-4.57-23.79-4.15-24.71-1.9-30.69-5.65a49.78,49.78,0,0,0-16.43-7.58c-4.69-1.12-5.59-.51-6-.1-2.07,2.64,4.92,13.19,12.43,19.68,9.47,8.25,19.5,9.69,34.26,12.17,42.42,7.26,32.48,7.9,53.28,10.22,29.29,3.28,44.27,4.79,60.56-1,7.73-2.79,21.77-8.06,29.59-21.83a48.67,48.67,0,0,0,5.74-20.06,50.71,50.71,0,0,0-5.09-30.55,47.34,47.34,0,0,0-22.21-20.65,45.12,45.12,0,0,0-13.36-3.43A34.8,34.8,0,0,1,783.84,472.77Z" transform="translate(-28.66 -37.76)" fill="#fff8e9" stroke="#232323" stroke-miterlimit="10" stroke-width="1.36"/><path d="M779.55,465.94c-2.51-.19-6-.22-13.06-.26H759.9c-6,.58-8.2,2.49-14.88,2.89a8,8,0,0,1-5.38-.9c-1.8-1.22-1.45-2.72-3-4.95a15.19,15.19,0,0,0-7.85-5c-4.49-1.65-6.91-1-8-2.88-.77-1.34-.13-2.72.24-4.5,1.29-6-1.39-11.44-2.8-14.32-2.71-5.35-6.52-8.28-10.23-11.08a18.64,18.64,0,0,0-9-4.22,17.86,17.86,0,0,0-7.88.84c-10.72,3-13.67-1.81-25.53.51-2.08.41-.76-1.22-16.52,6.71-10,5-11.49,7.78-12,9.33-.94,2.75.06,4.19.88,10.88,0,0,.39,3.26.62,13.3s-1.69,18.81-4.81,33.47c-1.75,8.28-3.09,13.09-1.51,19.74a23.77,23.77,0,0,0,4.08,9.27c4.66,6.14,11.82,7.88,21.49,9.8,16,3.21,28.36,4.89,29.26,5,29.08,4,30.18,2.77,38.74,5.58,8.95,2.88,10.8,5,13.87,3.54,7.85-3.72,1.93-20,10.77-42.26a63.31,63.31,0,0,1,14.06-22A61.5,61.5,0,0,1,792,468.84,53,53,0,0,0,779.55,465.94Z" transform="translate(-28.66 -37.76)" fill="#765ba7" stroke="#232323" stroke-miterlimit="10" stroke-width="2.99"/><path d="M632.47,512.47a18.68,18.68,0,0,0,1.34,6.21,20.77,20.77,0,0,0,8.62,9.78c11.53,6.76,27.16,8,40.11,10.13,22.75,3.77,45.5,7.76,67.81,13.65" transform="translate(-28.66 -37.76)" fill="none" stroke="#232323" stroke-miterlimit="10" stroke-width="5.41"/><path d="M719.83,438.91a34.53,34.53,0,0,0-11.68-14c-8.44-6.05-19.48-6.83-29.49-5.57a82.07,82.07,0,0,0-30.68,10c-10,5.92-14.06,16.64-6.84,26.44,14.19,19.27,43.77,19,63.75,10.14,7-3.1,14.54-8.29,16.12-16.35l.14-1.05A18.79,18.79,0,0,0,719.83,438.91Z" transform="translate(-28.66 -37.76)" fill="none" stroke="#232323" stroke-miterlimit="10" stroke-width="5.41"/><path d="M715.87,456.83c-6.23,2.8-11.54,7.48-18,9.63a72.27,72.27,0,0,1-24.51,4c-16.47-.3-32.25-8-35.94-25.23,4.54,21-3.92,41.42-4.77,62.55-.36,10.61-2.18,28.18,8.45,34.61,31.85,19.3,76.81,24.35,113.27,25.8,23.44.91,55.47.94,67.85-23.27,8.83-17.33,9.12-39.76-2.35-56-12.49-17.72-35.5-25.75-56.61-23-8.8,1.17-16.83.73-24.77-3.35-6.86-3.51-11.6-8.32-18.91-6.85A17.64,17.64,0,0,0,715.87,456.83Z" transform="translate(-28.66 -37.76)" fill="none" stroke="#232323" stroke-miterlimit="10" stroke-width="5.41"/><path d="M735.35,487.78a95.47,95.47,0,0,0,4.26-9.27c1.17-3.24,1.53-8.21-2.19-15.76,3.63,4.79,6.83,5.73,8.62,6a38.69,38.69,0,0,0,11.94-1,3.07,3.07,0,0,1,.53,0c.12.3-8,2.79-14.72,8.56,0,0-9.48,8-12.18,19.73l-.22,1,.22-1c.35-1.15,2-4.63,3.71-8.16" transform="translate(-28.66 -37.76)" fill="#232323" stroke="#232323" stroke-miterlimit="10" stroke-width="5.41"/><path d="M804.13,475.16a41,41,0,0,1,22.52,27.19c4.74,18.95-6.29,35.64-23.29,43.81a82.41,82.41,0,0,1-29.77,7.23,96.13,96.13,0,0,1-16.88-.37,34.86,34.86,0,0,1-9.77-1.65,7.3,7.3,0,0,1-4-3.44,10.31,10.31,0,0,1-.61-5.27,129.29,129.29,0,0,1,3.24-19.94,96.77,96.77,0,0,1,9.9-26.69c6-10.37,16-19.3,27.37-22.43A31,31,0,0,1,804.13,475.16Z" transform="translate(-28.66 -37.76)" fill="none" stroke="#232323" stroke-miterlimit="10" stroke-width="5.41"/></g><path d="M633.74,515.49c9.4-8.35,29.32,6.7,64,11.06,54.7,6.89,92.8-19.52,119.58-3.57,6.81,4.06,8.45,8.2,8.93,9.77,3.18,10.25-8.24,22.9-19.73,29.41-12.69,7.21-32.27,6.5-70.91,4.77-19-.84-29.71-2.14-35.6-2.95-23.14-3.16-35.92-7.4-44.12-10.67-16.24-6.48-20-11.35-21.06-12.95C629.53,532.83,627.68,520.87,633.74,515.49Z" transform="translate(-28.66 -37.76)" fill="#232323" stroke="#232323" stroke-miterlimit="10" stroke-width="1.11" opacity="0.23"/></g><g id="leftLeg-2" data-name="leftLeg"><path d="M509.08,328c8.27-9.12,95-103.41,140.24-80,5.58,2.89,13.57,9.43,23.34,37.84C682,313,694.3,364.21,679.91,435" transform="translate(-28.66 -37.76)" fill="none" stroke="#232323" stroke-linecap="round" stroke-linejoin="round" stroke-width="31.19"/></g><g id="torso"><g id="bodyTorso"><g id="torsoUpper"><path d="M319.28,502.81c-8.21-2-50.86-12.47-74-45.5-16.62-23.78-14.94-50-14-64,.34-5.54,5.28-69.23,46.27-85.46,18-7.07,23.74,2.61,82.91,6.73,43,3,47.07-1.65,58.86,5,24.4,13.72,42.2,66.29,30.75,114.15-10.21,42.68-43.93,83.67-71.32,81.33-1.37-.12-8.21-1.51-21.89-4.27C342.3,507.86,324.75,504.05,319.28,502.81Z" transform="translate(-28.66 -37.76)" fill="#232323"/></g><g id="torsoLower"><path d="M385.32,321c-4,2.27-12.18,8.17-18.78,43.35-4.86,25.6-2.88,140.06,12.29,150.65a19.16,19.16,0,0,0,6.85,2.19c4.31.51,9.23,1.55,11.31,1.79l.56.06c67.61,7.59,101.41,11.39,116.84-4.66,17.19-17.87,10.66-55.88.34-60-4.67-1.85-13.38,1.92-14.35-.41-.33-.79.48-1.77,1.24-2.83,1.56-2.2,2.69-5.67,5-12.6A33.79,33.79,0,0,0,508.09,422c-.7-5.17-2.92-15.4,1.22-17.44,1.65-.82,3.13-1,9.51.44,8.62,2,12.68-2.64,12.15-10.62a134.25,134.25,0,0,0-12-47,62.63,62.63,0,0,0-15.27-20.52C498,322,489.32,316,481.48,318c-7.25,1.89-8.78,10.51-16.36,12.22-6.56,1.45-13.63-1.1-19.68-3.91A117.39,117.39,0,0,0,427,319.83C414.81,315.71,396.85,314.58,385.32,321Z" transform="translate(-28.66 -37.76)" fill="#ff7545" stroke="#232323" stroke-miterlimit="10" stroke-width="3.99"/><path d="M524.78,480.62c.49,20.54-13.28,40.46-18.72,38.7s-3.51-25.76-1.18-38.7c1-5.54,4.49-25,10-25.13C519.38,455.37,524.5,468.68,524.78,480.62Z" transform="translate(-28.66 -37.76)" fill="#a8523b" stroke="#232323" stroke-miterlimit="10" stroke-width="2.13"/><g id="Layer_12" data-name="Layer 12"><path d="M495.06,375a7.32,7.32,0,0,1,2.89,2.95,46.34,46.34,0,0,1,3.63,9.74,113.05,113.05,0,0,1,3,13c.68,3.39,1.56,8.12,2.6,14.35" transform="translate(-28.66 -37.76)" fill="none" stroke="#232323" stroke-linecap="round" stroke-miterlimit="10" stroke-width="3.33"/></g></g></g><path d="M365.12,472.53c-4.17,2.3-2,20.62,7.89,31.73,2.77,3.1,8.37,8.3,24.51,13.18,19.68,6,21.29,1.24,53.26,5.65,14.21,2,28.69.6,43,1a13.85,13.85,0,0,0,6.66-1.6c1.61-.87,1.85-2.83,3.55-3.18,1.18-.24,1.68.38,2.83.38,2,0,3.41-1.87,5.09-4.05,5.8-7.47,7.7-9.63,9.14-14.11.61-1.9.52-2.3.37-2.57-1.64-3-15.16-1.63-17.18-2.64a4.73,4.73,0,0,1-1.87-1.67l0-.05c-1.27-1.79-15.92,9-27.67,13-22.78,7.7-47.95-5.83-59-11.78-14.89-8-31.32-13.13-45.65-22.09C369.07,473.15,366.71,471.66,365.12,472.53Z" transform="translate(-28.66 -37.76)" fill="#232323" opacity="0.28"/><path d="M496.83,375.17c-1.24.91,3.08,6.5,5.6,15.87,2.22,8.25.75,13.17,3.73,14.53,2.12,1,3.27-1.33,8.54-1.39,4.21-.06,5.08,1.38,8.39.72.77-.15,4.42-.87,6.4-3.73,1.52-2.18,1.52-4.62.27-12.13-1-5.7-2.44-14.63-3.43-14.52-1.18.14,2.39,12.44-3.8,18.3-3.73,3.53-10.92,4.65-14.5,1.75-4.41-3.57-.9-11.22-6.95-17.1C499.69,376.12,497.56,374.64,496.83,375.17Z" transform="translate(-28.66 -37.76)" fill="#232323" opacity="0.39"/></g><g id="rightLeg-2" data-name="rightLeg"><path d="M520.56,482.2c56-2,100.69-6,131.23-9.31,26.83-2.9,40.39-5,61.89-5.33A371.58,371.58,0,0,1,823,482.35" transform="translate(-28.66 -37.76)" fill="none" stroke="#232323" stroke-linecap="round" stroke-linejoin="round" stroke-width="31.14"/><path d="M529,470.45v2.2a2.29,2.29,0,0,0,.25,1.16,2.68,2.68,0,0,0,1.59,1.59,2.29,2.29,0,0,0,1.16.25l.79-.1a3.13,3.13,0,0,0,1.33-.77l.47-.61a3.09,3.09,0,0,0,.41-1.52v-2.2a2.4,2.4,0,0,0-.26-1.15,2.68,2.68,0,0,0-1.59-1.59,2.28,2.28,0,0,0-1.15-.25l-.8.1a3,3,0,0,0-1.33.77l-.46.61a2.88,2.88,0,0,0-.41,1.51Z" transform="translate(-28.66 -37.76)" fill="#232323"/><path d="M523.57,491.2l-10.77-.58-2.58-.14c-.1,0-.82.06-.47,0-.65-.21-.5,0,.47.55l.09.09c.05.2.06.17,0-.1l0-.68c0-.45,0-.9,0-1.35,0-.83,0-1.65,0-2.48a44.85,44.85,0,0,1,1.33-9.57c.09-.34.18-.68.29-1a1.41,1.41,0,0,1,.16-.4,1.75,1.75,0,0,1,.63-.82c.83-.54,2.38-.34,3.65-.24a3.07,3.07,0,0,0,2.84-1.91,3.17,3.17,0,0,0-.64-3.4c-1.21-1.37-3-1.55-4.71-1.36l-5.09.58,1.57,5.81a2.12,2.12,0,0,1,1.21-.42c.9-.08,1.82,0,2.72,0,1.89,0,3.77,0,5.65.06,4,0,4-6.18,0-6.23-2.18,0-4.37-.06-6.55-.06s-4.36,0-6.17,1.29a3.2,3.2,0,0,0-1.43,3.51,3.11,3.11,0,0,0,3,2.29l3.7-.43c.62-.07,1.23-.16,1.85-.21a4.92,4.92,0,0,1,.67,0,2,2,0,0,1-.83-.37l2.21-5.32a11.84,11.84,0,0,0-6.47.92,8.38,8.38,0,0,0-3.86,4.78,42.43,42.43,0,0,0-2,12.57c-.07,2.08-.27,4.59.32,6.6.76,2.59,3.16,3.44,5.59,3.61,4.53.31,9.07.48,13.59.73a3.12,3.12,0,1,0,0-6.23Z" transform="translate(-28.66 -37.76)" fill="#232323"/></g><g id="rightArm"><path d="M250.51,434.71c-3.85,3.81-78.42,78.48-62.28,103,10.1,15.34,54.79,9.42,123.91.28,9-1.19,16.61-2.35,22.49-3.3" transform="translate(-28.66 -37.76)" fill="none" stroke="#232323" stroke-linecap="round" stroke-linejoin="round" stroke-width="27.59"/><ellipse cx="322.26" cy="524.05" rx="21.23" ry="33.32" transform="translate(-95.75 9.96) rotate(-7.67)" fill="#fff" stroke="#232323" stroke-miterlimit="10" stroke-width="2.29"/><path d="M375.51,474.91c4.88-.13,14,.3,17.7,6.39,7.4,11.86-1.48,18.7-1.48,18.7s10,.23,12,9c2,9.18-7.56,15.25-7.56,15.25s16,2.37,10.27,18.47c-6.51,18-34.16,12.32-34.16,12.32-8.22,6.86-35.57,10.3-48.24-23.22s6-45.58,21.37-59.77a12.23,12.23,0,0,0,3.36-4.91" transform="translate(-28.66 -37.76)" fill="#fff" stroke="#232323" stroke-miterlimit="10" stroke-width="2.29"/><g id="Layer_22" data-name="Layer 22"><path d="M358.41,480.12a34.22,34.22,0,0,1,5.93-3.27c3-1.25,5.29-2.21,8.33-2.09,1.84.06,2.19.45,2.79.09,2.38-1.44,1.77-10.43-3.28-15.66-4-4.16-11.92-7.05-18.06-3.06-6.37,4.14-6,12.54-6,12.92" transform="translate(-28.66 -37.76)" fill="#fff" stroke="#232323" stroke-linecap="round" stroke-miterlimit="10" stroke-width="1.76"/></g><path d="M399.24,521.58c-6.59,7-19.69,7.17-19.69,7.17" transform="translate(-28.66 -37.76)" fill="none" stroke="#2d1f17" stroke-linecap="round" stroke-miterlimit="10" stroke-width="2.29"/><path d="M393.47,498c-5.13,7.29-19.72,8.09-19.72,8.09" transform="translate(-28.66 -37.76)" fill="none" stroke="#2d1f17" stroke-linecap="round" stroke-miterlimit="10" stroke-width="2.29"/><path d="M377.15,475a34.29,34.29,0,0,0-4.18,0,27.33,27.33,0,0,0-12.27,3.63,28.62,28.62,0,0,0-2.64,1.74" transform="translate(-28.66 -37.76)" fill="none" stroke="#232323" stroke-linecap="round" stroke-miterlimit="10" stroke-width="2.27"/><path d="M344.85,505.81a40,40,0,0,0,6.51-2.57,1.51,1.51,0,0,0,.53-2.05,1.54,1.54,0,0,0-2.05-.54c-.48.24-1,.48-1.47.7l-.42.18c-.08,0-.4.19-.07,0-.25.12-.5.21-.75.31-1,.39-2,.74-3.08,1.05a1.5,1.5,0,0,0,.8,2.89Z" transform="translate(-28.66 -37.76)" fill="#232323"/><path d="M345.26,515.86c2.78-.59,5.54-1.29,8.26-2.11a1.5,1.5,0,0,0-.79-2.89q-4.1,1.23-8.27,2.11a1.5,1.5,0,1,0,.8,2.89Z" transform="translate(-28.66 -37.76)" fill="#232323"/><path d="M346.81,525.7a69.82,69.82,0,0,0,11.29-2.14,1.5,1.5,0,0,0-.8-2.89,65.66,65.66,0,0,1-10.49,2,1.55,1.55,0,0,0-1.5,1.5,1.51,1.51,0,0,0,1.5,1.5Z" transform="translate(-28.66 -37.76)" fill="#232323"/><path d="M307.57,540.84c3.58-5.6,25.05,12.39,53.82,9.83,25.13-2.23,40.95-18.8,45.13-13.9,2.32,2.71-.71,10-4.77,13.77-6.07,5.7-16.25,5.06-18.89,4.9-4-.25-6.12-1.14-10.58-.43-4,.64-4.36,1.7-8.42,2.83-2.22.61-12.22,3.47-20-1-3.37-1.94-4.24-4.06-7.33-4.17-2.93-.1-3.87,1.75-7.16,2.93-5,1.78-11.07.54-15.2-2.46C309.89,550,305.79,543.63,307.57,540.84Z" transform="translate(-28.66 -37.76)" fill="#232323" opacity="0.28"/></g><g id="leftArm"><path d="M340.65,310.78a143,143,0,0,0,58.52-9.31c12.34-4.78,20.73-8,27.54-16.23,15.74-19,9.07-47.7,3.92-69.84a182.85,182.85,0,0,0-31.2-67" transform="translate(-28.66 -37.76)" fill="none" stroke="#232323" stroke-linecap="round" stroke-linejoin="round" stroke-width="27.59"/></g><g id="lefthand"><path d="M374.42,148.26c.87,1.86-1.46,3.62-1.12,5.56a3.63,3.63,0,0,0,1.84,2.36c4.52,2.58,11.14,1.85,15.95.61,8.5-2.18,16.53-8.1,20-16.3,1.36-3.18,3.75-9.72-.51-11.76A20.36,20.36,0,0,0,408,128c-2.75-.91-2.09-3.51-1.2-5.6a27.41,27.41,0,0,0,2.22-7.21,24,24,0,0,0-2-13.88,16.25,16.25,0,0,0-3.59-5C402,95,400,94,399.37,92c-.49-1.57.14-3.11.24-4.69a22.21,22.21,0,0,0-.35-5.58C397.63,73.15,391,66.1,382.9,63.17c-2.59-.94-6-1.75-8.68-.92-2.87.9-5.14,3.58-6.43,6.18a25.61,25.61,0,0,0-2.05,6.5c-.27,1.34-.17,3.13-.9,4.33-1.65,2.7-2-3-2.21-4.07-1.79-8.46-5.69-15.92-10.63-22.92-2.77-3.92-6.15-7.74-10.38-10.22-3.93-2.28-12.93-5.64-15.63,0-2.44,5.11,1.45,13,3.52,17.64a187.41,187.41,0,0,0,9.23,17.59c.48.85,8.2,13.28,7.63,13.63-.38.23-3-4.17-7.83-9.53C334,76.36,328.13,69.86,319.29,66.6c-6.3-2.33-23.4-5.85-21.44,6s11.36,18,20,24.87c7.11,5.65,12.9,12.5,19.35,18.83,4,3.89,8,7.71,11.6,12,3.37,4,5.67,8.62,9.67,12.16a24,24,0,0,0,6.35,4.26c2.29,1,4.8,1.17,7.15,1.91a4.61,4.61,0,0,1,2,1.09A2.41,2.41,0,0,1,374.42,148.26Z" transform="translate(-28.66 -37.76)" fill="#fff" stroke="#232323" stroke-miterlimit="10" stroke-width="2.4"/><g id="Layer_14" data-name="Layer 14"><path d="M346.91,124c.68-4.18,4.57-25.64,21.13-33.23,2.49-1.14,12.81-5.87,18.83-.76,4.19,3.55,4.52,10.35,3,15.06a16.11,16.11,0,0,1-1.95,4,14.92,14.92,0,0,1-7.85,6c-4.18,1.19-7.83-.3-8,.41-.12.46,1.5,1,2.83,2.28,2.19,2.15,2.54,5.4,2.43,8" transform="translate(-28.66 -37.76)" fill="none" stroke="#232323" stroke-linecap="round" stroke-linejoin="round" stroke-width="3.6"/><path d="M375.3,147.5a60.26,60.26,0,0,0,11.64-4.87,59.16,59.16,0,0,0,7.52-4.89" transform="translate(-28.66 -37.76)" fill="none" stroke="#232323" stroke-linecap="round" stroke-linejoin="round" stroke-width="3.6"/><path d="M371.22,74.59a27.55,27.55,0,0,0,3.18,6.51,27.92,27.92,0,0,0,6.23,6.65" transform="translate(-28.66 -37.76)" fill="none" stroke="#232323" stroke-linecap="round" stroke-linejoin="round" stroke-width="3.6"/><path d="M394,112.87a11.9,11.9,0,0,0-2.31-2,11.73,11.73,0,0,0-3.77-1.67" transform="translate(-28.66 -37.76)" fill="none" stroke="#232323" stroke-linecap="round" stroke-linejoin="round" stroke-width="3.6"/><path d="M398.53,91a8.31,8.31,0,0,1-7.4,3.68" transform="translate(-28.66 -37.76)" fill="none" stroke="#232323" stroke-linecap="round" stroke-linejoin="round" stroke-width="3.6"/></g></g><g id="sunRing5"><g id="outerRing1"><polygon points="73.04 124.33 76.59 172.82 26.78 172.97 48.34 217.02 3.05 236.48 39.34 269.38 5.42 305.19 50.92 321.95 33.57 368.63 81.35 366.69 83.19 417.15 125.98 396.8 146.74 443.37 178.03 407.72 214.54 443.31 229.54 397.77 276.26 416.94 272.72 368.46 322.53 368.31 300.96 324.25 346.27 304.81 309.97 271.9 343.87 236.1 298.37 219.34 315.72 172.66 267.95 174.6 266.1 124.12 223.33 144.48 202.56 97.9 171.29 133.57 134.76 97.98 119.76 143.52 73.04 124.33 73.04 124.33" fill="#ffe757" stroke="#333" stroke-miterlimit="10" stroke-width="3.34" fill-rule="evenodd"/></g></g><g id="head"><g id="sunHead"><g id="faceGroup1"><circle cx="175.17" cy="268.81" r="112.23" fill="#ff7545"/><path d="M185.87,331.93c-15.78-.81-29,8.2-32.07,20.21-2.68,10.21,2.87,19.13,4.28,21.15" transform="translate(-28.66 -37.76)" fill="none" stroke="#333" stroke-linecap="round" stroke-linejoin="round" stroke-width="2.45"/><path d="M284.62,291.57c-.42-1.83-2.62-10.59-10.41-14.47-9-4.49-18.6.76-22.48,2.88a34.64,34.64,0,0,0-11.6,10.43" transform="translate(-28.66 -37.76)" fill="none" stroke="#333" stroke-linecap="round" stroke-linejoin="round" stroke-width="2.85"/><path d="M248.66,275.55a1.79,1.79,0,0,0,.65-1.08,5.36,5.36,0,0,0-.47-2.79,22,22,0,0,0-3-5.11,18.5,18.5,0,0,0-8.27-6.37c-2.26-.79-7.22-1.17-7.41-4.38a6.71,6.71,0,0,1,.35-2c.86-3.39-.1-6.36-1.33-9.51a36.21,36.21,0,0,0-12.64-15.84c-4.32-3.07-10.82-6.38-15.84-2.89-3.47,2.42-3.78,7.13-4,11-.19,3.47.2,8,3.2,15.35a96.83,96.83,0,0,0,7.21,13.38,88.61,88.61,0,0,1,6.7,13.57c1,2.62,2.17,8.06,5.63,8.36,2.14.19,4.05-1.35,6.23-.89a20.33,20.33,0,0,1,4.32,2,4.68,4.68,0,0,0,5.71-.78c3.61-3.7,5.58-8.56,10.54-10.89A9.37,9.37,0,0,0,248.66,275.55Z" transform="translate(-28.66 -37.76)" fill="#2b2b2b" stroke="#333" stroke-miterlimit="10" stroke-width="1.68"/><path d="M224.22,284.9c.58-.1,1-.32,1.1-.76a1.48,1.48,0,0,0-.13-.78,19.34,19.34,0,0,0-2.26-3.76c-5.83-9.25-11.32-18.94-14.57-29.42-1-3.27-1.78-6.71-2.47-10.12-.34-2-.59-4-1-6-.27-1.58-.63-4.49-1.94-5.61-1.88-1.55-3.13,2.62-3.46,3.83a23.2,23.2,0,0,0-.95,5.68,29.67,29.67,0,0,0,2,10.2,69.3,69.3,0,0,0,5.72,13.28c2.29,4,4.52,8,6.61,12.14,1.46,2.86,2.62,5.87,4.11,8.74a5.06,5.06,0,0,0,3.94,2.49A12.05,12.05,0,0,0,224.22,284.9Z" transform="translate(-28.66 -37.76)" fill="#fff" stroke="#fff" stroke-miterlimit="10" stroke-width="1.68"/><path d="M160.32,332.8a6.21,6.21,0,0,1-3.42-2.32A113.68,113.68,0,0,1,133.77,291c-1.78-5.23-3.17-11-1.25-16.21a8.71,8.71,0,0,1,2.82-4c2.68-2,6.42-1.56,9.62-.69a55.45,55.45,0,0,1,22.28,12.46c2.48,2.19,5,4.95,4.95,8.27,0,2.43-1.36,4.62-2.17,6.93s-.9,5.27,1,6.74c3,2.29,7.66-1.05,11,.74a7.9,7.9,0,0,1,2.7,3c-3.23,7.74-9.6,19.07-21.5,23.84-.83.34-1.66.63-2.49.88Z" transform="translate(-28.66 -37.76)" fill="#2b2b2b" stroke="#333" stroke-miterlimit="10" stroke-width="1.68"/><path d="M161.09,330.59a88.73,88.73,0,0,1-13.38-15.5,138.35,138.35,0,0,1-7.11-12.48,76.41,76.41,0,0,1-6.78-17.25,17,17,0,0,1,.19-7.73c.19-.71.76-2.87,1.51-2.87,1.06,0,1.8,4.24,1.93,4.9.93,4.71,7.53,17.26,28.29,48.07" transform="translate(-28.66 -37.76)" fill="#fff" stroke="#fff" stroke-miterlimit="10" stroke-width="1.68"/><path d="M209.08,214.32a22.93,22.93,0,0,0-10.81.94,18,18,0,0,0-9.86,8.07" transform="translate(-28.66 -37.76)" fill="none" stroke="#333" stroke-linecap="round" stroke-miterlimit="10" stroke-width="4.8"/><path d="M139,258.71a32.46,32.46,0,0,0-12.13,3.85c-6.34,3.67-7.79,8.36-8.17,9.94" transform="translate(-28.66 -37.76)" fill="none" stroke="#333" stroke-linecap="round" stroke-miterlimit="10" stroke-width="4.8"/><circle id="HeadOutline" cx="175.42" cy="269.2" r="112.72" fill="none" stroke="#333" stroke-miterlimit="10" stroke-width="3.34"/></g><path d="M249.34,379.85c10,1.56,20.1-5,21.89-14.44" transform="translate(-28.66 -37.76)" fill="none" stroke="#232323" stroke-linecap="round" stroke-linejoin="round" stroke-width="3.2"/></g><path d="M18.15,92.91" transform="translate(-28.66 -37.76)" fill="#2b2b2b" stroke="#333" stroke-miterlimit="10" stroke-width="2.11"/><path d="M204.74,317.72s-5-14.09,3.67-19.53,20.89,3.13,11.05,23.65" transform="translate(-28.66 -37.76)" fill="none" stroke="#232323" stroke-linecap="round" stroke-miterlimit="10" stroke-width="2.4"/><path d="M203,309.12c.07.77.24,1.39.39,3.09.07.86.09,1.4.11,1.77.14,2.42.77,4.12.22,4.43a1.69,1.69,0,0,0-.83.52l-.06.09c-.27.39-1.24,1.68-2.21,1.52-1.39-.22-2.75-4.49-3-8.21a14.08,14.08,0,0,1,.79-5.94c.86-2.33,1.81-2.8,2.13-2.94.83-.34,2.18-.44,2.8.27C204.14,304.68,202.64,306,203,309.12Z" transform="translate(-28.66 -37.76)" fill="#232323" opacity="0.39"/><path d="M244.16,291.65" transform="translate(-28.66 -37.76)" fill="#232323"/><path d="M228.16,337.46c-14.83,10.51-38.59,5.71-46,28.17s28.51,25.17,62.55-1.28c39.43-30.65,44.48-64.84,23.6-65.08C250.12,299.06,245.44,325.2,228.16,337.46Z" transform="translate(-28.66 -37.76)" fill="#fff"/><g clip-path="url(#clip-path)"><path d="M200.48,340s-7.32,23.08,15.83,45.75" transform="translate(-28.66 -37.76)" fill="#fff" stroke="#232323" stroke-miterlimit="10" stroke-width="2.07"/><path d="M243.58,308.86s26.53.57,42.54,30.75" transform="translate(-28.66 -37.76)" fill="#fff" stroke="#232323" stroke-miterlimit="10" stroke-width="2.07"/><path d="M232.8,325.94s25.94,15.5,37.32,32.13" transform="translate(-28.66 -37.76)" fill="#fff" stroke="#232323" stroke-miterlimit="10" stroke-width="2.07"/><path d="M216,335.1s13.1,35.11,29.61,50.64" transform="translate(-28.66 -37.76)" fill="#fff" stroke="#232323" stroke-miterlimit="10" stroke-width="2.07"/></g><path d="M228.16,337.46c-14.83,10.51-38.59,5.71-46,28.17s28.51,25.17,62.55-1.28c39.43-30.65,44.48-64.84,23.6-65.08C250.12,299.06,245.44,325.2,228.16,337.46Z" transform="translate(-28.66 -37.76)" fill="none" stroke="#232323" stroke-miterlimit="10" stroke-width="2.07"/><path d="M141,240" transform="translate(-28.66 -37.76)" fill="#232323"/><path d="M453.24,291" transform="translate(-28.66 -37.76)" fill="#f4f4f4"/><path d="M117.91,357.58a156.49,156.49,0,0,0,32.39,31.19c38.8,27.25,80.39,23.72,80.14,26.83-.23,2.85-35.34,9.07-70.94-5.83-7.88-3.3-32.8-14.12-50-40.4-16.53-25.25-18.34-53.2-16-54C95.54,314.71,100.18,334.57,117.91,357.58Z" transform="translate(-28.66 -37.76)" fill="#232323" opacity="0.29"/></g><g id="glasses"><ellipse cx="162.07" cy="311.86" rx="27.95" ry="26.39" transform="translate(-182.39 119.84) rotate(-36.51)" fill="#232323"/><ellipse cx="227.4" cy="263.5" rx="27.95" ry="26.39" transform="translate(-140.8 149.22) rotate(-36.51)" fill="#232323"/><path d="M179.46,299.49A47.65,47.65,0,0,1,211,276.14" transform="translate(-28.66 -37.76)" fill="none" stroke="#232323" stroke-miterlimit="10" stroke-width="2.77"/><path d="M166.15,289l39.44-29.19" transform="translate(-28.66 -37.76)" fill="none" stroke="#232323" stroke-miterlimit="10" stroke-width="2.77"/></g></svg>