<?xml version="1.0" encoding="utf-8"?>
<!-- Generator: Adobe Illustrator 25.2.3, SVG Export Plug-In . SVG Version: 6.00 Build 0)  -->
<svg version="1.1" xmlns="http://www.w3.org/2000/svg" xmlns:xlink="http://www.w3.org/1999/xlink" x="0px" y="0px"
	 viewBox="0 0 66 66" style="enable-background:new 0 0 66 66;" xml:space="preserve">
<style type="text/css">
	.st0{fill:#FFFCEE;}
	.st1{fill:none;stroke:#000000;stroke-width:0.75;stroke-miterlimit:10;}
	.st2{fill:none;stroke:#000000;stroke-width:0.8291;stroke-miterlimit:10;}
	.st3{fill:none;stroke:#000000;stroke-width:0.8595;stroke-miterlimit:10;}
</style>
<g id="Layer_2">
	<path class="st0" d="M6.1,6.2C5,7,4.5,8.3,4.3,9.4c-0.6,2.7-1.2,8.9,2.2,16.2c2.2,4.6,5.4,8.6,6.6,9.6c0.3,0.3,0.8,0.8,1.6,1.8
		c1,1.1,1.2,1.5,1.3,1.9c0.1,0.6-0.2,0.8-0.3,2c0,0-0.1,0.8,0,1.9c0.2,2.4,6.2,6.7,9.9,9.6c4.1,3.2,5.4,4.7,7.7,4.6
		c2.4-0.1,4.1-1.4,4.1-1.4c0.4-0.4,1.1-0.9,1.5-1.8c0.5-1.1,0.1-1.7,0.6-2.1c0.8-0.8,2.6,1,4.4,0.4c1-0.3,1-1,2.6-3.4
		c2.5-3.7,3.8-3.9,3.8-5.7c0.1-1.8-1.1-2.7-0.5-3.7c0.4-0.6,1.1-0.5,2.4-1c1.3-0.5,3-1.3,3.6-2.1c2.3-2.8-3.4-10.8-4.6-12.4
		c-3.2-4.4-5-6.9-7.8-7.1c-1.8-0.1-4.1,0.7-6.8-0.7c-0.4-0.2-0.7-0.4-1.1-0.8c-3.1-2.4-5.5-4.5-6.2-5.1C26,7.3,22,6.7,17.7,5.9
		C17,5.8,15,5.7,10.9,5.5C8.4,5.4,7.2,5.4,6.1,6.2z"/>
</g>
<g id="missile">
	<path d="M50.8,43.2c0.1-0.1,0.1-0.3,0.1-0.4c-0.3-1.1-0.6-2.2-0.9-3.4c6.5-0.8,9.3-4.1,5.4-9.9C48.9,20,47.9,18,45.3,16.6
		c-2.5-1.4-5.3-1.1-7.9-0.5c-4.6-5-10.8-8.8-17.7-10.4c0-0.2-0.2-0.4-0.5-0.1c-4.7-1-9.4-1-13.8,0.3C5.2,6,5,6.1,5,6.2
		c-3.1,9.9-0.4,22.9,10.4,32.8c-1.2,3.1-0.2,6.3,1.6,8.1c1.3,1.3,3.2,2.2,4.7,3.2c2.5,1.7,5.1,3.4,7.6,5.1c1.6,1.1,3.5,2.2,5.4,2.2
		c3.1,0,5-2.8,5.2-5.8c1.4,0.4,2.7,0.7,3.8,1c0.2,0.1,0.4,0,0.5-0.2c1-1.5,2.1-3.2,3.2-4.8C48.7,46.4,49.9,44.7,50.8,43.2z M48.3,38
		l-0.6-0.6l0.4-0.4c0.1,0.4,0.3,0.8,0.4,1.2c0,0,0,0,0,0l-0.1,0.1C48.4,38.2,48.4,38.1,48.3,38z M49.6,38.1
		c-0.2-0.5-0.4-1.1-0.5-1.6c0.1,0,0.2,0.1,0.3,0l0.7-0.7l0.9,1C50.9,36.8,49.6,38.1,49.6,38.1z M51.2,37.2l0.7,0.8
		c-0.6,0.2-1.3,0.3-1.9,0.4C50,38.4,51.2,37.2,51.2,37.2z M47.9,33.2l0.3-0.3l0.8,0.8c0,0,0.1,0,0.1,0.1l-0.7,0.7
		C48.2,34.1,48,33.7,47.9,33.2z M47.7,32.7c0,0-0.1-0.3-0.1-0.3l0.2,0.2C47.8,32.6,47.7,32.7,47.7,32.7z M52.6,37.8l1.2-1.2l0.3,0.3
		c0.1,0.1,0.2,0.1,0.3,0C53.8,37.4,53.3,37.5,52.6,37.8z M54.5,36.9c0.1-0.1,0.1-0.2,0-0.3l-0.3-0.3l0.8-0.8l0.6,0.6
		C55.3,36.3,54.9,36.6,54.5,36.9z M44.8,17.5c2.4,1.3,3.3,3.1,9.8,12.6c1.2,1.7,2.4,3.7,1.3,5.5L55.3,35l0.2-0.2
		c0.1-0.1,0.1-0.3,0-0.4s-0.3-0.1-0.4,0L55,34.7l-0.6-0.6c-0.1-0.1-0.3-0.1-0.4,0s-0.1,0.3,0,0.4l0.6,0.6l-0.8,0.8l-0.7-0.7
		c-0.1-0.1-0.3-0.1-0.4,0s-0.1,0.3,0,0.4l0.7,0.7l-1.3,1.3l-0.6-0.7l0.7-0.7c0.1-0.1,0.1-0.3,0-0.4s-0.3-0.1-0.4,0l-0.7,0.7l-0.9-1
		l1.1-1.1c0.1-0.1,0.1-0.3,0-0.4s-0.3-0.1-0.4,0L50,35.1l-0.4-0.5c-0.1-0.1-0.2-0.1-0.4,0s-0.1,0.2,0,0.4l0.5,0.5l-0.7,0.7
		c0,0,0,0,0,0c-0.1-0.3-0.2-0.5-0.3-0.8c0-0.1-0.1-0.3-0.1-0.4c0.1,0,1.7-1.7,1.8-1.8c0.1-0.1,0.1-0.3,0-0.4s-0.3-0.1-0.4,0
		l-0.7,0.7c0,0,0-0.1-0.1-0.1l-0.8-0.8l0.6-0.6l0.7,0.7c0.1,0.1,0.3,0.1,0.4,0s0.1-0.3,0-0.4l-0.7-0.7l0.3-0.3
		c0.1-0.1,0.1-0.3,0-0.4s-0.3-0.1-0.4,0L49,31.3l-0.9-0.9c-0.1-0.1-0.3-0.1-0.4,0s-0.1,0.3,0,0.4l0,0l0.9,0.9l-0.6,0.6l-0.8-0.8
		c-0.1-0.1-0.1-0.1-0.2-0.1c-2.6-6-5.8-11-9-14.5C40.3,16.5,42.6,16.3,44.8,17.5z M17.7,7l-0.3-0.3l0.3-0.3c0.2,0,0.4,0.1,0.6,0.1
		C18.3,6.4,17.7,7,17.7,7z M17,6.3L17,6.3L17,6.3C17.1,6.2,17,6.3,17,6.3z M14.8,5.9l-0.4,0.4l-0.5-0.5C14.2,5.9,14.5,5.9,14.8,5.9z
		 M13.2,5.9C13.3,5.9,13.3,5.9,13.2,5.9l0.8,0.9l-1.1,1.1c-0.1,0.1-0.1,0.3,0,0.4s0.3,0.1,0.4,0l1.1-1.1L15,7.6
		c0.1,0.1,0.3,0.1,0.4,0s0.1-0.3,0-0.4l0,0l-0.6-0.6L15.5,6c0.2,0,0.5,0.1,0.7,0.1c0,0,0,0.1,0,0.1l0.4,0.4l-1.1,1.1
		c-0.1,0.1-0.1,0.3,0,0.4s0.3,0.1,0.4,0l0,0L17,7l0.4,0.4c0.1,0.1,0.3,0.1,0.4,0c0,0,0,0,0,0c0,0,0,0,0,0c0,0,0,0,0,0
		c0.1,0,0.1,0,0.2-0.1l0.7-0.7L19.1,7c0.1,0.1,0.3,0.1,0.4,0c0,0,0,0,0,0c0.1-0.1,0.1-0.2,0-0.3c0.2,0,0.4,0.1,0.6,0.2L5.4,20.2
		c-0.1-0.4-0.2-0.9-0.2-1.3l1.1-1.1l0.5,0.5c0.1,0.1,0.3,0.1,0.4,0s0.1-0.3,0-0.4l-0.5-0.5L8,16.1c0.1-0.1,0.1-0.3,0-0.4
		c-0.1-0.1-0.3-0.1-0.4,0l-1.4,1.4l-0.9-0.9l1.1-1.1c0.1,0,0.1,0,0.2-0.1c0.1-0.1,0.1-0.1,0.1-0.2l1.5-1.5c0.1-0.1,0.1-0.3,0-0.4
		S8,12.9,7.9,13l-1.4,1.4l-0.8-0.9l2.2-2.2c0.1-0.1,0.1-0.3,0-0.4s-0.3-0.1-0.4,0l-0.8,0.8c0.1-0.1,0.1-0.2,0-0.3l-0.9-0.9l2.5-2.5
		c0.1-0.1,0.1-0.3,0-0.4s-0.3-0.1-0.4,0l0,0L7.1,8.5c0.1-0.1,0.1-0.2,0-0.3L6.4,7.5l1.1-1.1c0.1,0,0.1,0,0.2,0c0,0.1,0,0.1,0.1,0.2
		l1.7,1.7c0.1,0.1,0.3,0.1,0.4,0c0,0,0,0,0,0c0-0.1,0.1-0.1,0.1-0.2c0.1,0,0.1,0,0.1-0.1L11.1,7l0.6,0.6c0.1,0.1,0.3,0.1,0.4,0
		s0.1-0.3,0-0.4l-0.6-0.6l0.7-0.7C12.5,5.9,12.9,5.9,13.2,5.9z M5.7,7.5L5.7,7.5L5.7,7.5L5.7,7.5z M5.5,8.3c0.2,0,0.5-0.4,0.6-0.5
		l0.7,0.7c0.1,0.1,0.2,0.1,0.3,0l-1.7,1.7l-0.2-0.2C5.2,9.5,5.3,8.9,5.5,8.3z M5,11.4L5.4,11l0.9,0.9c0.1,0.1,0.2,0.1,0.3,0
		l-1.3,1.3l-0.4-0.4C4.9,12.4,4.9,11.9,5,11.4z M4.9,13.6L4.9,13.6L4.9,13.6L4.9,13.6z M4.9,16.5l1,1l-0.8,0.8
		C5,17.7,5,17.1,4.9,16.5z M4.9,15.8C4.9,15.7,4.9,15.8,4.9,15.8c0-0.5-0.1-0.9-0.1-1.4L5.2,14l0.8,0.9L5,15.9
		C5,15.9,4.9,15.8,4.9,15.8z M10.2,6c0,0.1,0,0.1,0.1,0.1l0.5,0.5L9.7,7.7c0,0,0,0.1,0,0.1L9,7.1L10.2,6C10.2,6,10.2,6,10.2,6z
		 M10.8,5.9c0.2,0,0.5,0,0.7-0.1l-0.4,0.4L10.8,5.9z M8.7,6.8L8.2,6.3C8.6,6.2,9,6.1,9.4,6.1C9.4,6.1,8.7,6.8,8.7,6.8z M6.5,6.6
		L6,7.1L5.8,6.9c0,0,0-0.1,0-0.1C6.1,6.7,6.3,6.7,6.5,6.6z M5.7,21.3L21.2,7.1C34.8,11.2,43.3,22.9,48,36.4l-0.6,0.6l-0.2-0.2
		c-0.1-0.1-0.3-0.1-0.4,0s-0.1,0.3,0,0.4l0.2,0.2l-0.3,0.3c-0.1,0.1-0.1,0.3,0,0.4s0.3,0.1,0.4,0l0.3-0.3l0.6,0.6
		c0,0,0.1,0.1,0.2,0.1c0,0,0,0,0,0l-0.9,0.9c-0.1,0.1-0.1,0.3,0,0.4s0.3,0.1,0.4,0l1-1c0.1,0.2,0.1,0.3,0.2,0.5
		c0.2,0.6,0.3,1.1,0.5,1.7c0,0-0.1,0-0.1,0l-0.5,0.5l-1.6-1.6c-0.1-0.1-0.3-0.1-0.4,0s-0.1,0.3,0,0.4l0.9,0.9c0,0-0.1,0-0.1,0.1
		l-1.2,1.2l-0.1-0.1c-0.1-0.1-0.3-0.1-0.4,0s-0.1,0.3,0,0.4l0.1,0.1l-1.3,1.3c-0.1,0.1-0.1,0.3,0,0.4s0.3,0.1,0.4,0l1.3-1.3l1,1
		l-1.8,1.8l-1.3-1.3c-0.1-0.1-0.3-0.1-0.4,0s-0.1,0.3,0,0.4l1.3,1.3L44.5,47c-0.1,0.1-0.1,0.3,0,0.4s0.3,0.1,0.4,0l0.7-0.7l0.6,0.6
		c0,0,0,0,0,0l-1.3,1.3l-1.1-1.1l0.6-0.6c0.1-0.1,0.1-0.3,0-0.4s-0.3-0.1-0.4,0l-0.6,0.6l-0.8-0.8c-0.1-0.1-0.3-0.1-0.4,0
		s-0.1,0.3,0,0.4l0.8,0.8l-1.6,1.6l-0.8-0.8l0.9-0.9c0.1-0.1,0.1-0.3,0-0.4s-0.3-0.1-0.4,0l-0.9,0.9l-0.7-0.7
		c-0.1-0.1-0.3-0.1-0.4,0s-0.1,0.3,0,0.4l0.7,0.7l-1,1l-1-1l1.1-1.1c0.1-0.1,0.1-0.3,0-0.4s-0.3-0.1-0.4,0l-1.1,1.1l-0.1-0.1
		c-0.1-0.1-0.3-0.1-0.4,0s-0.1,0.3,0,0.4l0.1,0.1l-1.2,1.2c0,0-0.1,0.1-0.1,0.1c-13.3-4.6-19.5-11-19.5-11
		C11.2,33.9,7.4,28.2,5.7,21.3L5.7,21.3z M42.2,51.5c-0.6-0.2-1.3-0.3-2-0.5l1.2-1.2l1.1,1.1l-0.3,0.3
		C42.2,51.3,42.2,51.4,42.2,51.5z M38.4,50.4l0.5-0.5l0.4,0.4c0.1,0.1,0.3,0.1,0.4,0s0.1-0.3,0-0.4l-0.4-0.4l1-1l0.8,0.8
		c-0.1,0.1-1.3,1.3-1.4,1.4C39.5,50.8,38.7,50.5,38.4,50.4z M36.3,49.8l1.2-1.2l1,1l-0.7,0.7C37.4,50.1,36.9,49.9,36.3,49.8z
		 M41.8,49.4l1.6-1.6l1.1,1.1L43,50.5L41.8,49.4z M34,56.3l0.4,0.4c-0.2,0-0.5-0.1-0.7-0.1c0,0,0.1,0,0.1,0L34,56.3z M33.4,56.2
		c-0.1,0.1-0.1,0.2,0,0.3c-0.5-0.2-1.1-0.4-1.6-0.7l0.8-0.8l1,1C33.6,56,33.4,56.2,33.4,56.2z M34.9,56.7c0-0.1,0-0.2-0.1-0.2
		L34.3,56l0.8-0.8l0.7,0.7c0,0.1,0.1,0.3,0.3,0.3l0.3,0.3C35.9,56.6,35.4,56.7,34.9,56.7z M35.5,54.8l1.1-1.1l0.6,0.6l-1.1,1.1
		C36.2,55.4,35.5,54.8,35.5,54.8z M36.8,56.1C36.8,56.1,36.8,56.1,36.8,56.1l-0.3-0.3l1.1-1.1l0.3,0.3
		C37.6,55.4,37.2,55.8,36.8,56.1z M38.2,54.6l-0.3-0.3l0.2-0.2c0.1-0.1,0.1-0.3,0-0.4s-0.3-0.1-0.4,0L37.6,54l-0.6-0.6l0.2-0.2
		c0.1-0.1,0.1-0.3,0-0.4s-0.3-0.1-0.4,0L36.6,53l0,0c-0.1-0.1-0.3-0.1-0.4,0s-0.1,0.3,0,0.4l0,0l-1.1,1.1L34.8,54
		c-0.1-0.1-0.3-0.1-0.4,0s-0.1,0.3,0,0.4l0,0l0.4,0.4L34,55.6l-1-1l1.5-1.5c0.1-0.1,0.1-0.3,0-0.4s-0.3-0.1-0.4,0l-1.5,1.5L32.4,54
		c-0.1-0.1-0.3-0.1-0.4,0c-0.1,0.1-0.1,0.3,0,0.4l0.3,0.3l-0.9,0.9c-0.5-0.3-1-0.6-1.4-0.9c-2.5-1.7-5.1-3.4-7.6-5.1
		c-1.5-1-3.4-1.8-4.6-3.1c-1.2-1.2-2.5-3.9-1.6-6.7c6.5,5.7,14.5,9.4,22.8,11.9c0,0.4-0.1,0.9-0.2,1.3l-1.4-1.4
		c-0.1-0.1-0.3-0.1-0.4,0s-0.1,0.3,0,0.4l1.6,1.6C38.5,53.9,38.4,54.2,38.2,54.6z M42.6,51.6C42.6,51.6,42.6,51.6,42.6,51.6l0.4-0.4
		l0.5,0.5c0,0,0.1,0.1,0.2,0.1c0.1,0,0.1,0,0.2-0.1l-0.1,0.1C43.4,51.8,43,51.7,42.6,51.6z M43.9,51.7c0.1-0.1,0.1-0.2,0-0.3
		l-0.5-0.5l3.2-3.2c0.1-0.1,0.1-0.2,0-0.3c0,0,0,0,0.1,0c0.1-0.1,0.1-0.3,0-0.4c0,0,0,0,0,0L46,46.3l1.8-1.8l0.2,0.2
		c0.1,0.1,0.3,0.1,0.4,0s0.1-0.3,0-0.4L48,44.1c0-0.1,0-0.1-0.1-0.2s-0.1-0.1-0.2-0.1l-1.1-1.1l1.2-1.2c0,0,0-0.1,0.1-0.1l0.4,0.4
		l-0.8,0.8c-0.1,0.1-0.1,0.3,0,0.4s0.3,0.1,0.4,0l0.8-0.8l0.4,0.4c0.1,0.1,0.3,0.1,0.4,0s0.1-0.3,0-0.4l-0.4-0.4l0.4-0.4
		c0.1,0.5,0.3,0.9,0.4,1.4c-0.9,1.5-2,3-3.1,4.6C45.8,48.8,44.8,50.3,43.9,51.7z"/>
	<path d="M24.7,29.8c3.1,0.4,5.6-2.5,4.7-5.6c-1-3.5-5.5-4.2-7.5-1.1c-0.8,1.2-1,2.6-0.6,3.9C21.8,28.4,23.1,29.5,24.7,29.8z
		 M22.4,27l0.2,0.2l-0.1,0.1C22.5,27.2,22.4,27.1,22.4,27z M23.2,23l0.6,0.6c-0.1,0-0.2,0-0.3,0L23.1,24l-0.4-0.4
		C22.8,23.4,23,23.2,23.2,23z M22.4,24l0.3,0.3l-0.5,0.5c-0.1,0.1-0.1,0.3,0,0.4s0.3,0.1,0.4,0l0.5-0.5l0.4,0.4
		c0.1,0.1,0.3,0.1,0.4,0s0.1-0.3,0-0.4l-0.4-0.4l0.4-0.4c0.1-0.1,0.1-0.2,0-0.3c0.1,0.1,0.3,0.2,0.4,0.1c0.1-0.1,0.1-0.3,0-0.4
		c0,0,0,0,0,0l-0.8-0.8c0.2-0.2,0.4-0.3,0.7-0.4l0.6,0.6l-0.3,0.3c-0.1,0.1-0.1,0.3,0,0.4s0.3,0.1,0.4,0l0.3-0.3l0.4,0.4
		c0.1,0.1,0.3,0.1,0.4,0s0.1-0.3,0-0.4L25.6,23l0.3-0.3c0.1-0.1,0.1-0.3,0-0.4s-0.3-0.1-0.4,0l-0.3,0.3l-0.4-0.4
		c0.2,0,0.3-0.1,0.5-0.1c1.5-0.1,2.7,0.8,3.2,2.3c0.7,2.4-1.3,4.7-3.6,4.4c-0.8-0.1-1.5-0.5-2-1.1l0.1-0.1c0.1,0,0.1,0,0.2,0
		c0.1-0.1,0.1-0.2,0-0.2l1.1-1.1c0.1-0.1,0.1-0.3,0-0.4s-0.3-0.1-0.4,0l-1.1,1.1L22.1,26C22,25.3,22.1,24.6,22.4,24z"/>
	<path d="M24,33.9c8.1,1.2,12.9-9.1,7.1-14.8c-6.4-6.2-16.3,1.3-13.7,9.2C18.4,31.2,21,33.5,24,33.9z M30.4,19.9
		c5.1,5,0.9,14.1-6.2,13.1c-2.6-0.4-5-2.4-5.8-4.9C16,21.1,24.7,14.3,30.4,19.9z M23.8,10.8c0.7,0.1,1.4,0.4,2.1,0.6l-0.8,0.8
		c-0.1,0.1-0.1,0.3,0,0.4s0.3,0.1,0.4,0l0.9-0.9c0.9,0.4,1.7,0.8,2.6,1.4l-0.4,0.4c-0.1,0.1-0.1,0.3,0,0.4s0.3,0.1,0.4,0l0.5-0.5
		c0.6,0.4,1.1,0.8,1.6,1.3L30.7,15c-0.1,0.1-0.1,0.3,0,0.4s0.3,0.1,0.4,0l0.4-0.4c0.3,0.3,0.6,0.5,0.9,0.8l-0.4,0.4
		c-0.1,0.1-0.1,0.3,0,0.4c0.1,0.1,0.3,0.1,0.4,0l0.4-0.4c0.2,0.2,0.4,0.5,0.7,0.7l-0.5,0.5c-0.1,0.1-0.1,0.3,0,0.4s0.3,0.1,0.4,0
		l0.5-0.5c0.5,0.5,1,1,1.4,1.6l-0.7,0.7c-0.1,0.1-0.1,0.3,0,0.4s0.3,0.1,0.4,0l0.6-0.6c0.4,0.4,0.8,0.9,1.1,1.3l-0.4,0.4
		c-0.1,0.1-0.1,0.3,0,0.4s0.3,0.1,0.4,0l0.4-0.4l0.4,0.5L36.7,22c-0.1,0.1-0.1,0.3,0,0.4s0.3,0.1,0.4,0l0.6-0.6l0.8,0.9l-0.5,0.5
		c-0.1,0.1-0.1,0.3,0,0.4s0.3,0.1,0.4,0l0.5-0.5l1.3,1.5c0.1,0.1,0.2,0.1,0.4,0c0.1-0.1,0.1-0.2,0-0.4l-1.3-1.5l0.3-0.3
		c0.1-0.1,0.1-0.3,0-0.4s-0.3-0.1-0.4,0l-0.3,0.3L38,21.3l0.1-0.1c0.1-0.1,0.1-0.3,0-0.4s-0.3-0.1-0.4,0L37.7,21l-0.4-0.5l0.3-0.3
		c0.1-0.1,0.1-0.3,0-0.4s-0.3-0.1-0.4,0L36.9,20c-0.4-0.4-0.7-0.9-1.1-1.3l0.6-0.6c0.1-0.1,0.1-0.3,0-0.4s-0.3-0.1-0.4,0l-0.6,0.6
		c-0.5-0.5-0.9-1.1-1.4-1.6l0.4-0.4c0.1-0.1,0.1-0.3,0-0.4c-0.1-0.1-0.3-0.1-0.4,0l-0.4,0.4c-0.2-0.2-0.4-0.5-0.7-0.7l0.5-0.5
		c0.1-0.1,0.1-0.3,0-0.4s-0.3-0.1-0.4,0l-0.5,0.5c-0.3-0.3-0.6-0.6-0.9-0.8c0.1-0.1,0.1-0.2,0-0.3c-0.1-0.1-0.3-0.1-0.4,0
		c0,0,0,0,0,0l0,0c-0.5-0.4-1.1-0.9-1.6-1.3l0.5-0.5c0.1-0.1,0.1-0.3,0-0.4s-0.3-0.1-0.4,0l0,0l-0.6,0.6c-0.8-0.5-1.7-1-2.5-1.4
		l0.6-0.6c0.1-0.1,0.1-0.3,0-0.4s-0.3-0.1-0.4,0L26.3,11c-0.8-0.3-1.6-0.6-2.4-0.7c-0.1,0-0.3,0.1-0.3,0.2
		C23.6,10.6,23.7,10.8,23.8,10.8C23.8,10.8,23.8,10.8,23.8,10.8z M31.7,44.5c-0.8-0.3-1.6-0.7-2.4-1.1l0.4-0.4
		c0.1-0.1,0.1-0.3,0-0.4s-0.3-0.1-0.4,0l-0.5,0.5c-0.4-0.2-0.9-0.5-1.3-0.7l0.8-0.8c0.1-0.1,0.1-0.3,0-0.4s-0.3-0.1-0.4,0L27,42.2
		c-0.6-0.4-1.2-0.7-1.8-1.1l0.8-0.8c0.1-0.1,0.1-0.3,0-0.4s-0.3-0.1-0.4,0l-0.9,0.9c-0.6-0.4-1.1-0.8-1.6-1.2l1.7-1.7
		c0.1-0.1,0.1-0.3,0-0.4s-0.3-0.1-0.4,0l-1.7,1.7c-0.7-0.6-1.5-1.2-2.2-1.8c-0.1-0.1-0.3-0.1-0.4,0c-0.1,0.1-0.1,0.3,0,0.4
		c0.7,0.6,1.4,1.2,2.2,1.8l-0.7,0.7c-0.1,0.1-0.1,0.3,0,0.4s0.3,0.1,0.4,0l0.8-0.8c0.5,0.4,1.1,0.8,1.6,1.2L23,42.5
		c-0.1,0.1-0.1,0.3,0,0.4s0.3,0.1,0.4,0l1.4-1.4c0.6,0.4,1.2,0.8,1.8,1.1l-0.8,0.8c-0.1,0.1-0.1,0.3,0,0.4s0.3,0.1,0.4,0l0.9-0.9
		c0.4,0.2,0.9,0.5,1.3,0.7l-1.1,1.1c-0.1,0.1-0.1,0.3,0,0.4s0.3,0.1,0.4,0l1.2-1.2c0.9,0.4,1.7,0.8,2.6,1.2c0.1,0,0.3,0,0.3-0.1
		C31.9,44.7,31.8,44.5,31.7,44.5z"/>
</g>
<g id="Layer_3">
	<g>
		<path class="st1" d="M46.9,54.7c-0.7,0.3-1.4,0.7-2.1,1"/>
		<path class="st2" d="M46.3,54.5c1.6,2.4,3.3,4.7,4.9,7.1"/>
		<path class="st2" d="M49.4,54.7c0.7,2,1.4,4,2.1,6"/>
		<path class="st2" d="M49.4,54.7c3.5,2.3,7.1,4.6,10.6,7"/>
		<path class="st2" d="M60,61.3c-2.6-3-5.1-5.9-7.7-8.9"/>
		<path class="st2" d="M52.5,52.6c3,0.6,6,1.2,9,1.8"/>
		<path class="st2" d="M61.6,54.4c-2.4-1.3-4.9-2.7-7.3-4"/>
		<path class="st2" d="M54.5,50.5c1.3,0.2,2.6,0.3,3.9,0.5"/>
		<path class="st2" d="M58.6,51.1c-1-0.4-2-0.9-3-1.3"/>
		<path class="st2" d="M64.9,49.5c-3.2,0.2-6.3,0.3-9.5,0.5"/>
		<path class="st2" d="M64.9,49.3c-3.1-1-6.2-2.1-9.3-3.1"/>
		<path class="st2" d="M55.4,46.1c2.2-0.4,4.4-0.8,6.6-1.2"/>
		<path class="st3" d="M62,44.9c-2.4-0.2-4.9-0.5-7.3-0.7"/>
		<path class="st2" d="M53.9,40.8c0.3,1.2,0.6,2.4,0.9,3.7"/>
	</g>
</g>
</svg>
