<svg xmlns="http://www.w3.org/2000/svg" viewBox="0 0 600 600"><g id="bg"><rect width="600" height="600" fill="#8d7dff"/></g><g id="Layer_3" data-name="Layer 3"><path d="M67.94,71.48c-4.74-13.92.35-29.21,11.84-40.36a36.53,36.53,0,1,0,24.48,65.3C87.35,95.24,72.91,86.06,67.94,71.48Z" fill="#ff7545" stroke="#232323" stroke-miterlimit="10" stroke-width="0.75" fill-rule="evenodd"/><path d="M202.59,100.42c5.08-9.52,15.7-14.51,27.25-14a26.06,26.06,0,0,0-5.77-4.2,26.8,26.8,0,0,0-25.21,47.28,25.9,25.9,0,0,0,8.27,2.74C199.47,122.65,197.28,110.39,202.59,100.42Z" fill="#ff7545" stroke="#232323" stroke-miterlimit="10" stroke-width="0.75" fill-rule="evenodd"/><path d="M90.74,170.59a23.32,23.32,0,0,1,6.42-21.39,12,12,0,0,0-4.27,0c-8.45,1.63-13.53,12.19-11.34,23.59s10.82,19.33,19.27,17.7a12,12,0,0,0,4.78-2.09C98.34,186,92.41,179.29,90.74,170.59Z" fill="#ff7545" stroke="#232323" stroke-miterlimit="10" stroke-width="0.75" fill-rule="evenodd"/><path d="M147.89,180.52c1.9-17.43,15.12-31.38,33.16-37.63a43.56,43.56,0,1,0-6.52,82.92C156.85,216,145.89,198.79,147.89,180.52Z" fill="#ff7545" stroke="#232323" stroke-miterlimit="10" stroke-width="0.75" fill-rule="evenodd"/><path d="M131.1,50c6.33-4,14.45-3.36,21.26.89a17.92,17.92,0,0,0-2-4.52,18.6,18.6,0,0,0-31.45,19.86,18.2,18.2,0,0,0,4,4.49C121.58,62.29,124.47,54.14,131.1,50Z" fill="#ff7545" stroke="#232323" stroke-miterlimit="10" stroke-width="0.75" fill-rule="evenodd"/><path d="M485.77,440.37c-3,14.4-15.17,25-30.74,28.72a36.54,36.54,0,1,0,12.19-68.67C481.17,410,488.92,425.29,485.77,440.37Z" fill="#ff7545" stroke="#232323" stroke-miterlimit="10" stroke-width="0.75" fill-rule="evenodd"/><path d="M431.48,30.74C429,20.25,433.69,9.48,442.68,2.21a25.76,25.76,0,0,0-7.11.65A26.54,26.54,0,0,0,416.11,35a26.53,26.53,0,0,0,31.73,20,25.49,25.49,0,0,0,8-3.39C443.81,49.5,434.07,41.74,431.48,30.74Z" fill="#ff7545" stroke="#232323" stroke-miterlimit="10" stroke-width="0.75" fill-rule="evenodd"/><path d="M437,390.78a23.32,23.32,0,0,1,9.89,20,11.52,11.52,0,0,0,3.1-2.93c5.08-6.95,1.59-18.14-7.79-25s-21.1-6.76-26.17.2a12,12,0,0,0-2.07,4.79C420.94,384.71,429.84,385.55,437,390.78Z" fill="#ff7545" stroke="#232323" stroke-miterlimit="10" stroke-width="0.75" fill-rule="evenodd"/><path d="M388.44,422.5c10.5,14,10.35,33.26,1.42,50.14a43.57,43.57,0,1,0-51.8-65.08C357.68,402.67,377.43,407.78,388.44,422.5Z" fill="#ff7545" stroke="#232323" stroke-miterlimit="10" stroke-width="0.75" fill-rule="evenodd"/><path d="M565.88,51.28c3.68,6.52,2.65,14.6-1.93,21.19a17.71,17.71,0,0,0,4.61-1.82,18.6,18.6,0,0,0-18.3-32.37,18,18,0,0,0-4.68,3.82C554,41.17,562,44.45,565.88,51.28Z" fill="#ff7545" stroke="#232323" stroke-miterlimit="10" stroke-width="0.75" fill-rule="evenodd"/><path d="M267.37,48.65c-4.74-13.92.35-29.21,11.84-40.36a36.53,36.53,0,1,0,24.48,65.3C286.78,72.42,272.34,63.23,267.37,48.65Z" fill="#ff7545" stroke="#232323" stroke-miterlimit="10" stroke-width="0.75" fill-rule="evenodd"/><path d="M500,332.25c7.69,16.39,3.73,35.7-8.52,50.76A43.24,43.24,0,0,0,503,379.47c22.07-10.36,31.42-37,20.87-59.47s-37-32.32-59.08-22a43.15,43.15,0,0,0-12,8.36C473.27,305.7,492,315.08,500,332.25Z" fill="#ff7545" stroke="#232323" stroke-miterlimit="10" stroke-width="0.75" fill-rule="evenodd"/><path d="M48.7,357.61c-2,17.45-15.39,31.32-33.51,37.44a43.65,43.65,0,1,0,7.18-83C40,322,50.84,339.32,48.7,357.61Z" fill="#ff7545" stroke="#232323" stroke-miterlimit="10" stroke-width="0.75" fill-rule="evenodd"/><path d="M258.38,125c6.33-4,14.45-3.36,21.26.9a17.92,17.92,0,0,0-2-4.52,18.59,18.59,0,0,0-31.44,19.85,17.84,17.84,0,0,0,4,4.5C248.86,137.35,251.75,129.2,258.38,125Z" fill="#ff7545" stroke="#232323" stroke-miterlimit="10" stroke-width="0.75" fill-rule="evenodd"/><path d="M553,286.81c-8.21-12.2-7.28-28.29.9-42.05a36.53,36.53,0,1,0,40.66,56.66C577.89,304.69,561.56,299.59,553,286.81Z" fill="#ff7545" stroke="#232323" stroke-miterlimit="10" stroke-width="0.75" fill-rule="evenodd"/><path d="M328.92,98.89c5.07-9.52,15.69-14.51,27.25-14a25.73,25.73,0,0,0-5.78-4.2,26.79,26.79,0,0,0-25.21,47.27,25.73,25.73,0,0,0,8.27,2.74C325.79,121.12,323.6,108.86,328.92,98.89Z" fill="#ff7545" stroke="#232323" stroke-miterlimit="10" stroke-width="0.75" fill-rule="evenodd"/><path d="M70.06,472.71a23.36,23.36,0,0,1,6.42-21.38,12,12,0,0,0-4.26,0C63.76,453,58.68,463.54,60.87,475s10.82,19.32,19.28,17.7a12.07,12.07,0,0,0,4.78-2.09C77.67,488.1,71.74,481.42,70.06,472.71Z" fill="#ff7545" stroke="#232323" stroke-miterlimit="10" stroke-width="0.75" fill-rule="evenodd"/><path d="M136.13,514.91c1.9-17.44,15.12-31.39,33.17-37.64a43.57,43.57,0,1,0-6.53,82.92C145.1,550.38,134.14,533.17,136.13,514.91Z" fill="#ff7545" stroke="#232323" stroke-miterlimit="10" stroke-width="0.75" fill-rule="evenodd"/><path d="M136.28,352.08c6.33-4,14.45-3.36,21.26.89a17.92,17.92,0,0,0-2-4.52,18.6,18.6,0,0,0-31.44,19.86,18,18,0,0,0,4,4.49C126.76,364.42,129.65,356.27,136.28,352.08Z" fill="#ff7545" stroke="#232323" stroke-miterlimit="10" stroke-width="0.75" fill-rule="evenodd"/><path d="M542.66,115.81c13,6.94,19.67,21.59,18.88,37.59a37,37,0,0,0,5.83-8,36.53,36.53,0,1,0-68.28-23C512.26,111.67,529.08,108.54,542.66,115.81Z" fill="#ff7545" stroke="#232323" stroke-miterlimit="10" stroke-width="0.75" fill-rule="evenodd"/><path d="M439,208.91c2.78,10.42-1.57,21.32-10.34,28.86a25.84,25.84,0,0,0,7.09-.87,26.79,26.79,0,0,0-13.82-51.76,25.67,25.67,0,0,0-7.92,3.63C426.09,190.52,436.06,198,439,208.91Z" fill="#ff7545" stroke="#232323" stroke-miterlimit="10" stroke-width="0.75" fill-rule="evenodd"/><path d="M429.3,103.11c-3.69-13.11-.46-26.37,7.4-35.17a19.09,19.09,0,0,0-6.84.62c-13.34,3.76-20.06,21.39-15,39.38s20,29.54,33.32,25.79a19.29,19.29,0,0,0,7.39-4C443.59,126.77,433.16,116.85,429.3,103.11Z" fill="#ff7545" stroke="#232323" stroke-miterlimit="10" stroke-width="0.75" fill-rule="evenodd"/><path d="M191.61,415.43c10.5,14,10.35,33.26,1.42,50.14a43.56,43.56,0,1,0-51.79-65.08C160.86,395.61,180.61,400.71,191.61,415.43Z" fill="#ff7545" stroke="#232323" stroke-miterlimit="10" stroke-width="0.75" fill-rule="evenodd"/><path d="M501.45,203.91c-1.9,7.24-8.27,12.32-16.15,13.85a17.72,17.72,0,0,0,4.58,1.91,18.59,18.59,0,0,0,9.45-36,18,18,0,0,0-6-.53C500,188.4,503.45,196.32,501.45,203.91Z" fill="#ff7545" stroke="#232323" stroke-miterlimit="10" stroke-width="0.75" fill-rule="evenodd"/><path d="M52,246.48c0-14.7,9.75-27.53,24.22-34.38a36.53,36.53,0,1,0,2.11,69.71C62.7,275.24,52,261.89,52,246.48Z" fill="#ff7545" stroke="#232323" stroke-miterlimit="10" stroke-width="0.75" fill-rule="evenodd"/><path d="M291,447.71c-7.2-16.61-2.67-35.79,10-50.48a43.35,43.35,0,0,0-11.56,3.2c-22.37,9.69-32.5,36-22.63,58.82s36,33.4,58.4,23.71a43.26,43.26,0,0,0,12.24-8C316.94,475.05,298.54,465.12,291,447.71Z" fill="#ff7545" stroke="#232323" stroke-miterlimit="10" stroke-width="0.75" fill-rule="evenodd"/><path d="M372.55,250.86c9.78,21.74,3.91,47.18-12.92,66.94a59.21,59.21,0,1,0-49.49-101.63C337.6,215.48,362.3,228.09,372.55,250.86Z" fill="#ff7545" stroke="#232323" stroke-miterlimit="10" stroke-width="0.75" fill-rule="evenodd"/><path d="M212,247.19c-5.37,6.54-15.12,8.09-25.13,5a28.5,28.5,0,0,0,4.61,4.79c10.47,8.6,24.93,8.29,32.3-.68s4.85-23.21-5.62-31.81a27.64,27.64,0,0,0-6.92-4.19C217,229.85,217.64,240.34,212,247.19Z" fill="#ff7545" stroke="#232323" stroke-miterlimit="10" stroke-width="0.75" fill-rule="evenodd"/><path d="M129.19,283.22c-3.57-10.18-.07-21.38,8.1-29.57a25.77,25.77,0,0,0-7,1.41A26.79,26.79,0,0,0,148,305.61a25.44,25.44,0,0,0,7.61-4.23C143.44,300.56,132.93,293.88,129.19,283.22Z" fill="#ff7545" stroke="#232323" stroke-miterlimit="10" stroke-width="0.75" fill-rule="evenodd"/><path d="M188.44,323.53c1.34-7.36,7.31-12.91,15.05-15a18.09,18.09,0,0,0-4.71-1.55,18.59,18.59,0,0,0-6.66,36.58,17.84,17.84,0,0,0,6,.07C191.08,338.89,187,331.25,188.44,323.53Z" fill="#ff7545" stroke="#232323" stroke-miterlimit="10" stroke-width="0.75" fill-rule="evenodd"/><path d="M316.37,333.22c5.07-9.51,15.69-14.51,27.25-14a25.81,25.81,0,0,0-5.78-4.2,26.79,26.79,0,0,0-25.21,47.27A25.76,25.76,0,0,0,320.9,365C313.25,355.45,311.05,343.19,316.37,333.22Z" fill="#ff7545" stroke="#232323" stroke-miterlimit="10" stroke-width="0.75" fill-rule="evenodd"/><path d="M267.27,294.26c6.33-4,14.45-3.36,21.26.89a17.92,17.92,0,0,0-2-4.52,18.59,18.59,0,0,0-31.44,19.85,17.84,17.84,0,0,0,4,4.5C257.75,306.59,260.64,298.45,267.27,294.26Z" fill="#ff7545" stroke="#232323" stroke-miterlimit="10" stroke-width="0.75" fill-rule="evenodd"/><path d="M286,225.4c-3.57-10.18-.06-21.38,8.1-29.57a25.92,25.92,0,0,0-7,1.41,26.79,26.79,0,0,0,17.75,50.55,26.07,26.07,0,0,0,7.62-4.23C300.29,242.74,289.78,236.06,286,225.4Z" fill="#ff7545" stroke="#232323" stroke-miterlimit="10" stroke-width="0.75" fill-rule="evenodd"/><path d="M72.88,568.08c1.34-7.37,7.3-12.92,15-15.05a18,18,0,0,0-4.71-1.56,18.6,18.6,0,0,0-6.65,36.59,18,18,0,0,0,6,.06C75.52,583.43,71.48,575.79,72.88,568.08Z" fill="#ff7545" stroke="#232323" stroke-miterlimit="10" stroke-width="0.75" fill-rule="evenodd"/><path d="M462.78,583.9a23.35,23.35,0,0,1-17.28-14.14,12.1,12.1,0,0,0-1.61,4c-1.75,8.43,6.05,17.18,17.42,19.53s22-2.57,23.75-11A11.93,11.93,0,0,0,485,577C479.91,582.78,471.46,585.7,462.78,583.9Z" fill="#ff7545" stroke="#232323" stroke-miterlimit="10" stroke-width="0.75" fill-rule="evenodd"/><path d="M545.49,567.27c-6.84-8.34-7.38-20.06-2.51-30.55a25.54,25.54,0,0,0-6.09,3.72,26.79,26.79,0,0,0,34,41.42,25.75,25.75,0,0,0,5.71-6.58C564.82,578.69,552.66,576,545.49,567.27Z" fill="#ff7545" stroke="#232323" stroke-miterlimit="10" stroke-width="0.75" fill-rule="evenodd"/><path d="M472.43,512.26c-1.26-7.38,2.44-14.64,9-19.29a17.63,17.63,0,0,0-5,.15,18.59,18.59,0,0,0,6.27,36.65,17.75,17.75,0,0,0,5.7-2C480.16,525.78,473.75,520,472.43,512.26Z" fill="#ff7545" stroke="#232323" stroke-miterlimit="10" stroke-width="0.75" fill-rule="evenodd"/><path d="M376,533.9c-4-16.6,3.34-33.69,17.52-45.28a40.93,40.93,0,0,0-11.26,1.1c-22.36,5.37-36.05,28.2-30.58,51s28,36.88,50.4,31.51a40.56,40.56,0,0,0,12.68-5.44C395.69,563.51,380.21,551.3,376,533.9Z" fill="#ff7545" stroke="#232323" stroke-miterlimit="10" stroke-width="0.75" fill-rule="evenodd"/><path d="M386.05,57.2c6.4,3.87,9.46,11.42,8.7,19.42a17.87,17.87,0,0,0,3.13-3.85,18.59,18.59,0,0,0-31.81-19.25,17.71,17.71,0,0,0-2.21,5.62C370.76,54.2,379.34,53.14,386.05,57.2Z" fill="#ff7545" stroke="#232323" stroke-miterlimit="10" stroke-width="0.75" fill-rule="evenodd"/><path d="M228.12,527c-11-8.58-15.05-23.22-11.9-37.86a33.35,33.35,0,0,0-6.63,6.44c-11.55,14.84-8.66,36.4,6.46,48.16s36.72,9.27,48.27-5.57a33.63,33.63,0,0,0,5.33-9.94C255.78,535.91,239.66,536,228.12,527Z" fill="#ff7545" stroke="#232323" stroke-miterlimit="10" stroke-width="0.75" fill-rule="evenodd"/></g><g id="moonStars"><polygon points="238.07 209.39 233.53 204.51 226.93 205.49 230.17 199.66 227.2 193.68 233.75 194.96 238.51 190.29 239.32 196.91 245.23 200 239.18 202.81 238.07 209.39" fill="#ff7545" stroke="#232323" stroke-miterlimit="10" stroke-width="0.75" fill-rule="evenodd"/><polygon points="336.89 287.44 329.78 279.81 319.46 281.34 324.52 272.21 319.88 262.87 330.12 264.87 337.57 257.57 338.83 267.92 348.08 272.75 338.62 277.15 336.89 287.44" fill="#ff7545" stroke="#232323" stroke-miterlimit="10" stroke-width="0.75" fill-rule="evenodd"/><polygon points="276.54 190.29 271.21 184.57 263.46 185.71 267.26 178.87 263.78 171.87 271.46 173.36 277.05 167.89 278 175.65 284.93 179.28 277.84 182.58 276.54 190.29" fill="#ff7545" stroke="#232323" stroke-miterlimit="10" stroke-width="0.75" fill-rule="evenodd"/><polygon points="551.98 221.36 545.35 222.09 542.2 227.97 539.45 221.9 532.89 220.71 537.82 216.22 536.91 209.62 542.71 212.92 548.71 210.02 547.36 216.55 551.98 221.36" fill="#ff7545" stroke="#232323" stroke-miterlimit="10" stroke-width="0.75" fill-rule="evenodd"/><polygon points="580.7 189.5 570.33 190.65 565.39 199.84 561.1 190.33 550.83 188.48 558.54 181.46 557.13 171.12 566.19 176.29 575.59 171.75 573.48 181.97 580.7 189.5" fill="#ff7545" stroke="#232323" stroke-miterlimit="10" stroke-width="0.75" fill-rule="evenodd"/><polygon points="590.44 218.72 582.67 219.58 578.97 226.47 575.74 219.34 568.04 217.96 573.83 212.69 572.77 204.94 579.57 208.81 586.61 205.41 585.03 213.07 590.44 218.72" fill="#ff7545" stroke="#232323" stroke-miterlimit="10" stroke-width="0.75" fill-rule="evenodd"/><polygon points="286.21 547.9 283.54 541.79 276.99 540.52 281.98 536.1 281.16 529.48 286.91 532.85 292.95 530.03 291.52 536.54 296.07 541.41 289.43 542.06 286.21 547.9" fill="#ff7545" stroke="#232323" stroke-miterlimit="10" stroke-width="0.75" fill-rule="evenodd"/><polygon points="325.16 565.86 320.98 556.3 310.74 554.32 318.54 547.39 317.26 537.04 326.26 542.32 335.71 537.9 333.47 548.09 340.59 555.72 330.21 556.73 325.16 565.86" fill="#ff7545" stroke="#232323" stroke-miterlimit="10" stroke-width="0.75" fill-rule="evenodd"/><polygon points="300.15 583.85 297.02 576.68 289.33 575.19 295.19 570 294.23 562.23 300.97 566.19 308.06 562.88 306.38 570.52 311.72 576.24 303.94 577 300.15 583.85" fill="#ff7545" stroke="#232323" stroke-miterlimit="10" stroke-width="0.75" fill-rule="evenodd"/><polygon points="98.01 363.87 95.34 357.76 88.79 356.5 93.78 352.07 92.96 345.45 98.71 348.83 104.75 346 103.32 352.52 107.87 357.39 101.23 358.04 98.01 363.87" fill="#ff7545" stroke="#232323" stroke-miterlimit="10" stroke-width="0.75" fill-rule="evenodd"/><polygon points="127.22 451.07 123.05 441.51 112.8 439.52 120.61 432.6 119.32 422.25 128.32 427.53 137.77 423.11 135.53 433.3 142.66 440.92 132.27 441.94 127.22 451.07" fill="#ff7545" stroke="#232323" stroke-miterlimit="10" stroke-width="0.75" fill-rule="evenodd"/><polygon points="85.39 434.28 82.26 427.11 74.58 425.63 80.43 420.43 79.47 412.66 86.21 416.63 93.3 413.31 91.62 420.95 96.96 426.67 89.18 427.43 85.39 434.28" fill="#ff7545" stroke="#232323" stroke-miterlimit="10" stroke-width="0.75" fill-rule="evenodd"/><polygon points="443.32 349.24 440.65 343.13 434.11 341.86 439.09 337.43 438.27 330.82 444.02 334.19 450.07 331.37 448.63 337.88 453.19 342.75 446.55 343.4 443.32 349.24" fill="#ff7545" stroke="#232323" stroke-miterlimit="10" stroke-width="0.75" fill-rule="evenodd"/><polygon points="425 324.36 418.79 310.13 403.54 307.18 415.15 296.87 413.24 281.45 426.64 289.31 440.71 282.73 437.38 297.9 447.98 309.25 432.52 310.77 425 324.36" fill="#ff7545" stroke="#232323" stroke-miterlimit="10" stroke-width="0.75" fill-rule="evenodd"/><polygon points="401.33 367.21 398.19 360.04 390.51 358.56 396.36 353.36 395.4 345.6 402.15 349.56 409.24 346.24 407.56 353.88 412.9 359.6 405.11 360.37 401.33 367.21" fill="#ff7545" stroke="#232323" stroke-miterlimit="10" stroke-width="0.75" fill-rule="evenodd"/><polygon points="160.73 36.13 156.18 31.25 149.58 32.23 152.82 26.4 149.85 20.42 156.4 21.7 161.16 17.03 161.97 23.65 167.88 26.74 161.84 29.55 160.73 36.13" fill="#ff7545" stroke="#232323" stroke-miterlimit="10" stroke-width="0.75" fill-rule="evenodd"/><polygon points="203.43 40.16 196.32 32.52 186 34.05 191.06 24.93 186.42 15.58 196.66 17.58 204.11 10.28 205.38 20.63 214.63 25.46 205.17 29.87 203.43 40.16" fill="#ff7545" stroke="#232323" stroke-miterlimit="10" stroke-width="0.75" fill-rule="evenodd"/><polygon points="185.8 65.42 180.47 59.69 172.73 60.84 176.53 54 173.05 46.99 180.73 48.49 186.31 43.01 187.26 50.78 194.2 54.4 187.1 57.7 185.8 65.42" fill="#ff7545" stroke="#232323" stroke-miterlimit="10" stroke-width="0.75" fill-rule="evenodd"/><polygon points="489.85 64.82 483.22 65.56 480.07 71.44 477.32 65.36 470.76 64.18 475.69 59.69 474.78 53.08 480.58 56.38 486.58 53.48 485.23 60.01 489.85 64.82" fill="#ff7545" stroke="#232323" stroke-miterlimit="10" stroke-width="0.75" fill-rule="evenodd"/><polygon points="518.57 32.96 508.2 34.11 503.26 43.3 498.97 33.8 488.7 31.95 496.41 24.92 495 14.58 504.06 19.75 513.46 15.21 511.35 25.43 518.57 32.96" fill="#ff7545" stroke="#232323" stroke-miterlimit="10" stroke-width="0.75" fill-rule="evenodd"/><polygon points="528.31 62.18 520.54 63.04 516.84 69.94 513.62 62.81 505.91 61.42 511.7 56.15 510.64 48.4 517.44 52.27 524.48 48.87 522.9 56.53 528.31 62.18" fill="#ff7545" stroke="#232323" stroke-miterlimit="10" stroke-width="0.75" fill-rule="evenodd"/><polygon points="224.08 391.36 221.41 385.25 214.86 383.98 219.85 379.56 219.03 372.94 224.78 376.31 230.82 373.49 229.39 380 233.94 384.88 227.3 385.53 224.08 391.36" fill="#ff7545" stroke="#232323" stroke-miterlimit="10" stroke-width="0.75" fill-rule="evenodd"/><polygon points="263.03 409.32 258.86 399.76 248.61 397.78 256.41 390.86 255.13 380.5 264.13 385.78 273.58 381.37 271.34 391.56 278.46 399.18 268.08 400.19 263.03 409.32" fill="#ff7545" stroke="#232323" stroke-miterlimit="10" stroke-width="0.75" fill-rule="evenodd"/><polygon points="238.02 427.31 234.89 420.14 227.21 418.65 233.06 413.46 232.1 405.69 238.84 409.65 245.93 406.34 244.25 413.98 249.59 419.7 241.81 420.46 238.02 427.31" fill="#ff7545" stroke="#232323" stroke-miterlimit="10" stroke-width="0.75" fill-rule="evenodd"/><polygon points="26 219.96 23.33 213.85 16.78 212.58 21.77 208.16 20.95 201.54 26.7 204.91 32.74 202.09 31.31 208.6 35.86 213.47 29.22 214.13 26 219.96" fill="#ff7545" stroke="#232323" stroke-miterlimit="10" stroke-width="0.75" fill-rule="evenodd"/><polygon points="92.81 256.15 88.64 246.58 78.39 244.6 86.2 237.68 84.92 227.32 93.91 232.6 103.36 228.19 101.12 238.38 108.25 246 97.86 247.01 92.81 256.15" fill="#ff7545" stroke="#232323" stroke-miterlimit="10" stroke-width="0.75" fill-rule="evenodd"/><polygon points="16.4 301.98 13.27 294.81 5.59 293.32 11.44 288.13 10.48 280.37 17.23 284.32 24.31 281.01 22.63 288.65 27.98 294.37 20.19 295.13 16.4 301.98" fill="#ff7545" stroke="#232323" stroke-miterlimit="10" stroke-width="0.75" fill-rule="evenodd"/><polygon points="393.88 179.09 391.21 172.98 384.66 171.71 389.65 167.29 388.83 160.67 394.58 164.04 400.62 161.22 399.19 167.73 403.74 172.6 397.1 173.25 393.88 179.09" fill="#ff7545" stroke="#232323" stroke-miterlimit="10" stroke-width="0.75" fill-rule="evenodd"/><polygon points="371.22 155.89 365 141.66 349.75 138.71 361.37 128.4 359.46 112.98 372.86 120.84 386.93 114.26 383.59 129.43 394.2 140.78 378.74 142.3 371.22 155.89" fill="#ff7545" stroke="#232323" stroke-miterlimit="10" stroke-width="0.75" fill-rule="evenodd"/><polygon points="349.37 195.06 346.24 187.89 338.56 186.41 344.41 181.21 343.45 173.45 350.2 177.41 357.29 174.09 355.61 181.74 360.95 187.45 353.16 188.22 349.37 195.06" fill="#ff7545" stroke="#232323" stroke-miterlimit="10" stroke-width="0.75" fill-rule="evenodd"/><polygon points="563.9 455.08 561.24 448.97 554.69 447.7 559.67 443.27 558.86 436.66 564.61 440.03 570.65 437.21 569.22 443.72 573.77 448.59 567.13 449.24 563.9 455.08" fill="#ff7545" stroke="#232323" stroke-miterlimit="10" stroke-width="0.75" fill-rule="evenodd"/><polygon points="545.59 430.2 539.37 415.97 524.12 413.02 535.73 402.7 533.83 387.29 547.22 395.15 561.29 388.57 557.96 403.74 568.56 415.09 553.1 416.61 545.59 430.2" fill="#ff7545" stroke="#232323" stroke-miterlimit="10" stroke-width="0.75" fill-rule="evenodd"/><polygon points="521.91 473.05 518.78 465.88 511.09 464.4 516.95 459.2 515.98 451.44 522.73 455.4 529.82 452.08 528.14 459.72 533.48 465.44 525.7 466.2 521.91 473.05" fill="#ff7545" stroke="#232323" stroke-miterlimit="10" stroke-width="0.75" fill-rule="evenodd"/><polygon points="13.93 122.31 16.33 116.08 12.57 110.58 19.23 110.94 23.3 105.66 25.02 112.1 31.3 114.34 25.7 117.97 25.51 124.63 20.33 120.43 13.93 122.31" fill="#ff7545" stroke="#232323" stroke-miterlimit="10" stroke-width="0.75" fill-rule="evenodd"/><polygon points="47.92 148.55 50.74 141.25 46.33 134.79 54.14 135.21 58.92 129.01 60.93 136.58 68.3 139.21 61.73 143.46 61.51 151.28 55.43 146.34 47.92 148.55" fill="#ff7545" stroke="#232323" stroke-miterlimit="10" stroke-width="0.75" fill-rule="evenodd"/><polygon points="251.36 273.79 248.69 267.67 242.14 266.41 247.13 261.98 246.31 255.36 252.06 258.74 258.1 255.91 256.67 262.43 261.22 267.3 254.59 267.95 251.36 273.79" fill="#ff7545" stroke="#232323" stroke-miterlimit="10" stroke-width="0.75" fill-rule="evenodd"/><polygon points="31.2 551.13 27.02 541.57 16.78 539.59 24.58 532.66 23.3 522.31 32.3 527.59 41.75 523.17 39.51 533.36 46.63 540.98 36.25 542 31.2 551.13" fill="#ff7545" stroke="#232323" stroke-miterlimit="10" stroke-width="0.75" fill-rule="evenodd"/></g></svg>