<svg id="Layer_3" data-name="Layer 3" xmlns="http://www.w3.org/2000/svg" viewBox="0 0 223.38 202.95"><defs><style>.cls-1{fill:#fffcf8;}</style></defs><path class="cls-1" d="M213.31,201.93V8.09H411.64V201.93ZM220,14.73V193.27a5.33,5.33,0,0,1,0,.8c-.13,1,.28,1.28,1.26,1.27,4.28-.05,8.56,0,12.84,0H403.25c1.77,0,1.77,0,1.77-1.79q0-88.5,0-177c0-.59-.07-1.18-.1-1.8Z" transform="translate(-213.31 -8.09)"/><path class="cls-1" d="M436.69,200.74A10.34,10.34,0,1,1,416,200.6a10.34,10.34,0,1,1,20.67.14Zm-10.23-8.54a8.5,8.5,0,1,0,8.13,8.63A8.34,8.34,0,0,0,426.46,192.2Z" transform="translate(-213.31 -8.09)"/><path class="cls-1" d="M275.82,155.48l-.3.07c-.29-.48-.6-1-.88-1.43q-12.19-20.34-24.37-40.7a2.27,2.27,0,0,0-2.3-1.28c-3.84.07-7.67,0-11.51,0H235v68.15h12.73V135.08a3.21,3.21,0,0,1,1,1.11q13.29,21.54,26.57,43.08a2.11,2.11,0,0,0,2.1,1.19c3.34-.07,6.7,0,10.05,0,.42,0,.83,0,1.2-.06V112.28H275.82Z" transform="translate(-213.31 -8.09)"/><path class="cls-1" d="M377.69,111.76v23.88l-.28.08c-.19-.22-.38-.45-.56-.68a16.74,16.74,0,0,0-7.4-5.57c-9-3.32-18.5.81-22.75,9.9a32.45,32.45,0,0,0-2.84,12.41c-.28,6.21.48,12.24,3.36,17.84,3,5.75,7.5,9.56,14,10.53s12.27-.49,16.22-6.34c.06-.09.18-.13.5-.35v6.89h12V111.76Zm-1.56,52.59c-2,3.36-4.74,5.51-8.86,5.44s-6.64-2.25-8.49-5.56c-2.25-4-2.48-8.42-1.94-12.84a22.94,22.94,0,0,1,1.74-6.58c1.75-3.9,5.14-5.33,9.27-5.25a8.88,8.88,0,0,1,8.47,5.45c1.51,3.23,1.81,6.69,1.87,11.31A15.75,15.75,0,0,1,376.13,164.35Z" transform="translate(-213.31 -8.09)"/><path class="cls-1" d="M326.25,164.65c-.34,0-.72.47-1,.79a17.81,17.81,0,0,1-2.29,2.83,10.6,10.6,0,0,1-11.37.42c-3.3-2.07-5.77-7.21-5.13-10.87h32.76c0-6.1-.59-11.91-3-17.4-2.56-5.92-6.89-9.92-13.26-11.25a34.44,34.44,0,0,0-8.66-.61c-9.57.51-16.6,6-19.32,15.17a37,37,0,0,0,.95,24,18.1,18.1,0,0,0,13.49,11.72,39.92,39.92,0,0,0,7.71.93c9.83.3,17.56-5,20.85-14.19.16-.47.26-1,.44-1.59C334.26,164.61,330.25,164.59,326.25,164.65Zm-9.9-25.89c5.72,0,9.89,4.51,9.81,10.76H306.73C306.6,143.7,311,138.77,316.35,138.76Z" transform="translate(-213.31 -8.09)"/><path class="cls-1" d="M368.74,65.45a14.95,14.95,0,1,0-14.76-15A15,15,0,0,0,368.74,65.45Z" transform="translate(-213.31 -8.09)"/><path class="cls-1" d="M427.63,201.55l3.37,4.38c-1.56.24-2.79.31-3.63-1.19a25.14,25.14,0,0,0-2.12-2.77v4H423V195c1.44,0,2.89-.1,4.31,0a3.27,3.27,0,0,1,.82,6.31C428,201.34,427.86,201.42,427.63,201.55Zm-2.4-1.21a10.73,10.73,0,0,0,2.37-1.3,1.54,1.54,0,0,0-.09-1.51,8.65,8.65,0,0,0-2.28-.81Z" transform="translate(-213.31 -8.09)"/></svg>