<svg id="Layer_1" data-name="Layer 1" xmlns="http://www.w3.org/2000/svg" viewBox="0 0 1200 324.14"><defs><style>.cls-1{fill:#fff;}</style></defs><path class="cls-1" d="M450,60c-.1,2.16-.3,4.31-.3,6.47q0,145.49.09,291c0,4.55-1,6.33-5.77,6.8-15.38,1.51-30.72,3.48-46,5.46-3.89.51-3.9-2.41-4.62-4.52q-14.13-41.3-28.11-82.65-12.94-38-26-76c-.49-1.43-1.14-2.82-1.72-4.22l-1.6.26V370.17c0,7,0,6.91-7,7.84-14.66,2-29.31,4-44,6V60h48a30.66,30.66,0,0,0,.85,3.85q29.44,82.45,58.94,164.88c1.69,4.72,3.51,9.38,5.27,14.07a8.44,8.44,0,0,0,1.33-5q0-86.43,0-172.85c0-1.65-.25-3.3-.38-5Z" transform="translate(-285 -60)"/><path class="cls-1" d="M1485,61a22.76,22.76,0,0,0-2.6,3.84q-30.4,72.79-60.56,145.71c-1.09,2.65-.62,6.55.43,9.37q29.74,79.5,59.84,158.87c.57,1.53,1.07,3.08,1.85,5.35-12.32-2-24.09-3.86-35.86-5.78-4.92-.8-9.79-2-14.74-2.44-3.69-.35-5.49-2-6.79-5.36q-16.07-41.94-32.42-83.77c-.64-1.65-1.41-3.26-2.59-6-1.3,2.8-2.16,4.54-2.92,6.31q-16.4,38-32.74,76.11c-1,2.27-1.68,4-4.86,3.6-16.48-2.15-33-4.07-50.11-6.15,5.06-11.56,10-22.78,14.88-34q24.07-54.84,48.24-109.66c1.6-3.6,1.11-6.56-.21-10Q1335.36,133.57,1307,60h54a8.17,8.17,0,0,0,.14,2.39q15.46,39.78,31,79.54a25.22,25.22,0,0,0,2.35,3.55c2.36-5.52,4.41-10.17,6.35-14.87Q1415.45,95.32,1430,60c17.17,0,34.33,0,51.5,0A13.82,13.82,0,0,1,1485,61Z" transform="translate(-285 -60)"/><path class="cls-1" d="M639,60v50.05H555.56c-6.45,0-6.46,0-6.46,6.66q0,28,0,56v6h67.36v49c-2,.09-4.09.24-6.19.27-18.83.3-37.65.63-56.48.79-3.33,0-4.76.94-4.74,4.52.12,22.83.06,45.66.09,68.5a32.46,32.46,0,0,0,.48,3.61L638.53,300v48.1l-138.62,11c-.15-2.69-.39-4.93-.39-7.17q0-142.48,0-285c0-2.3-.31-4.61-.48-6.92Z" transform="translate(-285 -60)"/><path class="cls-1" d="M1002,60q-.15,21.72-.31,43.45c0,2,0,3.93,0,6.52h-91.5v66h68.43v49.63H910V340.38H861.09V66.5c0-2.17-.06-4.33-.09-6.5Z" transform="translate(-285 -60)"/><path class="cls-1" d="M827,60v50.05H815.31c-11.66,0-23.33.19-35-.09-4.38-.11-5.61,1.15-5.6,5.59q.19,110.69.09,221.37v6.68H725.15v-227c0-6.49,0-6.5-6.53-6.5H672V60Z" transform="translate(-285 -60)"/><path class="cls-1" d="M1084,60c0,1.83-.15,3.66-.15,5.49q0,112.5,0,225V297l85.8,4.61v48.79l-135.47-6.74v-6.2q0-135.49,0-271c0-2.16-.1-4.32-.16-6.49Z" transform="translate(-285 -60)"/><path class="cls-1" d="M1263,60c-.11,2.16-.32,4.31-.33,6.46q0,142.2,0,284.39v7L1214,354.27V60Z" transform="translate(-285 -60)"/></svg>