<?xml version="1.0" encoding="utf-8"?>
<!-- Generator: Adobe Illustrator 25.2.3, SVG Export Plug-In . SVG Version: 6.00 Build 0)  -->
<svg version="1.1" id="Layer_1" xmlns="http://www.w3.org/2000/svg" xmlns:xlink="http://www.w3.org/1999/xlink" x="0px" y="0px"
	 viewBox="0 0 790.7 777.3" style="enable-background:new 0 0 790.7 777.3;" xml:space="preserve">
<style type="text/css">
	.st0{fill:url(#SVGID_1_);}
	.st1{fill:url(#SVGID_2_);}
	.st2{fill:#F7E1C6;}
	.st3{fill:url(#SVGID_3_);stroke:#000000;stroke-width:6.54;stroke-miterlimit:10;}
	.st4{fill:url(#SVGID_4_);}
	.st5{fill:url(#SVGID_5_);}
	.st6{fill:url(#SVGID_6_);}
	.st7{fill:url(#SVGID_7_);}
	.st8{fill:none;stroke:#000000;stroke-width:8.03;stroke-miterlimit:10;}
	.st9{fill:#FFF9F5;stroke:#000000;stroke-width:6.69;stroke-miterlimit:10;}
	.st10{fill:#3F2411;}
	.st11{fill:#FFFFFF;stroke:#000000;stroke-width:3;stroke-miterlimit:10;}
	.st12{fill:#54400D;}
	.st13{fill:#FFFFFF;}
	.st14{fill:#E57091;}
	.st15{opacity:0.42;fill:#FABFBC;enable-background:new    ;}
</style>
<g id="Layer_3">
	
		<linearGradient id="SVGID_1_" gradientUnits="userSpaceOnUse" x1="208.6699" y1="414.7061" x2="190.0599" y2="225.9361" gradientTransform="matrix(1 0 0 -1 85.67 881.67)">
		<stop  offset="0" style="stop-color:#3A3A3A"/>
		<stop  offset="0.25" style="stop-color:#4A4A4A"/>
		<stop  offset="0.46" style="stop-color:#7A7A7A"/>
		<stop  offset="0.69" style="stop-color:#484848"/>
		<stop  offset="0.98" style="stop-color:#3A3A3A"/>
	</linearGradient>
	<path class="st0" d="M267.9,450.2c0,0-23.2,24.8-23.9,78.6c0,0-1.4,35.2-14,41.9c0,0,21.5-1.7,31.6-28.8c0,0-23.1,48.2,23.3,95.8
		c0,0,19.1,24.4,23,42.8c0,0,4.9-16-7.7-64.8S341,495.3,341,495.3s17.8-11.9-4.8-81.2S292.5,412.1,267.9,450.2z"/>
	<path d="M270.3,448.3l-1.8,2.3c-3.3,4.2-6.1,8.7-8.4,13.5c-2.4,4.8-4.4,9.7-6.1,14.7c-3.3,10.1-5.6,20.5-6.8,31.1
		c-0.6,5.3-0.9,10.6-1.1,15.9v2v1l-0.1,1c-0.1,1.4-0.2,2.7-0.3,4.1c-0.2,2.7-0.6,5.4-1,8.1c-0.8,5.5-2,10.9-3.7,16.1
		c-0.9,2.7-2.1,5.3-3.6,7.8c-1.5,2.7-3.8,5-6.4,6.5l-1.2-4.3c0.3,0,0.8-0.1,1.1-0.2l1.3-0.3c0.8-0.2,1.7-0.5,2.5-0.7
		c1.7-0.6,3.3-1.3,4.8-2.1c3.1-1.6,6-3.7,8.5-6.2c2.5-2.5,4.8-5.3,6.6-8.3c1.9-3.1,3.4-6.3,4.6-9.7l4.5,1.9
		c-0.4,0.8-0.8,1.8-1.1,2.8c-0.3,1-0.7,2-1,3c-0.6,2-1.1,4-1.6,6.1c-0.9,4.1-1.4,8.3-1.6,12.5c-0.4,8.4,0.5,16.9,2.7,25.1
		c2.2,8.2,5.6,16,10,23.2c4.5,7.2,9.7,14,15.7,20l0.1,0.1l0.1,0.1c2.6,3.3,4.9,6.7,7.3,10.1c2.3,3.4,4.5,6.9,6.6,10.5
		c2.1,3.6,4,7.3,5.8,11.1c1.8,3.9,3.2,8,4.2,12.1l-6-0.3c0-0.2,0.1-0.7,0.2-1.1s0.1-0.9,0.2-1.4c0.1-0.9,0.2-1.9,0.2-2.9
		c0-1,0.1-1.9,0.1-2.9s0-2,0-3c0-2-0.2-4-0.3-6s-0.3-4-0.6-6c-0.9-8-2.3-15.9-4-23.9c-0.9-4-1.8-7.9-2.8-11.8l-0.7-3l-0.8-3.1
		c-0.3-1-0.4-2.1-0.6-3.2c-0.2-1.1-0.4-2.1-0.5-3.2c-0.9-8.5-0.6-17,0.9-25.4c1.5-8.2,3.7-16.3,6.5-24.2c2.8-7.8,6.1-15.5,9.8-22.9
		c3.7-7.4,7.6-14.7,11.9-21.8s8.7-14,13.7-20.8l0.8-0.8l-0.1,0.1l0,0l0.2-0.1c0.1-0.1,0.2-0.2,0.3-0.4c0.3-0.3,0.5-0.6,0.7-1
		c0.5-0.7,0.9-1.5,1.3-2.4c0.7-1.8,1.3-3.6,1.7-5.5c0.8-4,1.2-8,1.1-12.1c0-4.2-0.3-8.3-0.8-12.4c-0.5-4.2-1.2-8.3-2-12.4
		c-1.7-8.3-3.9-16.5-6.3-24.6c-1.3-4.1-2.5-8.1-3.9-12.1c-1.4-3.9-3-7.8-4.8-11.5c-1.8-3.6-4-7.1-6.8-9.4c-1.2-1.1-2.6-1.7-4.2-1.9
		c-1.6,0-3.2,0.4-4.6,1.3c-1.6,1-3.2,2.2-4.5,3.6c-1.4,1.4-2.8,3-4,4.6c-2.6,3.3-5,6.8-7.2,10.4c-4.5,7.2-8.7,14.7-13,22.1
		c-2.1,3.7-4.3,7.4-6.5,11.1c-1.1,1.9-2.2,3.7-3.4,5.5l-1.8,2.7L270.3,448.3z M266.3,450.8l0.8-1.3l1.6-2.7l1.6-2.8
		c1.1-1.9,2.1-3.7,3.1-5.6c2-3.8,4-7.6,6-11.4c3.9-7.6,7.7-15.3,12.1-22.8c2.2-3.8,4.5-7.5,7.1-11c1.3-1.8,2.7-3.6,4.3-5.2
		c1.6-1.8,3.4-3.3,5.4-4.6c2.3-1.5,4.9-2.3,7.6-2.2c1.4,0.1,2.8,0.4,4.1,0.9c1.2,0.5,2.4,1.2,3.4,2c1.9,1.5,3.6,3.3,5,5.3
		c1.3,1.9,2.5,3.8,3.6,5.8c4.2,7.9,6.9,16.3,9.5,24.5c2.6,8.3,4.8,16.7,6.5,25.2c0.9,4.3,1.6,8.6,2.1,12.9c0.6,4.4,0.9,8.8,0.9,13.2
		c0,4.5-0.4,9-1.3,13.5c-0.5,2.3-1.2,4.6-2.1,6.8c-0.5,1.2-1.1,2.3-1.8,3.3c-0.4,0.6-0.8,1.1-1.2,1.6c-0.2,0.3-0.5,0.6-0.7,0.8
		c-0.1,0.1-0.3,0.3-0.4,0.4l-0.3,0.2c-0.1,0.1-0.3,0.2-0.4,0.3l0.8-0.8c-4.7,6.4-9.1,13.3-13.3,20.2c-4.2,6.9-8,14-11.6,21.3
		c-3.6,7.2-6.7,14.6-9.4,22.2c-2.8,7.5-4.9,15.2-6.3,23.1c-1.5,7.7-1.8,15.6-1,23.5c0.1,1,0.3,1.9,0.4,2.9c0.1,1,0.3,1.9,0.6,2.8
		l0.7,2.9l0.7,3c1,4,1.9,8,2.8,12c1.7,8.1,3.1,16.2,4,24.5c0.3,2.1,0.4,4.2,0.6,6.2s0.3,4.2,0.3,6.3c0,1,0,2.1,0,3.2s0,2.1-0.1,3.2
		s-0.2,2.2-0.3,3.3c-0.1,0.5-0.1,1.1-0.3,1.7c-0.1,0.6-0.2,1.3-0.4,1.9l-3.3,11.9l-2.6-12.1c-0.9-3.8-2.1-7.5-3.7-11
		c-1.6-3.6-3.4-7.2-5.4-10.6c-2-3.5-4.1-6.9-6.3-10.2c-2.2-3.3-4.6-6.7-6.9-9.8l0.2,0.2c-6.2-6.4-11.7-13.5-16.4-21.1
		c-4.6-7.7-8.1-16-10.4-24.7c-3.4-13.1-3.7-26.8-0.8-40c0.5-2.2,1-4.4,1.7-6.5c0.3-1.1,0.7-2.1,1.1-3.2s0.8-2.1,1.3-3.3l4.5,1.9
		c-1.4,3.7-3.1,7.2-5.2,10.5c-2.1,3.4-4.6,6.4-7.4,9.2c-2.9,2.7-6.1,5.1-9.6,6.9c-1.8,0.9-3.6,1.7-5.5,2.3c-0.9,0.3-1.9,0.6-2.9,0.8
		c-1,0.3-2.1,0.4-3.1,0.5l-11.9,1.2l10.7-5.5c2-1.2,3.6-2.8,4.8-4.8c1.3-2.2,2.4-4.5,3.2-6.9c1.7-4.9,2.9-10,3.7-15.2
		c0.4-2.6,0.7-5.3,1-7.9c0.1-1.3,0.2-2.7,0.3-4l0.1-1v-1l0.1-2c0.2-5.4,0.6-10.9,1.3-16.3c1.3-10.8,3.9-21.5,7.8-31.7
		c1-2.5,2-5.1,3.1-7.5c1.1-2.5,2.4-4.9,3.7-7.3c1.3-2.4,2.8-4.7,4.3-6.9C263.5,454.3,264.9,452.5,266.3,450.8z"/>
	<path d="M331.3,454.8c-12,14.8-23.8,29.7-32.1,46.5c-8.3,16.8-12.6,35.2-12.8,53.9c-0.1,9.4,0.4,18.7,1.5,28l0.9,7
		c0.4,2.3,0.7,4.7,1.1,7c0.8,4.6,1.8,9.2,2.9,13.8c2.2,9.2,4.7,18.4,6.8,27.7c2.2,9.3,3.6,18.7,4.2,28.3
		c-3.1-18.8-9.7-36.5-14.9-54.9c-1.3-4.6-2.6-9.2-3.5-14c-0.5-2.4-0.9-4.7-1.4-7.1l-1.1-7.1c-1.4-9.5-2-19.2-2-28.8
		c0.1-4.8,0.5-9.7,1.1-14.5c0.6-4.8,1.5-9.6,2.7-14.3c2.4-9.4,6-18.5,10.6-27c4.7-8.4,10.1-16.3,16.3-23.6
		C317.9,468.4,324.4,461.4,331.3,454.8z"/>
	<path d="M302.9,465.8c-8.3,13.6-15,28.2-19.8,43.4c-2.4,7.6-4.2,15.3-5.6,23c-2.7,15.6-3.3,31.5-1.6,47.2c0.8,7.9,2.2,15.7,4,23.4
		c3.8,15.5,9.4,30.5,16.9,44.7c-9.3-13.3-16.4-28-20.9-43.6c-2.3-7.8-4-15.8-5-23.9c-2.1-16.2-1.5-32.7,1.7-48.7
		c1.6-8,3.8-15.8,6.6-23.5C284.6,492.7,292.7,478.4,302.9,465.8z"/>
	<path d="M235.5,567.9c8.1-7,13.2-16.3,16.2-26.1c3.1-9.8,4.1-20.2,5.1-30.7c1-10.5,2.1-21.3,5.4-31.7c0.8-2.6,1.8-5.1,2.9-7.6
		c1.2-2.5,2.5-4.9,3.9-7.2c1.5-2.3,3.1-4.4,4.9-6.4c1.8-2,3.8-3.8,6-5.3c-7.2,7.9-11.3,17.7-13.7,27.7c-2.4,10-3.1,20.5-4.1,31.1
		c-0.5,5.3-1.1,10.6-2.1,15.9c-1,5.4-2.4,10.6-4.4,15.7c-1,2.5-2.2,5-3.5,7.4c-1.4,2.4-2.9,4.6-4.5,6.8c-1.7,2.1-3.6,4.1-5.6,5.9
		C240.1,565.1,237.9,566.6,235.5,567.9z"/>
	<path d="M267.9,508c0.6,2.5,0.9,5.1,1,7.7c0.1,1.3,0.1,2.6,0,3.9c-0.1,1.3-0.1,2.6-0.2,3.9c-0.5,5.2-1.6,10.3-3.3,15.2
		c-0.5,1.2-0.8,2.5-1.4,3.7l-1.6,3.5c-0.6,1.2-1.3,2.3-1.9,3.4l-1,1.7l-1.1,1.6c-0.8,1-1.5,2.1-2.3,3.1s-1.7,1.9-2.6,2.9
		c-0.5,0.5-0.9,0.9-1.4,1.4s-1,0.9-1.5,1.3c-1,0.8-2,1.7-3,2.4c2.5-4.5,5.1-8.7,7.2-13.2l0.8-1.6l0.7-1.7c0.5-1.1,1-2.2,1.5-3.3
		c0.9-2.3,1.8-4.5,2.6-6.9c1.6-4.6,3-9.3,4.3-14.1C265.8,517.9,266.9,513,267.9,508z"/>
	
		<linearGradient id="SVGID_2_" gradientUnits="userSpaceOnUse" x1="411.1866" y1="408.141" x2="437.7866" y2="233.901" gradientTransform="matrix(1 0 0 -1 85.67 881.67)">
		<stop  offset="0" style="stop-color:#3A3A3A"/>
		<stop  offset="0.25" style="stop-color:#4A4A4A"/>
		<stop  offset="0.46" style="stop-color:#7A7A7A"/>
		<stop  offset="0.69" style="stop-color:#484848"/>
		<stop  offset="0.98" style="stop-color:#3A3A3A"/>
	</linearGradient>
	<path class="st1" d="M519.5,446.3c0,0,23.5,22.5,27,73.8c0,0,3.2,33.5,15.7,39.2c0,0-20.6-0.6-31.8-26c0,0,24.6,44.9-17.2,92.4
		c0,0-17,24.2-19.8,41.9c0,0-5.5-15,3.9-62.2c9.5-47.2-45.4-112.7-45.4-112.7s-17.7-10.5,0.2-77.7
		C470.2,347.9,494,411.2,519.5,446.3z"/>
	<path d="M521.1,446.8c1.5,1.5,2.9,3.1,4.2,4.8c1.6,2.1,3.1,4.2,4.5,6.4c1.4,2.2,2.7,4.4,3.9,6.8c1.2,2.3,2.4,4.7,3.4,7
		c4.2,9.5,7.3,19.6,9.2,29.8c1,5.1,1.7,10.3,2.1,15.5l0.2,1.9l0.1,0.9l0.1,0.9c0.2,1.3,0.3,2.5,0.5,3.8c0.4,2.5,0.8,5,1.4,7.5
		c1,4.9,2.5,9.7,4.3,14.4c0.9,2.2,2.1,4.4,3.4,6.4c1.2,1.8,2.8,3.3,4.8,4.4l11,5l-12-0.6c-1-0.1-2-0.2-3-0.4c-1-0.2-1.9-0.4-2.8-0.6
		c-1.8-0.5-3.6-1.2-5.4-2c-3.5-1.6-6.7-3.6-9.6-6.1c-2.9-2.5-5.4-5.3-7.6-8.4c-2.2-3.1-4-6.3-5.5-9.8l4.4-2.2c0.6,1.1,1,2,1.4,3
		s0.8,2,1.2,3c0.8,2,1.4,4,2,6.1c3.5,12.5,3.9,25.6,1.4,38.3c-1.7,8.4-4.6,16.6-8.6,24.1c-4,7.5-8.9,14.6-14.5,21l0.2-0.3
		c-2.1,3.1-4.2,6.4-6.1,9.7s-3.8,6.6-5.5,10c-1.7,3.4-3.2,6.8-4.6,10.4c-1.3,3.4-2.3,7-2.9,10.6l-2,12.2l-3.9-11.7
		c-0.2-0.6-0.4-1.2-0.5-1.8c-0.1-0.5-0.2-1-0.3-1.6c-0.2-1-0.4-2.1-0.5-3.1c-0.1-1-0.2-2-0.3-3c-0.1-1-0.1-2-0.2-3
		c-0.1-2-0.1-4-0.1-6s0.1-4,0.2-6c0.4-8,1.3-15.8,2.5-23.6c0.6-3.9,1.3-7.8,2-11.6c0.4-1.9,0.8-4,1-5.7s0.5-3.6,0.6-5.5
		c0.3-7.5-0.4-15-2.2-22.3c-1.8-7.4-4.2-14.7-7.2-21.7c-3-7.1-6.4-14-10.2-20.7c-3.8-6.7-7.8-13.3-12.2-19.7
		c-4.3-6.4-8.9-12.7-13.7-18.6l0.9,0.7c-0.1-0.1-0.3-0.2-0.4-0.3l-0.3-0.2c-0.2-0.1-0.3-0.2-0.5-0.4c-0.3-0.2-0.5-0.5-0.8-0.7
		c-0.4-0.5-0.9-1-1.2-1.5c-0.7-1-1.3-2-1.9-3.1c-1-2-1.8-4.2-2.4-6.4c-1.1-4.2-1.7-8.5-1.9-12.8c-0.2-4.2-0.1-8.5,0.2-12.7
		c0.3-4.2,0.8-8.3,1.4-12.5c1.2-8.2,2.8-16.4,4.9-24.4c2-8,4.2-16.1,7.9-23.9c0.9-2,2-3.9,3.2-5.7c1.2-2,2.8-3.8,4.5-5.3
		c2-1.7,4.5-2.8,7.2-3c2.6-0.1,5.2,0.6,7.4,1.9c2,1.1,3.8,2.5,5.4,4.1c1.5,1.5,3,3.1,4.3,4.8c2.6,3.2,5,6.6,7.3,10.1
		c4.5,6.9,8.6,14.1,12.7,21.2c2.1,3.5,4.1,7.1,6.3,10.5c1.1,1.7,2.2,3.5,3.3,5.2l1.7,2.6l1.7,2.5L521.1,446.8z M516.9,444.5
		L516.9,444.5l-1.9-2.6c-1.2-1.7-2.4-3.4-3.5-5.1c-2.3-3.4-4.6-6.8-6.8-10.3c-4.5-6.9-8.9-13.8-13.6-20.4c-2.3-3.3-4.8-6.5-7.4-9.5
		c-2.6-2.9-5.5-5.8-8.6-7.4c-1.3-0.8-2.9-1.1-4.4-1c-1.5,0.2-2.8,0.9-3.9,1.9c-2.5,2.2-4.4,5.7-6,9.2c-1.6,3.6-2.9,7.4-4,11.2
		c-1.2,3.8-2.1,7.8-3.1,11.7c-1.9,7.9-3.6,15.8-4.7,23.8c-0.6,4-1,8-1.3,12c-0.3,3.9-0.3,7.9-0.2,11.8c0.2,3.9,0.7,7.7,1.7,11.4
		c0.5,1.8,1.1,3.5,1.9,5.1c0.4,0.8,0.8,1.5,1.3,2.2c0.2,0.3,0.5,0.6,0.7,0.9c0.1,0.1,0.2,0.3,0.3,0.3l0.1,0.1h0l-0.1-0.1l0.9,0.7
		c5.1,6.2,9.7,12.5,14.1,19.1c4.5,6.5,8.6,13.2,12.5,20.1c3.9,6.9,7.4,14,10.5,21.3c3.2,7.4,5.7,15,7.5,22.8
		c1.9,7.9,2.7,16.1,2.3,24.2c-0.1,2.1-0.4,4.1-0.7,6.1c-0.4,2.1-0.7,3.9-1.1,5.8c-0.8,3.8-1.4,7.6-2,11.4c-1.2,7.6-2.1,15.3-2.5,23
		c-0.1,1.9-0.1,3.8-0.2,5.7c-0.1,1.9,0,3.8,0.1,5.7c0,0.9,0.1,1.9,0.1,2.8s0.1,1.9,0.3,2.8s0.2,1.8,0.4,2.7c0.1,0.4,0.1,0.9,0.3,1.3
		c0.1,0.4,0.2,0.9,0.3,1l-6,0.6c0.7-4,1.8-8,3.4-11.8c1.4-3.7,3.1-7.4,4.9-10.9c1.8-3.5,3.7-7,5.8-10.4c2-3.4,4.1-6.7,6.4-10
		l0.1-0.1l0.1-0.1c5.4-6,10.1-12.7,14-19.8c3.9-7.1,6.7-14.7,8.3-22.6c2.5-11.9,2.1-24.1-1-35.8c-0.5-1.9-1.1-3.9-1.8-5.7
		c-0.3-0.9-0.7-1.9-1.1-2.8c-0.4-0.9-0.8-1.9-1.2-2.6l4.4-2.2c1.4,3.2,3,6.2,5,9c1.9,2.8,4.2,5.3,6.7,7.6c2.5,2.2,5.4,4.1,8.4,5.5
		c1.5,0.7,3.1,1.3,4.7,1.7c0.8,0.2,1.6,0.4,2.4,0.6c0.8,0.1,1.5,0.3,2.3,0.3l-1,4.4c-2.7-1.4-4.9-3.4-6.5-5.9
		c-1.5-2.3-2.8-4.7-3.8-7.2c-1.9-4.9-3.4-10-4.5-15.2c-0.5-2.6-1-5.1-1.4-7.7c-0.2-1.3-0.4-2.6-0.5-3.9l-0.1-1l-0.1-1l-0.2-1.9
		c-0.4-5.1-1-10.1-1.9-15.1c-1.7-10-4.4-19.9-8.1-29.3c-1.9-4.7-4.1-9.3-6.6-13.7c-2.5-4.5-5.4-8.6-8.7-12.5L516.9,444.5z"/>
	<path d="M459.2,453.7c6.9,5.9,13.5,12.2,19.8,18.9c6.3,6.7,11.9,14,16.8,21.7c4.9,7.9,8.8,16.3,11.7,25.1c1.4,4.4,2.5,8.9,3.3,13.5
		c0.8,4.5,1.4,9.1,1.8,13.7c0.3,4.6,0.5,9.2,0.4,13.8c-0.1,4.6-0.3,9.2-0.7,13.8c-0.2,2.3-0.5,4.6-0.7,6.8c-0.2,2.3-0.6,4.5-0.9,6.8
		c-0.7,4.6-1.6,9-2.6,13.5c-4,17.8-9.4,35.1-11.3,53.2c0.1-9.1,0.9-18.2,2.5-27.2c1.5-9,3.4-17.9,5-26.8c0.8-4.4,1.5-8.9,2-13.3
		c0.3-2.2,0.5-4.5,0.7-6.7s0.4-4.5,0.5-6.7c0.6-8.9,0.6-17.9-0.1-26.8c-1.2-17.8-6.4-35.2-15.2-50.7
		C483.4,480.8,471.3,467.2,459.2,453.7z"/>
	<path d="M486.9,462.9c10.4,11.5,18.8,24.6,24.9,38.8c3.1,7.1,5.6,14.5,7.6,22c3.9,15.1,5.4,30.8,4.2,46.4c-0.5,7.7-1.7,15.4-3.5,23
		c-3.5,15.1-9.4,29.5-17.7,42.6c6.4-13.9,11-28.5,13.8-43.5c1.4-7.4,2.2-15,2.5-22.5c0.4-7.5,0.2-15.1-0.5-22.6
		c-0.7-7.5-1.9-15-3.6-22.3c-1.7-7.4-3.9-14.6-6.6-21.7C502.7,488.9,495.6,475.4,486.9,462.9z"/>
	<path d="M556.8,556.9c-2.3-1.1-4.5-2.5-6.5-4.1c-2-1.6-3.9-3.4-5.6-5.3c-1.7-2-3.3-4.1-4.7-6.3c-1.4-2.2-2.6-4.5-3.7-6.9
		c-2.2-4.7-3.9-9.6-5.1-14.7c-1.2-5-2.1-10.1-2.9-15.1c-1.5-10-2.8-20-5.6-29.5c-2.9-9.5-7.3-18.5-14.6-25.7c2.1,1.4,4.2,3,6,4.8
		c1.8,1.8,3.5,3.8,5.1,5.9c1.5,2.1,2.9,4.3,4.1,6.6c1.2,2.3,2.3,4.7,3.2,7.1c1.9,4.8,3.3,9.8,4.3,14.9c1,5,1.8,10.1,2.6,15.1
		c1.5,10,3.1,19.8,6.6,29.1C543.3,542,548.7,550.7,556.8,556.9z"/>
	<path d="M522.6,501.4c1.2,4.8,2.5,9.4,3.9,13.9c1.4,4.5,3,8.9,4.8,13.3c0.8,2.2,1.9,4.3,2.8,6.4l1.6,3.1l0.8,1.6l0.9,1.5
		c2.2,4.2,4.9,8,7.6,12.2c-1-0.7-2-1.4-3-2.1c-0.5-0.4-1-0.8-1.5-1.1c-0.5-0.4-0.9-0.8-1.4-1.3c-0.9-0.9-1.8-1.7-2.7-2.6
		c-0.9-0.9-1.6-1.9-2.4-2.9l-1.2-1.5c-0.4-0.5-0.7-1-1-1.5c-0.7-1-1.4-2.1-2-3.2l-1.8-3.3c-0.6-1.1-1-2.3-1.5-3.4
		c-1.9-4.6-3.3-9.4-4-14.3c-0.2-1.2-0.3-2.5-0.4-3.7c-0.1-1.2-0.2-2.5-0.2-3.7C522,506.3,522.2,503.8,522.6,501.4z"/>
	<path class="st2" d="M274,464.1c0,0,13.4,68.6,37,88.6c23.7,19.9,84.1,55.8,122,59.8c37.9,4,68-30.6,68-30.6s38.9-42.5,44.7-89.7
		c5.8-47.2,5.8-174.1,5.8-174.1s0.1-71-63.5-95s-232.7,4.8-235.8,115.4L274,464.1z"/>
	<path d="M275.5,466.8c2.2,9.2,4.6,18.4,7.5,27.4c3,10,6.7,19.7,10.9,29.2c2.1,4.7,4.5,9.3,7.1,13.8c2.6,4.4,5.6,8.5,9.2,12.1
		l1.4,1.3l0.7,0.6l0.8,0.6l3,2.4c2,1.6,4.1,3.1,6.2,4.7l6.4,4.5l6.5,4.3c8.7,5.7,17.7,11,26.9,15.9c2.3,1.2,4.6,2.5,6.9,3.7l7,3.5
		c4.7,2.2,9.4,4.5,14.2,6.5c9.5,4.2,19.3,7.6,29.3,10.3l3.8,0.9l1.9,0.4c0.6,0.2,1.2,0.3,1.9,0.4l3.8,0.5c1.2,0.2,2.5,0.4,3.8,0.5
		c5,0.4,10.1,0.1,15-0.8c10-2,19.5-5.8,28-11.4c4.3-2.7,8.5-5.8,12.4-9.1c3.9-3.3,7.6-6.9,10.9-10.7c6.6-7.9,12.7-16.3,18.2-25.1
		c5.5-8.7,10.3-17.9,14.4-27.4c4.1-9.4,7-19.3,8.8-29.4c1.5-10.1,2.2-20.6,2.8-31c1.2-20.8,1.9-41.8,2.3-62.7
		c0.5-20.9,0.7-41.9,0.8-62.8l0.1-15.7v-5.9c0-0.6,0-1.2,0-1.8c-0.1-2.5-0.4-5-0.7-7.6c-1.3-10.1-3.8-20.1-7.6-29.5
		c-1.9-4.7-4.1-9.3-6.6-13.6c-2.6-4.4-5.4-8.5-8.6-12.5c-6.4-7.8-14.1-14.5-22.8-19.6c-2.2-1.2-4.4-2.5-6.7-3.6
		c-1.1-0.5-2.3-1.1-3.4-1.6l-3.5-1.4c-4.7-1.9-9.6-3.4-14.5-4.4c-10-2.2-20.3-3.4-30.5-3.7c-20.7-0.6-41.4,1.2-61.7,5.5
		c-20.3,4.1-39.9,10.8-58.4,20.1c-9.2,4.6-17.9,10.1-26,16.4c-4,3.1-7.9,6.5-11.5,10.1c-3.7,3.5-7,7.4-10.2,11.4
		c-3.1,4-5.9,8.3-8.4,12.7c-2.5,4.4-4.6,9-6.3,13.8c-1.7,4.8-3.1,9.7-4,14.6c-0.9,5-1.5,10.1-1.8,15.2V338l10.1,63l9.9,63
		L275.5,466.8z M273,464.3l-11.9-62.7L249.5,339v-0.3v-0.3c0.1-5.4,0.6-10.8,1.5-16.1c2.8-16,9.5-31.2,19.4-44.1
		c6.6-8.5,14.2-16.2,22.8-22.8c8.5-6.5,17.5-12.3,27.1-17.1c19-9.5,39.2-16.5,60-20.7c20.8-4.4,42-6.3,63.3-5.7
		c10.7,0.3,21.3,1.6,31.8,3.8c5.3,1.2,10.5,2.7,15.5,4.7l3.8,1.6c1.3,0.5,2.4,1.2,3.7,1.7c2.5,1.1,4.8,2.5,7.2,3.9
		c9.3,5.6,17.6,12.8,24.5,21.2c3.4,4.2,6.5,8.7,9.2,13.4c2.7,4.7,5,9.6,7,14.6c3.9,10,6.6,20.5,7.9,31.2c0.3,2.7,0.6,5.4,0.7,8.1
		c0,0.7,0.1,1.4,0,2.1v2v3.9l-0.1,15.7c-0.2,21-0.5,41.9-1.1,62.9c-0.6,21-1.3,41.9-2.7,62.9c-0.7,10.5-1.5,20.9-3.1,31.6
		c-1.9,10.5-5.1,20.8-9.4,30.6c-4.2,9.7-9.3,19.1-15,28.1c-5.7,8.9-12,17.5-18.8,25.6c-1.7,2.1-3.6,4-5.5,5.9
		c-1.9,1.9-3.9,3.7-6,5.4c-4.1,3.4-8.5,6.6-13,9.5c-9.1,5.8-19.3,9.9-29.9,11.9c-5.4,0.9-10.9,1.2-16.3,0.7c-1.4-0.1-2.7-0.3-4-0.5
		l-4-0.6c-0.7-0.1-1.3-0.2-2-0.4l-2-0.5l-3.9-0.9c-10.2-2.8-20.2-6.3-29.9-10.7c-4.9-2.1-9.6-4.4-14.4-6.7l-7-3.6
		c-2.4-1.2-4.6-2.5-7-3.8c-9.2-5.1-18.3-10.5-27.1-16.3l-6.5-4.4l-6.4-4.6c-2.1-1.6-4.2-3.2-6.3-4.8l-3.1-2.5l-0.8-0.6l-0.8-0.7
		l-1.5-1.4c-3.7-3.9-6.9-8.3-9.6-13c-2.7-4.6-5-9.4-7.1-14.3c-8.2-19.5-13.6-39.9-17.5-60.6L273,464.3z"/>
	
		<linearGradient id="SVGID_3_" gradientUnits="userSpaceOnUse" x1="218.4361" y1="640.4716" x2="276.606" y2="781.9016" gradientTransform="matrix(1 0 0 -1 85.67 881.67)">
		<stop  offset="0" style="stop-color:#3A3A3A"/>
		<stop  offset="0.25" style="stop-color:#4A4A4A"/>
		<stop  offset="0.46" style="stop-color:#7A7A7A"/>
		<stop  offset="0.69" style="stop-color:#484848"/>
		<stop  offset="0.98" style="stop-color:#3A3A3A"/>
	</linearGradient>
	<path class="st3" d="M374.5,179c0,0,10.5-44.3-23.2-54.3c-33.7-10-55,26.4-55,26.4s48.6,7.5,31,39.6
		C309.7,222.9,363.9,211.4,374.5,179z"/>
	
		<linearGradient id="SVGID_4_" gradientUnits="userSpaceOnUse" x1="178.7662" y1="655.4216" x2="237.4162" y2="798.0016" gradientTransform="matrix(1 0 0 -1 85.67 881.67)">
		<stop  offset="0" style="stop-color:#231F20"/>
		<stop  offset="0.25" style="stop-color:#231F20"/>
		<stop  offset="0.46" style="stop-color:#414042"/>
		<stop  offset="0.69" style="stop-color:#231F20"/>
		<stop  offset="0.98" style="stop-color:#231F20"/>
	</linearGradient>
	<path class="st4" d="M332.8,197.1c1.4-1.4,31.1-29.4,12.1-57.1s-132.9-8.8-138.1,92.4c0,0,20.4-55.6,62.2-46.3
		c0,0-54.5,3.7-41.1,67.1c0,0,0.5-43.3,39.5-49.5c39.2-6.3-7.4,35.8-7.4,35.8S306.5,222.7,332.8,197.1z"/>
	<path d="M332.8,197.1c3.9-3.8,7.3-8.1,10.2-12.8c2.8-4.6,4.9-9.7,6.1-15c1.2-5.2,1.1-10.6-0.2-15.7c-0.7-2.5-1.6-4.9-2.9-7.2
		c-0.6-1.1-1.3-2.2-2-3.3c-0.3-0.5-0.8-1-1.1-1.6c-0.4-0.5-0.7-0.9-1.1-1.3c-1.7-1.7-3.7-3.1-5.9-4.1c-2.3-1-4.7-1.9-7.1-2.4
		c-5-1.3-10.2-2-15.4-2c-10.6,0.1-21.2,1.8-31.3,5.3c-20.2,6.7-38.6,19.2-51.4,36.2c-6.4,8.5-11.4,18-14.8,28
		c-3.4,10.1-5.3,20.7-5.8,31.4l-6.3-1.3c0.7-1.8,1.4-3.4,2.2-5.1s1.6-3.3,2.4-4.9c1.7-3.2,3.5-6.4,5.5-9.4
		c3.9-6.2,8.7-11.9,14.1-16.8c5.5-5.1,12.1-9,19.3-11.4c3.7-1.1,7.4-1.8,11.3-1.9c3.8-0.1,7.6,0.3,11.3,1.1l21.6,4.6l-22.1,1.8
		c-0.7,0.1-1.7,0.2-2.5,0.3c-0.8,0.1-1.7,0.3-2.6,0.5c-1.7,0.4-3.5,0.9-5.1,1.4c-3.4,1.1-6.6,2.5-9.7,4.3
		c-6.1,3.5-11.1,8.6-14.6,14.7c-3.4,6.2-5.3,13.2-5.5,20.3c-0.3,7.3,0.4,14.6,1.9,21.7l-6.5,0.6c0-1.6,0.2-2.9,0.3-4.3
		s0.4-2.8,0.6-4.1c0.5-2.7,1.1-5.4,1.9-8.1c1.6-5.4,3.9-10.5,6.9-15.2c6.1-9.7,15.7-16.8,26.8-19.7c2.7-0.7,5.5-1.3,8.3-1.6
		c2.9-0.4,5.9-0.4,8.8,0c1.8,0.2,3.6,0.9,5.1,2c0.9,0.7,1.7,1.6,2.2,2.6c0.5,1,0.8,2.1,0.8,3.2c0.1,1.8-0.2,3.5-0.9,5.2
		c-0.5,1.4-1.2,2.8-1.9,4.1c-2.9,4.7-6.2,9.2-10,13.2c-1.8,2-3.7,4-5.6,5.9s-3.7,3.8-5.8,5.6l-3.3-5.6c6.5-2.2,13.1-4.7,19.6-7.3
		s12.9-5.4,19.3-8.5c3.2-1.5,6.3-3.2,9.4-4.9c3.1-1.7,6.1-3.5,9-5.4c2.9-1.9,5.8-4,8.6-6.1C327.6,201.9,330.3,199.5,332.8,197.1z
		 M332.8,197.1c-5.1,4.9-10.5,9.4-16.2,13.6c-5.7,4.2-11.5,8.2-17.5,12s-12.1,7.4-18.4,10.7c-3.1,1.6-6.3,3.3-9.5,4.8
		s-6.4,3-9.8,4.3l-15.4,6l12.1-11.6c1.8-1.8,3.8-3.5,5.6-5.4s3.6-3.7,5.4-5.6c3.4-3.7,6.5-7.7,9.1-12c0.6-1,1-2,1.5-3.1
		c0.3-0.8,0.5-1.7,0.5-2.6c0-0.2-0.1-0.4-0.1-0.6c-0.1-0.2-0.2-0.3-0.3-0.4c-0.7-0.4-1.4-0.7-2.2-0.8c-2.3-0.3-4.7-0.3-7,0.1
		c-2.5,0.3-4.9,0.8-7.3,1.4c-9.6,2.5-17.8,8.5-23.1,16.9c-2.7,4.2-4.7,8.8-6.1,13.6c-0.7,2.4-1.3,4.9-1.7,7.3
		c-0.2,1.2-0.4,2.5-0.5,3.7s-0.3,2.6-0.3,3.6l-0.7,27.8l-5.7-27.1c-1.7-7.7-2.4-15.5-2.1-23.4c0.3-8.1,2.5-16,6.3-23.1
		c4-7.1,9.9-13,17-17.1c3.5-2,7.2-3.7,11-4.9c1.9-0.6,3.8-1.1,5.8-1.6c1-0.2,2-0.4,3-0.6c1-0.2,1.9-0.3,3.1-0.4l-0.5,6.4
		c-6.4-1.5-13-1.2-19.2,0.7c-6.3,2.1-12,5.5-16.9,10c-5,4.6-9.4,9.8-13,15.5c-1.9,2.9-3.6,5.8-5.2,8.9c-0.8,1.5-1.5,3.1-2.3,4.6
		c-0.7,1.5-1.4,3.2-2,4.6l-7.4,19.5l1.1-20.8c0.5-11.3,2.6-22.4,6.1-33.1c3.6-10.7,8.9-20.8,15.8-29.9c6.8-9,15.1-16.9,24.4-23.4
		c9.3-6.4,19.4-11.5,30.2-15.1c10.7-3.6,22-5.5,33.3-5.6c2.9,0,5.7,0.2,8.6,0.5c2.9,0.3,5.8,0.8,8.6,1.6c2.9,0.8,5.6,2,8.2,3.5
		c2.7,1.5,5.1,3.5,7,5.9c0.5,0.6,0.9,1.3,1.4,1.9c0.4,0.6,0.8,1.3,1.1,1.9c0.7,1.3,1.3,2.6,1.9,4c1.1,2.7,1.9,5.5,2.3,8.4
		c0.8,5.7,0.2,11.4-1.6,16.8c-1.8,5.3-4.2,10.3-7.4,14.8C340.3,189,336.8,193.3,332.8,197.1z"/>
	
		<linearGradient id="SVGID_5_" gradientUnits="userSpaceOnUse" x1="177.8179" y1="656.0026" x2="236.2779" y2="798.1326" gradientTransform="matrix(1 0 0 -1 85.67 881.67)">
		<stop  offset="0" style="stop-color:#231F20"/>
		<stop  offset="0.25" style="stop-color:#4A4A4A"/>
		<stop  offset="0.46" style="stop-color:#231F20"/>
		<stop  offset="0.69" style="stop-color:#484848"/>
		<stop  offset="0.98" style="stop-color:#3A3A3A"/>
	</linearGradient>
	<path class="st5" d="M307,203.7c0,0,24.8-46.6,0-52c-24.8-5.4-90.2,21.9-63.7,105.7c0,0-0.1-71.8,34.3-87.7
		c34.4-15.9,7,53.6,7,53.6C294.7,220.5,303,213.3,307,203.7z"/>
	<path d="M307.5,200.7c1.3-3.1,2.5-6.2,3.6-9.4c1.4-4,2.6-8.1,3.6-12.3c1-4,1.4-8.2,1.3-12.4c-0.1-2-0.4-3.9-1-5.8
		c-0.6-1.7-1.6-3.3-2.9-4.5c-1.4-1.2-3-2.1-4.8-2.5l-0.7-0.2l-0.7-0.1l-1.5-0.2c-1-0.1-2-0.2-3-0.2c-4.1,0-8.3,0.5-12.3,1.5
		c-4.1,1-8,2.4-11.8,4.2c-3.8,1.8-7.4,3.9-10.8,6.3c-3.4,2.4-6.5,5.2-9.3,8.3l-2.1,2.3c-0.6,0.8-1.3,1.6-1.9,2.4
		c-0.3,0.4-0.6,0.8-0.9,1.2l-0.9,1.3c-0.6,0.9-1.2,1.7-1.7,2.6c-4.3,7.1-7.2,15-8.5,23.3c-1.3,8.3-1.4,16.7-0.4,25
		c1.1,8.4,2.9,16.7,5.5,24.7l-6.2,1c0.1-7.2,0.6-14.4,1.4-21.5c0.8-7.1,2.1-14.2,3.7-21.2c1.6-7.1,3.9-14,6.9-20.7
		c2.9-6.9,7-13.2,12.1-18.6c2.7-2.8,5.7-5.2,9-7.1l2.6-1.4c0.9-0.4,1.7-0.8,2.6-1.2c1.9-0.8,3.9-1.3,5.9-1.6c1.1-0.1,2.3-0.1,3.4,0
		c1.3,0.1,2.5,0.5,3.6,1c1.2,0.6,2.2,1.4,3.1,2.4c0.8,0.9,1.5,1.9,2,3c0.8,1.9,1.4,4,1.6,6.1c0.2,1.9,0.2,3.9,0.1,5.8
		c-0.6,7.3-2,14.5-4.2,21.4c-2.1,6.9-4.5,13.6-7.3,20.2l-2.6-3c0.5-0.1,1.1-0.2,1.6-0.4c0.6-0.2,1.1-0.4,1.7-0.6
		c1.1-0.4,2.3-0.9,3.4-1.4c2.2-1,4.3-2.3,6.2-3.9c1.9-1.5,3.7-3.2,5.2-5.2c1.6-2,2.9-4.1,4-6.3L307.5,200.7z M309.3,201l-1.4,3
		c-0.5,1.2-1,2.4-1.6,3.6c-0.6,1.2-1.3,2.3-2,3.4c-1.5,2.2-3.2,4.3-5.2,6.1c-3,2.8-6.4,5-10.1,6.7c-0.6,0.3-1.3,0.5-1.9,0.8
		s-1.3,0.4-2.1,0.7l-3.9,1l1.4-4.1c2.2-6.6,4.3-13.3,5.9-20.1c0.8-3.4,1.6-6.8,2.1-10.1c0.6-3.3,1-6.6,1.1-10c0.1-1.6,0-3.2-0.1-4.8
		c-0.1-1.4-0.5-2.8-1-4.1c-0.4-1-1.1-1.8-2-2.2c-1.1-0.4-2.2-0.6-3.3-0.3c-3,0.6-6,1.7-8.6,3.3c-2.8,1.7-5.3,3.7-7.6,6
		c-4.5,4.9-8.2,10.6-10.8,16.8c-2.7,6.3-4.9,12.8-6.5,19.5c-1.6,6.7-2.9,13.6-3.7,20.5c-0.9,6.9-1.4,13.8-1.5,20.7l-0.3,20.4
		l-5.9-19.4c-2.7-8.5-4.5-17.1-5.5-25.9c-1-8.9-0.8-17.9,0.8-26.7c1.6-8.9,4.8-17.4,9.6-25.1c0.6-1,1.3-1.9,1.9-2.8l1-1.4
		c0.3-0.5,0.7-0.9,1.1-1.3c0.7-0.9,1.4-1.8,2.1-2.6l2.3-2.5c9.4-9.8,21.4-16.6,34.6-19.7c4.4-1,8.9-1.5,13.5-1.4
		c1.1,0,2.3,0.2,3.4,0.3l1.7,0.3l0.9,0.2l0.9,0.3c5,1.2,9,5,10.5,9.8c0.7,2.3,1.1,4.6,1.1,7c0,4.5-0.7,9-1.9,13.3
		C316,187.3,313.1,194.3,309.3,201L309.3,201z"/>
	
		<radialGradient id="SVGID_6_" cx="233.6436" cy="620.74" r="294.23" gradientTransform="matrix(1.06 0 0 -1 78.61 881.67)" gradientUnits="userSpaceOnUse">
		<stop  offset="0" style="stop-color:#231F20"/>
		<stop  offset="0.36" style="stop-color:#231F20"/>
		<stop  offset="0.49" style="stop-color:#7A7A7A"/>
		<stop  offset="0.65" style="stop-color:#231F20"/>
		<stop  offset="0.98" style="stop-color:#3A3A3A"/>
	</radialGradient>
	<path class="st6" d="M265.2,323.1c0,0,38-85.1,134.5-84.1c28.5,0.3,62.1,8.1,101.3,27.8c0,0,41.6,25.2,48.6,67.3
		c0.2,1.3,0.4,2.6,0.5,4c0,0,36.5-35.3,0-95.1c-36.5-59.8-60.4-87.7-54.1-103c0,0-20.2,15.3-11.9,33.2c0,0-121.8-58.5-208.7,34
		c-7,7.5-13.4,15.4-19.2,23.8C169.6,356.7,255.6,356.7,265.2,323.1z"/>
	<path d="M264.5,322.8c0.3-0.8,0.6-1.4,0.9-2l1-1.9c0.6-1.3,1.3-2.6,2-3.8c1.4-2.5,2.8-5,4.4-7.4c3-4.9,6.3-9.6,9.9-14.1
		c3.6-4.5,7.3-8.9,11.4-13c4-4.1,8.3-8,12.7-11.7l1.7-1.4l1.7-1.3l3.5-2.6l3.6-2.4l1.8-1.2l1.8-1.1l3.7-2.3c1.2-0.7,2.5-1.4,3.8-2.1
		c2.5-1.5,5.1-2.7,7.7-4c1.3-0.7,2.6-1.2,3.9-1.8l4-1.7l4.1-1.5c1.4-0.5,2.7-1,4.1-1.4l4.2-1.3l2.1-0.6l2.1-0.5
		c2.8-0.7,5.6-1.5,8.5-1.9c11.4-2.2,22.9-3.1,34.5-2.8c5.8,0.2,11.5,0.6,17.2,1.3c5.7,0.7,11.4,1.7,17,2.9
		c11.2,2.4,22.3,5.7,33.1,9.7c10.8,4,21.3,8.6,31.6,13.7l0.1,0h0.1c3.2,2,6.4,4.3,9.4,6.7c3,2.3,5.9,4.8,8.6,7.4
		c5.6,5.2,10.7,10.9,15.2,17c4.6,6.1,8.4,12.8,11.5,19.9c1.5,3.5,2.8,7.2,3.8,10.9c1,3.7,1.7,7.5,2.2,11.4l-4.7-1.7
		c0.6-0.6,1.4-1.5,2-2.3s1.3-1.7,2-2.6c1.3-1.8,2.4-3.7,3.5-5.6c2.1-3.9,3.8-7.9,5-12.2c2.5-8.5,3.3-17.4,2.4-26.2
		c-0.5-4.4-1.3-8.7-2.4-13c-0.6-2.1-1.2-4.3-2-6.4c-0.4-1-0.7-2.1-1.1-3.1l-1.3-3.1c-0.4-1-0.9-2.1-1.4-3.1l-1.4-3c-1-2-2-4-3.1-5.9
		s-2.2-3.9-3.4-5.8l-3.6-5.9c-9.6-15.6-19.6-30.9-29.6-46.4c-5-7.8-9.9-15.6-14.4-23.8c-2.3-4.2-4.3-8.6-5.8-13.1
		c-0.8-2.4-1.4-4.9-1.6-7.5c-0.2-2.8,0.2-5.6,1.2-8.2l5,3.8c-0.5,0.4-1.1,0.9-1.6,1.4s-1.1,1-1.6,1.5c-1.1,1-2.1,2.1-3,3.3
		c-1.8,2.2-3.4,4.7-4.6,7.3c-1.1,2.5-1.7,5.2-1.8,7.9c0,2.7,0.6,5.4,1.7,7.8l3.7,8.2l-8.1-3.8c-1.8-0.9-3.9-1.7-5.9-2.5
		s-4-1.6-6.1-2.3c-4.1-1.5-8.2-2.8-12.4-4c-8.3-2.4-16.8-4.4-25.4-5.9c-8.6-1.5-17.2-2.5-25.9-2.9c-8.7-0.4-17.4-0.3-26,0.5
		c-2.2,0.1-4.3,0.5-6.5,0.7l-3.2,0.4l-3.2,0.6l-3.2,0.6c-1.1,0.2-2.1,0.3-3.2,0.6l-6.2,1.4c-1.1,0.2-2.1,0.5-3.1,0.8l-3.1,0.9
		l-3.1,0.9c-1,0.3-2,0.7-3.1,1l-6.1,2.2l-6,2.5c-1,0.4-2,0.8-3,1.3l-2.9,1.4c-1.9,1-3.9,1.9-5.8,2.9l-5.6,3.2
		c-0.9,0.5-1.9,1.1-2.8,1.6l-2.7,1.8l-5.4,3.6c-1.7,1.3-3.4,2.6-5.2,3.9c-3.5,2.5-6.7,5.5-9.9,8.3c-1.7,1.4-3.2,2.9-4.7,4.5
		l-4.6,4.6c-3,3.1-5.9,6.4-8.7,9.7c-2.8,3.3-5.5,6.8-8,10.3s-5,7.1-7.5,10.8c-4.9,7.3-9.6,14.6-14,22.2c-4.4,7.5-8.4,15.3-11.9,23.3
		c-3.6,7.9-6.1,16.2-7.7,24.7c-0.7,4.2-0.9,8.4-0.5,12.6c0.3,4.1,1.7,8,4,11.3c2.4,3.2,5.9,5.5,9.9,6.4c4.1,0.9,8.3,0.6,12.3-0.6
		c8-2.4,15.3-8.4,17.8-16.6L264.5,322.8z M266.6,322.1l-0.4,1.4l-0.5,1.6l-0.6,1.6l-0.8,1.6c-0.3,0.5-0.5,1-0.8,1.5
		c-1.2,2-2.7,3.8-4.4,5.4c-3.4,3.2-7.4,5.6-11.7,7.1c-4.4,1.5-9.2,1.9-13.8,1.1c-4.8-0.9-9.1-3.5-12.1-7.3
		c-2.9-3.8-4.7-8.4-5.2-13.1c-0.5-4.6-0.5-9.2,0.2-13.8c1.4-8.9,3.9-17.7,7.4-26c6.7-16.6,15.8-32.1,25.4-47c2.4-3.7,4.9-7.4,7.5-11
		c2.6-3.6,5.3-7.2,8.2-10.7c2.8-3.5,5.8-6.9,8.9-10.1l4.8-4.8c1.6-1.6,3.1-3.2,4.9-4.7c3.4-3,6.7-6,10.3-8.7
		c1.8-1.4,3.6-2.8,5.4-4.1l5.6-3.8l2.8-1.9c1-0.6,1.9-1.1,2.9-1.7l5.9-3.4c2-1,4-2,6-3l3-1.5c1-0.5,2.1-0.9,3.1-1.3l6.3-2.6l6.4-2.2
		c1.1-0.4,2.1-0.8,3.2-1.1l3.3-0.9l3.2-0.9c1.1-0.3,2.2-0.6,3.3-0.9l6.6-1.5c1.1-0.3,2.2-0.4,3.3-0.6l3.3-0.6l3.3-0.6l3.3-0.4
		c2.2-0.3,4.5-0.6,6.7-0.8c8.9-0.8,17.9-0.9,26.9-0.5c9,0.4,17.9,1.4,26.7,3c8.8,1.5,17.5,3.6,26.1,6.1c4.3,1.3,8.5,2.7,12.8,4.2
		c2.1,0.8,4.2,1.6,6.3,2.4s4.1,1.7,6.3,2.7l-4.4,4.4c-1.6-3.3-2.3-7-2.3-10.7c0.1-3.6,0.9-7.2,2.4-10.5c1.4-3.2,3.3-6.1,5.5-8.8
		c1.1-1.3,2.2-2.6,3.4-3.8c0.6-0.6,1.2-1.2,1.9-1.8s1.3-1.1,2-1.7l9.7-7.5l-4.7,11.3c-1.3,3.1-0.8,7.2,0.5,11.3
		c1.4,4.2,3.2,8.2,5.3,12.1c4.2,7.9,9.1,15.7,14,23.4c9.9,15.4,20,30.9,29.6,46.6l3.6,5.9c1.2,2,2.3,4.1,3.5,6.1s2.2,4.2,3.3,6.3
		l1.5,3.2c0.5,1.1,1,2.1,1.4,3.2l1.3,3.3c0.5,1.1,0.8,2.2,1.2,3.3c0.8,2.2,1.4,4.5,2.1,6.8c1.2,4.6,2,9.3,2.5,14
		c0.9,9.5,0,19.2-2.7,28.4c-1.4,4.6-3.2,9-5.5,13.2c-1.2,2.1-2.4,4.2-3.8,6.1c-0.7,1-1.4,1.9-2.2,2.9c-0.8,1-1.6,1.9-2.5,2.8l-4,4
		l-0.7-5.7c-0.8-7.1-2.6-14.1-5.4-20.7c-2.8-6.7-6.4-13-10.7-18.8c-4.3-5.9-9.2-11.3-14.5-16.3c-2.7-2.5-5.4-4.9-8.3-7.2
		c-2.8-2.3-5.7-4.4-8.8-6.4l0.2,0.1c-10.1-5.1-20.4-9.7-31-13.7c-10.5-4-21.4-7.3-32.4-9.8c-5.5-1.3-11-2.2-16.6-3
		c-5.6-0.8-11.2-1.2-16.8-1.4c-11.2-0.4-22.5,0.5-33.5,2.5c-11,2.1-21.8,5.5-32,10.3c-2.5,1.2-5.1,2.4-7.5,3.8
		c-1.2,0.7-2.5,1.3-3.7,2l-3.6,2.2l-1.8,1.1l-1.8,1.2l-3.5,2.4l-3.4,2.5l-1.7,1.3l-1.6,1.3c-8.9,7-17,14.9-24.2,23.6
		c-3.6,4.3-7.1,8.8-10.2,13.5c-1.6,2.3-3.1,4.7-4.6,7.1c-0.7,1.2-1.4,2.4-2.1,3.7l-1,1.9L266.6,322.1z"/>
	<path d="M399.7,239c-3.9-4.3-8.4-7.9-13.5-10.9c-2.4-1.5-5-2.8-7.6-4c-0.7-0.3-1.3-0.6-2-0.8c-0.7-0.3-1.3-0.6-2-0.8
		c-1.3-0.5-2.7-1-4-1.4c-10.9-3.5-22.3-5.1-33.7-5c-5.7,0-11.5,0.4-17.2,1l-8.7,1l-4.4,0.5l-4.4,0.3c-3,0.2-5.9,0.3-8.9,0.2
		c-3,0-6-0.2-8.9-0.7c-0.8-0.1-1.5-0.3-2.2-0.4c-0.7-0.1-1.5-0.3-2.2-0.6c-1.5-0.4-2.9-1.1-4.2-2c-1.4-0.9-2.2-2.5-2.3-4.1
		c0.2-1.5,0.8-2.9,1.9-4c-0.8,1.2-1.2,2.6-1.1,4c0.2,1.3,1.1,2.4,2.3,2.9c1.2,0.6,2.5,1,3.9,1.2c0.7,0.1,1.4,0.2,2.1,0.3
		s1.4,0.1,2.1,0.1c2.9,0.1,5.7,0,8.6-0.2c2.9-0.2,5.7-0.6,8.6-0.9c2.9-0.4,5.7-0.8,8.6-1.3l4.3-0.7l4.4-0.7
		c5.9-0.9,11.9-1.3,17.8-1.4c11.9,0,24,1.9,35.1,6.5c5.6,2.2,10.8,5.2,15.6,8.8c2.4,1.8,4.6,3.8,6.6,6
		C396.4,234.1,398.2,236.4,399.7,239z"/>
	<path d="M327.4,169.5c-0.2,0.1-0.1,0.2,0,0.3c0.1,0.1,0.2,0.2,0.3,0.3c0.2,0.2,0.4,0.4,0.7,0.5c0.5,0.3,1,0.6,1.5,0.9
		c1,0.6,2,1.1,3.1,1.7c2.1,1.1,4.2,2.1,6.3,3.1c4.2,2,8.5,4,12.7,6l12.7,6l3.2,1.5c1.1,0.5,2.1,1,3.2,1.6l6.4,3.3
		c8.3,4.8,16.2,10.5,22.6,17.9c3.2,3.7,5.8,7.9,7.7,12.4c0.5,1.1,0.9,2.3,1.2,3.5l0.5,1.8c0.1,0.6,0.2,1.2,0.3,1.8
		c0.4,2.4,0.3,4.8-0.2,7.2c-0.1-2.3-0.5-4.6-1.3-6.8l-0.6-1.6l-0.7-1.6c-0.5-1-1-2-1.6-3c-0.5-1-1.2-2-1.8-2.9c-0.3-0.5-0.6-1-1-1.4
		l-1.1-1.3c-0.8-0.9-1.4-1.8-2.2-2.6l-2.3-2.5c-6.5-6.4-14.2-11.5-22.2-16.1c-4.1-2.2-8.1-4.4-12.3-6.6s-8.3-4.5-12.4-6.8
		c-4.1-2.4-8.1-4.8-12.1-7.4c-2-1.3-3.9-2.7-5.8-4.1c-0.9-0.7-1.9-1.5-2.8-2.3c-0.4-0.4-0.9-0.8-1.3-1.3c-0.2-0.2-0.4-0.5-0.6-0.7
		c-0.1-0.1-0.1-0.3-0.2-0.4C327.2,169.8,327.2,169.6,327.4,169.5z"/>
	<path d="M387.7,155.2c6.5,4.3,12,10.1,16.7,16.5c4.7,6.4,8.4,13.4,11.2,20.8c0.7,1.9,1.3,3.8,1.9,5.6s1.1,3.8,1.5,5.8
		c0.9,3.9,1.5,7.8,1.8,11.7c0.7,7.8,0.3,15.7-1.3,23.4c-0.6-7.7-1.5-15.3-2.9-22.9c-0.8-3.7-1.5-7.4-2.6-11c-1-3.6-2.2-7.2-3.5-10.8
		c-2.6-7.1-5.9-13.9-9.7-20.4C397.1,167.3,392.6,161,387.7,155.2z"/>
	<path d="M425.8,156.9c5.1,5.6,8.7,12.4,11.5,19.4c2.7,7.1,4.4,14.6,5,22.2c0.2,1.9,0.2,3.8,0.3,5.7s0,3.8-0.1,5.7
		c-0.2,3.8-0.7,7.6-1.4,11.3c-1.4,7.4-3.9,14.6-7.3,21.3c1.4-7.2,2.5-14.6,3.2-21.9c0.1-0.9,0.1-1.8,0.2-2.7s0.1-1.8,0.2-2.7
		c0-1.8,0.2-3.6,0.1-5.4c0-3.6-0.1-7.3-0.4-10.8c-0.6-7.2-1.8-14.4-3.7-21.3C431.5,170.5,429,163.6,425.8,156.9z"/>
	<path d="M449.2,242.7c4.4-5.4,8-11.4,10.8-17.8c2.8-6.2,4.6-12.8,5.5-19.5c0.5-3.4,0.7-6.7,0.6-10.1V194l-0.1-1.3l-0.1-2.6
		l-0.3-2.5c0-0.9-0.2-1.7-0.3-2.6c-1-6.9-2.5-13.8-4.5-20.5c4,6,6.9,12.7,8.7,19.7c0.5,1.8,0.8,3.6,1.1,5.4c0.1,0.9,0.2,1.8,0.3,2.7
		l0.2,1.4l0.1,1.4c0.7,11.1-1.9,22.1-7.5,31.7c-1.8,3.1-4,6.1-6.4,8.8C454.9,238.3,452.2,240.7,449.2,242.7z"/>
	<path d="M469.8,253.1c4.2-3,8.3-6.3,12.1-9.8c1.9-1.7,3.8-3.5,5.5-5.4c1.7-1.9,3.4-3.8,5-5.8c3.1-3.9,5.8-8.2,7.8-12.8
		c1-2.3,1.8-4.6,2.4-7c0.3-1.2,0.5-2.4,0.7-3.6c0.1-0.6,0.1-1.2,0.2-1.8c0.1-0.6,0.1-1.2,0.1-1.8c0-1.2,0.1-2.4,0-3.6l-0.1-1.8
		c0-0.6-0.2-1.2-0.3-1.8c-0.1-0.6-0.1-1.2-0.3-1.8l-0.4-1.8c-0.2-1.2-0.6-2.4-1-3.7c-1.4-4.9-3.1-9.8-4.9-14.7
		c-2-4.9-3.5-10-4.7-15.2c-0.5-2.7-0.5-5.4-0.1-8.1c0.5-2.6,1.6-5.1,3.1-7.3c-1,2.4-1.5,4.9-1.6,7.5c0,2.5,0.4,5,1.2,7.4
		c1.5,4.8,3.9,9.4,6,14.2c2.2,4.8,4.2,9.7,5.8,14.8c0.4,1.3,0.8,2.5,1.1,3.9l0.5,2c0.2,0.7,0.2,1.4,0.4,2c0.1,0.6,0.2,1.4,0.3,2.1
		l0.2,2.1c0.1,0.7,0.1,1.4,0.1,2.1v2.1c-0.3,5.6-1.8,11-4.2,16c-2.4,4.9-5.5,9.4-9.2,13.4c-3.6,3.9-7.6,7.4-12,10.5
		C479.2,248.4,474.6,251,469.8,253.1z"/>
	<path d="M501,266.8c4.5-3.3,8.7-6.6,12.7-10.2c3.9-3.4,7.5-7.3,10.7-11.5c1.5-2.1,2.9-4.2,4-6.5c1.1-2.3,2-4.7,2.6-7.1
		c1.1-5.2,1.2-10.5,0.3-15.8c3,4.9,4.3,10.7,3.8,16.4c-0.3,2.9-1,5.8-2.1,8.5c-1.1,2.7-2.6,5.2-4.3,7.6c-3.4,4.6-7.6,8.5-12.4,11.6
		c-2.3,1.5-4.8,2.9-7.4,4.1C506.4,265.2,503.7,266.2,501,266.8z"/>
	<path d="M515.1,277.5c4.6-1.7,9-3.2,13.3-5.1c4.2-1.7,8.2-3.8,11.9-6.4c3.6-2.4,6.4-5.7,8.3-9.5c1.8-3.9,2.1-8.5,1.9-13.3
		c1.2,2.2,2,4.5,2.4,7c0.4,2.6,0.3,5.2-0.4,7.7c-1.5,5.1-4.7,9.5-9.2,12.5c-4.1,2.9-8.8,4.9-13.7,6
		C524.9,277.6,519.9,277.9,515.1,277.5z"/>
	<path d="M531.2,290.8c3.4-0.8,6.8-1.7,10.1-2.9c3.1-1.1,6-2.6,8.6-4.5c1.2-0.9,2.4-2,3.5-3.2c1-1.2,2-2.5,2.8-3.9
		c1.7-3,3-6.2,4.1-9.5c0.9,3.7,0.7,7.6-0.4,11.2c-1.2,3.8-3.6,7.1-6.8,9.5c-3.1,2.3-6.8,3.8-10.7,4.3
		C538.6,292.3,534.8,292,531.2,290.8z"/>
	<path d="M543.1,306.8c2.4-0.7,4.5-1.1,6.6-1.5c2.1-0.4,4.1-0.8,6-1.2c1.9-0.4,3.7-1,5.4-1.8c0.9-0.4,1.8-0.9,2.6-1.4
		c0.9-0.7,1.8-1.4,2.7-2.1c0.1,1.3-0.1,2.5-0.6,3.7c-0.5,1.2-1.3,2.3-2.2,3.2c-1.9,1.8-4.2,3.1-6.7,3.6c-2.4,0.6-4.8,0.6-7.3,0.2
		C547.3,309.1,545,308.2,543.1,306.8z"/>
	
		<linearGradient id="SVGID_7_" gradientUnits="userSpaceOnUse" x1="230.4346" y1="631.9151" x2="146.6346" y2="481.8851" gradientTransform="matrix(1 0 0 -1 85.67 881.67)">
		<stop  offset="0" style="stop-color:#231F20"/>
		<stop  offset="0.25" style="stop-color:#231F20"/>
		<stop  offset="0.46" style="stop-color:#7A7A7A"/>
		<stop  offset="0.69" style="stop-color:#231F20"/>
		<stop  offset="0.98" style="stop-color:#231F20"/>
	</linearGradient>
	<path class="st7" d="M387.7,237.3c0,0-69.4,13.1-103.1,127.4s-67.6,54.7-74.4,38.9c-6.9-15.8-20.5-101,64.8-156.7
		C327.5,212.7,387.7,237.3,387.7,237.3z"/>
	<path d="M388.6,237.1l-0.2,0.3c-0.7,1.1-0.7,0.5-0.7,0.7h-0.1l-0.3,0.1l-0.5,0.2l-1.1,0.3c-0.7,0.2-1.5,0.5-2.2,0.8
		c-1.5,0.5-2.9,1.1-4.3,1.7c-2.8,1.2-5.6,2.6-8.3,4.1c-5.4,2.9-10.6,6.3-15.5,10.1c-9.8,7.5-18.7,16.1-26.5,25.8
		c-15.6,19.2-27,41.6-35.4,64.8c-2.1,5.8-4,11.7-5.8,17.7c-1.8,5.9-3.6,12-5.6,18c-2,6-4.2,11.9-6.8,17.7
		c-2.5,5.9-5.4,11.6-8.7,17.1c-1.7,2.8-3.6,5.5-5.6,8c-2.1,2.6-4.5,5-7.2,7c-1.4,1.1-2.9,2-4.5,2.8c-1.6,0.8-3.4,1.4-5.1,1.8
		c-3.6,0.7-7.4,0.4-10.9-0.9c-3.3-1.3-6.3-3.1-8.9-5.4c-2.5-2.2-4.8-4.6-6.8-7.3c-4-5.2-7.3-10.8-10-16.7c-1.3-3.1-2.3-6.2-3-9.5
		c-0.7-3.2-1.3-6.3-1.7-9.5c-0.8-6.3-1.2-12.7-1.2-19.1c0.1-12.8,2-25.6,5.5-37.9c3.6-12.3,8.8-24.1,15.5-35
		c6.8-10.9,14.9-20.8,24.2-29.6c4.6-4.4,9.5-8.5,14.5-12.4l3.8-2.9l3.9-2.8l4-2.6c1.4-0.9,2.7-1.7,4.1-2.5c5.5-3.3,11.4-6,17.4-8.3
		c6-2.2,12.2-3.9,18.6-5.1c12.6-2.2,25.4-2.6,38.1-1.1c6.3,0.7,12.5,1.8,18.7,3.3c3.1,0.8,6.1,1.6,9.1,2.6c1.5,0.5,3,1,4.5,1.5
		l2.2,0.8l1.1,0.4l0.5,0.2l0.3,0.1c0.1,0,0.2,0.1,0.4,0.2C388.3,236.6,388.5,236.9,388.6,237.1z M386.7,237.7c0,0.2,0.1,0.3,0.3,0.4
		c0.3,0.2,0,0,0.1,0.1l-0.3-0.1l-0.5-0.2l-1.1-0.4l-2.2-0.7c-1.5-0.4-3-0.8-4.5-1.2c-3-0.8-6-1.4-9.1-2c-6.1-1.1-12.2-1.9-18.4-2.3
		c-12.3-0.8-24.6,0.1-36.6,2.7c-6,1.3-11.8,3.1-17.5,5.3c-5.7,2.2-11.1,4.9-16.3,8c-1.3,0.8-2.6,1.6-3.9,2.4l-3.8,2.6l-3.8,2.7
		l-3.7,2.8c-4.9,3.7-9.6,7.7-14,12c-8.9,8.4-16.6,18-23.1,28.4c-6.4,10.4-11.4,21.6-14.7,33.4c-3.4,11.7-5.2,23.9-5.4,36.1
		c-0.1,6.1,0.2,12.2,1,18.3c0.4,3,0.9,6,1.6,8.9c0.6,2.9,1.5,5.7,2.6,8.3c2.4,5.5,5.5,10.7,9.1,15.5c1.8,2.3,3.8,4.5,5.9,6.4
		c2.1,1.9,4.4,3.3,7,4.4c2.4,1,5,1.2,7.6,0.7c1.3-0.3,2.5-0.7,3.7-1.2c1.2-0.6,2.4-1.3,3.5-2.1c4.5-3.4,8.2-8.2,11.5-13.3
		c3.2-5.2,6-10.6,8.5-16.3c2.5-5.6,4.7-11.4,6.8-17.3c2-5.8,3.9-11.8,5.7-17.8s3.8-12,6-17.9c8.8-23.6,20.6-46.3,36.8-65.8
		c8-9.8,17.3-18.5,27.7-25.9c5.2-3.6,10.7-6.9,16.3-9.6c2.9-1.4,5.8-2.6,8.8-3.7c1.5-0.5,3-1,4.5-1.5c0.8-0.2,1.5-0.4,2.3-0.6
		l1.2-0.3l0.6-0.1l0.3-0.1h0.1c0.1,0.2,0.2-0.5-0.5,0.6L386.7,237.7z"/>
	<path d="M214.6,412.2c2-0.4,4-1.1,5.9-1.9c1-0.4,1.9-0.8,2.8-1.3s1.8-1,2.7-1.5c3.5-2.1,6.8-4.5,9.7-7.3
		c5.9-5.6,10.8-12.1,14.5-19.3c1.8-3.6,3.5-7.3,4.9-11.1l1.1-2.8l1.1-2.9c0.7-2,1.5-3.9,2.2-5.9c3.1-7.8,6.5-15.4,10.3-22.9
		c3.7-7.5,7.9-14.8,12.3-21.8c2.2-3.5,4.6-7,7-10.4s5-6.8,7.6-10c2.6-3.2,5.4-6.4,8.3-9.4c2.9-3,6-5.9,9.3-8.5c3.3-2.7,6.8-5,10.5-7
		c0.9-0.5,1.9-0.9,2.8-1.4s2-0.8,2.9-1.2c1-0.4,2-0.6,3-0.9c1-0.3,2-0.4,3.1-0.6c-1,0.3-2,0.6-3,1s-1.9,0.8-2.8,1.2
		c-0.9,0.5-1.8,0.9-2.7,1.4c-0.9,0.5-1.8,1-2.6,1.6c-3.4,2.3-6.6,4.9-9.5,7.7c-5.9,5.7-11.2,11.9-16,18.5
		c-4.8,6.6-9.4,13.5-13.6,20.5c-4.2,7.1-8.2,14.2-11.9,21.6s-7.2,14.8-10.3,22.4c-0.8,1.9-1.6,3.8-2.3,5.7l-1.2,2.8l-1.2,2.9
		l-1.2,2.9c-0.2,0.5-0.4,1-0.6,1.5l-0.7,1.4c-1,1.9-2,3.8-3,5.6l-3.4,5.4c-1.3,1.7-2.6,3.4-3.9,5.1l-2.1,2.3l-1.1,1.2l-0.5,0.6
		l-0.6,0.5l-2.3,2.2c-0.8,0.7-1.6,1.4-2.4,2c-0.9,0.6-1.7,1.3-2.5,1.9l-2.7,1.7c-0.9,0.6-1.8,1.1-2.7,1.6l-1.4,0.8
		c-0.5,0.2-1,0.4-1.4,0.7C222.9,410.6,218.8,411.7,214.6,412.2z"/>
	<path d="M206.9,391.9c1,0.4,2.1,0.4,3.2,0.1c0.5-0.1,1-0.3,1.5-0.5c0.5-0.2,0.9-0.5,1.4-0.8c0.5-0.3,0.9-0.6,1.3-0.9
		c0.4-0.3,0.9-0.6,1.3-1l1.2-1.1c0.4-0.3,0.8-0.7,1.1-1.1c2.9-3.2,5.4-6.7,7.6-10.3c4.4-7.4,8.4-15.1,11.7-23.1
		c1.8-3.9,3.4-8,5.3-12s3.8-7.9,5.8-11.8c4.1-7.8,8.6-15.4,13.6-22.7c5-7.3,10.6-14.1,16.8-20.5c6.2-6.4,13.1-12,20.6-16.8
		c7.5-4.8,15.5-8.6,24-11.2c8.4-2.6,17.1-4,25.9-4.3c-8.6,1.4-16.9,3.6-25,6.8c-4,1.6-7.9,3.4-11.7,5.4c-3.8,2-7.4,4.3-10.9,6.8
		l-2.6,1.9l-2.5,2c-0.9,0.6-1.7,1.3-2.5,2c-0.8,0.7-1.7,1.3-2.4,2.1c-3.2,2.8-6.3,5.8-9.2,8.9c-5.9,6.3-11.2,13-16.1,20
		c-4.9,7.1-9.4,14.4-13.5,22c-2.1,3.8-4.1,7.6-6,11.5c-1,1.9-1.9,3.9-2.8,5.8l-2.9,5.9c-1.9,4-4,7.8-6.2,11.6l-3.4,5.6
		c-1.2,1.9-2.5,3.7-3.7,5.5c-2.6,3.6-5.5,6.9-8.8,10c-0.4,0.4-0.8,0.7-1.3,1.1l-1.3,1c-0.5,0.3-0.9,0.6-1.4,0.9
		c-0.5,0.3-1,0.6-1.5,0.8c-0.5,0.2-1,0.4-1.6,0.6c-0.5,0.1-1.1,0.3-1.6,0.3C209,392.5,207.9,392.4,206.9,391.9z"/>
	<path d="M207.3,344c1-4,2.3-7.9,3.8-11.7c1.6-3.8,3.3-7.5,5.2-11.2c1.9-3.6,4.1-7.2,6.3-10.7s4.7-6.8,7.2-10
		c10.3-13.1,22.8-24.2,37-32.9c1.8-1.1,3.5-2.2,5.4-3.1s3.6-2,5.5-2.9l5.6-2.6l1.4-0.7l1.4-0.6l2.9-1.1c3.8-1.6,7.8-2.8,11.7-4.1
		c2-0.6,4-1.1,6-1.6l3-0.8c1-0.2,2-0.4,3-0.6c16.1-3.4,32.6-4.5,49-3.2c-16.2,0.8-32.3,3.3-48,7.3c-1,0.3-2,0.5-2.9,0.8l-2.9,0.9
		c-1.9,0.6-3.9,1.2-5.8,1.8c-3.8,1.4-7.6,2.6-11.2,4.3l-2.8,1.2l-1.4,0.6l-1.4,0.6l-5.4,2.6c-1.8,0.9-3.5,1.9-5.3,2.9
		c-1.8,0.9-3.5,2-5.2,3.1c-6.9,4.1-13.4,8.8-19.5,14c-12.3,10.5-22.9,22.7-31.6,36.3c-2.2,3.4-4.2,6.9-6.2,10.5
		c-0.5,0.9-1,1.8-1.4,2.7c-0.4,0.9-0.9,1.8-1.3,2.7C208.8,340.2,208,342,207.3,344z"/>
	<path d="M249.7,266.8c4.1-3.5,8.4-6.7,13.1-9.5c4.6-2.8,9.4-5.2,14.4-7.4c9.9-4.4,20.3-7.6,30.9-9.7c1.3-0.3,2.7-0.5,4-0.7
		c1.3-0.2,2.7-0.5,4-0.6c2.7-0.3,5.4-0.7,8.1-0.9c5.4-0.5,10.8-0.7,16.2-0.6c10.8,0.1,21.5,1.5,32,4.1c-10.7-0.4-21.3-0.5-31.9,0.1
		c-1.3,0.1-2.6,0.2-3.9,0.3s-2.6,0.2-3.9,0.3c-2.6,0.3-5.2,0.5-7.9,0.9c-5.2,0.6-10.4,1.5-15.6,2.5c-10.3,2-20.5,4.8-30.5,8.3
		c-5,1.8-9.9,3.7-14.7,5.8C259.1,261.8,254.3,264.2,249.7,266.8z"/>
	<path class="st8" d="M419,422.7c0,0,22.7-10.5,37.6,0"/>
	<path class="st9" d="M328.1,381.5c0,0-27.4,4.7-25.3,33.9c2.1,29.3,12.6,44.5,12.6,44.5s2.9,12.3,31.7,12.8
		c28.8,0.5,62.3,1,68.6-21.6c6.3-22.6,2-38.1,0.6-54.2C414.1,374,385,363.6,328.1,381.5z"/>
	<path class="st9" d="M528.1,367.8c0,0,23.3,2.6,24.1,30.9c0.8,28.3-6.5,43.8-6.5,43.8s-1.3,12-25.3,14.5c-24,2.5-52,5.3-59.3-16.1
		c-7.3-21.3-5.1-36.5-5.3-52.2C455.5,366.4,478.9,354.5,528.1,367.8z"/>
	<line class="st8" x1="303.8" y1="424.8" x2="229.8" y2="422.7"/>
	<path class="st2" d="M279.3,450c-4.5-14.3-12.5-27.2-23.5-37.5c-5.3-5.1-12.9-10.1-20.9-8.6c-7,1.3-11.3,7.2-13.6,12.8
		c-8.4,19.7-3.7,41.8,6.9,60.8c5.5,10,13.7,20.2,26.6,23.4c10.4,2.6,27,0.5,32.8-12.4"/>
	<path d="M279.3,450c-4-8.4-9.2-16.1-15.4-23c-0.7-0.9-1.3-1.9-2-2.8s-1.4-1.8-2.2-2.6c-1.5-1.7-3-3.4-4.6-5
		c-1.5-1.6-3.2-3.1-4.9-4.5c-1.6-1.3-3.4-2.4-5.3-3.4c-3.7-1.8-7.6-2.3-11.1-1.1s-6.3,4.1-8.3,7.8c-0.5,0.9-1,1.9-1.4,2.9
		c-0.4,1-0.8,2-1.2,3.1c-0.7,2.1-1.3,4.2-1.7,6.4c-0.9,4.3-1.2,8.8-1,13.2c0.5,9,2.7,17.8,6.4,26.1c3.7,8.3,8.1,16.4,14.4,22.4
		c3.1,3,6.7,5.4,10.6,7c1,0.4,2,0.7,3,1c1,0.3,2,0.4,3.1,0.6c2.1,0.5,4.2,0.8,6.4,1c4.4,0.3,8.9-0.3,13-1.9
		c4.3-1.6,7.9-4.7,10.3-8.6c-0.7,2.3-1.9,4.5-3.4,6.3c-0.8,1-1.6,1.9-2.5,2.7c-0.9,0.8-1.9,1.6-3,2.3c-6.6,3.9-14.2,5.7-21.8,5
		c-1.3-0.2-2.6-0.5-3.8-0.9c-1.2-0.3-2.5-0.8-3.7-1.2c-4.8-1.9-9.1-4.8-12.8-8.4c-3.6-3.5-6.7-7.5-9.2-11.8c-2.5-4.2-4.8-8.5-6.7-13
		c-4-9-6.3-18.5-6.9-28.3c-0.2-5,0.1-9.9,1.1-14.8c0.5-2.5,1.1-4.9,1.9-7.2c0.4-1.2,0.8-2.3,1.3-3.5c0.5-1.2,1-2.4,1.7-3.5
		c1.3-2.4,2.9-4.5,4.8-6.4c2-2,4.5-3.5,7.1-4.5c2.7-0.9,5.6-1.3,8.4-0.9c2.7,0.3,5.4,1.1,7.8,2.3c4.5,2.3,8.6,5.4,12.1,9.1
		c3.4,3.5,6.6,7.1,9.5,11C274.5,431.2,277.9,440.4,279.3,450z"/>
	<path class="st2" d="M235.8,447.8c-0.7-2.9-1-6-0.8-9c0.4-3,1.8-5.9,4.1-6.8c1.5-0.5,3.2-0.5,4.7,0.1c5.5,1.8,10,6.8,13.1,12.6
		c3.1,5.8,5,12.3,6.8,18.8l4.1,14.5"/>
	<path d="M235.8,447.8c-0.7-1.5-1.2-3-1.7-4.6c-0.5-1.7-0.7-3.4-0.7-5.1c0-1.9,0.6-3.8,1.5-5.4c0.5-1,1.3-1.8,2.2-2.4
		c1-0.7,2.1-1.2,3.3-1.3c1.1-0.1,2.2-0.1,3.2,0.1c0.9,0.2,1.9,0.5,2.8,0.8c1.7,0.7,3.4,1.6,4.8,2.7c2.8,2.2,5.2,4.8,7.1,7.8
		c3.7,5.9,5.5,12.3,6.9,18.6c1.3,6.3,2.2,12.6,2.6,19c-2.9-5.7-5.5-11.5-7.7-17.5c-2.2-5.9-4.4-11.6-7.5-16.5
		c-1.5-2.4-3.3-4.6-5.4-6.4c-1-0.9-2.1-1.6-3.3-2.3c-1-0.6-2.1-0.9-3.2-1.1c-0.4,0-0.8,0-1.1,0.2c-0.4,0.2-0.9,0.5-1.2,0.9
		c-0.9,1-1.5,2.1-1.8,3.4c-0.4,1.4-0.7,2.9-0.7,4.4C235.9,444.6,235.9,446.2,235.8,447.8z"/>
	<path class="st2" d="M253.7,479.5c-0.5-0.5-11.1-13.9-3.1-19.2s12.8,1.6,14.7,8.3"/>
	<path d="M253.7,479.5c-1.7-0.9-3.2-2.1-4.4-3.5c-1.3-1.4-2.4-3-3.3-4.8c-1-2-1.5-4.1-1.4-6.4c0.1-1.3,0.4-2.6,1-3.8
		c0.6-1.2,1.5-2.2,2.5-3.1c0.3-0.2,0.5-0.4,0.8-0.5l0.7-0.4c0.5-0.3,1-0.6,1.5-0.8c0.5-0.2,1.1-0.4,1.6-0.6c0.6-0.2,1.2-0.3,1.8-0.4
		c0.6,0,1.3,0,1.9,0c1.3,0.1,2.5,0.5,3.6,1.2c0.3,0.2,0.5,0.3,0.8,0.5l0.7,0.6c1.6,1.4,2.7,3.3,3.3,5.3c0.6,1.8,0.8,3.8,0.6,5.7
		c-1.2-1.5-2.3-2.9-3.4-4.1c-1-1.1-2.2-2-3.5-2.6c-0.9-0.4-2-0.5-3-0.2c-0.3,0.1-0.5,0.2-0.8,0.3c-0.3,0.1-0.6,0.3-0.8,0.4
		c-0.3,0.1-0.6,0.3-0.9,0.5l-0.4,0.3l-0.3,0.2c-0.7,0.5-1.2,1.3-1.4,2.2c-0.1,0.6-0.2,1.2-0.1,1.9c0,0.7,0.1,1.5,0.2,2.2
		C251.7,472.8,252.6,476.2,253.7,479.5z"/>
	<path class="st10" d="M500.7,403.7c-4.1,0-7.7,3.8-9.6,9.4c4.5,2.5,11.9,6.4,13.4,6.4s-8.7,6.4-14,9.6c1.6,6.9,5.6,11.8,10.3,11.8
		c6.1,0,11-8.3,11-18.6C511.7,412,506.7,403.7,500.7,403.7z"/>
	<path d="M311.5,394.4c0,0,8-15.8,35.1-23s46.8-5.1,44.2-19.5C388.2,337.5,314.5,364.1,311.5,394.4z"/>
	<path d="M538.5,369.5c0,0-10.1-10.8-34.1-11s-39.8,5.4-40.9-6.4S529.4,346.3,538.5,369.5z"/>
	<path class="st2" d="M460.8,450.2c0,0,1.1,15.7,10,21.5c11.3,7.4,23.4,17.9,0,36.3"/>
	<path d="M460.8,450.2c0.9,2.8,2,5.6,3.3,8.3c1.1,2.5,2.6,4.9,4.3,7.1c0.8,1,1.7,1.9,2.7,2.6c0.5,0.4,1,0.7,1.5,1l2,1.2
		c2.7,1.7,5.2,3.7,7.5,6c1.2,1.3,2.2,2.6,3.1,4.1c0.9,1.6,1.6,3.3,1.9,5.2c0.3,1.8,0.3,3.7-0.1,5.6c-0.4,1.7-1,3.4-1.9,4.9
		c-1.7,2.8-3.8,5.2-6.4,7.2c-2.4,1.9-5,3.5-7.8,4.8c1.9-2.4,3.8-4.7,5.4-7.1c1.6-2.2,3-4.6,4-7.2c0.9-2.2,1.1-4.6,0.6-6.8
		c-0.7-2.3-2-4.3-3.7-6c-0.9-1-1.9-1.9-2.9-2.7c-1-0.9-2.2-1.8-3.3-2.6l-1.7-1.3c-0.7-0.5-1.4-1.1-2-1.7c-1.2-1.2-2.3-2.6-3.1-4.1
		c-1.6-2.8-2.6-5.9-3.1-9.1c-0.3-1.5-0.4-3.1-0.4-4.6C460.5,453.2,460.6,451.7,460.8,450.2z"/>
	<path d="M341.5,515.9c3.7,0.1,7.4-0.2,11.1-0.7c3.6-0.5,7.1-1.5,10.5-2.8c1.7-0.7,3.3-1.4,4.9-2.3c1.6-0.9,3.1-1.9,4.5-3
		c2.9-2.3,5.5-4.9,7.9-7.8c-1.4,3.6-3.6,6.8-6.4,9.5c-1.4,1.4-2.9,2.6-4.6,3.6c-1.7,1-3.4,1.9-5.2,2.7c-3.6,1.4-7.5,2.2-11.4,2.3
		C348.9,517.7,345.1,517.2,341.5,515.9z"/>
	<ellipse class="st11" cx="364.3" cy="422.3" rx="23.3" ry="45.3"/>
	<path class="st12" d="M363.7,398c-6.3,0-11.7,5-14.6,12.3c6.9,3.3,18.1,8.3,20.4,8.3c2.5,0-13.3,8.4-21.4,12.6
		c2.5,9,8.5,15.4,15.6,15.4c9.3,0,16.8-10.9,16.8-24.3C380.5,408.9,373,398,363.7,398z"/>
	<ellipse class="st11" cx="501" cy="412.2" rx="23.3" ry="45.3"/>
	<path class="st12" d="M500.4,387.9c-6.3,0-11.7,5-14.6,12.3c7,3.3,18.1,8.3,20.4,8.3c2.5,0-13.3,8.4-21.4,12.6
		c2.5,9,8.5,15.4,15.6,15.4c9.3,0,16.8-10.9,16.8-24.3C517.2,398.8,509.7,387.9,500.4,387.9z"/>
	<path d="M372.2,511.5l121.9,5.8c0,0-3,52.9-53.4,54.3C363.3,573.7,372.2,511.5,372.2,511.5z"/>
	<path d="M425.4,572.1c-12.2-1.2-22.6-4.3-31-9.4c-28.5-17.2-24.2-50.1-24-51.5c0.1-0.5,0.8-0.9,1.7-0.8l121.9,5.8
		c0.5,0,0.9,0.2,1.3,0.4c0.3,0.2,0.5,0.5,0.5,0.8c-0.9,9.4-3.6,18.5-7.9,26.9c-9.4,17.9-25.7,27.7-47,28.3
		C435.8,572.7,430.6,572.6,425.4,572.1z M373.9,512.6c-0.5,5.5-1.7,33.9,23,48.8c10.9,6.5,25.6,9.6,43.6,9.1
		c44.4-1.2,51-44.8,51.8-52.3L373.9,512.6z"/>
	<path class="st13" d="M399,520.9c18,4.9,38.8,5.4,57,3.9c12.9-1,26.9-3.2,37.5-7.6l-112.8-5.3C384.8,515.8,392,519,399,520.9z"/>
	<path d="M420.5,525.7c-7.4-0.7-14.8-2-22-3.9l0,0c-8.2-2.2-15.2-5.7-19.2-9.5c-0.3-0.2-0.4-0.6-0.2-1c0,0,0.1-0.1,0.1-0.1
		c0.4-0.4,1-0.5,1.5-0.5l112.8,5.3c0.7,0,1.3,0.3,1.7,0.8c0.3,0.4,0.1,0.9-0.5,1.1c-9.4,3.9-22.2,6.5-38.2,7.8
		C444.5,526.8,432.4,526.8,420.5,525.7z M399.7,519.9c19.5,5.3,41.2,5,56,3.8c13-1,23.9-3,32.3-5.8l-103.7-4.9
		C389,516.2,394.2,518.6,399.7,519.9L399.7,519.9z"/>
	<path class="st14" d="M458.9,556.7c-8.1-2.9-16.6-4.3-25.2-4.1c-6.3,0.2-12.6,1-18.8,2.2c-6.8,1.2-13.4,3.1-19.8,5.7l-1,0.5
		c10.2,6.7,25.1,11.1,46.6,10.5c12.5-0.3,22.1-3.9,29.4-9C466.7,560.1,462.9,558.2,458.9,556.7z"/>
	<path d="M425.4,572.1c-13-1.3-24-4.7-32.6-10.4c-0.3-0.2-0.5-0.5-0.5-0.8c0.1-0.3,0.3-0.6,0.6-0.7l1.1-0.5
		c6.5-2.7,13.3-4.7,20.2-5.9c6.3-1.3,12.8-2.1,19.2-2.3c9-0.2,17.9,1.2,26.4,4.3l0,0c4.2,1.5,8.1,3.6,11.8,6.1
		c0.6,0.4,0.6,1,0.1,1.3c-8.4,5.8-18.7,9-30.6,9.3C435.8,572.7,430.6,572.6,425.4,572.1z M396.7,561.3c10.9,6.6,25.6,9.7,43.7,9.2
		c10.5-0.3,19.7-3,27.3-8c-3-2-6.3-3.6-9.7-4.9c-7.7-2.8-15.9-4.1-24.1-3.9c-6.1,0.2-12.3,0.9-18.3,2.2
		C409.1,557,402.8,558.8,396.7,561.3L396.7,561.3z"/>
</g>
<g id="Layer_4">
	<path class="st15" d="M535.7,476.4c1.9,7-5.5,15.1-16.4,18c-10.9,2.9-21.3-0.5-23.2-7.5s5.5-15.1,16.4-18
		C523.5,466,533.9,469.4,535.7,476.4z"/>
	<path class="st15" d="M378.3,486c2.2,2.4,5.7,7.8,4.3,10.8c-0.3,0.5-0.5,0.7-2.6,2.9c-2,2.2-3.1,3.4-3.6,4
		c-3.1,3.3-12.8,7.5-12.8,7.5c-2.6,1.2-5.2,2.2-7.9,3c-3.4,1-2.7,0.3-13.4,1.9c-1.9,0.3-2.8,0.4-3.9-0.1c-3.2-1.6-3.8-7.2-4-8.9
		c-0.9-8.5,4.2-20.4,14.7-25.4C359,477,371.9,478.9,378.3,486z"/>
</g>
</svg>
