<svg xmlns="http://www.w3.org/2000/svg" viewBox="0 0 586.29 159.03"><defs><style>.cls-1{fill:#fffcf8;}</style></defs><g id="Layer_4" data-name="Layer 4"><path class="cls-1" d="M323.69,107.34c-.81-.12-1.5.44-2,1.87-4.12,11.77-8.1,23.58-12.17,35.37-2.28,6.89-4.38,13.1-13.66,13.52s-12.13-5.53-14.49-12.4c-8.07-23.52-16.39-47-23.95-70.64-1.55-4.85-7.54-12.37,2.6-15.27,8.64-2.47,15.3.43,18.42,9.67,5.12,15.15,10,30.69,16.65,45.22,7-12.21,11.66-25.38,15.81-38.73,2.7-8.69,4.43-16.85,15.51-16.43C339.78,60,338.47,72,341.75,80c4.33,10.51,7.65,21.42,13.87,39.2,7-20,12.08-33.36,16.42-47,3-9.45,8.33-15.65,18.8-12.49,13.4,4,3.73,13.1,2.05,18.71-6.45,21.56-14.38,42.7-21.78,64-2.52,7.25-3.77,15.29-14.51,15.61-10.18.3-13-8.3-15.57-16.51C339.82,137.57,329,108.09,323.69,107.34Z" transform="translate(-31.86 -21.77)"/><path class="cls-1" d="M524.91,109.7c0-7-.23-14,0-20.94.28-7.39-2.58-21.21,3.19-27.16,3.44-3.54,7.65-3.12,12.18-2.14,8.79,1.9,11.69,6,21.15,2.3,33.33-13.13,56,7.17,56.58,40.44.23,14,0,27.94,0,41.91,0,7.62-1.28,13.63-11.33,13.95-11.35.37-12.87-6.1-12.8-14.84.12-14,.13-27.94-.22-41.91-.34-13.59-7-22.62-21.51-22.47-13.94.14-21.83,8.38-22.43,22.08-.65,14.72-.52,29.48-.63,44.22-.06,8.24-3.12,13-12.53,13-9.9,0-11.86-5.7-11.87-13.52q0-17.46,0-34.92Z" transform="translate(-31.86 -21.77)"/><path class="cls-1" d="M143.87,155.92c-13-6.23-18.09-18.82-25.1-30-7.46-11.91-10.31-20.45,2.5-33.18,21.28-21.15,11.29-55.48-16.43-67.21-11.4-4.83-23.27-3.24-35-3.75-43,.71-37.28-5.34-37.75,37.14-.3,26.35-.32,52.71.12,79.05.14,8.41-3.75,19.92,11.55,20.7,15.12.76,12.78-10.1,13.42-19.08.84-11.79,5.35-21.86,18-24.18s14.64,9.74,19.15,17.19c10,16.59,17.41,35.26,36.79,44.06,6,2.7,14.25,8.17,18.44-.76C152.61,169.43,153.53,160.57,143.87,155.92ZM99,82.53c-8.6,7.12-21.36,9.06-32.21,9-9.06,0-12.5-9.5-11.47-20,1.32-13.47,10-28.6,23.51-27.51,9.1.73,19.52,2.2,24.91,10.48C109.64,63.54,107.12,75.83,99,82.53Z" transform="translate(-31.86 -21.77)"/><path class="cls-1" d="M488.83,60.92c-9.63,5.94-14.21.49-20.94-1.3-22.93-6.13-42.34-.94-56.75,18-13.64,17.95-13.44,45.65.58,63.1,14.72,18.33,33.79,24.59,56.81,17,4.43-1.46,10.17-6,12.84-4.62,32.63,17.1,26.37-7.26,27.12-24.05.28-6.19.05-12.39,0-18.59,0-11.63-.68-23.3.14-34.87C509.77,59.75,499.71,54.2,488.83,60.92Zm-3.51,49.2c-1.05,18.68-12.44,27.27-30.36,29-18.8-2-29.11-12.18-29.06-30.42S436.36,79.79,455,78.84C472.63,77.94,486.32,92.42,485.32,110.12Z" transform="translate(-31.86 -21.77)"/><path class="cls-1" d="M193.76,55.84c-30.22.55-54.88,24.68-54.59,53.41.29,29,24.92,52.3,55.43,52.38,30.28.09,55.4-23.28,55.92-52C251.05,80.34,224.58,55.26,193.76,55.84ZM226.06,110c-.66,17.26-15.21,30.22-33,29.41s-30.5-14.93-28.84-32.85c1.69-18.3,12.64-28,31.14-28.34C212.64,77.88,226.72,93,226.06,110Z" transform="translate(-31.86 -21.77)"/></g></svg>