<svg id="Layer_2" data-name="Layer 2" xmlns="http://www.w3.org/2000/svg" viewBox="0 0 643.14 192.11"><defs><style>.cls-1{fill:#fffcf8;}</style></defs><path class="cls-1" d="M210.22,72.45c9.53-4.31,18.09-8.2,26.67-12.06,1.56-.7,2.74.35,4,1C259.5,71.8,278.42,81.72,296.7,92.7c15,9,30.71,11.13,47.5,8.65A141.74,141.74,0,0,0,380,91c1-.44,2.26-.59,3.05-2.35L283.72,33.74a71.14,71.14,0,0,1,23.31-6,43.86,43.86,0,0,1,26,5.51c27.22,15.29,54.54,30.39,81.82,45.58,1,.53,2.4,1.11,2.61,1.92.34,1.35-1.39,1.59-2.31,2.09-29.62,16.11-60.95,26.58-95,26.32-30-.22-58.24-8.19-84.56-22.7Z" transform="translate(-3.43 -10.95)"/><path class="cls-1" d="M222.46,39.07C254.65,21.41,287.77,10.13,324.16,11c39.21.93,73.48,16.19,106.13,37.54-8.65,3.77-17,7.4-25.32,11-1.79.79-3-.44-4.33-1.17-19-10.38-38.17-20.34-56.77-31.32-13.64-8-28-10.52-43.31-8.77a139.12,139.12,0,0,0-40.79,11.35,2.19,2.19,0,0,0-1.64,1.78l99.6,55.08c-18.76,5.6-36,8.58-53.53-1.7-25.56-15-51.72-28.93-77.62-43.33C225.47,40.89,224.39,40.21,222.46,39.07Z" transform="translate(-3.43 -10.95)"/><path class="cls-1" d="M3.43,201.87c4.48-4.63,8.9-9.23,13.35-13.79,1.27-1.3,3-.84,4.5-.84q21.49,0,43,0c3.82,0,7.08-.94,9.25-4.32.59-.93,1.53-1.94.82-3.1-.61-1-1.83-.58-2.79-.58q-20.64,0-41.28,0h-15c-1.37,0-2.73,0-2.41-2,1.56-9.61,3.86-18.82,12-25.33,5.57-4.44,11.82-7.22,18.9-7.28,20.92-.18,41.85-.07,62.77-.06a17.3,17.3,0,0,1,2.46.67c-5,4.7-9.28,9-13.83,13-1.89,1.67-4.54,1.51-7,1.51-13.62,0-27.23,0-40.85,0-3.35,0-6.21.66-8.08,3.79-1.53,2.54-1.52,3.77,2,3.75q24.07-.17,48.15,0c3.5,0,8.22-1.65,10.17.88,1.69,2.19-.9,6.43-1.58,9.76-.82,4.06-1.48,8.18-3.26,12-3.67,7.86-9.88,12.54-18.46,12.64-23.93.29-47.86.09-71.8.06C4.28,202.58,4.06,202.3,3.43,201.87Z" transform="translate(-3.43 -10.95)"/><path class="cls-1" d="M516.44,185.23l15,17.39c-9.11,0-17.2,0-25.3,0-1.47,0-2.2-1.21-3-2.17q-11.77-13.38-23.5-26.8c-.63-.71-1.75-1.38-1.31-2.49s1.75-.65,2.67-.65c8.45,0,16.91,0,25.36,0,4.53,0,8.57-4.72,8-9.09-.21-1.7-1.31-1.63-2.45-1.63-11.46,0-22.93.05-34.39-.06-2.65,0-3,1.62-3.41,3.48-2.45,11.63-5.06,23.22-7.24,34.9-.74,3.92-2.38,5.21-6.27,4.93a126.13,126.13,0,0,0-13.75,0c-2.92.11-4-.3-3.19-3.75,2.86-12.71,5.18-25.54,8-38.24,1-4.34.2-7.41-3.33-10.16-1.83-1.43-5.09-3.31-4.4-5.27.81-2.27,4.33-.93,6.62-.93,24.79-.09,49.58-.06,74.37-.06a22,22,0,0,1,6.81.64c5.31,1.71,7.54,4.67,7.06,10.23a54,54,0,0,1-4.89,19C530.62,181.2,524.72,184.43,516.44,185.23Z" transform="translate(-3.43 -10.95)"/><path class="cls-1" d="M151.13,202.64c-11.61,0-23.22-.06-34.83.05-2.91,0-4-.31-3.19-3.77,2.75-12.14,4.85-24.43,7.69-36.55,1.15-4.93,0-8.22-3.86-11.18-2.07-1.59-5.88-3.47-5.09-5.65.89-2.45,4.87-.91,7.45-.91,27.38-.11,54.75,0,82.12-.15,3.66,0,5.06.82,3.69,4.47a5.69,5.69,0,0,0-.18.84c-2.21,10.74-2.2,10.32-13.35,10-14.87-.4-29.77-.06-44.66-.09-4.12,0-3.31,3.42-3.67,5.59-.51,3.07,2.27,1.81,3.58,1.83,10.32.11,20.64.19,31,0,3.57-.08,4.13,1.15,3.34,4.26-1.55,6.06-3.38,7.73-9.93,7.81-9.31.11-18.63,0-27.94,0-2.73,0-5.55,4.82-4.22,7.16.81,1.42,2.34.8,3.54.8,16.76,0,33.53.09,50.3,0,3.41,0,4.2.1,2.86,4.09-3.11,9.29-8.57,12.72-18.41,11.59C168.7,201.86,159.87,202.64,151.13,202.64Z" transform="translate(-3.43 -10.95)"/><path class="cls-1" d="M211.53,145.32a5,5,0,0,1-.06-.56q15.41-.3,30.82-.18a3,3,0,0,1,1.86.41c.91.68.79,2.07.57,3.19-2.28,11.75-4.4,23.55-6.88,35.26-.69,3.27.16,3.86,3.2,3.84,16-.12,32.09-.06,48.13-.05h5.44c-3.78,5.37-7.05,10.09-10.41,14.73-.76,1.06-2.12.67-3.24.67q-32.65,0-65.32.06a3.48,3.48,0,0,1-2.72-.77c-.7-.78-.56-2-.37-3l6.67-37c.58-3.21,1.07-6.83-.86-9.46S212.12,148.45,211.53,145.32Z" transform="translate(-3.43 -10.95)"/><path class="cls-1" d="M646.57,144.56c-.48,2.11-2.06,2.42-3.14,3.15-10.58,7.08-21.17,14.15-31.85,21.08-2.42,1.56-2.67,2.47-.59,4.72,7.77,8.4,15.3,17,22.86,25.6.8.9,2.1,1.54,2.09,3.51h-24.3c-1.35,0-2-1-2.75-1.84-8-9.14-16-18.34-24-27.42-1.58-1.78-1.43-2.67.48-4,11.29-7.55,22.52-15.21,33.79-22.8a12.51,12.51,0,0,1,7.3-2.08C633.07,144.63,639.73,144.56,646.57,144.56Z" transform="translate(-3.43 -10.95)"/><path class="cls-1" d="M396.25,145.58c-11.4,7.6-22.73,15.33-34.27,22.73-3.12,2-3.32,3.09-.77,5.82,7.88,8.47,15.47,17.23,23.16,25.87.55.62,1.36,1.09,1.17,2.62H361.36c-1.31,0-2-.92-2.78-1.79-8-9.13-16-18.31-24.05-27.37-1.79-2-1.22-3,.75-4.28,10.94-7.3,21.82-14.7,32.7-22.09a14.72,14.72,0,0,1,8.89-2.57c6.38.13,12.75,0,19.13,0Z" transform="translate(-3.43 -10.95)"/><path class="cls-1" d="M419.81,144.56c4.73,0,9.46.11,14.18,0,2.67-.09,3.11.87,2.59,3.31q-5.56,26-10.89,52.11c-.45,2.23-1.41,2.76-3.43,2.73-5.3-.08-10.61-.22-15.9,0-3.41.17-4.14-.85-3.42-4.15,2.73-12.58,5-25.27,7.91-37.82,1.14-5,.48-8.53-4-11.34-1.53-1-4.47-2-3.72-4s3.61-.72,5.52-.8C412.36,144.45,416.09,144.56,419.81,144.56Z" transform="translate(-3.43 -10.95)"/><path class="cls-1" d="M316.08,144.56c4.72,0,9.44.06,14.16,0,2.11-.05,2.75.6,2.3,2.76q-5.58,26.42-11,52.88c-.52,2.58-2.14,2.72-4.05,2.73-5,0-10-.17-15,.09-3.47.18-4.44-.67-3.62-4.28,2.72-12,4.77-24.12,7.76-36,1.65-6.59.08-11.1-5.54-14.57-1-.61-2.77-1.15-2.22-2.7s2.25-.81,3.46-.83C306.93,144.52,311.5,144.56,316.08,144.56Z" transform="translate(-3.43 -10.95)"/><path class="cls-1" d="M566.32,144.56c4.58,0,9.15.08,13.73,0,2.37-.06,3.37.42,2.79,3.13q-5.58,26-10.86,52c-.47,2.31-1.44,3.23-3.62,3.23-5.72,0-11.44,0-17.16,0-3.31,0-2.35-2-2-3.77,2.5-12,4.63-24.15,7.65-36.05,1.74-6.88.31-11.68-5.73-15.25-.9-.53-2.42-1.07-2-2.43s1.94-.87,3-.88C556.88,144.54,561.6,144.56,566.32,144.56Z" transform="translate(-3.43 -10.95)"/></svg>