<svg xmlns="http://www.w3.org/2000/svg" viewBox="0 0 600 600"><g id="bg"><rect width="600" height="600" fill="#ff7545"/></g><g id="pattern"><path d="M44.38,43.8C41.31,41.7,32.51,35.6,32,35c4.86-.42,13-1,17.88-1.41,3-5.46,6.72-11.14,8.63-14.59.27,1.47,2.1,12.56,2.73,16.5,2,.45,13.58,2.85,16.24,4.29-1,.61-10.53,4.33-14.58,6,.58,3.4,3.28,16,3.48,17.95-.51-.33-10-12-12.22-14.49-3,1.89-12.77,8.45-17.87,11.43C38.26,56.63,42.15,48.17,44.38,43.8Z" fill="#ffe757"/><path d="M77.94,39.84a3.13,3.13,0,0,0-1-1.47,14.14,14.14,0,0,0-2.44-.94c-1.2-.38-2.42-.7-3.64-1-2.54-.65-5.09-1.23-7.64-1.79l-1.51-.32q-1-6.07-2-12.12c-.13-.76-.25-1.51-.39-2.26a5,5,0,0,0-.82-1.79c-.11-.15-.54-.81-.73-.47-2.32,4.18-5,8.18-7.35,12.32l-.94,1.66c-.15.28-.21.48-.53.54s-.55,0-.81.07l-3,.24L38.36,33c-2.36.18-4.71.36-7.06.56-.26,0,.11,1,.12,1a5,5,0,0,0,.87,1.55,7.35,7.35,0,0,0,1.25,1c.79.59,1.6,1.17,2.4,1.74C38,40.41,40,41.84,42.1,43.26l.8.55c-2,4.06-3.92,8.18-5.85,12.28-.51,1.09-1,2.17-1.54,3.25-.21.44,1,3.09,1.52,2.81,5.12-3,10-6.34,15-9.58.92-.6,1.83-1.19,2.75-1.77,3.59,4.09,6.94,8.38,10.47,12.52a10.14,10.14,0,0,0,1.6,1.79c.22.15.39.15.35-.18-.21-2.05-.72-4.1-1.12-6.13-.58-2.88-1.17-5.76-1.75-8.65-.19-1-.39-1.95-.56-2.93,4.22-1.74,8.48-3.37,12.68-5.15a16.69,16.69,0,0,0,1.78-.8C78.55,41.08,78,40,77.94,39.84ZM65.54,43l-3.35,1.36c-.15.06,0,.48,0,.55.88,5.11,2.06,10.17,3,15.27.1.53.2,1.06.29,1.59,0,0,0,.11,0,.17-.22-.24-.43-.49-.64-.74-.85-1-1.68-2-2.51-3-2-2.45-4.07-4.91-6.11-7.35-.77-.92-1.54-1.85-2.34-2.75,0,0-.31-.39-.45-.31-4.68,2.91-9.21,6-13.87,9,1.29-2.75,2.57-5.5,3.9-8.23.55-1.14,1.11-2.28,1.68-3.41.09-.17-.08-.63-.12-.77A4.22,4.22,0,0,0,44,42.48a.66.66,0,0,0-.16-.11c-2.93-2-5.86-4-8.74-6.08,3.61-.3,7.23-.56,10.84-.84L49,35.2l1.38-.12c.33,0,.36-.17.52-.46s.32-.59.49-.88c1.33-2.35,2.73-4.67,4.14-7,1-1.6,2-3.2,2.92-4.83.5,3,1,6,1.47,9,.18,1.14.37,2.28.55,3.43A4.56,4.56,0,0,0,61,35.89c.15.28.48,1,.85,1.08,3.94.86,7.92,1.67,11.81,2.77l-1.16.45C70.2,41.14,67.87,42.07,65.54,43Z" fill="#232020"/><path d="M182.77,41c-2.14-1.53-8.24-6-8.58-6.39,3.37-.3,9-.72,12.41-1,2.09-4,4.66-8.1,6-10.62.19,1.07,1.46,9.15,1.89,12,1.42.32,9.43,2.07,11.28,3.12-.71.44-7.31,3.15-10.13,4.37.41,2.47,2.28,11.65,2.42,13.07-.36-.25-7-8.76-8.48-10.56-2.12,1.38-8.86,6.15-12.41,8.32C178.52,50.36,181.22,44.2,182.77,41Z" fill="#ffe757"/><path d="M206.06,38.14a2.24,2.24,0,0,0-.72-1.07,9.48,9.48,0,0,0-1.69-.68c-.84-.28-1.69-.52-2.53-.75-1.76-.47-3.53-.89-5.31-1.3l-1-.24q-.68-4.41-1.39-8.82c-.08-.55-.17-1.1-.26-1.64a3.63,3.63,0,0,0-.58-1.3c-.07-.12-.37-.59-.5-.35-1.61,3.05-3.44,6-5.1,9l-.65,1.21c-.11.2-.15.35-.37.39a3.55,3.55,0,0,1-.57,0l-2.09.18-4.67.37-4.91.42c-.17,0,.09.74.09.76a4.08,4.08,0,0,0,.6,1.13,5.71,5.71,0,0,0,.87.76c.55.43,1.11.85,1.67,1.27l4.27,3.13.56.4C180.34,44,179,47,177.68,50c-.35.79-.71,1.58-1.07,2.37-.14.32.72,2.25,1.06,2,3.55-2.18,7-4.62,10.41-7,.63-.44,1.27-.87,1.91-1.29,2.49,3,4.82,6.1,7.26,9.12a6.92,6.92,0,0,0,1.12,1.29c.14.11.26.11.24-.12-.15-1.5-.5-3-.78-4.46-.4-2.1-.82-4.2-1.21-6.3-.14-.71-.27-1.43-.4-2.14,2.93-1.26,5.89-2.45,8.8-3.74a12.83,12.83,0,0,0,1.24-.59C206.49,39,206.12,38.27,206.06,38.14Zm-8.6,2.3-2.33,1c-.11,0,0,.35,0,.4.61,3.72,1.43,7.41,2.1,11.12.07.38.14.77.2,1.15l0,.13-.44-.54c-.59-.72-1.17-1.44-1.74-2.17-1.42-1.78-2.83-3.57-4.24-5.35-.54-.67-1.07-1.35-1.63-2,0,0-.22-.28-.31-.22-3.25,2.12-6.4,4.4-9.63,6.54.9-2,1.79-4,2.71-6,.38-.83.77-1.66,1.17-2.48.06-.13-.06-.46-.09-.56a3,3,0,0,0-.76-1.39.35.35,0,0,0-.1-.08c-2-1.46-4.07-2.92-6.07-4.43l7.52-.61,2.15-.18.95-.08c.24,0,.25-.13.36-.34l.34-.64c.93-1.72,1.9-3.4,2.88-5.09.68-1.17,1.37-2.33,2-3.51.35,2.18.67,4.37,1,6.55l.39,2.5a3.65,3.65,0,0,0,.38,1.11c.11.21.34.73.59.79,2.74.62,5.5,1.22,8.2,2l-.8.32Z" fill="#232020"/><path d="M185.16,93.24c-1.24-3.5-4.74-13.62-4.8-14.37,4.18,2.53,11.1,6.88,15.27,9.41,5.65-2.63,12-5,15.58-6.69-.65,1.35-5.72,11.38-7.54,14.94,1.39,1.56,9.28,10.31,10.58,13-1.18-.12-11.06-2.72-15.32-3.77-1.53,3.09-6.79,14.86-7.78,16.55-.22-.58-1-15.63-1.3-18.92-3.58-.27-15.3-.71-21.18-1.32C172.65,100,180.78,95.45,185.16,93.24Z" fill="#ffe757"/><path d="M214.59,109.86a3.1,3.1,0,0,0,0-1.81,14.07,14.07,0,0,0-1.41-2.19c-.75-1-1.54-2-2.34-3-1.66-2-3.38-4-5.11-6l-1-1.15q2.79-5.48,5.54-11c.34-.68.69-1.36,1-2a5.08,5.08,0,0,0,.39-1.93c0-.19,0-1-.31-.81-4.34,2-8.83,3.67-13.2,5.61l-1.74.78c-.29.14-.45.26-.75.12a6,6,0,0,1-.69-.42l-2.58-1.58L186.67,81q-3-1.87-6-3.72c-.21-.13-.51.9-.51.93A4.79,4.79,0,0,0,179.9,80a7.93,7.93,0,0,0,.39,1.58c.29.94.61,1.89.92,2.83q1.18,3.56,2.43,7.1c.1.31.21.62.32.93-4,2.07-8,4.28-12,6.45l-3.16,1.72c-.43.23-1,3.1-.43,3.16,5.9.61,11.84.8,17.76,1.12l3.27.19c.48,5.42.65,10.87,1,16.29a10.6,10.6,0,0,0,.24,2.39c.09.25.23.35.39.06,1-1.78,1.84-3.73,2.71-5.6,1.24-2.67,2.46-5.35,3.69-8,.42-.9.85-1.81,1.28-2.7,4.43,1.09,8.83,2.28,13.27,3.33a15.58,15.58,0,0,0,1.92.4C214.35,111.22,214.55,110.05,214.59,109.86Zm-11.88-4.77-3.5-.88c-.16,0-.32.37-.35.43-2.31,4.64-4.35,9.42-6.57,14.11l-.7,1.45a.79.79,0,0,0-.08.16l-.09-1c-.09-1.29-.18-2.59-.26-3.88-.2-3.18-.38-6.36-.59-9.54-.08-1.2-.15-2.4-.26-3.6,0-.06,0-.51-.19-.52-5.49-.41-11-.56-16.5-.94,2.67-1.46,5.33-2.92,8-4.34,1.12-.6,2.24-1.18,3.37-1.76.17-.08.31-.56.35-.69a4.17,4.17,0,0,0,.25-2.18,1.89,1.89,0,0,0-.06-.18c-1.19-3.35-2.36-6.7-3.47-10.07,3.09,1.89,6.16,3.81,9.25,5.72L194,89l1.18.72c.28.17.39.06.69-.08l.91-.41c2.47-1.12,5-2.16,7.47-3.2,1.74-.72,3.49-1.42,5.21-2.18-1.36,2.72-2.76,5.43-4.13,8.14l-1.58,3.09a4.73,4.73,0,0,0-.45,1.57c0,.31-.2,1.1.05,1.37,2.68,3,5.4,6,7.89,9.21l-1.19-.32C207.57,106.34,205.14,105.71,202.71,105.09Z" fill="#232020"/><path d="M86.52,109.23C89,104.92,96,92.55,96.74,91.83c1.12,6.4,2.81,17.16,3.93,23.56,7.59,3.36,15.55,7.64,20.35,9.78-1.92.52-16.43,4.22-21.59,5.51-.35,2.76-2.22,18.35-3.83,22-.91-1.29-6.95-13.48-9.63-18.66-4.44,1.16-20.86,6.19-23.41,6.68.38-.72,14.8-14.68,17.83-17.87-2.86-3.83-12.68-16-17.22-22.41C68.8,102.59,80.47,106.77,86.52,109.23Z" fill="#ffe757"/><path d="M95.62,153.3a4.23,4.23,0,0,0,1.84-1.55,19.29,19.29,0,0,0,1-3.34c.37-1.64.66-3.29.94-4.95.58-3.44,1.05-6.89,1.5-10.34.09-.68.17-1.36.26-2q7.94-2,15.85-4l3-.77a6.52,6.52,0,0,0,2.27-1.3c.2-.16,1-.81.55-1-5.81-2.6-11.42-5.64-17.19-8.33l-2.31-1.06c-.39-.17-.65-.23-.77-.65a9.4,9.4,0,0,1-.19-1.06c-.22-1.33-.45-2.65-.66-4-.5-3-1-5.92-1.47-8.88-.5-3.11-1-6.21-1.55-9.31-.06-.33-1.35.28-1.38.29a6.73,6.73,0,0,0-2,1.33A10.41,10.41,0,0,0,94,94.09c-.69,1.12-1.36,2.26-2,3.4q-2.53,4.31-5,8.66c-.22.37-.43.75-.64,1.13-5.61-2.23-11.3-4.27-17-6.36l-4.49-1.66c-.61-.24-4,1.73-3.55,2.33,4.56,6.45,9.56,12.59,14.43,18.8.9,1.15,1.79,2.29,2.67,3.45C73.41,129.07,68.1,134,63,139.16a13.73,13.73,0,0,0-2.18,2.33c-.18.31-.16.53.27.45,2.7-.53,5.36-1.43,8-2.2,3.76-1.09,7.51-2.21,11.28-3.31,1.27-.37,2.55-.74,3.83-1.08,2.78,5.39,5.44,10.86,8.28,16.23a20.21,20.21,0,0,0,1.27,2.27C94.05,154.26,95.4,153.43,95.62,153.3ZM90,137.22q-1.08-2.15-2.18-4.29c-.1-.19-.65,0-.73,0-6.69,1.75-13.27,3.9-19.92,5.77l-2.07.57-.23.05.91-.93c1.21-1.23,2.44-2.45,3.67-3.67,3-3,6-6,9-9,1.14-1.12,2.28-2.25,3.38-3.41.06-.06.49-.47.36-.64-4.4-5.87-9.07-11.53-13.51-17.37,3.8,1.39,7.6,2.78,11.37,4.23q2.37.9,4.71,1.84c.24.1.83-.18,1-.26a5.51,5.51,0,0,0,2.4-1.66,1.35,1.35,0,0,0,.13-.21c2.32-4.12,4.65-8.24,7.07-12.31.8,4.76,1.57,9.53,2.35,14.29.23,1.36.45,2.72.68,4.08.11.6.21,1.21.32,1.81.07.44.27.45.68.64l1.21.54c3.28,1.5,6.52,3.09,9.75,4.7,2.24,1.11,4.48,2.24,6.74,3.32-3.92,1-7.85,2-11.78,3l-4.48,1.12a6.33,6.33,0,0,0-2,.92c-.35.23-1.27.76-1.34,1.25-.68,5.33-1.31,10.7-2.31,16-.25-.49-.49-1-.74-1.48C93,143.18,91.51,140.2,90,137.22Z" fill="#232020"/><path d="M239.94,160.68c1.84-3.23,7.2-12.5,7.73-13,.82,4.81,2.06,12.89,2.88,17.7,5.69,2.55,11.65,5.79,15.25,7.41-1.45.39-12.35,3.12-16.23,4.07-.28,2.07-1.73,13.77-2.95,16.54-.68-1-5.18-10.15-7.17-14.05-3.34.86-15.68,4.59-17.61,4.94.3-.54,11.17-11,13.45-13.36-2.13-2.88-9.46-12-12.85-16.88C226.65,155.63,235.4,158.81,239.94,160.68Z" fill="#ffe757"/><path d="M246.63,193.81a3.17,3.17,0,0,0,1.39-1.16,15.38,15.38,0,0,0,.73-2.51c.27-1.23.5-2.47.72-3.71.44-2.58.81-5.17,1.16-7.77.06-.5.13-1,.2-1.52q6-1.47,11.91-3l2.22-.57a4.86,4.86,0,0,0,1.71-1c.15-.12.77-.6.41-.76-4.35-2-8.55-4.28-12.88-6.31-.57-.28-1.15-.54-1.73-.81-.29-.13-.49-.17-.58-.48a7.19,7.19,0,0,1-.13-.81c-.17-1-.33-2-.49-3-.36-2.22-.71-4.45-1.07-6.67s-.74-4.67-1.14-7c0-.24-1,.21-1,.22a5.12,5.12,0,0,0-1.48,1,7.22,7.22,0,0,0-.93,1.33c-.53.84-1,1.69-1.54,2.54-1.28,2.15-2.54,4.32-3.79,6.49-.16.28-.32.56-.49.84-4.2-1.69-8.47-3.24-12.71-4.82l-3.37-1.27c-.46-.18-3,1.29-2.67,1.74,3.4,4.86,7.14,9.48,10.78,14.17.66.86,1.33,1.72,2,2.59-3.79,3.91-7.79,7.61-11.63,11.46a10.44,10.44,0,0,0-1.65,1.74c-.13.23-.11.4.21.34,2-.39,4-1,6-1.62l8.48-2.45c1-.28,1.92-.55,2.88-.8,2.07,4.06,4,8.17,6.16,12.21a15.84,15.84,0,0,0,.95,1.71C245.45,194.52,246.47,193.9,246.63,193.81Zm-4.16-12.1-1.63-3.23c-.08-.14-.49,0-.55,0-5,1.3-10,2.89-15,4.27-.52.14-1,.29-1.56.42l-.17,0,.68-.7,2.77-2.74c2.27-2.23,4.56-4.45,6.82-6.69.86-.84,1.72-1.68,2.56-2.55,0,0,.36-.35.26-.48-3.28-4.42-6.77-8.69-10.08-13.09,2.85,1.06,5.69,2.12,8.53,3.21,1.18.46,2.35.92,3.52,1.4.18.08.63-.13.76-.19a4.06,4.06,0,0,0,1.81-1.24.47.47,0,0,0,.1-.16c1.75-3.08,3.52-6.17,5.34-9.21.59,3.57,1.15,7.16,1.73,10.74.16,1,.33,2,.5,3.06.07.45.15.91.22,1.36s.21.34.51.48l.92.41c2.45,1.14,4.88,2.35,7.3,3.56,1.68.84,3.36,1.7,5.05,2.51-2.95.75-5.9,1.47-8.86,2.2l-3.36.83a4.55,4.55,0,0,0-1.48.69c-.27.17-1,.56-1,.93-.53,4-1,8-1.8,12l-.54-1.12C244.71,186.2,243.59,184,242.47,181.71Z" fill="#232020"/><path d="M283.78,264.36c-.26-6.18-.88-24-.6-25.2,5.47,5.82,14.47,15.72,19.94,21.55,10.4-1.9,21.82-3.12,28.41-4.31-1.71,1.91-14.86,16-19.56,21,1.46,3.1,9.84,20.52,10.57,25.47-1.85-.68-16.47-9-22.81-12.45-4,4.33-18.32,21.15-20.75,23.45-.06-1,6.15-25.62,7.28-31.06-5.63-1.93-24.28-7.53-33.46-11C260.27,270,275.62,266.09,283.78,264.36Z" fill="#ffe757"/><path d="M323,303.42a5.36,5.36,0,0,0,.93-2.9,22.69,22.69,0,0,0-1.19-4.13c-.7-1.95-1.48-3.87-2.29-5.77-1.67-4-3.46-7.86-5.28-11.74-.35-.76-.71-1.52-1.07-2.28q7.2-7.67,14.37-15.38c.89-1,1.78-1.91,2.65-2.88a8.67,8.67,0,0,0,1.59-3c.1-.29.55-1.54-.09-1.43-8,1.43-16.05,2.25-24.06,3.55l-3.19.55c-.53.09-.85.22-1.26-.12a12.13,12.13,0,0,1-.91-1q-1.69-1.8-3.36-3.62-3.75-4.07-7.49-8.14c-2.62-2.84-5.24-5.69-7.88-8.5-.29-.31-1.27,1.23-1.29,1.27a8.88,8.88,0,0,0-1.23,2.76,13.6,13.6,0,0,0-.15,2.7c0,1.65,0,3.3.08,5,.09,4.16.23,8.32.38,12.48l.06,1.62c-7.52,1.67-15,3.59-22.49,5.44-2,.49-4,1-5.94,1.45-.82.19-3.13,4.6-2.27,4.92,9.2,3.44,18.68,6.23,28.07,9.21,1.72.54,3.45,1.09,5.16,1.67-1.91,8.94-4.34,17.8-6.39,26.72a17.6,17.6,0,0,0-.79,4c0,.43.19.65.59.26,2.56-2.45,4.82-5.26,7.15-7.92,3.32-3.79,6.61-7.61,9.93-11.39,1.13-1.29,2.25-2.57,3.4-3.83,6.6,3.6,13.1,7.36,19.73,10.9a25.78,25.78,0,0,0,2.88,1.44C321.89,305.52,322.79,303.71,323,303.42Zm-16.77-12.63c-1.74-1-3.47-1.93-5.21-2.88-.24-.13-.7.45-.78.53-6,6.54-11.67,13.41-17.59,20-.61.69-1.22,1.38-1.85,2l-.21.23c.12-.54.23-1.08.36-1.61.48-2.13,1-4.26,1.5-6.39,1.26-5.21,2.54-10.42,3.78-15.63.47-2,.95-3.94,1.37-5.92,0-.1.2-.83-.05-.91-8.64-2.95-17.44-5.49-26.11-8.39,5-1.24,10-2.49,15.06-3.67q3.14-.75,6.29-1.43c.32-.07.78-.78.92-1a7.29,7.29,0,0,0,1.48-3.42,1,1,0,0,0,0-.3c-.25-5.9-.48-11.8-.59-17.71,4,4.35,8,8.73,12.06,13.09,1.15,1.24,2.29,2.49,3.45,3.72.51.56,1,1.11,1.54,1.66.38.4.59.27,1.16.17l1.67-.29c4.53-.78,9.07-1.42,13.62-2.05,3.15-.44,6.32-.85,9.47-1.34-3.54,3.82-7.13,7.6-10.7,11.41l-4.07,4.33a8.33,8.33,0,0,0-1.51,2.33c-.22.5-.86,1.69-.6,2.25,2.82,6,5.71,12,8.15,18.14-.59-.35-1.18-.69-1.77-1C313.39,294.82,309.79,292.8,306.18,290.79Z" fill="#232020"/><path d="M233,310.71c2-3.14,7.81-12.12,8.37-12.63.58,4.84,1.41,13,2,17.83,5.55,2.82,11.35,6.35,14.86,8.15-1.46.32-12.49,2.5-16.41,3.26-.38,2.05-2.41,13.67-3.76,16.37-.64-1-4.67-10.39-6.47-14.38-3.37.69-15.89,3.8-17.83,4.06.32-.53,11.7-10.41,14.1-12.68-2-3-8.86-12.49-12-17.5C220,305,228.54,308.62,233,310.71Z" fill="#ffe757"/><path d="M238,344.13a3.11,3.11,0,0,0,1.43-1.09,13.38,13.38,0,0,0,.86-2.47c.34-1.21.63-2.44.9-3.67.57-2.55,1.07-5.12,1.55-7.7l.27-1.51q6-1.17,12.05-2.38l2.24-.46a4.94,4.94,0,0,0,1.76-.88c.15-.12.79-.57.45-.74-4.25-2.19-8.33-4.7-12.55-7-.56-.3-1.12-.6-1.69-.89-.28-.14-.48-.2-.55-.51a7.46,7.46,0,0,1-.1-.81c-.11-1-.23-2-.34-3-.24-2.24-.49-4.48-.73-6.72s-.51-4.7-.79-7c0-.26-1,.15-1.05.16a5,5,0,0,0-1.52.91,8.17,8.17,0,0,0-1,1.28c-.57.82-1.12,1.64-1.66,2.47-1.39,2.08-2.75,4.18-4.11,6.29l-.53.82c-4.11-1.9-8.3-3.66-12.46-5.45-1.1-.48-2.2-1-3.29-1.44-.45-.19-3.06,1.14-2.76,1.61,3.15,5,6.66,9.83,10.06,14.69.62.89,1.25,1.78,1.86,2.69-4,3.71-8.16,7.21-12.19,10.86a10.41,10.41,0,0,0-1.72,1.66c-.15.22-.14.39.18.35,2-.29,4.08-.86,6.09-1.32l8.59-2,2.91-.66c1.88,4.16,3.64,8.37,5.55,12.51a15.83,15.83,0,0,0,.87,1.75C236.8,344.78,237.84,344.22,238,344.13Zm-3.57-12.29c-.48-1.1-1-2.21-1.46-3.3-.07-.15-.48,0-.55,0-5.08,1-10.1,2.39-15.16,3.52l-1.58.34-.18,0,.72-.67,2.9-2.6c2.38-2.12,4.78-4.22,7.15-6.34.9-.8,1.8-1.6,2.68-2.43,0,0,.38-.33.29-.46-3.06-4.58-6.33-9-9.42-13.58,2.79,1.2,5.58,2.4,8.35,3.63,1.16.52,2.31,1,3.46,1.58.17.08.63-.1.77-.15a4.15,4.15,0,0,0,1.86-1.15.66.66,0,0,0,.11-.16c1.9-3,3.82-6,5.79-8.94.42,3.61.8,7.21,1.19,10.81.12,1,.23,2.06.35,3.09.05.45.11.91.16,1.37s.18.35.48.5l.89.46c2.4,1.26,4.76,2.58,7.12,3.92,1.64.92,3.27,1.86,4.92,2.76-3,.6-6,1.17-8.95,1.76l-3.41.66a4.61,4.61,0,0,0-1.51.61c-.27.16-1,.51-1.06.88-.72,4-1.41,8-2.38,11.89-.16-.38-.32-.76-.49-1.14C236.47,336.43,235.47,334.14,234.45,331.84Z" fill="#232020"/><path d="M159.62,242.86c4.9-.75,19-2.79,20-2.67C175.27,245,167.84,253,163.49,257.8c2,8.05,3.56,16.95,4.83,22.05-1.6-1.19-13.45-10.34-17.64-13.61-2.39,1.42-15.82,9.55-19.72,10.56.45-1.52,6.34-13.78,8.77-19.08C136.08,254.93,122,245.1,120,243.39c.81-.14,20.69,2.61,25.07,3,1.25-4.61,4.77-19.82,7-27.36C153.94,224.8,157.84,236.57,159.62,242.86Z" fill="#ffe757"/><path d="M130.51,277.17a4.09,4.09,0,0,0,2.36.49,19.43,19.43,0,0,0,3.21-1.3c1.52-.73,3-1.51,4.48-2.31,3.06-1.67,6.08-3.42,9.08-5.19l1.75-1.05q6.47,5,13,10l2.42,1.85a6.82,6.82,0,0,0,2.43,1c.24.05,1.26.3,1.13-.2-1.53-6.18-2.58-12.47-4-18.67-.19-.83-.39-1.65-.59-2.48-.1-.4-.22-.65,0-1s.5-.54.73-.8c.9-1,1.81-2,2.72-3l6.09-6.62c2.13-2.32,4.27-4.63,6.38-7,.22-.25-1-.89-1.09-.91a6.61,6.61,0,0,0-2.25-.73,10.35,10.35,0,0,0-2.15.12c-1.32.15-2.62.32-3.93.49-3.31.44-6.61.91-9.91,1.39l-1.29.19c-1.7-5.79-3.59-11.53-5.44-17.27-.48-1.52-1-3-1.44-4.57-.2-.62-3.82-2.06-4-1.36-2.28,7.57-4,15.29-5.92,23-.35,1.4-.7,2.81-1.08,4.22-7.2-.73-14.37-1.87-21.56-2.71a13.16,13.16,0,0,0-3.18-.28c-.35,0-.51.2-.19.49,2.08,1.8,4.43,3.34,6.66,4.94l9.55,6.85c1.08.78,2.15,1.55,3.22,2.35-2.54,5.52-5.21,11-7.69,16.52a23,23,0,0,0-1,2.4C128.79,276.52,130.27,277.08,130.51,277.17Zm9.21-14.33q1-2.18,2-4.37c.09-.2-.39-.51-.46-.56-5.5-4.19-11.24-8.05-16.81-12.13-.58-.43-1.15-.85-1.72-1.29l-.19-.14,1.29.14c1.72.19,3.44.41,5.16.63,4.2.53,8.41,1.09,12.62,1.62,1.59.2,3.18.41,4.77.56.08,0,.67.09.72-.12,1.92-7.08,3.5-14.24,5.37-21.33,1.24,3.85,2.48,7.69,3.67,11.56.5,1.61,1,3.22,1.45,4.84.07.25.66.55.82.64a5.69,5.69,0,0,0,2.8.87.61.61,0,0,0,.24,0c4.67-.71,9.35-1.4,14-2-3.25,3.56-6.53,7.1-9.8,10.66l-2.79,3-1.24,1.36c-.3.33-.19.49-.08.93s.22.86.32,1.3c.84,3.5,1.58,7,2.31,10.56.5,2.46,1,4.92,1.53,7.36-3.21-2.46-6.4-5-9.6-7.45l-3.65-2.83a6.2,6.2,0,0,0-1.93-1c-.4-.13-1.39-.53-1.81-.28-4.62,2.75-9.24,5.55-14,8l.71-1.49Q137.58,267.37,139.72,262.84Z" fill="#232020"/><path d="M81.79,184.55c1.81-3.25,7.07-12.57,7.6-13.11.87,4.81,2.19,12.88,3,17.68,5.72,2.49,11.71,5.67,15.33,7.25-1.44.41-12.32,3.25-16.19,4.23-.26,2.08-1.59,13.79-2.78,16.57-.7-1-5.28-10.09-7.32-14-3.32.89-15.63,4.74-17.55,5.12.29-.55,11.05-11.09,13.32-13.5-2.17-2.86-9.59-11.94-13-16.75C68.45,179.64,77.24,182.73,81.79,184.55Z" fill="#ffe757"/><path d="M88.81,217.61a3.07,3.07,0,0,0,1.37-1.17,13.79,13.79,0,0,0,.71-2.51c.26-1.24.48-2.48.68-3.73.42-2.58.76-5.17,1.08-7.77.07-.51.13-1,.19-1.53q5.94-1.53,11.89-3.1c.73-.19,1.47-.38,2.2-.59a5,5,0,0,0,1.71-1c.14-.12.76-.61.4-.77-4.37-1.92-8.6-4.19-12.94-6.18l-1.74-.79c-.29-.13-.49-.17-.58-.48a5.35,5.35,0,0,1-.14-.8c-.18-1-.35-2-.52-3L92,177.57q-.58-3.49-1.21-7c0-.25-1,.21-1,.22a5.1,5.1,0,0,0-1.47,1,8.16,8.16,0,0,0-.92,1.34c-.51.85-1,1.7-1.51,2.56-1.26,2.17-2.49,4.34-3.72,6.52l-.48.86c-4.22-1.65-8.5-3.16-12.76-4.7l-3.38-1.24c-.46-.17-3,1.32-2.66,1.77,3.45,4.83,7.24,9.41,10.92,14.06q1,1.28,2,2.58c-3.74,3.94-7.71,7.68-11.51,11.57a10.08,10.08,0,0,0-1.63,1.76c-.13.23-.11.39.21.33,2-.4,4-1.09,6-1.68,2.82-.84,5.63-1.7,8.45-2.53,1-.29,1.91-.57,2.87-.83,2.12,4,4.14,8.13,6.29,12.15a14.32,14.32,0,0,0,1,1.7C87.63,218.34,88.64,217.71,88.81,217.61Zm-4.29-12.05c-.55-1.08-1.1-2.15-1.66-3.21-.07-.15-.48,0-.54,0-5,1.35-9.95,3-14.93,4.42l-1.56.43-.17,0c.23-.24.45-.48.68-.71.91-.93,1.82-1.85,2.74-2.77L75.84,197c.85-.86,1.7-1.71,2.53-2.58,0,0,.35-.36.26-.49-3.33-4.39-6.86-8.62-10.21-13,2.85,1,5.71,2.06,8.55,3.12,1.19.45,2.37.9,3.54,1.37.18.07.63-.14.76-.2a4.13,4.13,0,0,0,1.8-1.26.89.89,0,0,0,.09-.16c1.72-3.1,3.46-6.2,5.26-9.27.62,3.57,1.22,7.15,1.83,10.72.17,1,.35,2,.53,3.06l.24,1.36c.06.33.2.34.51.47l.92.41c2.47,1.11,4.9,2.29,7.33,3.48,1.69.83,3.38,1.67,5.08,2.47-2.94.78-5.89,1.52-8.83,2.28l-3.36.87a5,5,0,0,0-1.47.69c-.27.18-1,.58-1,1-.49,4-.94,8-1.67,12-.18-.38-.37-.75-.56-1.11Z" fill="#232020"/><path d="M255.32,214.67c-1.88-1.83-7.26-7.12-7.54-7.59,3.39.2,9,.63,12.43.82,2.65-3.62,5.82-7.32,7.5-9.61,0,1.08.09,9.26.09,12.16,1.35.53,9,3.45,10.69,4.76-.77.33-7.7,2-10.66,2.82,0,2.51.52,11.86.45,13.28-.32-.29-5.59-9.69-6.82-11.69-2.3,1-9.68,4.77-13.51,6.39C249.73,223.28,253.31,217.59,255.32,214.67Z" fill="#ffe757"/><path d="M278.78,215.28a2.32,2.32,0,0,0-.55-1.17,10,10,0,0,0-1.58-.92c-.78-.4-1.58-.76-2.39-1.11-1.67-.74-3.35-1.42-5.05-2.08l-1-.39c0-3,0-6-.07-8.93,0-.56,0-1.11,0-1.66a3.68,3.68,0,0,0-.37-1.38c-.06-.12-.28-.63-.45-.41-2,2.77-4.29,5.38-6.37,8.11l-.83,1.1c-.13.18-.19.32-.42.33a5.25,5.25,0,0,1-.56,0l-2.1-.14-4.68-.32-4.91-.32c-.17,0,0,.75,0,.77a3.86,3.86,0,0,0,.42,1.21,5.21,5.21,0,0,0,.75.87c.48.51,1,1,1.46,1.5,1.25,1.26,2.5,2.5,3.76,3.74l.49.48c-1.83,2.71-3.57,5.48-5.34,8.24-.46.73-.93,1.45-1.4,2.18-.2.3.37,2.33.73,2.18,3.84-1.63,7.58-3.54,11.33-5.36l2.08-1c2,3.31,3.86,6.75,5.83,10.1a8,8,0,0,0,.91,1.45c.13.13.25.14.26-.09.08-1.51-.05-3-.11-4.53-.08-2.14-.18-4.27-.26-6.41,0-.72-.06-1.45-.07-2.17,3.08-.82,6.18-1.55,9.26-2.4a10.38,10.38,0,0,0,1.31-.4C279.07,216.23,278.82,215.41,278.78,215.28Zm-8.85,1c-.81.21-1.63.41-2.44.63-.12,0-.09.34-.09.39.05,3.77.32,7.54.43,11.31l0,1.17v.13l-.36-.6-1.4-2.41c-1.13-2-2.26-4-3.4-5.92-.43-.74-.85-1.49-1.3-2.22,0,0-.18-.31-.28-.26-3.53,1.61-7,3.39-10.49,5,1.18-1.85,2.36-3.69,3.56-5.53.5-.76,1-1.52,1.53-2.27a1.22,1.22,0,0,0,0-.57,3.09,3.09,0,0,0-.54-1.48.45.45,0,0,0-.09-.1c-1.8-1.74-3.59-3.49-5.35-5.28l7.54.51,2.14.15,1,0c.23,0,.26-.08.41-.28s.28-.39.43-.58c1.17-1.56,2.38-3.08,3.6-4.6.84-1.06,1.7-2.11,2.52-3.18,0,2.21,0,4.42,0,6.64,0,.84,0,1.68,0,2.52a3.55,3.55,0,0,0,.21,1.16c.08.22.23.77.47.87,2.62,1,5.25,2,7.81,3.2L275,215Z" fill="#232020"/><path d="M233,310.71c2-3.14,7.81-12.12,8.37-12.63.58,4.84,1.41,13,2,17.83,5.55,2.82,11.35,6.35,14.86,8.15-1.46.32-12.49,2.5-16.41,3.26-.38,2.05-2.41,13.67-3.76,16.37-.64-1-4.67-10.39-6.47-14.38-3.37.69-15.89,3.8-17.83,4.06.32-.53,11.7-10.41,14.1-12.68-2-3-8.86-12.49-12-17.5C220,305,228.54,308.62,233,310.71Z" fill="#ffe757"/><path d="M238,344.13a3.11,3.11,0,0,0,1.43-1.09,13.38,13.38,0,0,0,.86-2.47c.34-1.21.63-2.44.9-3.67.57-2.55,1.07-5.12,1.55-7.7l.27-1.51q6-1.17,12.05-2.38l2.24-.46a4.94,4.94,0,0,0,1.76-.88c.15-.12.79-.57.45-.74-4.25-2.19-8.33-4.7-12.55-7-.56-.3-1.12-.6-1.69-.89-.28-.14-.48-.2-.55-.51a7.46,7.46,0,0,1-.1-.81c-.11-1-.23-2-.34-3-.24-2.24-.49-4.48-.73-6.72s-.51-4.7-.79-7c0-.26-1,.15-1.05.16a5,5,0,0,0-1.52.91,8.17,8.17,0,0,0-1,1.28c-.57.82-1.12,1.64-1.66,2.47-1.39,2.08-2.75,4.18-4.11,6.29l-.53.82c-4.11-1.9-8.3-3.66-12.46-5.45-1.1-.48-2.2-1-3.29-1.44-.45-.19-3.06,1.14-2.76,1.61,3.15,5,6.66,9.83,10.06,14.69.62.89,1.25,1.78,1.86,2.69-4,3.71-8.16,7.21-12.19,10.86a10.41,10.41,0,0,0-1.72,1.66c-.15.22-.14.39.18.35,2-.29,4.08-.86,6.09-1.32l8.59-2,2.91-.66c1.88,4.16,3.64,8.37,5.55,12.51a15.83,15.83,0,0,0,.87,1.75C236.8,344.78,237.84,344.22,238,344.13Zm-3.57-12.29c-.48-1.1-1-2.21-1.46-3.3-.07-.15-.48,0-.55,0-5.08,1-10.1,2.39-15.16,3.52l-1.58.34-.18,0,.72-.67,2.9-2.6c2.38-2.12,4.78-4.22,7.15-6.34.9-.8,1.8-1.6,2.68-2.43,0,0,.38-.33.29-.46-3.06-4.58-6.33-9-9.42-13.58,2.79,1.2,5.58,2.4,8.35,3.63,1.16.52,2.31,1,3.46,1.58.17.08.63-.1.77-.15a4.15,4.15,0,0,0,1.86-1.15.66.66,0,0,0,.11-.16c1.9-3,3.82-6,5.79-8.94.42,3.61.8,7.21,1.19,10.81.12,1,.23,2.06.35,3.09.05.45.11.91.16,1.37s.18.35.48.5l.89.46c2.4,1.26,4.76,2.58,7.12,3.92,1.64.92,3.27,1.86,4.92,2.76-3,.6-6,1.17-8.95,1.76l-3.41.66a4.61,4.61,0,0,0-1.51.61c-.27.16-1,.51-1.06.88-.72,4-1.41,8-2.38,11.89-.16-.38-.32-.76-.49-1.14C236.47,336.43,235.47,334.14,234.45,331.84Z" fill="#232020"/><path d="M159.62,242.86c4.9-.75,19-2.79,20-2.67C175.27,245,167.84,253,163.49,257.8c2,8.05,3.56,16.95,4.83,22.05-1.6-1.19-13.45-10.34-17.64-13.61-2.39,1.42-15.82,9.55-19.72,10.56.45-1.52,6.34-13.78,8.77-19.08C136.08,254.93,122,245.1,120,243.39c.81-.14,20.69,2.61,25.07,3,1.25-4.61,4.77-19.82,7-27.36C153.94,224.8,157.84,236.57,159.62,242.86Z" fill="#ffe757"/><path d="M130.51,277.17a4.09,4.09,0,0,0,2.36.49,19.43,19.43,0,0,0,3.21-1.3c1.52-.73,3-1.51,4.48-2.31,3.06-1.67,6.08-3.42,9.08-5.19l1.75-1.05q6.47,5,13,10l2.42,1.85a6.82,6.82,0,0,0,2.43,1c.24.05,1.26.3,1.13-.2-1.53-6.18-2.58-12.47-4-18.67-.19-.83-.39-1.65-.59-2.48-.1-.4-.22-.65,0-1s.5-.54.73-.8c.9-1,1.81-2,2.72-3l6.09-6.62c2.13-2.32,4.27-4.63,6.38-7,.22-.25-1-.89-1.09-.91a6.61,6.61,0,0,0-2.25-.73,10.35,10.35,0,0,0-2.15.12c-1.32.15-2.62.32-3.93.49-3.31.44-6.61.91-9.91,1.39l-1.29.19c-1.7-5.79-3.59-11.53-5.44-17.27-.48-1.52-1-3-1.44-4.57-.2-.62-3.82-2.06-4-1.36-2.28,7.57-4,15.29-5.92,23-.35,1.4-.7,2.81-1.08,4.22-7.2-.73-14.37-1.87-21.56-2.71a13.16,13.16,0,0,0-3.18-.28c-.35,0-.51.2-.19.49,2.08,1.8,4.43,3.34,6.66,4.94l9.55,6.85c1.08.78,2.15,1.55,3.22,2.35-2.54,5.52-5.21,11-7.69,16.52a23,23,0,0,0-1,2.4C128.79,276.52,130.27,277.08,130.51,277.17Zm9.21-14.33q1-2.18,2-4.37c.09-.2-.39-.51-.46-.56-5.5-4.19-11.24-8.05-16.81-12.13-.58-.43-1.15-.85-1.72-1.29l-.19-.14,1.29.14c1.72.19,3.44.41,5.16.63,4.2.53,8.41,1.09,12.62,1.62,1.59.2,3.18.41,4.77.56.08,0,.67.09.72-.12,1.92-7.08,3.5-14.24,5.37-21.33,1.24,3.85,2.48,7.69,3.67,11.56.5,1.61,1,3.22,1.45,4.84.07.25.66.55.82.64a5.69,5.69,0,0,0,2.8.87.61.61,0,0,0,.24,0c4.67-.71,9.35-1.4,14-2-3.25,3.56-6.53,7.1-9.8,10.66l-2.79,3-1.24,1.36c-.3.33-.19.49-.08.93s.22.86.32,1.3c.84,3.5,1.58,7,2.31,10.56.5,2.46,1,4.92,1.53,7.36-3.21-2.46-6.4-5-9.6-7.45l-3.65-2.83a6.2,6.2,0,0,0-1.93-1c-.4-.13-1.39-.53-1.81-.28-4.62,2.75-9.24,5.55-14,8l.71-1.49Q137.58,267.37,139.72,262.84Z" fill="#232020"/><path d="M324.7,40.82c-.7-3.66-2.64-14.18-2.58-14.94,3.75,3.13,9.94,8.47,13.68,11.6,6-1.75,12.62-3.16,16.41-4.27-.85,1.24-7.36,10.39-9.7,13.63,1.14,1.76,7.63,11.6,8.5,14.5-1.15-.3-10.52-4.36-14.57-6-2,2.82-8.95,13.67-10.18,15.19-.13-.6,1.36-15.59,1.54-18.89-3.49-.81-15-3-20.73-4.49C311.32,45.61,320,42.34,324.7,40.82Z" fill="#ffe757"/><path d="M351.3,61.66a3.07,3.07,0,0,0,.3-1.78,14.09,14.09,0,0,0-1.07-2.38c-.59-1.11-1.22-2.21-1.87-3.29-1.33-2.25-2.73-4.46-4.15-6.66l-.84-1.29q3.58-5,7.12-10c.44-.62.89-1.24,1.32-1.87a4.91,4.91,0,0,0,.67-1.85c0-.19.19-1-.18-.85C348,33,343.32,34,338.71,35.26c-.62.16-1.23.33-1.84.51-.3.09-.49.19-.76,0a6.1,6.1,0,0,1-.62-.52l-2.31-2L328,28.92q-2.7-2.3-5.41-4.58c-.2-.16-.64.81-.65.84a4.86,4.86,0,0,0-.48,1.71,7.91,7.91,0,0,0,.15,1.61q.23,1.47.48,2.94c.43,2.47.88,4.93,1.33,7.39.06.32.13.64.18,1-4.29,1.45-8.54,3-12.8,4.59l-3.38,1.22c-.46.16-1.44,2.92-.9,3.06,5.74,1.49,11.59,2.57,17.39,3.77,1.07.23,2.14.45,3.2.69-.34,5.43-1,10.84-1.4,16.26a10.09,10.09,0,0,0-.12,2.39c.05.26.17.38.37.13,1.3-1.61,2.38-3.42,3.52-5.14,1.63-2.46,3.23-4.92,4.86-7.37.55-.83,1.1-1.66,1.67-2.48,4.21,1.74,8.39,3.58,12.62,5.29a17.52,17.52,0,0,0,1.83.68C350.86,63,351.24,61.84,351.3,61.66Zm-11-6.49-3.34-1.4c-.15-.06-.37.31-.4.37-3,4.24-5.71,8.67-8.62,13-.3.45-.6.89-.91,1.33l-.1.15.06-1c.1-1.29.21-2.59.33-3.88.27-3.17.57-6.34.84-9.52.11-1.2.22-2.4.29-3.6,0-.06,0-.5-.12-.54-5.36-1.23-10.79-2.2-16.16-3.4,2.85-1,5.7-2.09,8.57-3.09,1.19-.42,2.39-.84,3.59-1.23.18-.06.39-.51.45-.64a4,4,0,0,0,.57-2.12.48.48,0,0,0,0-.18c-.67-3.49-1.33-7-1.92-10.48,2.78,2.34,5.53,4.7,8.29,7L334,38l1,.89c.26.21.38.13.7,0l1-.27c2.6-.74,5.23-1.39,7.86-2,1.82-.45,3.66-.89,5.47-1.37-1.75,2.48-3.54,4.95-5.3,7.42l-2,2.82a4.55,4.55,0,0,0-.69,1.48c-.09.31-.36,1.06-.16,1.37,2.2,3.39,4.44,6.77,6.43,10.29l-1.14-.5C344.9,57.13,342.59,56.14,340.28,55.17Z" fill="#232020"/><path d="M413.63,55.1c.87-7.34,3.52-28.42,4.09-29.83,5.34,7.91,14.07,21.29,19.41,29.2,12.63-.26,26.32.48,34.32.33-2.39,1.92-20.56,16-27.05,21,1.13,3.93,7.7,26.06,7.62,32-2-1.15-17.71-13.74-24.52-19-5.55,4.35-25.63,21.45-28.93,23.71.11-1.21,12.12-29,14.49-35.24-6.27-3.35-27.2-13.49-37.37-19.28C384.84,57.32,403.68,55.59,413.63,55.1Z" fill="#ffe757"/><path d="M452.39,108.6c.67-.88,1.65-2.11,1.65-3.24a27.24,27.24,0,0,0-.62-5.09c-.46-2.43-1-4.84-1.6-7.25-1.22-5-2.58-9.92-4-14.84L447,75.29q10-7.68,19.87-15.41c1.23-1,2.47-1.91,3.68-2.89A10.52,10.52,0,0,0,473,53.81c.17-.33.94-1.72.16-1.71-9.69.17-19.36-.4-29-.38q-1.94,0-3.87,0c-.64,0-1.05.11-1.46-.38a13.25,13.25,0,0,1-.89-1.32q-1.65-2.44-3.28-4.91l-7.28-11c-2.55-3.85-5.09-7.7-7.67-11.53-.28-.41-1.73,1.22-1.77,1.26a10.49,10.49,0,0,0-2,3,15.5,15.5,0,0,0-.69,3.16c-.31,1.94-.58,3.89-.85,5.84-.68,4.93-1.31,9.86-1.93,14.79-.08.64-.15,1.29-.23,1.93-9.19.54-18.37,1.38-27.55,2.13-2.43.2-4.86.4-7.28.58-1,.08-4.57,4.83-3.61,5.37,10.2,5.81,20.84,10.9,31.34,16.2,1.93,1,3.86,1.94,5.77,2.95-4,10.18-8.5,20.17-12.61,30.3a20.26,20.26,0,0,0-1.69,4.5c-.06.52.1.81.65.43,3.48-2.4,6.68-5.29,9.93-8,4.63-3.84,9.24-7.71,13.88-11.55,1.57-1.3,3.14-2.6,4.74-3.87,7.09,5.5,14,11.18,21.19,16.61a30.12,30.12,0,0,0,3.12,2.25C450.74,110.88,452.15,108.92,452.39,108.6ZM435,90.52c-1.86-1.47-3.73-2.94-5.6-4.39-.26-.2-.91.4-1,.49-8.35,6.56-16.32,13.58-24.56,20.28-.85.69-1.7,1.39-2.57,2.07l-.29.22.72-1.83c1-2.42,2-4.83,3-7.24,2.47-5.91,5-11.8,7.43-17.72.93-2.23,1.87-4.46,2.73-6.72.05-.11.4-.93.12-1.08-9.63-5.12-19.53-9.79-29.19-14.85,6.15-.51,12.3-1,18.45-1.47,2.56-.19,5.13-.36,7.7-.49.38,0,1.06-.77,1.26-1,.86-.9,2.2-2.45,2.39-3.75a1,1,0,0,0,0-.36c.83-7,1.68-14,2.67-21,3.94,5.89,7.82,11.81,11.73,17.72l3.36,5,1.51,2.25c.36.54.64.43,1.33.42l2,0c5.48,0,11,.05,16.44.18,3.81.08,7.62.2,11.43.22-4.91,3.83-9.86,7.61-14.79,11.41q-2.81,2.17-5.62,4.34a10,10,0,0,0-2.22,2.46c-.36.55-1.35,1.83-1.15,2.53,2.19,7.6,4.47,15.21,6.17,22.95-.63-.52-1.26-1-1.9-1.53C442.75,96.64,438.89,93.57,435,90.52Z" fill="#232020"/><path d="M389.73,175.11c1.59-3.36,6.24-13,6.73-13.58,1.18,4.74,3,12.71,4.2,17.44,5.86,2.12,12,4.89,15.76,6.24-1.41.5-12.07,4-15.87,5.28-.12,2.08-.69,13.86-1.69,16.71-.76-.91-5.93-9.72-8.22-13.46-3.26,1.1-15.29,5.75-17.18,6.25.25-.56,10.31-11.79,12.41-14.34-2.35-2.71-10.35-11.28-14.09-15.86C376.1,171.08,385.07,173.59,389.73,175.11Z" fill="#ffe757"/><path d="M398.9,207.64c.45-.3,1.1-.72,1.29-1.26a14.83,14.83,0,0,0,.54-2.55c.19-1.25.32-2.51.44-3.76.25-2.61.42-5.22.57-7.83l.09-1.54q5.84-1.9,11.65-3.87l2.17-.73a5,5,0,0,0,1.64-1.1c.13-.12.71-.65.35-.79-4.49-1.63-8.86-3.61-13.32-5.32l-1.79-.67c-.29-.11-.5-.14-.61-.44s-.13-.54-.2-.79c-.24-1-.47-2-.71-2.94l-1.56-6.57c-.55-2.3-1.1-4.6-1.67-6.89-.06-.25-1,.28-1,.29a4.8,4.8,0,0,0-1.39,1.1,7.56,7.56,0,0,0-.84,1.39L393.19,166c-1.11,2.25-2.2,4.5-3.29,6.76l-.42.88c-4.32-1.37-8.69-2.59-13-3.86-1.15-.33-2.3-.66-3.45-1-.47-.14-2.89,1.51-2.54,1.94,3.76,4.59,7.84,8.92,11.82,13.32.73.81,1.46,1.61,2.18,2.44-3.48,4.18-7.19,8.16-10.73,12.29a10.76,10.76,0,0,0-1.51,1.87c-.12.23-.09.4.23.32,2-.54,3.94-1.36,5.87-2.07l8.27-3.08c.93-.35,1.87-.69,2.81-1,2.38,3.89,4.66,7.84,7.07,11.71a16.49,16.49,0,0,0,1.07,1.64C397.77,208.44,398.74,207.75,398.9,207.64Zm-5.07-11.75L392,192.8c-.09-.15-.49,0-.55,0-4.91,1.67-9.73,3.63-14.61,5.38l-1.52.54-.17,0,.63-.75,2.56-2.94c2.09-2.4,4.2-4.78,6.3-7.18.79-.91,1.59-1.81,2.35-2.74,0-.05.34-.38.23-.5-3.61-4.16-7.41-8.15-11-12.29,2.92.84,5.83,1.68,8.74,2.56,1.21.36,2.42.74,3.63,1.13.18.06.61-.18.74-.25a4.24,4.24,0,0,0,1.71-1.37.51.51,0,0,0,.08-.17c1.52-3.21,3.05-6.42,4.64-9.59.86,3.52,1.68,7.05,2.53,10.58.24,1,.48,2,.73,3q.15.68.33,1.35c.08.32.22.32.54.43l.94.35c2.54,1,5,2,7.55,3,1.74.72,3.47,1.45,5.23,2.13-2.89,1-5.78,1.91-8.67,2.86-1.1.36-2.19.73-3.29,1.08a4.88,4.88,0,0,0-1.43.79c-.25.2-.91.64-.94,1-.22,4-.41,8.09-.88,12.1-.21-.36-.41-.72-.63-1.07C396.4,200.2,395.12,198,393.83,195.89Z" fill="#232020"/><path d="M308.48,116.94c4.77-1.35,18.51-5.13,19.52-5.14-3.72,5.33-10.1,14.15-13.82,19.48,3,7.74,5.65,16.37,7.55,21.28-1.74-1-14.63-8.58-19.2-11.3-2.2,1.7-14.51,11.45-18.25,12.93.25-1.56,4.57-14.46,6.32-20-4-2.31-19.17-10.31-21.32-11.77.78-.24,20.85,0,25.25-.11.66-4.73,2.26-20.26,3.57-28C300.59,99.73,305.93,110.93,308.48,116.94Z" fill="#ffe757"/><path d="M283.88,154.62a4.12,4.12,0,0,0,2.4.19,18.73,18.73,0,0,0,3-1.69c1.41-.91,2.79-1.88,4.15-2.86,2.83-2,5.61-4.14,8.36-6.28l1.61-1.25q7,4.17,14.09,8.3c.88.51,1.75,1,2.64,1.53a6.52,6.52,0,0,0,2.53.68c.25,0,1.29.15,1.1-.33-2.29-5.94-4.12-12.06-6.32-18-.29-.8-.59-1.59-.89-2.38-.15-.39-.31-.62-.1-1a9,9,0,0,1,.63-.89c.77-1.1,1.54-2.19,2.32-3.28l5.22-7.33q2.75-3.84,5.45-7.7c.2-.28-1.14-.76-1.18-.77a6.59,6.59,0,0,0-2.32-.44,10.25,10.25,0,0,0-2.13.39c-1.28.3-2.56.64-3.84,1q-4.83,1.27-9.65,2.62l-1.26.35c-2.41-5.54-5-11-7.55-16.46l-2-4.35c-.27-.59-4-1.57-4.16-.85-1.31,7.79-2.09,15.67-3,23.52-.18,1.44-.34,2.88-.54,4.32-7.24.17-14.5-.06-21.74,0a13.6,13.6,0,0,0-3.19.12c-.34.09-.48.26-.12.51,2.29,1.53,4.81,2.76,7.22,4.08,3.44,1.87,6.9,3.72,10.33,5.6,1.17.63,2.33,1.27,3.49,1.93-1.83,5.79-3.8,11.54-5.57,17.35a22.11,22.11,0,0,0-.7,2.5C282.09,154.19,283.63,154.55,283.88,154.62Zm7.35-15.37c.5-1.53,1-3.05,1.47-4.58.07-.21-.45-.46-.53-.51-6-3.46-12.16-6.58-18.19-9.94l-1.87-1-.21-.12,1.31,0c1.73,0,3.46,0,5.19,0,4.24,0,8.48,0,12.72,0,1.6,0,3.21,0,4.81,0,.08,0,.67,0,.7-.21,1-7.26,1.69-14.57,2.66-21.84,1.71,3.67,3.43,7.33,5.09,11,.69,1.53,1.38,3.07,2,4.62.1.24.72.46.9.53a5.47,5.47,0,0,0,2.87.51.7.7,0,0,0,.24-.06c4.55-1.29,9.11-2.56,13.69-3.75-2.79,4-5.6,7.87-8.4,11.8L313.33,129c-.35.5-.7,1-1.06,1.51s-.12.51,0,.93l.48,1.25c1.27,3.37,2.44,6.78,3.6,10.19.81,2.37,1.6,4.75,2.45,7.11-3.5-2-7-4.13-10.46-6.19q-2-1.17-4-2.36a6.38,6.38,0,0,0-2-.73c-.42-.09-1.45-.36-1.84-.06-4.24,3.3-8.47,6.66-12.91,9.71.18-.53.36-1,.53-1.57C289.16,145.6,290.2,142.43,291.23,139.25Z" fill="#232020"/><path d="M30.54,461.16c-3.7.34-14.37,1.23-15.12,1.1,3.49-3.42,9.41-9.06,12.89-12.48-1.16-6.12-1.91-12.86-2.64-16.74,1.15,1,9.62,8.34,12.62,11,1.85-1,12.28-6.46,15.25-7-.4,1.12-5.36,10.05-7.42,13.92,2.61,2.24,12.72,10.24,14.11,11.62-.61.07-15.38-2.89-18.65-3.4-1.14,3.4-4.46,14.65-6.5,20.2C34,475,31.6,466,30.54,461.16Z" fill="#ffe757"/><path d="M53.9,436.73a3.2,3.2,0,0,0-1.75-.47,14.34,14.34,0,0,0-2.47.83c-1.17.48-2.32,1-3.46,1.54-2.37,1.11-4.7,2.28-7,3.48l-1.37.71q-4.6-4.05-9.25-8.08c-.58-.5-1.15-1-1.74-1.49a4.92,4.92,0,0,0-1.77-.85c-.18,0-.93-.28-.86.09.87,4.71,1.38,9.47,2.18,14.18l.33,1.88c.06.31.14.5-.07.76a7.67,7.67,0,0,1-.58.56L23.89,452,19,456.67c-1.7,1.64-3.41,3.28-5.09,4.93-.18.18.74.72.77.73a5,5,0,0,0,1.65.65A8.88,8.88,0,0,0,18,463l3-.2q3.75-.27,7.49-.6l1-.08c1,4.42,2.19,8.8,3.31,13.19.3,1.16.59,2.32.88,3.49.12.47,2.77,1.72,3,1.2,2-5.57,3.7-11.28,5.47-16.94q.48-1.57,1-3.12c5.37.87,10.69,2,16,3a10.16,10.16,0,0,0,2.38.36c.26,0,.39-.13.16-.36-1.48-1.45-3.17-2.71-4.77-4-2.28-1.86-4.58-3.7-6.86-5.56-.77-.63-1.54-1.26-2.3-1.9,2.14-4,4.39-8,6.5-12a16.83,16.83,0,0,0,.86-1.76C55.16,437.3,54.07,436.82,53.9,436.73Zm-7.55,10.34c-.57,1.05-1.15,2.11-1.72,3.18-.07.14.28.4.33.44,3.93,3.38,8.06,6.53,12.06,9.85.41.34.82.68,1.23,1l.13.11-1-.16c-1.28-.22-2.56-.46-3.83-.7-3.13-.59-6.26-1.2-9.39-1.78-1.19-.22-2.37-.45-3.56-.64-.06,0-.49-.09-.54.06-1.75,5.22-3.26,10.52-5,15.75-.76-2.94-1.52-5.88-2.24-8.83q-.45-1.84-.87-3.69c0-.19-.46-.44-.58-.52a4.25,4.25,0,0,0-2.06-.77.51.51,0,0,0-.18,0c-3.54.33-7.08.64-10.62.88,2.6-2.53,5.22-5,7.83-7.55l2.22-2.16,1-1c.24-.23.16-.36.1-.69l-.18-1c-.47-2.67-.87-5.35-1.25-8-.27-1.86-.52-3.73-.83-5.58,2.3,2,4.58,4,6.87,6l2.61,2.29a4.69,4.69,0,0,0,1.4.82c.3.12,1,.47,1.35.3,3.59-1.86,7.17-3.75,10.87-5.39-.21.36-.41.73-.61,1.08C48.75,442.66,47.55,444.86,46.35,447.07Z" fill="#232020"/><path d="M135.48,370.89c-2.62.19-10.15.65-10.69.54,2.41-2.38,6.51-6.31,8.92-8.7-.92-4.39-1.57-9.22-2.15-12,.83.71,6.95,6.12,9.11,8.06,1.3-.65,8.59-4.41,10.69-4.77-.27.79-3.63,7.09-5,9.81,1.89,1.65,9.18,7.54,10.19,8.54-.43,0-10.94-2.32-13.26-2.74C142.5,372,140.34,380,139,384,138.15,380.8,136.31,374.33,135.48,370.89Z" fill="#ffe757"/><path d="M151.6,353.84a2.25,2.25,0,0,0-1.24-.37,9.44,9.44,0,0,0-1.73.56c-.82.32-1.63.67-2.43,1-1.66.76-3.29,1.56-4.92,2.38l-.95.48q-3.35-3-6.69-5.92l-1.25-1.1a3.9,3.9,0,0,0-1.27-.64c-.13,0-.67-.21-.61.06.7,3.37,1.14,6.78,1.78,10.16.09.45.17.9.27,1.35,0,.22.1.36,0,.54s-.27.26-.4.39l-1.5,1.47-3.37,3.27c-1.18,1.14-2.35,2.28-3.52,3.44-.12.12.54.52.56.53a3.69,3.69,0,0,0,1.18.49,5.53,5.53,0,0,0,1.15,0q1,0,2.1-.09c1.76-.08,3.53-.19,5.29-.3l.68,0c.8,3.17,1.7,6.32,2.57,9.47l.68,2.51c.09.34,2,1.27,2.11.9,1.35-3.94,2.43-8,3.59-12,.21-.74.42-1.48.65-2.21,3.81.71,7.6,1.63,11.41,2.4a6.88,6.88,0,0,0,1.68.29c.19,0,.28-.08.11-.25-1.07-1.06-2.29-2-3.44-2.94l-5-4.09c-.56-.46-1.11-.92-1.66-1.4,1.45-2.83,3-5.63,4.4-8.49a10.78,10.78,0,0,0,.58-1.24C152.51,354.27,151.73,353.9,151.6,353.84Zm-5.17,7.25c-.39.75-.78,1.5-1.16,2.25-.05.1.2.29.24.32,2.84,2.48,5.82,4.8,8.7,7.23l.89.77.09.08-.68-.13-2.73-.57-6.67-1.42c-.84-.18-1.68-.36-2.53-.52,0,0-.35-.07-.38,0-1.16,3.7-2.14,7.46-3.27,11.16-.58-2.11-1.17-4.22-1.73-6.34-.23-.88-.46-1.77-.67-2.65,0-.14-.34-.32-.43-.38a3.06,3.06,0,0,0-1.46-.59h-.13c-2.5.17-5,.33-7.5.45,1.79-1.76,3.61-3.51,5.41-5.27L134,364l.68-.67c.17-.17.11-.26.06-.5s-.09-.47-.14-.7c-.38-1.91-.7-3.83-1-5.75-.22-1.34-.43-2.68-.68-4,1.66,1.46,3.31,2.94,5,4.41l1.88,1.68a3.73,3.73,0,0,0,1,.61c.21.09.73.35,1,.23,2.51-1.26,5-2.56,7.6-3.66l-.41.76Q147.66,358.77,146.43,361.09Z" fill="#232020"/><path d="M170.58,409.64c-3.2-1.91-12.33-7.49-12.86-8,4.83-.71,12.94-1.76,17.77-2.47,2.68-5.63,6-11.51,7.75-15.08.36,1.46,2.84,12.42,3.7,16.32,2.06.33,13.73,2.05,16.47,3.33-1,.66-10.26,4.94-14.21,6.85.78,3.35,4.22,15.78,4.54,17.71-.54-.3-10.72-11.41-13.06-13.75-2.93,2.07-12.24,9.19-17.17,12.46C165.22,422.81,168.6,414.13,170.58,409.64Z" fill="#ffe757"/><path d="M203.84,403.71a3.06,3.06,0,0,0-1.12-1.41,14.42,14.42,0,0,0-2.49-.79c-1.22-.3-2.46-.56-3.7-.8-2.57-.51-5.15-.93-7.73-1.34l-1.52-.24q-1.34-6-2.71-12c-.17-.74-.34-1.49-.52-2.23a4.91,4.91,0,0,0-.92-1.73c-.12-.15-.59-.78-.76-.43-2.07,4.31-4.47,8.45-6.61,12.73l-.84,1.71c-.14.29-.18.49-.5.57a7,7,0,0,1-.8.12l-3,.42-6.69.91c-2.34.32-4.68.64-7,1-.25,0,.18,1,.19,1a5.26,5.26,0,0,0,1,1.5,7.66,7.66,0,0,0,1.3,1c.83.55,1.67,1.07,2.51,1.6,2.12,1.33,4.26,2.64,6.4,3.94l.83.5c-1.78,4.17-3.43,8.39-5.11,12.6l-1.35,3.34c-.19.45,1.22,3,1.68,2.71,4.94-3.29,9.65-6.92,14.41-10.45.88-.65,1.75-1.3,2.64-1.93,3.82,3.87,7.43,8,11.19,11.89a10.39,10.39,0,0,0,1.7,1.68c.23.14.4.13.34-.19-.33-2-1-4.05-1.48-6.05-.75-2.85-1.51-5.69-2.25-8.53-.25-1-.5-1.93-.74-2.9,4.11-2,8.27-3.86,12.36-5.88a19,19,0,0,0,1.73-.91C204.53,404.91,203.94,403.88,203.84,403.71Zm-12.19,3.89-3.26,1.55c-.15.07,0,.48,0,.55,1.18,5.05,2.65,10,3.92,15.06l.39,1.57s0,.11,0,.17l-.68-.69c-.9-.94-1.79-1.89-2.68-2.84-2.18-2.32-4.34-4.65-6.53-7-.82-.88-1.64-1.76-2.49-2.61,0-.05-.34-.37-.48-.28-4.49,3.18-8.84,6.57-13.31,9.78,1.12-2.82,2.24-5.64,3.4-8.45.49-1.17,1-2.34,1.49-3.5.07-.17-.12-.62-.18-.76a4.1,4.1,0,0,0-1.2-1.84.4.4,0,0,0-.15-.09c-3-1.83-6.09-3.67-9.09-5.56,3.59-.51,7.18-1,10.77-1.48l3.07-.43,1.37-.19c.33,0,.35-.2.49-.5l.44-.9c1.19-2.43,2.45-4.83,3.72-7.22.88-1.66,1.78-3.32,2.63-5,.68,3,1.33,5.94,2,8.91l.75,3.38a4.65,4.65,0,0,0,.65,1.5c.17.27.54,1,.91,1,4,.62,8,1.21,12,2.07-.38.17-.76.34-1.12.52Z" fill="#232020"/><path d="M104.7,484.78c-.88-4.88-3.29-18.92-3.2-19.93,4.94,4.23,13.1,11.44,18,15.67,8-2.24,16.85-4,21.92-5.43-1.15,1.63-10,13.72-13.14,18,1.49,2.35,10,15.56,11.09,19.43-1.53-.4-14-6-19.31-8.25-2.69,3.72-12.14,18.06-13.8,20.06-.17-.8,2.06-20.75,2.36-25.14-4.64-1.13-19.94-4.24-27.54-6.31C86.8,490.94,98.47,486.73,104.7,484.78Z" fill="#ffe757"/><path d="M139.78,513a4.16,4.16,0,0,0,.43-2.36,19.62,19.62,0,0,0-1.39-3.19c-.76-1.49-1.59-3-2.43-4.41-1.75-3-3.58-6-5.43-8.93-.36-.58-.73-1.16-1.1-1.73q4.86-6.58,9.65-13.21c.6-.82,1.2-1.64,1.79-2.47a6.5,6.5,0,0,0,.92-2.45c.05-.25.27-1.27-.22-1.13-6.14,1.7-12.4,2.92-18.56,4.52l-2.46.65c-.41.11-.65.24-1,0s-.55-.48-.82-.71c-1-.88-2-1.75-3-2.64L109.33,469q-3.56-3.11-7.13-6.19c-.25-.21-.86,1.07-.87,1.11a6.47,6.47,0,0,0-.67,2.27,11.07,11.07,0,0,0,.17,2.15c.18,1.31.39,2.61.6,3.92.52,3.29,1.08,6.58,1.65,9.86.08.43.15.86.23,1.28-5.75,1.86-11.43,3.91-17.12,5.9-1.51.53-3,1.06-4.53,1.57-.62.21-2,3.87-1.25,4.06,7.62,2.08,15.39,3.62,23.1,5.31,1.42.31,2.84.62,4.25,1-.54,7.23-1.49,14.42-2.13,21.63a13.69,13.69,0,0,0-.2,3.19c.06.34.22.5.5.17,1.74-2.12,3.22-4.51,4.77-6.79,2.2-3.24,4.38-6.49,6.58-9.73.75-1.09,1.5-2.19,2.27-3.27,5.58,2.38,11.11,4.91,16.71,7.24a21.76,21.76,0,0,0,2.43.94C139.17,514.7,139.69,513.2,139.78,513Zm-14.57-8.82c-1.47-.64-2.94-1.29-4.42-1.92-.2-.08-.5.41-.55.48-4,5.61-7.74,11.45-11.68,17.13-.41.59-.82,1.18-1.24,1.76l-.14.19c0-.43.07-.87.11-1.3.15-1.72.32-3.45.49-5.17.42-4.22.87-8.44,1.28-12.66.16-1.59.32-3.19.44-4.79,0-.08.07-.66-.14-.71-7.13-1.73-14.33-3.12-21.47-4.8,3.81-1.34,7.63-2.69,11.46-4q2.39-.81,4.8-1.58c.25-.07.53-.66.62-.83a5.6,5.6,0,0,0,.79-2.82.8.8,0,0,0,0-.24c-.84-4.65-1.66-9.32-2.38-14,3.65,3.16,7.27,6.35,10.91,9.52l3.12,2.71,1.4,1.2c.34.29.49.17.93.05l1.28-.35c3.49-.93,7-1.77,10.5-2.59,2.44-.57,4.89-1.12,7.32-1.73-2.38,3.28-4.79,6.53-7.19,9.8l-2.74,3.72a6.43,6.43,0,0,0-.93,2c-.12.4-.5,1.4-.24,1.82,2.87,4.55,5.8,9.08,8.4,13.8l-1.51-.68C131.32,506.82,128.27,505.47,125.21,504.14Z" fill="#232020"/><path d="M255.76,426.75c-.64-3.66-2.41-14.22-2.34-15,3.69,3.19,9.8,8.63,13.49,11.82,6-1.65,12.67-3,16.48-4-.87,1.22-7.54,10.27-9.93,13.47,1.11,1.77,7.44,11.72,8.26,14.63-1.14-.31-10.45-4.52-14.47-6.26-2,2.79-9.17,13.52-10.43,15-.12-.6,1.62-15.57,1.86-18.87-3.48-.86-15-3.25-20.66-4.83C242.3,431.32,251.07,428.2,255.76,426.75Z" fill="#ffe757"/><path d="M282,448a3.06,3.06,0,0,0,.33-1.77,14.58,14.58,0,0,0-1-2.4c-.57-1.12-1.19-2.23-1.82-3.32-1.3-2.27-2.66-4.5-4-6.73-.27-.43-.55-.86-.82-1.3q3.66-4.92,7.29-9.88l1.35-1.85a5,5,0,0,0,.7-1.84c0-.19.21-.95-.17-.85-4.61,1.25-9.32,2.15-13.95,3.33l-1.85.49c-.3.08-.48.17-.75,0a7.87,7.87,0,0,1-.62-.53l-2.27-2-5.07-4.47c-1.78-1.56-3.55-3.12-5.34-4.67-.19-.16-.65.8-.66.83a5.14,5.14,0,0,0-.51,1.7,8,8,0,0,0,.13,1.62c.13,1,.28,2,.43,2.94q.58,3.72,1.21,7.42c.06.32.11.64.17,1-4.32,1.37-8.6,2.9-12.88,4.37-1.13.4-2.27.79-3.4,1.17-.47.16-1.49,2.9-1,3,5.72,1.58,11.55,2.77,17.33,4.07,1.07.23,2.13.47,3.19.73-.42,5.42-1.16,10.82-1.67,16.24a10.09,10.09,0,0,0-.16,2.39c.05.26.16.38.37.13,1.32-1.59,2.44-3.38,3.61-5.08,1.66-2.43,3.31-4.86,5-7.29.56-.82,1.13-1.64,1.71-2.45,4.18,1.81,8.32,3.72,12.53,5.49a16,16,0,0,0,1.82.72C281.55,449.34,281.94,448.21,282,448Zm-10.92-6.67-3.31-1.45c-.15-.07-.37.3-.41.36-3.05,4.19-5.85,8.57-8.83,12.82l-.93,1.31-.11.15c0-.33.05-.65.08-1,.12-1.29.26-2.58.39-3.88.33-3.16.68-6.33,1-9.5.12-1.19.25-2.39.34-3.59,0-.06.05-.5-.1-.54-5.35-1.32-10.76-2.39-16.11-3.67,2.87-1,5.74-2,8.62-3,1.2-.4,2.4-.79,3.61-1.16.18-.06.4-.5.46-.63a4.14,4.14,0,0,0,.61-2.11.45.45,0,0,0,0-.18c-.61-3.5-1.21-7-1.75-10.52,2.74,2.39,5.45,4.79,8.17,7.19l2.33,2,1.05.91c.25.22.37.13.7,0l1-.26c2.62-.69,5.26-1.3,7.9-1.91,1.83-.42,3.67-.82,5.5-1.28-1.8,2.46-3.62,4.89-5.43,7.34l-2.07,2.78a4.76,4.76,0,0,0-.71,1.47c-.09.31-.38,1.05-.18,1.37,2.14,3.42,4.33,6.84,6.26,10.39L278,444.4Z" fill="#232020"/><path d="M354.83,495.36c-1.76-1.95-6.77-7.6-7-8.09,3.36.43,9,1.24,12.35,1.67,2.89-3.44,6.29-6.92,8.13-9.09-.05,1.09-.54,9.25-.74,12.14,1.32.62,8.76,4.06,10.34,5.48-.79.28-7.82,1.51-10.82,2.09-.14,2.5-.29,11.87-.46,13.28-.29-.32-4.91-10.05-6-12.13-2.36.89-10,4.1-13.91,5.45C348.67,503.56,352.63,498.13,354.83,495.36Z" fill="#ffe757"/><path d="M378.19,497.55a2.22,2.22,0,0,0-.47-1.2,10.32,10.32,0,0,0-1.51-1c-.75-.44-1.53-.86-2.31-1.27-1.61-.84-3.25-1.63-4.9-2.41l-1-.46q.29-4.46.54-8.91c0-.55.07-1.11.09-1.66a3.72,3.72,0,0,0-.28-1.4c0-.12-.23-.65-.41-.44-2.23,2.63-4.65,5.07-6.91,7.66-.31.35-.61.69-.9,1-.15.17-.22.31-.45.3a5.35,5.35,0,0,1-.56-.07l-2.08-.28-4.65-.64-4.87-.65c-.18,0-.08.75-.08.77a3.69,3.69,0,0,0,.34,1.23,5.6,5.6,0,0,0,.69.93c.44.53.9,1.06,1.36,1.59,1.15,1.34,2.32,2.66,3.49,4l.46.52c-2,2.58-3.94,5.23-5.89,7.85-.51.7-1,1.39-1.55,2.08-.21.29.22,2.35.59,2.23,3.94-1.37,7.79-3,11.67-4.58.71-.28,1.42-.57,2.14-.84,1.79,3.44,3.39,7,5.13,10.47a7.21,7.21,0,0,0,.81,1.5c.12.14.24.17.26-.07.18-1.49.16-3,.2-4.52.06-2.14.11-4.28.17-6.41,0-.73,0-1.45.08-2.18,3.13-.6,6.28-1.12,9.4-1.76a10.8,10.8,0,0,0,1.34-.31C378.41,498.53,378.22,497.69,378.19,497.55Zm-8.9.4-2.48.47c-.11,0-.1.33-.11.38-.2,3.77-.2,7.54-.34,11.31,0,.39,0,.78-.05,1.17v.13c-.1-.21-.21-.41-.32-.62l-1.23-2.5c-1-2-2-4.09-3-6.13-.37-.77-.75-1.55-1.15-2.31,0,0-.15-.32-.26-.28-3.63,1.37-7.19,2.91-10.81,4.31,1.31-1.76,2.61-3.53,3.93-5.27.56-.73,1.11-1.46,1.68-2.17.09-.11,0-.47,0-.57a3,3,0,0,0-.44-1.52.24.24,0,0,0-.08-.09c-1.68-1.87-3.34-3.73-5-5.64,2.5.33,5,.69,7.48,1l2.14.28.95.13c.23,0,.27-.07.43-.26l.46-.55c1.28-1.47,2.59-2.91,3.91-4.35.91-1,1.83-2,2.73-3-.13,2.21-.28,4.42-.42,6.63-.05.84-.1,1.68-.16,2.51a3.93,3.93,0,0,0,.14,1.18c.06.22.17.78.41.89,2.54,1.2,5.1,2.38,7.57,3.74l-.85.14Z" fill="#232020"/><path d="M345.92,546.87c-.46-3.69-1.7-14.32-1.59-15.07,3.53,3.37,9.36,9.11,12.89,12.48,6.08-1.36,12.8-2.33,16.65-3.18-.92,1.17-8,9.88-10.58,13,1,1.82,6.85,12.07,7.53,15-1.13-.36-10.22-5-14.15-7-2.16,2.68-9.83,13-11.16,14.48-.09-.61,2.39-15.47,2.79-18.75-3.43-1-14.78-4-20.39-5.85C332.25,550.76,341.17,548.08,345.92,546.87Z" fill="#ffe757"/><path d="M371.09,569.43a3.14,3.14,0,0,0,.41-1.76,14.34,14.34,0,0,0-.91-2.44c-.51-1.16-1.07-2.29-1.64-3.41-1.19-2.34-2.44-4.63-3.71-6.92l-.75-1.34q3.9-4.74,7.77-9.51l1.43-1.78a5,5,0,0,0,.8-1.81c.05-.18.25-.93-.12-.85-4.67,1-9.42,1.68-14.11,2.63l-1.87.4c-.3.06-.49.15-.75,0s-.39-.38-.59-.56l-2.17-2.1L350,535.22c-1.7-1.65-3.39-3.3-5.1-4.93-.18-.17-.69.77-.7.79a5,5,0,0,0-.59,1.68,8,8,0,0,0,0,1.62c.08,1,.18,2,.29,3q.39,3.74.84,7.46l.12,1c-4.39,1.16-8.73,2.47-13.08,3.74l-3.46,1c-.47.13-1.63,2.82-1.1,3,5.63,1.87,11.39,3.34,17.11,4.92,1,.29,2.1.58,3.14.89-.69,5.4-1.7,10.75-2.47,16.14a10.12,10.12,0,0,0-.28,2.38c0,.26.14.39.36.15,1.4-1.53,2.61-3.26,3.86-4.9l5.33-7c.6-.79,1.21-1.58,1.83-2.36,4.09,2,8.13,4.13,12.24,6.1a16,16,0,0,0,1.79.81C370.56,570.71,371,569.6,371.09,569.43Zm-10.57-7.21-3.24-1.62c-.15-.07-.39.29-.43.34-3.26,4-6.27,8.27-9.45,12.37-.33.43-.67.85-1,1.27l-.11.14c0-.33.08-.65.13-1,.18-1.29.38-2.57.58-3.86.48-3.15,1-6.29,1.47-9.44.18-1.19.37-2.38.52-3.57,0-.06.08-.5-.08-.55-5.27-1.58-10.62-2.91-15.9-4.46,2.91-.85,5.83-1.71,8.75-2.52,1.22-.34,2.44-.68,3.67-1,.19-.05.42-.48.5-.6a4.2,4.2,0,0,0,.7-2.08.55.55,0,0,0,0-.19c-.43-3.52-.86-7-1.22-10.58,2.61,2.52,5.2,5.05,7.8,7.58l2.23,2.15,1,1c.24.23.37.15.7.08l1-.21c2.65-.56,5.32-1,8-1.51,1.86-.33,3.71-.65,5.56-1-1.92,2.36-3.86,4.71-5.79,7.06-.73.89-1.46,1.79-2.2,2.68a4.73,4.73,0,0,0-.78,1.43c-.11.3-.43,1-.25,1.35,2,3.53,4,7,5.73,10.69l-1.1-.57C365,564.48,362.76,563.35,360.52,562.22Z" fill="#232020"/><path d="M246.15,541.26c3.3-3.7,12.88-14.25,13.73-14.8-.29,6.5-.94,17.37-1.23,23.86,6.68,4.91,13.54,10.8,17.77,13.92-2,.1-16.95.6-22.27.74-.94,2.62-6.12,17.44-8.48,20.7-.62-1.45-3.89-14.66-5.4-20.3-4.58.18-21.7,1.57-24.3,1.49.54-.62,17.62-11.15,21.26-13.62-2-4.35-8.94-18.32-12-25.58C230.28,531,240.77,537.55,246.15,541.26Z" fill="#ffe757"/><path d="M245.56,586.25a4.09,4.09,0,0,0,2.12-1.12,18.76,18.76,0,0,0,1.66-3c.71-1.53,1.35-3.08,2-4.64,1.3-3.23,2.51-6.5,3.69-9.77l.69-1.93q8.18-.24,16.35-.53c1,0,2-.07,3-.12a6.52,6.52,0,0,0,2.5-.78c.23-.12,1.17-.57.75-.88-5.11-3.79-9.93-8-15-11.84l-2-1.53c-.33-.25-.59-.36-.61-.79a9.76,9.76,0,0,1,.05-1.08c.06-1.34.13-2.68.2-4,.16-3,.32-6,.49-9s.34-6.28.48-9.42c0-.34-1.38,0-1.41,0a6.6,6.6,0,0,0-2.2.88,10.48,10.48,0,0,0-1.59,1.46c-.92.95-1.82,1.91-2.72,2.88-2.27,2.44-4.52,4.91-6.75,7.38l-.87,1c-5-3.38-10.12-6.6-15.2-9.86l-4-2.59c-.55-.36-4.26.83-4,1.51,3.06,7.28,6.63,14.35,10.05,21.47.62,1.31,1.25,2.62,1.86,3.94-6,4-12.28,7.71-18.36,11.64a14.11,14.11,0,0,0-2.63,1.81c-.23.26-.26.48.17.49,2.75.07,5.55-.23,8.29-.42l11.72-.8c1.32-.09,2.65-.17,4-.24,1.56,5.87,3,11.78,4.59,17.64a22.22,22.22,0,0,0,.75,2.49C243.81,586.85,245.31,586.33,245.56,586.25Zm-2-16.91c-.4-1.56-.8-3.11-1.21-4.66-.06-.21-.63-.14-.72-.14-6.9.27-13.79,1-20.68,1.35l-2.15.11h-.24l1.09-.71c1.45-.95,2.91-1.87,4.38-2.8,3.58-2.26,7.18-4.51,10.76-6.78,1.35-.86,2.71-1.72,4-2.61.07-.05.57-.36.48-.55-3-6.68-6.38-13.21-9.45-19.87,3.41,2.18,6.82,4.35,10.2,6.57,1.4.93,2.81,1.86,4.2,2.82.21.14.85,0,1,0a5.66,5.66,0,0,0,2.7-1.11,1.36,1.36,0,0,0,.17-.18c3.15-3.53,6.32-7,9.55-10.5-.24,4.83-.52,9.64-.77,14.47-.08,1.37-.15,2.74-.22,4.12,0,.61-.05,1.23-.08,1.84,0,.44.17.5.53.76l1.07.8c2.88,2.17,5.69,4.42,8.5,6.68,1.95,1.57,3.89,3.16,5.87,4.7-4,.14-8.1.24-12.14.37l-4.62.13a6.51,6.51,0,0,0-2.12.47c-.39.16-1.41.47-1.58.94-1.81,5.06-3.58,10.16-5.7,15.11-.13-.54-.26-1.08-.4-1.6Q244.77,574.19,243.53,569.34Z" fill="#232020"/><path d="M149,545.87c-.68-3.66-2.55-14.2-2.49-15,3.73,3.16,9.88,8.54,13.61,11.69,6-1.71,12.63-3.08,16.43-4.16-.85,1.23-7.43,10.34-9.79,13.57,1.13,1.76,7.56,11.64,8.41,14.55-1.15-.3-10.5-4.43-14.54-6.12-2,2.8-9,13.61-10.28,15.12-.12-.6,1.47-15.59,1.68-18.89-3.5-.82-15-3.1-20.71-4.62C135.6,550.57,144.34,547.36,149,545.87Z" fill="#ffe757"/><path d="M175.48,566.88a3.16,3.16,0,0,0,.31-1.78,14,14,0,0,0-1.06-2.38c-.58-1.12-1.2-2.22-1.84-3.31-1.32-2.25-2.71-4.47-4.12-6.68l-.82-1.29,7.19-10c.44-.62.89-1.24,1.32-1.87a4.83,4.83,0,0,0,.69-1.84c0-.18.2-.95-.17-.85-4.61,1.3-9.3,2.25-13.92,3.47l-1.85.51c-.3.08-.48.18-.75,0a7.87,7.87,0,0,1-.62-.53l-2.3-2L152.43,534q-2.69-2.32-5.38-4.62c-.19-.16-.64.81-.66.84a5.35,5.35,0,0,0-.49,1.7,8.71,8.71,0,0,0,.14,1.62c.14,1,.3,2,.47,2.94.41,2.47.84,4.93,1.28,7.4.06.32.12.64.17,1-4.3,1.42-8.56,3-12.83,4.5l-3.39,1.2c-.46.16-1.46,2.92-.92,3.06,5.73,1.52,11.57,2.65,17.37,3.89,1.06.22,2.13.45,3.19.7-.37,5.43-1,10.83-1.51,16.25a10.19,10.19,0,0,0-.13,2.4c0,.25.16.37.37.12,1.31-1.6,2.4-3.4,3.55-5.11q2.46-3.68,4.91-7.34c.56-.83,1.11-1.65,1.69-2.47,4.2,1.77,8.36,3.64,12.58,5.37a14.94,14.94,0,0,0,1.83.69C175,568.19,175.41,567.06,175.48,566.88Zm-11-6.56-3.33-1.42c-.15-.06-.37.31-.41.36-3,4.23-5.77,8.63-8.7,12.91l-.92,1.33-.1.14c0-.32,0-.65.07-1,.1-1.3.23-2.59.35-3.89.3-3.17.61-6.34.91-9.51.11-1.2.23-2.4.3-3.6,0-.06.05-.5-.1-.54-5.36-1.26-10.78-2.27-16.15-3.51,2.86-1,5.72-2,8.59-3,1.2-.42,2.4-.82,3.6-1.21.19-.06.4-.5.46-.63a4.08,4.08,0,0,0,.58-2.12.48.48,0,0,0,0-.18c-.64-3.49-1.28-7-1.85-10.49,2.76,2.35,5.5,4.73,8.24,7.1l2.36,2,1,.89c.25.22.37.13.7,0l1-.27c2.61-.71,5.24-1.35,7.88-2,1.83-.44,3.66-.87,5.48-1.34-1.77,2.47-3.57,4.93-5.35,7.39l-2,2.81a4.63,4.63,0,0,0-.7,1.47c-.09.31-.37,1-.17,1.37,2.18,3.4,4.4,6.8,6.36,10.33l-1.13-.5C169.1,562.31,166.8,561.31,164.5,560.32Z" fill="#232020"/><path d="M30.09,559.63c-2.61-.21-10.13-.87-10.64-1.06,2.73-2,7.37-5.28,10.11-7.28-.26-4.48-.19-9.35-.35-12.19.72.82,6,7.09,7.82,9.33,1.38-.46,9.15-3.09,11.27-3.14-.38.75-4.64,6.47-6.42,9,1.62,1.91,8,8.81,8.8,10-.43,0-10.47-3.92-12.7-4.68-1.11,2.27-4.43,9.84-6.35,13.53C31.27,569.82,30.4,563.15,30.09,559.63Z" fill="#ffe757"/><path d="M48.57,545.15a2.17,2.17,0,0,0-1.17-.54,9.13,9.13,0,0,0-1.8.29c-.86.19-1.71.42-2.55.66-1.75.5-3.49,1.05-5.22,1.62l-1,.33q-2.85-3.43-5.73-6.85c-.36-.42-.71-.85-1.08-1.26a3.57,3.57,0,0,0-1.16-.83c-.12-.05-.62-.31-.6,0,.18,3.44.11,6.88.25,10.32,0,.45,0,.91.06,1.37,0,.22.05.37-.12.52a2.89,2.89,0,0,1-.45.33l-1.7,1.23-3.82,2.74-4,2.88c-.14.1.46.59.47.61a3.85,3.85,0,0,0,1.1.65,5.49,5.49,0,0,0,1.13.21l2.09.22c1.76.18,3.52.33,5.28.49l.68,0c.32,3.26.74,6.51,1.13,9.76l.3,2.57c0,.36,1.78,1.56,2,1.21,1.92-3.69,3.59-7.54,5.33-11.34.32-.7.63-1.4,1-2.09,3.66,1.27,7.27,2.75,10.92,4.07a7.52,7.52,0,0,0,1.62.54c.19,0,.29,0,.15-.23-.9-1.21-2-2.31-3-3.42-1.42-1.6-2.86-3.18-4.28-4.77-.49-.55-1-1.09-1.44-1.64,1.86-2.59,3.78-5.13,5.61-7.74a10.75,10.75,0,0,0,.76-1.14C49.4,545.71,48.69,545.23,48.57,545.15Zm-6.19,6.41c-.49.68-1,1.36-1.48,2.05-.07.09.16.31.19.35,2.44,2.88,5,5.61,7.53,8.44l.76.89.09.1-.66-.23-2.61-1-6.39-2.4c-.81-.3-1.61-.6-2.43-.88,0,0-.33-.13-.38,0-1.69,3.49-3.22,7.07-4.88,10.56q-.4-3.26-.77-6.53c-.1-.9-.2-1.81-.28-2.72,0-.14-.28-.37-.36-.44a3.07,3.07,0,0,0-1.37-.8h-.13c-2.49-.2-5-.41-7.48-.67l6.13-4.4,1.75-1.26.78-.56c.19-.14.14-.24.13-.48s0-.48,0-.72c-.09-2-.13-3.9-.16-5.84,0-1.35,0-2.71-.07-4.06,1.43,1.69,2.83,3.4,4.25,5.1L36.11,548a3.68,3.68,0,0,0,.91.76c.2.12.67.45.91.37,2.67-.88,5.34-1.79,8.07-2.5l-.52.7Z" fill="#232020"/><path d="M345.92,546.87c-.46-3.69-1.7-14.32-1.59-15.07,3.53,3.37,9.36,9.11,12.89,12.48,6.08-1.36,12.8-2.33,16.65-3.18-.92,1.17-8,9.88-10.58,13,1,1.82,6.85,12.07,7.53,15-1.13-.36-10.22-5-14.15-7-2.16,2.68-9.83,13-11.16,14.48-.09-.61,2.39-15.47,2.79-18.75-3.43-1-14.78-4-20.39-5.85C332.25,550.76,341.17,548.08,345.92,546.87Z" fill="#ffe757"/><path d="M371.09,569.43a3.14,3.14,0,0,0,.41-1.76,14.34,14.34,0,0,0-.91-2.44c-.51-1.16-1.07-2.29-1.64-3.41-1.19-2.34-2.44-4.63-3.71-6.92l-.75-1.34q3.9-4.74,7.77-9.51l1.43-1.78a5,5,0,0,0,.8-1.81c.05-.18.25-.93-.12-.85-4.67,1-9.42,1.68-14.11,2.63l-1.87.4c-.3.06-.49.15-.75,0s-.39-.38-.59-.56l-2.17-2.1L350,535.22c-1.7-1.65-3.39-3.3-5.1-4.93-.18-.17-.69.77-.7.79a5,5,0,0,0-.59,1.68,8,8,0,0,0,0,1.62c.08,1,.18,2,.29,3q.39,3.74.84,7.46l.12,1c-4.39,1.16-8.73,2.47-13.08,3.74l-3.46,1c-.47.13-1.63,2.82-1.1,3,5.63,1.87,11.39,3.34,17.11,4.92,1,.29,2.1.58,3.14.89-.69,5.4-1.7,10.75-2.47,16.14a10.12,10.12,0,0,0-.28,2.38c0,.26.14.39.36.15,1.4-1.53,2.61-3.26,3.86-4.9l5.33-7c.6-.79,1.21-1.58,1.83-2.36,4.09,2,8.13,4.13,12.24,6.1a16,16,0,0,0,1.79.81C370.56,570.71,371,569.6,371.09,569.43Zm-10.57-7.21-3.24-1.62c-.15-.07-.39.29-.43.34-3.26,4-6.27,8.27-9.45,12.37-.33.43-.67.85-1,1.27l-.11.14c0-.33.08-.65.13-1,.18-1.29.38-2.57.58-3.86.48-3.15,1-6.29,1.47-9.44.18-1.19.37-2.38.52-3.57,0-.06.08-.5-.08-.55-5.27-1.58-10.62-2.91-15.9-4.46,2.91-.85,5.83-1.71,8.75-2.52,1.22-.34,2.44-.68,3.67-1,.19-.05.42-.48.5-.6a4.2,4.2,0,0,0,.7-2.08.55.55,0,0,0,0-.19c-.43-3.52-.86-7-1.22-10.58,2.61,2.52,5.2,5.05,7.8,7.58l2.23,2.15,1,1c.24.23.37.15.7.08l1-.21c2.65-.56,5.32-1,8-1.51,1.86-.33,3.71-.65,5.56-1-1.92,2.36-3.86,4.71-5.79,7.06-.73.89-1.46,1.79-2.2,2.68a4.73,4.73,0,0,0-.78,1.43c-.11.3-.43,1-.25,1.35,2,3.53,4,7,5.73,10.69l-1.1-.57C365,564.48,362.76,563.35,360.52,562.22Z" fill="#232020"/><path d="M246.15,541.26c3.3-3.7,12.88-14.25,13.73-14.8-.29,6.5-.94,17.37-1.23,23.86,6.68,4.91,13.54,10.8,17.77,13.92-2,.1-16.95.6-22.27.74-.94,2.62-6.12,17.44-8.48,20.7-.62-1.45-3.89-14.66-5.4-20.3-4.58.18-21.7,1.57-24.3,1.49.54-.62,17.62-11.15,21.26-13.62-2-4.35-8.94-18.32-12-25.58C230.28,531,240.77,537.55,246.15,541.26Z" fill="#ffe757"/><path d="M245.56,586.25a4.09,4.09,0,0,0,2.12-1.12,18.76,18.76,0,0,0,1.66-3c.71-1.53,1.35-3.08,2-4.64,1.3-3.23,2.51-6.5,3.69-9.77l.69-1.93q8.18-.24,16.35-.53c1,0,2-.07,3-.12a6.52,6.52,0,0,0,2.5-.78c.23-.12,1.17-.57.75-.88-5.11-3.79-9.93-8-15-11.84l-2-1.53c-.33-.25-.59-.36-.61-.79a9.76,9.76,0,0,1,.05-1.08c.06-1.34.13-2.68.2-4,.16-3,.32-6,.49-9s.34-6.28.48-9.42c0-.34-1.38,0-1.41,0a6.6,6.6,0,0,0-2.2.88,10.48,10.48,0,0,0-1.59,1.46c-.92.95-1.82,1.91-2.72,2.88-2.27,2.44-4.52,4.91-6.75,7.38l-.87,1c-5-3.38-10.12-6.6-15.2-9.86l-4-2.59c-.55-.36-4.26.83-4,1.51,3.06,7.28,6.63,14.35,10.05,21.47.62,1.31,1.25,2.62,1.86,3.94-6,4-12.28,7.71-18.36,11.64a14.11,14.11,0,0,0-2.63,1.81c-.23.26-.26.48.17.49,2.75.07,5.55-.23,8.29-.42l11.72-.8c1.32-.09,2.65-.17,4-.24,1.56,5.87,3,11.78,4.59,17.64a22.22,22.22,0,0,0,.75,2.49C243.81,586.85,245.31,586.33,245.56,586.25Zm-2-16.91c-.4-1.56-.8-3.11-1.21-4.66-.06-.21-.63-.14-.72-.14-6.9.27-13.79,1-20.68,1.35l-2.15.11h-.24l1.09-.71c1.45-.95,2.91-1.87,4.38-2.8,3.58-2.26,7.18-4.51,10.76-6.78,1.35-.86,2.71-1.72,4-2.61.07-.05.57-.36.48-.55-3-6.68-6.38-13.21-9.45-19.87,3.41,2.18,6.82,4.35,10.2,6.57,1.4.93,2.81,1.86,4.2,2.82.21.14.85,0,1,0a5.66,5.66,0,0,0,2.7-1.11,1.36,1.36,0,0,0,.17-.18c3.15-3.53,6.32-7,9.55-10.5-.24,4.83-.52,9.64-.77,14.47-.08,1.37-.15,2.74-.22,4.12,0,.61-.05,1.23-.08,1.84,0,.44.17.5.53.76l1.07.8c2.88,2.17,5.69,4.42,8.5,6.68,1.95,1.57,3.89,3.16,5.87,4.7-4,.14-8.1.24-12.14.37l-4.62.13a6.51,6.51,0,0,0-2.12.47c-.39.16-1.41.47-1.58.94-1.81,5.06-3.58,10.16-5.7,15.11-.13-.54-.26-1.08-.4-1.6Q244.77,574.19,243.53,569.34Z" fill="#232020"/><path d="M43.43,314.56c-2.87-2.37-11.06-9.25-11.5-9.87,4.88,0,13.06.21,17.94.23,3.49-5.16,7.71-10.47,9.93-13.74.13,1.49.94,12.71,1.2,16.69,2,.63,13.27,4.08,15.78,5.76-1.07.51-10.89,3.35-15.07,4.64.27,3.44,1.8,16.24,1.82,18.19-.48-.38-8.88-12.89-10.84-15.55-3.21,1.61-13.49,7.24-18.85,9.74C36.16,326.78,40.81,318.71,43.43,314.56Z" fill="#ffe757"/><path d="M77.22,313.7a3.12,3.12,0,0,0-.91-1.56A14.16,14.16,0,0,0,74,311c-1.16-.48-2.35-.92-3.53-1.35-2.47-.88-5-1.69-7.45-2.48l-1.47-.46c-.27-4.09-.57-8.17-.87-12.25-.06-.76-.11-1.53-.18-2.28a4.94,4.94,0,0,0-.66-1.86c-.09-.16-.46-.86-.68-.54-2.69,3.95-5.69,7.69-8.44,11.6-.37.52-.73,1-1.09,1.57-.18.25-.26.45-.58.48a5.63,5.63,0,0,1-.82,0l-3,0-6.75-.1c-2.37,0-4.73-.08-7.09-.09-.25,0,0,1,0,1.06a5,5,0,0,0,.72,1.62A7.81,7.81,0,0,0,33.24,307c.73.67,1.48,1.31,2.24,2,1.9,1.63,3.81,3.24,5.73,4.85l.75.63c-2.39,3.85-4.65,7.78-7,11.69l-1.83,3.09c-.25.42.75,3.17,1.25,2.94,5.38-2.52,10.58-5.4,15.82-8.17,1-.51,1.93-1,2.9-1.51,3.2,4.4,6.14,9,9.27,13.43a10.47,10.47,0,0,0,1.44,1.92c.2.17.37.19.36-.14,0-2.06-.34-4.15-.56-6.2-.31-2.93-.63-5.85-.94-8.78-.11-1-.21-2-.29-3,4.35-1.35,8.75-2.58,13.09-4a16.83,16.83,0,0,0,1.85-.64C77.71,315,77.28,313.88,77.22,313.7Zm-12.64,2c-1.15.35-2.31.69-3.46,1.05-.16.05-.09.47-.08.54.4,5.17,1.11,10.32,1.61,15.48l.15,1.61a1.36,1.36,0,0,0,0,.18l-.57-.8c-.75-1.06-1.49-2.13-2.23-3.2-1.8-2.62-3.59-5.25-5.4-7.88-.69-1-1.37-2-2.08-2.95,0-.05-.28-.42-.43-.35-4.92,2.47-9.72,5.17-14.63,7.67,1.54-2.62,3.07-5.24,4.64-7.84.65-1.08,1.31-2.16,2-3.23.1-.17,0-.64-.06-.78a4.21,4.21,0,0,0-.91-2,.75.75,0,0,0-.14-.12c-2.74-2.26-5.47-4.54-8.15-6.86,3.62,0,7.25.11,10.87.16l3.1,0H50.2c.33,0,.37-.14.56-.42s.37-.55.56-.83c1.55-2.22,3.15-4.4,4.77-6.58,1.12-1.51,2.25-3,3.35-4.54.23,3,.42,6.07.63,9.11l.24,3.46a4.8,4.8,0,0,0,.41,1.57c.13.29.4,1.05.75,1.16,3.85,1.21,7.73,2.39,11.51,3.84l-1.19.34C69.39,314.28,67,315,64.58,315.71Z" fill="#232020"/><path d="M382.85,290.28c-2-1.72-7.66-6.7-8-7.15,3.39,0,9.07.11,12.46.11,2.44-3.76,5.38-7.64,6.93-10,.09,1.09.62,9.24.79,12.14,1.38.45,9.2,2.93,10.94,4.15-.75.37-7.57,2.47-10.48,3.42.17,2.5,1.2,11.81,1.21,13.23-.34-.27-6.13-9.35-7.48-11.28-2.24,1.17-9.39,5.31-13.12,7.14C377.76,299.19,381,293.3,382.85,290.28Z" fill="#ffe757"/><path d="M406.31,289.54a2.26,2.26,0,0,0-.63-1.13,8.84,8.84,0,0,0-1.62-.83c-.8-.35-1.62-.67-2.45-1-1.7-.63-3.43-1.21-5.16-1.78l-1-.33q-.27-4.46-.57-8.91c0-.56-.07-1.11-.11-1.66a3.71,3.71,0,0,0-.45-1.35c-.07-.12-.32-.62-.47-.39-1.89,2.88-4,5.61-5.9,8.46l-.77,1.15c-.12.19-.17.33-.4.35a5.23,5.23,0,0,1-.56,0l-2.1,0-4.69-.05c-1.64,0-3.28,0-4.92,0-.18,0,0,.75,0,.77A3.6,3.6,0,0,0,375,284a5.18,5.18,0,0,0,.79.83c.51.48,1,.95,1.55,1.42,1.31,1.18,2.64,2.35,4,3.51l.52.46c-1.68,2.81-3.26,5.67-4.87,8.52-.42.76-.85,1.51-1.28,2.26-.17.31.51,2.31.86,2.13,3.74-1.84,7.36-4,11-6,.67-.37,1.34-.75,2-1.11,2.21,3.2,4.24,6.52,6.4,9.75a6.87,6.87,0,0,0,1,1.39c.14.13.25.14.25-.1,0-1.5-.22-3-.37-4.51-.2-2.13-.42-4.26-.63-6.39-.07-.72-.13-1.44-.19-2.16,3-1,6.08-1.9,9.11-2.92a12.31,12.31,0,0,0,1.28-.47C406.65,290.48,406.35,289.67,406.31,289.54Zm-8.78,1.51-2.41.77c-.11,0-.06.35-.06.39.27,3.77.75,7.51,1.08,11.27l.09,1.17v.12l-.39-.57c-.52-.77-1-1.55-1.54-2.32q-1.86-2.86-3.73-5.72c-.47-.72-.94-1.44-1.43-2.15,0,0-.2-.3-.3-.24-3.42,1.81-6.77,3.79-10.18,5.62q1.6-2.86,3.24-5.72c.46-.79.92-1.58,1.39-2.36.08-.12,0-.46,0-.57a3.21,3.21,0,0,0-.63-1.45.19.19,0,0,0-.1-.08c-1.89-1.64-3.78-3.29-5.63-5,2.51,0,5,.05,7.55.08l2.15,0h1c.23,0,.26-.1.39-.3s.26-.41.4-.61c1.07-1.62,2.2-3.21,3.32-4.8.79-1.1,1.58-2.2,2.34-3.32.15,2.21.28,4.42.42,6.63l.15,2.51a3.53,3.53,0,0,0,.28,1.15c.09.21.27.76.52.84,2.67.87,5.36,1.72,8,2.76l-.83.25Z" fill="#232020"/><path d="M365.31,396.65c-.91-3.61-3.47-14-3.46-14.76,3.93,2.9,10.42,7.87,14.35,10.77,5.86-2.1,12.4-3.9,16.12-5.23-.77,1.29-6.74,10.81-8.88,14.18,1.24,1.69,8.3,11.13,9.34,14-1.16-.22-10.76-3.73-14.9-5.15-1.82,2.93-8.13,14.17-9.27,15.76-.16-.59.44-15.65.43-19-3.54-.59-15.16-2.11-21-3.26C352.23,402.22,360.75,398.44,365.31,396.65Z" fill="#ffe757"/><path d="M393.09,415.89a3,3,0,0,0,.19-1.8,14.46,14.46,0,0,0-1.2-2.31c-.66-1.08-1.35-2.13-2.06-3.18-1.47-2.16-3-4.29-4.54-6.4l-.92-1.23c2.19-3.46,4.37-6.94,6.53-10.41.4-.65.81-1.29,1.2-1.95a5.13,5.13,0,0,0,.57-1.88c0-.19.13-1-.23-.84-4.51,1.6-9.14,2.85-13.67,4.38l-1.8.62c-.3.1-.47.21-.76.05a7.37,7.37,0,0,1-.65-.49l-2.42-1.81-5.39-4.07c-1.89-1.42-3.77-2.84-5.67-4.25-.2-.15-.59.85-.6.87a5.22,5.22,0,0,0-.38,1.74,7.84,7.84,0,0,0,.25,1.6c.2,1,.43,1.94.65,2.9.57,2.44,1.17,4.88,1.77,7.31.08.31.16.63.23.94-4.2,1.7-8.35,3.54-12.51,5.34-1.1.47-2.2,1-3.3,1.41-.45.2-1.27,3-.72,3.11,5.82,1.15,11.72,1.89,17.59,2.75,1.07.15,2.15.31,3.23.49,0,5.44-.34,10.88-.44,16.32a9.55,9.55,0,0,0,0,2.39c.06.26.19.37.38.1,1.19-1.68,2.17-3.55,3.21-5.33,1.48-2.55,2.94-5.1,4.41-7.64.51-.87,1-1.73,1.53-2.58,4.31,1.49,8.58,3.09,12.9,4.54a18.24,18.24,0,0,0,1.87.57C392.73,417.22,393,416.07,393.09,415.89Zm-11.39-5.84-3.41-1.19c-.15-.06-.35.33-.38.39-2.73,4.41-5.19,9-7.84,13.45-.27.46-.55.92-.83,1.38l-.09.15v-1c0-1.3.06-2.6.1-3.89.09-3.19.2-6.37.28-9.56,0-1.2.07-2.4.07-3.61,0-.06,0-.5-.14-.53-5.43-.91-10.9-1.57-16.34-2.44,2.79-1.21,5.57-2.42,8.37-3.6,1.17-.49,2.34-1,3.52-1.43.18-.07.36-.53.41-.66a4.24,4.24,0,0,0,.45-2.15.43.43,0,0,0-.05-.18c-.87-3.45-1.73-6.89-2.53-10.35,2.91,2.17,5.79,4.36,8.69,6.54l2.48,1.86,1.11.83c.27.2.38.1.7,0l.94-.33c2.56-.89,5.14-1.7,7.73-2.5,1.8-.56,3.6-1.1,5.39-1.69-1.61,2.58-3.24,5.15-4.86,7.72l-1.86,2.94a4.8,4.8,0,0,0-.59,1.51c-.07.32-.3,1.08-.08,1.38,2.39,3.25,4.83,6.5,7,9.89l-1.16-.42C386.43,411.74,384.07,410.89,381.7,410.05Z" fill="#232020"/><path d="M556.11,351c1.43-4.74,5.64-18.35,6.18-19.21,2.48,6,6.49,16.13,9,22.14,8.14,1.62,16.84,4.06,22,5.1-1.76.93-15.1,7.71-19.86,10.09.26,2.77,1.84,18.39,1.07,22.34-1.18-1.05-9.73-11.64-13.47-16.11-4.08,2.1-19,10.6-21.39,11.63.22-.79,11.24-17.56,13.5-21.33-3.63-3.11-15.85-12.82-21.69-18.11C537.36,348.38,549.66,349.91,556.11,351Z" fill="#ffe757"/><path d="M574.61,392a4.21,4.21,0,0,0,1.45-1.92,19.14,19.14,0,0,0,.2-3.47c0-1.68-.07-3.36-.16-5-.19-3.48-.48-7-.8-10.42-.06-.68-.12-1.36-.19-2q7.3-3.67,14.59-7.4c.9-.46,1.81-.92,2.71-1.4a6.78,6.78,0,0,0,1.94-1.76c.15-.2.81-1,.31-1.11-6.24-1.27-12.38-3-18.6-4.39l-2.48-.53c-.41-.08-.69-.07-.9-.45a8.89,8.89,0,0,1-.41-1l-1.52-3.72L567.39,339q-1.75-4.38-3.55-8.74c-.13-.32-1.25.56-1.28.58a6.84,6.84,0,0,0-1.63,1.72,10.91,10.91,0,0,0-.82,2c-.43,1.25-.84,2.5-1.24,3.76-1,3.17-2,6.36-3,9.54-.12.42-.25.83-.38,1.25-6-.95-12-1.7-17.93-2.5l-4.75-.65c-.65-.09-3.5,2.56-2.95,3,5.85,5.3,12.08,10.2,18.18,15.2,1.13.92,2.25,1.84,3.35,2.78-3.75,6.2-7.85,12.18-11.7,18.32a13.6,13.6,0,0,0-1.62,2.75c-.1.33,0,.55.37.38,2.52-1.1,4.92-2.57,7.32-3.89,3.43-1.89,6.85-3.8,10.29-5.69,1.16-.64,2.32-1.28,3.5-1.9,3.89,4.66,7.68,9.42,11.62,14a21.32,21.32,0,0,0,1.74,1.94C573.28,393.29,574.41,392.19,574.61,392Zm-9-14.47q-1.53-1.86-3.07-3.71c-.14-.17-.63.14-.71.18-6.14,3.16-12.09,6.69-18.17,10-.63.34-1.26.68-1.9,1l-.21.1.68-1.11c.92-1.47,1.85-2.92,2.78-4.38,2.29-3.57,4.6-7.13,6.88-10.7.87-1.35,1.74-2.7,2.56-4.08,0-.07.37-.56.2-.7-5.57-4.77-11.36-9.27-17-14,4,.53,8,1.06,12,1.64,1.66.24,3.33.5,5,.77.26,0,.78-.35.93-.47a5.44,5.44,0,0,0,2-2.14,1,1,0,0,0,.08-.24c1.36-4.53,2.74-9.05,4.21-13.55,1.83,4.47,3.61,9,5.42,13.43.52,1.28,1,2.56,1.55,3.83.24.57.47,1.14.7,1.7s.37.38.81.47l1.3.27c3.53.75,7,1.6,10.54,2.46,2.43.59,4.86,1.21,7.3,1.77-3.6,1.84-7.23,3.65-10.84,5.47l-4.13,2.08a6.31,6.31,0,0,0-1.72,1.32c-.3.31-1.08,1-1,1.52.5,5.35,1.06,10.72,1.23,16.1-.35-.43-.69-.86-1-1.28C569.85,382.71,567.73,380.12,565.61,377.55Z" fill="#232020"/><path d="M444.48,168.73c-2.47-.86-9.58-3.41-10-3.71,3.15-1.25,8.46-3.24,11.62-4.48.88-4.4,2.19-9.09,2.76-11.88.48,1,4,8.36,5.19,11,1.45-.09,9.63-.66,11.7-.18-.56.63-6.13,5.09-8.48,7,1.08,2.26,5.46,10.54,6,11.86-.41-.13-9.14-6.44-11.11-7.74-1.64,1.92-6.77,8.4-9.56,11.48C443,178.89,443.89,172.22,444.48,168.73Z" fill="#ffe757"/><path d="M466,159.42a2.28,2.28,0,0,0-1-.83,10,10,0,0,0-1.81-.17c-.88,0-1.76,0-2.64,0-1.82,0-3.64.13-5.46.24l-1.06.07c-1.26-2.7-2.54-5.39-3.81-8.08l-.72-1.5a3.71,3.71,0,0,0-.92-1.09c-.1-.08-.52-.46-.58-.18-.69,3.37-1.63,6.68-2.37,10-.1.45-.19.89-.29,1.34,0,.22,0,.37-.24.48a4.87,4.87,0,0,1-.53.21l-2,.75-4.39,1.68c-1.53.59-3.06,1.17-4.58,1.77-.17.07.28.7.3.71a3.54,3.54,0,0,0,.89.92,5.76,5.76,0,0,0,1,.48c.65.26,1.31.5,2,.75q2.49.92,5,1.8l.65.23c-.52,3.23-.94,6.48-1.39,9.72-.11.86-.23,1.72-.36,2.57-.05.36,1.33,2,1.59,1.67,2.8-3.09,5.38-6.39,8-9.62.48-.6,1-1.19,1.47-1.78,3.22,2.16,6.34,4.51,9.53,6.71a7.37,7.37,0,0,0,1.44.93c.17.07.28,0,.19-.19-.56-1.39-1.32-2.72-2-4.06-1-1.9-2-3.8-2.93-5.7-.33-.65-.66-1.29-1-1.94,2.45-2,5-4,7.39-6.07a9.88,9.88,0,0,0,1-.91C466.69,160.16,466.12,159.52,466,159.42Zm-7.61,4.63c-.65.53-1.31,1.06-1.95,1.6-.09.07.06.35.09.39,1.63,3.4,3.45,6.7,5.14,10.08l.52,1,0,.11-.58-.39c-.76-.52-1.52-1.06-2.28-1.59l-5.57-3.94c-.7-.5-1.4-1-2.12-1.47,0,0-.29-.21-.37-.12-2.51,2.94-4.9,6-7.4,9,.3-2.18.59-4.35.91-6.52.14-.9.28-1.8.43-2.7,0-.14-.18-.43-.24-.52a3.16,3.16,0,0,0-1.12-1.12.28.28,0,0,0-.12,0c-2.36-.83-4.73-1.66-7.07-2.54,2.34-.92,4.7-1.81,7.05-2.71l2-.77.89-.35c.22-.09.2-.19.25-.43l.15-.71c.4-1.9.86-3.8,1.32-5.69.33-1.31.66-2.62,1-3.94.95,2,1.88,4,2.82,6,.36.77.72,1.53,1.07,2.29a3.6,3.6,0,0,0,.69,1c.16.17.53.61.78.59,2.81-.17,5.62-.38,8.44-.37l-.68.54Z" fill="#232020"/><path d="M461.47,218.18c-2.18-3-8.38-11.74-8.65-12.45,4.72,1.25,12.59,3.48,17.3,4.74,4.68-4.12,10.1-8.2,13.07-10.8-.24,1.47-2.28,12.53-3,16.45,1.77,1.11,11.81,7.29,13.82,9.55-1.17.22-11.38.5-15.76.69-.6,3.39-2.34,16.17-2.81,18.07-.37-.49-5.35-14.71-6.58-17.78-3.51.74-14.87,3.61-20.69,4.68C451.36,228.17,457.88,221.53,461.47,218.18Z" fill="#ffe757"/><path d="M494.38,225.84a3.11,3.11,0,0,0-.48-1.74,14.48,14.48,0,0,0-2-1.7c-1-.77-2-1.49-3.09-2.2-2.16-1.47-4.36-2.89-6.58-4.28l-1.3-.81q1.14-6,2.24-12.08c.13-.75.27-1.5.4-2.25a5,5,0,0,0-.17-2c-.05-.18-.23-.94-.52-.69-3.6,3.15-7.44,6-11.1,9.1l-1.45,1.24c-.23.21-.35.38-.68.33a6.94,6.94,0,0,1-.78-.22l-2.92-.79-6.51-1.8c-2.28-.63-4.56-1.26-6.84-1.87-.24-.06-.23,1-.23,1a5,5,0,0,0,.28,1.75,7.89,7.89,0,0,0,.82,1.4c.55.83,1.11,1.64,1.68,2.46q2.15,3.08,4.33,6.14l.57.79c-3.29,3.13-6.47,6.36-9.67,9.56l-2.55,2.54c-.36.34-.08,3.26.47,3.15,5.83-1.07,11.59-2.56,17.36-3.92,1.06-.25,2.12-.5,3.19-.73,2,5.06,3.68,10.24,5.59,15.33a10.34,10.34,0,0,0,.91,2.23c.15.21.31.27.39,0,.49-2,.71-4.1,1-6.14.43-2.91.85-5.83,1.29-8.73.15-1,.3-2,.47-3,4.55-.2,9.11-.29,13.67-.53a16,16,0,0,0,1.95-.16C494.54,227.22,494.4,226,494.38,225.84Zm-12.73-1.23-3.62.14c-.16,0-.2.44-.21.5-.91,5.11-1.52,10.27-2.34,15.4-.08.53-.17,1.06-.26,1.59,0,0,0,.11,0,.17l-.36-.91c-.46-1.22-.9-2.44-1.34-3.66-1.09-3-2.16-6-3.25-9-.42-1.13-.82-2.27-1.27-3.39,0-.05-.17-.47-.32-.44-5.39,1.15-10.72,2.56-16.1,3.74,2.15-2.15,4.29-4.3,6.46-6.42.91-.89,1.82-1.77,2.74-2.63.14-.13.14-.63.15-.77a4.22,4.22,0,0,0-.38-2.16.45.45,0,0,0-.11-.15c-2.08-2.88-4.15-5.77-6.16-8.69,3.5.94,7,1.92,10.48,2.89l3,.81,1.33.36c.32.09.39,0,.65-.26l.75-.66c2.06-1.76,4.16-3.47,6.27-5.17,1.47-1.17,2.94-2.34,4.39-3.55-.54,3-1.12,6-1.68,9-.21,1.14-.42,2.27-.64,3.41a5,5,0,0,0,0,1.63c.05.32.12,1.11.44,1.31,3.42,2.14,6.88,4.26,10.17,6.61l-1.24,0Z" fill="#232020"/><path d="M461.47,218.18c-2.18-3-8.38-11.74-8.65-12.45,4.72,1.25,12.59,3.48,17.3,4.74,4.68-4.12,10.1-8.2,13.07-10.8-.24,1.47-2.28,12.53-3,16.45,1.77,1.11,11.81,7.29,13.82,9.55-1.17.22-11.38.5-15.76.69-.6,3.39-2.34,16.17-2.81,18.07-.37-.49-5.35-14.71-6.58-17.78-3.51.74-14.87,3.61-20.69,4.68C451.36,228.17,457.88,221.53,461.47,218.18Z" fill="#ffe757"/><path d="M494.38,225.84a3.11,3.11,0,0,0-.48-1.74,14.48,14.48,0,0,0-2-1.7c-1-.77-2-1.49-3.09-2.2-2.16-1.47-4.36-2.89-6.58-4.28l-1.3-.81q1.14-6,2.24-12.08c.13-.75.27-1.5.4-2.25a5,5,0,0,0-.17-2c-.05-.18-.23-.94-.52-.69-3.6,3.15-7.44,6-11.1,9.1l-1.45,1.24c-.23.21-.35.38-.68.33a6.94,6.94,0,0,1-.78-.22l-2.92-.79-6.51-1.8c-2.28-.63-4.56-1.26-6.84-1.87-.24-.06-.23,1-.23,1a5,5,0,0,0,.28,1.75,7.89,7.89,0,0,0,.82,1.4c.55.83,1.11,1.64,1.68,2.46q2.15,3.08,4.33,6.14l.57.79c-3.29,3.13-6.47,6.36-9.67,9.56l-2.55,2.54c-.36.34-.08,3.26.47,3.15,5.83-1.07,11.59-2.56,17.36-3.92,1.06-.25,2.12-.5,3.19-.73,2,5.06,3.68,10.24,5.59,15.33a10.34,10.34,0,0,0,.91,2.23c.15.21.31.27.39,0,.49-2,.71-4.1,1-6.14.43-2.91.85-5.83,1.29-8.73.15-1,.3-2,.47-3,4.55-.2,9.11-.29,13.67-.53a16,16,0,0,0,1.95-.16C494.54,227.22,494.4,226,494.38,225.84Zm-12.73-1.23-3.62.14c-.16,0-.2.44-.21.5-.91,5.11-1.52,10.27-2.34,15.4-.08.53-.17,1.06-.26,1.59,0,0,0,.11,0,.17l-.36-.91c-.46-1.22-.9-2.44-1.34-3.66-1.09-3-2.16-6-3.25-9-.42-1.13-.82-2.27-1.27-3.39,0-.05-.17-.47-.32-.44-5.39,1.15-10.72,2.56-16.1,3.74,2.15-2.15,4.29-4.3,6.46-6.42.91-.89,1.82-1.77,2.74-2.63.14-.13.14-.63.15-.77a4.22,4.22,0,0,0-.38-2.16.45.45,0,0,0-.11-.15c-2.08-2.88-4.15-5.77-6.16-8.69,3.5.94,7,1.92,10.48,2.89l3,.81,1.33.36c.32.09.39,0,.65-.26l.75-.66c2.06-1.76,4.16-3.47,6.27-5.17,1.47-1.17,2.94-2.34,4.39-3.55-.54,3-1.12,6-1.68,9-.21,1.14-.42,2.27-.64,3.41a5,5,0,0,0,0,1.63c.05.32.12,1.11.44,1.31,3.42,2.14,6.88,4.26,10.17,6.61l-1.24,0Z" fill="#232020"/><path d="M497.86,71.36c-2.33,1.21-9.05,4.64-9.58,4.75,1.25-3.14,3.45-8.38,4.7-11.53-2.59-3.66-5.11-7.83-6.75-10.15,1,.32,8.81,2.84,11.57,3.76.93-1.12,6.12-7.47,7.89-8.64.07.83-.5,8-.69,11,2.38.76,11.42,3.24,12.74,3.76-.38.21-10.95,2.24-13.25,2.78.27,2.51,1.47,10.69,1.8,14.83C504.26,79.38,500,74.18,497.86,71.36Z" fill="#ffe757"/><path d="M505.84,49.29a2.32,2.32,0,0,0-1.28.16,9.73,9.73,0,0,0-1.37,1.2c-.62.62-1.22,1.26-1.81,1.92-1.22,1.35-2.4,2.74-3.57,4.13-.22.28-.45.55-.68.83l-8.49-2.77-1.59-.5a3.57,3.57,0,0,0-1.42-.08c-.13,0-.69.06-.53.29,2,2.82,3.75,5.77,5.68,8.61.26.38.52.76.79,1.13.13.19.24.29.18.51a4.77,4.77,0,0,1-.22.52c-.26.65-.52,1.3-.79,2q-.89,2.16-1.78,4.34c-.62,1.51-1.25,3-1.85,4.55-.07.17.7.27.72.27a3.92,3.92,0,0,0,1.28,0,6.14,6.14,0,0,0,1.07-.43l1.88-.92c1.59-.78,3.16-1.58,4.73-2.39l.62-.31c2,2.59,4.07,5.12,6.12,7.67.55.67,1.09,1.35,1.63,2,.22.28,2.33.38,2.3,0-.33-4.15-1-8.3-1.5-12.44-.1-.76-.2-1.52-.29-2.29,3.79-.87,7.63-1.53,11.42-2.34a7.82,7.82,0,0,0,1.67-.4c.16-.09.21-.19,0-.28-1.4-.54-2.89-.91-4.33-1.32l-6.16-1.78c-.7-.2-1.39-.4-2.08-.62.2-3.18.48-6.35.65-9.54a10.41,10.41,0,0,0,0-1.37C506.84,49.32,506,49.3,505.84,49.29ZM504,58c-.06.84-.12,1.68-.17,2.52,0,.12.3.19.34.21,3.6,1.14,7.25,2.08,10.86,3.16l1.13.34.12,0-.68.16-2.73.56-6.69,1.36c-.84.17-1.68.34-2.52.54,0,0-.35.06-.34.18.42,3.85,1,7.69,1.46,11.54-1.37-1.7-2.76-3.41-4.11-5.13q-.85-1.07-1.68-2.16c-.09-.11-.44-.16-.54-.18a3.13,3.13,0,0,0-1.58,0,.23.23,0,0,0-.12.06c-2.22,1.15-4.45,2.3-6.7,3.4q1.43-3.5,2.87-7l.81-2,.36-.89c.09-.22,0-.28-.14-.48l-.42-.59c-1.11-1.6-2.17-3.23-3.23-4.86-.73-1.14-1.46-2.28-2.22-3.4,2.11.67,4.21,1.37,6.31,2.06l2.4.79a3.85,3.85,0,0,0,1.17.16c.23,0,.8,0,1-.17,1.8-2.16,3.57-4.35,5.51-6.4,0,.3-.05.58-.07.87C504.25,54.51,504.12,56.26,504,58Z" fill="#232020"/><path d="M545.5,92.89c-3.69-.48-14.29-1.94-15-2.24,4.14-2.57,11.16-6.77,15.31-9.34.21-6.23.95-13,1.1-16.92.9,1.19,7.55,10.25,9.89,13.49,2-.53,13.41-3.6,16.43-3.52-.64,1-7.44,8.63-10.3,12,2.06,2.76,10.17,12.79,11.23,14.43-.61-.06-14.38-6.19-17.46-7.4-1.86,3.07-7.57,13.31-10.77,18.28C545.84,107.1,545.48,97.8,545.5,92.89Z" fill="#ffe757"/><path d="M573.64,74.18a3.13,3.13,0,0,0-1.6-.83,14.13,14.13,0,0,0-2.59.26c-1.24.21-2.48.47-3.71.74-2.56.56-5.1,1.2-7.63,1.86l-1.48.39q-3.61-5-7.27-9.91c-.45-.61-.9-1.23-1.36-1.84a5.23,5.23,0,0,0-1.54-1.22c-.17-.09-.85-.48-.86-.09-.18,4.78-.73,9.54-1,14.31l-.09,1.91c0,.31,0,.51-.23.71a6.12,6.12,0,0,1-.69.43L541,82.48,535.25,86c-2,1.23-4,2.45-6,3.7-.21.13.57.86.59.88a5.36,5.36,0,0,0,1.47,1,8,8,0,0,0,1.59.36c1,.17,1.95.32,2.93.47q3.72.56,7.44,1l1,.13c0,4.54.2,9.07.33,13.6,0,1.2.07,2.4.1,3.59,0,.5,2.32,2.29,2.62,1.82,3.21-5,6.08-10.19,9-15.33q.81-1.41,1.65-2.82c5,2,10,4.34,15,6.44a10,10,0,0,0,2.24.87c.26,0,.41,0,.23-.32-1.12-1.73-2.5-3.33-3.77-5-1.82-2.32-3.66-4.62-5.47-6.93-.62-.78-1.23-1.57-1.83-2.36,3-3.46,6-6.84,9-10.32a16,16,0,0,0,1.22-1.53C574.75,75,573.79,74.31,573.64,74.18ZM564,82.61l-2.37,2.73c-.11.12.18.45.22.5C565,90,568.29,94,571.46,98.09l1,1.29.1.14-.9-.37-3.59-1.52-8.77-3.8c-1.1-.47-2.21-1-3.33-1.4-.05,0-.46-.2-.54-.06-2.86,4.71-5.49,9.55-8.31,14.28-.1-3-.19-6.07-.25-9.11,0-1.27,0-2.53,0-3.8,0-.19-.36-.53-.47-.63a4.1,4.1,0,0,0-1.83-1.2l-.18,0c-3.52-.46-7-.93-10.55-1.47,3.08-1.9,6.19-3.77,9.29-5.66l2.64-1.61,1.18-.73c.29-.17.24-.31.25-.65s0-.67,0-1c.12-2.71.33-5.41.54-8.11.14-1.87.31-3.75.42-5.63,1.8,2.45,3.58,4.92,5.38,7.38l2,2.8a4.5,4.5,0,0,0,1.19,1.11c.26.18.89.68,1.25.59,3.9-1,7.82-2.09,11.78-2.88-.28.31-.56.62-.82.93Q566.5,79.79,564,82.61Z" fill="#232020"/><path d="M515.05,188.07c-2.74-4.12-10.56-16-10.88-17,6.22,1.91,16.57,5.27,22.79,7.18,6.43-5.25,13.85-10.4,17.93-13.72-.4,2-3.67,16.56-4.87,21.74,2.3,1.57,15.35,10.3,17.92,13.41-1.57.23-15.17.09-21,.13-1,4.48-3.93,21.4-4.66,23.9-.47-.67-6.38-19.85-7.85-24-4.71.82-20,4.06-27.78,5.2C501.1,200.86,510.12,192.35,515.05,188.07Z" fill="#ffe757"/><path d="M558.46,199.92a4.07,4.07,0,0,0-.55-2.33,18.38,18.38,0,0,0-2.54-2.37c-1.3-1.07-2.64-2.08-4-3.08-2.8-2.07-5.66-4.06-8.54-6L541.15,185q1.82-8,3.58-16c.22-1,.44-2,.64-3a6.62,6.62,0,0,0-.12-2.62c-.06-.24-.26-1.27-.66-.94-5,4-10.21,7.62-15.22,11.54-.67.52-1.33,1.05-2,1.58-.33.27-.5.48-.92.4s-.7-.22-1-.32l-3.84-1.21L513,171.74c-3-1-6-1.9-9-2.83-.32-.09-.36,1.33-.36,1.37a6.61,6.61,0,0,0,.29,2.34,10.61,10.61,0,0,0,1,1.91c.69,1.13,1.39,2.24,2.11,3.35q2.69,4.22,5.45,8.39c.23.36.47.72.71,1.08-4.52,4-8.92,8.14-13.34,12.24l-3.53,3.25c-.48.44-.26,4.33.47,4.22,7.82-1.14,15.56-2.82,23.31-4.34,1.42-.28,2.85-.56,4.28-.82,2.38,6.84,4.38,13.82,6.67,20.69a13.8,13.8,0,0,0,1.09,3c.19.29.4.38.52,0,.76-2.65,1.16-5.43,1.67-8.13.72-3.85,1.43-7.7,2.16-11.55.24-1.3.49-2.61.77-3.91,6.07,0,12.14.08,18.22,0a20.64,20.64,0,0,0,2.6-.11C558.6,201.76,558.48,200.18,558.46,199.92Zm-16.88-2.27c-1.61,0-3.21,0-4.81,0-.22,0-.3.58-.32.66-1.46,6.75-2.53,13.59-3.88,20.36-.14.71-.28,1.41-.43,2.11a2.14,2.14,0,0,0,0,.23c-.15-.41-.29-.82-.43-1.23-.55-1.64-1.07-3.29-1.6-4.94-1.3-4-2.57-8.08-3.88-12.12-.49-1.52-1-3.05-1.51-4.56,0-.08-.2-.64-.41-.61-7.23,1.27-14.39,2.86-21.6,4.17,3-2.75,5.92-5.51,8.92-8.22,1.25-1.13,2.5-2.26,3.77-3.36.2-.17.22-.83.23-1a5.5,5.5,0,0,0-.39-2.89,1,1,0,0,0-.13-.21c-2.63-3.93-5.24-7.88-7.77-11.88,4.61,1.44,9.21,2.92,13.81,4.38l3.94,1.24,1.76.54c.42.13.52,0,.87-.32l1-.83c2.82-2.25,5.71-4.41,8.6-6.56,2-1.5,4-3,6-4.51-.87,3.95-1.78,7.9-2.68,11.85l-1,4.5a6.33,6.33,0,0,0-.08,2.17c.05.42.1,1.49.51,1.76,4.45,3,8.94,6,13.2,9.31-.56,0-1.11,0-1.65,0C548.26,197.67,544.92,197.65,541.58,197.65Z" fill="#232020"/><path d="M489.45,386.9c4.73-4,18.42-15.35,19.58-15.88-1.26,7.88-3.6,21.06-4.87,29C512,407,520,415.33,525,419.82c-2.56-.2-21.74-2-28.55-2.66-1.56,3-10.22,20.32-13.69,23.93-.59-1.88-2.95-18.53-4.09-25.66-5.88-.52-27.94-1.57-31.25-2.08.76-.67,24-10.8,29-13.23-1.92-5.64-8.9-23.82-11.8-33.18C470.59,371.76,483.09,381.5,489.45,386.9Z" fill="#ffe757"/><path d="M482.49,441.77a5.28,5.28,0,0,0,2.87-1,23.13,23.13,0,0,0,2.54-3.46c1.11-1.75,2.15-3.55,3.17-5.35,2.1-3.74,4.1-7.54,6.06-11.35l1.14-2.25q10.49,1,21,2c1.3.11,2.6.24,3.91.34a8.84,8.84,0,0,0,3.3-.55c.3-.11,1.57-.51,1.08-.95-6-5.45-11.6-11.33-17.52-16.86l-2.38-2.2c-.4-.36-.7-.54-.68-1.07a11.55,11.55,0,0,1,.22-1.31c.26-1.63.53-3.26.81-4.88.61-3.64,1.24-7.27,1.86-10.9.65-3.81,1.3-7.62,1.91-11.44.06-.41-1.75-.24-1.8-.24A9.06,9.06,0,0,0,507,371a13.2,13.2,0,0,0-2.23,1.54c-1.31,1-2.59,2.05-3.87,3.08-3.24,2.62-6.45,5.28-9.64,7.94l-1.25,1c-5.92-4.93-12-9.68-18-14.47-1.6-1.27-3.2-2.54-4.78-3.82-.65-.52-5.56.34-5.29,1.22,2.91,9.38,6.5,18.59,9.88,27.83.62,1.7,1.25,3.4,1.84,5.11-8.25,4-16.74,7.46-25.05,11.29A16.87,16.87,0,0,0,445,413.5c-.34.28-.41.55.14.63,3.51.52,7.12.6,10.64.81,5,.31,10.06.58,15.09.89,1.71.11,3.41.22,5.11.35,1.19,7.42,2.18,14.87,3.44,22.28a26,26,0,0,0,.62,3.16C480.18,442.22,482.17,441.83,482.49,441.77Zm-.25-21q-.45-2.94-.91-5.88c0-.27-.79-.28-.9-.29-8.85-.77-17.75-1-26.61-1.66l-2.76-.22-.3,0,1.49-.71c2-.92,4-1.81,6-2.71,4.89-2.19,9.8-4.37,14.68-6.57,1.85-.83,3.71-1.66,5.53-2.54.09,0,.77-.34.69-.59-3-8.65-6.33-17.16-9.33-25.79,4,3.21,8.1,6.41,12.11,9.67,1.67,1.35,3.34,2.72,5,4.11.25.21,1.09.14,1.33.12a7.29,7.29,0,0,0,3.61-.92,1.26,1.26,0,0,0,.24-.19c4.51-3.8,9-7.59,13.65-11.29-1,5.85-2,11.69-3,17.54q-.44,2.51-.84,5c-.13.74-.25,1.49-.37,2.23-.08.54.15.64.57,1l1.26,1.15c3.38,3.1,6.67,6.31,9.95,9.52,2.27,2.23,4.53,4.48,6.85,6.67-5.19-.47-10.38-1-15.57-1.49l-5.92-.57a8.36,8.36,0,0,0-2.77.24c-.52.12-1.86.34-2.14.89-3,5.89-6,11.84-9.37,17.55-.09-.69-.18-1.36-.29-2Q483.15,426.91,482.24,420.78Z" fill="#232020"/><path d="M438.36,539.87c3.45,1.39,13.34,5.48,13.95,5.94-4.66,1.45-12.51,3.75-17.17,5.19-1.78,6-4.2,12.31-5.33,16.1-.57-1.38-4.73-11.83-6.18-15.55-2.09,0-13.88.11-16.78-.73.87-.81,9.37-6.48,13-9-1.29-3.19-6.62-14.94-7.23-16.8.58.22,12.36,9.61,15,11.57,2.58-2.51,10.68-11,15-15C441.61,526,439.62,535.13,438.36,539.87Z" fill="#ffe757"/><path d="M406.42,550.89a3,3,0,0,0,1.33,1.21,14,14,0,0,0,2.58.4c1.25.11,2.51.17,3.78.22,2.61.1,5.23.12,7.84.12h1.54q2.25,5.71,4.53,11.41c.29.71.57,1.42.86,2.12a5,5,0,0,0,1.19,1.58c.13.12.69.67.81.3,1.37-4.57,3.1-9,4.55-13.6l.57-1.82c.09-.3.1-.51.4-.64s.53-.16.78-.24l2.89-.88,6.47-1.94c2.27-.68,4.53-1.35,6.79-2,.24-.08-.34-1-.35-1a5.06,5.06,0,0,0-1.18-1.34,8.56,8.56,0,0,0-1.44-.75c-.9-.4-1.81-.8-2.72-1.18-2.31-1-4.62-1.95-6.94-2.9l-.9-.37c1.12-4.39,2.09-8.82,3.1-13.24l.81-3.5c.12-.48-1.67-2.8-2.08-2.43-4.36,4-8.45,8.34-12.61,12.56-.77.78-1.53,1.55-2.31,2.32-4.38-3.23-8.57-6.72-12.9-10a9.86,9.86,0,0,0-1.94-1.4c-.25-.1-.41-.07-.31.24.65,2,1.58,3.86,2.41,5.75,1.17,2.7,2.37,5.38,3.54,8.08.4.91.8,1.83,1.18,2.75-3.75,2.59-7.57,5.09-11.29,7.73a16.31,16.31,0,0,0-1.57,1.16C405.55,549.81,406.3,550.73,406.42,550.89Zm11.43-5.73c1-.68,2-1.36,3-2,.13-.09-.06-.48-.09-.54-1.94-4.81-4.17-9.5-6.21-14.27-.21-.5-.42-1-.62-1.49l-.06-.17.78.59c1,.78,2.06,1.58,3.09,2.38,2.51,2,5,3.93,7.53,5.88.95.74,1.9,1.48,2.87,2.19.05,0,.39.32.51.2,3.95-3.84,7.71-7.86,11.64-11.72-.68,3-1.35,5.92-2.06,8.87-.3,1.23-.6,2.46-.92,3.68-.05.19.21.61.29.73a4.13,4.13,0,0,0,1.47,1.63.47.47,0,0,0,.17.07c3.29,1.33,6.58,2.68,9.84,4.08-3.47,1.06-6.94,2.09-10.41,3.13l-3,.9-1.32.41c-.32.1-.31.25-.41.57s-.19.64-.29,1c-.8,2.58-1.68,5.15-2.56,7.7-.61,1.78-1.24,3.56-1.82,5.35-1.14-2.83-2.24-5.66-3.36-8.49-.42-1.08-.85-2.15-1.27-3.23a4.87,4.87,0,0,0-.87-1.38c-.21-.24-.69-.87-1.06-.87-4,0-8.09.05-12.13-.19l1-.69C413.7,548,415.78,546.57,417.85,545.16Z" fill="#232020"/><path d="M448.81,338.76c3.71.22,14.39.93,15.11,1.17-4,2.86-10.66,7.55-14.61,10.41.23,6.23,0,13,.1,17-1-1.12-8.26-9.69-10.83-12.75-2,.67-13.11,4.54-16.14,4.67.57-1,6.81-9.13,9.43-12.65-2.24-2.61-11.05-12-12.22-13.6.62,0,14.78,5.16,17.94,6.15,1.64-3.19,6.6-13.81,9.45-19C447.46,324.61,448.48,333.87,448.81,338.76Z" fill="#ffe757"/><path d="M422.06,359.41a3.09,3.09,0,0,0,1.65.73,14.12,14.12,0,0,0,2.57-.45c1.22-.3,2.44-.64,3.65-1,2.51-.74,5-1.56,7.47-2.39l1.46-.5q4,4.71,7.94,9.37l1.49,1.74a5.07,5.07,0,0,0,1.63,1.11c.17.07.88.42.86,0-.16-4.78.06-9.57,0-14.35,0-.63,0-1.27,0-1.9,0-.32-.07-.52.18-.74a6.5,6.5,0,0,1,.66-.47c.81-.59,1.63-1.18,2.46-1.76q2.75-2,5.51-3.91t5.77-4.11c.2-.15-.63-.82-.65-.84a5.38,5.38,0,0,0-1.54-.89,8.7,8.7,0,0,0-1.61-.25l-3-.25c-2.5-.2-5-.37-7.49-.53l-1-.06c-.34-4.52-.84-9-1.29-13.54-.12-1.19-.24-2.38-.35-3.58-.05-.49-2.48-2.11-2.75-1.63-2.85,5.2-5.34,10.6-7.94,15.94-.47,1-1,2-1.45,2.93-5.17-1.67-10.26-3.62-15.41-5.36a9.88,9.88,0,0,0-2.3-.71c-.26,0-.4.07-.21.33,1.25,1.65,2.73,3.15,4.12,4.68,2,2.18,4,4.34,5.94,6.52.67.74,1.34,1.48,2,2.23-2.73,3.66-5.54,7.25-8.23,10.93a16.49,16.49,0,0,0-1.12,1.61C420.89,358.66,421.9,359.31,422.06,359.41Zm9-9.08c.73-1,1.46-1.92,2.18-2.89.1-.13-.21-.44-.26-.49-3.38-3.93-7-7.67-10.44-11.54-.36-.4-.72-.8-1.07-1.21l-.11-.14.93.31c1.23.41,2.45.84,3.68,1.27,3,1.05,6,2.12,9,3.16,1.13.4,2.27.8,3.42,1.16.06,0,.47.17.55,0,2.51-4.9,4.79-9.92,7.28-14.83.3,3,.61,6,.88,9.06.12,1.26.22,2.52.31,3.79,0,.19.4.5.5.59a4.23,4.23,0,0,0,1.92,1.08.57.57,0,0,0,.18,0c3.55.21,7.09.43,10.63.72-2.94,2.11-5.91,4.2-8.87,6.3l-2.52,1.8-1.12.81c-.27.19-.22.33-.21.66s0,.67,0,1c.07,2.7.06,5.41,0,8.12,0,1.88,0,3.76,0,5.64-2-2.31-3.92-4.65-5.89-7l-2.23-2.65a4.82,4.82,0,0,0-1.26-1c-.28-.16-.94-.61-1.29-.49-3.83,1.29-7.65,2.63-11.55,3.7l.75-1C428,354.32,429.55,352.33,431.06,350.33Z" fill="#232020"/><path d="M46,252.84c-1.74-2-6.72-7.64-7-8.13,3.36.45,9,1.29,12.34,1.74,2.91-3.42,6.34-6.88,8.19-9-.06,1.09-.6,9.24-.81,12.14,1.31.63,8.74,4.1,10.31,5.53-.79.28-7.83,1.46-10.84,2-.15,2.5-.35,11.87-.53,13.28-.29-.32-4.86-10.08-5.94-12.17-2.37.88-10,4-13.94,5.38C39.8,261,43.79,255.6,46,252.84Z" fill="#ffe757"/><path d="M69.36,255.17a2.31,2.31,0,0,0-.47-1.21,10.22,10.22,0,0,0-1.5-1c-.76-.46-1.53-.88-2.3-1.29-1.61-.85-3.25-1.65-4.89-2.44l-1-.46q.3-4.45.59-8.91c0-.56.08-1.11.1-1.66a3.53,3.53,0,0,0-.27-1.4c0-.12-.23-.66-.41-.45-2.24,2.62-4.68,5.05-7,7.63l-.9,1c-.15.17-.22.31-.45.3a5.35,5.35,0,0,1-.56-.07l-2.08-.29-4.64-.67-4.87-.68c-.18,0-.09.75-.08.77a3.74,3.74,0,0,0,.33,1.23,6.15,6.15,0,0,0,.68.93c.44.54.9,1.07,1.35,1.61q1.73,2,3.47,4l.46.51c-2,2.57-4,5.21-5.93,7.82-.52.7-1,1.39-1.57,2.07-.21.29.21,2.36.58,2.23,4-1.34,7.81-3,11.69-4.5.72-.29,1.43-.57,2.15-.84,1.77,3.45,3.35,7,5.07,10.5a7,7,0,0,0,.8,1.51c.12.14.24.16.27-.07.18-1.49.17-3,.22-4.52.07-2.14.13-4.28.21-6.41,0-.73,0-1.45.09-2.17,3.13-.59,6.28-1.1,9.41-1.71a12.17,12.17,0,0,0,1.33-.3C69.57,256.14,69.38,255.3,69.36,255.17Zm-8.9.34L58,256c-.11,0-.11.33-.11.38-.23,3.76-.24,7.54-.4,11.31l-.06,1.17V269l-.32-.63c-.41-.83-.81-1.66-1.21-2.5l-3-6.15c-.37-.78-.74-1.55-1.14-2.32,0,0-.15-.32-.26-.28-3.63,1.35-7.21,2.87-10.83,4.25,1.32-1.76,2.63-3.51,4-5.25.56-.73,1.12-1.45,1.69-2.16.09-.11,0-.46,0-.57a3.22,3.22,0,0,0-.43-1.52l-.09-.1c-1.66-1.87-3.32-3.74-4.94-5.66l7.47,1.07,2.14.3,1,.13c.23,0,.27-.07.42-.26l.48-.54c1.28-1.47,2.6-2.9,3.92-4.33.92-1,1.85-2,2.75-3-.14,2.21-.3,4.41-.45,6.62l-.18,2.52a3.86,3.86,0,0,0,.13,1.17c.06.22.17.79.41.9,2.53,1.21,5.09,2.4,7.55,3.77l-.86.15Z" fill="#232020"/><path d="M569.21,543.62c-.44-3.69-1.62-14.33-1.5-15.08,3.51,3.39,9.3,9.16,12.81,12.55,6.09-1.32,12.81-2.25,16.67-3.08-.93,1.17-8.09,9.84-10.65,12.9,1,1.83,6.78,12.11,7.44,15.07-1.13-.38-10.19-5.1-14.11-7.06-2.18,2.67-9.9,13-11.24,14.42-.09-.61,2.48-15.46,2.9-18.73-3.43-1.06-14.76-4.08-20.36-6C555.52,547.44,564.45,544.81,569.21,543.62Z" fill="#ffe757"/><path d="M594.25,566.32a3.09,3.09,0,0,0,.42-1.75,13.32,13.32,0,0,0-.9-2.45c-.5-1.16-1-2.29-1.62-3.42-1.17-2.34-2.41-4.64-3.67-6.94l-.74-1.34q3.93-4.73,7.82-9.47l1.45-1.77a5.14,5.14,0,0,0,.81-1.8c0-.18.25-.94-.12-.86-4.68,1-9.43,1.64-14.12,2.56l-1.87.38c-.31.07-.5.15-.75-.05a7.81,7.81,0,0,1-.59-.56l-2.16-2.12c-1.61-1.57-3.21-3.16-4.82-4.74s-3.37-3.31-5.06-5c-.19-.18-.7.76-.71.79a4.92,4.92,0,0,0-.6,1.67,8,8,0,0,0,0,1.62c.08,1,.17,2,.27,3q.38,3.74.8,7.47c0,.33.07.65.11,1-4.39,1.14-8.74,2.42-13.1,3.66l-3.46,1c-.47.13-1.65,2.81-1.12,3,5.62,1.9,11.37,3.4,17.08,5,1,.29,2.1.59,3.14.91-.73,5.39-1.76,10.74-2.57,16.11a10.21,10.21,0,0,0-.29,2.39c0,.26.14.38.37.14,1.4-1.51,2.62-3.23,3.88-4.87,1.79-2.33,3.57-4.67,5.37-7,.61-.79,1.22-1.58,1.84-2.35,4.08,2,8.11,4.18,12.21,6.18a16.76,16.76,0,0,0,1.78.81C593.71,567.6,594.17,566.5,594.25,566.32Zm-10.53-7.26-3.23-1.64c-.15-.07-.39.29-.43.34-3.28,4-6.32,8.23-9.53,12.31-.33.42-.66.85-1,1.26l-.11.14c0-.32.08-.64.13-1,.19-1.28.4-2.57.6-3.85.51-3.14,1-6.29,1.53-9.43.19-1.19.39-2.38.54-3.57,0-.06.09-.5-.07-.55-5.26-1.61-10.6-3-15.88-4.55,2.92-.84,5.84-1.67,8.77-2.47,1.22-.34,2.44-.66,3.67-1,.19-.05.43-.48.5-.6a4.19,4.19,0,0,0,.72-2.07.53.53,0,0,0,0-.19c-.42-3.52-.82-7-1.16-10.59,2.6,2.53,5.17,5.08,7.76,7.62l2.21,2.17,1,1c.24.23.36.15.69.08l1-.21c2.65-.54,5.32-1,8-1.47,1.85-.31,3.71-.62,5.56-1-1.93,2.35-3.89,4.68-5.83,7q-1.1,1.33-2.22,2.67a4.73,4.73,0,0,0-.78,1.43c-.11.3-.44,1-.26,1.35,1.95,3.54,3.94,7.07,5.67,10.72-.37-.19-.73-.39-1.1-.57C588.18,561.34,586,560.19,583.72,559.06Z" fill="#232020"/><path d="M539.22,286.89c2.5-2.75,9.77-10.6,10.41-11-.26,4.88-.84,13-1.1,17.91,5,3.74,10.08,8.21,13.24,10.59-1.5.06-12.74.32-16.73.38-.72,2-4.72,13.05-6.52,15.49-.46-1.1-2.81-11-3.9-15.29-3.44.1-16.31,1-18.26.94.4-.47,13.31-8.25,16.07-10.07-1.45-3.28-6.58-13.83-8.82-19.3C527.37,279,535.2,284.07,539.22,286.89Z" fill="#ffe757"/><path d="M538.43,320.68a3.13,3.13,0,0,0,1.6-.83,13.39,13.39,0,0,0,1.27-2.28c.54-1.14,1-2.3,1.52-3.47,1-2.42,1.94-4.86,2.85-7.31l.53-1.44q6.13-.12,12.28-.28l2.29-.07a5,5,0,0,0,1.88-.56c.17-.09.88-.42.57-.66-3.81-2.88-7.4-6.06-11.17-9-.5-.39-1-.78-1.51-1.16-.25-.19-.44-.28-.46-.61a7.49,7.49,0,0,1,0-.81l.18-3c.14-2.25.29-4.5.43-6.75s.31-4.71.44-7.07c0-.25-1,0-1.06,0a4.94,4.94,0,0,0-1.66.64,7.8,7.8,0,0,0-1.21,1.09c-.69.7-1.38,1.42-2.06,2.14-1.72,1.81-3.43,3.65-5.12,5.49l-.67.72c-3.72-2.58-7.54-5-11.33-7.52l-3-2c-.41-.27-3.21.6-3,1.11,2.25,5.49,4.88,10.83,7.39,16.2.46,1,.92,2,1.37,3-4.56,3-9.28,5.7-13.87,8.61a10,10,0,0,0-2,1.33c-.18.2-.21.36.12.38,2.07.07,4.16-.14,6.22-.26l8.81-.52,3-.14c1.13,4.42,2.15,8.86,3.32,13.27a15,15,0,0,0,.54,1.88C537.12,321.11,538.24,320.73,538.43,320.68ZM537,308c-.29-1.17-.58-2.34-.88-3.51,0-.16-.47-.11-.54-.11-5.18.15-10.36.61-15.54.86l-1.61.06h-.18l.82-.54c1.1-.69,2.2-1.38,3.31-2.06l8.13-5c1-.63,2.05-1.26,3.05-1.92,0,0,.43-.27.37-.41-2.23-5-4.69-10-7-15,2.54,1.67,5.09,3.33,7.61,5,1,.71,2.1,1.42,3.13,2.14.16.11.64,0,.78,0a4.11,4.11,0,0,0,2-.82.53.53,0,0,0,.13-.13c2.39-2.62,4.8-5.24,7.25-7.81-.22,3.62-.46,7.24-.69,10.86-.06,1-.13,2.06-.19,3.09,0,.46-.05.92-.08,1.38s.12.38.39.58l.8.61c2.15,1.65,4.25,3.36,6.34,5.08,1.45,1.19,2.9,2.4,4.37,3.57-3,.08-6.08.12-9.12.19l-3.47.06a4.81,4.81,0,0,0-1.59.34c-.3.11-1.07.34-1.2.69-1.4,3.79-2.76,7.61-4.39,11.31-.1-.41-.19-.81-.29-1.21C538.23,312.83,537.64,310.39,537,308Z" fill="#232020"/><path d="M505.64,521.43c2.3-2.93,9-11.31,9.57-11.76.1,4.88.14,13.06.24,17.94,5.25,3.35,10.68,7.43,14,9.56-1.49.17-12.67,1.28-16.65,1.64-.57,2-3.73,13.37-5.34,15.93-.54-1.06-3.63-10.79-5-14.94-3.42.36-16.18,2.23-18.13,2.3.36-.49,12.65-9.22,15.26-11.24-1.69-3.17-7.6-13.3-10.24-18.59C493.24,514.49,501.43,518.92,505.64,521.43Z" fill="#ffe757"/><path d="M507.41,555.18a3.09,3.09,0,0,0,1.53-.95,13.4,13.4,0,0,0,1.09-2.37c.46-1.17.87-2.37,1.26-3.57.82-2.48,1.56-5,2.29-7.51l.42-1.47q6.12-.59,12.22-1.21l2.28-.23a5.18,5.18,0,0,0,1.84-.71c.16-.1.84-.48.52-.69-4-2.59-7.84-5.49-11.82-8.14l-1.6-1.05c-.26-.17-.45-.24-.5-.56a7.45,7.45,0,0,1,0-.82c0-1,0-2,0-3q0-3.37-.07-6.75c0-2.37-.06-4.73-.11-7.09,0-.25-1,0-1.05.06a5.29,5.29,0,0,0-1.61.76,7.82,7.82,0,0,0-1.12,1.18c-.64.75-1.27,1.52-1.89,2.29-1.58,1.94-3.15,3.9-4.7,5.86l-.61.77c-3.91-2.29-7.9-4.45-11.87-6.64l-3.14-1.75c-.43-.24-3.15.84-2.9,1.33,2.65,5.31,5.68,10.43,8.58,15.6.54,1,1.07,1.9,1.59,2.86-4.31,3.31-8.82,6.38-13.18,9.62a9.71,9.71,0,0,0-1.88,1.49c-.17.2-.18.37.15.36,2.06-.09,4.14-.45,6.19-.73,2.91-.38,5.82-.79,8.74-1.17l3-.38c1.46,4.33,2.81,8.68,4.3,13a19.12,19.12,0,0,0,.69,1.83C506.13,555.71,507.23,555.25,507.41,555.18Zm-2.35-12.58c-.38-1.14-.75-2.29-1.14-3.43-.05-.16-.48-.08-.54-.07-5.16.54-10.29,1.39-15.44,2l-1.6.18-.18,0,.78-.59c1-.78,2.09-1.54,3.14-2.31l7.73-5.61c1-.71,1.95-1.42,2.9-2.16.05,0,.41-.29.34-.43-2.6-4.86-5.43-9.59-8.06-14.43,2.66,1.47,5.32,2.93,8,4.43,1.11.62,2.2,1.25,3.29,1.9.17.1.64,0,.78-.07a4.2,4.2,0,0,0,2-1,.75.75,0,0,0,.12-.14c2.19-2.8,4.39-5.59,6.64-8.33.06,3.62.08,7.25.13,10.87,0,1,0,2.07,0,3.1l0,1.39c0,.33.15.36.43.54l.84.55c2.27,1.48,4.49,3,6.71,4.59,1.53,1.08,3.07,2.17,4.63,3.23-3,.3-6.06.58-9.09.87l-3.45.33a4.81,4.81,0,0,0-1.57.46c-.29.13-1,.42-1.13.78-1.11,3.88-2.19,7.79-3.53,11.6-.13-.4-.25-.8-.38-1.18C506.62,547.37,505.84,545,505.06,542.6Z" fill="#232020"/><path d="M438.32,445.58c4.88-.89,18.91-3.35,19.92-3.27-4.21,5-11.39,13.14-15.6,18.09,2.27,8,4.07,16.84,5.5,21.9-1.64-1.14-13.76-9.93-18.05-13.07-2.34,1.49-15.52,10-19.39,11.15.4-1.53,5.92-14,8.19-19.34-3.73-2.67-18.1-12.08-20.11-13.73.8-.16,20.75,2,25.14,2.28,1.11-4.65,4.17-20,6.22-27.56C432.1,427.71,436.35,439.36,438.32,445.58Z" fill="#ffe757"/><path d="M410.26,480.77a4.18,4.18,0,0,0,2.37.41,18.39,18.39,0,0,0,3.18-1.4c1.49-.77,2.95-1.6,4.41-2.44,3-1.76,6-3.6,8.91-5.46l1.72-1.1q6.6,4.82,13.24,9.6c.83.59,1.65,1.19,2.48,1.77a6.49,6.49,0,0,0,2.46.92c.24.05,1.26.26,1.12-.23-1.71-6.13-3-12.39-4.58-18.55l-.66-2.45c-.12-.4-.25-.65,0-1a9.3,9.3,0,0,1,.7-.83c.87-1,1.75-2,2.63-3.05l5.89-6.8c2.06-2.38,4.12-4.75,6.16-7.15.22-.26-1.07-.86-1.11-.87a6.45,6.45,0,0,0-2.27-.66,10.5,10.5,0,0,0-2.16.18c-1.3.18-2.6.39-3.91.61-3.29.54-6.57,1.11-9.86,1.69l-1.28.23c-1.87-5.74-3.94-11.42-6-17.11q-.8-2.25-1.58-4.51c-.22-.62-3.88-1.95-4.07-1.24-2,7.63-3.56,15.4-5.23,23.12-.3,1.42-.61,2.84-.94,4.25-7.23-.51-14.42-1.43-21.64-2.05a13.13,13.13,0,0,0-3.19-.19c-.34.06-.5.22-.16.5,2.13,1.74,4.52,3.21,6.8,4.74,3.24,2.19,6.51,4.36,9.75,6.55,1.1.75,2.2,1.49,3.29,2.26-2.37,5.59-4.87,11.12-7.19,16.74a21,21,0,0,0-.93,2.43C408.52,480.16,410,480.67,410.26,480.77ZM419,466.16c.63-1.47,1.27-3,1.89-4.42.09-.21-.41-.5-.48-.55-5.62-4-11.48-7.71-17.17-11.62l-1.76-1.23-.19-.14,1.3.1c1.72.14,3.45.31,5.17.47,4.22.41,8.44.84,12.66,1.24,1.6.15,3.19.31,4.79.42.09,0,.67.07.72-.14,1.7-7.14,3.07-14.35,4.72-21.49,1.35,3.81,2.71,7.62,4,11.44q.82,2.4,1.59,4.8c.08.25.67.53.85.61a5.57,5.57,0,0,0,2.81.79l.25,0c4.64-.86,9.3-1.69,14-2.44-3.14,3.67-6.32,7.3-9.48,11L442,458l-1.2,1.4c-.29.34-.17.5-.05.93l.36,1.29c.94,3.48,1.79,7,2.62,10.49.58,2.44,1.14,4.88,1.76,7.31-3.29-2.37-6.55-4.77-9.82-7.16q-1.87-1.35-3.73-2.72a6.43,6.43,0,0,0-2-.93c-.41-.12-1.41-.49-1.83-.23-4.53,2.89-9.06,5.84-13.77,8.45.23-.51.46-1,.67-1.51C416.37,472.28,417.71,469.22,419,466.16Z" fill="#232020"/><path d="M312.39,355.94c-.47-2.69-1.77-10.46-1.72-11,2.72,2.35,7.21,6.36,9.93,8.7,4.42-1.22,9.32-2.17,12.12-2.94-.64.9-5.54,7.56-7.3,9.91.82,1.31,5.47,8.63,6.08,10.77-.84-.23-7.69-3.33-10.65-4.61-1.49,2.05-6.75,9.95-7.68,11.05-.08-.44,1.19-11.46,1.37-13.88-2.56-.64-11-2.39-15.2-3.56C302.49,359.3,308.94,357,312.39,355.94Z" fill="#ffe757"/><path d="M331.71,371.6a2.3,2.3,0,0,0,.24-1.31,10.51,10.51,0,0,0-.76-1.76c-.42-.83-.87-1.64-1.33-2.44-1-1.67-2-3.32-3-4.95l-.6-1q2.7-3.63,5.36-7.28c.34-.45.67-.9,1-1.36a3.42,3.42,0,0,0,.52-1.35c0-.13.15-.7-.12-.62-3.39.92-6.86,1.58-10.27,2.45l-1.36.36c-.22.06-.35.13-.55,0a4.19,4.19,0,0,1-.45-.39l-1.68-1.47L315,347.23l-3.92-3.44c-.15-.12-.48.59-.49.61a3.77,3.77,0,0,0-.38,1.25,6.07,6.07,0,0,0,.09,1.2c.1.72.21,1.44.32,2.16q.43,2.73.89,5.46c0,.23.09.47.13.7-3.18,1-6.33,2.14-9.48,3.22l-2.5.86c-.35.12-1.1,2.13-.7,2.24,4.2,1.16,8.49,2,12.75,3L314,365c-.31,4-.85,8-1.23,12a7.44,7.44,0,0,0-.11,1.76c0,.19.12.28.27.09,1-1.17,1.79-2.48,2.65-3.73l3.67-5.37,1.25-1.8c3.08,1.33,6.13,2.74,9.23,4a10.37,10.37,0,0,0,1.34.53C331.37,372.56,331.66,371.73,331.71,371.6Zm-8-4.91-2.44-1.07c-.11-.05-.28.23-.3.27-2.25,3.08-4.31,6.3-6.5,9.43-.23.33-.45.65-.69,1l-.07.11q0-.36.06-.72c.08-.95.18-1.91.28-2.86.24-2.33.5-4.66.74-7,.09-.88.19-1.76.25-2.64,0-.05,0-.37-.07-.4-3.94-1-7.92-1.76-11.86-2.7,2.12-.73,4.23-1.47,6.35-2.17.88-.3,1.76-.59,2.65-.86.14-.05.3-.37.35-.47a3.1,3.1,0,0,0,.44-1.55.44.44,0,0,0,0-.13c-.45-2.58-.89-5.15-1.28-7.74l6,5.29,1.71,1.5.77.67c.19.16.27.09.51,0l.72-.19c1.92-.51,3.86-1,5.8-1.41,1.35-.3,2.71-.6,4.05-.94-1.32,1.81-2.66,3.6-4,5.4l-1.53,2.05a3.48,3.48,0,0,0-.52,1.08c-.07.23-.28.77-.13,1,1.57,2.52,3.18,5,4.6,7.64l-.83-.37Z" fill="#232020"/><path d="M121.91,55.44c1.81-3.25,7.08-12.57,7.61-13.11.86,4.81,2.18,12.88,3,17.68,5.71,2.49,11.7,5.67,15.32,7.25-1.44.41-12.32,3.25-16.19,4.23-.25,2.08-1.59,13.79-2.78,16.57-.7-1-5.28-10.09-7.31-14-3.33.89-15.64,4.74-17.56,5.11.29-.54,11.06-11.08,13.32-13.49-2.17-2.87-9.59-11.94-13-16.76C108.58,50.53,117.36,53.62,121.91,55.44Z" fill="#ffe757"/><path d="M128.94,88.5a3.19,3.19,0,0,0,1.37-1.17,14.61,14.61,0,0,0,.7-2.51c.27-1.24.48-2.48.68-3.73.42-2.58.77-5.17,1.09-7.77l.18-1.53q6-1.53,11.89-3.1c.74-.19,1.47-.38,2.21-.59a4.91,4.91,0,0,0,1.7-1c.15-.12.76-.61.41-.77-4.38-1.93-8.6-4.19-12.95-6.19l-1.74-.78c-.28-.13-.49-.17-.58-.48s-.09-.54-.14-.8c-.18-1-.35-2-.52-3-.38-2.22-.75-4.44-1.13-6.66s-.79-4.66-1.21-7c-.05-.25-1,.21-1,.22a5.06,5.06,0,0,0-1.46,1,8.16,8.16,0,0,0-.92,1.34c-.52.85-1,1.7-1.52,2.56q-1.87,3.26-3.72,6.52l-.48.86c-4.22-1.65-8.5-3.16-12.76-4.7L105.62,48c-.46-.17-3,1.32-2.65,1.77,3.45,4.82,7.23,9.41,10.91,14.06.68.85,1.36,1.71,2,2.58-3.74,3.94-7.71,7.68-11.51,11.57a9.71,9.71,0,0,0-1.63,1.76c-.13.22-.12.39.2.33,2-.4,4-1.09,6-1.68,2.82-.84,5.64-1.7,8.46-2.53,1-.29,1.91-.57,2.87-.84,2.11,4,4.13,8.14,6.28,12.16a15.85,15.85,0,0,0,1,1.7C127.76,89.22,128.77,88.6,128.94,88.5Zm-4.29-12.06c-.55-1.07-1.1-2.14-1.66-3.21-.08-.14-.49,0-.55,0-5,1.35-9.94,3-14.93,4.42L106,78.1l-.17.05.67-.71c.91-.93,1.83-1.85,2.74-2.77,2.25-2.25,4.52-4.5,6.76-6.76.85-.85,1.7-1.7,2.53-2.58,0,0,.36-.35.26-.48-3.33-4.39-6.86-8.62-10.21-13,2.85,1,5.71,2.07,8.55,3.13,1.19.45,2.37.9,3.55,1.37.18.07.62-.14.75-.2a4.08,4.08,0,0,0,1.8-1.26.53.53,0,0,0,.09-.16c1.73-3.1,3.46-6.2,5.26-9.27.62,3.57,1.22,7.15,1.83,10.72.18,1,.35,2,.53,3.06l.24,1.36c.06.33.21.34.52.47l.91.41c2.47,1.11,4.91,2.29,7.34,3.48,1.69.83,3.37,1.67,5.08,2.47-2.94.78-5.89,1.52-8.84,2.28l-3.36.87a4.71,4.71,0,0,0-1.47.69c-.27.18-1,.58-1,1-.49,4-.94,8-1.68,12-.18-.37-.36-.74-.55-1.1C126.93,80.91,125.79,78.68,124.65,76.44Z" fill="#232020"/></g></svg>