<?xml version="1.0" encoding="utf-8"?>
<!-- Generator: Adobe Illustrator 25.2.3, SVG Export Plug-In . SVG Version: 6.00 Build 0)  -->
<svg version="1.1" xmlns="http://www.w3.org/2000/svg" xmlns:xlink="http://www.w3.org/1999/xlink" x="0px" y="0px"
	 viewBox="0 0 66 66" style="enable-background:new 0 0 66 66;" xml:space="preserve">
<style type="text/css">
	.st0{fill:#FFFDF5;}
	.st1{fill:none;stroke:#161616;stroke-width:1.7866;stroke-miterlimit:10;}
</style>
<g id="Layer_2">
	<path class="st0" d="M19.3,11.2c0,0-0.3,0-0.5,0c-1.6,0.2-2.9,0.9-3.6,1.5c-1.3,1.1-1.7,2.8-1.8,3.8c-1.8,10.5-0.8,31.3-0.8,31.3
		c0.3,6.4,0.3,10.4,3.3,12.8c1.3,1,2.8,1.3,5.7,1.9c3.7,0.8,5.3,0.5,13.3,0.8c2.9,0.1,5.7-0.1,8.6,0.1c2.8,0.2,5.3,0.5,7.1-1.1
		c0.6-0.6,1-1.2,1.2-1.8c2.3-5.3,1.8-19.5,1.7-24.4c-0.1-10.2-0.2-15.3-0.1-16.8c0.3-3.2,0.8-6.1-0.9-7.8c-2-1.9-6.2-1.9-7.3-0.3
		c-0.5,0.7-0.1,1.3-0.7,2.1c-0.8,1.1-2.2,1.4-3.2,1.5c-4.2,0.6-6.3,1-8.1,1c-8.8,0.1-9.7-0.9-10.1-1.4c-0.6-1-0.4-2.4-1.5-2.9
		C21.2,11.3,20.2,11.1,19.3,11.2z"/>
	<path class="st0" d="M29.5,3.9c-1.1,1-1.2,2.6-1.3,2.9c-0.1,0.6,0,0.7-0.1,0.9c-0.5,0.7-1.7,0.2-3,0.6c-0.4,0.1-1.7,0.5-2.2,1.6
		c-0.2,0.4-0.2,0.8-0.3,1.5c0,0.3-0.1,2,0.1,2.7c0.4,1.2,2.7,1.7,8.1,1.7c8.4,0.1,10.6-0.9,11.9-2c0.6-0.5,2.2-1.7,2-3
		c-0.1-0.7-0.7-1.2-1.1-1.5c-1.2-0.9-3-1.4-4.7-1.1c-0.7,0.1-1.3,0.3-1.6,0c-0.2-0.2,0-0.5,0-1.4c0-0.6,0-1-0.1-1.4
		c-0.3-1-1-1.5-1.1-1.6c-0.4-0.3-1-0.4-2-0.6C33,3,32.3,2.9,31.5,3C31,3.1,30.2,3.3,29.5,3.9z"/>
</g>
<g id="approved-list">
	<path d="M24.5,63.4l19.8,0.3c7.6,0.1,9.4-2.4,9.4-8.5l0.4-39.6c0-3.9-1-5.6-4.8-5.4l-4,0.1c-0.4-1.1-1.4-1.9-2.5-2.3
		c-1.2-0.4-2.2-0.4-4.7-0.4c0.5-1.3,0-2.7-1-3.7C35.5,2.3,32.2,1.7,30,3c-1.6,0.9-2.4,2.6-2.2,4.3c-2.5,0.1-4.8,1.1-5.9,3.3
		c-6.5-0.1-9,1.4-9.5,8.6c-0.7,10.9-0.8,21.8-0.2,32.7C12.7,60.8,15.7,63.2,24.5,63.4z M36.9,62.3l-1-1l1.3-1.3l1.2,1.2l-1.4,1.4
		l0,0C37,62.5,37,62.4,36.9,62.3z M42,61.6l-0.6,0.6c-0.1,0.1-0.1,0.3,0,0.4s0.3,0.1,0.4,0l0,0l0.6-0.6l0.8,0.8l-2.7,0
		c0,0,0,0,0-0.1L39,61.2l1.3-1.3C40.3,59.9,42,61.6,42,61.6z M40.7,59.5l1.5-1.5l1.7,1.7l-1.5,1.5L40.7,59.5z M39.8,62.6l-2.2,0
		l1.1-1.1C38.7,61.5,39.8,62.6,39.8,62.6z M44.3,62.7l-0.4,0l-1.2-1.2l1.5-1.5l1.6,1.6L45.5,62c-0.1,0.1-0.1,0.3,0,0.4
		s0.3,0.1,0.4,0l0.3-0.3l0.6,0.6C46,62.7,45.1,62.7,44.3,62.7z M49.4,58.1l-1.3,1.3l-1.6-1.6l1.3-1.3L49.4,58.1z M47.7,59.8
		l-1.5,1.5l-1.6-1.6l1.5-1.5L47.7,59.8z M47.4,62.6l-0.9-0.9l1.5-1.5l1.8,1.8C49.1,62.3,48.3,62.5,47.4,62.6z M53.1,14.8l-0.2-0.2
		l0.2-0.2C53.1,14.5,53.1,14.6,53.1,14.8z M53.1,20l-0.2-0.2l0.1-0.1c0,0,0,0,0-0.1C53.1,19.7,53.1,20,53.1,20z M53.1,20.7l0,0.4
		c-0.1,0-0.1,0-0.2,0.1l-0.5,0.5l-0.8-0.8c0.1,0.1,0.2,0.1,0.3,0l0.6-0.6C52.6,20.2,53.1,20.7,53.1,20.7z M53,21.7l0,0.6L52.7,22
		L53,21.7z M28.4,8.3c0.3,0,0.5-0.2,0.5-0.5c0,0,0-0.1,0-0.1c-0.4-1.5,0.2-3,1.6-3.8c1.9-1.1,4.6-0.6,6,0.8c0.9,0.9,1.1,2,0.5,3.2
		c-0.1,0.2,0,0.5,0.2,0.7c0.1,0,0.1,0.1,0.2,0.1c3.2,0.1,4.1,0.1,5.2,0.4c2.8,0.9,2.3,3.6,0.4,4.9c-1.5,0.9-3.5,1-6.4,1.2l0,0
		l1.8-1.8l1,1c0,0,0.1,0.1,0.2,0.1c0.1,0.2,0.3,0.2,0.4,0.1l1.5-1.5l0.5,0.5l-0.3,0.3c-0.1,0.1-0.1,0.3,0,0.4s0.3,0.1,0.4,0l0,0
		l1.8-1.8c0.1-0.1,0.1-0.3,0-0.4s-0.3-0.1-0.4,0l0,0l-0.5-0.5l0.5-0.5l0.7,0.7c0.1,0.1,0.3,0.1,0.4,0s0.1-0.3,0-0.4l-1.3-1.3
		c-0.1-0.1-0.3-0.1-0.4,0s-0.1,0.3,0,0.4l0.3,0.3L42.4,11l-0.4-0.4c-0.1-0.1-0.3-0.1-0.4,0s-0.1,0.3,0,0.4l0.4,0.4l-0.8,0.8l-1-1
		l0.4-0.4c0.1-0.1,0.1-0.3,0-0.4s-0.3-0.1-0.4,0l-0.4,0.4l0,0c-0.1-0.1-0.3-0.1-0.4,0s-0.1,0.3,0,0.4l0,0l-1.3,1.3l-0.7-0.7
		c-0.1-0.1-0.3-0.1-0.4,0s-0.1,0.3,0,0.4l0.7,0.7l-1.8,1.8l-0.8-0.8l1.5-1.5c0.1-0.1,0.1-0.3,0-0.4s-0.3-0.1-0.4,0l-1.5,1.5
		l-1.1-1.1l0.1-0.1c0.1-0.1,0.1-0.3,0-0.4s-0.3-0.1-0.4,0L33.5,12c-0.1-0.1-0.2-0.1-0.3,0s-0.1,0.2,0,0.3l-1,1l-0.6-0.6
		c-0.1-0.1-0.3-0.1-0.4,0s-0.1,0.3,0,0.4l0.6,0.6l-1.2,1.2c-0.1,0.1-0.1,0.1-0.1,0.2c-4.4-0.1-5.8,0-6.7-0.6
		C21.4,13,22.1,8.4,28.4,8.3z M33.5,12.7l1.1,1.1l-0.9,0.9c0,0,0,0.1,0,0.1l-1.1-1.1C32.5,13.7,33.5,12.7,33.5,12.7z M33.2,15.1
		c-0.7,0-1.4,0-2.1,0l1-1L33.2,15.1z M34,15.1l0.9-0.9l0.9,0.9C35.2,15,34.6,15.1,34,15.1z M39.6,13.8
		C39.5,13.8,39.6,13.8,39.6,13.8l-1-1l1.3-1.3l1,1C40.9,12.5,39.6,13.8,39.6,13.8z M42.1,13l-0.5-0.5l0.8-0.8l0.5,0.5
		C42.9,12.3,42.1,13,42.1,13z M13.5,19.2c0.4-6.3,2.2-7.8,8.1-7.6c-0.2,1.4,0.5,3.1,1.7,3.8c2,1.2,13.7,0.6,16,0.4
		c1.4-0.1,2.9-0.4,4.1-1.1l0,0c0.4-0.3,0.8-0.6,1.1-1l0.6,0.6l-0.9,0.9c-0.1,0.1-0.1,0.3,0,0.4s0.3,0.1,0.4,0l0.9-0.9l0.3,0.3
		c0.1,0.1,0.3,0.1,0.4,0s0.1-0.3,0-0.4l-0.3-0.3l1.1-1.1c0.1-0.1,0.1-0.3,0-0.4s-0.3-0.1-0.4,0l-1.1,1.1l-0.7-0.7
		c0.3-0.6,0.6-1.3,0.6-1.9l0.1,0l1.5,1.5c0.1,0.1,0.3,0.1,0.4,0s0.1-0.3,0-0.4l-1.2-1.2l1.9-0.1l1.1,1.1l-1,1
		c-0.1,0.1-0.1,0.3,0,0.4s0.3,0.1,0.4,0l1-1l0.6,0.6c0.1,0.1,0.3,0.1,0.4,0s0.1-0.3,0-0.4L50,12.3l0.3-0.3c0.1-0.1,0.1-0.3,0-0.4
		s-0.3-0.1-0.4,0l-0.3,0.3l-0.8-0.8l0.5,0c1.7-0.1,3.4-0.1,3.7,2.8c-0.1,0-0.2,0-0.3,0l-0.2,0.2l-0.7-0.7c-0.1-0.1-0.3-0.1-0.4,0
		s-0.1,0.3,0,0.4l0.7,0.7l-1.1,1.1c-0.1,0.1-0.1,0.3,0,0.4c0.1,0.1,0.3,0.1,0.4,0l1.1-1.1l0.6,0.6v0.1l0,2.4l-0.4-0.4l0.3-0.3
		c0.1-0.1,0.1-0.3,0-0.4s-0.3-0.1-0.4,0l-0.3,0.3l-0.8-0.8c-0.1-0.1-0.3-0.1-0.4,0s-0.1,0.3,0,0.4l0.8,0.8L51,18.4
		c-0.1,0.1-0.1,0.3,0,0.4s0.3,0.1,0.4,0l0.9-0.9l0.8,0.8l0,0.9c0,0,0-0.1,0-0.1c-0.1-0.1-0.3-0.1-0.4,0c0,0,0,0,0,0l-0.1,0.1
		l-0.7-0.7c-0.1-0.1-0.3-0.1-0.4,0s-0.1,0.3,0,0.4l0.7,0.7l-0.6,0.6c-0.1,0.1-0.1,0.2,0,0.3l0,0c-0.1-0.1-0.3-0.1-0.4,0
		s-0.1,0.3,0,0.4L52,22l-0.7,0.7c-0.1,0.1-0.1,0.3,0,0.4s0.3,0.1,0.4,0l0.7-0.7c0.1,0.1,0.5,0.5,0.6,0.6l-0.3,30l-1.4-1.4
		c-0.1-0.1-0.3-0.1-0.4,0s-0.1,0.3,0,0.4l0,0l1.7,1.7l0,1.5c0,2.9-0.2,5.2-2.4,6.5l-1.9-1.9l1.3-1.3l0.9,0.9l-0.8,0.8
		c-0.1,0.1-0.1,0.3,0,0.4s0.3,0.1,0.4,0l0.8-0.8l0.3,0.3c0.1,0.1,0.3,0.1,0.4,0c0,0,0,0,0,0c0.1-0.1,0.1-0.3,0-0.4c0,0,0,0,0,0
		l-0.3-0.3l0.6-0.6c0.1-0.1,0.1-0.3,0-0.4s-0.3-0.1-0.4,0L51,59l-0.9-0.9l0.6-0.6c0.1-0.1,0.1-0.3,0-0.4s-0.3-0.1-0.4,0l-0.6,0.6
		L49,57.1c0,0,0.1,0,0.1,0l1.5-1.5l1.6,1.6c0.1,0.1,0.3,0.1,0.4,0s0.1-0.3,0-0.4L51,55.2l0.4-0.4c0.1-0.1,0.1-0.3,0-0.4
		s-0.3-0.1-0.4,0l-0.4,0.4L50,54.2c-0.1-0.1-0.3-0.1-0.4,0s-0.1,0.3,0,0.4l0.7,0.7l-1.5,1.5c0,0,0,0.1,0,0.1l-0.6-0.6l0.1-0.1
		c0.1-0.1,0.1-0.3,0-0.4s-0.3-0.1-0.4,0l-0.1,0.1l-0.4-0.4c-0.1-0.1-0.3-0.1-0.4,0s-0.1,0.3,0,0.4l0.4,0.4l-1.3,1.3L45,56.4l1-1
		c0.1-0.1,0.1-0.3,0-0.4s-0.3-0.1-0.4,0l-1,1l-0.6-0.6c-0.1-0.1-0.3-0.1-0.4,0s-0.1,0.3,0,0.4l0.6,0.6l-0.7,0.7
		c-0.1,0.1-0.1,0.3,0,0.4s0.3,0.1,0.4,0l0.7-0.7l1.1,1.1l-1.5,1.5l-1.7-1.7l0.2-0.2c0.1-0.1,0.1-0.3,0-0.4s-0.3-0.1-0.4,0l-0.2,0.2
		L42,57.1c-0.1-0.1-0.3-0.1-0.4,0s-0.1,0.3,0,0.4l0.2,0.2l-1.5,1.5l-0.8-0.8c-0.1-0.1-0.3-0.1-0.4,0s-0.1,0.3,0,0.4l0.8,0.8
		l-1.3,1.3l-1.2-1.2l0.3-0.3c0.1-0.1,0.1-0.3,0-0.4s-0.3-0.1-0.4,0l-1.9,1.9L35,60.4c-0.1-0.1-0.3-0.1-0.4,0s-0.1,0.3,0,0.4l0.6,0.6
		l-0.9,0.9c-0.1,0.1-0.1,0.3,0,0.4s0.3,0.1,0.4,0l0.9-0.9l1,1l-12-0.2c-8.2-0.2-10.8-2.1-11.3-10.6C12.7,40.9,12.8,30,13.5,19.2z"/>
	<path d="M18.5,40.4L18.5,40.4l4.2-0.2c0.3,0,0.5-0.2,0.5-0.5c0-0.3-0.2-0.5-0.5-0.5c0,0,0,0,0,0l-4.2,0.2c-0.3,0-0.5,0.3-0.5,0.5
		C18,40.2,18.3,40.4,18.5,40.4z M27.3,40.7l20.7,0.2h0c0.3,0,0.5-0.2,0.5-0.5c0-0.3-0.2-0.5-0.5-0.5l-20.7-0.2h0
		c-0.3,0-0.5,0.2-0.5,0.5C26.8,40.5,27,40.7,27.3,40.7z M18.5,36.7L18.5,36.7l4.2-0.2c0.3,0,0.5-0.2,0.5-0.5c0-0.3-0.2-0.5-0.5-0.5
		c0,0,0,0,0,0l-4.2,0.2c-0.3,0-0.5,0.3-0.5,0.5C18,36.5,18.3,36.7,18.5,36.7z M27.3,37l20.7,0.2h0c0.3,0,0.5-0.2,0.5-0.5
		c0-0.3-0.2-0.5-0.5-0.5L27.3,36h0c-0.3,0-0.5,0.2-0.5,0.5C26.8,36.8,27,37,27.3,37z M18.5,33L18.5,33l4.2-0.2
		c0.3,0,0.5-0.2,0.5-0.5s-0.2-0.5-0.5-0.5c0,0,0,0,0,0L18.5,32c-0.3,0-0.5,0.3-0.5,0.5C18,32.8,18.3,33,18.5,33z M27.3,33.3
		l20.7,0.2h0c0.3,0,0.5-0.2,0.5-0.5c0-0.3-0.2-0.5-0.5-0.5l-20.7-0.2h0c-0.3,0-0.5,0.2-0.5,0.5C26.8,33,27,33.3,27.3,33.3z
		 M18.5,29.2L18.5,29.2l4.2-0.2c0.3,0,0.5-0.2,0.5-0.5S23,28,22.7,28c0,0,0,0,0,0l-4.2,0.2c-0.3,0-0.5,0.3-0.5,0.5
		C18,29,18.3,29.2,18.5,29.2z M27.3,29.5l20.7,0.2h0c0.3,0,0.5-0.2,0.5-0.5c0-0.3-0.2-0.5-0.5-0.5l-20.7-0.2h0
		c-0.3,0-0.5,0.2-0.5,0.5C26.8,29.3,27,29.5,27.3,29.5z M18.5,25.5L18.5,25.5l4.2-0.2c0.3,0,0.5-0.2,0.5-0.5s-0.2-0.5-0.5-0.5
		c0,0,0,0,0,0l-4.2,0.2c-0.3,0-0.5,0.3-0.5,0.5C18,25.3,18.3,25.5,18.5,25.5z M27.3,25.8L47.9,26h0c0.3,0,0.5-0.2,0.5-0.5
		c0-0.3-0.2-0.5-0.5-0.5l-20.7-0.2h0c-0.3,0-0.5,0.2-0.5,0.5C26.8,25.6,27,25.8,27.3,25.8z M18.5,44.2L18.5,44.2l4.2-0.2
		c0.3,0,0.5-0.2,0.5-0.5c0-0.3-0.2-0.5-0.5-0.5c0,0,0,0,0,0l-4.2,0.2c-0.3,0-0.5,0.3-0.5,0.5C18,44,18.3,44.2,18.5,44.2z M27.3,44.5
		l20.7,0.2h0c0.3,0,0.5-0.2,0.5-0.5c0-0.3-0.2-0.5-0.5-0.5l-20.7-0.2h0c-0.3,0-0.5,0.2-0.5,0.5C26.8,44.2,27,44.5,27.3,44.5z
		 M25.9,14.2l-0.3,0.3c-0.1,0.1-0.1,0.3,0,0.4s0.3,0.1,0.4,0l0.3-0.3l0.3,0.3c0.1,0.1,0.3,0.1,0.4,0s0.1-0.3,0-0.4l0,0l-0.3-0.3
		l0.5-0.5l1.3,1.3c0,0,0.1,0.1,0.2,0.1c0,0,0,0,0.1,0c0,0,0,0,0,0c0.1,0,0.1,0,0.2-0.1l0.9-0.9l0.7,0.7c0.1,0.1,0.3,0.1,0.4,0
		s0.1-0.3,0-0.4L30,13.7l1-1c0.1-0.1,0.1-0.3,0-0.4s-0.3-0.1-0.4,0l-1,1l-0.6-0.6c-0.1-0.1-0.3-0.1-0.4,0s-0.1,0.3,0,0.4l0.6,0.6
		l-0.8,0.8l-1.1-1.1l1.1-1.1c0.1-0.1,0.1-0.3,0-0.4s-0.3-0.1-0.4,0L27,13.1c0,0-0.1,0-0.1,0s0,0.1,0,0.1l-0.6,0.6l-0.5-0.5
		c-0.1-0.1-0.3-0.1-0.4,0s-0.1,0.3,0,0.4C25.4,13.6,25.9,14.2,25.9,14.2z M31.1,6.8l-0.7,0.7c-0.1,0.1-0.1,0.3,0,0.4s0.3,0.1,0.4,0
		l0.7-0.7l0.2,0.2c0.1,0.1,0.3,0.1,0.4,0c0.1-0.1,0.1-0.3,0-0.4l-0.2-0.2l0.5-0.5l0.5,0.5c0.1,0.1,0.3,0.1,0.4,0s0.1-0.3,0-0.4
		L32.7,6c0.1-0.1,0.2-0.1,0.3-0.1h0c0.2,0,0.3,0.1,0.6,0.3c0.1,0.1,0.3,0.1,0.4,0c0.1-0.1,0.1-0.3,0-0.4l0,0
		c-0.3-0.3-0.6-0.5-0.9-0.5h0c-0.2,0-0.4,0.1-0.6,0.2l-0.5-0.5l0.7-0.7c0.1-0.1,0.1-0.3,0-0.4s-0.3-0.1-0.4,0l-0.7,0.7l-0.1-0.1
		c-0.1-0.1-0.3-0.1-0.4,0S30.9,4.9,31,5l0.1,0.1l-0.5,0.5l-0.1-0.1c-0.1-0.1-0.3-0.1-0.4,0s-0.1,0.3,0,0.4
		C30.2,5.9,31.1,6.8,31.1,6.8z M31.4,5.5L31.9,6l-0.5,0.5L31,6C31,6,31.4,5.5,31.4,5.5z M16,59.4c0.1,0.1,0.3,0.1,0.4,0c0,0,0,0,0,0
		l1.1-1.1l0.5,0.5c0.1,0.1,0.3,0.1,0.4,0s0.1-0.3,0-0.4L17.7,58l0.7-0.7l0.4,0.4c0.1,0.1,0.3,0.1,0.4,0s0.1-0.3,0-0.4L18.8,57
		l1.3-1.3c0.1-0.1,0.1-0.3,0-0.4s-0.3-0.1-0.4,0l-1.3,1.3L17.8,56c-0.1-0.1-0.3-0.1-0.4,0s-0.1,0.3,0,0.4L18,57l-0.7,0.7l-1.1-1.1
		c-0.1-0.1-0.3-0.1-0.4,0s-0.1,0.3,0,0.4L17,58L16,59.1C15.9,59.1,15.9,59.3,16,59.4z"/>
</g>
<g id="Layer_3">
	<path class="st1" d="M32.1,51c0.2,0.4,1.1,2.6,2.3,2.5c0.7,0,1.2-0.7,1.5-1.1c1-1.3,2.4-3,4.4-5.3"/>
</g>
</svg>
