<svg xmlns="http://www.w3.org/2000/svg" viewBox="0 0 972.33 984.63"><g id="base"><path d="M702.58,1074.22H177.47a11.06,11.06,0,0,1-11.06-11.06V514.7c0-215.53,174.72-390.25,390.24-390.25h0c215.53,0,390.25,174.72,390.25,390.25v548.46a11.06,11.06,0,0,1-11.06,11.06H702.58" transform="translate(-161.42 -94.57)" fill="#ffe656" stroke="#091414" stroke-miterlimit="10" stroke-width="9.97"/><path d="M948.11,1017.58a612.56,612.56,0,0,1-41.48,57.61" transform="translate(-161.42 -94.57)" fill="none" stroke="#091414" stroke-miterlimit="10" stroke-width="5.7"/><path d="M167.46,495.46c6.7-22.39,13.16-44.51,22.37-65.71.92-1.84,0-2.77.92-4.61,21.2-49.77,48.85-94.93,83.88-138.25,2.76-2.76,5.53-6.45,9.21-9.21,31.34-36.87,63.6-67.29,105.07-94,21.2-13.83,42.4-23,64.52-33.18a80.34,80.34,0,0,1,13.82-4.61,306.77,306.77,0,0,1,127.32-22.42" transform="translate(-161.42 -94.57)" fill="none" stroke="#091414" stroke-miterlimit="10" stroke-width="5.7"/><path d="M279.45,1076.74c-10.35-13.81-21.41-25.79-29.71-41.46a39.71,39.71,0,0,1-5.53-6.45c-34.1-53.46-59-106-74-164.54" transform="translate(-161.42 -94.57)" fill="none" stroke="#091414" stroke-miterlimit="10" stroke-width="5.7"/><ellipse cx="395.23" cy="522.25" rx="283.45" ry="327.5" fill="#ffe656" stroke="#091414" stroke-miterlimit="10" stroke-width="7"/><ellipse cx="370.19" cy="522.25" rx="190.63" ry="259.94" fill="#e0c75c" stroke="#091414" stroke-miterlimit="10" stroke-width="7"/><ellipse cx="316.74" cy="538.35" rx="137.17" ry="184.84" fill="#ffe656" stroke="#091414" stroke-miterlimit="10" stroke-width="7"/><ellipse cx="274.96" cy="534.56" rx="95.39" ry="132.11" fill="#e0c75c" stroke="#091414" stroke-miterlimit="10" stroke-width="7"/><ellipse cx="225.65" cy="536.71" rx="46.08" ry="90.32" fill="#091414"/><ellipse cx="401.68" cy="522.91" rx="355.76" ry="428.9" fill="none" stroke="#091414" stroke-miterlimit="10" stroke-width="5.43"/></g><g id="hand"><path d="M387.07,616.23c76.62,90.41,196.13,131,308.48,104.5,152.4-36,210.73-176.43,215.88-189.45" transform="translate(-161.42 -94.57)" fill="none" stroke="#091414" stroke-linecap="round" stroke-miterlimit="10" stroke-width="74"/><path d="M830.21,484.71c-16.91,31.74,9.77,79,59.6,105.55s104,22.35,120.86-9.4-9.77-79-59.6-105.55S847.12,453,830.21,484.71Z" transform="translate(-161.42 -94.57)" fill="#fff" stroke="#141414" stroke-miterlimit="10" stroke-width="8.74"/><path d="M911.43,286.58C947.86,239,956.28,201.93,935,146.17c-16.92-44.42,74.26-81.47,106.71,7.65s-37.5,130.26-37.5,130.26Z" transform="translate(-161.42 -94.57)" fill="#fff" stroke="#141414" stroke-miterlimit="10" stroke-width="9.51"/><path d="M893,307.25c43-74.49,130.1-93,198-23.21s25,130.64,25,130.64-4.18,66.79-45.57,76.51c0,0,2.32,70.93-75.41,70.29S786.44,491.59,893,307.25Z" transform="translate(-161.42 -94.57)" fill="#fff" stroke="#141414" stroke-miterlimit="10" stroke-width="8.74"/><path d="M1015.14,324.31S1117.71,351.4,1116,414.68" transform="translate(-161.42 -94.57)" fill="none" stroke="#141414" stroke-linecap="round" stroke-miterlimit="10" stroke-width="8.74"/><path d="M969.25,402.66s102.57,27.09,100.88,90.37" transform="translate(-161.42 -94.57)" fill="none" stroke="#141414" stroke-linecap="round" stroke-miterlimit="10" stroke-width="8.74"/><path d="M1007.44,485.72s-32.9-9-38.18,21.58,45.41,65.25,80.31,35.83" transform="translate(-161.42 -94.57)" fill="none" stroke="#141414" stroke-linecap="round" stroke-miterlimit="10" stroke-width="8.74"/></g><g id="stars"><path d="M590,195.49c-4.07-.25-8.26-.46-12.22-1.05-7.08-1.05-16.12-3.38-19.4-10.53-6.4-14-.68-30.64-7.31-44.24,1.19,2.47-.77,8.27-.92,11.08-.84,15.86-6.88,31.18-21.76,38.7-9.19,4.65-19.91,6.45-30.09,7.21-2.48.19-10.91,4-5,5.22,12.22,2.62,26.13,1.5,37.65,7.46,10.82,5.6,9.29,22.63,11.31,33,.48,2.46.88,5.11,2.19,7.25,9-4.57,4.76-25.27,11.19-33.12,8.49-10.36,22.9-11.07,35-13.84,1.88-.43,7-.9,7.21-3.69.22-2.56-2.78-3.07-4.8-3.22Z" transform="translate(-161.42 -94.57)" fill="#ffe656" stroke="#091414" stroke-miterlimit="10" stroke-width="6.67"/><path d="M338.77,358c-5.31-.33-10.77-.59-15.94-1.36-9.24-1.38-21-4.42-25.3-13.74-8.36-18.24-.9-40-9.54-57.72,1.55,3.23-1,10.8-1.21,14.47-1.09,20.68-9,40.67-28.38,50.48-12,6.06-26,8.41-39.25,9.4-3.23.24-14.24,5.16-6.53,6.81,15.94,3.41,34.09,2,49.12,9.73,14.12,7.3,12.11,29.52,14.76,43,.62,3.2,1.14,6.66,2.84,9.45,11.72-6,6.23-33,14.61-43.2,11.07-13.51,29.87-14.43,45.6-18.05,2.46-.56,9.09-1.18,9.4-4.82.29-3.33-3.62-4-6.26-4.19C341.4,358.19,340.09,358.11,338.77,358Z" transform="translate(-161.42 -94.57)" fill="#ffe656" stroke="#091414" stroke-miterlimit="10" stroke-width="8.7"/><path d="M376.29,935.41c-4,.32-8.1.69-12,.66-7.05-.05-16.17-1.07-20.35-7.58-8.16-12.74-4.89-29.76-13.21-42.09,1.5,2.24.38,8.17.63,10.92,1.37,15.57-2.42,31.32-15.87,40.69-8.31,5.79-18.51,9-28.32,11.16-2.39.53-10.08,5.36-4.15,5.78,12.26.87,25.66-2.13,37.7,2.08,11.31,4,12.16,20.77,15.56,30.55.8,2.33,1.55,4.86,3.12,6.76,8.12-5.68,1.17-25.27,6.35-33.8,6.84-11.26,20.78-13.93,32.15-18.29,1.77-.68,6.66-1.84,6.51-4.59-.14-2.52-3.13-2.6-5.12-2.47Z" transform="translate(-161.42 -94.57)" fill="#ffe656" stroke="#091414" stroke-miterlimit="10" stroke-width="6.56"/><path d="M679.12,918.44c-4.44.35-9,.77-13.38.73-7.82-.06-18-1.19-22.59-8.42-9.07-14.15-5.44-33-14.68-46.76,1.66,2.49.42,9.08.69,12.14,1.52,17.29-2.67,34.79-17.62,45.2-9.23,6.43-20.55,10-31.45,12.39-2.66.59-11.21,6-4.62,6.42,13.62,1,28.5-2.37,41.88,2.31,12.56,4.41,13.51,23.07,17.28,33.94.89,2.58,1.73,5.39,3.47,7.5,9-6.31,1.3-28.07,7-37.54,7.6-12.5,23.09-15.47,35.71-20.32,2-.75,7.4-2,7.23-5.1-.16-2.8-3.47-2.89-5.69-2.74C681.32,918.26,680.22,918.35,679.12,918.44Z" transform="translate(-161.42 -94.57)" fill="#ffe656" stroke="#091414" stroke-miterlimit="10" stroke-width="7.29"/><path d="M755.37,433c-5.86.46-11.88,1-17.65,1-10.34-.08-23.72-1.58-29.83-11.12-12-18.67-7.17-43.63-19.38-61.72,2.2,3.29.56,12,.92,16,2,22.82-3.54,45.92-23.27,59.67C654,445.28,639,450,624.65,453.16c-3.51.77-14.79,7.86-6.1,8.47,18,1.27,37.63-3.13,55.29,3.05,16.58,5.81,17.83,30.45,22.8,44.79,1.19,3.42,2.29,7.12,4.58,9.91,11.91-8.33,1.72-37.05,9.31-49.56,10-16.5,30.48-20.42,47.13-26.81,2.61-1,9.78-2.7,9.55-6.74-.2-3.69-4.58-3.81-7.5-3.61C758.28,432.75,756.83,432.86,755.37,433Z" transform="translate(-161.42 -94.57)" fill="#ffe656" stroke="#091414" stroke-miterlimit="10" stroke-width="9.62"/></g></svg>