<svg id="Layer_4" data-name="Layer 4" xmlns="http://www.w3.org/2000/svg" viewBox="0 0 532 206.59"><defs><style>.cls-1{fill:#fffcf8;}</style></defs><path class="cls-1" d="M484.06,183.52c-12.6.22-26.62-1.46-40.78-1.82-17.95-.46-35.81-.22-53.27,2.9a161.34,161.34,0,0,0-32.89,9.28,131.22,131.22,0,0,0-27.33,14.83c-3,2.17-3,2.06-6.21,0-20.76-13.4-45.6-22-75.88-24.32a313.31,313.31,0,0,0-52.09.82c-22.52,2-45,2.85-67.42-.22-16.36-2.24-31.47-6.05-44.56-12.74-14.68-7.5-23.11-16.86-24.36-28.58-.62-5.87-.14-11.64,4.28-17,7.73-9.44,26.13-10.45,37.45-4.22,7.62,4.19,9,11.06,4.91,16.72-.34.48-.57,1-1.59,1.06-1.24,0-1.44-.67-1.74-1.22a11.42,11.42,0,0,1-1.34-5.66,16.19,16.19,0,0,0-.55-4.62c-1.29-4.47-5.87-6.91-12.74-8a21.35,21.35,0,0,0-16.29,3.52c-5.31,3.63-6.21,8-6.65,12.45a22.57,22.57,0,0,0,3,14.38c6,9.93,16.64,17.45,32.13,22.33,10.94,3.45,22.61,5.25,34.73,6.19,19.1,1.48,37.76.13,56.46-2.45a311.67,311.67,0,0,1,88.66.21,105.57,105.57,0,0,1,33,10.38c3.76,1.95,7.65,3.78,10.74,6.13,1.13.85,1.76.5,2.91.06,5.5-2.09,10.29-4.76,15.65-7,19.75-8.21,41.42-12.76,65.12-14.13,22-1.27,43.66-.08,65.4,1.66,19.79,1.58,39.6,1,59.36-.42a144.89,144.89,0,0,0,28.84-4.49c8.11-2.26,15.34-5.22,19.83-10.1,7.23-7.88,9.62-16.41,6.11-25.11-2.12-5.27-6.21-10.29-15.8-12.5-8.85-2-15.6-.19-18.32,5.32-1.53,3.09-1.08,6.28-1.43,9.43a24.49,24.49,0,0,1-1,4.15c-.2.68-.87,1.2-2.12,1.29a1.52,1.52,0,0,1-1.81-1.14c-2-5.17-3.25-10.52,1-15.34s11.71-7.2,22.75-5.57c6.46,1,11,3.39,14.35,6.84,9,9.33,7.35,19,2.14,28.66-1.64,3-4.65,5.91-8,8.49-7.71,5.86-17.64,9.93-28.81,12.76C529.37,181.93,507.73,183.52,484.06,183.52Z" transform="translate(-59 -3.7)"/><path class="cls-1" d="M496.83,38.7c-13.29-.23-26.38,1-39.5,2a385.2,385.2,0,0,1-51.08.45,199.23,199.23,0,0,1-54.54-10.45,166.34,166.34,0,0,1-21-8.86c-5.11-2.63-5.1-2.52-9.86.36-14.92,9-33,14.4-53.59,16.2A344.87,344.87,0,0,1,200.05,38c-9.1-1-18.1-2.34-27.2-3.32A217.77,217.77,0,0,0,134,34.51c-14.24,1-27.82,3.48-39.91,8.26C84,46.78,76.37,52.19,71,59c-6.63,8.35-7.66,16.89-4.1,25.67,1.88,4.61,6.56,8.31,14.82,9.11,10.76,1.06,19.05-3.61,19.48-10.67.14-2.43,0-4.87,1-7.24.31-.74.53-1.82,2.21-1.77,1.41,0,1.48,1.05,1.87,1.72,3.45,5.85,2.38,11.4-4.85,15.82-10,6.1-28.58,6-37.09-3C60.05,84,59,79,59,73.88a27.94,27.94,0,0,1,7.73-19.77c6.86-7.39,16.61-13.06,28.68-17.37,20-7.16,41.91-9.53,64.66-9.75,13-.12,25.88,1.11,38.75,2.14,23.19,1.87,46.3,2.14,69-2A150.08,150.08,0,0,0,298,18.48c10-4.11,19.37-8.62,27.14-14.29.94-.68,1.35-.6,2.45-.06,4,1.94,6.67,4.59,10.33,6.71C358.3,22.57,382,29.92,410,31.86a361,361,0,0,0,50-.42c26.52-1.83,52.84-1.3,78.58,3.39,12.61,2.29,24.29,5.76,34.11,11.41A48.08,48.08,0,0,1,582.9,54.1c8.77,8.75,9.77,18.23,5.84,27.83-3.19,7.8-13,13.41-26.65,12.82-5.83-.26-14.53-4.25-15.93-7.8a18,18,0,0,1,.15-13.12c.26-.72.39-1.7,2.31-1.58s1.8,1.06,2.08,1.8c.94,2.38.89,4.82.93,7.25a12.72,12.72,0,0,0,1.9,6.93c2.51,3.9,7.34,5.65,14,4.83,5.06-.62,9.67-2,12.71-4.64,4.57-4,7.92-8.37,8-13.41a51.15,51.15,0,0,0-.09-6.19c-.63-6.07-3.9-11.67-9.86-16.47-7.21-5.8-17.71-8.6-28.89-10.39C532.16,39.2,514.49,38.92,496.83,38.7Z" transform="translate(-59 -3.7)"/><path class="cls-1" d="M219.87,91.69c0,7.51-.07,15,.07,22.55,0,1.49-.69,1.83-3,1.83-4.71,0-7.32.08-7.31-3.3q0-8.79,0-17.57c0-.9.18-2-1.5-2.41a31.6,31.6,0,0,0-8.8-.13c-3.09.27-4,1.48-3.94,3.34.12,6,.18,12,.32,18,0,1.43-.33,2.08-3.06,2.06-7.23,0-7.23,0-7.23-4.35,0-14.07.06-28.15-.07-42.22,0-2.7,3.47-2.42,7-2.24a8,8,0,0,1,2,.29c1.84.62,1.32,2.69,1.31,3.74,0,4.64.08,9.28,0,13.93-.09,3.27,14.12,2.92,14.35-.47.38-5.39-.47-10.89-.29-16.31.07-1.88,5.33-1.38,7.42-1.19s2.76,1.28,2.76,2.54C219.89,77.09,219.87,84.39,219.87,91.69Z" transform="translate(-59 -3.7)"/><path class="cls-1" d="M271.52,88.63c-.25,5.14.25,11.4-.3,17.67-.48,5.49-6.57,9.19-12.72,10-9.44,1.25-20-2.23-20.78-9.66-.75-6.92-.48-13.85-.56-20.77-.07-5.61.07-11.21-.07-16.82,0-1.46.64-1.86,3-1.85,7.34,0,7.34,0,7.34,4.49,0,10.25,0,20.5,0,30.75a15.67,15.67,0,0,0,.59,4.17c.7,2.53,2.94,3.65,6.86,3.6,3.51,0,5.38-1.13,6-3.6a11.06,11.06,0,0,0,.34-2.85c0-11.44.06-22.87,0-34.3,0-1.62.39-2.33,3.47-2.27,6.82.13,6.82,0,6.82,4.16Z" transform="translate(-59 -3.7)"/><path class="cls-1" d="M341.14,104.72c1.56,0,3.13,0,4.67-.13,3.29-.3,5,.19,5.78,2.49.58,1.69,3.09,3.16,6.54,3.1s5.07-1.43,5.65-3.37c.92-3-.1-5.92-2.57-8.51s-5.6-4.49-8.84-6.57c-7-4.48-11.82-9.74-10.79-16.27,1.14-7.29,9.72-9.48,21-8.26,6.8.73,11.75,4.8,11.91,9.11,0,.35.09.82-.23,1-1.46,1-9.41-.12-10.09-1.41-1.18-2.2-4-3.35-7.37-3-3.86.42-6.23,2.07-6,4.41A7.42,7.42,0,0,0,353.44,82c3.55,3.35,7.92,6.2,12.3,9.12,7.31,4.85,10.55,10.69,8.65,17.32-1.35,4.73-7.67,7.73-16.35,8-7.83.27-13.27-2-15.82-6.69a26.77,26.77,0,0,1-1.16-2.78A1.36,1.36,0,0,1,341.14,104.72Z" transform="translate(-59 -3.7)"/><path class="cls-1" d="M507,85.57c2.52-6.1,7-11.08,9.46-16.5.67-1.46,1.78-1.9,4.27-1.87,7.89.09,8.35.14,5.24,4.46-5,6.91-8,14.24-12.67,21.19a8.76,8.76,0,0,0-1.46,5.2c0,5.31-.11,10.61.06,15.91.05,1.61-.51,2.17-3.32,2.12-6.51-.11-6.51,0-6.51-4.1,0-5.15,0-10.31,0-15.47a6.23,6.23,0,0,0-2.38-5.11c-1.33-1.16-1.71-2.73-2.47-4.12-2.73-5-5.46-9.89-8.13-14.84-.74-1.37-2.33-2.46-3-3.88-.61-1.25,0-1.42,1.71-1.32h.36c8.09-.13,7.62,0,10.8,4.55C502,76.09,503.91,80.6,507,85.57Z" transform="translate(-59 -3.7)"/><path class="cls-1" d="M148.21,94.32c0-6.41-.13-12.82.08-19.22.06-1.9-.95-2.49-3.85-2.23-1.06.09-2.16,0-3.24,0-5.67,0-4.6.48-5-3.06-.24-2.18.9-2.7,4.35-2.64,8.77.17,17.55.09,26.33,0,2.19,0,3.16.21,3.13,1.77-.09,3.9.06,3.89-6.43,3.91-5.54,0-4.76-.43-4.77,2.92,0,12.67-.08,25.33.07,38,0,1.91-.93,2.32-3.84,2.27-6.85-.12-6.85,0-6.85-4.31Z" transform="translate(-59 -3.7)"/><path class="cls-1" d="M439.25,145.66c-2.09.38-3.1-.54-2.9-2.81.13-1.58,1-1.81,3.19-1.73,11.64.44,23.3.35,34.95.45q25.59.24,51.18.54c1,0,2.6-.37,2.68.56s-1.59.61-2.53.63c-19.55.5-39.1.9-58.64,1.48C458.43,145,449.65,144.89,439.25,145.66Z" transform="translate(-59 -3.7)"/><path class="cls-1" d="M194.49,141.13c7.07,0,14.16.14,21.21-.06,3.62-.1,3,1.15,3.14,2.47.18,1.52-.54,2-3.16,2q-36.83-1.16-73.67-2.19c-.93,0-2.62.35-2.46-.68.13-.88,1.76-.52,2.73-.52q26.11,0,52.21,0Z" transform="translate(-59 -3.7)"/><path class="cls-1" d="M360.5,142.49c.34-2.34.28-5.42,5.55-7.12,4.38-1.4,7.91-1.27,11.57.7.83.45,2.52,1.21,1.15,1.92a5.23,5.23,0,0,1-4.47.39c-3.75-1.64-6.42-1.11-7.69,1.57s-1.3,5.09.61,7.53a4.85,4.85,0,0,0,7.15.57c1.78-1.54,3.61-.59,4.94-.13,1.53.52.14,1.5-.57,2-4.71,3.46-12.05,2.76-15.88-.46C361.05,148,360.48,146,360.5,142.49Z" transform="translate(-59 -3.7)"/><path class="cls-1" d="M330.63,144.57a46.2,46.2,0,0,1,.05-5.52c.2-1.61-.85-2.11-3.28-1.91-.71.06-1.44,0-2.16,0-1.43.06-1.87-.37-1.86-1.19s.29-1.25,1.78-1.25q7.75,0,15.5,0c1.56,0,1.66.55,1.7,1.29s-.61,1.08-1.94,1.16c-5,.28-5,.31-5,3.39,0,3.39,0,6.77,0,10.16,0,1-.36,1.46-2.18,1.4-1.58-.05-2.78,0-2.67-1.37C330.75,148.69,330.63,146.63,330.63,144.57Z" transform="translate(-59 -3.7)"/><path class="cls-1" d="M422.26,149.82c-.14,1.4-1.15,2.32-3.49,2.28s-3.34-1-3.28-2.33,1.09-2.07,3.25-2.1C421.12,147.64,422.12,148.51,422.26,149.82Z" transform="translate(-59 -3.7)"/><path class="cls-1" d="M317,95.71c-1.1-2.49-1.59-4.25,2.42-5.74a5.36,5.36,0,0,0,2.12-2c3.14-3.87,3.3-8,1.91-12.08-2.07-6.15-7.21-8.61-17.42-8.63-4.33,0-8.68.11-13,0-3-.11-4.12.28-4.05,2.35.25,7.38.1,14.75.1,22.13v19.91c0,4.51,0,4.43,7.29,4.49,2.63,0,3.17-.51,3.13-2-.16-6.27-.16-12.54-.13-18.8,0-.8-1-2.14,1.83-2,2.17.08,4.63-.61,5.35,1.75,1.7,5.64,3.93,11.22,6,16.82,1.61,4.43,1.63,4.36,9.14,4.36,2.42,0,2.77-.4,2.27-1.74C321.6,108.19,319.74,101.88,317,95.71Zm-4.62-11.52c-1.37,2.85-8,4.54-12.29,3.24-1.05-.32-.74-.85-.75-1.32,0-2,0-4,0-6s0-4,0-6c0-.47-.22-1,.89-1.27,5-1.3,11.1.42,12.3,3.66A9.51,9.51,0,0,1,312.39,84.19Z" transform="translate(-59 -3.7)"/><path class="cls-1" d="M426.62,83.59a41.6,41.6,0,0,0-3.42-10.86c-1.41-2.88-5.49-4.63-10.19-5.14-5.86-.64-11.77-.16-17.65-.38-2.65-.1-3.14.53-3.13,2,.1,9.36.06,18.72.06,28.09,0,5.6.09,11.21-.07,16.81-.06,2.13,2.34,2,5.13,1.92,4.23-.12,8.48.18,12.71-.1,14.26-1,15.2-9.15,16.47-16.27A45.25,45.25,0,0,0,426.62,83.59Zm-11.43,20.46a21,21,0,0,1-6.72,6.31C402.35,114,401,106.22,401,104c-.14-6.66.12-13.38-.41-20-.27-3.31-2.95-9.68,4.23-11a12.24,12.24,0,0,1,5,.24c11.55,2.79,10.53,12.63,9.57,18.7C418.72,95.88,417.76,100.2,415.19,104.05Z" transform="translate(-59 -3.7)"/><path class="cls-1" d="M479,114c-1.48-3.52-2.69-7.08-4-10.61-3.92-10.83-7.07-21.77-10.43-32.67-1.28-4.15-1.75-3.37-7.58-3.49-1.7,0-2.61.22-3,1.34-1.1,3.34-2.38,6.66-3.72,10-2.71,6.69-4.41,13.54-6.74,20.3-1.55,4.52-2.28,9.17-4.78,13.54-2.13,3.71-2.36,3.66,4,3.66,5.13,0,5.12,0,6.19-3.13a52.68,52.68,0,0,1,2.83-6.26c1.95-3.88,1.74-3.92,8.61-3.93a15.42,15.42,0,0,0,1.8,0c2.07-.21,2.71.5,3,1.57.74,2.46,1.57,4.91,2.36,7.36,1.44,4.49,1.44,4.4,8.89,4.45C479.45,116.1,479.61,115.41,479,114ZM458.67,95.93c-1.13,0-3.16.58-2.68-1.12.87-3,1.57-6.06,2.34-9.09l.55,0c.93,3.09,2,6.16,2.77,9.26C462.07,96.61,459.77,95.88,458.67,95.93Z" transform="translate(-59 -3.7)"/><path class="cls-1" d="M254.24,144.32c-.39-.3-.81-.58-1.16-.9-1.35-1.26,0-2,.9-3.16,2.27-2.82-2.93-5.64-7.31-5.55-2.66.06-5.35.12-8,0a3.37,3.37,0,0,0-2,.36c-.89.64-.37,2.37-.37,3.16,0,1.45,0,2.91,0,4.37,0,2.71,0,5.41,0,8.12a1.36,1.36,0,0,0,.34,1.09c.7.64,4.4.31,5.53.34a32.47,32.47,0,0,0,7.59-.43c2.52-.55,4.88-1.81,5.68-3.4A3.06,3.06,0,0,0,254.24,144.32Zm-13.48-4.78c.21-1.31-.48-2.63,3.11-2.46,4,.2,5.65.71,5.55,2.4-.13,2.11-2.58,2.15-5.44,2.14C241.5,142,240.47,141.32,240.76,139.54Zm3.59,10c-4.24.27-3.61-1.3-3.49-2.94-.42-1.52-.22-2.68,3.46-2.48,4,.21,5.86.94,5.8,2.85S248.44,149.25,244.35,149.51Z" transform="translate(-59 -3.7)"/><path class="cls-1" d="M284.7,139.71c-.61-2.07-2-4-5.63-4.74-4.22-.84-8-.66-11.61,1.35s-3,4.44-3.57,6.29a9.58,9.58,0,0,0,1.24,5.72c1.45,2.4,5.19,3.83,9.82,3.8,5.05,0,7.7-1.13,9.19-3.92A10.83,10.83,0,0,0,284.7,139.71Zm-6.59,8.78c-3.05,1.73-6.4,1.32-8-1a6.2,6.2,0,0,1-1-4.17,6.09,6.09,0,0,1,.56-3.2c.53-1.36,1.51-2.46,3.89-2.88,2.75-.5,4.31.71,5.77,1.67C282,140.61,281,146.83,278.11,148.49Z" transform="translate(-59 -3.7)"/><path class="cls-1" d="M314,139.09c-1.58-3.28-4.47-4.68-9.86-4.61-4.91.06-8.14,1.74-9.26,4.83a11.14,11.14,0,0,0-.07,7.86c1.2,3.27,4.12,4.9,9,5,6.1.07,8.68-1.15,10.3-4.75a14.19,14.19,0,0,0-.1-8.29Zm-4.77,8.53c-.94,1.23-2.42,1.94-4.75,1.94s-3.94-.71-4.7-2a7.89,7.89,0,0,1-.05-8.4c.79-1.4,2.6-2.09,5-2.07s3.74.8,4.6,2.08a6.3,6.3,0,0,1,.81,4.11C310.13,144.76,310.26,146.24,309.21,147.62Z" transform="translate(-59 -3.7)"/><path class="cls-1" d="M406.5,139.22c-1.59-3.28-4.48-4.68-9.87-4.61-4.91.07-8.13,1.74-9.25,4.84a11.11,11.11,0,0,0-.07,7.85c1.2,3.28,4.12,4.9,9,5,6.1.07,8.68-1.15,10.31-4.75a14.19,14.19,0,0,0-.1-8.29Zm-4.77,8.53c-.94,1.23-2.42,1.95-4.75,1.94s-4-.71-4.7-2a7.89,7.89,0,0,1,0-8.4c.79-1.4,2.6-2.09,5-2.07a5.21,5.21,0,0,1,4.6,2.08,6.31,6.31,0,0,1,.81,4.11C402.65,144.89,402.78,146.37,401.73,147.75Z" transform="translate(-59 -3.7)"/></svg>